%TF.GenerationSoftware,KiCad,Pcbnew,9.0.3*%
%TF.CreationDate,2025-09-02T21:17:27+03:00*%
%TF.ProjectId,ThingsCore-1,5468696e-6773-4436-9f72-652d312e6b69,rev?*%
%TF.SameCoordinates,Original*%
%TF.FileFunction,Legend,Bot*%
%TF.FilePolarity,Positive*%
%FSLAX46Y46*%
G04 Gerber Fmt 4.6, Leading zero omitted, Abs format (unit mm)*
G04 Created by KiCad (PCBNEW 9.0.3) date 2025-09-02 21:17:27*
%MOMM*%
%LPD*%
G01*
G04 APERTURE LIST*
%ADD10C,0.120000*%
%ADD11C,0.200000*%
%ADD12C,0.254000*%
G04 APERTURE END LIST*
D10*
%TO.C,R10*%
X20653641Y-53530000D02*
X20346359Y-53530000D01*
X20653641Y-52770000D02*
X20346359Y-52770000D01*
%TO.C,R12*%
X14070000Y-51296359D02*
X14070000Y-51603641D01*
X14830000Y-51296359D02*
X14830000Y-51603641D01*
%TO.C,Q2*%
X18977500Y-50750000D02*
X18977500Y-50100000D01*
X18977500Y-50750000D02*
X18977500Y-51400000D01*
X22097500Y-50750000D02*
X22097500Y-50100000D01*
X22097500Y-50750000D02*
X22097500Y-51400000D01*
X22377500Y-52152500D02*
X22047500Y-51912500D01*
X22377500Y-51672500D01*
X22377500Y-52152500D01*
G36*
X22377500Y-52152500D02*
G01*
X22047500Y-51912500D01*
X22377500Y-51672500D01*
X22377500Y-52152500D01*
G37*
%TO.C,Q3*%
X16862500Y-49940000D02*
X16212500Y-49940000D01*
X16862500Y-49940000D02*
X17512500Y-49940000D01*
X16862500Y-53060000D02*
X16212500Y-53060000D01*
X16862500Y-53060000D02*
X17512500Y-53060000D01*
X15940000Y-53340000D02*
X15460000Y-53340000D01*
X15700000Y-53010000D01*
X15940000Y-53340000D01*
G36*
X15940000Y-53340000D02*
G01*
X15460000Y-53340000D01*
X15700000Y-53010000D01*
X15940000Y-53340000D01*
G37*
%TO.C,R11*%
X23080000Y-51953641D02*
X23080000Y-51646359D01*
X22320000Y-51953641D02*
X22320000Y-51646359D01*
%TO.C,C66*%
X38982836Y-44560000D02*
X38767164Y-44560000D01*
X38982836Y-43840000D02*
X38767164Y-43840000D01*
%TO.C,R53*%
X21946359Y-39620000D02*
X22253641Y-39620000D01*
X21946359Y-40380000D02*
X22253641Y-40380000D01*
%TO.C,R57*%
X23730000Y-41246359D02*
X23730000Y-41553641D01*
X22970000Y-41246359D02*
X22970000Y-41553641D01*
%TO.C,R59*%
X22780000Y-41246359D02*
X22780000Y-41553641D01*
X22020000Y-41246359D02*
X22020000Y-41553641D01*
%TO.C,R55*%
X23920000Y-41246359D02*
X23920000Y-41553641D01*
X24680000Y-41246359D02*
X24680000Y-41553641D01*
%TO.C,C70*%
X22235000Y-45642164D02*
X22235000Y-45857836D01*
X21515000Y-45642164D02*
X21515000Y-45857836D01*
D11*
%TO.C,RN4*%
X20100000Y-28550000D02*
G75*
G02*
X19900000Y-28550000I-100000J0D01*
G01*
X19900000Y-28550000D02*
G75*
G02*
X20100000Y-28550000I100000J0D01*
G01*
D10*
%TO.C,Y3*%
X19110000Y-29585000D02*
X14990000Y-29585000D01*
X19110000Y-26165000D02*
X19110000Y-29585000D01*
%TO.C,C50*%
X33240000Y-30257836D02*
X33240000Y-30042164D01*
X33960000Y-30257836D02*
X33960000Y-30042164D01*
%TO.C,C39*%
X35432836Y-45190000D02*
X35217164Y-45190000D01*
X35432836Y-45910000D02*
X35217164Y-45910000D01*
%TO.C,R51*%
X16153641Y-48570000D02*
X15846359Y-48570000D01*
X16153641Y-49330000D02*
X15846359Y-49330000D01*
%TO.C,R21*%
X24460000Y-27721359D02*
X24460000Y-28028641D01*
X25220000Y-27721359D02*
X25220000Y-28028641D01*
%TO.C,R18*%
X36496359Y-37995000D02*
X36803641Y-37995000D01*
X36496359Y-38755000D02*
X36803641Y-38755000D01*
%TO.C,R16*%
X35053641Y-27445000D02*
X34746359Y-27445000D01*
X35053641Y-28205000D02*
X34746359Y-28205000D01*
%TO.C,C52*%
X25457836Y-26115000D02*
X25242164Y-26115000D01*
X25457836Y-26835000D02*
X25242164Y-26835000D01*
%TO.C,R33*%
X34406359Y-14155000D02*
X34713641Y-14155000D01*
X34406359Y-14915000D02*
X34713641Y-14915000D01*
%TO.C,C26*%
X32190000Y-48637836D02*
X32190000Y-48422164D01*
X32910000Y-48637836D02*
X32910000Y-48422164D01*
%TO.C,R13*%
X40546359Y-57470000D02*
X40853641Y-57470000D01*
X40546359Y-58230000D02*
X40853641Y-58230000D01*
%TO.C,C27*%
X31840000Y-46562164D02*
X31840000Y-46777836D01*
X32560000Y-46562164D02*
X32560000Y-46777836D01*
%TO.C,C56*%
X34965000Y-26342164D02*
X34965000Y-26557836D01*
X35685000Y-26342164D02*
X35685000Y-26557836D01*
%TO.C,C6*%
X37763748Y-51040000D02*
X38286252Y-51040000D01*
X37763748Y-52510000D02*
X38286252Y-52510000D01*
%TO.C,R5*%
X34320000Y-56446359D02*
X34320000Y-56753641D01*
X35080000Y-56446359D02*
X35080000Y-56753641D01*
%TO.C,C61*%
X34507836Y-20190000D02*
X34292164Y-20190000D01*
X34507836Y-20910000D02*
X34292164Y-20910000D01*
%TO.C,L3*%
X39850000Y-51475000D02*
X39850000Y-53975000D01*
X41960000Y-53975000D02*
X41960000Y-51475000D01*
%TO.C,C87*%
X19217164Y-21315000D02*
X19432836Y-21315000D01*
X19217164Y-22035000D02*
X19432836Y-22035000D01*
%TO.C,C40*%
X28880000Y-42067164D02*
X28880000Y-42282836D01*
X29600000Y-42067164D02*
X29600000Y-42282836D01*
%TO.C,R15*%
X35053641Y-28395000D02*
X34746359Y-28395000D01*
X35053641Y-29155000D02*
X34746359Y-29155000D01*
%TO.C,R23*%
X14621359Y-32170000D02*
X14928641Y-32170000D01*
X14621359Y-32930000D02*
X14928641Y-32930000D01*
%TO.C,R8*%
X22520000Y-53671359D02*
X22520000Y-53978641D01*
X23280000Y-53671359D02*
X23280000Y-53978641D01*
%TO.C,R38*%
X18346359Y-21130000D02*
X18653641Y-21130000D01*
X18346359Y-20370000D02*
X18653641Y-20370000D01*
%TO.C,C46*%
X38615000Y-45917164D02*
X38615000Y-46132836D01*
X39335000Y-45917164D02*
X39335000Y-46132836D01*
%TO.C,R52*%
X17020000Y-48596359D02*
X17020000Y-48903641D01*
X17780000Y-48596359D02*
X17780000Y-48903641D01*
%TO.C,R37*%
X20545000Y-22696359D02*
X20545000Y-23003641D01*
X21305000Y-22696359D02*
X21305000Y-23003641D01*
%TO.C,C80*%
X18832836Y-47285000D02*
X18617164Y-47285000D01*
X18832836Y-46565000D02*
X18617164Y-46565000D01*
%TO.C,C92*%
X19290000Y-26937836D02*
X19290000Y-26722164D01*
X20010000Y-26937836D02*
X20010000Y-26722164D01*
%TO.C,C53*%
X25432836Y-28907836D02*
X25217164Y-28907836D01*
X25432836Y-29627836D02*
X25217164Y-29627836D01*
%TO.C,C14*%
X28692164Y-39490000D02*
X28907836Y-39490000D01*
X28692164Y-40210000D02*
X28907836Y-40210000D01*
%TO.C,C84*%
X15157836Y-22815000D02*
X14942164Y-22815000D01*
X15157836Y-23535000D02*
X14942164Y-23535000D01*
%TO.C,Y4*%
X20940000Y-32245000D02*
X20940000Y-35665000D01*
X20940000Y-35665000D02*
X16820000Y-35665000D01*
%TO.C,R48*%
X16503641Y-43170000D02*
X16196359Y-43170000D01*
X16503641Y-43930000D02*
X16196359Y-43930000D01*
%TO.C,C71*%
X14915000Y-31012164D02*
X14915000Y-31227836D01*
X15635000Y-31012164D02*
X15635000Y-31227836D01*
%TO.C,C44*%
X36795000Y-47057836D02*
X36795000Y-46842164D01*
X37515000Y-47057836D02*
X37515000Y-46842164D01*
%TO.C,C36*%
X33292164Y-42040000D02*
X33507836Y-42040000D01*
X33292164Y-42760000D02*
X33507836Y-42760000D01*
%TO.C,C17*%
X28692164Y-40415000D02*
X28907836Y-40415000D01*
X28692164Y-41135000D02*
X28907836Y-41135000D01*
%TO.C,C2*%
X32171920Y-57765000D02*
X32453080Y-57765000D01*
X32171920Y-58785000D02*
X32453080Y-58785000D01*
%TO.C,R26*%
X23345000Y-21278641D02*
X23345000Y-20971359D01*
X24105000Y-21278641D02*
X24105000Y-20971359D01*
%TO.C,R40*%
X15820000Y-35003641D02*
X15820000Y-34696359D01*
X16580000Y-35003641D02*
X16580000Y-34696359D01*
%TO.C,C41*%
X37040000Y-43352164D02*
X37040000Y-43567836D01*
X36320000Y-43352164D02*
X36320000Y-43567836D01*
%TO.C,C19*%
X29840000Y-41217164D02*
X29840000Y-41432836D01*
X30560000Y-41217164D02*
X30560000Y-41432836D01*
%TO.C,C95*%
X22207836Y-35890000D02*
X21992164Y-35890000D01*
X22207836Y-36610000D02*
X21992164Y-36610000D01*
%TO.C,C51*%
X25440000Y-27760000D02*
X25440000Y-27975672D01*
X26160000Y-27760000D02*
X26160000Y-27975672D01*
%TO.C,C55*%
X31990000Y-27392164D02*
X31990000Y-27607836D01*
X32710000Y-27392164D02*
X32710000Y-27607836D01*
D12*
%TO.C,U9*%
X21875000Y-14263800D02*
X21875000Y-16851300D01*
X21875000Y-18713600D02*
X21875000Y-18730100D01*
X21875000Y-18730100D02*
X33125000Y-18730100D01*
X31718800Y-12735100D02*
X23281200Y-12735100D01*
X33125000Y-16851300D02*
X33125000Y-14263800D01*
X33125000Y-18730100D02*
X33125000Y-18713600D01*
X23099901Y-19125000D02*
X23099901Y-19125000D01*
X23099901Y-19125000D01*
X23099901Y-19125000D01*
X23099901Y-19125000D01*
X23099901Y-19125000D01*
X23099901Y-19125001D01*
X23099901Y-19125001D01*
X23099901Y-19125001D01*
X23099901Y-19125001D01*
X23099901Y-19125001D01*
X23099901Y-19125001D01*
X23099901Y-19125001D01*
X23099900Y-19125001D01*
X23099900Y-19125001D01*
X23099900Y-19125001D01*
X23099900Y-19125001D01*
X23099900Y-19125001D01*
X23099900Y-19125001D01*
X23099900Y-19125001D01*
X23099900Y-19125001D01*
X23099900Y-19125001D01*
X23099900Y-19125001D01*
X23099900Y-19125001D01*
X23099900Y-19125001D01*
X23099899Y-19125001D01*
X23099899Y-19125001D01*
X23099899Y-19125001D01*
X23099899Y-19125001D01*
X23099899Y-19125001D01*
X23099899Y-19125001D01*
X23099899Y-19125000D01*
X23099899Y-19125000D01*
X23099899Y-19125000D01*
X23099899Y-19125000D01*
X23099899Y-19125000D01*
X23099899Y-19125000D01*
X23099899Y-19125000D02*
X23099899Y-19125000D01*
X23099899Y-19125000D01*
X23099899Y-19125000D01*
X23099899Y-19125000D01*
X23099899Y-19125000D01*
X23099899Y-19125000D01*
X23099899Y-19124999D01*
X23099899Y-19124999D01*
X23099899Y-19124999D01*
X23099899Y-19124999D01*
X23099899Y-19124999D01*
X23099900Y-19124999D01*
X23099900Y-19124999D01*
X23099900Y-19124999D01*
X23099900Y-19124999D01*
X23099900Y-19124999D01*
X23099900Y-19124999D01*
X23099900Y-19124999D01*
X23099900Y-19124999D01*
X23099900Y-19124999D01*
X23099900Y-19124999D01*
X23099900Y-19124999D01*
X23099900Y-19124999D01*
X23099901Y-19124999D01*
X23099901Y-19124999D01*
X23099901Y-19124999D01*
X23099901Y-19124999D01*
X23099901Y-19124999D01*
X23099901Y-19124999D01*
X23099901Y-19125000D01*
X23099901Y-19125000D01*
X23099901Y-19125000D01*
X23099901Y-19125000D01*
X23099901Y-19125000D01*
X23099901Y-19125000D01*
X23099901Y-19125000D01*
D10*
%TO.C,D1*%
X39850000Y-54140000D02*
X39850000Y-56800000D01*
X39850000Y-54140000D02*
X41550000Y-54140000D01*
X41550000Y-54140000D02*
X41550000Y-56800000D01*
%TO.C,C78*%
X18617164Y-45640000D02*
X18832836Y-45640000D01*
X18617164Y-46360000D02*
X18832836Y-46360000D01*
%TO.C,C21*%
X35757836Y-46815000D02*
X35542164Y-46815000D01*
X35757836Y-47535000D02*
X35542164Y-47535000D01*
%TO.C,C35*%
X30340000Y-48657836D02*
X30340000Y-48442164D01*
X31060000Y-48657836D02*
X31060000Y-48442164D01*
%TO.C,Y1*%
X22390000Y-47565000D02*
X22390000Y-43445000D01*
X25810000Y-47565000D02*
X22390000Y-47565000D01*
%TO.C,C48*%
X36682836Y-40665000D02*
X36467164Y-40665000D01*
X36682836Y-41385000D02*
X36467164Y-41385000D01*
%TO.C,C97*%
X14017164Y-42790000D02*
X14232836Y-42790000D01*
X14017164Y-43510000D02*
X14232836Y-43510000D01*
%TO.C,R6*%
X35270000Y-56753641D02*
X35270000Y-56446359D01*
X36030000Y-56753641D02*
X36030000Y-56446359D01*
%TO.C,R47*%
X16503641Y-46020000D02*
X16196359Y-46020000D01*
X16503641Y-46780000D02*
X16196359Y-46780000D01*
%TO.C,FB1*%
X13340000Y-45774622D02*
X13340000Y-44975378D01*
X14460000Y-45774622D02*
X14460000Y-44975378D01*
%TO.C,R54*%
X16503641Y-45070000D02*
X16196359Y-45070000D01*
X16503641Y-45830000D02*
X16196359Y-45830000D01*
%TO.C,C11*%
X28692164Y-38565000D02*
X28907836Y-38565000D01*
X28692164Y-39285000D02*
X28907836Y-39285000D01*
%TO.C,C25*%
X30137901Y-44612263D02*
X30353573Y-44612263D01*
X30137901Y-45332263D02*
X30353573Y-45332263D01*
%TO.C,Q1*%
X18365000Y-57275000D02*
X18365000Y-56625000D01*
X18365000Y-57275000D02*
X18365000Y-57925000D01*
X21485000Y-57275000D02*
X21485000Y-56625000D01*
X21485000Y-57275000D02*
X21485000Y-57925000D01*
X18415000Y-56112500D02*
X18085000Y-56352500D01*
X18085000Y-55872500D01*
X18415000Y-56112500D01*
G36*
X18415000Y-56112500D02*
G01*
X18085000Y-56352500D01*
X18085000Y-55872500D01*
X18415000Y-56112500D01*
G37*
%TO.C,C91*%
X19192164Y-25810000D02*
X19407836Y-25810000D01*
X19192164Y-25090000D02*
X19407836Y-25090000D01*
%TO.C,C37*%
X35332836Y-42965000D02*
X35117164Y-42965000D01*
X35332836Y-43685000D02*
X35117164Y-43685000D01*
%TO.C,C88*%
X19217164Y-22240000D02*
X19432836Y-22240000D01*
X19217164Y-22960000D02*
X19432836Y-22960000D01*
%TO.C,C43*%
X37712836Y-45215000D02*
X37497164Y-45215000D01*
X37712836Y-45935000D02*
X37497164Y-45935000D01*
%TO.C,C9*%
X16263748Y-55427500D02*
X16786252Y-55427500D01*
X16263748Y-56897500D02*
X16786252Y-56897500D01*
%TO.C,C98*%
X14017164Y-41845000D02*
X14232836Y-41845000D01*
X14017164Y-42565000D02*
X14232836Y-42565000D01*
%TO.C,R19*%
X18295000Y-53996359D02*
X18295000Y-54303641D01*
X19055000Y-53996359D02*
X19055000Y-54303641D01*
%TO.C,R20*%
X26020000Y-44403641D02*
X26020000Y-44096359D01*
X26780000Y-44403641D02*
X26780000Y-44096359D01*
%TO.C,R2*%
X23420000Y-56828641D02*
X23420000Y-56521359D01*
X24180000Y-56828641D02*
X24180000Y-56521359D01*
%TO.C,C74*%
X25240000Y-21207836D02*
X25240000Y-20992164D01*
X25960000Y-21207836D02*
X25960000Y-20992164D01*
%TO.C,C77*%
X19092164Y-43710000D02*
X19307836Y-43710000D01*
X19092164Y-42990000D02*
X19307836Y-42990000D01*
%TO.C,C10*%
X16238748Y-53452500D02*
X16761252Y-53452500D01*
X16238748Y-54922500D02*
X16761252Y-54922500D01*
%TO.C,C69*%
X26040000Y-46207836D02*
X26040000Y-45992164D01*
X26760000Y-46207836D02*
X26760000Y-45992164D01*
%TO.C,C24*%
X30137901Y-45537263D02*
X30353573Y-45537263D01*
X30137901Y-46257263D02*
X30353573Y-46257263D01*
%TO.C,R22*%
X23520000Y-28028641D02*
X23520000Y-27721359D01*
X24280000Y-28028641D02*
X24280000Y-27721359D01*
%TO.C,C3*%
X25913748Y-51115000D02*
X26436252Y-51115000D01*
X25913748Y-52585000D02*
X26436252Y-52585000D01*
%TO.C,U3*%
X24465000Y-55325000D02*
X24465000Y-54525000D01*
X24465000Y-55325000D02*
X24465000Y-56125000D01*
X27685000Y-54325000D02*
X27685000Y-56125000D01*
X24515000Y-54025000D02*
X24185000Y-54265000D01*
X24185000Y-53785000D01*
X24515000Y-54025000D01*
G36*
X24515000Y-54025000D02*
G01*
X24185000Y-54265000D01*
X24185000Y-53785000D01*
X24515000Y-54025000D01*
G37*
%TO.C,R34*%
X34406359Y-15120000D02*
X34713641Y-15120000D01*
X34406359Y-15880000D02*
X34713641Y-15880000D01*
%TO.C,C64*%
X26190000Y-23482836D02*
X26190000Y-23267164D01*
X26910000Y-23482836D02*
X26910000Y-23267164D01*
%TO.C,C86*%
X15127836Y-20410000D02*
X14912164Y-20410000D01*
X15127836Y-21130000D02*
X14912164Y-21130000D01*
%TO.C,C1*%
X26259420Y-57815000D02*
X26540580Y-57815000D01*
X26259420Y-58835000D02*
X26540580Y-58835000D01*
%TO.C,C23*%
X38590000Y-39542164D02*
X38590000Y-39757836D01*
X39310000Y-39542164D02*
X39310000Y-39757836D01*
%TO.C,R41*%
X14870000Y-35003641D02*
X14870000Y-34696359D01*
X15630000Y-35003641D02*
X15630000Y-34696359D01*
%TO.C,R4*%
X29332500Y-56753641D02*
X29332500Y-56446359D01*
X30092500Y-56753641D02*
X30092500Y-56446359D01*
%TO.C,C73*%
X24290000Y-20992164D02*
X24290000Y-21207836D01*
X25010000Y-20992164D02*
X25010000Y-21207836D01*
%TO.C,C32*%
X30515000Y-43492164D02*
X30515000Y-43707836D01*
X31235000Y-43492164D02*
X31235000Y-43707836D01*
%TO.C,Y2*%
X24975000Y-48825000D02*
X23625000Y-48825000D01*
X24975000Y-50575000D02*
X23625000Y-50575000D01*
%TO.C,R32*%
X34396359Y-13220000D02*
X34703641Y-13220000D01*
X34396359Y-13980000D02*
X34703641Y-13980000D01*
%TO.C,R46*%
X13946359Y-39935000D02*
X14253641Y-39935000D01*
X13946359Y-40695000D02*
X14253641Y-40695000D01*
%TO.C,R17*%
X27321359Y-33545000D02*
X27628641Y-33545000D01*
X27321359Y-34305000D02*
X27628641Y-34305000D01*
%TO.C,C5*%
X38109420Y-57765000D02*
X38390580Y-57765000D01*
X38109420Y-58785000D02*
X38390580Y-58785000D01*
%TO.C,R56*%
X16503641Y-46970000D02*
X16196359Y-46970000D01*
X16503641Y-47730000D02*
X16196359Y-47730000D01*
%TO.C,C31*%
X33297164Y-42965000D02*
X33512836Y-42965000D01*
X33297164Y-43685000D02*
X33512836Y-43685000D01*
%TO.C,C34*%
X31665000Y-44217164D02*
X31665000Y-44432836D01*
X32385000Y-44217164D02*
X32385000Y-44432836D01*
%TO.C,C49*%
X27282836Y-27040000D02*
X27067164Y-27040000D01*
X27282836Y-27760000D02*
X27067164Y-27760000D01*
%TO.C,C7*%
X23440000Y-53717164D02*
X23440000Y-53932836D01*
X24160000Y-53717164D02*
X24160000Y-53932836D01*
%TO.C,C57*%
X27817164Y-23490000D02*
X28032836Y-23490000D01*
X27817164Y-24210000D02*
X28032836Y-24210000D01*
%TO.C,C83*%
X15157836Y-23740000D02*
X14942164Y-23740000D01*
X15157836Y-24460000D02*
X14942164Y-24460000D01*
%TO.C,R24*%
X16770000Y-30971359D02*
X16770000Y-31278641D01*
X17530000Y-30971359D02*
X17530000Y-31278641D01*
%TO.C,R50*%
X16503641Y-44120000D02*
X16196359Y-44120000D01*
X16503641Y-44880000D02*
X16196359Y-44880000D01*
%TO.C,C54*%
X27740000Y-25317164D02*
X27740000Y-25532836D01*
X28460000Y-25317164D02*
X28460000Y-25532836D01*
%TO.C,C22*%
X34190000Y-48657836D02*
X34190000Y-48442164D01*
X34910000Y-48657836D02*
X34910000Y-48442164D01*
%TO.C,R25*%
X33670000Y-17153641D02*
X33670000Y-16846359D01*
X34430000Y-17153641D02*
X34430000Y-16846359D01*
%TO.C,C4*%
X31851248Y-51040000D02*
X32373752Y-51040000D01*
X31851248Y-52510000D02*
X32373752Y-52510000D01*
%TO.C,C65*%
X26215000Y-32657836D02*
X26215000Y-32442164D01*
X26935000Y-32657836D02*
X26935000Y-32442164D01*
%TO.C,C93*%
X21115000Y-34692164D02*
X21115000Y-34907836D01*
X21835000Y-34692164D02*
X21835000Y-34907836D01*
%TO.C,C33*%
X33932836Y-46815000D02*
X33717164Y-46815000D01*
X33932836Y-47535000D02*
X33717164Y-47535000D01*
%TO.C,C94*%
X15940000Y-33107836D02*
X15940000Y-32892164D01*
X16660000Y-33107836D02*
X16660000Y-32892164D01*
%TO.C,R39*%
X13946359Y-37075000D02*
X14253641Y-37075000D01*
X13946359Y-37835000D02*
X14253641Y-37835000D01*
%TO.C,L2*%
X33912500Y-51450000D02*
X33912500Y-53950000D01*
X36022500Y-53950000D02*
X36022500Y-51450000D01*
%TO.C,R44*%
X13936359Y-38025000D02*
X14243641Y-38025000D01*
X13936359Y-38785000D02*
X14243641Y-38785000D01*
%TO.C,R1*%
X22470000Y-56521359D02*
X22470000Y-56828641D01*
X23230000Y-56521359D02*
X23230000Y-56828641D01*
%TO.C,R35*%
X39920000Y-41746359D02*
X39920000Y-42053641D01*
X40680000Y-41746359D02*
X40680000Y-42053641D01*
%TO.C,C99*%
X15767164Y-35890000D02*
X15982836Y-35890000D01*
X15767164Y-36610000D02*
X15982836Y-36610000D01*
%TO.C,C28*%
X30142164Y-46815000D02*
X30357836Y-46815000D01*
X30142164Y-47535000D02*
X30357836Y-47535000D01*
%TO.C,C60*%
X34990000Y-32907836D02*
X34990000Y-32692164D01*
X35710000Y-32907836D02*
X35710000Y-32692164D01*
%TO.C,C101*%
X22507836Y-38690000D02*
X22292164Y-38690000D01*
X22507836Y-39410000D02*
X22292164Y-39410000D01*
%TO.C,C85*%
X15132836Y-21340000D02*
X14917164Y-21340000D01*
X15132836Y-22060000D02*
X14917164Y-22060000D01*
%TO.C,C72*%
X15865000Y-31232836D02*
X15865000Y-31017164D01*
X16585000Y-31232836D02*
X16585000Y-31017164D01*
%TO.C,C16*%
X33565000Y-39807836D02*
X33565000Y-39592164D01*
X34285000Y-39807836D02*
X34285000Y-39592164D01*
%TO.C,C20*%
X28515000Y-45867164D02*
X28515000Y-46082836D01*
X29235000Y-45867164D02*
X29235000Y-46082836D01*
%TO.C,C68*%
X25117164Y-47715000D02*
X25332836Y-47715000D01*
X25117164Y-48435000D02*
X25332836Y-48435000D01*
%TO.C,C12*%
X36542164Y-38940000D02*
X36757836Y-38940000D01*
X36542164Y-39660000D02*
X36757836Y-39660000D01*
%TO.C,R43*%
X13936359Y-38985000D02*
X14243641Y-38985000D01*
X13936359Y-39745000D02*
X14243641Y-39745000D01*
%TO.C,U4*%
X30390000Y-55250000D02*
X30390000Y-54450000D01*
X30390000Y-55250000D02*
X30390000Y-56050000D01*
X33610000Y-54250000D02*
X33610000Y-56050000D01*
X30440000Y-53950000D02*
X30110000Y-54190000D01*
X30110000Y-53710000D01*
X30440000Y-53950000D01*
G36*
X30440000Y-53950000D02*
G01*
X30110000Y-54190000D01*
X30110000Y-53710000D01*
X30440000Y-53950000D01*
G37*
%TO.C,R14*%
X29345000Y-27646359D02*
X29345000Y-27953641D01*
X30105000Y-27646359D02*
X30105000Y-27953641D01*
%TO.C,C15*%
X37665000Y-40757836D02*
X37665000Y-40542164D01*
X38385000Y-40757836D02*
X38385000Y-40542164D01*
%TO.C,C89*%
X19217164Y-23190000D02*
X19432836Y-23190000D01*
X19217164Y-23910000D02*
X19432836Y-23910000D01*
%TO.C,C59*%
X34965000Y-22317164D02*
X34965000Y-22532836D01*
X35685000Y-22317164D02*
X35685000Y-22532836D01*
%TO.C,C47*%
X39890000Y-43857836D02*
X39890000Y-43642164D01*
X40610000Y-43857836D02*
X40610000Y-43642164D01*
%TO.C,C62*%
X29232836Y-21240000D02*
X29017164Y-21240000D01*
X29232836Y-21960000D02*
X29017164Y-21960000D01*
%TO.C,C8*%
X16263748Y-57397500D02*
X16786252Y-57397500D01*
X16263748Y-58867500D02*
X16786252Y-58867500D01*
%TO.C,C96*%
X22207836Y-36815000D02*
X21992164Y-36815000D01*
X22207836Y-37535000D02*
X21992164Y-37535000D01*
%TO.C,C90*%
X19192164Y-24860000D02*
X19407836Y-24860000D01*
X19192164Y-24140000D02*
X19407836Y-24140000D01*
%TO.C,C30*%
X31265000Y-48637836D02*
X31265000Y-48422164D01*
X31985000Y-48637836D02*
X31985000Y-48422164D01*
%TO.C,R3*%
X28357500Y-56446359D02*
X28357500Y-56753641D01*
X29117500Y-56446359D02*
X29117500Y-56753641D01*
%TO.C,R42*%
X13946359Y-48630000D02*
X14253641Y-48630000D01*
X13946359Y-47870000D02*
X14253641Y-47870000D01*
%TO.C,U5*%
X36315000Y-55250000D02*
X36315000Y-54450000D01*
X36315000Y-55250000D02*
X36315000Y-56050000D01*
X39535000Y-54250000D02*
X39535000Y-56050000D01*
X36365000Y-53950000D02*
X36035000Y-54190000D01*
X36035000Y-53710000D01*
X36365000Y-53950000D01*
G36*
X36365000Y-53950000D02*
G01*
X36035000Y-54190000D01*
X36035000Y-53710000D01*
X36365000Y-53950000D01*
G37*
%TO.C,R58*%
X17970000Y-48596359D02*
X17970000Y-48903641D01*
X18730000Y-48596359D02*
X18730000Y-48903641D01*
%TO.C,R7*%
X23453641Y-54870000D02*
X23146359Y-54870000D01*
X23453641Y-55630000D02*
X23146359Y-55630000D01*
%TO.C,U6*%
X16010000Y-37700000D02*
X16010000Y-37525000D01*
X16010000Y-40970000D02*
X16010000Y-41445000D01*
X16010000Y-41445000D02*
X16485000Y-41445000D01*
X16485000Y-37225000D02*
X16250000Y-37225000D01*
X20230000Y-37225000D02*
X19755000Y-37225000D01*
X20230000Y-37700000D02*
X20230000Y-37225000D01*
X20230000Y-40970000D02*
X20230000Y-41445000D01*
X20230000Y-41445000D02*
X19755000Y-41445000D01*
X16010000Y-37225000D02*
X15680000Y-37465000D01*
X15680000Y-36985000D01*
X16010000Y-37225000D01*
G36*
X16010000Y-37225000D02*
G01*
X15680000Y-37465000D01*
X15680000Y-36985000D01*
X16010000Y-37225000D01*
G37*
%TO.C,R49*%
X16503641Y-42220000D02*
X16196359Y-42220000D01*
X16503641Y-42980000D02*
X16196359Y-42980000D01*
%TO.C,C63*%
X34965000Y-24557836D02*
X34965000Y-24342164D01*
X35685000Y-24557836D02*
X35685000Y-24342164D01*
%TO.C,R45*%
X13946359Y-40900000D02*
X14253641Y-40900000D01*
X13946359Y-41660000D02*
X14253641Y-41660000D01*
%TO.C,C58*%
X26190000Y-21632836D02*
X26190000Y-21417164D01*
X26910000Y-21632836D02*
X26910000Y-21417164D01*
%TO.C,C67*%
X23502836Y-47715000D02*
X23287164Y-47715000D01*
X23502836Y-48435000D02*
X23287164Y-48435000D01*
%TO.C,C79*%
X21490000Y-43792164D02*
X21490000Y-44007836D01*
X22210000Y-43792164D02*
X22210000Y-44007836D01*
%TO.C,C13*%
X31677836Y-41390000D02*
X31462164Y-41390000D01*
X31677836Y-42110000D02*
X31462164Y-42110000D01*
%TO.C,C45*%
X39540000Y-45917164D02*
X39540000Y-46132836D01*
X40260000Y-45917164D02*
X40260000Y-46132836D01*
%TO.C,C76*%
X19867164Y-44115000D02*
X20082836Y-44115000D01*
X19867164Y-44835000D02*
X20082836Y-44835000D01*
%TO.C,C42*%
X39735000Y-41807836D02*
X39735000Y-41592164D01*
X39015000Y-41807836D02*
X39015000Y-41592164D01*
%TO.C,C18*%
X33581506Y-37971475D02*
X33365834Y-37971475D01*
X33581506Y-38691475D02*
X33365834Y-38691475D01*
%TO.C,C38*%
X27965000Y-42067164D02*
X27965000Y-42282836D01*
X28685000Y-42067164D02*
X28685000Y-42282836D01*
%TO.C,C75*%
X20657836Y-47835000D02*
X20442164Y-47835000D01*
X20657836Y-47115000D02*
X20442164Y-47115000D01*
%TO.C,L1*%
X28000000Y-51525000D02*
X28000000Y-54025000D01*
X30110000Y-54025000D02*
X30110000Y-51525000D01*
%TO.C,C29*%
X29392164Y-43615000D02*
X29607836Y-43615000D01*
X29392164Y-44335000D02*
X29607836Y-44335000D01*
%TD*%
M02*
