%TF.GenerationSoftware,KiCad,Pcbnew,9.0.3*%
%TF.CreationDate,2025-08-17T15:03:40+03:00*%
%TF.ProjectId,ThingsCore-1,5468696e-6773-4436-9f72-652d312e6b69,rev?*%
%TF.SameCoordinates,Original*%
%TF.FileFunction,Paste,Top*%
%TF.FilePolarity,Positive*%
%FSLAX46Y46*%
G04 Gerber Fmt 4.6, Leading zero omitted, Abs format (unit mm)*
G04 Created by KiCad (PCBNEW 9.0.3) date 2025-08-17 15:03:40*
%MOMM*%
%LPD*%
G01*
G04 APERTURE LIST*
G04 Aperture macros list*
%AMRoundRect*
0 Rectangle with rounded corners*
0 $1 Rounding radius*
0 $2 $3 $4 $5 $6 $7 $8 $9 X,Y pos of 4 corners*
0 Add a 4 corners polygon primitive as box body*
4,1,4,$2,$3,$4,$5,$6,$7,$8,$9,$2,$3,0*
0 Add four circle primitives for the rounded corners*
1,1,$1+$1,$2,$3*
1,1,$1+$1,$4,$5*
1,1,$1+$1,$6,$7*
1,1,$1+$1,$8,$9*
0 Add four rect primitives between the rounded corners*
20,1,$1+$1,$2,$3,$4,$5,0*
20,1,$1+$1,$4,$5,$6,$7,0*
20,1,$1+$1,$6,$7,$8,$9,0*
20,1,$1+$1,$8,$9,$2,$3,0*%
G04 Aperture macros list end*
%ADD10C,0.450000*%
%ADD11C,0.320002*%
%ADD12R,1.800000X1.350000*%
%ADD13RoundRect,0.165000X-0.165000X-0.165000X0.165000X-0.165000X0.165000X0.165000X-0.165000X0.165000X0*%
%ADD14RoundRect,0.062500X-0.325000X-0.062500X0.325000X-0.062500X0.325000X0.062500X-0.325000X0.062500X0*%
%ADD15RoundRect,0.062500X-0.062500X-0.325000X0.062500X-0.325000X0.062500X0.325000X-0.062500X0.325000X0*%
%ADD16R,0.950000X0.450000*%
%ADD17R,3.450000X4.350000*%
%ADD18R,0.700000X1.600000*%
%ADD19R,1.200000X1.500000*%
%ADD20R,1.200000X2.200000*%
%ADD21R,1.600000X1.500000*%
G04 APERTURE END LIST*
D10*
%TO.C,U2*%
X39700000Y-45300000D03*
X38900000Y-45300000D03*
X38100000Y-45300000D03*
X34900000Y-45300000D03*
X34100000Y-45300000D03*
X33300000Y-45300000D03*
X39700000Y-44500000D03*
X38900000Y-44500000D03*
X38100000Y-44500000D03*
X34900000Y-44500000D03*
X34100000Y-44500000D03*
X33300000Y-44500000D03*
X39700000Y-43700000D03*
X38900000Y-43700000D03*
X38100000Y-43700000D03*
X34900000Y-43700000D03*
X34100000Y-43700000D03*
X33300000Y-43700000D03*
X39700000Y-42900000D03*
X38900000Y-42900000D03*
X38100000Y-42900000D03*
X34900000Y-42900000D03*
X34100000Y-42900000D03*
X33300000Y-42900000D03*
X39700000Y-42100000D03*
X38900000Y-42100000D03*
X38100000Y-42100000D03*
X34900000Y-42100000D03*
X34100000Y-42100000D03*
X33300000Y-42100000D03*
X39700000Y-41300000D03*
X38900000Y-41300000D03*
X38100000Y-41300000D03*
X34900000Y-41300000D03*
X34100000Y-41300000D03*
X33300000Y-41300000D03*
X39700000Y-40500000D03*
X38900000Y-40500000D03*
X38100000Y-40500000D03*
X34900000Y-40500000D03*
X34100000Y-40500000D03*
X33300000Y-40500000D03*
X39700000Y-39700000D03*
X38900000Y-39700000D03*
X38100000Y-39700000D03*
X34900000Y-39700000D03*
X34100000Y-39700000D03*
X33300000Y-39700000D03*
X39700000Y-38900000D03*
X38900000Y-38900000D03*
X38100000Y-38900000D03*
X34900000Y-38900000D03*
X34100000Y-38900000D03*
X33300000Y-38900000D03*
X39700000Y-38100000D03*
X38900000Y-38100000D03*
X38100000Y-38100000D03*
X34900000Y-38100000D03*
X34100000Y-38100000D03*
X33300000Y-38100000D03*
X39700000Y-37300000D03*
X38900000Y-37300000D03*
X38100000Y-37300000D03*
X34900000Y-37300000D03*
X34100000Y-37300000D03*
X33300000Y-37300000D03*
X39700000Y-36500000D03*
X38900000Y-36500000D03*
X38100000Y-36500000D03*
X34900000Y-36500000D03*
X34100000Y-36500000D03*
X33300000Y-36500000D03*
X39700000Y-35700000D03*
X38900000Y-35700000D03*
X38100000Y-35700000D03*
X34900000Y-35700000D03*
X34100000Y-35700000D03*
X33300000Y-35700000D03*
X39700000Y-34900000D03*
X38900000Y-34900000D03*
X38100000Y-34900000D03*
X34900000Y-34900000D03*
X34100000Y-34900000D03*
X33300000Y-34900000D03*
X39700000Y-34100000D03*
X38900000Y-34100000D03*
X38100000Y-34100000D03*
X34900000Y-34100000D03*
X34100000Y-34100000D03*
X33300000Y-34100000D03*
X39700000Y-33300000D03*
X38900000Y-33300000D03*
X38100000Y-33300000D03*
X34900000Y-33300000D03*
X34100000Y-33300000D03*
X33300000Y-33300000D03*
%TD*%
D11*
%TO.C,U7*%
X15100000Y-32950000D03*
X15900000Y-32950000D03*
X16700000Y-32950000D03*
X17500000Y-32950000D03*
X18300000Y-32950000D03*
X19100000Y-32950000D03*
X19900000Y-32950000D03*
X20700000Y-32950000D03*
X21500000Y-32950000D03*
X22300000Y-32950000D03*
X23100000Y-32950000D03*
X23900000Y-32950000D03*
X24700000Y-32950000D03*
X25500000Y-32950000D03*
X26300000Y-32950000D03*
X27100000Y-32950000D03*
X27900000Y-32950000D03*
X15100000Y-33750000D03*
X15900000Y-33750000D03*
X16700000Y-33750000D03*
X17500000Y-33750000D03*
X18300000Y-33750000D03*
X19100000Y-33750000D03*
X19900000Y-33750000D03*
X20700000Y-33750000D03*
X21500000Y-33750000D03*
X22300000Y-33750000D03*
X23100000Y-33750000D03*
X23900000Y-33750000D03*
X24700000Y-33750000D03*
X25500000Y-33750000D03*
X26300000Y-33750000D03*
X27100000Y-33750000D03*
X27900000Y-33750000D03*
X15100000Y-34550000D03*
X15900000Y-34550000D03*
X16700000Y-34550000D03*
X17500000Y-34550000D03*
X18300000Y-34550000D03*
X19100000Y-34550000D03*
X19900000Y-34550000D03*
X20700000Y-34550000D03*
X21500000Y-34550000D03*
X22300000Y-34550000D03*
X23100000Y-34550000D03*
X23900000Y-34550000D03*
X24700000Y-34550000D03*
X25500000Y-34550000D03*
X26300000Y-34550000D03*
X27100000Y-34550000D03*
X27900000Y-34550000D03*
X15100000Y-35350000D03*
X15900000Y-35350000D03*
X16700000Y-35350000D03*
X17500000Y-35350000D03*
X18300000Y-35350000D03*
X19100000Y-35350000D03*
X19900000Y-35350000D03*
X20700000Y-35350000D03*
X21500000Y-35350000D03*
X22300000Y-35350000D03*
X23100000Y-35350000D03*
X23900000Y-35350000D03*
X24700000Y-35350000D03*
X25500000Y-35350000D03*
X26300000Y-35350000D03*
X27100000Y-35350000D03*
X27900000Y-35350000D03*
X15100000Y-36150000D03*
X15900000Y-36150000D03*
X16700000Y-36150000D03*
X17500000Y-36150000D03*
X18300000Y-36150000D03*
X19100000Y-36150000D03*
X19900000Y-36150000D03*
X20700000Y-36150000D03*
X21500000Y-36150000D03*
X22300000Y-36150000D03*
X23100000Y-36150000D03*
X23900000Y-36150000D03*
X24700000Y-36150000D03*
X25500000Y-36150000D03*
X26300000Y-36150000D03*
X27100000Y-36150000D03*
X27900000Y-36150000D03*
X15100000Y-36950000D03*
X15900000Y-36950000D03*
X16700000Y-36950000D03*
X17500000Y-36950000D03*
X18300000Y-36950000D03*
X19100000Y-36950000D03*
X19900000Y-36950000D03*
X20700000Y-36950000D03*
X21500000Y-36950000D03*
X22300000Y-36950000D03*
X23100000Y-36950000D03*
X23900000Y-36950000D03*
X24700000Y-36950000D03*
X25500000Y-36950000D03*
X26300000Y-36950000D03*
X27100000Y-36950000D03*
X27900000Y-36950000D03*
X15100000Y-37750000D03*
X15900000Y-37750000D03*
X16700000Y-37750000D03*
X17500000Y-37750000D03*
X18300000Y-37750000D03*
X19100000Y-37750000D03*
X19900000Y-37750000D03*
X20700000Y-37750000D03*
X21500000Y-37750000D03*
X22300000Y-37750000D03*
X23100000Y-37750000D03*
X23900000Y-37750000D03*
X24700000Y-37750000D03*
X25500000Y-37750000D03*
X26300000Y-37750000D03*
X27100000Y-37750000D03*
X27900000Y-37750000D03*
X15100000Y-38550000D03*
X15900000Y-38550000D03*
X16700000Y-38550000D03*
X17500000Y-38550000D03*
X18300000Y-38550000D03*
X19100000Y-38550000D03*
X19900000Y-38550000D03*
X20700000Y-38550000D03*
X21500000Y-38550000D03*
X22300000Y-38550000D03*
X23100000Y-38550000D03*
X23900000Y-38550000D03*
X24700000Y-38550000D03*
X25500000Y-38550000D03*
X26300000Y-38550000D03*
X27100000Y-38550000D03*
X27900000Y-38550000D03*
X15100000Y-39350000D03*
X15900000Y-39350000D03*
X16700000Y-39350000D03*
X17500000Y-39350000D03*
X18300000Y-39350000D03*
X19100000Y-39350000D03*
X19900000Y-39350000D03*
X20700000Y-39350000D03*
X21500000Y-39350000D03*
X22300000Y-39350000D03*
X23100000Y-39350000D03*
X23900000Y-39350000D03*
X24700000Y-39350000D03*
X25500000Y-39350000D03*
X26300000Y-39350000D03*
X27100000Y-39350000D03*
X27900000Y-39350000D03*
X15100000Y-40150000D03*
X15900000Y-40150000D03*
X16700000Y-40150000D03*
X17500000Y-40150000D03*
X18300000Y-40150000D03*
X19100000Y-40150000D03*
X19900000Y-40150000D03*
X20700000Y-40150000D03*
X21500000Y-40150000D03*
X22300000Y-40150000D03*
X23100000Y-40150000D03*
X23900000Y-40150000D03*
X24700000Y-40150000D03*
X25500000Y-40150000D03*
X26300000Y-40150000D03*
X27100000Y-40150000D03*
X27900000Y-40150000D03*
X15100000Y-40950000D03*
X15900000Y-40950000D03*
X16700000Y-40950000D03*
X17500000Y-40950000D03*
X18300000Y-40950000D03*
X19100000Y-40950000D03*
X19900000Y-40950000D03*
X20700000Y-40950000D03*
X21500000Y-40950000D03*
X22300000Y-40950000D03*
X23100000Y-40950000D03*
X23900000Y-40950000D03*
X24700000Y-40950000D03*
X25500000Y-40950000D03*
X26300000Y-40950000D03*
X27100000Y-40950000D03*
X27900000Y-40950000D03*
X15100000Y-41750000D03*
X15900000Y-41750000D03*
X16700000Y-41750000D03*
X17500000Y-41750000D03*
X18300000Y-41750000D03*
X19100000Y-41750000D03*
X19900000Y-41750000D03*
X20700000Y-41750000D03*
X21500000Y-41750000D03*
X22300000Y-41750000D03*
X23100000Y-41750000D03*
X23900000Y-41750000D03*
X24700000Y-41750000D03*
X25500000Y-41750000D03*
X26300000Y-41750000D03*
X27100000Y-41750000D03*
X27900000Y-41750000D03*
X15100000Y-42550000D03*
X15900000Y-42550000D03*
X16700000Y-42550000D03*
X17500000Y-42550000D03*
X18300000Y-42550000D03*
X19100000Y-42550000D03*
X19900000Y-42550000D03*
X20700000Y-42550000D03*
X21500000Y-42550000D03*
X22300000Y-42550000D03*
X23100000Y-42550000D03*
X23900000Y-42550000D03*
X24700000Y-42550000D03*
X25500000Y-42550000D03*
X26300000Y-42550000D03*
X27100000Y-42550000D03*
X27900000Y-42550000D03*
X15100000Y-43350000D03*
X15900000Y-43350000D03*
X16700000Y-43350000D03*
X17500000Y-43350000D03*
X18300000Y-43350000D03*
X19100000Y-43350000D03*
X19900000Y-43350000D03*
X20700000Y-43350000D03*
X21500000Y-43350000D03*
X22300000Y-43350000D03*
X23100000Y-43350000D03*
X23900000Y-43350000D03*
X24700000Y-43350000D03*
X25500000Y-43350000D03*
X26300000Y-43350000D03*
X27100000Y-43350000D03*
X27900000Y-43350000D03*
X15100000Y-44150000D03*
X15900000Y-44150000D03*
X16700000Y-44150000D03*
X17500000Y-44150000D03*
X18300000Y-44150000D03*
X19100000Y-44150000D03*
X19900000Y-44150000D03*
X20700000Y-44150000D03*
X21500000Y-44150000D03*
X22300000Y-44150000D03*
X23100000Y-44150000D03*
X23900000Y-44150000D03*
X24700000Y-44150000D03*
X25500000Y-44150000D03*
X26300000Y-44150000D03*
X27100000Y-44150000D03*
X27900000Y-44150000D03*
X15100000Y-44950000D03*
X15900000Y-44950000D03*
X16700000Y-44950000D03*
X17500000Y-44950000D03*
X18300000Y-44950000D03*
X19100000Y-44950000D03*
X19900000Y-44950000D03*
X20700000Y-44950000D03*
X21500000Y-44950000D03*
X22300000Y-44950000D03*
X23100000Y-44950000D03*
X23900000Y-44950000D03*
X24700000Y-44950000D03*
X25500000Y-44950000D03*
X26300000Y-44950000D03*
X27100000Y-44950000D03*
X27900000Y-44950000D03*
X15100000Y-45750000D03*
X15900000Y-45750000D03*
X16700000Y-45750000D03*
X17500000Y-45750000D03*
X18300000Y-45750000D03*
X19100000Y-45750000D03*
X19900000Y-45750000D03*
X20700000Y-45750000D03*
X21500000Y-45750000D03*
X22300000Y-45750000D03*
X23100000Y-45750000D03*
X23900000Y-45750000D03*
X24700000Y-45750000D03*
X25500000Y-45750000D03*
X26300000Y-45750000D03*
X27100000Y-45750000D03*
X27900000Y-45750000D03*
%TD*%
D12*
%TO.C,S2*%
X15562500Y-26012500D03*
X15562500Y-21862500D03*
%TD*%
D13*
%TO.C,U6*%
X19280000Y-53180000D03*
X19280000Y-54000000D03*
X19280000Y-54820000D03*
X20100000Y-53180000D03*
X20100000Y-54000000D03*
X20100000Y-54820000D03*
X20920000Y-53180000D03*
X20920000Y-54000000D03*
X20920000Y-54820000D03*
D14*
X18112500Y-52750000D03*
X18112500Y-53250000D03*
X18112500Y-53750000D03*
X18112500Y-54250000D03*
X18112500Y-54750000D03*
X18112500Y-55250000D03*
D15*
X18850000Y-55987500D03*
X19350000Y-55987500D03*
X19850000Y-55987500D03*
X20350000Y-55987500D03*
X20850000Y-55987500D03*
X21350000Y-55987500D03*
D14*
X22087500Y-55250000D03*
X22087500Y-54750000D03*
X22087500Y-54250000D03*
X22087500Y-53750000D03*
X22087500Y-53250000D03*
X22087500Y-52750000D03*
D15*
X21350000Y-52012500D03*
X20850000Y-52012500D03*
X20350000Y-52012500D03*
X19850000Y-52012500D03*
X19350000Y-52012500D03*
X18850000Y-52012500D03*
%TD*%
D16*
%TO.C,U8*%
X39162500Y-56532500D03*
X39162500Y-55262500D03*
X39162500Y-53992500D03*
X39162500Y-52722500D03*
X31362500Y-52722500D03*
X31362500Y-53992500D03*
X31362500Y-55262500D03*
X31362500Y-56532500D03*
D17*
X35262500Y-54627500D03*
%TD*%
D12*
%TO.C,S1*%
X38962500Y-26012500D03*
X38962500Y-21862500D03*
%TD*%
D18*
%TO.C,U9*%
X25062420Y-27285505D03*
X26162490Y-27285505D03*
X27262560Y-27285505D03*
X28362640Y-27285505D03*
X29462460Y-27285505D03*
X30562530Y-27285505D03*
X31662610Y-27285505D03*
X32762430Y-27285505D03*
X33862500Y-27285505D03*
D19*
X35062650Y-26285505D03*
D20*
X35062650Y-16685575D03*
X19562550Y-16685575D03*
D21*
X20462480Y-26285505D03*
%TD*%
M02*
