%TF.GenerationSoftware,KiCad,Pcbnew,9.0.3*%
%TF.CreationDate,2025-09-01T16:13:13+03:00*%
%TF.ProjectId,ThingsCore-1,5468696e-6773-4436-9f72-652d312e6b69,rev?*%
%TF.SameCoordinates,Original*%
%TF.FileFunction,Legend,Bot*%
%TF.FilePolarity,Positive*%
%FSLAX46Y46*%
G04 Gerber Fmt 4.6, Leading zero omitted, Abs format (unit mm)*
G04 Created by KiCad (PCBNEW 9.0.3) date 2025-09-01 16:13:13*
%MOMM*%
%LPD*%
G01*
G04 APERTURE LIST*
%ADD10C,0.150000*%
%ADD11C,0.120000*%
%ADD12C,0.200000*%
%ADD13C,0.254000*%
G04 APERTURE END LIST*
D10*
X19356190Y-31483628D02*
X19356190Y-31959819D01*
X19689523Y-30959819D02*
X19356190Y-31483628D01*
X19356190Y-31483628D02*
X19022857Y-30959819D01*
X18260952Y-31293152D02*
X18260952Y-31959819D01*
X18499047Y-30912200D02*
X18737142Y-31626485D01*
X18737142Y-31626485D02*
X18118095Y-31626485D01*
X17844580Y-32482142D02*
X17892200Y-32434523D01*
X17892200Y-32434523D02*
X17939819Y-32291666D01*
X17939819Y-32291666D02*
X17939819Y-32196428D01*
X17939819Y-32196428D02*
X17892200Y-32053571D01*
X17892200Y-32053571D02*
X17796961Y-31958333D01*
X17796961Y-31958333D02*
X17701723Y-31910714D01*
X17701723Y-31910714D02*
X17511247Y-31863095D01*
X17511247Y-31863095D02*
X17368390Y-31863095D01*
X17368390Y-31863095D02*
X17177914Y-31910714D01*
X17177914Y-31910714D02*
X17082676Y-31958333D01*
X17082676Y-31958333D02*
X16987438Y-32053571D01*
X16987438Y-32053571D02*
X16939819Y-32196428D01*
X16939819Y-32196428D02*
X16939819Y-32291666D01*
X16939819Y-32291666D02*
X16987438Y-32434523D01*
X16987438Y-32434523D02*
X17035057Y-32482142D01*
X17939819Y-32958333D02*
X17939819Y-33148809D01*
X17939819Y-33148809D02*
X17892200Y-33244047D01*
X17892200Y-33244047D02*
X17844580Y-33291666D01*
X17844580Y-33291666D02*
X17701723Y-33386904D01*
X17701723Y-33386904D02*
X17511247Y-33434523D01*
X17511247Y-33434523D02*
X17130295Y-33434523D01*
X17130295Y-33434523D02*
X17035057Y-33386904D01*
X17035057Y-33386904D02*
X16987438Y-33339285D01*
X16987438Y-33339285D02*
X16939819Y-33244047D01*
X16939819Y-33244047D02*
X16939819Y-33053571D01*
X16939819Y-33053571D02*
X16987438Y-32958333D01*
X16987438Y-32958333D02*
X17035057Y-32910714D01*
X17035057Y-32910714D02*
X17130295Y-32863095D01*
X17130295Y-32863095D02*
X17368390Y-32863095D01*
X17368390Y-32863095D02*
X17463628Y-32910714D01*
X17463628Y-32910714D02*
X17511247Y-32958333D01*
X17511247Y-32958333D02*
X17558866Y-33053571D01*
X17558866Y-33053571D02*
X17558866Y-33244047D01*
X17558866Y-33244047D02*
X17511247Y-33339285D01*
X17511247Y-33339285D02*
X17463628Y-33386904D01*
X17463628Y-33386904D02*
X17368390Y-33434523D01*
X17273152Y-34291666D02*
X17939819Y-34291666D01*
X16892200Y-34053571D02*
X17606485Y-33815476D01*
X17606485Y-33815476D02*
X17606485Y-34434523D01*
X20674580Y-34157142D02*
X20722200Y-34109523D01*
X20722200Y-34109523D02*
X20769819Y-33966666D01*
X20769819Y-33966666D02*
X20769819Y-33871428D01*
X20769819Y-33871428D02*
X20722200Y-33728571D01*
X20722200Y-33728571D02*
X20626961Y-33633333D01*
X20626961Y-33633333D02*
X20531723Y-33585714D01*
X20531723Y-33585714D02*
X20341247Y-33538095D01*
X20341247Y-33538095D02*
X20198390Y-33538095D01*
X20198390Y-33538095D02*
X20007914Y-33585714D01*
X20007914Y-33585714D02*
X19912676Y-33633333D01*
X19912676Y-33633333D02*
X19817438Y-33728571D01*
X19817438Y-33728571D02*
X19769819Y-33871428D01*
X19769819Y-33871428D02*
X19769819Y-33966666D01*
X19769819Y-33966666D02*
X19817438Y-34109523D01*
X19817438Y-34109523D02*
X19865057Y-34157142D01*
X20769819Y-34633333D02*
X20769819Y-34823809D01*
X20769819Y-34823809D02*
X20722200Y-34919047D01*
X20722200Y-34919047D02*
X20674580Y-34966666D01*
X20674580Y-34966666D02*
X20531723Y-35061904D01*
X20531723Y-35061904D02*
X20341247Y-35109523D01*
X20341247Y-35109523D02*
X19960295Y-35109523D01*
X19960295Y-35109523D02*
X19865057Y-35061904D01*
X19865057Y-35061904D02*
X19817438Y-35014285D01*
X19817438Y-35014285D02*
X19769819Y-34919047D01*
X19769819Y-34919047D02*
X19769819Y-34728571D01*
X19769819Y-34728571D02*
X19817438Y-34633333D01*
X19817438Y-34633333D02*
X19865057Y-34585714D01*
X19865057Y-34585714D02*
X19960295Y-34538095D01*
X19960295Y-34538095D02*
X20198390Y-34538095D01*
X20198390Y-34538095D02*
X20293628Y-34585714D01*
X20293628Y-34585714D02*
X20341247Y-34633333D01*
X20341247Y-34633333D02*
X20388866Y-34728571D01*
X20388866Y-34728571D02*
X20388866Y-34919047D01*
X20388866Y-34919047D02*
X20341247Y-35014285D01*
X20341247Y-35014285D02*
X20293628Y-35061904D01*
X20293628Y-35061904D02*
X20198390Y-35109523D01*
X19769819Y-35442857D02*
X19769819Y-36061904D01*
X19769819Y-36061904D02*
X20150771Y-35728571D01*
X20150771Y-35728571D02*
X20150771Y-35871428D01*
X20150771Y-35871428D02*
X20198390Y-35966666D01*
X20198390Y-35966666D02*
X20246009Y-36014285D01*
X20246009Y-36014285D02*
X20341247Y-36061904D01*
X20341247Y-36061904D02*
X20579342Y-36061904D01*
X20579342Y-36061904D02*
X20674580Y-36014285D01*
X20674580Y-36014285D02*
X20722200Y-35966666D01*
X20722200Y-35966666D02*
X20769819Y-35871428D01*
X20769819Y-35871428D02*
X20769819Y-35585714D01*
X20769819Y-35585714D02*
X20722200Y-35490476D01*
X20722200Y-35490476D02*
X20674580Y-35442857D01*
X26528628Y-45028809D02*
X27004819Y-45028809D01*
X26004819Y-44695476D02*
X26528628Y-45028809D01*
X26528628Y-45028809D02*
X26004819Y-45362142D01*
X27004819Y-46219285D02*
X27004819Y-45647857D01*
X27004819Y-45933571D02*
X26004819Y-45933571D01*
X26004819Y-45933571D02*
X26147676Y-45838333D01*
X26147676Y-45838333D02*
X26242914Y-45743095D01*
X26242914Y-45743095D02*
X26290533Y-45647857D01*
X21074580Y-44182142D02*
X21122200Y-44134523D01*
X21122200Y-44134523D02*
X21169819Y-43991666D01*
X21169819Y-43991666D02*
X21169819Y-43896428D01*
X21169819Y-43896428D02*
X21122200Y-43753571D01*
X21122200Y-43753571D02*
X21026961Y-43658333D01*
X21026961Y-43658333D02*
X20931723Y-43610714D01*
X20931723Y-43610714D02*
X20741247Y-43563095D01*
X20741247Y-43563095D02*
X20598390Y-43563095D01*
X20598390Y-43563095D02*
X20407914Y-43610714D01*
X20407914Y-43610714D02*
X20312676Y-43658333D01*
X20312676Y-43658333D02*
X20217438Y-43753571D01*
X20217438Y-43753571D02*
X20169819Y-43896428D01*
X20169819Y-43896428D02*
X20169819Y-43991666D01*
X20169819Y-43991666D02*
X20217438Y-44134523D01*
X20217438Y-44134523D02*
X20265057Y-44182142D01*
X20169819Y-44515476D02*
X20169819Y-45182142D01*
X20169819Y-45182142D02*
X21169819Y-44753571D01*
X20169819Y-45753571D02*
X20169819Y-45848809D01*
X20169819Y-45848809D02*
X20217438Y-45944047D01*
X20217438Y-45944047D02*
X20265057Y-45991666D01*
X20265057Y-45991666D02*
X20360295Y-46039285D01*
X20360295Y-46039285D02*
X20550771Y-46086904D01*
X20550771Y-46086904D02*
X20788866Y-46086904D01*
X20788866Y-46086904D02*
X20979342Y-46039285D01*
X20979342Y-46039285D02*
X21074580Y-45991666D01*
X21074580Y-45991666D02*
X21122200Y-45944047D01*
X21122200Y-45944047D02*
X21169819Y-45848809D01*
X21169819Y-45848809D02*
X21169819Y-45753571D01*
X21169819Y-45753571D02*
X21122200Y-45658333D01*
X21122200Y-45658333D02*
X21074580Y-45610714D01*
X21074580Y-45610714D02*
X20979342Y-45563095D01*
X20979342Y-45563095D02*
X20788866Y-45515476D01*
X20788866Y-45515476D02*
X20550771Y-45515476D01*
X20550771Y-45515476D02*
X20360295Y-45563095D01*
X20360295Y-45563095D02*
X20265057Y-45610714D01*
X20265057Y-45610714D02*
X20217438Y-45658333D01*
X20217438Y-45658333D02*
X20169819Y-45753571D01*
X39584819Y-41257142D02*
X39108628Y-40923809D01*
X39584819Y-40685714D02*
X38584819Y-40685714D01*
X38584819Y-40685714D02*
X38584819Y-41066666D01*
X38584819Y-41066666D02*
X38632438Y-41161904D01*
X38632438Y-41161904D02*
X38680057Y-41209523D01*
X38680057Y-41209523D02*
X38775295Y-41257142D01*
X38775295Y-41257142D02*
X38918152Y-41257142D01*
X38918152Y-41257142D02*
X39013390Y-41209523D01*
X39013390Y-41209523D02*
X39061009Y-41161904D01*
X39061009Y-41161904D02*
X39108628Y-41066666D01*
X39108628Y-41066666D02*
X39108628Y-40685714D01*
X38584819Y-41590476D02*
X38584819Y-42209523D01*
X38584819Y-42209523D02*
X38965771Y-41876190D01*
X38965771Y-41876190D02*
X38965771Y-42019047D01*
X38965771Y-42019047D02*
X39013390Y-42114285D01*
X39013390Y-42114285D02*
X39061009Y-42161904D01*
X39061009Y-42161904D02*
X39156247Y-42209523D01*
X39156247Y-42209523D02*
X39394342Y-42209523D01*
X39394342Y-42209523D02*
X39489580Y-42161904D01*
X39489580Y-42161904D02*
X39537200Y-42114285D01*
X39537200Y-42114285D02*
X39584819Y-42019047D01*
X39584819Y-42019047D02*
X39584819Y-41733333D01*
X39584819Y-41733333D02*
X39537200Y-41638095D01*
X39537200Y-41638095D02*
X39489580Y-41590476D01*
X38584819Y-43114285D02*
X38584819Y-42638095D01*
X38584819Y-42638095D02*
X39061009Y-42590476D01*
X39061009Y-42590476D02*
X39013390Y-42638095D01*
X39013390Y-42638095D02*
X38965771Y-42733333D01*
X38965771Y-42733333D02*
X38965771Y-42971428D01*
X38965771Y-42971428D02*
X39013390Y-43066666D01*
X39013390Y-43066666D02*
X39061009Y-43114285D01*
X39061009Y-43114285D02*
X39156247Y-43161904D01*
X39156247Y-43161904D02*
X39394342Y-43161904D01*
X39394342Y-43161904D02*
X39489580Y-43114285D01*
X39489580Y-43114285D02*
X39537200Y-43066666D01*
X39537200Y-43066666D02*
X39584819Y-42971428D01*
X39584819Y-42971428D02*
X39584819Y-42733333D01*
X39584819Y-42733333D02*
X39537200Y-42638095D01*
X39537200Y-42638095D02*
X39489580Y-42590476D01*
X25867857Y-49594580D02*
X25915476Y-49642200D01*
X25915476Y-49642200D02*
X26058333Y-49689819D01*
X26058333Y-49689819D02*
X26153571Y-49689819D01*
X26153571Y-49689819D02*
X26296428Y-49642200D01*
X26296428Y-49642200D02*
X26391666Y-49546961D01*
X26391666Y-49546961D02*
X26439285Y-49451723D01*
X26439285Y-49451723D02*
X26486904Y-49261247D01*
X26486904Y-49261247D02*
X26486904Y-49118390D01*
X26486904Y-49118390D02*
X26439285Y-48927914D01*
X26439285Y-48927914D02*
X26391666Y-48832676D01*
X26391666Y-48832676D02*
X26296428Y-48737438D01*
X26296428Y-48737438D02*
X26153571Y-48689819D01*
X26153571Y-48689819D02*
X26058333Y-48689819D01*
X26058333Y-48689819D02*
X25915476Y-48737438D01*
X25915476Y-48737438D02*
X25867857Y-48785057D01*
X25010714Y-48689819D02*
X25201190Y-48689819D01*
X25201190Y-48689819D02*
X25296428Y-48737438D01*
X25296428Y-48737438D02*
X25344047Y-48785057D01*
X25344047Y-48785057D02*
X25439285Y-48927914D01*
X25439285Y-48927914D02*
X25486904Y-49118390D01*
X25486904Y-49118390D02*
X25486904Y-49499342D01*
X25486904Y-49499342D02*
X25439285Y-49594580D01*
X25439285Y-49594580D02*
X25391666Y-49642200D01*
X25391666Y-49642200D02*
X25296428Y-49689819D01*
X25296428Y-49689819D02*
X25105952Y-49689819D01*
X25105952Y-49689819D02*
X25010714Y-49642200D01*
X25010714Y-49642200D02*
X24963095Y-49594580D01*
X24963095Y-49594580D02*
X24915476Y-49499342D01*
X24915476Y-49499342D02*
X24915476Y-49261247D01*
X24915476Y-49261247D02*
X24963095Y-49166009D01*
X24963095Y-49166009D02*
X25010714Y-49118390D01*
X25010714Y-49118390D02*
X25105952Y-49070771D01*
X25105952Y-49070771D02*
X25296428Y-49070771D01*
X25296428Y-49070771D02*
X25391666Y-49118390D01*
X25391666Y-49118390D02*
X25439285Y-49166009D01*
X25439285Y-49166009D02*
X25486904Y-49261247D01*
X24344047Y-49118390D02*
X24439285Y-49070771D01*
X24439285Y-49070771D02*
X24486904Y-49023152D01*
X24486904Y-49023152D02*
X24534523Y-48927914D01*
X24534523Y-48927914D02*
X24534523Y-48880295D01*
X24534523Y-48880295D02*
X24486904Y-48785057D01*
X24486904Y-48785057D02*
X24439285Y-48737438D01*
X24439285Y-48737438D02*
X24344047Y-48689819D01*
X24344047Y-48689819D02*
X24153571Y-48689819D01*
X24153571Y-48689819D02*
X24058333Y-48737438D01*
X24058333Y-48737438D02*
X24010714Y-48785057D01*
X24010714Y-48785057D02*
X23963095Y-48880295D01*
X23963095Y-48880295D02*
X23963095Y-48927914D01*
X23963095Y-48927914D02*
X24010714Y-49023152D01*
X24010714Y-49023152D02*
X24058333Y-49070771D01*
X24058333Y-49070771D02*
X24153571Y-49118390D01*
X24153571Y-49118390D02*
X24344047Y-49118390D01*
X24344047Y-49118390D02*
X24439285Y-49166009D01*
X24439285Y-49166009D02*
X24486904Y-49213628D01*
X24486904Y-49213628D02*
X24534523Y-49308866D01*
X24534523Y-49308866D02*
X24534523Y-49499342D01*
X24534523Y-49499342D02*
X24486904Y-49594580D01*
X24486904Y-49594580D02*
X24439285Y-49642200D01*
X24439285Y-49642200D02*
X24344047Y-49689819D01*
X24344047Y-49689819D02*
X24153571Y-49689819D01*
X24153571Y-49689819D02*
X24058333Y-49642200D01*
X24058333Y-49642200D02*
X24010714Y-49594580D01*
X24010714Y-49594580D02*
X23963095Y-49499342D01*
X23963095Y-49499342D02*
X23963095Y-49308866D01*
X23963095Y-49308866D02*
X24010714Y-49213628D01*
X24010714Y-49213628D02*
X24058333Y-49166009D01*
X24058333Y-49166009D02*
X24153571Y-49118390D01*
X24037857Y-47274580D02*
X24085476Y-47322200D01*
X24085476Y-47322200D02*
X24228333Y-47369819D01*
X24228333Y-47369819D02*
X24323571Y-47369819D01*
X24323571Y-47369819D02*
X24466428Y-47322200D01*
X24466428Y-47322200D02*
X24561666Y-47226961D01*
X24561666Y-47226961D02*
X24609285Y-47131723D01*
X24609285Y-47131723D02*
X24656904Y-46941247D01*
X24656904Y-46941247D02*
X24656904Y-46798390D01*
X24656904Y-46798390D02*
X24609285Y-46607914D01*
X24609285Y-46607914D02*
X24561666Y-46512676D01*
X24561666Y-46512676D02*
X24466428Y-46417438D01*
X24466428Y-46417438D02*
X24323571Y-46369819D01*
X24323571Y-46369819D02*
X24228333Y-46369819D01*
X24228333Y-46369819D02*
X24085476Y-46417438D01*
X24085476Y-46417438D02*
X24037857Y-46465057D01*
X23180714Y-46369819D02*
X23371190Y-46369819D01*
X23371190Y-46369819D02*
X23466428Y-46417438D01*
X23466428Y-46417438D02*
X23514047Y-46465057D01*
X23514047Y-46465057D02*
X23609285Y-46607914D01*
X23609285Y-46607914D02*
X23656904Y-46798390D01*
X23656904Y-46798390D02*
X23656904Y-47179342D01*
X23656904Y-47179342D02*
X23609285Y-47274580D01*
X23609285Y-47274580D02*
X23561666Y-47322200D01*
X23561666Y-47322200D02*
X23466428Y-47369819D01*
X23466428Y-47369819D02*
X23275952Y-47369819D01*
X23275952Y-47369819D02*
X23180714Y-47322200D01*
X23180714Y-47322200D02*
X23133095Y-47274580D01*
X23133095Y-47274580D02*
X23085476Y-47179342D01*
X23085476Y-47179342D02*
X23085476Y-46941247D01*
X23085476Y-46941247D02*
X23133095Y-46846009D01*
X23133095Y-46846009D02*
X23180714Y-46798390D01*
X23180714Y-46798390D02*
X23275952Y-46750771D01*
X23275952Y-46750771D02*
X23466428Y-46750771D01*
X23466428Y-46750771D02*
X23561666Y-46798390D01*
X23561666Y-46798390D02*
X23609285Y-46846009D01*
X23609285Y-46846009D02*
X23656904Y-46941247D01*
X22752142Y-46369819D02*
X22085476Y-46369819D01*
X22085476Y-46369819D02*
X22514047Y-47369819D01*
X14474580Y-30477142D02*
X14522200Y-30429523D01*
X14522200Y-30429523D02*
X14569819Y-30286666D01*
X14569819Y-30286666D02*
X14569819Y-30191428D01*
X14569819Y-30191428D02*
X14522200Y-30048571D01*
X14522200Y-30048571D02*
X14426961Y-29953333D01*
X14426961Y-29953333D02*
X14331723Y-29905714D01*
X14331723Y-29905714D02*
X14141247Y-29858095D01*
X14141247Y-29858095D02*
X13998390Y-29858095D01*
X13998390Y-29858095D02*
X13807914Y-29905714D01*
X13807914Y-29905714D02*
X13712676Y-29953333D01*
X13712676Y-29953333D02*
X13617438Y-30048571D01*
X13617438Y-30048571D02*
X13569819Y-30191428D01*
X13569819Y-30191428D02*
X13569819Y-30286666D01*
X13569819Y-30286666D02*
X13617438Y-30429523D01*
X13617438Y-30429523D02*
X13665057Y-30477142D01*
X13569819Y-30810476D02*
X13569819Y-31477142D01*
X13569819Y-31477142D02*
X14569819Y-31048571D01*
X14569819Y-32381904D02*
X14569819Y-31810476D01*
X14569819Y-32096190D02*
X13569819Y-32096190D01*
X13569819Y-32096190D02*
X13712676Y-32000952D01*
X13712676Y-32000952D02*
X13807914Y-31905714D01*
X13807914Y-31905714D02*
X13855533Y-31810476D01*
X17744580Y-30482142D02*
X17792200Y-30434523D01*
X17792200Y-30434523D02*
X17839819Y-30291666D01*
X17839819Y-30291666D02*
X17839819Y-30196428D01*
X17839819Y-30196428D02*
X17792200Y-30053571D01*
X17792200Y-30053571D02*
X17696961Y-29958333D01*
X17696961Y-29958333D02*
X17601723Y-29910714D01*
X17601723Y-29910714D02*
X17411247Y-29863095D01*
X17411247Y-29863095D02*
X17268390Y-29863095D01*
X17268390Y-29863095D02*
X17077914Y-29910714D01*
X17077914Y-29910714D02*
X16982676Y-29958333D01*
X16982676Y-29958333D02*
X16887438Y-30053571D01*
X16887438Y-30053571D02*
X16839819Y-30196428D01*
X16839819Y-30196428D02*
X16839819Y-30291666D01*
X16839819Y-30291666D02*
X16887438Y-30434523D01*
X16887438Y-30434523D02*
X16935057Y-30482142D01*
X16839819Y-30815476D02*
X16839819Y-31482142D01*
X16839819Y-31482142D02*
X17839819Y-31053571D01*
X16935057Y-31815476D02*
X16887438Y-31863095D01*
X16887438Y-31863095D02*
X16839819Y-31958333D01*
X16839819Y-31958333D02*
X16839819Y-32196428D01*
X16839819Y-32196428D02*
X16887438Y-32291666D01*
X16887438Y-32291666D02*
X16935057Y-32339285D01*
X16935057Y-32339285D02*
X17030295Y-32386904D01*
X17030295Y-32386904D02*
X17125533Y-32386904D01*
X17125533Y-32386904D02*
X17268390Y-32339285D01*
X17268390Y-32339285D02*
X17839819Y-31767857D01*
X17839819Y-31767857D02*
X17839819Y-32386904D01*
X20209819Y-22207142D02*
X19733628Y-21873809D01*
X20209819Y-21635714D02*
X19209819Y-21635714D01*
X19209819Y-21635714D02*
X19209819Y-22016666D01*
X19209819Y-22016666D02*
X19257438Y-22111904D01*
X19257438Y-22111904D02*
X19305057Y-22159523D01*
X19305057Y-22159523D02*
X19400295Y-22207142D01*
X19400295Y-22207142D02*
X19543152Y-22207142D01*
X19543152Y-22207142D02*
X19638390Y-22159523D01*
X19638390Y-22159523D02*
X19686009Y-22111904D01*
X19686009Y-22111904D02*
X19733628Y-22016666D01*
X19733628Y-22016666D02*
X19733628Y-21635714D01*
X19209819Y-22540476D02*
X19209819Y-23159523D01*
X19209819Y-23159523D02*
X19590771Y-22826190D01*
X19590771Y-22826190D02*
X19590771Y-22969047D01*
X19590771Y-22969047D02*
X19638390Y-23064285D01*
X19638390Y-23064285D02*
X19686009Y-23111904D01*
X19686009Y-23111904D02*
X19781247Y-23159523D01*
X19781247Y-23159523D02*
X20019342Y-23159523D01*
X20019342Y-23159523D02*
X20114580Y-23111904D01*
X20114580Y-23111904D02*
X20162200Y-23064285D01*
X20162200Y-23064285D02*
X20209819Y-22969047D01*
X20209819Y-22969047D02*
X20209819Y-22683333D01*
X20209819Y-22683333D02*
X20162200Y-22588095D01*
X20162200Y-22588095D02*
X20114580Y-22540476D01*
X19209819Y-23492857D02*
X19209819Y-24159523D01*
X19209819Y-24159523D02*
X20209819Y-23730952D01*
X21642857Y-24124580D02*
X21690476Y-24172200D01*
X21690476Y-24172200D02*
X21833333Y-24219819D01*
X21833333Y-24219819D02*
X21928571Y-24219819D01*
X21928571Y-24219819D02*
X22071428Y-24172200D01*
X22071428Y-24172200D02*
X22166666Y-24076961D01*
X22166666Y-24076961D02*
X22214285Y-23981723D01*
X22214285Y-23981723D02*
X22261904Y-23791247D01*
X22261904Y-23791247D02*
X22261904Y-23648390D01*
X22261904Y-23648390D02*
X22214285Y-23457914D01*
X22214285Y-23457914D02*
X22166666Y-23362676D01*
X22166666Y-23362676D02*
X22071428Y-23267438D01*
X22071428Y-23267438D02*
X21928571Y-23219819D01*
X21928571Y-23219819D02*
X21833333Y-23219819D01*
X21833333Y-23219819D02*
X21690476Y-23267438D01*
X21690476Y-23267438D02*
X21642857Y-23315057D01*
X21166666Y-24219819D02*
X20976190Y-24219819D01*
X20976190Y-24219819D02*
X20880952Y-24172200D01*
X20880952Y-24172200D02*
X20833333Y-24124580D01*
X20833333Y-24124580D02*
X20738095Y-23981723D01*
X20738095Y-23981723D02*
X20690476Y-23791247D01*
X20690476Y-23791247D02*
X20690476Y-23410295D01*
X20690476Y-23410295D02*
X20738095Y-23315057D01*
X20738095Y-23315057D02*
X20785714Y-23267438D01*
X20785714Y-23267438D02*
X20880952Y-23219819D01*
X20880952Y-23219819D02*
X21071428Y-23219819D01*
X21071428Y-23219819D02*
X21166666Y-23267438D01*
X21166666Y-23267438D02*
X21214285Y-23315057D01*
X21214285Y-23315057D02*
X21261904Y-23410295D01*
X21261904Y-23410295D02*
X21261904Y-23648390D01*
X21261904Y-23648390D02*
X21214285Y-23743628D01*
X21214285Y-23743628D02*
X21166666Y-23791247D01*
X21166666Y-23791247D02*
X21071428Y-23838866D01*
X21071428Y-23838866D02*
X20880952Y-23838866D01*
X20880952Y-23838866D02*
X20785714Y-23791247D01*
X20785714Y-23791247D02*
X20738095Y-23743628D01*
X20738095Y-23743628D02*
X20690476Y-23648390D01*
X20071428Y-23219819D02*
X19976190Y-23219819D01*
X19976190Y-23219819D02*
X19880952Y-23267438D01*
X19880952Y-23267438D02*
X19833333Y-23315057D01*
X19833333Y-23315057D02*
X19785714Y-23410295D01*
X19785714Y-23410295D02*
X19738095Y-23600771D01*
X19738095Y-23600771D02*
X19738095Y-23838866D01*
X19738095Y-23838866D02*
X19785714Y-24029342D01*
X19785714Y-24029342D02*
X19833333Y-24124580D01*
X19833333Y-24124580D02*
X19880952Y-24172200D01*
X19880952Y-24172200D02*
X19976190Y-24219819D01*
X19976190Y-24219819D02*
X20071428Y-24219819D01*
X20071428Y-24219819D02*
X20166666Y-24172200D01*
X20166666Y-24172200D02*
X20214285Y-24124580D01*
X20214285Y-24124580D02*
X20261904Y-24029342D01*
X20261904Y-24029342D02*
X20309523Y-23838866D01*
X20309523Y-23838866D02*
X20309523Y-23600771D01*
X20309523Y-23600771D02*
X20261904Y-23410295D01*
X20261904Y-23410295D02*
X20214285Y-23315057D01*
X20214285Y-23315057D02*
X20166666Y-23267438D01*
X20166666Y-23267438D02*
X20071428Y-23219819D01*
X19967857Y-23194580D02*
X20015476Y-23242200D01*
X20015476Y-23242200D02*
X20158333Y-23289819D01*
X20158333Y-23289819D02*
X20253571Y-23289819D01*
X20253571Y-23289819D02*
X20396428Y-23242200D01*
X20396428Y-23242200D02*
X20491666Y-23146961D01*
X20491666Y-23146961D02*
X20539285Y-23051723D01*
X20539285Y-23051723D02*
X20586904Y-22861247D01*
X20586904Y-22861247D02*
X20586904Y-22718390D01*
X20586904Y-22718390D02*
X20539285Y-22527914D01*
X20539285Y-22527914D02*
X20491666Y-22432676D01*
X20491666Y-22432676D02*
X20396428Y-22337438D01*
X20396428Y-22337438D02*
X20253571Y-22289819D01*
X20253571Y-22289819D02*
X20158333Y-22289819D01*
X20158333Y-22289819D02*
X20015476Y-22337438D01*
X20015476Y-22337438D02*
X19967857Y-22385057D01*
X19396428Y-22718390D02*
X19491666Y-22670771D01*
X19491666Y-22670771D02*
X19539285Y-22623152D01*
X19539285Y-22623152D02*
X19586904Y-22527914D01*
X19586904Y-22527914D02*
X19586904Y-22480295D01*
X19586904Y-22480295D02*
X19539285Y-22385057D01*
X19539285Y-22385057D02*
X19491666Y-22337438D01*
X19491666Y-22337438D02*
X19396428Y-22289819D01*
X19396428Y-22289819D02*
X19205952Y-22289819D01*
X19205952Y-22289819D02*
X19110714Y-22337438D01*
X19110714Y-22337438D02*
X19063095Y-22385057D01*
X19063095Y-22385057D02*
X19015476Y-22480295D01*
X19015476Y-22480295D02*
X19015476Y-22527914D01*
X19015476Y-22527914D02*
X19063095Y-22623152D01*
X19063095Y-22623152D02*
X19110714Y-22670771D01*
X19110714Y-22670771D02*
X19205952Y-22718390D01*
X19205952Y-22718390D02*
X19396428Y-22718390D01*
X19396428Y-22718390D02*
X19491666Y-22766009D01*
X19491666Y-22766009D02*
X19539285Y-22813628D01*
X19539285Y-22813628D02*
X19586904Y-22908866D01*
X19586904Y-22908866D02*
X19586904Y-23099342D01*
X19586904Y-23099342D02*
X19539285Y-23194580D01*
X19539285Y-23194580D02*
X19491666Y-23242200D01*
X19491666Y-23242200D02*
X19396428Y-23289819D01*
X19396428Y-23289819D02*
X19205952Y-23289819D01*
X19205952Y-23289819D02*
X19110714Y-23242200D01*
X19110714Y-23242200D02*
X19063095Y-23194580D01*
X19063095Y-23194580D02*
X19015476Y-23099342D01*
X19015476Y-23099342D02*
X19015476Y-22908866D01*
X19015476Y-22908866D02*
X19063095Y-22813628D01*
X19063095Y-22813628D02*
X19110714Y-22766009D01*
X19110714Y-22766009D02*
X19205952Y-22718390D01*
X18682142Y-22289819D02*
X18015476Y-22289819D01*
X18015476Y-22289819D02*
X18444047Y-23289819D01*
X15692857Y-22374580D02*
X15740476Y-22422200D01*
X15740476Y-22422200D02*
X15883333Y-22469819D01*
X15883333Y-22469819D02*
X15978571Y-22469819D01*
X15978571Y-22469819D02*
X16121428Y-22422200D01*
X16121428Y-22422200D02*
X16216666Y-22326961D01*
X16216666Y-22326961D02*
X16264285Y-22231723D01*
X16264285Y-22231723D02*
X16311904Y-22041247D01*
X16311904Y-22041247D02*
X16311904Y-21898390D01*
X16311904Y-21898390D02*
X16264285Y-21707914D01*
X16264285Y-21707914D02*
X16216666Y-21612676D01*
X16216666Y-21612676D02*
X16121428Y-21517438D01*
X16121428Y-21517438D02*
X15978571Y-21469819D01*
X15978571Y-21469819D02*
X15883333Y-21469819D01*
X15883333Y-21469819D02*
X15740476Y-21517438D01*
X15740476Y-21517438D02*
X15692857Y-21565057D01*
X15121428Y-21898390D02*
X15216666Y-21850771D01*
X15216666Y-21850771D02*
X15264285Y-21803152D01*
X15264285Y-21803152D02*
X15311904Y-21707914D01*
X15311904Y-21707914D02*
X15311904Y-21660295D01*
X15311904Y-21660295D02*
X15264285Y-21565057D01*
X15264285Y-21565057D02*
X15216666Y-21517438D01*
X15216666Y-21517438D02*
X15121428Y-21469819D01*
X15121428Y-21469819D02*
X14930952Y-21469819D01*
X14930952Y-21469819D02*
X14835714Y-21517438D01*
X14835714Y-21517438D02*
X14788095Y-21565057D01*
X14788095Y-21565057D02*
X14740476Y-21660295D01*
X14740476Y-21660295D02*
X14740476Y-21707914D01*
X14740476Y-21707914D02*
X14788095Y-21803152D01*
X14788095Y-21803152D02*
X14835714Y-21850771D01*
X14835714Y-21850771D02*
X14930952Y-21898390D01*
X14930952Y-21898390D02*
X15121428Y-21898390D01*
X15121428Y-21898390D02*
X15216666Y-21946009D01*
X15216666Y-21946009D02*
X15264285Y-21993628D01*
X15264285Y-21993628D02*
X15311904Y-22088866D01*
X15311904Y-22088866D02*
X15311904Y-22279342D01*
X15311904Y-22279342D02*
X15264285Y-22374580D01*
X15264285Y-22374580D02*
X15216666Y-22422200D01*
X15216666Y-22422200D02*
X15121428Y-22469819D01*
X15121428Y-22469819D02*
X14930952Y-22469819D01*
X14930952Y-22469819D02*
X14835714Y-22422200D01*
X14835714Y-22422200D02*
X14788095Y-22374580D01*
X14788095Y-22374580D02*
X14740476Y-22279342D01*
X14740476Y-22279342D02*
X14740476Y-22088866D01*
X14740476Y-22088866D02*
X14788095Y-21993628D01*
X14788095Y-21993628D02*
X14835714Y-21946009D01*
X14835714Y-21946009D02*
X14930952Y-21898390D01*
X13883333Y-21803152D02*
X13883333Y-22469819D01*
X14121428Y-21422200D02*
X14359523Y-22136485D01*
X14359523Y-22136485D02*
X13740476Y-22136485D01*
X19967857Y-24119580D02*
X20015476Y-24167200D01*
X20015476Y-24167200D02*
X20158333Y-24214819D01*
X20158333Y-24214819D02*
X20253571Y-24214819D01*
X20253571Y-24214819D02*
X20396428Y-24167200D01*
X20396428Y-24167200D02*
X20491666Y-24071961D01*
X20491666Y-24071961D02*
X20539285Y-23976723D01*
X20539285Y-23976723D02*
X20586904Y-23786247D01*
X20586904Y-23786247D02*
X20586904Y-23643390D01*
X20586904Y-23643390D02*
X20539285Y-23452914D01*
X20539285Y-23452914D02*
X20491666Y-23357676D01*
X20491666Y-23357676D02*
X20396428Y-23262438D01*
X20396428Y-23262438D02*
X20253571Y-23214819D01*
X20253571Y-23214819D02*
X20158333Y-23214819D01*
X20158333Y-23214819D02*
X20015476Y-23262438D01*
X20015476Y-23262438D02*
X19967857Y-23310057D01*
X19396428Y-23643390D02*
X19491666Y-23595771D01*
X19491666Y-23595771D02*
X19539285Y-23548152D01*
X19539285Y-23548152D02*
X19586904Y-23452914D01*
X19586904Y-23452914D02*
X19586904Y-23405295D01*
X19586904Y-23405295D02*
X19539285Y-23310057D01*
X19539285Y-23310057D02*
X19491666Y-23262438D01*
X19491666Y-23262438D02*
X19396428Y-23214819D01*
X19396428Y-23214819D02*
X19205952Y-23214819D01*
X19205952Y-23214819D02*
X19110714Y-23262438D01*
X19110714Y-23262438D02*
X19063095Y-23310057D01*
X19063095Y-23310057D02*
X19015476Y-23405295D01*
X19015476Y-23405295D02*
X19015476Y-23452914D01*
X19015476Y-23452914D02*
X19063095Y-23548152D01*
X19063095Y-23548152D02*
X19110714Y-23595771D01*
X19110714Y-23595771D02*
X19205952Y-23643390D01*
X19205952Y-23643390D02*
X19396428Y-23643390D01*
X19396428Y-23643390D02*
X19491666Y-23691009D01*
X19491666Y-23691009D02*
X19539285Y-23738628D01*
X19539285Y-23738628D02*
X19586904Y-23833866D01*
X19586904Y-23833866D02*
X19586904Y-24024342D01*
X19586904Y-24024342D02*
X19539285Y-24119580D01*
X19539285Y-24119580D02*
X19491666Y-24167200D01*
X19491666Y-24167200D02*
X19396428Y-24214819D01*
X19396428Y-24214819D02*
X19205952Y-24214819D01*
X19205952Y-24214819D02*
X19110714Y-24167200D01*
X19110714Y-24167200D02*
X19063095Y-24119580D01*
X19063095Y-24119580D02*
X19015476Y-24024342D01*
X19015476Y-24024342D02*
X19015476Y-23833866D01*
X19015476Y-23833866D02*
X19063095Y-23738628D01*
X19063095Y-23738628D02*
X19110714Y-23691009D01*
X19110714Y-23691009D02*
X19205952Y-23643390D01*
X18444047Y-23643390D02*
X18539285Y-23595771D01*
X18539285Y-23595771D02*
X18586904Y-23548152D01*
X18586904Y-23548152D02*
X18634523Y-23452914D01*
X18634523Y-23452914D02*
X18634523Y-23405295D01*
X18634523Y-23405295D02*
X18586904Y-23310057D01*
X18586904Y-23310057D02*
X18539285Y-23262438D01*
X18539285Y-23262438D02*
X18444047Y-23214819D01*
X18444047Y-23214819D02*
X18253571Y-23214819D01*
X18253571Y-23214819D02*
X18158333Y-23262438D01*
X18158333Y-23262438D02*
X18110714Y-23310057D01*
X18110714Y-23310057D02*
X18063095Y-23405295D01*
X18063095Y-23405295D02*
X18063095Y-23452914D01*
X18063095Y-23452914D02*
X18110714Y-23548152D01*
X18110714Y-23548152D02*
X18158333Y-23595771D01*
X18158333Y-23595771D02*
X18253571Y-23643390D01*
X18253571Y-23643390D02*
X18444047Y-23643390D01*
X18444047Y-23643390D02*
X18539285Y-23691009D01*
X18539285Y-23691009D02*
X18586904Y-23738628D01*
X18586904Y-23738628D02*
X18634523Y-23833866D01*
X18634523Y-23833866D02*
X18634523Y-24024342D01*
X18634523Y-24024342D02*
X18586904Y-24119580D01*
X18586904Y-24119580D02*
X18539285Y-24167200D01*
X18539285Y-24167200D02*
X18444047Y-24214819D01*
X18444047Y-24214819D02*
X18253571Y-24214819D01*
X18253571Y-24214819D02*
X18158333Y-24167200D01*
X18158333Y-24167200D02*
X18110714Y-24119580D01*
X18110714Y-24119580D02*
X18063095Y-24024342D01*
X18063095Y-24024342D02*
X18063095Y-23833866D01*
X18063095Y-23833866D02*
X18110714Y-23738628D01*
X18110714Y-23738628D02*
X18158333Y-23691009D01*
X18158333Y-23691009D02*
X18253571Y-23643390D01*
X15662857Y-19969580D02*
X15710476Y-20017200D01*
X15710476Y-20017200D02*
X15853333Y-20064819D01*
X15853333Y-20064819D02*
X15948571Y-20064819D01*
X15948571Y-20064819D02*
X16091428Y-20017200D01*
X16091428Y-20017200D02*
X16186666Y-19921961D01*
X16186666Y-19921961D02*
X16234285Y-19826723D01*
X16234285Y-19826723D02*
X16281904Y-19636247D01*
X16281904Y-19636247D02*
X16281904Y-19493390D01*
X16281904Y-19493390D02*
X16234285Y-19302914D01*
X16234285Y-19302914D02*
X16186666Y-19207676D01*
X16186666Y-19207676D02*
X16091428Y-19112438D01*
X16091428Y-19112438D02*
X15948571Y-19064819D01*
X15948571Y-19064819D02*
X15853333Y-19064819D01*
X15853333Y-19064819D02*
X15710476Y-19112438D01*
X15710476Y-19112438D02*
X15662857Y-19160057D01*
X15091428Y-19493390D02*
X15186666Y-19445771D01*
X15186666Y-19445771D02*
X15234285Y-19398152D01*
X15234285Y-19398152D02*
X15281904Y-19302914D01*
X15281904Y-19302914D02*
X15281904Y-19255295D01*
X15281904Y-19255295D02*
X15234285Y-19160057D01*
X15234285Y-19160057D02*
X15186666Y-19112438D01*
X15186666Y-19112438D02*
X15091428Y-19064819D01*
X15091428Y-19064819D02*
X14900952Y-19064819D01*
X14900952Y-19064819D02*
X14805714Y-19112438D01*
X14805714Y-19112438D02*
X14758095Y-19160057D01*
X14758095Y-19160057D02*
X14710476Y-19255295D01*
X14710476Y-19255295D02*
X14710476Y-19302914D01*
X14710476Y-19302914D02*
X14758095Y-19398152D01*
X14758095Y-19398152D02*
X14805714Y-19445771D01*
X14805714Y-19445771D02*
X14900952Y-19493390D01*
X14900952Y-19493390D02*
X15091428Y-19493390D01*
X15091428Y-19493390D02*
X15186666Y-19541009D01*
X15186666Y-19541009D02*
X15234285Y-19588628D01*
X15234285Y-19588628D02*
X15281904Y-19683866D01*
X15281904Y-19683866D02*
X15281904Y-19874342D01*
X15281904Y-19874342D02*
X15234285Y-19969580D01*
X15234285Y-19969580D02*
X15186666Y-20017200D01*
X15186666Y-20017200D02*
X15091428Y-20064819D01*
X15091428Y-20064819D02*
X14900952Y-20064819D01*
X14900952Y-20064819D02*
X14805714Y-20017200D01*
X14805714Y-20017200D02*
X14758095Y-19969580D01*
X14758095Y-19969580D02*
X14710476Y-19874342D01*
X14710476Y-19874342D02*
X14710476Y-19683866D01*
X14710476Y-19683866D02*
X14758095Y-19588628D01*
X14758095Y-19588628D02*
X14805714Y-19541009D01*
X14805714Y-19541009D02*
X14900952Y-19493390D01*
X13853333Y-19064819D02*
X14043809Y-19064819D01*
X14043809Y-19064819D02*
X14139047Y-19112438D01*
X14139047Y-19112438D02*
X14186666Y-19160057D01*
X14186666Y-19160057D02*
X14281904Y-19302914D01*
X14281904Y-19302914D02*
X14329523Y-19493390D01*
X14329523Y-19493390D02*
X14329523Y-19874342D01*
X14329523Y-19874342D02*
X14281904Y-19969580D01*
X14281904Y-19969580D02*
X14234285Y-20017200D01*
X14234285Y-20017200D02*
X14139047Y-20064819D01*
X14139047Y-20064819D02*
X13948571Y-20064819D01*
X13948571Y-20064819D02*
X13853333Y-20017200D01*
X13853333Y-20017200D02*
X13805714Y-19969580D01*
X13805714Y-19969580D02*
X13758095Y-19874342D01*
X13758095Y-19874342D02*
X13758095Y-19636247D01*
X13758095Y-19636247D02*
X13805714Y-19541009D01*
X13805714Y-19541009D02*
X13853333Y-19493390D01*
X13853333Y-19493390D02*
X13948571Y-19445771D01*
X13948571Y-19445771D02*
X14139047Y-19445771D01*
X14139047Y-19445771D02*
X14234285Y-19493390D01*
X14234285Y-19493390D02*
X14281904Y-19541009D01*
X14281904Y-19541009D02*
X14329523Y-19636247D01*
X15692857Y-23299580D02*
X15740476Y-23347200D01*
X15740476Y-23347200D02*
X15883333Y-23394819D01*
X15883333Y-23394819D02*
X15978571Y-23394819D01*
X15978571Y-23394819D02*
X16121428Y-23347200D01*
X16121428Y-23347200D02*
X16216666Y-23251961D01*
X16216666Y-23251961D02*
X16264285Y-23156723D01*
X16264285Y-23156723D02*
X16311904Y-22966247D01*
X16311904Y-22966247D02*
X16311904Y-22823390D01*
X16311904Y-22823390D02*
X16264285Y-22632914D01*
X16264285Y-22632914D02*
X16216666Y-22537676D01*
X16216666Y-22537676D02*
X16121428Y-22442438D01*
X16121428Y-22442438D02*
X15978571Y-22394819D01*
X15978571Y-22394819D02*
X15883333Y-22394819D01*
X15883333Y-22394819D02*
X15740476Y-22442438D01*
X15740476Y-22442438D02*
X15692857Y-22490057D01*
X15121428Y-22823390D02*
X15216666Y-22775771D01*
X15216666Y-22775771D02*
X15264285Y-22728152D01*
X15264285Y-22728152D02*
X15311904Y-22632914D01*
X15311904Y-22632914D02*
X15311904Y-22585295D01*
X15311904Y-22585295D02*
X15264285Y-22490057D01*
X15264285Y-22490057D02*
X15216666Y-22442438D01*
X15216666Y-22442438D02*
X15121428Y-22394819D01*
X15121428Y-22394819D02*
X14930952Y-22394819D01*
X14930952Y-22394819D02*
X14835714Y-22442438D01*
X14835714Y-22442438D02*
X14788095Y-22490057D01*
X14788095Y-22490057D02*
X14740476Y-22585295D01*
X14740476Y-22585295D02*
X14740476Y-22632914D01*
X14740476Y-22632914D02*
X14788095Y-22728152D01*
X14788095Y-22728152D02*
X14835714Y-22775771D01*
X14835714Y-22775771D02*
X14930952Y-22823390D01*
X14930952Y-22823390D02*
X15121428Y-22823390D01*
X15121428Y-22823390D02*
X15216666Y-22871009D01*
X15216666Y-22871009D02*
X15264285Y-22918628D01*
X15264285Y-22918628D02*
X15311904Y-23013866D01*
X15311904Y-23013866D02*
X15311904Y-23204342D01*
X15311904Y-23204342D02*
X15264285Y-23299580D01*
X15264285Y-23299580D02*
X15216666Y-23347200D01*
X15216666Y-23347200D02*
X15121428Y-23394819D01*
X15121428Y-23394819D02*
X14930952Y-23394819D01*
X14930952Y-23394819D02*
X14835714Y-23347200D01*
X14835714Y-23347200D02*
X14788095Y-23299580D01*
X14788095Y-23299580D02*
X14740476Y-23204342D01*
X14740476Y-23204342D02*
X14740476Y-23013866D01*
X14740476Y-23013866D02*
X14788095Y-22918628D01*
X14788095Y-22918628D02*
X14835714Y-22871009D01*
X14835714Y-22871009D02*
X14930952Y-22823390D01*
X14407142Y-22394819D02*
X13788095Y-22394819D01*
X13788095Y-22394819D02*
X14121428Y-22775771D01*
X14121428Y-22775771D02*
X13978571Y-22775771D01*
X13978571Y-22775771D02*
X13883333Y-22823390D01*
X13883333Y-22823390D02*
X13835714Y-22871009D01*
X13835714Y-22871009D02*
X13788095Y-22966247D01*
X13788095Y-22966247D02*
X13788095Y-23204342D01*
X13788095Y-23204342D02*
X13835714Y-23299580D01*
X13835714Y-23299580D02*
X13883333Y-23347200D01*
X13883333Y-23347200D02*
X13978571Y-23394819D01*
X13978571Y-23394819D02*
X14264285Y-23394819D01*
X14264285Y-23394819D02*
X14359523Y-23347200D01*
X14359523Y-23347200D02*
X14407142Y-23299580D01*
X19967857Y-25069580D02*
X20015476Y-25117200D01*
X20015476Y-25117200D02*
X20158333Y-25164819D01*
X20158333Y-25164819D02*
X20253571Y-25164819D01*
X20253571Y-25164819D02*
X20396428Y-25117200D01*
X20396428Y-25117200D02*
X20491666Y-25021961D01*
X20491666Y-25021961D02*
X20539285Y-24926723D01*
X20539285Y-24926723D02*
X20586904Y-24736247D01*
X20586904Y-24736247D02*
X20586904Y-24593390D01*
X20586904Y-24593390D02*
X20539285Y-24402914D01*
X20539285Y-24402914D02*
X20491666Y-24307676D01*
X20491666Y-24307676D02*
X20396428Y-24212438D01*
X20396428Y-24212438D02*
X20253571Y-24164819D01*
X20253571Y-24164819D02*
X20158333Y-24164819D01*
X20158333Y-24164819D02*
X20015476Y-24212438D01*
X20015476Y-24212438D02*
X19967857Y-24260057D01*
X19396428Y-24593390D02*
X19491666Y-24545771D01*
X19491666Y-24545771D02*
X19539285Y-24498152D01*
X19539285Y-24498152D02*
X19586904Y-24402914D01*
X19586904Y-24402914D02*
X19586904Y-24355295D01*
X19586904Y-24355295D02*
X19539285Y-24260057D01*
X19539285Y-24260057D02*
X19491666Y-24212438D01*
X19491666Y-24212438D02*
X19396428Y-24164819D01*
X19396428Y-24164819D02*
X19205952Y-24164819D01*
X19205952Y-24164819D02*
X19110714Y-24212438D01*
X19110714Y-24212438D02*
X19063095Y-24260057D01*
X19063095Y-24260057D02*
X19015476Y-24355295D01*
X19015476Y-24355295D02*
X19015476Y-24402914D01*
X19015476Y-24402914D02*
X19063095Y-24498152D01*
X19063095Y-24498152D02*
X19110714Y-24545771D01*
X19110714Y-24545771D02*
X19205952Y-24593390D01*
X19205952Y-24593390D02*
X19396428Y-24593390D01*
X19396428Y-24593390D02*
X19491666Y-24641009D01*
X19491666Y-24641009D02*
X19539285Y-24688628D01*
X19539285Y-24688628D02*
X19586904Y-24783866D01*
X19586904Y-24783866D02*
X19586904Y-24974342D01*
X19586904Y-24974342D02*
X19539285Y-25069580D01*
X19539285Y-25069580D02*
X19491666Y-25117200D01*
X19491666Y-25117200D02*
X19396428Y-25164819D01*
X19396428Y-25164819D02*
X19205952Y-25164819D01*
X19205952Y-25164819D02*
X19110714Y-25117200D01*
X19110714Y-25117200D02*
X19063095Y-25069580D01*
X19063095Y-25069580D02*
X19015476Y-24974342D01*
X19015476Y-24974342D02*
X19015476Y-24783866D01*
X19015476Y-24783866D02*
X19063095Y-24688628D01*
X19063095Y-24688628D02*
X19110714Y-24641009D01*
X19110714Y-24641009D02*
X19205952Y-24593390D01*
X18539285Y-25164819D02*
X18348809Y-25164819D01*
X18348809Y-25164819D02*
X18253571Y-25117200D01*
X18253571Y-25117200D02*
X18205952Y-25069580D01*
X18205952Y-25069580D02*
X18110714Y-24926723D01*
X18110714Y-24926723D02*
X18063095Y-24736247D01*
X18063095Y-24736247D02*
X18063095Y-24355295D01*
X18063095Y-24355295D02*
X18110714Y-24260057D01*
X18110714Y-24260057D02*
X18158333Y-24212438D01*
X18158333Y-24212438D02*
X18253571Y-24164819D01*
X18253571Y-24164819D02*
X18444047Y-24164819D01*
X18444047Y-24164819D02*
X18539285Y-24212438D01*
X18539285Y-24212438D02*
X18586904Y-24260057D01*
X18586904Y-24260057D02*
X18634523Y-24355295D01*
X18634523Y-24355295D02*
X18634523Y-24593390D01*
X18634523Y-24593390D02*
X18586904Y-24688628D01*
X18586904Y-24688628D02*
X18539285Y-24736247D01*
X18539285Y-24736247D02*
X18444047Y-24783866D01*
X18444047Y-24783866D02*
X18253571Y-24783866D01*
X18253571Y-24783866D02*
X18158333Y-24736247D01*
X18158333Y-24736247D02*
X18110714Y-24688628D01*
X18110714Y-24688628D02*
X18063095Y-24593390D01*
X15667857Y-20899580D02*
X15715476Y-20947200D01*
X15715476Y-20947200D02*
X15858333Y-20994819D01*
X15858333Y-20994819D02*
X15953571Y-20994819D01*
X15953571Y-20994819D02*
X16096428Y-20947200D01*
X16096428Y-20947200D02*
X16191666Y-20851961D01*
X16191666Y-20851961D02*
X16239285Y-20756723D01*
X16239285Y-20756723D02*
X16286904Y-20566247D01*
X16286904Y-20566247D02*
X16286904Y-20423390D01*
X16286904Y-20423390D02*
X16239285Y-20232914D01*
X16239285Y-20232914D02*
X16191666Y-20137676D01*
X16191666Y-20137676D02*
X16096428Y-20042438D01*
X16096428Y-20042438D02*
X15953571Y-19994819D01*
X15953571Y-19994819D02*
X15858333Y-19994819D01*
X15858333Y-19994819D02*
X15715476Y-20042438D01*
X15715476Y-20042438D02*
X15667857Y-20090057D01*
X15096428Y-20423390D02*
X15191666Y-20375771D01*
X15191666Y-20375771D02*
X15239285Y-20328152D01*
X15239285Y-20328152D02*
X15286904Y-20232914D01*
X15286904Y-20232914D02*
X15286904Y-20185295D01*
X15286904Y-20185295D02*
X15239285Y-20090057D01*
X15239285Y-20090057D02*
X15191666Y-20042438D01*
X15191666Y-20042438D02*
X15096428Y-19994819D01*
X15096428Y-19994819D02*
X14905952Y-19994819D01*
X14905952Y-19994819D02*
X14810714Y-20042438D01*
X14810714Y-20042438D02*
X14763095Y-20090057D01*
X14763095Y-20090057D02*
X14715476Y-20185295D01*
X14715476Y-20185295D02*
X14715476Y-20232914D01*
X14715476Y-20232914D02*
X14763095Y-20328152D01*
X14763095Y-20328152D02*
X14810714Y-20375771D01*
X14810714Y-20375771D02*
X14905952Y-20423390D01*
X14905952Y-20423390D02*
X15096428Y-20423390D01*
X15096428Y-20423390D02*
X15191666Y-20471009D01*
X15191666Y-20471009D02*
X15239285Y-20518628D01*
X15239285Y-20518628D02*
X15286904Y-20613866D01*
X15286904Y-20613866D02*
X15286904Y-20804342D01*
X15286904Y-20804342D02*
X15239285Y-20899580D01*
X15239285Y-20899580D02*
X15191666Y-20947200D01*
X15191666Y-20947200D02*
X15096428Y-20994819D01*
X15096428Y-20994819D02*
X14905952Y-20994819D01*
X14905952Y-20994819D02*
X14810714Y-20947200D01*
X14810714Y-20947200D02*
X14763095Y-20899580D01*
X14763095Y-20899580D02*
X14715476Y-20804342D01*
X14715476Y-20804342D02*
X14715476Y-20613866D01*
X14715476Y-20613866D02*
X14763095Y-20518628D01*
X14763095Y-20518628D02*
X14810714Y-20471009D01*
X14810714Y-20471009D02*
X14905952Y-20423390D01*
X13810714Y-19994819D02*
X14286904Y-19994819D01*
X14286904Y-19994819D02*
X14334523Y-20471009D01*
X14334523Y-20471009D02*
X14286904Y-20423390D01*
X14286904Y-20423390D02*
X14191666Y-20375771D01*
X14191666Y-20375771D02*
X13953571Y-20375771D01*
X13953571Y-20375771D02*
X13858333Y-20423390D01*
X13858333Y-20423390D02*
X13810714Y-20471009D01*
X13810714Y-20471009D02*
X13763095Y-20566247D01*
X13763095Y-20566247D02*
X13763095Y-20804342D01*
X13763095Y-20804342D02*
X13810714Y-20899580D01*
X13810714Y-20899580D02*
X13858333Y-20947200D01*
X13858333Y-20947200D02*
X13953571Y-20994819D01*
X13953571Y-20994819D02*
X14191666Y-20994819D01*
X14191666Y-20994819D02*
X14286904Y-20947200D01*
X14286904Y-20947200D02*
X14334523Y-20899580D01*
X82367857Y2375180D02*
X82701190Y2851371D01*
X82939285Y2375180D02*
X82939285Y3375180D01*
X82939285Y3375180D02*
X82558333Y3375180D01*
X82558333Y3375180D02*
X82463095Y3327561D01*
X82463095Y3327561D02*
X82415476Y3279942D01*
X82415476Y3279942D02*
X82367857Y3184704D01*
X82367857Y3184704D02*
X82367857Y3041847D01*
X82367857Y3041847D02*
X82415476Y2946609D01*
X82415476Y2946609D02*
X82463095Y2898990D01*
X82463095Y2898990D02*
X82558333Y2851371D01*
X82558333Y2851371D02*
X82939285Y2851371D01*
X81463095Y3375180D02*
X81939285Y3375180D01*
X81939285Y3375180D02*
X81986904Y2898990D01*
X81986904Y2898990D02*
X81939285Y2946609D01*
X81939285Y2946609D02*
X81844047Y2994228D01*
X81844047Y2994228D02*
X81605952Y2994228D01*
X81605952Y2994228D02*
X81510714Y2946609D01*
X81510714Y2946609D02*
X81463095Y2898990D01*
X81463095Y2898990D02*
X81415476Y2803752D01*
X81415476Y2803752D02*
X81415476Y2565657D01*
X81415476Y2565657D02*
X81463095Y2470419D01*
X81463095Y2470419D02*
X81510714Y2422800D01*
X81510714Y2422800D02*
X81605952Y2375180D01*
X81605952Y2375180D02*
X81844047Y2375180D01*
X81844047Y2375180D02*
X81939285Y2422800D01*
X81939285Y2422800D02*
X81986904Y2470419D01*
X81082142Y3375180D02*
X80415476Y3375180D01*
X80415476Y3375180D02*
X80844047Y2375180D01*
X76547857Y-5584819D02*
X76881190Y-5108628D01*
X77119285Y-5584819D02*
X77119285Y-4584819D01*
X77119285Y-4584819D02*
X76738333Y-4584819D01*
X76738333Y-4584819D02*
X76643095Y-4632438D01*
X76643095Y-4632438D02*
X76595476Y-4680057D01*
X76595476Y-4680057D02*
X76547857Y-4775295D01*
X76547857Y-4775295D02*
X76547857Y-4918152D01*
X76547857Y-4918152D02*
X76595476Y-5013390D01*
X76595476Y-5013390D02*
X76643095Y-5061009D01*
X76643095Y-5061009D02*
X76738333Y-5108628D01*
X76738333Y-5108628D02*
X77119285Y-5108628D01*
X75643095Y-4584819D02*
X76119285Y-4584819D01*
X76119285Y-4584819D02*
X76166904Y-5061009D01*
X76166904Y-5061009D02*
X76119285Y-5013390D01*
X76119285Y-5013390D02*
X76024047Y-4965771D01*
X76024047Y-4965771D02*
X75785952Y-4965771D01*
X75785952Y-4965771D02*
X75690714Y-5013390D01*
X75690714Y-5013390D02*
X75643095Y-5061009D01*
X75643095Y-5061009D02*
X75595476Y-5156247D01*
X75595476Y-5156247D02*
X75595476Y-5394342D01*
X75595476Y-5394342D02*
X75643095Y-5489580D01*
X75643095Y-5489580D02*
X75690714Y-5537200D01*
X75690714Y-5537200D02*
X75785952Y-5584819D01*
X75785952Y-5584819D02*
X76024047Y-5584819D01*
X76024047Y-5584819D02*
X76119285Y-5537200D01*
X76119285Y-5537200D02*
X76166904Y-5489580D01*
X74643095Y-5584819D02*
X75214523Y-5584819D01*
X74928809Y-5584819D02*
X74928809Y-4584819D01*
X74928809Y-4584819D02*
X75024047Y-4727676D01*
X75024047Y-4727676D02*
X75119285Y-4822914D01*
X75119285Y-4822914D02*
X75214523Y-4870533D01*
X48590476Y-10844819D02*
X48923809Y-10368628D01*
X49161904Y-10844819D02*
X49161904Y-9844819D01*
X49161904Y-9844819D02*
X48780952Y-9844819D01*
X48780952Y-9844819D02*
X48685714Y-9892438D01*
X48685714Y-9892438D02*
X48638095Y-9940057D01*
X48638095Y-9940057D02*
X48590476Y-10035295D01*
X48590476Y-10035295D02*
X48590476Y-10178152D01*
X48590476Y-10178152D02*
X48638095Y-10273390D01*
X48638095Y-10273390D02*
X48685714Y-10321009D01*
X48685714Y-10321009D02*
X48780952Y-10368628D01*
X48780952Y-10368628D02*
X49161904Y-10368628D01*
X48161904Y-10844819D02*
X48161904Y-9844819D01*
X48161904Y-9844819D02*
X47590476Y-10844819D01*
X47590476Y-10844819D02*
X47590476Y-9844819D01*
X46685714Y-10178152D02*
X46685714Y-10844819D01*
X46923809Y-9797200D02*
X47161904Y-10511485D01*
X47161904Y-10511485D02*
X46542857Y-10511485D01*
X35202857Y-16159819D02*
X35536190Y-15683628D01*
X35774285Y-16159819D02*
X35774285Y-15159819D01*
X35774285Y-15159819D02*
X35393333Y-15159819D01*
X35393333Y-15159819D02*
X35298095Y-15207438D01*
X35298095Y-15207438D02*
X35250476Y-15255057D01*
X35250476Y-15255057D02*
X35202857Y-15350295D01*
X35202857Y-15350295D02*
X35202857Y-15493152D01*
X35202857Y-15493152D02*
X35250476Y-15588390D01*
X35250476Y-15588390D02*
X35298095Y-15636009D01*
X35298095Y-15636009D02*
X35393333Y-15683628D01*
X35393333Y-15683628D02*
X35774285Y-15683628D01*
X34869523Y-15159819D02*
X34250476Y-15159819D01*
X34250476Y-15159819D02*
X34583809Y-15540771D01*
X34583809Y-15540771D02*
X34440952Y-15540771D01*
X34440952Y-15540771D02*
X34345714Y-15588390D01*
X34345714Y-15588390D02*
X34298095Y-15636009D01*
X34298095Y-15636009D02*
X34250476Y-15731247D01*
X34250476Y-15731247D02*
X34250476Y-15969342D01*
X34250476Y-15969342D02*
X34298095Y-16064580D01*
X34298095Y-16064580D02*
X34345714Y-16112200D01*
X34345714Y-16112200D02*
X34440952Y-16159819D01*
X34440952Y-16159819D02*
X34726666Y-16159819D01*
X34726666Y-16159819D02*
X34821904Y-16112200D01*
X34821904Y-16112200D02*
X34869523Y-16064580D01*
X33917142Y-15159819D02*
X33298095Y-15159819D01*
X33298095Y-15159819D02*
X33631428Y-15540771D01*
X33631428Y-15540771D02*
X33488571Y-15540771D01*
X33488571Y-15540771D02*
X33393333Y-15588390D01*
X33393333Y-15588390D02*
X33345714Y-15636009D01*
X33345714Y-15636009D02*
X33298095Y-15731247D01*
X33298095Y-15731247D02*
X33298095Y-15969342D01*
X33298095Y-15969342D02*
X33345714Y-16064580D01*
X33345714Y-16064580D02*
X33393333Y-16112200D01*
X33393333Y-16112200D02*
X33488571Y-16159819D01*
X33488571Y-16159819D02*
X33774285Y-16159819D01*
X33774285Y-16159819D02*
X33869523Y-16112200D01*
X33869523Y-16112200D02*
X33917142Y-16064580D01*
X9687857Y-2284819D02*
X10021190Y-1808628D01*
X10259285Y-2284819D02*
X10259285Y-1284819D01*
X10259285Y-1284819D02*
X9878333Y-1284819D01*
X9878333Y-1284819D02*
X9783095Y-1332438D01*
X9783095Y-1332438D02*
X9735476Y-1380057D01*
X9735476Y-1380057D02*
X9687857Y-1475295D01*
X9687857Y-1475295D02*
X9687857Y-1618152D01*
X9687857Y-1618152D02*
X9735476Y-1713390D01*
X9735476Y-1713390D02*
X9783095Y-1761009D01*
X9783095Y-1761009D02*
X9878333Y-1808628D01*
X9878333Y-1808628D02*
X10259285Y-1808628D01*
X9306904Y-1380057D02*
X9259285Y-1332438D01*
X9259285Y-1332438D02*
X9164047Y-1284819D01*
X9164047Y-1284819D02*
X8925952Y-1284819D01*
X8925952Y-1284819D02*
X8830714Y-1332438D01*
X8830714Y-1332438D02*
X8783095Y-1380057D01*
X8783095Y-1380057D02*
X8735476Y-1475295D01*
X8735476Y-1475295D02*
X8735476Y-1570533D01*
X8735476Y-1570533D02*
X8783095Y-1713390D01*
X8783095Y-1713390D02*
X9354523Y-2284819D01*
X9354523Y-2284819D02*
X8735476Y-2284819D01*
X8259285Y-2284819D02*
X8068809Y-2284819D01*
X8068809Y-2284819D02*
X7973571Y-2237200D01*
X7973571Y-2237200D02*
X7925952Y-2189580D01*
X7925952Y-2189580D02*
X7830714Y-2046723D01*
X7830714Y-2046723D02*
X7783095Y-1856247D01*
X7783095Y-1856247D02*
X7783095Y-1475295D01*
X7783095Y-1475295D02*
X7830714Y-1380057D01*
X7830714Y-1380057D02*
X7878333Y-1332438D01*
X7878333Y-1332438D02*
X7973571Y-1284819D01*
X7973571Y-1284819D02*
X8164047Y-1284819D01*
X8164047Y-1284819D02*
X8259285Y-1332438D01*
X8259285Y-1332438D02*
X8306904Y-1380057D01*
X8306904Y-1380057D02*
X8354523Y-1475295D01*
X8354523Y-1475295D02*
X8354523Y-1713390D01*
X8354523Y-1713390D02*
X8306904Y-1808628D01*
X8306904Y-1808628D02*
X8259285Y-1856247D01*
X8259285Y-1856247D02*
X8164047Y-1903866D01*
X8164047Y-1903866D02*
X7973571Y-1903866D01*
X7973571Y-1903866D02*
X7878333Y-1856247D01*
X7878333Y-1856247D02*
X7830714Y-1808628D01*
X7830714Y-1808628D02*
X7783095Y-1713390D01*
X79457857Y385180D02*
X79791190Y861371D01*
X80029285Y385180D02*
X80029285Y1385180D01*
X80029285Y1385180D02*
X79648333Y1385180D01*
X79648333Y1385180D02*
X79553095Y1337561D01*
X79553095Y1337561D02*
X79505476Y1289942D01*
X79505476Y1289942D02*
X79457857Y1194704D01*
X79457857Y1194704D02*
X79457857Y1051847D01*
X79457857Y1051847D02*
X79505476Y956609D01*
X79505476Y956609D02*
X79553095Y908990D01*
X79553095Y908990D02*
X79648333Y861371D01*
X79648333Y861371D02*
X80029285Y861371D01*
X78553095Y1385180D02*
X79029285Y1385180D01*
X79029285Y1385180D02*
X79076904Y908990D01*
X79076904Y908990D02*
X79029285Y956609D01*
X79029285Y956609D02*
X78934047Y1004228D01*
X78934047Y1004228D02*
X78695952Y1004228D01*
X78695952Y1004228D02*
X78600714Y956609D01*
X78600714Y956609D02*
X78553095Y908990D01*
X78553095Y908990D02*
X78505476Y813752D01*
X78505476Y813752D02*
X78505476Y575657D01*
X78505476Y575657D02*
X78553095Y480419D01*
X78553095Y480419D02*
X78600714Y432800D01*
X78600714Y432800D02*
X78695952Y385180D01*
X78695952Y385180D02*
X78934047Y385180D01*
X78934047Y385180D02*
X79029285Y432800D01*
X79029285Y432800D02*
X79076904Y480419D01*
X78172142Y1385180D02*
X77553095Y1385180D01*
X77553095Y1385180D02*
X77886428Y1004228D01*
X77886428Y1004228D02*
X77743571Y1004228D01*
X77743571Y1004228D02*
X77648333Y956609D01*
X77648333Y956609D02*
X77600714Y908990D01*
X77600714Y908990D02*
X77553095Y813752D01*
X77553095Y813752D02*
X77553095Y575657D01*
X77553095Y575657D02*
X77600714Y480419D01*
X77600714Y480419D02*
X77648333Y432800D01*
X77648333Y432800D02*
X77743571Y385180D01*
X77743571Y385180D02*
X78029285Y385180D01*
X78029285Y385180D02*
X78124523Y432800D01*
X78124523Y432800D02*
X78172142Y480419D01*
X15417857Y-34174819D02*
X15751190Y-33698628D01*
X15989285Y-34174819D02*
X15989285Y-33174819D01*
X15989285Y-33174819D02*
X15608333Y-33174819D01*
X15608333Y-33174819D02*
X15513095Y-33222438D01*
X15513095Y-33222438D02*
X15465476Y-33270057D01*
X15465476Y-33270057D02*
X15417857Y-33365295D01*
X15417857Y-33365295D02*
X15417857Y-33508152D01*
X15417857Y-33508152D02*
X15465476Y-33603390D01*
X15465476Y-33603390D02*
X15513095Y-33651009D01*
X15513095Y-33651009D02*
X15608333Y-33698628D01*
X15608333Y-33698628D02*
X15989285Y-33698628D01*
X15036904Y-33270057D02*
X14989285Y-33222438D01*
X14989285Y-33222438D02*
X14894047Y-33174819D01*
X14894047Y-33174819D02*
X14655952Y-33174819D01*
X14655952Y-33174819D02*
X14560714Y-33222438D01*
X14560714Y-33222438D02*
X14513095Y-33270057D01*
X14513095Y-33270057D02*
X14465476Y-33365295D01*
X14465476Y-33365295D02*
X14465476Y-33460533D01*
X14465476Y-33460533D02*
X14513095Y-33603390D01*
X14513095Y-33603390D02*
X15084523Y-34174819D01*
X15084523Y-34174819D02*
X14465476Y-34174819D01*
X14132142Y-33174819D02*
X13513095Y-33174819D01*
X13513095Y-33174819D02*
X13846428Y-33555771D01*
X13846428Y-33555771D02*
X13703571Y-33555771D01*
X13703571Y-33555771D02*
X13608333Y-33603390D01*
X13608333Y-33603390D02*
X13560714Y-33651009D01*
X13560714Y-33651009D02*
X13513095Y-33746247D01*
X13513095Y-33746247D02*
X13513095Y-33984342D01*
X13513095Y-33984342D02*
X13560714Y-34079580D01*
X13560714Y-34079580D02*
X13608333Y-34127200D01*
X13608333Y-34127200D02*
X13703571Y-34174819D01*
X13703571Y-34174819D02*
X13989285Y-34174819D01*
X13989285Y-34174819D02*
X14084523Y-34127200D01*
X14084523Y-34127200D02*
X14132142Y-34079580D01*
X6777857Y-4274819D02*
X7111190Y-3798628D01*
X7349285Y-4274819D02*
X7349285Y-3274819D01*
X7349285Y-3274819D02*
X6968333Y-3274819D01*
X6968333Y-3274819D02*
X6873095Y-3322438D01*
X6873095Y-3322438D02*
X6825476Y-3370057D01*
X6825476Y-3370057D02*
X6777857Y-3465295D01*
X6777857Y-3465295D02*
X6777857Y-3608152D01*
X6777857Y-3608152D02*
X6825476Y-3703390D01*
X6825476Y-3703390D02*
X6873095Y-3751009D01*
X6873095Y-3751009D02*
X6968333Y-3798628D01*
X6968333Y-3798628D02*
X7349285Y-3798628D01*
X6396904Y-3370057D02*
X6349285Y-3322438D01*
X6349285Y-3322438D02*
X6254047Y-3274819D01*
X6254047Y-3274819D02*
X6015952Y-3274819D01*
X6015952Y-3274819D02*
X5920714Y-3322438D01*
X5920714Y-3322438D02*
X5873095Y-3370057D01*
X5873095Y-3370057D02*
X5825476Y-3465295D01*
X5825476Y-3465295D02*
X5825476Y-3560533D01*
X5825476Y-3560533D02*
X5873095Y-3703390D01*
X5873095Y-3703390D02*
X6444523Y-4274819D01*
X6444523Y-4274819D02*
X5825476Y-4274819D01*
X5492142Y-3274819D02*
X4825476Y-3274819D01*
X4825476Y-3274819D02*
X5254047Y-4274819D01*
X55907857Y-1489819D02*
X56241190Y-1013628D01*
X56479285Y-1489819D02*
X56479285Y-489819D01*
X56479285Y-489819D02*
X56098333Y-489819D01*
X56098333Y-489819D02*
X56003095Y-537438D01*
X56003095Y-537438D02*
X55955476Y-585057D01*
X55955476Y-585057D02*
X55907857Y-680295D01*
X55907857Y-680295D02*
X55907857Y-823152D01*
X55907857Y-823152D02*
X55955476Y-918390D01*
X55955476Y-918390D02*
X56003095Y-966009D01*
X56003095Y-966009D02*
X56098333Y-1013628D01*
X56098333Y-1013628D02*
X56479285Y-1013628D01*
X55574523Y-489819D02*
X54955476Y-489819D01*
X54955476Y-489819D02*
X55288809Y-870771D01*
X55288809Y-870771D02*
X55145952Y-870771D01*
X55145952Y-870771D02*
X55050714Y-918390D01*
X55050714Y-918390D02*
X55003095Y-966009D01*
X55003095Y-966009D02*
X54955476Y-1061247D01*
X54955476Y-1061247D02*
X54955476Y-1299342D01*
X54955476Y-1299342D02*
X55003095Y-1394580D01*
X55003095Y-1394580D02*
X55050714Y-1442200D01*
X55050714Y-1442200D02*
X55145952Y-1489819D01*
X55145952Y-1489819D02*
X55431666Y-1489819D01*
X55431666Y-1489819D02*
X55526904Y-1442200D01*
X55526904Y-1442200D02*
X55574523Y-1394580D01*
X54384047Y-918390D02*
X54479285Y-870771D01*
X54479285Y-870771D02*
X54526904Y-823152D01*
X54526904Y-823152D02*
X54574523Y-727914D01*
X54574523Y-727914D02*
X54574523Y-680295D01*
X54574523Y-680295D02*
X54526904Y-585057D01*
X54526904Y-585057D02*
X54479285Y-537438D01*
X54479285Y-537438D02*
X54384047Y-489819D01*
X54384047Y-489819D02*
X54193571Y-489819D01*
X54193571Y-489819D02*
X54098333Y-537438D01*
X54098333Y-537438D02*
X54050714Y-585057D01*
X54050714Y-585057D02*
X54003095Y-680295D01*
X54003095Y-680295D02*
X54003095Y-727914D01*
X54003095Y-727914D02*
X54050714Y-823152D01*
X54050714Y-823152D02*
X54098333Y-870771D01*
X54098333Y-870771D02*
X54193571Y-918390D01*
X54193571Y-918390D02*
X54384047Y-918390D01*
X54384047Y-918390D02*
X54479285Y-966009D01*
X54479285Y-966009D02*
X54526904Y-1013628D01*
X54526904Y-1013628D02*
X54574523Y-1108866D01*
X54574523Y-1108866D02*
X54574523Y-1299342D01*
X54574523Y-1299342D02*
X54526904Y-1394580D01*
X54526904Y-1394580D02*
X54479285Y-1442200D01*
X54479285Y-1442200D02*
X54384047Y-1489819D01*
X54384047Y-1489819D02*
X54193571Y-1489819D01*
X54193571Y-1489819D02*
X54098333Y-1442200D01*
X54098333Y-1442200D02*
X54050714Y-1394580D01*
X54050714Y-1394580D02*
X54003095Y-1299342D01*
X54003095Y-1299342D02*
X54003095Y-1108866D01*
X54003095Y-1108866D02*
X54050714Y-1013628D01*
X54050714Y-1013628D02*
X54098333Y-966009D01*
X54098333Y-966009D02*
X54193571Y-918390D01*
X79457857Y2375180D02*
X79791190Y2851371D01*
X80029285Y2375180D02*
X80029285Y3375180D01*
X80029285Y3375180D02*
X79648333Y3375180D01*
X79648333Y3375180D02*
X79553095Y3327561D01*
X79553095Y3327561D02*
X79505476Y3279942D01*
X79505476Y3279942D02*
X79457857Y3184704D01*
X79457857Y3184704D02*
X79457857Y3041847D01*
X79457857Y3041847D02*
X79505476Y2946609D01*
X79505476Y2946609D02*
X79553095Y2898990D01*
X79553095Y2898990D02*
X79648333Y2851371D01*
X79648333Y2851371D02*
X80029285Y2851371D01*
X78553095Y3375180D02*
X79029285Y3375180D01*
X79029285Y3375180D02*
X79076904Y2898990D01*
X79076904Y2898990D02*
X79029285Y2946609D01*
X79029285Y2946609D02*
X78934047Y2994228D01*
X78934047Y2994228D02*
X78695952Y2994228D01*
X78695952Y2994228D02*
X78600714Y2946609D01*
X78600714Y2946609D02*
X78553095Y2898990D01*
X78553095Y2898990D02*
X78505476Y2803752D01*
X78505476Y2803752D02*
X78505476Y2565657D01*
X78505476Y2565657D02*
X78553095Y2470419D01*
X78553095Y2470419D02*
X78600714Y2422800D01*
X78600714Y2422800D02*
X78695952Y2375180D01*
X78695952Y2375180D02*
X78934047Y2375180D01*
X78934047Y2375180D02*
X79029285Y2422800D01*
X79029285Y2422800D02*
X79076904Y2470419D01*
X78124523Y3279942D02*
X78076904Y3327561D01*
X78076904Y3327561D02*
X77981666Y3375180D01*
X77981666Y3375180D02*
X77743571Y3375180D01*
X77743571Y3375180D02*
X77648333Y3327561D01*
X77648333Y3327561D02*
X77600714Y3279942D01*
X77600714Y3279942D02*
X77553095Y3184704D01*
X77553095Y3184704D02*
X77553095Y3089466D01*
X77553095Y3089466D02*
X77600714Y2946609D01*
X77600714Y2946609D02*
X78172142Y2375180D01*
X78172142Y2375180D02*
X77553095Y2375180D01*
X19367857Y-46124580D02*
X19415476Y-46172200D01*
X19415476Y-46172200D02*
X19558333Y-46219819D01*
X19558333Y-46219819D02*
X19653571Y-46219819D01*
X19653571Y-46219819D02*
X19796428Y-46172200D01*
X19796428Y-46172200D02*
X19891666Y-46076961D01*
X19891666Y-46076961D02*
X19939285Y-45981723D01*
X19939285Y-45981723D02*
X19986904Y-45791247D01*
X19986904Y-45791247D02*
X19986904Y-45648390D01*
X19986904Y-45648390D02*
X19939285Y-45457914D01*
X19939285Y-45457914D02*
X19891666Y-45362676D01*
X19891666Y-45362676D02*
X19796428Y-45267438D01*
X19796428Y-45267438D02*
X19653571Y-45219819D01*
X19653571Y-45219819D02*
X19558333Y-45219819D01*
X19558333Y-45219819D02*
X19415476Y-45267438D01*
X19415476Y-45267438D02*
X19367857Y-45315057D01*
X18796428Y-45648390D02*
X18891666Y-45600771D01*
X18891666Y-45600771D02*
X18939285Y-45553152D01*
X18939285Y-45553152D02*
X18986904Y-45457914D01*
X18986904Y-45457914D02*
X18986904Y-45410295D01*
X18986904Y-45410295D02*
X18939285Y-45315057D01*
X18939285Y-45315057D02*
X18891666Y-45267438D01*
X18891666Y-45267438D02*
X18796428Y-45219819D01*
X18796428Y-45219819D02*
X18605952Y-45219819D01*
X18605952Y-45219819D02*
X18510714Y-45267438D01*
X18510714Y-45267438D02*
X18463095Y-45315057D01*
X18463095Y-45315057D02*
X18415476Y-45410295D01*
X18415476Y-45410295D02*
X18415476Y-45457914D01*
X18415476Y-45457914D02*
X18463095Y-45553152D01*
X18463095Y-45553152D02*
X18510714Y-45600771D01*
X18510714Y-45600771D02*
X18605952Y-45648390D01*
X18605952Y-45648390D02*
X18796428Y-45648390D01*
X18796428Y-45648390D02*
X18891666Y-45696009D01*
X18891666Y-45696009D02*
X18939285Y-45743628D01*
X18939285Y-45743628D02*
X18986904Y-45838866D01*
X18986904Y-45838866D02*
X18986904Y-46029342D01*
X18986904Y-46029342D02*
X18939285Y-46124580D01*
X18939285Y-46124580D02*
X18891666Y-46172200D01*
X18891666Y-46172200D02*
X18796428Y-46219819D01*
X18796428Y-46219819D02*
X18605952Y-46219819D01*
X18605952Y-46219819D02*
X18510714Y-46172200D01*
X18510714Y-46172200D02*
X18463095Y-46124580D01*
X18463095Y-46124580D02*
X18415476Y-46029342D01*
X18415476Y-46029342D02*
X18415476Y-45838866D01*
X18415476Y-45838866D02*
X18463095Y-45743628D01*
X18463095Y-45743628D02*
X18510714Y-45696009D01*
X18510714Y-45696009D02*
X18605952Y-45648390D01*
X17796428Y-45219819D02*
X17701190Y-45219819D01*
X17701190Y-45219819D02*
X17605952Y-45267438D01*
X17605952Y-45267438D02*
X17558333Y-45315057D01*
X17558333Y-45315057D02*
X17510714Y-45410295D01*
X17510714Y-45410295D02*
X17463095Y-45600771D01*
X17463095Y-45600771D02*
X17463095Y-45838866D01*
X17463095Y-45838866D02*
X17510714Y-46029342D01*
X17510714Y-46029342D02*
X17558333Y-46124580D01*
X17558333Y-46124580D02*
X17605952Y-46172200D01*
X17605952Y-46172200D02*
X17701190Y-46219819D01*
X17701190Y-46219819D02*
X17796428Y-46219819D01*
X17796428Y-46219819D02*
X17891666Y-46172200D01*
X17891666Y-46172200D02*
X17939285Y-46124580D01*
X17939285Y-46124580D02*
X17986904Y-46029342D01*
X17986904Y-46029342D02*
X18034523Y-45838866D01*
X18034523Y-45838866D02*
X18034523Y-45600771D01*
X18034523Y-45600771D02*
X17986904Y-45410295D01*
X17986904Y-45410295D02*
X17939285Y-45315057D01*
X17939285Y-45315057D02*
X17891666Y-45267438D01*
X17891666Y-45267438D02*
X17796428Y-45219819D01*
X21144580Y-25682142D02*
X21192200Y-25634523D01*
X21192200Y-25634523D02*
X21239819Y-25491666D01*
X21239819Y-25491666D02*
X21239819Y-25396428D01*
X21239819Y-25396428D02*
X21192200Y-25253571D01*
X21192200Y-25253571D02*
X21096961Y-25158333D01*
X21096961Y-25158333D02*
X21001723Y-25110714D01*
X21001723Y-25110714D02*
X20811247Y-25063095D01*
X20811247Y-25063095D02*
X20668390Y-25063095D01*
X20668390Y-25063095D02*
X20477914Y-25110714D01*
X20477914Y-25110714D02*
X20382676Y-25158333D01*
X20382676Y-25158333D02*
X20287438Y-25253571D01*
X20287438Y-25253571D02*
X20239819Y-25396428D01*
X20239819Y-25396428D02*
X20239819Y-25491666D01*
X20239819Y-25491666D02*
X20287438Y-25634523D01*
X20287438Y-25634523D02*
X20335057Y-25682142D01*
X21239819Y-26158333D02*
X21239819Y-26348809D01*
X21239819Y-26348809D02*
X21192200Y-26444047D01*
X21192200Y-26444047D02*
X21144580Y-26491666D01*
X21144580Y-26491666D02*
X21001723Y-26586904D01*
X21001723Y-26586904D02*
X20811247Y-26634523D01*
X20811247Y-26634523D02*
X20430295Y-26634523D01*
X20430295Y-26634523D02*
X20335057Y-26586904D01*
X20335057Y-26586904D02*
X20287438Y-26539285D01*
X20287438Y-26539285D02*
X20239819Y-26444047D01*
X20239819Y-26444047D02*
X20239819Y-26253571D01*
X20239819Y-26253571D02*
X20287438Y-26158333D01*
X20287438Y-26158333D02*
X20335057Y-26110714D01*
X20335057Y-26110714D02*
X20430295Y-26063095D01*
X20430295Y-26063095D02*
X20668390Y-26063095D01*
X20668390Y-26063095D02*
X20763628Y-26110714D01*
X20763628Y-26110714D02*
X20811247Y-26158333D01*
X20811247Y-26158333D02*
X20858866Y-26253571D01*
X20858866Y-26253571D02*
X20858866Y-26444047D01*
X20858866Y-26444047D02*
X20811247Y-26539285D01*
X20811247Y-26539285D02*
X20763628Y-26586904D01*
X20763628Y-26586904D02*
X20668390Y-26634523D01*
X20335057Y-27015476D02*
X20287438Y-27063095D01*
X20287438Y-27063095D02*
X20239819Y-27158333D01*
X20239819Y-27158333D02*
X20239819Y-27396428D01*
X20239819Y-27396428D02*
X20287438Y-27491666D01*
X20287438Y-27491666D02*
X20335057Y-27539285D01*
X20335057Y-27539285D02*
X20430295Y-27586904D01*
X20430295Y-27586904D02*
X20525533Y-27586904D01*
X20525533Y-27586904D02*
X20668390Y-27539285D01*
X20668390Y-27539285D02*
X21239819Y-26967857D01*
X21239819Y-26967857D02*
X21239819Y-27586904D01*
X54482857Y-33109819D02*
X54816190Y-32633628D01*
X55054285Y-33109819D02*
X55054285Y-32109819D01*
X55054285Y-32109819D02*
X54673333Y-32109819D01*
X54673333Y-32109819D02*
X54578095Y-32157438D01*
X54578095Y-32157438D02*
X54530476Y-32205057D01*
X54530476Y-32205057D02*
X54482857Y-32300295D01*
X54482857Y-32300295D02*
X54482857Y-32443152D01*
X54482857Y-32443152D02*
X54530476Y-32538390D01*
X54530476Y-32538390D02*
X54578095Y-32586009D01*
X54578095Y-32586009D02*
X54673333Y-32633628D01*
X54673333Y-32633628D02*
X55054285Y-32633628D01*
X54149523Y-32109819D02*
X53530476Y-32109819D01*
X53530476Y-32109819D02*
X53863809Y-32490771D01*
X53863809Y-32490771D02*
X53720952Y-32490771D01*
X53720952Y-32490771D02*
X53625714Y-32538390D01*
X53625714Y-32538390D02*
X53578095Y-32586009D01*
X53578095Y-32586009D02*
X53530476Y-32681247D01*
X53530476Y-32681247D02*
X53530476Y-32919342D01*
X53530476Y-32919342D02*
X53578095Y-33014580D01*
X53578095Y-33014580D02*
X53625714Y-33062200D01*
X53625714Y-33062200D02*
X53720952Y-33109819D01*
X53720952Y-33109819D02*
X54006666Y-33109819D01*
X54006666Y-33109819D02*
X54101904Y-33062200D01*
X54101904Y-33062200D02*
X54149523Y-33014580D01*
X52911428Y-32109819D02*
X52816190Y-32109819D01*
X52816190Y-32109819D02*
X52720952Y-32157438D01*
X52720952Y-32157438D02*
X52673333Y-32205057D01*
X52673333Y-32205057D02*
X52625714Y-32300295D01*
X52625714Y-32300295D02*
X52578095Y-32490771D01*
X52578095Y-32490771D02*
X52578095Y-32728866D01*
X52578095Y-32728866D02*
X52625714Y-32919342D01*
X52625714Y-32919342D02*
X52673333Y-33014580D01*
X52673333Y-33014580D02*
X52720952Y-33062200D01*
X52720952Y-33062200D02*
X52816190Y-33109819D01*
X52816190Y-33109819D02*
X52911428Y-33109819D01*
X52911428Y-33109819D02*
X53006666Y-33062200D01*
X53006666Y-33062200D02*
X53054285Y-33014580D01*
X53054285Y-33014580D02*
X53101904Y-32919342D01*
X53101904Y-32919342D02*
X53149523Y-32728866D01*
X53149523Y-32728866D02*
X53149523Y-32490771D01*
X53149523Y-32490771D02*
X53101904Y-32300295D01*
X53101904Y-32300295D02*
X53054285Y-32205057D01*
X53054285Y-32205057D02*
X53006666Y-32157438D01*
X53006666Y-32157438D02*
X52911428Y-32109819D01*
X76547857Y385180D02*
X76881190Y861371D01*
X77119285Y385180D02*
X77119285Y1385180D01*
X77119285Y1385180D02*
X76738333Y1385180D01*
X76738333Y1385180D02*
X76643095Y1337561D01*
X76643095Y1337561D02*
X76595476Y1289942D01*
X76595476Y1289942D02*
X76547857Y1194704D01*
X76547857Y1194704D02*
X76547857Y1051847D01*
X76547857Y1051847D02*
X76595476Y956609D01*
X76595476Y956609D02*
X76643095Y908990D01*
X76643095Y908990D02*
X76738333Y861371D01*
X76738333Y861371D02*
X77119285Y861371D01*
X75690714Y1051847D02*
X75690714Y385180D01*
X75928809Y1432800D02*
X76166904Y718514D01*
X76166904Y718514D02*
X75547857Y718514D01*
X75024047Y956609D02*
X75119285Y1004228D01*
X75119285Y1004228D02*
X75166904Y1051847D01*
X75166904Y1051847D02*
X75214523Y1147085D01*
X75214523Y1147085D02*
X75214523Y1194704D01*
X75214523Y1194704D02*
X75166904Y1289942D01*
X75166904Y1289942D02*
X75119285Y1337561D01*
X75119285Y1337561D02*
X75024047Y1385180D01*
X75024047Y1385180D02*
X74833571Y1385180D01*
X74833571Y1385180D02*
X74738333Y1337561D01*
X74738333Y1337561D02*
X74690714Y1289942D01*
X74690714Y1289942D02*
X74643095Y1194704D01*
X74643095Y1194704D02*
X74643095Y1147085D01*
X74643095Y1147085D02*
X74690714Y1051847D01*
X74690714Y1051847D02*
X74738333Y1004228D01*
X74738333Y1004228D02*
X74833571Y956609D01*
X74833571Y956609D02*
X75024047Y956609D01*
X75024047Y956609D02*
X75119285Y908990D01*
X75119285Y908990D02*
X75166904Y861371D01*
X75166904Y861371D02*
X75214523Y766133D01*
X75214523Y766133D02*
X75214523Y575657D01*
X75214523Y575657D02*
X75166904Y480419D01*
X75166904Y480419D02*
X75119285Y432800D01*
X75119285Y432800D02*
X75024047Y385180D01*
X75024047Y385180D02*
X74833571Y385180D01*
X74833571Y385180D02*
X74738333Y432800D01*
X74738333Y432800D02*
X74690714Y480419D01*
X74690714Y480419D02*
X74643095Y575657D01*
X74643095Y575657D02*
X74643095Y766133D01*
X74643095Y766133D02*
X74690714Y861371D01*
X74690714Y861371D02*
X74738333Y908990D01*
X74738333Y908990D02*
X74833571Y956609D01*
X56025476Y-28209819D02*
X56358809Y-27733628D01*
X56596904Y-28209819D02*
X56596904Y-27209819D01*
X56596904Y-27209819D02*
X56215952Y-27209819D01*
X56215952Y-27209819D02*
X56120714Y-27257438D01*
X56120714Y-27257438D02*
X56073095Y-27305057D01*
X56073095Y-27305057D02*
X56025476Y-27400295D01*
X56025476Y-27400295D02*
X56025476Y-27543152D01*
X56025476Y-27543152D02*
X56073095Y-27638390D01*
X56073095Y-27638390D02*
X56120714Y-27686009D01*
X56120714Y-27686009D02*
X56215952Y-27733628D01*
X56215952Y-27733628D02*
X56596904Y-27733628D01*
X55596904Y-28209819D02*
X55596904Y-27209819D01*
X55596904Y-27209819D02*
X55025476Y-28209819D01*
X55025476Y-28209819D02*
X55025476Y-27209819D01*
X54596904Y-27305057D02*
X54549285Y-27257438D01*
X54549285Y-27257438D02*
X54454047Y-27209819D01*
X54454047Y-27209819D02*
X54215952Y-27209819D01*
X54215952Y-27209819D02*
X54120714Y-27257438D01*
X54120714Y-27257438D02*
X54073095Y-27305057D01*
X54073095Y-27305057D02*
X54025476Y-27400295D01*
X54025476Y-27400295D02*
X54025476Y-27495533D01*
X54025476Y-27495533D02*
X54073095Y-27638390D01*
X54073095Y-27638390D02*
X54644523Y-28209819D01*
X54644523Y-28209819D02*
X54025476Y-28209819D01*
X82367857Y-1604819D02*
X82701190Y-1128628D01*
X82939285Y-1604819D02*
X82939285Y-604819D01*
X82939285Y-604819D02*
X82558333Y-604819D01*
X82558333Y-604819D02*
X82463095Y-652438D01*
X82463095Y-652438D02*
X82415476Y-700057D01*
X82415476Y-700057D02*
X82367857Y-795295D01*
X82367857Y-795295D02*
X82367857Y-938152D01*
X82367857Y-938152D02*
X82415476Y-1033390D01*
X82415476Y-1033390D02*
X82463095Y-1081009D01*
X82463095Y-1081009D02*
X82558333Y-1128628D01*
X82558333Y-1128628D02*
X82939285Y-1128628D01*
X81463095Y-604819D02*
X81939285Y-604819D01*
X81939285Y-604819D02*
X81986904Y-1081009D01*
X81986904Y-1081009D02*
X81939285Y-1033390D01*
X81939285Y-1033390D02*
X81844047Y-985771D01*
X81844047Y-985771D02*
X81605952Y-985771D01*
X81605952Y-985771D02*
X81510714Y-1033390D01*
X81510714Y-1033390D02*
X81463095Y-1081009D01*
X81463095Y-1081009D02*
X81415476Y-1176247D01*
X81415476Y-1176247D02*
X81415476Y-1414342D01*
X81415476Y-1414342D02*
X81463095Y-1509580D01*
X81463095Y-1509580D02*
X81510714Y-1557200D01*
X81510714Y-1557200D02*
X81605952Y-1604819D01*
X81605952Y-1604819D02*
X81844047Y-1604819D01*
X81844047Y-1604819D02*
X81939285Y-1557200D01*
X81939285Y-1557200D02*
X81986904Y-1509580D01*
X80939285Y-1604819D02*
X80748809Y-1604819D01*
X80748809Y-1604819D02*
X80653571Y-1557200D01*
X80653571Y-1557200D02*
X80605952Y-1509580D01*
X80605952Y-1509580D02*
X80510714Y-1366723D01*
X80510714Y-1366723D02*
X80463095Y-1176247D01*
X80463095Y-1176247D02*
X80463095Y-795295D01*
X80463095Y-795295D02*
X80510714Y-700057D01*
X80510714Y-700057D02*
X80558333Y-652438D01*
X80558333Y-652438D02*
X80653571Y-604819D01*
X80653571Y-604819D02*
X80844047Y-604819D01*
X80844047Y-604819D02*
X80939285Y-652438D01*
X80939285Y-652438D02*
X80986904Y-700057D01*
X80986904Y-700057D02*
X81034523Y-795295D01*
X81034523Y-795295D02*
X81034523Y-1033390D01*
X81034523Y-1033390D02*
X80986904Y-1128628D01*
X80986904Y-1128628D02*
X80939285Y-1176247D01*
X80939285Y-1176247D02*
X80844047Y-1223866D01*
X80844047Y-1223866D02*
X80653571Y-1223866D01*
X80653571Y-1223866D02*
X80558333Y-1176247D01*
X80558333Y-1176247D02*
X80510714Y-1128628D01*
X80510714Y-1128628D02*
X80463095Y-1033390D01*
X25349819Y-20482142D02*
X24873628Y-20148809D01*
X25349819Y-19910714D02*
X24349819Y-19910714D01*
X24349819Y-19910714D02*
X24349819Y-20291666D01*
X24349819Y-20291666D02*
X24397438Y-20386904D01*
X24397438Y-20386904D02*
X24445057Y-20434523D01*
X24445057Y-20434523D02*
X24540295Y-20482142D01*
X24540295Y-20482142D02*
X24683152Y-20482142D01*
X24683152Y-20482142D02*
X24778390Y-20434523D01*
X24778390Y-20434523D02*
X24826009Y-20386904D01*
X24826009Y-20386904D02*
X24873628Y-20291666D01*
X24873628Y-20291666D02*
X24873628Y-19910714D01*
X24445057Y-20863095D02*
X24397438Y-20910714D01*
X24397438Y-20910714D02*
X24349819Y-21005952D01*
X24349819Y-21005952D02*
X24349819Y-21244047D01*
X24349819Y-21244047D02*
X24397438Y-21339285D01*
X24397438Y-21339285D02*
X24445057Y-21386904D01*
X24445057Y-21386904D02*
X24540295Y-21434523D01*
X24540295Y-21434523D02*
X24635533Y-21434523D01*
X24635533Y-21434523D02*
X24778390Y-21386904D01*
X24778390Y-21386904D02*
X25349819Y-20815476D01*
X25349819Y-20815476D02*
X25349819Y-21434523D01*
X24349819Y-22291666D02*
X24349819Y-22101190D01*
X24349819Y-22101190D02*
X24397438Y-22005952D01*
X24397438Y-22005952D02*
X24445057Y-21958333D01*
X24445057Y-21958333D02*
X24587914Y-21863095D01*
X24587914Y-21863095D02*
X24778390Y-21815476D01*
X24778390Y-21815476D02*
X25159342Y-21815476D01*
X25159342Y-21815476D02*
X25254580Y-21863095D01*
X25254580Y-21863095D02*
X25302200Y-21910714D01*
X25302200Y-21910714D02*
X25349819Y-22005952D01*
X25349819Y-22005952D02*
X25349819Y-22196428D01*
X25349819Y-22196428D02*
X25302200Y-22291666D01*
X25302200Y-22291666D02*
X25254580Y-22339285D01*
X25254580Y-22339285D02*
X25159342Y-22386904D01*
X25159342Y-22386904D02*
X24921247Y-22386904D01*
X24921247Y-22386904D02*
X24826009Y-22339285D01*
X24826009Y-22339285D02*
X24778390Y-22291666D01*
X24778390Y-22291666D02*
X24730771Y-22196428D01*
X24730771Y-22196428D02*
X24730771Y-22005952D01*
X24730771Y-22005952D02*
X24778390Y-21910714D01*
X24778390Y-21910714D02*
X24826009Y-21863095D01*
X24826009Y-21863095D02*
X24921247Y-21815476D01*
X55907857Y-5469819D02*
X56241190Y-4993628D01*
X56479285Y-5469819D02*
X56479285Y-4469819D01*
X56479285Y-4469819D02*
X56098333Y-4469819D01*
X56098333Y-4469819D02*
X56003095Y-4517438D01*
X56003095Y-4517438D02*
X55955476Y-4565057D01*
X55955476Y-4565057D02*
X55907857Y-4660295D01*
X55907857Y-4660295D02*
X55907857Y-4803152D01*
X55907857Y-4803152D02*
X55955476Y-4898390D01*
X55955476Y-4898390D02*
X56003095Y-4946009D01*
X56003095Y-4946009D02*
X56098333Y-4993628D01*
X56098333Y-4993628D02*
X56479285Y-4993628D01*
X55050714Y-4803152D02*
X55050714Y-5469819D01*
X55288809Y-4422200D02*
X55526904Y-5136485D01*
X55526904Y-5136485D02*
X54907857Y-5136485D01*
X54336428Y-4469819D02*
X54241190Y-4469819D01*
X54241190Y-4469819D02*
X54145952Y-4517438D01*
X54145952Y-4517438D02*
X54098333Y-4565057D01*
X54098333Y-4565057D02*
X54050714Y-4660295D01*
X54050714Y-4660295D02*
X54003095Y-4850771D01*
X54003095Y-4850771D02*
X54003095Y-5088866D01*
X54003095Y-5088866D02*
X54050714Y-5279342D01*
X54050714Y-5279342D02*
X54098333Y-5374580D01*
X54098333Y-5374580D02*
X54145952Y-5422200D01*
X54145952Y-5422200D02*
X54241190Y-5469819D01*
X54241190Y-5469819D02*
X54336428Y-5469819D01*
X54336428Y-5469819D02*
X54431666Y-5422200D01*
X54431666Y-5422200D02*
X54479285Y-5374580D01*
X54479285Y-5374580D02*
X54526904Y-5279342D01*
X54526904Y-5279342D02*
X54574523Y-5088866D01*
X54574523Y-5088866D02*
X54574523Y-4850771D01*
X54574523Y-4850771D02*
X54526904Y-4660295D01*
X54526904Y-4660295D02*
X54479285Y-4565057D01*
X54479285Y-4565057D02*
X54431666Y-4517438D01*
X54431666Y-4517438D02*
X54336428Y-4469819D01*
X21599580Y-35132142D02*
X21647200Y-35084523D01*
X21647200Y-35084523D02*
X21694819Y-34941666D01*
X21694819Y-34941666D02*
X21694819Y-34846428D01*
X21694819Y-34846428D02*
X21647200Y-34703571D01*
X21647200Y-34703571D02*
X21551961Y-34608333D01*
X21551961Y-34608333D02*
X21456723Y-34560714D01*
X21456723Y-34560714D02*
X21266247Y-34513095D01*
X21266247Y-34513095D02*
X21123390Y-34513095D01*
X21123390Y-34513095D02*
X20932914Y-34560714D01*
X20932914Y-34560714D02*
X20837676Y-34608333D01*
X20837676Y-34608333D02*
X20742438Y-34703571D01*
X20742438Y-34703571D02*
X20694819Y-34846428D01*
X20694819Y-34846428D02*
X20694819Y-34941666D01*
X20694819Y-34941666D02*
X20742438Y-35084523D01*
X20742438Y-35084523D02*
X20790057Y-35132142D01*
X21694819Y-35608333D02*
X21694819Y-35798809D01*
X21694819Y-35798809D02*
X21647200Y-35894047D01*
X21647200Y-35894047D02*
X21599580Y-35941666D01*
X21599580Y-35941666D02*
X21456723Y-36036904D01*
X21456723Y-36036904D02*
X21266247Y-36084523D01*
X21266247Y-36084523D02*
X20885295Y-36084523D01*
X20885295Y-36084523D02*
X20790057Y-36036904D01*
X20790057Y-36036904D02*
X20742438Y-35989285D01*
X20742438Y-35989285D02*
X20694819Y-35894047D01*
X20694819Y-35894047D02*
X20694819Y-35703571D01*
X20694819Y-35703571D02*
X20742438Y-35608333D01*
X20742438Y-35608333D02*
X20790057Y-35560714D01*
X20790057Y-35560714D02*
X20885295Y-35513095D01*
X20885295Y-35513095D02*
X21123390Y-35513095D01*
X21123390Y-35513095D02*
X21218628Y-35560714D01*
X21218628Y-35560714D02*
X21266247Y-35608333D01*
X21266247Y-35608333D02*
X21313866Y-35703571D01*
X21313866Y-35703571D02*
X21313866Y-35894047D01*
X21313866Y-35894047D02*
X21266247Y-35989285D01*
X21266247Y-35989285D02*
X21218628Y-36036904D01*
X21218628Y-36036904D02*
X21123390Y-36084523D01*
X20694819Y-36989285D02*
X20694819Y-36513095D01*
X20694819Y-36513095D02*
X21171009Y-36465476D01*
X21171009Y-36465476D02*
X21123390Y-36513095D01*
X21123390Y-36513095D02*
X21075771Y-36608333D01*
X21075771Y-36608333D02*
X21075771Y-36846428D01*
X21075771Y-36846428D02*
X21123390Y-36941666D01*
X21123390Y-36941666D02*
X21171009Y-36989285D01*
X21171009Y-36989285D02*
X21266247Y-37036904D01*
X21266247Y-37036904D02*
X21504342Y-37036904D01*
X21504342Y-37036904D02*
X21599580Y-36989285D01*
X21599580Y-36989285D02*
X21647200Y-36941666D01*
X21647200Y-36941666D02*
X21694819Y-36846428D01*
X21694819Y-36846428D02*
X21694819Y-36608333D01*
X21694819Y-36608333D02*
X21647200Y-36513095D01*
X21647200Y-36513095D02*
X21599580Y-36465476D01*
X61365476Y-18304819D02*
X61698809Y-17828628D01*
X61936904Y-18304819D02*
X61936904Y-17304819D01*
X61936904Y-17304819D02*
X61555952Y-17304819D01*
X61555952Y-17304819D02*
X61460714Y-17352438D01*
X61460714Y-17352438D02*
X61413095Y-17400057D01*
X61413095Y-17400057D02*
X61365476Y-17495295D01*
X61365476Y-17495295D02*
X61365476Y-17638152D01*
X61365476Y-17638152D02*
X61413095Y-17733390D01*
X61413095Y-17733390D02*
X61460714Y-17781009D01*
X61460714Y-17781009D02*
X61555952Y-17828628D01*
X61555952Y-17828628D02*
X61936904Y-17828628D01*
X60936904Y-18304819D02*
X60936904Y-17304819D01*
X60936904Y-17304819D02*
X60365476Y-18304819D01*
X60365476Y-18304819D02*
X60365476Y-17304819D01*
X59365476Y-18304819D02*
X59936904Y-18304819D01*
X59651190Y-18304819D02*
X59651190Y-17304819D01*
X59651190Y-17304819D02*
X59746428Y-17447676D01*
X59746428Y-17447676D02*
X59841666Y-17542914D01*
X59841666Y-17542914D02*
X59936904Y-17590533D01*
X19367857Y-47519580D02*
X19415476Y-47567200D01*
X19415476Y-47567200D02*
X19558333Y-47614819D01*
X19558333Y-47614819D02*
X19653571Y-47614819D01*
X19653571Y-47614819D02*
X19796428Y-47567200D01*
X19796428Y-47567200D02*
X19891666Y-47471961D01*
X19891666Y-47471961D02*
X19939285Y-47376723D01*
X19939285Y-47376723D02*
X19986904Y-47186247D01*
X19986904Y-47186247D02*
X19986904Y-47043390D01*
X19986904Y-47043390D02*
X19939285Y-46852914D01*
X19939285Y-46852914D02*
X19891666Y-46757676D01*
X19891666Y-46757676D02*
X19796428Y-46662438D01*
X19796428Y-46662438D02*
X19653571Y-46614819D01*
X19653571Y-46614819D02*
X19558333Y-46614819D01*
X19558333Y-46614819D02*
X19415476Y-46662438D01*
X19415476Y-46662438D02*
X19367857Y-46710057D01*
X19034523Y-46614819D02*
X18367857Y-46614819D01*
X18367857Y-46614819D02*
X18796428Y-47614819D01*
X17844047Y-47043390D02*
X17939285Y-46995771D01*
X17939285Y-46995771D02*
X17986904Y-46948152D01*
X17986904Y-46948152D02*
X18034523Y-46852914D01*
X18034523Y-46852914D02*
X18034523Y-46805295D01*
X18034523Y-46805295D02*
X17986904Y-46710057D01*
X17986904Y-46710057D02*
X17939285Y-46662438D01*
X17939285Y-46662438D02*
X17844047Y-46614819D01*
X17844047Y-46614819D02*
X17653571Y-46614819D01*
X17653571Y-46614819D02*
X17558333Y-46662438D01*
X17558333Y-46662438D02*
X17510714Y-46710057D01*
X17510714Y-46710057D02*
X17463095Y-46805295D01*
X17463095Y-46805295D02*
X17463095Y-46852914D01*
X17463095Y-46852914D02*
X17510714Y-46948152D01*
X17510714Y-46948152D02*
X17558333Y-46995771D01*
X17558333Y-46995771D02*
X17653571Y-47043390D01*
X17653571Y-47043390D02*
X17844047Y-47043390D01*
X17844047Y-47043390D02*
X17939285Y-47091009D01*
X17939285Y-47091009D02*
X17986904Y-47138628D01*
X17986904Y-47138628D02*
X18034523Y-47233866D01*
X18034523Y-47233866D02*
X18034523Y-47424342D01*
X18034523Y-47424342D02*
X17986904Y-47519580D01*
X17986904Y-47519580D02*
X17939285Y-47567200D01*
X17939285Y-47567200D02*
X17844047Y-47614819D01*
X17844047Y-47614819D02*
X17653571Y-47614819D01*
X17653571Y-47614819D02*
X17558333Y-47567200D01*
X17558333Y-47567200D02*
X17510714Y-47519580D01*
X17510714Y-47519580D02*
X17463095Y-47424342D01*
X17463095Y-47424342D02*
X17463095Y-47233866D01*
X17463095Y-47233866D02*
X17510714Y-47138628D01*
X17510714Y-47138628D02*
X17558333Y-47091009D01*
X17558333Y-47091009D02*
X17653571Y-47043390D01*
X14767857Y-44669580D02*
X14815476Y-44717200D01*
X14815476Y-44717200D02*
X14958333Y-44764819D01*
X14958333Y-44764819D02*
X15053571Y-44764819D01*
X15053571Y-44764819D02*
X15196428Y-44717200D01*
X15196428Y-44717200D02*
X15291666Y-44621961D01*
X15291666Y-44621961D02*
X15339285Y-44526723D01*
X15339285Y-44526723D02*
X15386904Y-44336247D01*
X15386904Y-44336247D02*
X15386904Y-44193390D01*
X15386904Y-44193390D02*
X15339285Y-44002914D01*
X15339285Y-44002914D02*
X15291666Y-43907676D01*
X15291666Y-43907676D02*
X15196428Y-43812438D01*
X15196428Y-43812438D02*
X15053571Y-43764819D01*
X15053571Y-43764819D02*
X14958333Y-43764819D01*
X14958333Y-43764819D02*
X14815476Y-43812438D01*
X14815476Y-43812438D02*
X14767857Y-43860057D01*
X14291666Y-44764819D02*
X14101190Y-44764819D01*
X14101190Y-44764819D02*
X14005952Y-44717200D01*
X14005952Y-44717200D02*
X13958333Y-44669580D01*
X13958333Y-44669580D02*
X13863095Y-44526723D01*
X13863095Y-44526723D02*
X13815476Y-44336247D01*
X13815476Y-44336247D02*
X13815476Y-43955295D01*
X13815476Y-43955295D02*
X13863095Y-43860057D01*
X13863095Y-43860057D02*
X13910714Y-43812438D01*
X13910714Y-43812438D02*
X14005952Y-43764819D01*
X14005952Y-43764819D02*
X14196428Y-43764819D01*
X14196428Y-43764819D02*
X14291666Y-43812438D01*
X14291666Y-43812438D02*
X14339285Y-43860057D01*
X14339285Y-43860057D02*
X14386904Y-43955295D01*
X14386904Y-43955295D02*
X14386904Y-44193390D01*
X14386904Y-44193390D02*
X14339285Y-44288628D01*
X14339285Y-44288628D02*
X14291666Y-44336247D01*
X14291666Y-44336247D02*
X14196428Y-44383866D01*
X14196428Y-44383866D02*
X14005952Y-44383866D01*
X14005952Y-44383866D02*
X13910714Y-44336247D01*
X13910714Y-44336247D02*
X13863095Y-44288628D01*
X13863095Y-44288628D02*
X13815476Y-44193390D01*
X13482142Y-43764819D02*
X12815476Y-43764819D01*
X12815476Y-43764819D02*
X13244047Y-44764819D01*
X76547857Y2375180D02*
X76881190Y2851371D01*
X77119285Y2375180D02*
X77119285Y3375180D01*
X77119285Y3375180D02*
X76738333Y3375180D01*
X76738333Y3375180D02*
X76643095Y3327561D01*
X76643095Y3327561D02*
X76595476Y3279942D01*
X76595476Y3279942D02*
X76547857Y3184704D01*
X76547857Y3184704D02*
X76547857Y3041847D01*
X76547857Y3041847D02*
X76595476Y2946609D01*
X76595476Y2946609D02*
X76643095Y2898990D01*
X76643095Y2898990D02*
X76738333Y2851371D01*
X76738333Y2851371D02*
X77119285Y2851371D01*
X75690714Y3041847D02*
X75690714Y2375180D01*
X75928809Y3422800D02*
X76166904Y2708514D01*
X76166904Y2708514D02*
X75547857Y2708514D01*
X75262142Y3375180D02*
X74595476Y3375180D01*
X74595476Y3375180D02*
X75024047Y2375180D01*
X15381009Y-44541666D02*
X15381009Y-44208333D01*
X15904819Y-44208333D02*
X14904819Y-44208333D01*
X14904819Y-44208333D02*
X14904819Y-44684523D01*
X15381009Y-45398809D02*
X15428628Y-45541666D01*
X15428628Y-45541666D02*
X15476247Y-45589285D01*
X15476247Y-45589285D02*
X15571485Y-45636904D01*
X15571485Y-45636904D02*
X15714342Y-45636904D01*
X15714342Y-45636904D02*
X15809580Y-45589285D01*
X15809580Y-45589285D02*
X15857200Y-45541666D01*
X15857200Y-45541666D02*
X15904819Y-45446428D01*
X15904819Y-45446428D02*
X15904819Y-45065476D01*
X15904819Y-45065476D02*
X14904819Y-45065476D01*
X14904819Y-45065476D02*
X14904819Y-45398809D01*
X14904819Y-45398809D02*
X14952438Y-45494047D01*
X14952438Y-45494047D02*
X15000057Y-45541666D01*
X15000057Y-45541666D02*
X15095295Y-45589285D01*
X15095295Y-45589285D02*
X15190533Y-45589285D01*
X15190533Y-45589285D02*
X15285771Y-45541666D01*
X15285771Y-45541666D02*
X15333390Y-45494047D01*
X15333390Y-45494047D02*
X15381009Y-45398809D01*
X15381009Y-45398809D02*
X15381009Y-45065476D01*
X15904819Y-46589285D02*
X15904819Y-46017857D01*
X15904819Y-46303571D02*
X14904819Y-46303571D01*
X14904819Y-46303571D02*
X15047676Y-46208333D01*
X15047676Y-46208333D02*
X15142914Y-46113095D01*
X15142914Y-46113095D02*
X15190533Y-46017857D01*
X79457857Y-1604819D02*
X79791190Y-1128628D01*
X80029285Y-1604819D02*
X80029285Y-604819D01*
X80029285Y-604819D02*
X79648333Y-604819D01*
X79648333Y-604819D02*
X79553095Y-652438D01*
X79553095Y-652438D02*
X79505476Y-700057D01*
X79505476Y-700057D02*
X79457857Y-795295D01*
X79457857Y-795295D02*
X79457857Y-938152D01*
X79457857Y-938152D02*
X79505476Y-1033390D01*
X79505476Y-1033390D02*
X79553095Y-1081009D01*
X79553095Y-1081009D02*
X79648333Y-1128628D01*
X79648333Y-1128628D02*
X80029285Y-1128628D01*
X78553095Y-604819D02*
X79029285Y-604819D01*
X79029285Y-604819D02*
X79076904Y-1081009D01*
X79076904Y-1081009D02*
X79029285Y-1033390D01*
X79029285Y-1033390D02*
X78934047Y-985771D01*
X78934047Y-985771D02*
X78695952Y-985771D01*
X78695952Y-985771D02*
X78600714Y-1033390D01*
X78600714Y-1033390D02*
X78553095Y-1081009D01*
X78553095Y-1081009D02*
X78505476Y-1176247D01*
X78505476Y-1176247D02*
X78505476Y-1414342D01*
X78505476Y-1414342D02*
X78553095Y-1509580D01*
X78553095Y-1509580D02*
X78600714Y-1557200D01*
X78600714Y-1557200D02*
X78695952Y-1604819D01*
X78695952Y-1604819D02*
X78934047Y-1604819D01*
X78934047Y-1604819D02*
X79029285Y-1557200D01*
X79029285Y-1557200D02*
X79076904Y-1509580D01*
X77648333Y-938152D02*
X77648333Y-1604819D01*
X77886428Y-557200D02*
X78124523Y-1271485D01*
X78124523Y-1271485D02*
X77505476Y-1271485D01*
X21642857Y-25074580D02*
X21690476Y-25122200D01*
X21690476Y-25122200D02*
X21833333Y-25169819D01*
X21833333Y-25169819D02*
X21928571Y-25169819D01*
X21928571Y-25169819D02*
X22071428Y-25122200D01*
X22071428Y-25122200D02*
X22166666Y-25026961D01*
X22166666Y-25026961D02*
X22214285Y-24931723D01*
X22214285Y-24931723D02*
X22261904Y-24741247D01*
X22261904Y-24741247D02*
X22261904Y-24598390D01*
X22261904Y-24598390D02*
X22214285Y-24407914D01*
X22214285Y-24407914D02*
X22166666Y-24312676D01*
X22166666Y-24312676D02*
X22071428Y-24217438D01*
X22071428Y-24217438D02*
X21928571Y-24169819D01*
X21928571Y-24169819D02*
X21833333Y-24169819D01*
X21833333Y-24169819D02*
X21690476Y-24217438D01*
X21690476Y-24217438D02*
X21642857Y-24265057D01*
X21166666Y-25169819D02*
X20976190Y-25169819D01*
X20976190Y-25169819D02*
X20880952Y-25122200D01*
X20880952Y-25122200D02*
X20833333Y-25074580D01*
X20833333Y-25074580D02*
X20738095Y-24931723D01*
X20738095Y-24931723D02*
X20690476Y-24741247D01*
X20690476Y-24741247D02*
X20690476Y-24360295D01*
X20690476Y-24360295D02*
X20738095Y-24265057D01*
X20738095Y-24265057D02*
X20785714Y-24217438D01*
X20785714Y-24217438D02*
X20880952Y-24169819D01*
X20880952Y-24169819D02*
X21071428Y-24169819D01*
X21071428Y-24169819D02*
X21166666Y-24217438D01*
X21166666Y-24217438D02*
X21214285Y-24265057D01*
X21214285Y-24265057D02*
X21261904Y-24360295D01*
X21261904Y-24360295D02*
X21261904Y-24598390D01*
X21261904Y-24598390D02*
X21214285Y-24693628D01*
X21214285Y-24693628D02*
X21166666Y-24741247D01*
X21166666Y-24741247D02*
X21071428Y-24788866D01*
X21071428Y-24788866D02*
X20880952Y-24788866D01*
X20880952Y-24788866D02*
X20785714Y-24741247D01*
X20785714Y-24741247D02*
X20738095Y-24693628D01*
X20738095Y-24693628D02*
X20690476Y-24598390D01*
X19738095Y-25169819D02*
X20309523Y-25169819D01*
X20023809Y-25169819D02*
X20023809Y-24169819D01*
X20023809Y-24169819D02*
X20119047Y-24312676D01*
X20119047Y-24312676D02*
X20214285Y-24407914D01*
X20214285Y-24407914D02*
X20309523Y-24455533D01*
X14767857Y-43724580D02*
X14815476Y-43772200D01*
X14815476Y-43772200D02*
X14958333Y-43819819D01*
X14958333Y-43819819D02*
X15053571Y-43819819D01*
X15053571Y-43819819D02*
X15196428Y-43772200D01*
X15196428Y-43772200D02*
X15291666Y-43676961D01*
X15291666Y-43676961D02*
X15339285Y-43581723D01*
X15339285Y-43581723D02*
X15386904Y-43391247D01*
X15386904Y-43391247D02*
X15386904Y-43248390D01*
X15386904Y-43248390D02*
X15339285Y-43057914D01*
X15339285Y-43057914D02*
X15291666Y-42962676D01*
X15291666Y-42962676D02*
X15196428Y-42867438D01*
X15196428Y-42867438D02*
X15053571Y-42819819D01*
X15053571Y-42819819D02*
X14958333Y-42819819D01*
X14958333Y-42819819D02*
X14815476Y-42867438D01*
X14815476Y-42867438D02*
X14767857Y-42915057D01*
X14291666Y-43819819D02*
X14101190Y-43819819D01*
X14101190Y-43819819D02*
X14005952Y-43772200D01*
X14005952Y-43772200D02*
X13958333Y-43724580D01*
X13958333Y-43724580D02*
X13863095Y-43581723D01*
X13863095Y-43581723D02*
X13815476Y-43391247D01*
X13815476Y-43391247D02*
X13815476Y-43010295D01*
X13815476Y-43010295D02*
X13863095Y-42915057D01*
X13863095Y-42915057D02*
X13910714Y-42867438D01*
X13910714Y-42867438D02*
X14005952Y-42819819D01*
X14005952Y-42819819D02*
X14196428Y-42819819D01*
X14196428Y-42819819D02*
X14291666Y-42867438D01*
X14291666Y-42867438D02*
X14339285Y-42915057D01*
X14339285Y-42915057D02*
X14386904Y-43010295D01*
X14386904Y-43010295D02*
X14386904Y-43248390D01*
X14386904Y-43248390D02*
X14339285Y-43343628D01*
X14339285Y-43343628D02*
X14291666Y-43391247D01*
X14291666Y-43391247D02*
X14196428Y-43438866D01*
X14196428Y-43438866D02*
X14005952Y-43438866D01*
X14005952Y-43438866D02*
X13910714Y-43391247D01*
X13910714Y-43391247D02*
X13863095Y-43343628D01*
X13863095Y-43343628D02*
X13815476Y-43248390D01*
X13244047Y-43248390D02*
X13339285Y-43200771D01*
X13339285Y-43200771D02*
X13386904Y-43153152D01*
X13386904Y-43153152D02*
X13434523Y-43057914D01*
X13434523Y-43057914D02*
X13434523Y-43010295D01*
X13434523Y-43010295D02*
X13386904Y-42915057D01*
X13386904Y-42915057D02*
X13339285Y-42867438D01*
X13339285Y-42867438D02*
X13244047Y-42819819D01*
X13244047Y-42819819D02*
X13053571Y-42819819D01*
X13053571Y-42819819D02*
X12958333Y-42867438D01*
X12958333Y-42867438D02*
X12910714Y-42915057D01*
X12910714Y-42915057D02*
X12863095Y-43010295D01*
X12863095Y-43010295D02*
X12863095Y-43057914D01*
X12863095Y-43057914D02*
X12910714Y-43153152D01*
X12910714Y-43153152D02*
X12958333Y-43200771D01*
X12958333Y-43200771D02*
X13053571Y-43248390D01*
X13053571Y-43248390D02*
X13244047Y-43248390D01*
X13244047Y-43248390D02*
X13339285Y-43296009D01*
X13339285Y-43296009D02*
X13386904Y-43343628D01*
X13386904Y-43343628D02*
X13434523Y-43438866D01*
X13434523Y-43438866D02*
X13434523Y-43629342D01*
X13434523Y-43629342D02*
X13386904Y-43724580D01*
X13386904Y-43724580D02*
X13339285Y-43772200D01*
X13339285Y-43772200D02*
X13244047Y-43819819D01*
X13244047Y-43819819D02*
X13053571Y-43819819D01*
X13053571Y-43819819D02*
X12958333Y-43772200D01*
X12958333Y-43772200D02*
X12910714Y-43724580D01*
X12910714Y-43724580D02*
X12863095Y-43629342D01*
X12863095Y-43629342D02*
X12863095Y-43438866D01*
X12863095Y-43438866D02*
X12910714Y-43343628D01*
X12910714Y-43343628D02*
X12958333Y-43296009D01*
X12958333Y-43296009D02*
X13053571Y-43248390D01*
X72967857Y-18459819D02*
X73301190Y-17983628D01*
X73539285Y-18459819D02*
X73539285Y-17459819D01*
X73539285Y-17459819D02*
X73158333Y-17459819D01*
X73158333Y-17459819D02*
X73063095Y-17507438D01*
X73063095Y-17507438D02*
X73015476Y-17555057D01*
X73015476Y-17555057D02*
X72967857Y-17650295D01*
X72967857Y-17650295D02*
X72967857Y-17793152D01*
X72967857Y-17793152D02*
X73015476Y-17888390D01*
X73015476Y-17888390D02*
X73063095Y-17936009D01*
X73063095Y-17936009D02*
X73158333Y-17983628D01*
X73158333Y-17983628D02*
X73539285Y-17983628D01*
X72586904Y-17555057D02*
X72539285Y-17507438D01*
X72539285Y-17507438D02*
X72444047Y-17459819D01*
X72444047Y-17459819D02*
X72205952Y-17459819D01*
X72205952Y-17459819D02*
X72110714Y-17507438D01*
X72110714Y-17507438D02*
X72063095Y-17555057D01*
X72063095Y-17555057D02*
X72015476Y-17650295D01*
X72015476Y-17650295D02*
X72015476Y-17745533D01*
X72015476Y-17745533D02*
X72063095Y-17888390D01*
X72063095Y-17888390D02*
X72634523Y-18459819D01*
X72634523Y-18459819D02*
X72015476Y-18459819D01*
X71396428Y-17459819D02*
X71301190Y-17459819D01*
X71301190Y-17459819D02*
X71205952Y-17507438D01*
X71205952Y-17507438D02*
X71158333Y-17555057D01*
X71158333Y-17555057D02*
X71110714Y-17650295D01*
X71110714Y-17650295D02*
X71063095Y-17840771D01*
X71063095Y-17840771D02*
X71063095Y-18078866D01*
X71063095Y-18078866D02*
X71110714Y-18269342D01*
X71110714Y-18269342D02*
X71158333Y-18364580D01*
X71158333Y-18364580D02*
X71205952Y-18412200D01*
X71205952Y-18412200D02*
X71301190Y-18459819D01*
X71301190Y-18459819D02*
X71396428Y-18459819D01*
X71396428Y-18459819D02*
X71491666Y-18412200D01*
X71491666Y-18412200D02*
X71539285Y-18364580D01*
X71539285Y-18364580D02*
X71586904Y-18269342D01*
X71586904Y-18269342D02*
X71634523Y-18078866D01*
X71634523Y-18078866D02*
X71634523Y-17840771D01*
X71634523Y-17840771D02*
X71586904Y-17650295D01*
X71586904Y-17650295D02*
X71539285Y-17555057D01*
X71539285Y-17555057D02*
X71491666Y-17507438D01*
X71491666Y-17507438D02*
X71396428Y-17459819D01*
X27119580Y-20457142D02*
X27167200Y-20409523D01*
X27167200Y-20409523D02*
X27214819Y-20266666D01*
X27214819Y-20266666D02*
X27214819Y-20171428D01*
X27214819Y-20171428D02*
X27167200Y-20028571D01*
X27167200Y-20028571D02*
X27071961Y-19933333D01*
X27071961Y-19933333D02*
X26976723Y-19885714D01*
X26976723Y-19885714D02*
X26786247Y-19838095D01*
X26786247Y-19838095D02*
X26643390Y-19838095D01*
X26643390Y-19838095D02*
X26452914Y-19885714D01*
X26452914Y-19885714D02*
X26357676Y-19933333D01*
X26357676Y-19933333D02*
X26262438Y-20028571D01*
X26262438Y-20028571D02*
X26214819Y-20171428D01*
X26214819Y-20171428D02*
X26214819Y-20266666D01*
X26214819Y-20266666D02*
X26262438Y-20409523D01*
X26262438Y-20409523D02*
X26310057Y-20457142D01*
X26214819Y-20790476D02*
X26214819Y-21457142D01*
X26214819Y-21457142D02*
X27214819Y-21028571D01*
X26548152Y-22266666D02*
X27214819Y-22266666D01*
X26167200Y-22028571D02*
X26881485Y-21790476D01*
X26881485Y-21790476D02*
X26881485Y-22409523D01*
X17324580Y-43937142D02*
X17372200Y-43889523D01*
X17372200Y-43889523D02*
X17419819Y-43746666D01*
X17419819Y-43746666D02*
X17419819Y-43651428D01*
X17419819Y-43651428D02*
X17372200Y-43508571D01*
X17372200Y-43508571D02*
X17276961Y-43413333D01*
X17276961Y-43413333D02*
X17181723Y-43365714D01*
X17181723Y-43365714D02*
X16991247Y-43318095D01*
X16991247Y-43318095D02*
X16848390Y-43318095D01*
X16848390Y-43318095D02*
X16657914Y-43365714D01*
X16657914Y-43365714D02*
X16562676Y-43413333D01*
X16562676Y-43413333D02*
X16467438Y-43508571D01*
X16467438Y-43508571D02*
X16419819Y-43651428D01*
X16419819Y-43651428D02*
X16419819Y-43746666D01*
X16419819Y-43746666D02*
X16467438Y-43889523D01*
X16467438Y-43889523D02*
X16515057Y-43937142D01*
X16419819Y-44270476D02*
X16419819Y-44937142D01*
X16419819Y-44937142D02*
X17419819Y-44508571D01*
X16419819Y-45222857D02*
X16419819Y-45889523D01*
X16419819Y-45889523D02*
X17419819Y-45460952D01*
X27919580Y-45457142D02*
X27967200Y-45409523D01*
X27967200Y-45409523D02*
X28014819Y-45266666D01*
X28014819Y-45266666D02*
X28014819Y-45171428D01*
X28014819Y-45171428D02*
X27967200Y-45028571D01*
X27967200Y-45028571D02*
X27871961Y-44933333D01*
X27871961Y-44933333D02*
X27776723Y-44885714D01*
X27776723Y-44885714D02*
X27586247Y-44838095D01*
X27586247Y-44838095D02*
X27443390Y-44838095D01*
X27443390Y-44838095D02*
X27252914Y-44885714D01*
X27252914Y-44885714D02*
X27157676Y-44933333D01*
X27157676Y-44933333D02*
X27062438Y-45028571D01*
X27062438Y-45028571D02*
X27014819Y-45171428D01*
X27014819Y-45171428D02*
X27014819Y-45266666D01*
X27014819Y-45266666D02*
X27062438Y-45409523D01*
X27062438Y-45409523D02*
X27110057Y-45457142D01*
X27014819Y-46314285D02*
X27014819Y-46123809D01*
X27014819Y-46123809D02*
X27062438Y-46028571D01*
X27062438Y-46028571D02*
X27110057Y-45980952D01*
X27110057Y-45980952D02*
X27252914Y-45885714D01*
X27252914Y-45885714D02*
X27443390Y-45838095D01*
X27443390Y-45838095D02*
X27824342Y-45838095D01*
X27824342Y-45838095D02*
X27919580Y-45885714D01*
X27919580Y-45885714D02*
X27967200Y-45933333D01*
X27967200Y-45933333D02*
X28014819Y-46028571D01*
X28014819Y-46028571D02*
X28014819Y-46219047D01*
X28014819Y-46219047D02*
X27967200Y-46314285D01*
X27967200Y-46314285D02*
X27919580Y-46361904D01*
X27919580Y-46361904D02*
X27824342Y-46409523D01*
X27824342Y-46409523D02*
X27586247Y-46409523D01*
X27586247Y-46409523D02*
X27491009Y-46361904D01*
X27491009Y-46361904D02*
X27443390Y-46314285D01*
X27443390Y-46314285D02*
X27395771Y-46219047D01*
X27395771Y-46219047D02*
X27395771Y-46028571D01*
X27395771Y-46028571D02*
X27443390Y-45933333D01*
X27443390Y-45933333D02*
X27491009Y-45885714D01*
X27491009Y-45885714D02*
X27586247Y-45838095D01*
X28014819Y-46885714D02*
X28014819Y-47076190D01*
X28014819Y-47076190D02*
X27967200Y-47171428D01*
X27967200Y-47171428D02*
X27919580Y-47219047D01*
X27919580Y-47219047D02*
X27776723Y-47314285D01*
X27776723Y-47314285D02*
X27586247Y-47361904D01*
X27586247Y-47361904D02*
X27205295Y-47361904D01*
X27205295Y-47361904D02*
X27110057Y-47314285D01*
X27110057Y-47314285D02*
X27062438Y-47266666D01*
X27062438Y-47266666D02*
X27014819Y-47171428D01*
X27014819Y-47171428D02*
X27014819Y-46980952D01*
X27014819Y-46980952D02*
X27062438Y-46885714D01*
X27062438Y-46885714D02*
X27110057Y-46838095D01*
X27110057Y-46838095D02*
X27205295Y-46790476D01*
X27205295Y-46790476D02*
X27443390Y-46790476D01*
X27443390Y-46790476D02*
X27538628Y-46838095D01*
X27538628Y-46838095D02*
X27586247Y-46885714D01*
X27586247Y-46885714D02*
X27633866Y-46980952D01*
X27633866Y-46980952D02*
X27633866Y-47171428D01*
X27633866Y-47171428D02*
X27586247Y-47266666D01*
X27586247Y-47266666D02*
X27538628Y-47314285D01*
X27538628Y-47314285D02*
X27443390Y-47361904D01*
X17526190Y-25403628D02*
X17526190Y-25879819D01*
X17859523Y-24879819D02*
X17526190Y-25403628D01*
X17526190Y-25403628D02*
X17192857Y-24879819D01*
X16954761Y-24879819D02*
X16335714Y-24879819D01*
X16335714Y-24879819D02*
X16669047Y-25260771D01*
X16669047Y-25260771D02*
X16526190Y-25260771D01*
X16526190Y-25260771D02*
X16430952Y-25308390D01*
X16430952Y-25308390D02*
X16383333Y-25356009D01*
X16383333Y-25356009D02*
X16335714Y-25451247D01*
X16335714Y-25451247D02*
X16335714Y-25689342D01*
X16335714Y-25689342D02*
X16383333Y-25784580D01*
X16383333Y-25784580D02*
X16430952Y-25832200D01*
X16430952Y-25832200D02*
X16526190Y-25879819D01*
X16526190Y-25879819D02*
X16811904Y-25879819D01*
X16811904Y-25879819D02*
X16907142Y-25832200D01*
X16907142Y-25832200D02*
X16954761Y-25784580D01*
X35167857Y-15174819D02*
X35501190Y-14698628D01*
X35739285Y-15174819D02*
X35739285Y-14174819D01*
X35739285Y-14174819D02*
X35358333Y-14174819D01*
X35358333Y-14174819D02*
X35263095Y-14222438D01*
X35263095Y-14222438D02*
X35215476Y-14270057D01*
X35215476Y-14270057D02*
X35167857Y-14365295D01*
X35167857Y-14365295D02*
X35167857Y-14508152D01*
X35167857Y-14508152D02*
X35215476Y-14603390D01*
X35215476Y-14603390D02*
X35263095Y-14651009D01*
X35263095Y-14651009D02*
X35358333Y-14698628D01*
X35358333Y-14698628D02*
X35739285Y-14698628D01*
X34834523Y-14174819D02*
X34215476Y-14174819D01*
X34215476Y-14174819D02*
X34548809Y-14555771D01*
X34548809Y-14555771D02*
X34405952Y-14555771D01*
X34405952Y-14555771D02*
X34310714Y-14603390D01*
X34310714Y-14603390D02*
X34263095Y-14651009D01*
X34263095Y-14651009D02*
X34215476Y-14746247D01*
X34215476Y-14746247D02*
X34215476Y-14984342D01*
X34215476Y-14984342D02*
X34263095Y-15079580D01*
X34263095Y-15079580D02*
X34310714Y-15127200D01*
X34310714Y-15127200D02*
X34405952Y-15174819D01*
X34405952Y-15174819D02*
X34691666Y-15174819D01*
X34691666Y-15174819D02*
X34786904Y-15127200D01*
X34786904Y-15127200D02*
X34834523Y-15079580D01*
X33358333Y-14508152D02*
X33358333Y-15174819D01*
X33596428Y-14127200D02*
X33834523Y-14841485D01*
X33834523Y-14841485D02*
X33215476Y-14841485D01*
X72967857Y-28409819D02*
X73301190Y-27933628D01*
X73539285Y-28409819D02*
X73539285Y-27409819D01*
X73539285Y-27409819D02*
X73158333Y-27409819D01*
X73158333Y-27409819D02*
X73063095Y-27457438D01*
X73063095Y-27457438D02*
X73015476Y-27505057D01*
X73015476Y-27505057D02*
X72967857Y-27600295D01*
X72967857Y-27600295D02*
X72967857Y-27743152D01*
X72967857Y-27743152D02*
X73015476Y-27838390D01*
X73015476Y-27838390D02*
X73063095Y-27886009D01*
X73063095Y-27886009D02*
X73158333Y-27933628D01*
X73158333Y-27933628D02*
X73539285Y-27933628D01*
X72634523Y-27409819D02*
X72015476Y-27409819D01*
X72015476Y-27409819D02*
X72348809Y-27790771D01*
X72348809Y-27790771D02*
X72205952Y-27790771D01*
X72205952Y-27790771D02*
X72110714Y-27838390D01*
X72110714Y-27838390D02*
X72063095Y-27886009D01*
X72063095Y-27886009D02*
X72015476Y-27981247D01*
X72015476Y-27981247D02*
X72015476Y-28219342D01*
X72015476Y-28219342D02*
X72063095Y-28314580D01*
X72063095Y-28314580D02*
X72110714Y-28362200D01*
X72110714Y-28362200D02*
X72205952Y-28409819D01*
X72205952Y-28409819D02*
X72491666Y-28409819D01*
X72491666Y-28409819D02*
X72586904Y-28362200D01*
X72586904Y-28362200D02*
X72634523Y-28314580D01*
X71158333Y-27409819D02*
X71348809Y-27409819D01*
X71348809Y-27409819D02*
X71444047Y-27457438D01*
X71444047Y-27457438D02*
X71491666Y-27505057D01*
X71491666Y-27505057D02*
X71586904Y-27647914D01*
X71586904Y-27647914D02*
X71634523Y-27838390D01*
X71634523Y-27838390D02*
X71634523Y-28219342D01*
X71634523Y-28219342D02*
X71586904Y-28314580D01*
X71586904Y-28314580D02*
X71539285Y-28362200D01*
X71539285Y-28362200D02*
X71444047Y-28409819D01*
X71444047Y-28409819D02*
X71253571Y-28409819D01*
X71253571Y-28409819D02*
X71158333Y-28362200D01*
X71158333Y-28362200D02*
X71110714Y-28314580D01*
X71110714Y-28314580D02*
X71063095Y-28219342D01*
X71063095Y-28219342D02*
X71063095Y-27981247D01*
X71063095Y-27981247D02*
X71110714Y-27886009D01*
X71110714Y-27886009D02*
X71158333Y-27838390D01*
X71158333Y-27838390D02*
X71253571Y-27790771D01*
X71253571Y-27790771D02*
X71444047Y-27790771D01*
X71444047Y-27790771D02*
X71539285Y-27838390D01*
X71539285Y-27838390D02*
X71586904Y-27886009D01*
X71586904Y-27886009D02*
X71634523Y-27981247D01*
X55907857Y-7459819D02*
X56241190Y-6983628D01*
X56479285Y-7459819D02*
X56479285Y-6459819D01*
X56479285Y-6459819D02*
X56098333Y-6459819D01*
X56098333Y-6459819D02*
X56003095Y-6507438D01*
X56003095Y-6507438D02*
X55955476Y-6555057D01*
X55955476Y-6555057D02*
X55907857Y-6650295D01*
X55907857Y-6650295D02*
X55907857Y-6793152D01*
X55907857Y-6793152D02*
X55955476Y-6888390D01*
X55955476Y-6888390D02*
X56003095Y-6936009D01*
X56003095Y-6936009D02*
X56098333Y-6983628D01*
X56098333Y-6983628D02*
X56479285Y-6983628D01*
X55050714Y-6793152D02*
X55050714Y-7459819D01*
X55288809Y-6412200D02*
X55526904Y-7126485D01*
X55526904Y-7126485D02*
X54907857Y-7126485D01*
X54003095Y-7459819D02*
X54574523Y-7459819D01*
X54288809Y-7459819D02*
X54288809Y-6459819D01*
X54288809Y-6459819D02*
X54384047Y-6602676D01*
X54384047Y-6602676D02*
X54479285Y-6697914D01*
X54479285Y-6697914D02*
X54574523Y-6745533D01*
X54482857Y-31259819D02*
X54816190Y-30783628D01*
X55054285Y-31259819D02*
X55054285Y-30259819D01*
X55054285Y-30259819D02*
X54673333Y-30259819D01*
X54673333Y-30259819D02*
X54578095Y-30307438D01*
X54578095Y-30307438D02*
X54530476Y-30355057D01*
X54530476Y-30355057D02*
X54482857Y-30450295D01*
X54482857Y-30450295D02*
X54482857Y-30593152D01*
X54482857Y-30593152D02*
X54530476Y-30688390D01*
X54530476Y-30688390D02*
X54578095Y-30736009D01*
X54578095Y-30736009D02*
X54673333Y-30783628D01*
X54673333Y-30783628D02*
X55054285Y-30783628D01*
X54149523Y-30259819D02*
X53530476Y-30259819D01*
X53530476Y-30259819D02*
X53863809Y-30640771D01*
X53863809Y-30640771D02*
X53720952Y-30640771D01*
X53720952Y-30640771D02*
X53625714Y-30688390D01*
X53625714Y-30688390D02*
X53578095Y-30736009D01*
X53578095Y-30736009D02*
X53530476Y-30831247D01*
X53530476Y-30831247D02*
X53530476Y-31069342D01*
X53530476Y-31069342D02*
X53578095Y-31164580D01*
X53578095Y-31164580D02*
X53625714Y-31212200D01*
X53625714Y-31212200D02*
X53720952Y-31259819D01*
X53720952Y-31259819D02*
X54006666Y-31259819D01*
X54006666Y-31259819D02*
X54101904Y-31212200D01*
X54101904Y-31212200D02*
X54149523Y-31164580D01*
X52578095Y-31259819D02*
X53149523Y-31259819D01*
X52863809Y-31259819D02*
X52863809Y-30259819D01*
X52863809Y-30259819D02*
X52959047Y-30402676D01*
X52959047Y-30402676D02*
X53054285Y-30497914D01*
X53054285Y-30497914D02*
X53149523Y-30545533D01*
X23849580Y-20457142D02*
X23897200Y-20409523D01*
X23897200Y-20409523D02*
X23944819Y-20266666D01*
X23944819Y-20266666D02*
X23944819Y-20171428D01*
X23944819Y-20171428D02*
X23897200Y-20028571D01*
X23897200Y-20028571D02*
X23801961Y-19933333D01*
X23801961Y-19933333D02*
X23706723Y-19885714D01*
X23706723Y-19885714D02*
X23516247Y-19838095D01*
X23516247Y-19838095D02*
X23373390Y-19838095D01*
X23373390Y-19838095D02*
X23182914Y-19885714D01*
X23182914Y-19885714D02*
X23087676Y-19933333D01*
X23087676Y-19933333D02*
X22992438Y-20028571D01*
X22992438Y-20028571D02*
X22944819Y-20171428D01*
X22944819Y-20171428D02*
X22944819Y-20266666D01*
X22944819Y-20266666D02*
X22992438Y-20409523D01*
X22992438Y-20409523D02*
X23040057Y-20457142D01*
X22944819Y-20790476D02*
X22944819Y-21457142D01*
X22944819Y-21457142D02*
X23944819Y-21028571D01*
X22944819Y-21742857D02*
X22944819Y-22361904D01*
X22944819Y-22361904D02*
X23325771Y-22028571D01*
X23325771Y-22028571D02*
X23325771Y-22171428D01*
X23325771Y-22171428D02*
X23373390Y-22266666D01*
X23373390Y-22266666D02*
X23421009Y-22314285D01*
X23421009Y-22314285D02*
X23516247Y-22361904D01*
X23516247Y-22361904D02*
X23754342Y-22361904D01*
X23754342Y-22361904D02*
X23849580Y-22314285D01*
X23849580Y-22314285D02*
X23897200Y-22266666D01*
X23897200Y-22266666D02*
X23944819Y-22171428D01*
X23944819Y-22171428D02*
X23944819Y-21885714D01*
X23944819Y-21885714D02*
X23897200Y-21790476D01*
X23897200Y-21790476D02*
X23849580Y-21742857D01*
X35207857Y-17099819D02*
X35541190Y-16623628D01*
X35779285Y-17099819D02*
X35779285Y-16099819D01*
X35779285Y-16099819D02*
X35398333Y-16099819D01*
X35398333Y-16099819D02*
X35303095Y-16147438D01*
X35303095Y-16147438D02*
X35255476Y-16195057D01*
X35255476Y-16195057D02*
X35207857Y-16290295D01*
X35207857Y-16290295D02*
X35207857Y-16433152D01*
X35207857Y-16433152D02*
X35255476Y-16528390D01*
X35255476Y-16528390D02*
X35303095Y-16576009D01*
X35303095Y-16576009D02*
X35398333Y-16623628D01*
X35398333Y-16623628D02*
X35779285Y-16623628D01*
X34874523Y-16099819D02*
X34255476Y-16099819D01*
X34255476Y-16099819D02*
X34588809Y-16480771D01*
X34588809Y-16480771D02*
X34445952Y-16480771D01*
X34445952Y-16480771D02*
X34350714Y-16528390D01*
X34350714Y-16528390D02*
X34303095Y-16576009D01*
X34303095Y-16576009D02*
X34255476Y-16671247D01*
X34255476Y-16671247D02*
X34255476Y-16909342D01*
X34255476Y-16909342D02*
X34303095Y-17004580D01*
X34303095Y-17004580D02*
X34350714Y-17052200D01*
X34350714Y-17052200D02*
X34445952Y-17099819D01*
X34445952Y-17099819D02*
X34731666Y-17099819D01*
X34731666Y-17099819D02*
X34826904Y-17052200D01*
X34826904Y-17052200D02*
X34874523Y-17004580D01*
X33874523Y-16195057D02*
X33826904Y-16147438D01*
X33826904Y-16147438D02*
X33731666Y-16099819D01*
X33731666Y-16099819D02*
X33493571Y-16099819D01*
X33493571Y-16099819D02*
X33398333Y-16147438D01*
X33398333Y-16147438D02*
X33350714Y-16195057D01*
X33350714Y-16195057D02*
X33303095Y-16290295D01*
X33303095Y-16290295D02*
X33303095Y-16385533D01*
X33303095Y-16385533D02*
X33350714Y-16528390D01*
X33350714Y-16528390D02*
X33922142Y-17099819D01*
X33922142Y-17099819D02*
X33303095Y-17099819D01*
X14742857Y-41939819D02*
X15076190Y-41463628D01*
X15314285Y-41939819D02*
X15314285Y-40939819D01*
X15314285Y-40939819D02*
X14933333Y-40939819D01*
X14933333Y-40939819D02*
X14838095Y-40987438D01*
X14838095Y-40987438D02*
X14790476Y-41035057D01*
X14790476Y-41035057D02*
X14742857Y-41130295D01*
X14742857Y-41130295D02*
X14742857Y-41273152D01*
X14742857Y-41273152D02*
X14790476Y-41368390D01*
X14790476Y-41368390D02*
X14838095Y-41416009D01*
X14838095Y-41416009D02*
X14933333Y-41463628D01*
X14933333Y-41463628D02*
X15314285Y-41463628D01*
X13885714Y-41273152D02*
X13885714Y-41939819D01*
X14123809Y-40892200D02*
X14361904Y-41606485D01*
X14361904Y-41606485D02*
X13742857Y-41606485D01*
X12933333Y-40939819D02*
X13123809Y-40939819D01*
X13123809Y-40939819D02*
X13219047Y-40987438D01*
X13219047Y-40987438D02*
X13266666Y-41035057D01*
X13266666Y-41035057D02*
X13361904Y-41177914D01*
X13361904Y-41177914D02*
X13409523Y-41368390D01*
X13409523Y-41368390D02*
X13409523Y-41749342D01*
X13409523Y-41749342D02*
X13361904Y-41844580D01*
X13361904Y-41844580D02*
X13314285Y-41892200D01*
X13314285Y-41892200D02*
X13219047Y-41939819D01*
X13219047Y-41939819D02*
X13028571Y-41939819D01*
X13028571Y-41939819D02*
X12933333Y-41892200D01*
X12933333Y-41892200D02*
X12885714Y-41844580D01*
X12885714Y-41844580D02*
X12838095Y-41749342D01*
X12838095Y-41749342D02*
X12838095Y-41511247D01*
X12838095Y-41511247D02*
X12885714Y-41416009D01*
X12885714Y-41416009D02*
X12933333Y-41368390D01*
X12933333Y-41368390D02*
X13028571Y-41320771D01*
X13028571Y-41320771D02*
X13219047Y-41320771D01*
X13219047Y-41320771D02*
X13314285Y-41368390D01*
X13314285Y-41368390D02*
X13361904Y-41416009D01*
X13361904Y-41416009D02*
X13409523Y-41511247D01*
X79457857Y-5584819D02*
X79791190Y-5108628D01*
X80029285Y-5584819D02*
X80029285Y-4584819D01*
X80029285Y-4584819D02*
X79648333Y-4584819D01*
X79648333Y-4584819D02*
X79553095Y-4632438D01*
X79553095Y-4632438D02*
X79505476Y-4680057D01*
X79505476Y-4680057D02*
X79457857Y-4775295D01*
X79457857Y-4775295D02*
X79457857Y-4918152D01*
X79457857Y-4918152D02*
X79505476Y-5013390D01*
X79505476Y-5013390D02*
X79553095Y-5061009D01*
X79553095Y-5061009D02*
X79648333Y-5108628D01*
X79648333Y-5108628D02*
X80029285Y-5108628D01*
X78553095Y-4584819D02*
X79029285Y-4584819D01*
X79029285Y-4584819D02*
X79076904Y-5061009D01*
X79076904Y-5061009D02*
X79029285Y-5013390D01*
X79029285Y-5013390D02*
X78934047Y-4965771D01*
X78934047Y-4965771D02*
X78695952Y-4965771D01*
X78695952Y-4965771D02*
X78600714Y-5013390D01*
X78600714Y-5013390D02*
X78553095Y-5061009D01*
X78553095Y-5061009D02*
X78505476Y-5156247D01*
X78505476Y-5156247D02*
X78505476Y-5394342D01*
X78505476Y-5394342D02*
X78553095Y-5489580D01*
X78553095Y-5489580D02*
X78600714Y-5537200D01*
X78600714Y-5537200D02*
X78695952Y-5584819D01*
X78695952Y-5584819D02*
X78934047Y-5584819D01*
X78934047Y-5584819D02*
X79029285Y-5537200D01*
X79029285Y-5537200D02*
X79076904Y-5489580D01*
X77648333Y-4584819D02*
X77838809Y-4584819D01*
X77838809Y-4584819D02*
X77934047Y-4632438D01*
X77934047Y-4632438D02*
X77981666Y-4680057D01*
X77981666Y-4680057D02*
X78076904Y-4822914D01*
X78076904Y-4822914D02*
X78124523Y-5013390D01*
X78124523Y-5013390D02*
X78124523Y-5394342D01*
X78124523Y-5394342D02*
X78076904Y-5489580D01*
X78076904Y-5489580D02*
X78029285Y-5537200D01*
X78029285Y-5537200D02*
X77934047Y-5584819D01*
X77934047Y-5584819D02*
X77743571Y-5584819D01*
X77743571Y-5584819D02*
X77648333Y-5537200D01*
X77648333Y-5537200D02*
X77600714Y-5489580D01*
X77600714Y-5489580D02*
X77553095Y-5394342D01*
X77553095Y-5394342D02*
X77553095Y-5156247D01*
X77553095Y-5156247D02*
X77600714Y-5061009D01*
X77600714Y-5061009D02*
X77648333Y-5013390D01*
X77648333Y-5013390D02*
X77743571Y-4965771D01*
X77743571Y-4965771D02*
X77934047Y-4965771D01*
X77934047Y-4965771D02*
X78029285Y-5013390D01*
X78029285Y-5013390D02*
X78076904Y-5061009D01*
X78076904Y-5061009D02*
X78124523Y-5156247D01*
X16434819Y-30482142D02*
X15958628Y-30148809D01*
X16434819Y-29910714D02*
X15434819Y-29910714D01*
X15434819Y-29910714D02*
X15434819Y-30291666D01*
X15434819Y-30291666D02*
X15482438Y-30386904D01*
X15482438Y-30386904D02*
X15530057Y-30434523D01*
X15530057Y-30434523D02*
X15625295Y-30482142D01*
X15625295Y-30482142D02*
X15768152Y-30482142D01*
X15768152Y-30482142D02*
X15863390Y-30434523D01*
X15863390Y-30434523D02*
X15911009Y-30386904D01*
X15911009Y-30386904D02*
X15958628Y-30291666D01*
X15958628Y-30291666D02*
X15958628Y-29910714D01*
X15530057Y-30863095D02*
X15482438Y-30910714D01*
X15482438Y-30910714D02*
X15434819Y-31005952D01*
X15434819Y-31005952D02*
X15434819Y-31244047D01*
X15434819Y-31244047D02*
X15482438Y-31339285D01*
X15482438Y-31339285D02*
X15530057Y-31386904D01*
X15530057Y-31386904D02*
X15625295Y-31434523D01*
X15625295Y-31434523D02*
X15720533Y-31434523D01*
X15720533Y-31434523D02*
X15863390Y-31386904D01*
X15863390Y-31386904D02*
X16434819Y-30815476D01*
X16434819Y-30815476D02*
X16434819Y-31434523D01*
X15768152Y-32291666D02*
X16434819Y-32291666D01*
X15387200Y-32053571D02*
X16101485Y-31815476D01*
X16101485Y-31815476D02*
X16101485Y-32434523D01*
X76547857Y-3594819D02*
X76881190Y-3118628D01*
X77119285Y-3594819D02*
X77119285Y-2594819D01*
X77119285Y-2594819D02*
X76738333Y-2594819D01*
X76738333Y-2594819D02*
X76643095Y-2642438D01*
X76643095Y-2642438D02*
X76595476Y-2690057D01*
X76595476Y-2690057D02*
X76547857Y-2785295D01*
X76547857Y-2785295D02*
X76547857Y-2928152D01*
X76547857Y-2928152D02*
X76595476Y-3023390D01*
X76595476Y-3023390D02*
X76643095Y-3071009D01*
X76643095Y-3071009D02*
X76738333Y-3118628D01*
X76738333Y-3118628D02*
X77119285Y-3118628D01*
X75643095Y-2594819D02*
X76119285Y-2594819D01*
X76119285Y-2594819D02*
X76166904Y-3071009D01*
X76166904Y-3071009D02*
X76119285Y-3023390D01*
X76119285Y-3023390D02*
X76024047Y-2975771D01*
X76024047Y-2975771D02*
X75785952Y-2975771D01*
X75785952Y-2975771D02*
X75690714Y-3023390D01*
X75690714Y-3023390D02*
X75643095Y-3071009D01*
X75643095Y-3071009D02*
X75595476Y-3166247D01*
X75595476Y-3166247D02*
X75595476Y-3404342D01*
X75595476Y-3404342D02*
X75643095Y-3499580D01*
X75643095Y-3499580D02*
X75690714Y-3547200D01*
X75690714Y-3547200D02*
X75785952Y-3594819D01*
X75785952Y-3594819D02*
X76024047Y-3594819D01*
X76024047Y-3594819D02*
X76119285Y-3547200D01*
X76119285Y-3547200D02*
X76166904Y-3499580D01*
X74976428Y-2594819D02*
X74881190Y-2594819D01*
X74881190Y-2594819D02*
X74785952Y-2642438D01*
X74785952Y-2642438D02*
X74738333Y-2690057D01*
X74738333Y-2690057D02*
X74690714Y-2785295D01*
X74690714Y-2785295D02*
X74643095Y-2975771D01*
X74643095Y-2975771D02*
X74643095Y-3213866D01*
X74643095Y-3213866D02*
X74690714Y-3404342D01*
X74690714Y-3404342D02*
X74738333Y-3499580D01*
X74738333Y-3499580D02*
X74785952Y-3547200D01*
X74785952Y-3547200D02*
X74881190Y-3594819D01*
X74881190Y-3594819D02*
X74976428Y-3594819D01*
X74976428Y-3594819D02*
X75071666Y-3547200D01*
X75071666Y-3547200D02*
X75119285Y-3499580D01*
X75119285Y-3499580D02*
X75166904Y-3404342D01*
X75166904Y-3404342D02*
X75214523Y-3213866D01*
X75214523Y-3213866D02*
X75214523Y-2975771D01*
X75214523Y-2975771D02*
X75166904Y-2785295D01*
X75166904Y-2785295D02*
X75119285Y-2690057D01*
X75119285Y-2690057D02*
X75071666Y-2642438D01*
X75071666Y-2642438D02*
X74976428Y-2594819D01*
X35674819Y-16357142D02*
X35198628Y-16023809D01*
X35674819Y-15785714D02*
X34674819Y-15785714D01*
X34674819Y-15785714D02*
X34674819Y-16166666D01*
X34674819Y-16166666D02*
X34722438Y-16261904D01*
X34722438Y-16261904D02*
X34770057Y-16309523D01*
X34770057Y-16309523D02*
X34865295Y-16357142D01*
X34865295Y-16357142D02*
X35008152Y-16357142D01*
X35008152Y-16357142D02*
X35103390Y-16309523D01*
X35103390Y-16309523D02*
X35151009Y-16261904D01*
X35151009Y-16261904D02*
X35198628Y-16166666D01*
X35198628Y-16166666D02*
X35198628Y-15785714D01*
X34770057Y-16738095D02*
X34722438Y-16785714D01*
X34722438Y-16785714D02*
X34674819Y-16880952D01*
X34674819Y-16880952D02*
X34674819Y-17119047D01*
X34674819Y-17119047D02*
X34722438Y-17214285D01*
X34722438Y-17214285D02*
X34770057Y-17261904D01*
X34770057Y-17261904D02*
X34865295Y-17309523D01*
X34865295Y-17309523D02*
X34960533Y-17309523D01*
X34960533Y-17309523D02*
X35103390Y-17261904D01*
X35103390Y-17261904D02*
X35674819Y-16690476D01*
X35674819Y-16690476D02*
X35674819Y-17309523D01*
X34674819Y-18214285D02*
X34674819Y-17738095D01*
X34674819Y-17738095D02*
X35151009Y-17690476D01*
X35151009Y-17690476D02*
X35103390Y-17738095D01*
X35103390Y-17738095D02*
X35055771Y-17833333D01*
X35055771Y-17833333D02*
X35055771Y-18071428D01*
X35055771Y-18071428D02*
X35103390Y-18166666D01*
X35103390Y-18166666D02*
X35151009Y-18214285D01*
X35151009Y-18214285D02*
X35246247Y-18261904D01*
X35246247Y-18261904D02*
X35484342Y-18261904D01*
X35484342Y-18261904D02*
X35579580Y-18214285D01*
X35579580Y-18214285D02*
X35627200Y-18166666D01*
X35627200Y-18166666D02*
X35674819Y-18071428D01*
X35674819Y-18071428D02*
X35674819Y-17833333D01*
X35674819Y-17833333D02*
X35627200Y-17738095D01*
X35627200Y-17738095D02*
X35579580Y-17690476D01*
X14742857Y-39079819D02*
X15076190Y-38603628D01*
X15314285Y-39079819D02*
X15314285Y-38079819D01*
X15314285Y-38079819D02*
X14933333Y-38079819D01*
X14933333Y-38079819D02*
X14838095Y-38127438D01*
X14838095Y-38127438D02*
X14790476Y-38175057D01*
X14790476Y-38175057D02*
X14742857Y-38270295D01*
X14742857Y-38270295D02*
X14742857Y-38413152D01*
X14742857Y-38413152D02*
X14790476Y-38508390D01*
X14790476Y-38508390D02*
X14838095Y-38556009D01*
X14838095Y-38556009D02*
X14933333Y-38603628D01*
X14933333Y-38603628D02*
X15314285Y-38603628D01*
X14409523Y-38079819D02*
X13790476Y-38079819D01*
X13790476Y-38079819D02*
X14123809Y-38460771D01*
X14123809Y-38460771D02*
X13980952Y-38460771D01*
X13980952Y-38460771D02*
X13885714Y-38508390D01*
X13885714Y-38508390D02*
X13838095Y-38556009D01*
X13838095Y-38556009D02*
X13790476Y-38651247D01*
X13790476Y-38651247D02*
X13790476Y-38889342D01*
X13790476Y-38889342D02*
X13838095Y-38984580D01*
X13838095Y-38984580D02*
X13885714Y-39032200D01*
X13885714Y-39032200D02*
X13980952Y-39079819D01*
X13980952Y-39079819D02*
X14266666Y-39079819D01*
X14266666Y-39079819D02*
X14361904Y-39032200D01*
X14361904Y-39032200D02*
X14409523Y-38984580D01*
X13314285Y-39079819D02*
X13123809Y-39079819D01*
X13123809Y-39079819D02*
X13028571Y-39032200D01*
X13028571Y-39032200D02*
X12980952Y-38984580D01*
X12980952Y-38984580D02*
X12885714Y-38841723D01*
X12885714Y-38841723D02*
X12838095Y-38651247D01*
X12838095Y-38651247D02*
X12838095Y-38270295D01*
X12838095Y-38270295D02*
X12885714Y-38175057D01*
X12885714Y-38175057D02*
X12933333Y-38127438D01*
X12933333Y-38127438D02*
X13028571Y-38079819D01*
X13028571Y-38079819D02*
X13219047Y-38079819D01*
X13219047Y-38079819D02*
X13314285Y-38127438D01*
X13314285Y-38127438D02*
X13361904Y-38175057D01*
X13361904Y-38175057D02*
X13409523Y-38270295D01*
X13409523Y-38270295D02*
X13409523Y-38508390D01*
X13409523Y-38508390D02*
X13361904Y-38603628D01*
X13361904Y-38603628D02*
X13314285Y-38651247D01*
X13314285Y-38651247D02*
X13219047Y-38698866D01*
X13219047Y-38698866D02*
X13028571Y-38698866D01*
X13028571Y-38698866D02*
X12933333Y-38651247D01*
X12933333Y-38651247D02*
X12885714Y-38603628D01*
X12885714Y-38603628D02*
X12838095Y-38508390D01*
X14732857Y-40029819D02*
X15066190Y-39553628D01*
X15304285Y-40029819D02*
X15304285Y-39029819D01*
X15304285Y-39029819D02*
X14923333Y-39029819D01*
X14923333Y-39029819D02*
X14828095Y-39077438D01*
X14828095Y-39077438D02*
X14780476Y-39125057D01*
X14780476Y-39125057D02*
X14732857Y-39220295D01*
X14732857Y-39220295D02*
X14732857Y-39363152D01*
X14732857Y-39363152D02*
X14780476Y-39458390D01*
X14780476Y-39458390D02*
X14828095Y-39506009D01*
X14828095Y-39506009D02*
X14923333Y-39553628D01*
X14923333Y-39553628D02*
X15304285Y-39553628D01*
X13875714Y-39363152D02*
X13875714Y-40029819D01*
X14113809Y-38982200D02*
X14351904Y-39696485D01*
X14351904Y-39696485D02*
X13732857Y-39696485D01*
X12923333Y-39363152D02*
X12923333Y-40029819D01*
X13161428Y-38982200D02*
X13399523Y-39696485D01*
X13399523Y-39696485D02*
X12780476Y-39696485D01*
X6777857Y-6264819D02*
X7111190Y-5788628D01*
X7349285Y-6264819D02*
X7349285Y-5264819D01*
X7349285Y-5264819D02*
X6968333Y-5264819D01*
X6968333Y-5264819D02*
X6873095Y-5312438D01*
X6873095Y-5312438D02*
X6825476Y-5360057D01*
X6825476Y-5360057D02*
X6777857Y-5455295D01*
X6777857Y-5455295D02*
X6777857Y-5598152D01*
X6777857Y-5598152D02*
X6825476Y-5693390D01*
X6825476Y-5693390D02*
X6873095Y-5741009D01*
X6873095Y-5741009D02*
X6968333Y-5788628D01*
X6968333Y-5788628D02*
X7349285Y-5788628D01*
X6396904Y-5360057D02*
X6349285Y-5312438D01*
X6349285Y-5312438D02*
X6254047Y-5264819D01*
X6254047Y-5264819D02*
X6015952Y-5264819D01*
X6015952Y-5264819D02*
X5920714Y-5312438D01*
X5920714Y-5312438D02*
X5873095Y-5360057D01*
X5873095Y-5360057D02*
X5825476Y-5455295D01*
X5825476Y-5455295D02*
X5825476Y-5550533D01*
X5825476Y-5550533D02*
X5873095Y-5693390D01*
X5873095Y-5693390D02*
X6444523Y-6264819D01*
X6444523Y-6264819D02*
X5825476Y-6264819D01*
X5254047Y-5693390D02*
X5349285Y-5645771D01*
X5349285Y-5645771D02*
X5396904Y-5598152D01*
X5396904Y-5598152D02*
X5444523Y-5502914D01*
X5444523Y-5502914D02*
X5444523Y-5455295D01*
X5444523Y-5455295D02*
X5396904Y-5360057D01*
X5396904Y-5360057D02*
X5349285Y-5312438D01*
X5349285Y-5312438D02*
X5254047Y-5264819D01*
X5254047Y-5264819D02*
X5063571Y-5264819D01*
X5063571Y-5264819D02*
X4968333Y-5312438D01*
X4968333Y-5312438D02*
X4920714Y-5360057D01*
X4920714Y-5360057D02*
X4873095Y-5455295D01*
X4873095Y-5455295D02*
X4873095Y-5502914D01*
X4873095Y-5502914D02*
X4920714Y-5598152D01*
X4920714Y-5598152D02*
X4968333Y-5645771D01*
X4968333Y-5645771D02*
X5063571Y-5693390D01*
X5063571Y-5693390D02*
X5254047Y-5693390D01*
X5254047Y-5693390D02*
X5349285Y-5741009D01*
X5349285Y-5741009D02*
X5396904Y-5788628D01*
X5396904Y-5788628D02*
X5444523Y-5883866D01*
X5444523Y-5883866D02*
X5444523Y-6074342D01*
X5444523Y-6074342D02*
X5396904Y-6169580D01*
X5396904Y-6169580D02*
X5349285Y-6217200D01*
X5349285Y-6217200D02*
X5254047Y-6264819D01*
X5254047Y-6264819D02*
X5063571Y-6264819D01*
X5063571Y-6264819D02*
X4968333Y-6217200D01*
X4968333Y-6217200D02*
X4920714Y-6169580D01*
X4920714Y-6169580D02*
X4873095Y-6074342D01*
X4873095Y-6074342D02*
X4873095Y-5883866D01*
X4873095Y-5883866D02*
X4920714Y-5788628D01*
X4920714Y-5788628D02*
X4968333Y-5741009D01*
X4968333Y-5741009D02*
X5063571Y-5693390D01*
X16517857Y-37744580D02*
X16565476Y-37792200D01*
X16565476Y-37792200D02*
X16708333Y-37839819D01*
X16708333Y-37839819D02*
X16803571Y-37839819D01*
X16803571Y-37839819D02*
X16946428Y-37792200D01*
X16946428Y-37792200D02*
X17041666Y-37696961D01*
X17041666Y-37696961D02*
X17089285Y-37601723D01*
X17089285Y-37601723D02*
X17136904Y-37411247D01*
X17136904Y-37411247D02*
X17136904Y-37268390D01*
X17136904Y-37268390D02*
X17089285Y-37077914D01*
X17089285Y-37077914D02*
X17041666Y-36982676D01*
X17041666Y-36982676D02*
X16946428Y-36887438D01*
X16946428Y-36887438D02*
X16803571Y-36839819D01*
X16803571Y-36839819D02*
X16708333Y-36839819D01*
X16708333Y-36839819D02*
X16565476Y-36887438D01*
X16565476Y-36887438D02*
X16517857Y-36935057D01*
X16041666Y-37839819D02*
X15851190Y-37839819D01*
X15851190Y-37839819D02*
X15755952Y-37792200D01*
X15755952Y-37792200D02*
X15708333Y-37744580D01*
X15708333Y-37744580D02*
X15613095Y-37601723D01*
X15613095Y-37601723D02*
X15565476Y-37411247D01*
X15565476Y-37411247D02*
X15565476Y-37030295D01*
X15565476Y-37030295D02*
X15613095Y-36935057D01*
X15613095Y-36935057D02*
X15660714Y-36887438D01*
X15660714Y-36887438D02*
X15755952Y-36839819D01*
X15755952Y-36839819D02*
X15946428Y-36839819D01*
X15946428Y-36839819D02*
X16041666Y-36887438D01*
X16041666Y-36887438D02*
X16089285Y-36935057D01*
X16089285Y-36935057D02*
X16136904Y-37030295D01*
X16136904Y-37030295D02*
X16136904Y-37268390D01*
X16136904Y-37268390D02*
X16089285Y-37363628D01*
X16089285Y-37363628D02*
X16041666Y-37411247D01*
X16041666Y-37411247D02*
X15946428Y-37458866D01*
X15946428Y-37458866D02*
X15755952Y-37458866D01*
X15755952Y-37458866D02*
X15660714Y-37411247D01*
X15660714Y-37411247D02*
X15613095Y-37363628D01*
X15613095Y-37363628D02*
X15565476Y-37268390D01*
X15089285Y-37839819D02*
X14898809Y-37839819D01*
X14898809Y-37839819D02*
X14803571Y-37792200D01*
X14803571Y-37792200D02*
X14755952Y-37744580D01*
X14755952Y-37744580D02*
X14660714Y-37601723D01*
X14660714Y-37601723D02*
X14613095Y-37411247D01*
X14613095Y-37411247D02*
X14613095Y-37030295D01*
X14613095Y-37030295D02*
X14660714Y-36935057D01*
X14660714Y-36935057D02*
X14708333Y-36887438D01*
X14708333Y-36887438D02*
X14803571Y-36839819D01*
X14803571Y-36839819D02*
X14994047Y-36839819D01*
X14994047Y-36839819D02*
X15089285Y-36887438D01*
X15089285Y-36887438D02*
X15136904Y-36935057D01*
X15136904Y-36935057D02*
X15184523Y-37030295D01*
X15184523Y-37030295D02*
X15184523Y-37268390D01*
X15184523Y-37268390D02*
X15136904Y-37363628D01*
X15136904Y-37363628D02*
X15089285Y-37411247D01*
X15089285Y-37411247D02*
X14994047Y-37458866D01*
X14994047Y-37458866D02*
X14803571Y-37458866D01*
X14803571Y-37458866D02*
X14708333Y-37411247D01*
X14708333Y-37411247D02*
X14660714Y-37363628D01*
X14660714Y-37363628D02*
X14613095Y-37268390D01*
X23519047Y-38249580D02*
X23566666Y-38297200D01*
X23566666Y-38297200D02*
X23709523Y-38344819D01*
X23709523Y-38344819D02*
X23804761Y-38344819D01*
X23804761Y-38344819D02*
X23947618Y-38297200D01*
X23947618Y-38297200D02*
X24042856Y-38201961D01*
X24042856Y-38201961D02*
X24090475Y-38106723D01*
X24090475Y-38106723D02*
X24138094Y-37916247D01*
X24138094Y-37916247D02*
X24138094Y-37773390D01*
X24138094Y-37773390D02*
X24090475Y-37582914D01*
X24090475Y-37582914D02*
X24042856Y-37487676D01*
X24042856Y-37487676D02*
X23947618Y-37392438D01*
X23947618Y-37392438D02*
X23804761Y-37344819D01*
X23804761Y-37344819D02*
X23709523Y-37344819D01*
X23709523Y-37344819D02*
X23566666Y-37392438D01*
X23566666Y-37392438D02*
X23519047Y-37440057D01*
X22566666Y-38344819D02*
X23138094Y-38344819D01*
X22852380Y-38344819D02*
X22852380Y-37344819D01*
X22852380Y-37344819D02*
X22947618Y-37487676D01*
X22947618Y-37487676D02*
X23042856Y-37582914D01*
X23042856Y-37582914D02*
X23138094Y-37630533D01*
X21947618Y-37344819D02*
X21852380Y-37344819D01*
X21852380Y-37344819D02*
X21757142Y-37392438D01*
X21757142Y-37392438D02*
X21709523Y-37440057D01*
X21709523Y-37440057D02*
X21661904Y-37535295D01*
X21661904Y-37535295D02*
X21614285Y-37725771D01*
X21614285Y-37725771D02*
X21614285Y-37963866D01*
X21614285Y-37963866D02*
X21661904Y-38154342D01*
X21661904Y-38154342D02*
X21709523Y-38249580D01*
X21709523Y-38249580D02*
X21757142Y-38297200D01*
X21757142Y-38297200D02*
X21852380Y-38344819D01*
X21852380Y-38344819D02*
X21947618Y-38344819D01*
X21947618Y-38344819D02*
X22042856Y-38297200D01*
X22042856Y-38297200D02*
X22090475Y-38249580D01*
X22090475Y-38249580D02*
X22138094Y-38154342D01*
X22138094Y-38154342D02*
X22185713Y-37963866D01*
X22185713Y-37963866D02*
X22185713Y-37725771D01*
X22185713Y-37725771D02*
X22138094Y-37535295D01*
X22138094Y-37535295D02*
X22090475Y-37440057D01*
X22090475Y-37440057D02*
X22042856Y-37392438D01*
X22042856Y-37392438D02*
X21947618Y-37344819D01*
X20661904Y-38344819D02*
X21233332Y-38344819D01*
X20947618Y-38344819D02*
X20947618Y-37344819D01*
X20947618Y-37344819D02*
X21042856Y-37487676D01*
X21042856Y-37487676D02*
X21138094Y-37582914D01*
X21138094Y-37582914D02*
X21233332Y-37630533D01*
X14732857Y-40989819D02*
X15066190Y-40513628D01*
X15304285Y-40989819D02*
X15304285Y-39989819D01*
X15304285Y-39989819D02*
X14923333Y-39989819D01*
X14923333Y-39989819D02*
X14828095Y-40037438D01*
X14828095Y-40037438D02*
X14780476Y-40085057D01*
X14780476Y-40085057D02*
X14732857Y-40180295D01*
X14732857Y-40180295D02*
X14732857Y-40323152D01*
X14732857Y-40323152D02*
X14780476Y-40418390D01*
X14780476Y-40418390D02*
X14828095Y-40466009D01*
X14828095Y-40466009D02*
X14923333Y-40513628D01*
X14923333Y-40513628D02*
X15304285Y-40513628D01*
X13875714Y-40323152D02*
X13875714Y-40989819D01*
X14113809Y-39942200D02*
X14351904Y-40656485D01*
X14351904Y-40656485D02*
X13732857Y-40656485D01*
X13447142Y-39989819D02*
X12828095Y-39989819D01*
X12828095Y-39989819D02*
X13161428Y-40370771D01*
X13161428Y-40370771D02*
X13018571Y-40370771D01*
X13018571Y-40370771D02*
X12923333Y-40418390D01*
X12923333Y-40418390D02*
X12875714Y-40466009D01*
X12875714Y-40466009D02*
X12828095Y-40561247D01*
X12828095Y-40561247D02*
X12828095Y-40799342D01*
X12828095Y-40799342D02*
X12875714Y-40894580D01*
X12875714Y-40894580D02*
X12923333Y-40942200D01*
X12923333Y-40942200D02*
X13018571Y-40989819D01*
X13018571Y-40989819D02*
X13304285Y-40989819D01*
X13304285Y-40989819D02*
X13399523Y-40942200D01*
X13399523Y-40942200D02*
X13447142Y-40894580D01*
X22592857Y-36374580D02*
X22640476Y-36422200D01*
X22640476Y-36422200D02*
X22783333Y-36469819D01*
X22783333Y-36469819D02*
X22878571Y-36469819D01*
X22878571Y-36469819D02*
X23021428Y-36422200D01*
X23021428Y-36422200D02*
X23116666Y-36326961D01*
X23116666Y-36326961D02*
X23164285Y-36231723D01*
X23164285Y-36231723D02*
X23211904Y-36041247D01*
X23211904Y-36041247D02*
X23211904Y-35898390D01*
X23211904Y-35898390D02*
X23164285Y-35707914D01*
X23164285Y-35707914D02*
X23116666Y-35612676D01*
X23116666Y-35612676D02*
X23021428Y-35517438D01*
X23021428Y-35517438D02*
X22878571Y-35469819D01*
X22878571Y-35469819D02*
X22783333Y-35469819D01*
X22783333Y-35469819D02*
X22640476Y-35517438D01*
X22640476Y-35517438D02*
X22592857Y-35565057D01*
X22116666Y-36469819D02*
X21926190Y-36469819D01*
X21926190Y-36469819D02*
X21830952Y-36422200D01*
X21830952Y-36422200D02*
X21783333Y-36374580D01*
X21783333Y-36374580D02*
X21688095Y-36231723D01*
X21688095Y-36231723D02*
X21640476Y-36041247D01*
X21640476Y-36041247D02*
X21640476Y-35660295D01*
X21640476Y-35660295D02*
X21688095Y-35565057D01*
X21688095Y-35565057D02*
X21735714Y-35517438D01*
X21735714Y-35517438D02*
X21830952Y-35469819D01*
X21830952Y-35469819D02*
X22021428Y-35469819D01*
X22021428Y-35469819D02*
X22116666Y-35517438D01*
X22116666Y-35517438D02*
X22164285Y-35565057D01*
X22164285Y-35565057D02*
X22211904Y-35660295D01*
X22211904Y-35660295D02*
X22211904Y-35898390D01*
X22211904Y-35898390D02*
X22164285Y-35993628D01*
X22164285Y-35993628D02*
X22116666Y-36041247D01*
X22116666Y-36041247D02*
X22021428Y-36088866D01*
X22021428Y-36088866D02*
X21830952Y-36088866D01*
X21830952Y-36088866D02*
X21735714Y-36041247D01*
X21735714Y-36041247D02*
X21688095Y-35993628D01*
X21688095Y-35993628D02*
X21640476Y-35898390D01*
X20783333Y-35469819D02*
X20973809Y-35469819D01*
X20973809Y-35469819D02*
X21069047Y-35517438D01*
X21069047Y-35517438D02*
X21116666Y-35565057D01*
X21116666Y-35565057D02*
X21211904Y-35707914D01*
X21211904Y-35707914D02*
X21259523Y-35898390D01*
X21259523Y-35898390D02*
X21259523Y-36279342D01*
X21259523Y-36279342D02*
X21211904Y-36374580D01*
X21211904Y-36374580D02*
X21164285Y-36422200D01*
X21164285Y-36422200D02*
X21069047Y-36469819D01*
X21069047Y-36469819D02*
X20878571Y-36469819D01*
X20878571Y-36469819D02*
X20783333Y-36422200D01*
X20783333Y-36422200D02*
X20735714Y-36374580D01*
X20735714Y-36374580D02*
X20688095Y-36279342D01*
X20688095Y-36279342D02*
X20688095Y-36041247D01*
X20688095Y-36041247D02*
X20735714Y-35946009D01*
X20735714Y-35946009D02*
X20783333Y-35898390D01*
X20783333Y-35898390D02*
X20878571Y-35850771D01*
X20878571Y-35850771D02*
X21069047Y-35850771D01*
X21069047Y-35850771D02*
X21164285Y-35898390D01*
X21164285Y-35898390D02*
X21211904Y-35946009D01*
X21211904Y-35946009D02*
X21259523Y-36041247D01*
X79457857Y-3594819D02*
X79791190Y-3118628D01*
X80029285Y-3594819D02*
X80029285Y-2594819D01*
X80029285Y-2594819D02*
X79648333Y-2594819D01*
X79648333Y-2594819D02*
X79553095Y-2642438D01*
X79553095Y-2642438D02*
X79505476Y-2690057D01*
X79505476Y-2690057D02*
X79457857Y-2785295D01*
X79457857Y-2785295D02*
X79457857Y-2928152D01*
X79457857Y-2928152D02*
X79505476Y-3023390D01*
X79505476Y-3023390D02*
X79553095Y-3071009D01*
X79553095Y-3071009D02*
X79648333Y-3118628D01*
X79648333Y-3118628D02*
X80029285Y-3118628D01*
X78553095Y-2594819D02*
X79029285Y-2594819D01*
X79029285Y-2594819D02*
X79076904Y-3071009D01*
X79076904Y-3071009D02*
X79029285Y-3023390D01*
X79029285Y-3023390D02*
X78934047Y-2975771D01*
X78934047Y-2975771D02*
X78695952Y-2975771D01*
X78695952Y-2975771D02*
X78600714Y-3023390D01*
X78600714Y-3023390D02*
X78553095Y-3071009D01*
X78553095Y-3071009D02*
X78505476Y-3166247D01*
X78505476Y-3166247D02*
X78505476Y-3404342D01*
X78505476Y-3404342D02*
X78553095Y-3499580D01*
X78553095Y-3499580D02*
X78600714Y-3547200D01*
X78600714Y-3547200D02*
X78695952Y-3594819D01*
X78695952Y-3594819D02*
X78934047Y-3594819D01*
X78934047Y-3594819D02*
X79029285Y-3547200D01*
X79029285Y-3547200D02*
X79076904Y-3499580D01*
X77600714Y-2594819D02*
X78076904Y-2594819D01*
X78076904Y-2594819D02*
X78124523Y-3071009D01*
X78124523Y-3071009D02*
X78076904Y-3023390D01*
X78076904Y-3023390D02*
X77981666Y-2975771D01*
X77981666Y-2975771D02*
X77743571Y-2975771D01*
X77743571Y-2975771D02*
X77648333Y-3023390D01*
X77648333Y-3023390D02*
X77600714Y-3071009D01*
X77600714Y-3071009D02*
X77553095Y-3166247D01*
X77553095Y-3166247D02*
X77553095Y-3404342D01*
X77553095Y-3404342D02*
X77600714Y-3499580D01*
X77600714Y-3499580D02*
X77648333Y-3547200D01*
X77648333Y-3547200D02*
X77743571Y-3594819D01*
X77743571Y-3594819D02*
X77981666Y-3594819D01*
X77981666Y-3594819D02*
X78076904Y-3547200D01*
X78076904Y-3547200D02*
X78124523Y-3499580D01*
X50144819Y-21159523D02*
X49668628Y-20826190D01*
X50144819Y-20588095D02*
X49144819Y-20588095D01*
X49144819Y-20588095D02*
X49144819Y-20969047D01*
X49144819Y-20969047D02*
X49192438Y-21064285D01*
X49192438Y-21064285D02*
X49240057Y-21111904D01*
X49240057Y-21111904D02*
X49335295Y-21159523D01*
X49335295Y-21159523D02*
X49478152Y-21159523D01*
X49478152Y-21159523D02*
X49573390Y-21111904D01*
X49573390Y-21111904D02*
X49621009Y-21064285D01*
X49621009Y-21064285D02*
X49668628Y-20969047D01*
X49668628Y-20969047D02*
X49668628Y-20588095D01*
X50144819Y-21588095D02*
X49144819Y-21588095D01*
X49144819Y-21588095D02*
X50144819Y-22159523D01*
X50144819Y-22159523D02*
X49144819Y-22159523D01*
X49144819Y-22540476D02*
X49144819Y-23159523D01*
X49144819Y-23159523D02*
X49525771Y-22826190D01*
X49525771Y-22826190D02*
X49525771Y-22969047D01*
X49525771Y-22969047D02*
X49573390Y-23064285D01*
X49573390Y-23064285D02*
X49621009Y-23111904D01*
X49621009Y-23111904D02*
X49716247Y-23159523D01*
X49716247Y-23159523D02*
X49954342Y-23159523D01*
X49954342Y-23159523D02*
X50049580Y-23111904D01*
X50049580Y-23111904D02*
X50097200Y-23064285D01*
X50097200Y-23064285D02*
X50144819Y-22969047D01*
X50144819Y-22969047D02*
X50144819Y-22683333D01*
X50144819Y-22683333D02*
X50097200Y-22588095D01*
X50097200Y-22588095D02*
X50049580Y-22540476D01*
X58817857Y2490180D02*
X59151190Y2966371D01*
X59389285Y2490180D02*
X59389285Y3490180D01*
X59389285Y3490180D02*
X59008333Y3490180D01*
X59008333Y3490180D02*
X58913095Y3442561D01*
X58913095Y3442561D02*
X58865476Y3394942D01*
X58865476Y3394942D02*
X58817857Y3299704D01*
X58817857Y3299704D02*
X58817857Y3156847D01*
X58817857Y3156847D02*
X58865476Y3061609D01*
X58865476Y3061609D02*
X58913095Y3013990D01*
X58913095Y3013990D02*
X59008333Y2966371D01*
X59008333Y2966371D02*
X59389285Y2966371D01*
X57960714Y3156847D02*
X57960714Y2490180D01*
X58198809Y3537800D02*
X58436904Y2823514D01*
X58436904Y2823514D02*
X57817857Y2823514D01*
X57484523Y3394942D02*
X57436904Y3442561D01*
X57436904Y3442561D02*
X57341666Y3490180D01*
X57341666Y3490180D02*
X57103571Y3490180D01*
X57103571Y3490180D02*
X57008333Y3442561D01*
X57008333Y3442561D02*
X56960714Y3394942D01*
X56960714Y3394942D02*
X56913095Y3299704D01*
X56913095Y3299704D02*
X56913095Y3204466D01*
X56913095Y3204466D02*
X56960714Y3061609D01*
X56960714Y3061609D02*
X57532142Y2490180D01*
X57532142Y2490180D02*
X56913095Y2490180D01*
X82367857Y385180D02*
X82701190Y861371D01*
X82939285Y385180D02*
X82939285Y1385180D01*
X82939285Y1385180D02*
X82558333Y1385180D01*
X82558333Y1385180D02*
X82463095Y1337561D01*
X82463095Y1337561D02*
X82415476Y1289942D01*
X82415476Y1289942D02*
X82367857Y1194704D01*
X82367857Y1194704D02*
X82367857Y1051847D01*
X82367857Y1051847D02*
X82415476Y956609D01*
X82415476Y956609D02*
X82463095Y908990D01*
X82463095Y908990D02*
X82558333Y861371D01*
X82558333Y861371D02*
X82939285Y861371D01*
X81463095Y1385180D02*
X81939285Y1385180D01*
X81939285Y1385180D02*
X81986904Y908990D01*
X81986904Y908990D02*
X81939285Y956609D01*
X81939285Y956609D02*
X81844047Y1004228D01*
X81844047Y1004228D02*
X81605952Y1004228D01*
X81605952Y1004228D02*
X81510714Y956609D01*
X81510714Y956609D02*
X81463095Y908990D01*
X81463095Y908990D02*
X81415476Y813752D01*
X81415476Y813752D02*
X81415476Y575657D01*
X81415476Y575657D02*
X81463095Y480419D01*
X81463095Y480419D02*
X81510714Y432800D01*
X81510714Y432800D02*
X81605952Y385180D01*
X81605952Y385180D02*
X81844047Y385180D01*
X81844047Y385180D02*
X81939285Y432800D01*
X81939285Y432800D02*
X81986904Y480419D01*
X80844047Y956609D02*
X80939285Y1004228D01*
X80939285Y1004228D02*
X80986904Y1051847D01*
X80986904Y1051847D02*
X81034523Y1147085D01*
X81034523Y1147085D02*
X81034523Y1194704D01*
X81034523Y1194704D02*
X80986904Y1289942D01*
X80986904Y1289942D02*
X80939285Y1337561D01*
X80939285Y1337561D02*
X80844047Y1385180D01*
X80844047Y1385180D02*
X80653571Y1385180D01*
X80653571Y1385180D02*
X80558333Y1337561D01*
X80558333Y1337561D02*
X80510714Y1289942D01*
X80510714Y1289942D02*
X80463095Y1194704D01*
X80463095Y1194704D02*
X80463095Y1147085D01*
X80463095Y1147085D02*
X80510714Y1051847D01*
X80510714Y1051847D02*
X80558333Y1004228D01*
X80558333Y1004228D02*
X80653571Y956609D01*
X80653571Y956609D02*
X80844047Y956609D01*
X80844047Y956609D02*
X80939285Y908990D01*
X80939285Y908990D02*
X80986904Y861371D01*
X80986904Y861371D02*
X81034523Y766133D01*
X81034523Y766133D02*
X81034523Y575657D01*
X81034523Y575657D02*
X80986904Y480419D01*
X80986904Y480419D02*
X80939285Y432800D01*
X80939285Y432800D02*
X80844047Y385180D01*
X80844047Y385180D02*
X80653571Y385180D01*
X80653571Y385180D02*
X80558333Y432800D01*
X80558333Y432800D02*
X80510714Y480419D01*
X80510714Y480419D02*
X80463095Y575657D01*
X80463095Y575657D02*
X80463095Y766133D01*
X80463095Y766133D02*
X80510714Y861371D01*
X80510714Y861371D02*
X80558333Y908990D01*
X80558333Y908990D02*
X80653571Y956609D01*
X76547857Y-1604819D02*
X76881190Y-1128628D01*
X77119285Y-1604819D02*
X77119285Y-604819D01*
X77119285Y-604819D02*
X76738333Y-604819D01*
X76738333Y-604819D02*
X76643095Y-652438D01*
X76643095Y-652438D02*
X76595476Y-700057D01*
X76595476Y-700057D02*
X76547857Y-795295D01*
X76547857Y-795295D02*
X76547857Y-938152D01*
X76547857Y-938152D02*
X76595476Y-1033390D01*
X76595476Y-1033390D02*
X76643095Y-1081009D01*
X76643095Y-1081009D02*
X76738333Y-1128628D01*
X76738333Y-1128628D02*
X77119285Y-1128628D01*
X75690714Y-938152D02*
X75690714Y-1604819D01*
X75928809Y-557200D02*
X76166904Y-1271485D01*
X76166904Y-1271485D02*
X75547857Y-1271485D01*
X75119285Y-1604819D02*
X74928809Y-1604819D01*
X74928809Y-1604819D02*
X74833571Y-1557200D01*
X74833571Y-1557200D02*
X74785952Y-1509580D01*
X74785952Y-1509580D02*
X74690714Y-1366723D01*
X74690714Y-1366723D02*
X74643095Y-1176247D01*
X74643095Y-1176247D02*
X74643095Y-795295D01*
X74643095Y-795295D02*
X74690714Y-700057D01*
X74690714Y-700057D02*
X74738333Y-652438D01*
X74738333Y-652438D02*
X74833571Y-604819D01*
X74833571Y-604819D02*
X75024047Y-604819D01*
X75024047Y-604819D02*
X75119285Y-652438D01*
X75119285Y-652438D02*
X75166904Y-700057D01*
X75166904Y-700057D02*
X75214523Y-795295D01*
X75214523Y-795295D02*
X75214523Y-1033390D01*
X75214523Y-1033390D02*
X75166904Y-1128628D01*
X75166904Y-1128628D02*
X75119285Y-1176247D01*
X75119285Y-1176247D02*
X75024047Y-1223866D01*
X75024047Y-1223866D02*
X74833571Y-1223866D01*
X74833571Y-1223866D02*
X74738333Y-1176247D01*
X74738333Y-1176247D02*
X74690714Y-1128628D01*
X74690714Y-1128628D02*
X74643095Y-1033390D01*
X14742857Y-42904819D02*
X15076190Y-42428628D01*
X15314285Y-42904819D02*
X15314285Y-41904819D01*
X15314285Y-41904819D02*
X14933333Y-41904819D01*
X14933333Y-41904819D02*
X14838095Y-41952438D01*
X14838095Y-41952438D02*
X14790476Y-42000057D01*
X14790476Y-42000057D02*
X14742857Y-42095295D01*
X14742857Y-42095295D02*
X14742857Y-42238152D01*
X14742857Y-42238152D02*
X14790476Y-42333390D01*
X14790476Y-42333390D02*
X14838095Y-42381009D01*
X14838095Y-42381009D02*
X14933333Y-42428628D01*
X14933333Y-42428628D02*
X15314285Y-42428628D01*
X13885714Y-42238152D02*
X13885714Y-42904819D01*
X14123809Y-41857200D02*
X14361904Y-42571485D01*
X14361904Y-42571485D02*
X13742857Y-42571485D01*
X12885714Y-41904819D02*
X13361904Y-41904819D01*
X13361904Y-41904819D02*
X13409523Y-42381009D01*
X13409523Y-42381009D02*
X13361904Y-42333390D01*
X13361904Y-42333390D02*
X13266666Y-42285771D01*
X13266666Y-42285771D02*
X13028571Y-42285771D01*
X13028571Y-42285771D02*
X12933333Y-42333390D01*
X12933333Y-42333390D02*
X12885714Y-42381009D01*
X12885714Y-42381009D02*
X12838095Y-42476247D01*
X12838095Y-42476247D02*
X12838095Y-42714342D01*
X12838095Y-42714342D02*
X12885714Y-42809580D01*
X12885714Y-42809580D02*
X12933333Y-42857200D01*
X12933333Y-42857200D02*
X13028571Y-42904819D01*
X13028571Y-42904819D02*
X13266666Y-42904819D01*
X13266666Y-42904819D02*
X13361904Y-42857200D01*
X13361904Y-42857200D02*
X13409523Y-42809580D01*
X21049580Y-42352142D02*
X21097200Y-42304523D01*
X21097200Y-42304523D02*
X21144819Y-42161666D01*
X21144819Y-42161666D02*
X21144819Y-42066428D01*
X21144819Y-42066428D02*
X21097200Y-41923571D01*
X21097200Y-41923571D02*
X21001961Y-41828333D01*
X21001961Y-41828333D02*
X20906723Y-41780714D01*
X20906723Y-41780714D02*
X20716247Y-41733095D01*
X20716247Y-41733095D02*
X20573390Y-41733095D01*
X20573390Y-41733095D02*
X20382914Y-41780714D01*
X20382914Y-41780714D02*
X20287676Y-41828333D01*
X20287676Y-41828333D02*
X20192438Y-41923571D01*
X20192438Y-41923571D02*
X20144819Y-42066428D01*
X20144819Y-42066428D02*
X20144819Y-42161666D01*
X20144819Y-42161666D02*
X20192438Y-42304523D01*
X20192438Y-42304523D02*
X20240057Y-42352142D01*
X20144819Y-42685476D02*
X20144819Y-43352142D01*
X20144819Y-43352142D02*
X21144819Y-42923571D01*
X21144819Y-43780714D02*
X21144819Y-43971190D01*
X21144819Y-43971190D02*
X21097200Y-44066428D01*
X21097200Y-44066428D02*
X21049580Y-44114047D01*
X21049580Y-44114047D02*
X20906723Y-44209285D01*
X20906723Y-44209285D02*
X20716247Y-44256904D01*
X20716247Y-44256904D02*
X20335295Y-44256904D01*
X20335295Y-44256904D02*
X20240057Y-44209285D01*
X20240057Y-44209285D02*
X20192438Y-44161666D01*
X20192438Y-44161666D02*
X20144819Y-44066428D01*
X20144819Y-44066428D02*
X20144819Y-43875952D01*
X20144819Y-43875952D02*
X20192438Y-43780714D01*
X20192438Y-43780714D02*
X20240057Y-43733095D01*
X20240057Y-43733095D02*
X20335295Y-43685476D01*
X20335295Y-43685476D02*
X20573390Y-43685476D01*
X20573390Y-43685476D02*
X20668628Y-43733095D01*
X20668628Y-43733095D02*
X20716247Y-43780714D01*
X20716247Y-43780714D02*
X20763866Y-43875952D01*
X20763866Y-43875952D02*
X20763866Y-44066428D01*
X20763866Y-44066428D02*
X20716247Y-44161666D01*
X20716247Y-44161666D02*
X20668628Y-44209285D01*
X20668628Y-44209285D02*
X20573390Y-44256904D01*
X20617857Y-45994580D02*
X20665476Y-46042200D01*
X20665476Y-46042200D02*
X20808333Y-46089819D01*
X20808333Y-46089819D02*
X20903571Y-46089819D01*
X20903571Y-46089819D02*
X21046428Y-46042200D01*
X21046428Y-46042200D02*
X21141666Y-45946961D01*
X21141666Y-45946961D02*
X21189285Y-45851723D01*
X21189285Y-45851723D02*
X21236904Y-45661247D01*
X21236904Y-45661247D02*
X21236904Y-45518390D01*
X21236904Y-45518390D02*
X21189285Y-45327914D01*
X21189285Y-45327914D02*
X21141666Y-45232676D01*
X21141666Y-45232676D02*
X21046428Y-45137438D01*
X21046428Y-45137438D02*
X20903571Y-45089819D01*
X20903571Y-45089819D02*
X20808333Y-45089819D01*
X20808333Y-45089819D02*
X20665476Y-45137438D01*
X20665476Y-45137438D02*
X20617857Y-45185057D01*
X20284523Y-45089819D02*
X19617857Y-45089819D01*
X19617857Y-45089819D02*
X20046428Y-46089819D01*
X18808333Y-45089819D02*
X18998809Y-45089819D01*
X18998809Y-45089819D02*
X19094047Y-45137438D01*
X19094047Y-45137438D02*
X19141666Y-45185057D01*
X19141666Y-45185057D02*
X19236904Y-45327914D01*
X19236904Y-45327914D02*
X19284523Y-45518390D01*
X19284523Y-45518390D02*
X19284523Y-45899342D01*
X19284523Y-45899342D02*
X19236904Y-45994580D01*
X19236904Y-45994580D02*
X19189285Y-46042200D01*
X19189285Y-46042200D02*
X19094047Y-46089819D01*
X19094047Y-46089819D02*
X18903571Y-46089819D01*
X18903571Y-46089819D02*
X18808333Y-46042200D01*
X18808333Y-46042200D02*
X18760714Y-45994580D01*
X18760714Y-45994580D02*
X18713095Y-45899342D01*
X18713095Y-45899342D02*
X18713095Y-45661247D01*
X18713095Y-45661247D02*
X18760714Y-45566009D01*
X18760714Y-45566009D02*
X18808333Y-45518390D01*
X18808333Y-45518390D02*
X18903571Y-45470771D01*
X18903571Y-45470771D02*
X19094047Y-45470771D01*
X19094047Y-45470771D02*
X19189285Y-45518390D01*
X19189285Y-45518390D02*
X19236904Y-45566009D01*
X19236904Y-45566009D02*
X19284523Y-45661247D01*
X65944580Y-9662142D02*
X65992200Y-9614523D01*
X65992200Y-9614523D02*
X66039819Y-9471666D01*
X66039819Y-9471666D02*
X66039819Y-9376428D01*
X66039819Y-9376428D02*
X65992200Y-9233571D01*
X65992200Y-9233571D02*
X65896961Y-9138333D01*
X65896961Y-9138333D02*
X65801723Y-9090714D01*
X65801723Y-9090714D02*
X65611247Y-9043095D01*
X65611247Y-9043095D02*
X65468390Y-9043095D01*
X65468390Y-9043095D02*
X65277914Y-9090714D01*
X65277914Y-9090714D02*
X65182676Y-9138333D01*
X65182676Y-9138333D02*
X65087438Y-9233571D01*
X65087438Y-9233571D02*
X65039819Y-9376428D01*
X65039819Y-9376428D02*
X65039819Y-9471666D01*
X65039819Y-9471666D02*
X65087438Y-9614523D01*
X65087438Y-9614523D02*
X65135057Y-9662142D01*
X65039819Y-9995476D02*
X65039819Y-10662142D01*
X65039819Y-10662142D02*
X66039819Y-10233571D01*
X65039819Y-11519285D02*
X65039819Y-11043095D01*
X65039819Y-11043095D02*
X65516009Y-10995476D01*
X65516009Y-10995476D02*
X65468390Y-11043095D01*
X65468390Y-11043095D02*
X65420771Y-11138333D01*
X65420771Y-11138333D02*
X65420771Y-11376428D01*
X65420771Y-11376428D02*
X65468390Y-11471666D01*
X65468390Y-11471666D02*
X65516009Y-11519285D01*
X65516009Y-11519285D02*
X65611247Y-11566904D01*
X65611247Y-11566904D02*
X65849342Y-11566904D01*
X65849342Y-11566904D02*
X65944580Y-11519285D01*
X65944580Y-11519285D02*
X65992200Y-11471666D01*
X65992200Y-11471666D02*
X66039819Y-11376428D01*
X66039819Y-11376428D02*
X66039819Y-11138333D01*
X66039819Y-11138333D02*
X65992200Y-11043095D01*
X65992200Y-11043095D02*
X65944580Y-10995476D01*
D11*
%TO.C,U5*%
X36365000Y-53950000D02*
X36035000Y-54190000D01*
X36035000Y-53710000D01*
X36365000Y-53950000D01*
G36*
X36365000Y-53950000D02*
G01*
X36035000Y-54190000D01*
X36035000Y-53710000D01*
X36365000Y-53950000D01*
G37*
X39535000Y-54250000D02*
X39535000Y-56050000D01*
X36315000Y-55250000D02*
X36315000Y-56050000D01*
X36315000Y-55250000D02*
X36315000Y-54450000D01*
%TO.C,U6*%
X16010000Y-41445000D02*
X16485000Y-41445000D01*
X20230000Y-41445000D02*
X19755000Y-41445000D01*
X16010000Y-40970000D02*
X16010000Y-41445000D01*
X20230000Y-40970000D02*
X20230000Y-41445000D01*
X16010000Y-37700000D02*
X16010000Y-37525000D01*
X20230000Y-37700000D02*
X20230000Y-37225000D01*
X16485000Y-37225000D02*
X16250000Y-37225000D01*
X20230000Y-37225000D02*
X19755000Y-37225000D01*
X16010000Y-37225000D02*
X15680000Y-37465000D01*
X15680000Y-36985000D01*
X16010000Y-37225000D01*
G36*
X16010000Y-37225000D02*
G01*
X15680000Y-37465000D01*
X15680000Y-36985000D01*
X16010000Y-37225000D01*
G37*
%TO.C,Y4*%
X20940000Y-32245000D02*
X20940000Y-35665000D01*
X20940000Y-35665000D02*
X16820000Y-35665000D01*
%TO.C,C94*%
X15965000Y-33232836D02*
X15965000Y-33017164D01*
X16685000Y-33232836D02*
X16685000Y-33017164D01*
%TO.C,C93*%
X21835000Y-34692164D02*
X21835000Y-34907836D01*
X21115000Y-34692164D02*
X21115000Y-34907836D01*
%TO.C,Y1*%
X22390000Y-47565000D02*
X22390000Y-43445000D01*
X25810000Y-47565000D02*
X22390000Y-47565000D01*
%TO.C,Y2*%
X24975000Y-50575000D02*
X23625000Y-50575000D01*
X24975000Y-48825000D02*
X23625000Y-48825000D01*
%TO.C,C70*%
X22235000Y-44717164D02*
X22235000Y-44932836D01*
X21515000Y-44717164D02*
X21515000Y-44932836D01*
%TO.C,R35*%
X40680000Y-41746359D02*
X40680000Y-42053641D01*
X39920000Y-41746359D02*
X39920000Y-42053641D01*
%TO.C,C68*%
X25117164Y-47715000D02*
X25332836Y-47715000D01*
X25117164Y-48435000D02*
X25332836Y-48435000D01*
%TO.C,C67*%
X23502836Y-48435000D02*
X23287164Y-48435000D01*
X23502836Y-47715000D02*
X23287164Y-47715000D01*
%TO.C,C71*%
X15635000Y-31012164D02*
X15635000Y-31227836D01*
X14915000Y-31012164D02*
X14915000Y-31227836D01*
%TO.C,C72*%
X15865000Y-31232836D02*
X15865000Y-31017164D01*
X16585000Y-31232836D02*
X16585000Y-31017164D01*
%TO.C,R37*%
X21305000Y-22696359D02*
X21305000Y-23003641D01*
X20545000Y-22696359D02*
X20545000Y-23003641D01*
%TO.C,C90*%
X21107836Y-25285000D02*
X20892164Y-25285000D01*
X21107836Y-24565000D02*
X20892164Y-24565000D01*
%TO.C,C87*%
X19217164Y-21315000D02*
X19432836Y-21315000D01*
X19217164Y-22035000D02*
X19432836Y-22035000D01*
%TO.C,C84*%
X15157836Y-23535000D02*
X14942164Y-23535000D01*
X15157836Y-22815000D02*
X14942164Y-22815000D01*
%TO.C,C88*%
X19217164Y-22240000D02*
X19432836Y-22240000D01*
X19217164Y-22960000D02*
X19432836Y-22960000D01*
%TO.C,C86*%
X15127836Y-20410000D02*
X14912164Y-20410000D01*
X15127836Y-21130000D02*
X14912164Y-21130000D01*
%TO.C,C83*%
X15157836Y-24460000D02*
X14942164Y-24460000D01*
X15157836Y-23740000D02*
X14942164Y-23740000D01*
%TO.C,C89*%
X19217164Y-23190000D02*
X19432836Y-23190000D01*
X19217164Y-23910000D02*
X19432836Y-23910000D01*
%TO.C,C85*%
X15132836Y-21340000D02*
X14917164Y-21340000D01*
X15132836Y-22060000D02*
X14917164Y-22060000D01*
%TO.C,C50*%
X33240000Y-30257836D02*
X33240000Y-30042164D01*
X33960000Y-30257836D02*
X33960000Y-30042164D01*
%TO.C,R57*%
X81878641Y2040000D02*
X81571359Y2040000D01*
X81878641Y1280000D02*
X81571359Y1280000D01*
%TO.C,C39*%
X35432836Y-45190000D02*
X35217164Y-45190000D01*
X35432836Y-45910000D02*
X35217164Y-45910000D01*
%TO.C,R51*%
X76058641Y-5920000D02*
X75751359Y-5920000D01*
X76058641Y-6680000D02*
X75751359Y-6680000D01*
%TO.C,R21*%
X24460000Y-27721359D02*
X24460000Y-28028641D01*
X25220000Y-27721359D02*
X25220000Y-28028641D01*
%TO.C,R18*%
X36496359Y-37995000D02*
X36803641Y-37995000D01*
X36496359Y-38755000D02*
X36803641Y-38755000D01*
%TO.C,R16*%
X35053641Y-27445000D02*
X34746359Y-27445000D01*
X35053641Y-28205000D02*
X34746359Y-28205000D01*
D12*
%TO.C,RN4*%
X51275000Y-11700000D02*
G75*
G02*
X51075000Y-11700000I-100000J0D01*
G01*
X51075000Y-11700000D02*
G75*
G02*
X51275000Y-11700000I100000J0D01*
G01*
D11*
%TO.C,C52*%
X25457836Y-26835000D02*
X25242164Y-26835000D01*
X25457836Y-26115000D02*
X25242164Y-26115000D01*
%TO.C,R33*%
X34406359Y-14915000D02*
X34713641Y-14915000D01*
X34406359Y-14155000D02*
X34713641Y-14155000D01*
%TO.C,R29*%
X9198641Y-2620000D02*
X8891359Y-2620000D01*
X9198641Y-3380000D02*
X8891359Y-3380000D01*
%TO.C,C26*%
X32190000Y-48682836D02*
X32190000Y-48467164D01*
X32910000Y-48682836D02*
X32910000Y-48467164D01*
%TO.C,R13*%
X51958641Y-41365000D02*
X51651359Y-41365000D01*
X51958641Y-42125000D02*
X51651359Y-42125000D01*
%TO.C,C27*%
X31790000Y-46642164D02*
X31790000Y-46857836D01*
X32510000Y-46642164D02*
X32510000Y-46857836D01*
%TO.C,C56*%
X34965000Y-26342164D02*
X34965000Y-26557836D01*
X35685000Y-26342164D02*
X35685000Y-26557836D01*
%TO.C,R53*%
X78968641Y50000D02*
X78661359Y50000D01*
X78968641Y-710000D02*
X78661359Y-710000D01*
%TO.C,C6*%
X37763748Y-51040000D02*
X38286252Y-51040000D01*
X37763748Y-52510000D02*
X38286252Y-52510000D01*
%TO.C,R5*%
X34320000Y-56446359D02*
X34320000Y-56753641D01*
X35080000Y-56446359D02*
X35080000Y-56753641D01*
%TO.C,C61*%
X34507836Y-20190000D02*
X34292164Y-20190000D01*
X34507836Y-20910000D02*
X34292164Y-20910000D01*
%TO.C,L3*%
X39850000Y-51475000D02*
X39850000Y-53975000D01*
X41960000Y-53975000D02*
X41960000Y-51475000D01*
%TO.C,C40*%
X28880000Y-42067164D02*
X28880000Y-42282836D01*
X29600000Y-42067164D02*
X29600000Y-42282836D01*
%TO.C,R15*%
X35053641Y-28395000D02*
X34746359Y-28395000D01*
X35053641Y-29155000D02*
X34746359Y-29155000D01*
%TO.C,R23*%
X14621359Y-32930000D02*
X14928641Y-32930000D01*
X14621359Y-32170000D02*
X14928641Y-32170000D01*
%TO.C,R27*%
X6288641Y-4610000D02*
X5981359Y-4610000D01*
X6288641Y-5370000D02*
X5981359Y-5370000D01*
%TO.C,R10*%
X18888859Y-48932500D02*
X19196141Y-48932500D01*
X18888859Y-49692500D02*
X19196141Y-49692500D01*
%TO.C,R8*%
X22520000Y-53671359D02*
X22520000Y-53978641D01*
X23280000Y-53671359D02*
X23280000Y-53978641D01*
%TO.C,R38*%
X55418641Y-1825000D02*
X55111359Y-1825000D01*
X55418641Y-2585000D02*
X55111359Y-2585000D01*
%TO.C,C46*%
X38615000Y-45917164D02*
X38615000Y-46132836D01*
X39335000Y-45917164D02*
X39335000Y-46132836D01*
%TO.C,R52*%
X78968641Y2040000D02*
X78661359Y2040000D01*
X78968641Y1280000D02*
X78661359Y1280000D01*
%TO.C,C80*%
X18832836Y-46565000D02*
X18617164Y-46565000D01*
X18832836Y-47285000D02*
X18617164Y-47285000D01*
%TO.C,C92*%
X19985000Y-26432836D02*
X19985000Y-26217164D01*
X19265000Y-26432836D02*
X19265000Y-26217164D01*
%TO.C,C53*%
X25432836Y-29627836D02*
X25217164Y-29627836D01*
X25432836Y-28907836D02*
X25217164Y-28907836D01*
%TO.C,R12*%
X15453641Y-48920000D02*
X15146359Y-48920000D01*
X15453641Y-49680000D02*
X15146359Y-49680000D01*
%TO.C,C14*%
X28692164Y-39490000D02*
X28907836Y-39490000D01*
X28692164Y-40210000D02*
X28907836Y-40210000D01*
%TO.C,R30*%
X53993641Y-33445000D02*
X53686359Y-33445000D01*
X53993641Y-34205000D02*
X53686359Y-34205000D01*
%TO.C,R9*%
X66533641Y-41275000D02*
X66226359Y-41275000D01*
X66533641Y-42035000D02*
X66226359Y-42035000D01*
%TO.C,R48*%
X76058641Y50000D02*
X75751359Y50000D01*
X76058641Y-710000D02*
X75751359Y-710000D01*
%TO.C,RN2*%
X55085000Y-28725000D02*
X55585000Y-28725000D01*
X55085000Y-30285000D02*
X55585000Y-30285000D01*
%TO.C,C44*%
X36795000Y-47057836D02*
X36795000Y-46842164D01*
X37515000Y-47057836D02*
X37515000Y-46842164D01*
%TO.C,C36*%
X33292164Y-42040000D02*
X33507836Y-42040000D01*
X33292164Y-42760000D02*
X33507836Y-42760000D01*
%TO.C,C17*%
X28692164Y-40415000D02*
X28907836Y-40415000D01*
X28692164Y-41135000D02*
X28907836Y-41135000D01*
%TO.C,R59*%
X81878641Y-1940000D02*
X81571359Y-1940000D01*
X81878641Y-2700000D02*
X81571359Y-2700000D01*
%TO.C,C2*%
X32171920Y-57765000D02*
X32453080Y-57765000D01*
X32171920Y-58785000D02*
X32453080Y-58785000D01*
%TO.C,R26*%
X24105000Y-21278641D02*
X24105000Y-20971359D01*
X23345000Y-21278641D02*
X23345000Y-20971359D01*
%TO.C,R40*%
X55418641Y-5805000D02*
X55111359Y-5805000D01*
X55418641Y-6565000D02*
X55111359Y-6565000D01*
%TO.C,C41*%
X36942164Y-42040000D02*
X37157836Y-42040000D01*
X36942164Y-42760000D02*
X37157836Y-42760000D01*
%TO.C,C19*%
X29840000Y-41217164D02*
X29840000Y-41432836D01*
X30560000Y-41217164D02*
X30560000Y-41432836D01*
%TO.C,C95*%
X22040000Y-35667164D02*
X22040000Y-35882836D01*
X22760000Y-35667164D02*
X22760000Y-35882836D01*
%TO.C,C51*%
X25440000Y-27760000D02*
X25440000Y-27975672D01*
X26160000Y-27760000D02*
X26160000Y-27975672D01*
%TO.C,C55*%
X31990000Y-27392164D02*
X31990000Y-27607836D01*
X32710000Y-27392164D02*
X32710000Y-27607836D01*
D13*
%TO.C,U9*%
X21875000Y-14263800D02*
X21875000Y-16851300D01*
X21875000Y-18713600D02*
X21875000Y-18730100D01*
X21875000Y-18730100D02*
X33125000Y-18730100D01*
X31718800Y-12735100D02*
X23281200Y-12735100D01*
X33125000Y-16851300D02*
X33125000Y-14263800D01*
X33125000Y-18730100D02*
X33125000Y-18713600D01*
X23099901Y-19125000D02*
X23099901Y-19125000D01*
X23099901Y-19125000D01*
X23099901Y-19125000D01*
X23099901Y-19125000D01*
X23099901Y-19125000D01*
X23099901Y-19125001D01*
X23099901Y-19125001D01*
X23099901Y-19125001D01*
X23099901Y-19125001D01*
X23099901Y-19125001D01*
X23099901Y-19125001D01*
X23099901Y-19125001D01*
X23099900Y-19125001D01*
X23099900Y-19125001D01*
X23099900Y-19125001D01*
X23099900Y-19125001D01*
X23099900Y-19125001D01*
X23099900Y-19125001D01*
X23099900Y-19125001D01*
X23099900Y-19125001D01*
X23099900Y-19125001D01*
X23099900Y-19125001D01*
X23099900Y-19125001D01*
X23099900Y-19125001D01*
X23099899Y-19125001D01*
X23099899Y-19125001D01*
X23099899Y-19125001D01*
X23099899Y-19125001D01*
X23099899Y-19125001D01*
X23099899Y-19125001D01*
X23099899Y-19125000D01*
X23099899Y-19125000D01*
X23099899Y-19125000D01*
X23099899Y-19125000D01*
X23099899Y-19125000D01*
X23099899Y-19125000D01*
X23099899Y-19125000D02*
X23099899Y-19125000D01*
X23099899Y-19125000D01*
X23099899Y-19125000D01*
X23099899Y-19125000D01*
X23099899Y-19125000D01*
X23099899Y-19125000D01*
X23099899Y-19124999D01*
X23099899Y-19124999D01*
X23099899Y-19124999D01*
X23099899Y-19124999D01*
X23099899Y-19124999D01*
X23099900Y-19124999D01*
X23099900Y-19124999D01*
X23099900Y-19124999D01*
X23099900Y-19124999D01*
X23099900Y-19124999D01*
X23099900Y-19124999D01*
X23099900Y-19124999D01*
X23099900Y-19124999D01*
X23099900Y-19124999D01*
X23099900Y-19124999D01*
X23099900Y-19124999D01*
X23099900Y-19124999D01*
X23099901Y-19124999D01*
X23099901Y-19124999D01*
X23099901Y-19124999D01*
X23099901Y-19124999D01*
X23099901Y-19124999D01*
X23099901Y-19124999D01*
X23099901Y-19125000D01*
X23099901Y-19125000D01*
X23099901Y-19125000D01*
X23099901Y-19125000D01*
X23099901Y-19125000D01*
X23099901Y-19125000D01*
X23099901Y-19125000D01*
D11*
%TO.C,D1*%
X54565000Y-46345000D02*
X51905000Y-46345000D01*
X54565000Y-46345000D02*
X54565000Y-48045000D01*
X54565000Y-48045000D02*
X51905000Y-48045000D01*
D12*
%TO.C,RN1*%
X64050000Y-19160000D02*
G75*
G02*
X63850000Y-19160000I-100000J0D01*
G01*
X63850000Y-19160000D02*
G75*
G02*
X64050000Y-19160000I100000J0D01*
G01*
D11*
%TO.C,C78*%
X18617164Y-46360000D02*
X18832836Y-46360000D01*
X18617164Y-45640000D02*
X18832836Y-45640000D01*
%TO.C,C21*%
X35757836Y-46815000D02*
X35542164Y-46815000D01*
X35757836Y-47535000D02*
X35542164Y-47535000D01*
%TO.C,C35*%
X30340000Y-48657836D02*
X30340000Y-48442164D01*
X31060000Y-48657836D02*
X31060000Y-48442164D01*
%TO.C,C48*%
X36682836Y-40665000D02*
X36467164Y-40665000D01*
X36682836Y-41385000D02*
X36467164Y-41385000D01*
%TO.C,Q2*%
X18977500Y-50750000D02*
X18977500Y-50100000D01*
X18977500Y-50750000D02*
X18977500Y-51400000D01*
X22097500Y-50750000D02*
X22097500Y-50100000D01*
X22097500Y-50750000D02*
X22097500Y-51400000D01*
X22377500Y-52152500D02*
X22047500Y-51912500D01*
X22377500Y-51672500D01*
X22377500Y-52152500D01*
G36*
X22377500Y-52152500D02*
G01*
X22047500Y-51912500D01*
X22377500Y-51672500D01*
X22377500Y-52152500D01*
G37*
%TO.C,C97*%
X14017164Y-43510000D02*
X14232836Y-43510000D01*
X14017164Y-42790000D02*
X14232836Y-42790000D01*
%TO.C,R6*%
X35270000Y-56753641D02*
X35270000Y-56446359D01*
X36030000Y-56753641D02*
X36030000Y-56446359D01*
%TO.C,R47*%
X76058641Y2040000D02*
X75751359Y2040000D01*
X76058641Y1280000D02*
X75751359Y1280000D01*
%TO.C,FB1*%
X14460000Y-45774622D02*
X14460000Y-44975378D01*
X13340000Y-45774622D02*
X13340000Y-44975378D01*
%TO.C,R54*%
X78968641Y-1940000D02*
X78661359Y-1940000D01*
X78968641Y-2700000D02*
X78661359Y-2700000D01*
%TO.C,C11*%
X28692164Y-38565000D02*
X28907836Y-38565000D01*
X28692164Y-39285000D02*
X28907836Y-39285000D01*
%TO.C,C25*%
X30137901Y-44612263D02*
X30353573Y-44612263D01*
X30137901Y-45332263D02*
X30353573Y-45332263D01*
%TO.C,Q1*%
X18365000Y-57275000D02*
X18365000Y-56625000D01*
X18365000Y-57275000D02*
X18365000Y-57925000D01*
X21485000Y-57275000D02*
X21485000Y-56625000D01*
X21485000Y-57275000D02*
X21485000Y-57925000D01*
X18415000Y-56112500D02*
X18085000Y-56352500D01*
X18085000Y-55872500D01*
X18415000Y-56112500D01*
G36*
X18415000Y-56112500D02*
G01*
X18085000Y-56352500D01*
X18085000Y-55872500D01*
X18415000Y-56112500D01*
G37*
%TO.C,C91*%
X21107836Y-25515000D02*
X20892164Y-25515000D01*
X21107836Y-26235000D02*
X20892164Y-26235000D01*
%TO.C,C37*%
X35332836Y-42965000D02*
X35117164Y-42965000D01*
X35332836Y-43685000D02*
X35117164Y-43685000D01*
%TO.C,C43*%
X37712836Y-45215000D02*
X37497164Y-45215000D01*
X37712836Y-45935000D02*
X37497164Y-45935000D01*
%TO.C,C9*%
X16263748Y-55427500D02*
X16786252Y-55427500D01*
X16263748Y-56897500D02*
X16786252Y-56897500D01*
%TO.C,C98*%
X14017164Y-42565000D02*
X14232836Y-42565000D01*
X14017164Y-41845000D02*
X14232836Y-41845000D01*
%TO.C,R19*%
X18295000Y-53996359D02*
X18295000Y-54303641D01*
X19055000Y-53996359D02*
X19055000Y-54303641D01*
%TO.C,R20*%
X72478641Y-18795000D02*
X72171359Y-18795000D01*
X72478641Y-19555000D02*
X72171359Y-19555000D01*
%TO.C,R2*%
X23420000Y-56828641D02*
X23420000Y-56521359D01*
X24180000Y-56828641D02*
X24180000Y-56521359D01*
%TO.C,C74*%
X25960000Y-21207836D02*
X25960000Y-20992164D01*
X25240000Y-21207836D02*
X25240000Y-20992164D01*
%TO.C,C77*%
X17765000Y-44472164D02*
X17765000Y-44687836D01*
X18485000Y-44472164D02*
X18485000Y-44687836D01*
%TO.C,C10*%
X16238748Y-53452500D02*
X16761252Y-53452500D01*
X16238748Y-54922500D02*
X16761252Y-54922500D01*
%TO.C,C69*%
X26760000Y-46207836D02*
X26760000Y-45992164D01*
X26040000Y-46207836D02*
X26040000Y-45992164D01*
%TO.C,Q3*%
X16862500Y-49940000D02*
X16212500Y-49940000D01*
X16862500Y-49940000D02*
X17512500Y-49940000D01*
X16862500Y-53060000D02*
X16212500Y-53060000D01*
X16862500Y-53060000D02*
X17512500Y-53060000D01*
X15940000Y-53340000D02*
X15460000Y-53340000D01*
X15700000Y-53010000D01*
X15940000Y-53340000D01*
G36*
X15940000Y-53340000D02*
G01*
X15460000Y-53340000D01*
X15700000Y-53010000D01*
X15940000Y-53340000D01*
G37*
%TO.C,C24*%
X30137901Y-45537263D02*
X30353573Y-45537263D01*
X30137901Y-46257263D02*
X30353573Y-46257263D01*
%TO.C,R22*%
X23520000Y-28028641D02*
X23520000Y-27721359D01*
X24280000Y-28028641D02*
X24280000Y-27721359D01*
%TO.C,C3*%
X25913748Y-51115000D02*
X26436252Y-51115000D01*
X25913748Y-52585000D02*
X26436252Y-52585000D01*
%TO.C,U3*%
X24465000Y-55325000D02*
X24465000Y-54525000D01*
X24465000Y-55325000D02*
X24465000Y-56125000D01*
X27685000Y-54325000D02*
X27685000Y-56125000D01*
X24515000Y-54025000D02*
X24185000Y-54265000D01*
X24185000Y-53785000D01*
X24515000Y-54025000D01*
G36*
X24515000Y-54025000D02*
G01*
X24185000Y-54265000D01*
X24185000Y-53785000D01*
X24515000Y-54025000D01*
G37*
%TO.C,Y3*%
X19110000Y-26165000D02*
X19110000Y-29585000D01*
X19110000Y-29585000D02*
X14990000Y-29585000D01*
%TO.C,R34*%
X34371359Y-13930000D02*
X34678641Y-13930000D01*
X34371359Y-13170000D02*
X34678641Y-13170000D01*
%TO.C,C64*%
X26190000Y-23482836D02*
X26190000Y-23267164D01*
X26910000Y-23482836D02*
X26910000Y-23267164D01*
%TO.C,C1*%
X26259420Y-57815000D02*
X26540580Y-57815000D01*
X26259420Y-58835000D02*
X26540580Y-58835000D01*
%TO.C,R11*%
X16998859Y-48932500D02*
X17306141Y-48932500D01*
X16998859Y-49692500D02*
X17306141Y-49692500D01*
%TO.C,R36*%
X72478641Y-28745000D02*
X72171359Y-28745000D01*
X72478641Y-29505000D02*
X72171359Y-29505000D01*
%TO.C,C23*%
X38590000Y-39542164D02*
X38590000Y-39757836D01*
X39310000Y-39542164D02*
X39310000Y-39757836D01*
%TO.C,C66*%
X38982836Y-43840000D02*
X38767164Y-43840000D01*
X38982836Y-44560000D02*
X38767164Y-44560000D01*
%TO.C,R41*%
X55418641Y-7795000D02*
X55111359Y-7795000D01*
X55418641Y-8555000D02*
X55111359Y-8555000D01*
%TO.C,R4*%
X29332500Y-56753641D02*
X29332500Y-56446359D01*
X30092500Y-56753641D02*
X30092500Y-56446359D01*
%TO.C,R31*%
X53993641Y-31595000D02*
X53686359Y-31595000D01*
X53993641Y-32355000D02*
X53686359Y-32355000D01*
%TO.C,C73*%
X24290000Y-20992164D02*
X24290000Y-21207836D01*
X25010000Y-20992164D02*
X25010000Y-21207836D01*
%TO.C,C32*%
X30515000Y-43492164D02*
X30515000Y-43707836D01*
X31235000Y-43492164D02*
X31235000Y-43707836D01*
%TO.C,R32*%
X34411359Y-15855000D02*
X34718641Y-15855000D01*
X34411359Y-15095000D02*
X34718641Y-15095000D01*
%TO.C,R46*%
X13946359Y-40695000D02*
X14253641Y-40695000D01*
X13946359Y-39935000D02*
X14253641Y-39935000D01*
%TO.C,R17*%
X27321359Y-33545000D02*
X27628641Y-33545000D01*
X27321359Y-34305000D02*
X27628641Y-34305000D01*
%TO.C,C5*%
X38109420Y-57765000D02*
X38390580Y-57765000D01*
X38109420Y-58785000D02*
X38390580Y-58785000D01*
%TO.C,R56*%
X78968641Y-5920000D02*
X78661359Y-5920000D01*
X78968641Y-6680000D02*
X78661359Y-6680000D01*
%TO.C,C31*%
X33297164Y-42965000D02*
X33512836Y-42965000D01*
X33297164Y-43685000D02*
X33512836Y-43685000D01*
%TO.C,C34*%
X31665000Y-44217164D02*
X31665000Y-44432836D01*
X32385000Y-44217164D02*
X32385000Y-44432836D01*
%TO.C,C49*%
X27282836Y-27040000D02*
X27067164Y-27040000D01*
X27282836Y-27760000D02*
X27067164Y-27760000D01*
%TO.C,C7*%
X23440000Y-53717164D02*
X23440000Y-53932836D01*
X24160000Y-53717164D02*
X24160000Y-53932836D01*
%TO.C,C57*%
X27817164Y-23490000D02*
X28032836Y-23490000D01*
X27817164Y-24210000D02*
X28032836Y-24210000D01*
%TO.C,R24*%
X16770000Y-30971359D02*
X16770000Y-31278641D01*
X17530000Y-30971359D02*
X17530000Y-31278641D01*
%TO.C,R50*%
X76058641Y-3930000D02*
X75751359Y-3930000D01*
X76058641Y-4690000D02*
X75751359Y-4690000D01*
%TO.C,C54*%
X27740000Y-25317164D02*
X27740000Y-25532836D01*
X28460000Y-25317164D02*
X28460000Y-25532836D01*
%TO.C,C22*%
X34190000Y-48657836D02*
X34190000Y-48442164D01*
X34910000Y-48657836D02*
X34910000Y-48442164D01*
%TO.C,R25*%
X34430000Y-17153641D02*
X34430000Y-16846359D01*
X33670000Y-17153641D02*
X33670000Y-16846359D01*
%TO.C,C4*%
X31851248Y-51040000D02*
X32373752Y-51040000D01*
X31851248Y-52510000D02*
X32373752Y-52510000D01*
%TO.C,C65*%
X26215000Y-32657836D02*
X26215000Y-32442164D01*
X26935000Y-32657836D02*
X26935000Y-32442164D01*
%TO.C,C33*%
X33932836Y-46815000D02*
X33717164Y-46815000D01*
X33932836Y-47535000D02*
X33717164Y-47535000D01*
%TO.C,R39*%
X13946359Y-37835000D02*
X14253641Y-37835000D01*
X13946359Y-37075000D02*
X14253641Y-37075000D01*
%TO.C,L2*%
X33912500Y-51450000D02*
X33912500Y-53950000D01*
X36022500Y-53950000D02*
X36022500Y-51450000D01*
%TO.C,R44*%
X13936359Y-38785000D02*
X14243641Y-38785000D01*
X13936359Y-38025000D02*
X14243641Y-38025000D01*
%TO.C,R28*%
X6288641Y-6600000D02*
X5981359Y-6600000D01*
X6288641Y-7360000D02*
X5981359Y-7360000D01*
%TO.C,R1*%
X22470000Y-56521359D02*
X22470000Y-56828641D01*
X23230000Y-56521359D02*
X23230000Y-56828641D01*
%TO.C,C99*%
X15767164Y-36585000D02*
X15982836Y-36585000D01*
X15767164Y-35865000D02*
X15982836Y-35865000D01*
%TO.C,C28*%
X30142164Y-46815000D02*
X30357836Y-46815000D01*
X30142164Y-47535000D02*
X30357836Y-47535000D01*
%TO.C,C60*%
X34990000Y-32907836D02*
X34990000Y-32692164D01*
X35710000Y-32907836D02*
X35710000Y-32692164D01*
%TO.C,C101*%
X22507836Y-38690000D02*
X22292164Y-38690000D01*
X22507836Y-39410000D02*
X22292164Y-39410000D01*
%TO.C,C16*%
X33565000Y-39592164D02*
X33565000Y-39807836D01*
X34285000Y-39592164D02*
X34285000Y-39807836D01*
%TO.C,C20*%
X28515000Y-45867164D02*
X28515000Y-46082836D01*
X29235000Y-45867164D02*
X29235000Y-46082836D01*
%TO.C,C12*%
X36542164Y-38940000D02*
X36757836Y-38940000D01*
X36542164Y-39660000D02*
X36757836Y-39660000D01*
%TO.C,R43*%
X13936359Y-39745000D02*
X14243641Y-39745000D01*
X13936359Y-38985000D02*
X14243641Y-38985000D01*
%TO.C,U4*%
X30390000Y-55250000D02*
X30390000Y-54450000D01*
X30390000Y-55250000D02*
X30390000Y-56050000D01*
X33610000Y-54250000D02*
X33610000Y-56050000D01*
X30440000Y-53950000D02*
X30110000Y-54190000D01*
X30110000Y-53710000D01*
X30440000Y-53950000D01*
G36*
X30440000Y-53950000D02*
G01*
X30110000Y-54190000D01*
X30110000Y-53710000D01*
X30440000Y-53950000D01*
G37*
%TO.C,R14*%
X29345000Y-27646359D02*
X29345000Y-27953641D01*
X30105000Y-27646359D02*
X30105000Y-27953641D01*
%TO.C,C15*%
X37665000Y-40757836D02*
X37665000Y-40542164D01*
X38385000Y-40757836D02*
X38385000Y-40542164D01*
%TO.C,C59*%
X34965000Y-22317164D02*
X34965000Y-22532836D01*
X35685000Y-22317164D02*
X35685000Y-22532836D01*
%TO.C,C47*%
X39890000Y-43857836D02*
X39890000Y-43642164D01*
X40610000Y-43857836D02*
X40610000Y-43642164D01*
%TO.C,C62*%
X29232836Y-21240000D02*
X29017164Y-21240000D01*
X29232836Y-21960000D02*
X29017164Y-21960000D01*
%TO.C,C8*%
X16263748Y-57397500D02*
X16786252Y-57397500D01*
X16263748Y-58867500D02*
X16786252Y-58867500D01*
%TO.C,C96*%
X22057836Y-36815000D02*
X21842164Y-36815000D01*
X22057836Y-37535000D02*
X21842164Y-37535000D01*
%TO.C,C30*%
X31265000Y-48682836D02*
X31265000Y-48467164D01*
X31985000Y-48682836D02*
X31985000Y-48467164D01*
%TO.C,R3*%
X28357500Y-56446359D02*
X28357500Y-56753641D01*
X29117500Y-56446359D02*
X29117500Y-56753641D01*
%TO.C,R55*%
X78968641Y-3930000D02*
X78661359Y-3930000D01*
X78968641Y-4690000D02*
X78661359Y-4690000D01*
D12*
%TO.C,RN3*%
X51100000Y-18575000D02*
G75*
G02*
X50900000Y-18575000I-100000J0D01*
G01*
X50900000Y-18575000D02*
G75*
G02*
X51100000Y-18575000I100000J0D01*
G01*
D11*
%TO.C,R42*%
X58328641Y2155000D02*
X58021359Y2155000D01*
X58328641Y1395000D02*
X58021359Y1395000D01*
%TO.C,R58*%
X81878641Y50000D02*
X81571359Y50000D01*
X81878641Y-710000D02*
X81571359Y-710000D01*
%TO.C,R7*%
X23453641Y-54870000D02*
X23146359Y-54870000D01*
X23453641Y-55630000D02*
X23146359Y-55630000D01*
%TO.C,R49*%
X76058641Y-1940000D02*
X75751359Y-1940000D01*
X76058641Y-2700000D02*
X75751359Y-2700000D01*
%TO.C,C63*%
X34965000Y-24557836D02*
X34965000Y-24342164D01*
X35685000Y-24557836D02*
X35685000Y-24342164D01*
%TO.C,R45*%
X13946359Y-41660000D02*
X14253641Y-41660000D01*
X13946359Y-40900000D02*
X14253641Y-40900000D01*
%TO.C,C58*%
X26190000Y-21632836D02*
X26190000Y-21417164D01*
X26910000Y-21632836D02*
X26910000Y-21417164D01*
%TO.C,C79*%
X21490000Y-42887164D02*
X21490000Y-43102836D01*
X22210000Y-42887164D02*
X22210000Y-43102836D01*
%TO.C,C13*%
X31677836Y-41390000D02*
X31462164Y-41390000D01*
X31677836Y-42110000D02*
X31462164Y-42110000D01*
%TO.C,C45*%
X39540000Y-45917164D02*
X39540000Y-46132836D01*
X40260000Y-45917164D02*
X40260000Y-46132836D01*
%TO.C,C76*%
X19867164Y-44115000D02*
X20082836Y-44115000D01*
X19867164Y-44835000D02*
X20082836Y-44835000D01*
%TO.C,C42*%
X38982836Y-42040000D02*
X38767164Y-42040000D01*
X38982836Y-42760000D02*
X38767164Y-42760000D01*
%TO.C,C18*%
X33581506Y-37971475D02*
X33365834Y-37971475D01*
X33581506Y-38691475D02*
X33365834Y-38691475D01*
%TO.C,C38*%
X27965000Y-42067164D02*
X27965000Y-42282836D01*
X28685000Y-42067164D02*
X28685000Y-42282836D01*
%TO.C,C75*%
X64785000Y-10412836D02*
X64785000Y-10197164D01*
X64065000Y-10412836D02*
X64065000Y-10197164D01*
%TO.C,L1*%
X28000000Y-51525000D02*
X28000000Y-54025000D01*
X30110000Y-54025000D02*
X30110000Y-51525000D01*
%TO.C,C29*%
X29392164Y-43615000D02*
X29607836Y-43615000D01*
X29392164Y-44335000D02*
X29607836Y-44335000D01*
%TD*%
M02*
