M48
; DRILL file {KiCad 9.0.3} date 2025-09-01T16:13:16+0300
; FORMAT={-:-/ absolute / metric / decimal}
; #@! TF.CreationDate,2025-09-01T16:13:16+03:00
; #@! TF.GenerationSoftware,Kicad,Pcbnew,9.0.3
; #@! TF.FileFunction,Plated,1,6,PTH
FMAT,2
METRIC
; #@! TA.AperFunction,Plated,PTH,ComponentDrill
T1C0.200
; #@! TA.AperFunction,Plated,PTH,ViaDrill
T2C0.300
; #@! TA.AperFunction,Plated,PTH,ComponentDrill
T3C2.600
%
G90
G05
T1
X16.075Y-21.875
X16.075Y-22.575
X16.075Y-23.375
X16.075Y-24.075
X16.775Y-21.875
X16.775Y-22.575
X16.775Y-23.375
X16.775Y-24.075
X17.22Y-38.435
X17.22Y-39.335
X17.22Y-40.235
X17.475Y-21.875
X17.475Y-22.575
X17.475Y-23.375
X17.475Y-24.075
X18.12Y-40.235
X18.275Y-21.875
X18.275Y-22.575
X18.275Y-23.375
X18.275Y-24.075
T2
X13.0Y-22.025
X13.025Y-23.075
X13.05Y-42.225
X13.055Y-43.17
X13.125Y-23.65
X13.125Y-24.5
X13.18Y-53.81
X13.19Y-54.4
X13.19Y-55.55
X13.2Y-54.98
X13.21Y-56.13
X13.22Y-56.69
X13.23Y-57.24
X13.24Y-58.41
X13.24Y-58.99
X13.25Y-35.675
X13.25Y-57.8
X13.275Y-22.55
X13.325Y-28.85
X13.375Y-21.225
X13.425Y-34.825
X13.574Y-21.984
X13.6Y-36.75
X13.625Y-24.175
X13.675Y-23.125
X13.75Y-24.9
X13.85Y-53.8
X13.86Y-54.39
X13.86Y-55.54
X13.87Y-54.97
X13.88Y-56.12
X13.89Y-56.68
X13.9Y-57.23
X13.91Y-58.4
X13.91Y-58.98
X13.92Y-57.79
X14.025Y-27.9
X14.025Y-28.55
X14.025Y-29.125
X14.025Y-34.3
X14.025Y-35.325
X14.35Y-33.6
X14.425Y-21.25
X14.425Y-24.575
X14.5Y-53.8
X14.51Y-54.39
X14.51Y-55.54
X14.52Y-54.97
X14.53Y-56.12
X14.54Y-56.68
X14.55Y-57.23
X14.56Y-58.4
X14.56Y-58.98
X14.57Y-57.79
X14.6Y-35.7
X15.175Y-38.4
X15.175Y-39.37
X15.2Y-41.295
X15.225Y-39.95
X15.575Y-19.825
X15.8Y-35.6
X16.07Y-60.23
X16.225Y-20.175
X16.55Y-29.7
X16.689Y-34.5
X16.74Y-60.22
X17.0Y-28.325
X17.1Y-36.45
X17.2Y-29.675
X17.39Y-60.22
X17.875Y-36.625
X17.925Y-25.75
X18.35Y-43.675
X18.825Y-25.75
X18.9Y-42.7
X18.975Y-44.45
X19.0Y-20.175
X19.05Y-26.35
X19.225Y-48.15
X19.275Y-45.175
X19.32Y-53.64
X19.475Y-42.7
X19.6Y-20.175
X19.625Y-20.825
X19.675Y-46.15
X19.746Y-48.452
X19.85Y-43.675
X19.85Y-45.175
X20.075Y-24.775
X20.15Y-42.65
X20.196Y-22.58
X20.25Y-48.175
X20.324Y-18.291
X20.325Y-18.938
X20.35Y-24.075
X20.35Y-46.175
X20.35Y-17.663
X20.375Y-21.1
X20.376Y-21.747
X20.401Y-20.472
X20.425Y-26.775
X20.8Y-48.375
X20.825Y-43.1
X20.825Y-43.825
X20.85Y-42.5
X20.85Y-45.175
X20.85Y-45.775
X20.875Y-44.45
X20.9Y-38.1
X20.919Y-33.899
X20.925Y-17.675
X20.951Y-21.759
X20.976Y-20.484
X21.0Y-26.775
X21.025Y-19.725
X21.05Y-18.975
X21.05Y-24.025
X21.275Y-23.05
X21.425Y-48.4
X21.48Y-26.495
X21.5Y-22.325
X21.525Y-21.725
X21.55Y-36.15
X21.625Y-38.175
X21.775Y-23.85
X22.075Y-48.175
X22.11Y-56.15
X22.21Y-53.32
X22.25Y-23.425
X22.375Y-21.675
X22.375Y-22.3
X22.624Y-19.349
X22.625Y-18.775
X22.625Y-20.475
X22.625Y-21.125
X22.626Y-19.901
X22.85Y-25.1
X22.85Y-43.25
X22.9Y-42.6
X23.1Y-25.65
X23.3Y-26.7
X23.45Y-23.6
X23.487Y-40.214
X23.55Y-24.25
X23.6Y-39.65
X23.7Y-39.1
X23.8Y-25.1
X23.9Y-43.7
X24.0Y-42.75
X24.25Y-39.1
X24.3Y-39.699
X24.3Y-48.5
X24.345Y-52.362
X24.352Y-51.372
X24.366Y-51.864
X24.385Y-56.165
X24.487Y-22.613
X24.65Y-52.735
X24.75Y-42.55
X24.85Y-39.3
X24.897Y-25.085
X25.266Y-52.735
X25.4Y-42.65
X25.647Y-25.085
X25.8Y-46.58
X25.833Y-52.729
X25.9Y-38.45
X26.1Y-55.85
X26.1Y-56.4
X26.1Y-56.9
X26.1Y-57.4
X26.25Y-42.55
X26.25Y-51.5
X26.25Y-52.0
X26.33Y-25.68
X26.425Y-30.0
X26.6Y-24.8
X26.7Y-37.65
X27.0Y-30.0
X27.05Y-28.4
X27.17Y-24.4
X27.2Y-21.2
X27.2Y-22.0
X27.2Y-22.8
X27.2Y-25.2
X27.2Y-26.0
X27.2Y-26.8
X27.2Y-30.8
X27.2Y-31.6
X27.2Y-32.4
X27.2Y-33.2
X27.5Y-50.45
X27.916Y-51.481
X27.916Y-51.981
X27.935Y-52.673
X28.145Y-32.0
X28.15Y-21.6
X28.15Y-26.4
X28.15Y-27.2
X28.15Y-28.0
X28.15Y-28.8
X28.15Y-29.6
X28.15Y-30.45
X28.15Y-31.2
X28.435Y-52.673
X28.55Y-34.075
X28.95Y-22.4
X28.95Y-24.0
X28.95Y-27.2
X28.95Y-28.0
X28.95Y-28.8
X28.95Y-29.6
X28.95Y-30.4
X28.95Y-31.2
X28.95Y-32.8
X29.008Y-52.659
X29.1Y-43.25
X29.1Y-44.85
X29.508Y-52.659
X29.871Y-38.4
X29.9Y-42.45
X29.9Y-43.25
X29.9Y-48.05
X29.9Y-48.85
X29.939Y-28.756
X29.95Y-24.0
X30.15Y-36.95
X30.168Y-25.225
X30.168Y-25.975
X30.335Y-56.1
X30.505Y-28.19
X30.6Y-23.65
X30.7Y-39.25
X30.7Y-40.05
X30.7Y-40.85
X30.7Y-42.45
X30.75Y-38.449
X30.95Y-24.65
X31.1Y-37.35
X31.3Y-26.25
X31.4Y-25.45
X31.5Y-27.1
X31.5Y-38.45
X31.5Y-39.25
X31.5Y-40.05
X31.5Y-40.9
X31.5Y-42.45
X31.5Y-43.25
X31.5Y-44.85
X31.5Y-45.65
X31.5Y-46.45
X31.5Y-47.25
X31.658Y-52.707
X32.0Y-26.0
X32.0Y-29.5
X32.025Y-55.3
X32.025Y-55.825
X32.025Y-56.375
X32.025Y-56.875
X32.025Y-57.375
X32.1Y-32.8
X32.225Y-52.7
X32.3Y-37.6
X32.3Y-38.45
X32.3Y-39.25
X32.3Y-40.85
X32.3Y-42.425
X32.3Y-43.25
X32.3Y-45.65
X32.95Y-24.8
X32.95Y-25.6
X32.95Y-27.2
X32.95Y-28.0
X32.95Y-28.8
X32.95Y-29.6
X32.95Y-30.4
X32.95Y-31.2
X32.95Y-32.0
X32.95Y-32.8
X33.1Y-40.05
X33.1Y-41.65
X33.1Y-44.05
X33.1Y-44.85
X33.1Y-46.45
X33.102Y-39.225
X33.281Y-36.869
X33.35Y-20.65
X33.75Y-24.0
X33.75Y-25.6
X33.75Y-28.0
X33.75Y-28.8
X33.75Y-32.8
X33.847Y-37.435
X33.866Y-51.531
X33.866Y-52.031
X33.885Y-52.723
X33.9Y-41.65
X33.9Y-44.05
X33.9Y-44.85
X33.9Y-45.65
X33.9Y-46.45
X33.9Y-48.05
X33.9Y-48.85
X33.9Y-50.45
X33.901Y-40.85
X34.385Y-52.723
X34.65Y-37.2
X34.697Y-21.987
X34.7Y-21.2
X34.7Y-22.8
X34.7Y-23.6
X34.7Y-24.4
X34.7Y-25.2
X34.7Y-26.0
X34.7Y-26.8
X34.7Y-30.0
X34.7Y-30.8
X34.7Y-31.6
X34.7Y-32.4
X34.7Y-33.2
X34.7Y-38.45
X34.7Y-40.05
X34.7Y-40.85
X34.7Y-41.65
X34.7Y-42.45
X34.7Y-44.05
X34.7Y-44.85
X34.7Y-46.45
X34.7Y-49.65
X34.714Y-39.236
X34.765Y-29.42
X34.958Y-52.709
X35.25Y-31.25
X35.458Y-52.709
X35.5Y-39.25
X35.5Y-40.05
X35.5Y-42.45
X35.5Y-44.05
X35.5Y-44.85
X35.5Y-46.45
X35.5Y-48.05
X35.5Y-48.85
X35.55Y-40.85
X35.75Y-37.421
X36.074Y-36.625
X36.26Y-56.1
X36.286Y-44.836
X36.3Y-40.05
X36.3Y-41.65
X36.3Y-45.65
X36.3Y-46.45
X36.404Y-29.9
X37.05Y-37.65
X37.1Y-40.05
X37.1Y-41.65
X37.1Y-43.25
X37.1Y-44.05
X37.1Y-48.05
X37.658Y-52.657
X37.9Y-43.25
X37.9Y-44.05
X37.9Y-44.85
X37.9Y-46.45
X37.9Y-47.25
X38.025Y-55.25
X38.025Y-55.775
X38.025Y-56.325
X38.025Y-56.825
X38.025Y-57.325
X38.225Y-52.65
X38.7Y-41.65
X38.7Y-43.25
X38.7Y-44.85
X38.7Y-47.25
X38.7Y-48.05
X39.49Y-43.242
X39.5Y-40.85
X39.791Y-51.556
X39.791Y-52.056
X39.81Y-52.748
X40.3Y-37.65
X40.31Y-52.748
X40.44Y-50.86
X40.883Y-52.734
X41.3Y-43.5
X41.383Y-52.734
T3
X15.307Y-15.309
X39.486Y-15.314
M30
