%TF.GenerationSoftware,KiCad,Pcbnew,9.0.3*%
%TF.CreationDate,2025-08-17T15:03:40+03:00*%
%TF.ProjectId,ThingsCore-1,5468696e-6773-4436-9f72-652d312e6b69,rev?*%
%TF.SameCoordinates,Original*%
%TF.FileFunction,Copper,L6,Bot*%
%TF.FilePolarity,Positive*%
%FSLAX46Y46*%
G04 Gerber Fmt 4.6, Leading zero omitted, Abs format (unit mm)*
G04 Created by KiCad (PCBNEW 9.0.3) date 2025-08-17 15:03:40*
%MOMM*%
%LPD*%
G01*
G04 APERTURE LIST*
%TA.AperFunction,ComponentPad*%
%ADD10R,5.800000X5.800000*%
%TD*%
%TA.AperFunction,SMDPad,CuDef*%
%ADD11R,0.600000X2.000000*%
%TD*%
%TA.AperFunction,ViaPad*%
%ADD12C,0.450000*%
%TD*%
G04 APERTURE END LIST*
D10*
%TO.P,U1,*%
%TO.N,*%
X15307328Y-15308537D03*
X39486338Y-15314455D03*
D11*
%TO.P,U1,2,2*%
%TO.N,unconnected-(U1-Pad2)*%
X16100000Y-61802500D03*
%TO.P,U1,4,4*%
%TO.N,unconnected-(U1-Pad4)*%
X16900000Y-61802500D03*
%TO.P,U1,6,6*%
%TO.N,unconnected-(U1-Pad6)*%
X17700000Y-61802500D03*
%TO.P,U1,8,8*%
%TO.N,unconnected-(U1-Pad8)*%
X18500000Y-61802500D03*
%TO.P,U1,10,10*%
%TO.N,unconnected-(U1-Pad10)*%
X19300000Y-61802500D03*
%TO.P,U1,12,12*%
%TO.N,unconnected-(U1-Pad12)*%
X20100000Y-61802500D03*
%TO.P,U1,14,14*%
%TO.N,unconnected-(U1-Pad14)*%
X20900000Y-61802500D03*
%TO.P,U1,16,16*%
%TO.N,unconnected-(U1-Pad16)*%
X21700000Y-61802500D03*
%TO.P,U1,18,18*%
%TO.N,unconnected-(U1-Pad18)*%
X25700000Y-61802500D03*
%TO.P,U1,20,20*%
%TO.N,unconnected-(U1-Pad20)*%
X26500000Y-61802500D03*
%TO.P,U1,22,22*%
%TO.N,unconnected-(U1-Pad22)*%
X27300000Y-61802500D03*
%TO.P,U1,24,24*%
%TO.N,unconnected-(U1-Pad24)*%
X28100000Y-61802500D03*
%TO.P,U1,26,26*%
%TO.N,unconnected-(U1-Pad26)*%
X28900000Y-61802500D03*
%TO.P,U1,28,28*%
%TO.N,unconnected-(U1-Pad28)*%
X29700000Y-61802500D03*
%TO.P,U1,30,30*%
%TO.N,unconnected-(U1-Pad30)*%
X30500000Y-61802500D03*
%TO.P,U1,32,32*%
%TO.N,unconnected-(U1-Pad32)*%
X31300000Y-61802500D03*
%TO.P,U1,34,34*%
%TO.N,unconnected-(U1-Pad34)*%
X32100000Y-61802500D03*
%TO.P,U1,36,36*%
%TO.N,unconnected-(U1-Pad36)*%
X32900000Y-61802500D03*
%TO.P,U1,38,38*%
%TO.N,unconnected-(U1-Pad38)*%
X33700000Y-61802500D03*
%TO.P,U1,40,40*%
%TO.N,unconnected-(U1-Pad40)*%
X34500000Y-61802500D03*
%TO.P,U1,42,42*%
%TO.N,unconnected-(U1-Pad42)*%
X35300000Y-61802500D03*
%TO.P,U1,44,44*%
%TO.N,unconnected-(U1-Pad44)*%
X36100000Y-61802500D03*
%TO.P,U1,46,46*%
%TO.N,unconnected-(U1-Pad46)*%
X36900000Y-61802500D03*
%TO.P,U1,48,48*%
%TO.N,unconnected-(U1-Pad48)*%
X37700000Y-61802500D03*
%TO.P,U1,50,50*%
%TO.N,unconnected-(U1-Pad50)*%
X38500000Y-61802500D03*
%TO.P,U1,52,52*%
%TO.N,unconnected-(U1-Pad52)*%
X39300000Y-61802500D03*
%TD*%
D12*
%TO.N,GND*%
X22700000Y-42149998D03*
X20350000Y-34200000D03*
X32800000Y-45300000D03*
X21900000Y-41350000D03*
X25100000Y-36550000D03*
X40200000Y-42100000D03*
X33700000Y-42500000D03*
X39300000Y-39300000D03*
X40200000Y-33300000D03*
X21900000Y-37350000D03*
X17950000Y-42100000D03*
X19500000Y-39750000D03*
X32800000Y-36500000D03*
X33700000Y-39300000D03*
X34500000Y-42500000D03*
X27900000Y-46300000D03*
X22700000Y-40550000D03*
X25900000Y-42149998D03*
X40200000Y-42900000D03*
X21900000Y-39750000D03*
X40200000Y-44500000D03*
X25900000Y-37350000D03*
X40200000Y-34900000D03*
X28950000Y-36550000D03*
X37700000Y-44100000D03*
X40200000Y-36500000D03*
X32800000Y-44619850D03*
X40200000Y-40500000D03*
X28300000Y-32550000D03*
X16350000Y-35000000D03*
X19500000Y-42950000D03*
X17950000Y-35800000D03*
X32800000Y-40500000D03*
X23500000Y-35750000D03*
X32800000Y-41300000D03*
X24300002Y-42950000D03*
X16350000Y-40500000D03*
X25900000Y-38950000D03*
X32800000Y-33300000D03*
X34500000Y-40900000D03*
X32800000Y-34900000D03*
X23500002Y-43750000D03*
X20300000Y-44550002D03*
X21100000Y-37350000D03*
X14700000Y-45350000D03*
X18650000Y-41400000D03*
X21100000Y-41350000D03*
X18700000Y-43750000D03*
X25100000Y-45349998D03*
X39300000Y-42500000D03*
X17900000Y-39750000D03*
X14700000Y-32550000D03*
%TO.N,3V3_VDD*%
X22700000Y-36550002D03*
X22700000Y-37349998D03*
X17900000Y-41350000D03*
X23500000Y-42150000D03*
X18700000Y-39750000D03*
X21900000Y-42150000D03*
X23500000Y-34950000D03*
X19500000Y-37350000D03*
X19500000Y-41350000D03*
X21100000Y-44550002D03*
X21100000Y-42150000D03*
X19500000Y-43750002D03*
X24299998Y-43750000D03*
%TO.N,1V25_CORE*%
X18700000Y-38950000D03*
X21900000Y-38950000D03*
X21100000Y-36550000D03*
X21100000Y-39750000D03*
X21100000Y-38950000D03*
X20300000Y-36550000D03*
X18700000Y-36550000D03*
X25100000Y-39750000D03*
%TO.N,1V35_DDR*%
X24299998Y-36550000D03*
X33700000Y-38500000D03*
X40200000Y-41300000D03*
X32800000Y-42100000D03*
X32800000Y-35700000D03*
X32800000Y-43700000D03*
X32800000Y-39700000D03*
X40200000Y-43700000D03*
X32800000Y-42900000D03*
X34500000Y-40100000D03*
X24293963Y-38942155D03*
X39300000Y-44900000D03*
X38500000Y-39300000D03*
X40200000Y-34100000D03*
X39300000Y-38500000D03*
X40200000Y-45300000D03*
X38500000Y-42500000D03*
X33700000Y-44900000D03*
X23500002Y-37350000D03*
X24300000Y-42150000D03*
X40200000Y-35700000D03*
X24273127Y-40549991D03*
X32800000Y-34100000D03*
%TO.N,/DDR3/DDR_VREF*%
X25100000Y-42150000D03*
X40200000Y-39700000D03*
X33700000Y-36900000D03*
%TO.N,/DDR3/DDR_CLK_N*%
X34500000Y-37700000D03*
X28300000Y-39750000D03*
%TO.N,/DDR3/DDR_CLK_P*%
X27500000Y-39750000D03*
X34500000Y-38500000D03*
%TO.N,/DDR3/ZQ*%
X29025000Y-42775000D03*
X33700000Y-37700000D03*
%TO.N,/DDR3/DDR_CKE*%
X32900000Y-38500000D03*
X25900000Y-40550000D03*
%TO.N,/DDR3/DDR_RESETN*%
X39300000Y-32900000D03*
X28350000Y-36300000D03*
%TO.N,/DDR3/DDR_BA1*%
X33700000Y-36100000D03*
X26700000Y-41350000D03*
%TO.N,/DDR3/DDR_RASN*%
X38500000Y-38500000D03*
X28300000Y-38950000D03*
%TO.N,/DDR3/DDR_BA0*%
X28600000Y-37950000D03*
X39300000Y-36100000D03*
%TO.N,/DDR3/DDR_A4*%
X33700000Y-35300000D03*
X25100000Y-41350000D03*
%TO.N,/DDR3/DDR_A2*%
X38500000Y-34500000D03*
X29600000Y-36700000D03*
%TO.N,/DDR3/DDR_A6*%
X33700000Y-34500000D03*
X27500000Y-41350000D03*
%TO.N,/DDR3/DDR_A11*%
X34500000Y-33700000D03*
X25100000Y-40550000D03*
%TO.N,/DDR3/DDR_A1*%
X34500000Y-34500000D03*
X26700000Y-40550000D03*
%TO.N,/DDR3/DDR_A5*%
X29350000Y-36100000D03*
X39300000Y-34500000D03*
%TO.N,/DDR3/DDR_CSN*%
X39300000Y-36900000D03*
X27500000Y-38900000D03*
%TO.N,/DDR3/DDR_A0*%
X27500000Y-38150000D03*
X38500000Y-35300000D03*
%TO.N,/DDR3/DDR_A13*%
X25100000Y-37350000D03*
X38500000Y-32900000D03*
%TO.N,/DDR3/DDR_ODT*%
X26700000Y-38900000D03*
X40500000Y-38350000D03*
%TO.N,/DDR3/DDR_A15*%
X27500000Y-40550000D03*
X34500000Y-36100000D03*
%TO.N,/DDR3/DDR_A7*%
X39300000Y-33700000D03*
X25900000Y-38150000D03*
%TO.N,/DDR3/DDR_BA2*%
X24300000Y-38150000D03*
X24300000Y-37350000D03*
X38500000Y-36100000D03*
%TO.N,/DDR3/DDR_A10*%
X34500000Y-36900000D03*
X25900000Y-39750000D03*
%TO.N,/DDR3/DDR_WEN*%
X25100000Y-38950000D03*
X38500000Y-36900000D03*
%TO.N,/DDR3/DDR_A9*%
X38500000Y-33700000D03*
X26700000Y-37350000D03*
%TO.N,/DDR3/DDR_A3*%
X26700000Y-38150000D03*
X39300000Y-35300000D03*
%TO.N,/DDR3/DDR_A14*%
X28300000Y-41350000D03*
X35300000Y-33700000D03*
%TO.N,/DDR3/DDR_A12*%
X28300000Y-40550000D03*
X34500000Y-35300000D03*
%TO.N,/DDR3/DDR_A8*%
X33700000Y-33700000D03*
X25900000Y-41350000D03*
%TO.N,/DDR3/DDR_CASN*%
X40500000Y-37700000D03*
X26700000Y-39750000D03*
%TD*%
M02*
