%TF.GenerationSoftware,KiCad,Pcbnew,9.0.3*%
%TF.CreationDate,2025-08-17T15:03:40+03:00*%
%TF.ProjectId,ThingsCore-1,5468696e-6773-4436-9f72-652d312e6b69,rev?*%
%TF.SameCoordinates,Original*%
%TF.FileFunction,Copper,L2,Inr*%
%TF.FilePolarity,Positive*%
%FSLAX46Y46*%
G04 Gerber Fmt 4.6, Leading zero omitted, Abs format (unit mm)*
G04 Created by KiCad (PCBNEW 9.0.3) date 2025-08-17 15:03:40*
%MOMM*%
%LPD*%
G01*
G04 APERTURE LIST*
%TA.AperFunction,ComponentPad*%
%ADD10R,5.800000X5.800000*%
%TD*%
%TA.AperFunction,ViaPad*%
%ADD11C,0.450000*%
%TD*%
G04 APERTURE END LIST*
D10*
%TO.N,*%
%TO.C,U1*%
X15307328Y-15308537D03*
X39486338Y-15314455D03*
%TD*%
D11*
%TO.N,GND*%
X22700000Y-42149998D03*
X20350000Y-34200000D03*
X32800000Y-45300000D03*
X21900000Y-41350000D03*
X25100000Y-36550000D03*
X40200000Y-42100000D03*
X33700000Y-42500000D03*
X39300000Y-39300000D03*
X40200000Y-33300000D03*
X21900000Y-37350000D03*
X17950000Y-42100000D03*
X19500000Y-39750000D03*
X32800000Y-36500000D03*
X33700000Y-39300000D03*
X34500000Y-42500000D03*
X27900000Y-46300000D03*
X22700000Y-40550000D03*
X25900000Y-42149998D03*
X40200000Y-42900000D03*
X21900000Y-39750000D03*
X40200000Y-44500000D03*
X25900000Y-37350000D03*
X40200000Y-34900000D03*
X28950000Y-36550000D03*
X37700000Y-44100000D03*
X40200000Y-36500000D03*
X32800000Y-44619850D03*
X40200000Y-40500000D03*
X28300000Y-32550000D03*
X16350000Y-35000000D03*
X19500000Y-42950000D03*
X17950000Y-35800000D03*
X32800000Y-40500000D03*
X23500000Y-35750000D03*
X32800000Y-41300000D03*
X24300002Y-42950000D03*
X16350000Y-40500000D03*
X25900000Y-38950000D03*
X32800000Y-33300000D03*
X34500000Y-40900000D03*
X32800000Y-34900000D03*
X23500002Y-43750000D03*
X20300000Y-44550002D03*
X21100000Y-37350000D03*
X14700000Y-45350000D03*
X18650000Y-41400000D03*
X21100000Y-41350000D03*
X18700000Y-43750000D03*
X25100000Y-45349998D03*
X39300000Y-42500000D03*
X17900000Y-39750000D03*
X14700000Y-32550000D03*
%TO.N,3V3_VDD*%
X22700000Y-36550002D03*
X22700000Y-37349998D03*
X17900000Y-41350000D03*
X23500000Y-42150000D03*
X18700000Y-39750000D03*
X21900000Y-42150000D03*
X23500000Y-34950000D03*
X19500000Y-37350000D03*
X19500000Y-41350000D03*
X21100000Y-44550002D03*
X21100000Y-42150000D03*
X19500000Y-43750002D03*
X24299998Y-43750000D03*
%TO.N,1V25_CORE*%
X18700000Y-38950000D03*
X21900000Y-38950000D03*
X21100000Y-36550000D03*
X21100000Y-39750000D03*
X21100000Y-38950000D03*
X20300000Y-36550000D03*
X18700000Y-36550000D03*
X25100000Y-39750000D03*
%TO.N,1V35_DDR*%
X24299998Y-36550000D03*
X33700000Y-38500000D03*
X40200000Y-41300000D03*
X32800000Y-42100000D03*
X32800000Y-35700000D03*
X32800000Y-43700000D03*
X32800000Y-39700000D03*
X40200000Y-43700000D03*
X32800000Y-42900000D03*
X34500000Y-40100000D03*
X24293963Y-38942155D03*
X39300000Y-44900000D03*
X38500000Y-39300000D03*
X40200000Y-34100000D03*
X39300000Y-38500000D03*
X40200000Y-45300000D03*
X38500000Y-42500000D03*
X33700000Y-44900000D03*
X23500002Y-37350000D03*
X24300000Y-42150000D03*
X40200000Y-35700000D03*
X24273127Y-40549991D03*
X32800000Y-34100000D03*
%TO.N,/DDR3/DDR_VREF*%
X25100000Y-42150000D03*
X40200000Y-39700000D03*
X33700000Y-36900000D03*
%TO.N,/DDR3/DDR_CLK_N*%
X34500000Y-37700000D03*
X28300000Y-39750000D03*
%TO.N,/DDR3/DDR_CLK_P*%
X27500000Y-39750000D03*
X34500000Y-38500000D03*
%TO.N,/DDR3/ZQ*%
X29025000Y-42775000D03*
X33700000Y-37700000D03*
%TO.N,/DDR3/DDR_CKE*%
X32900000Y-38500000D03*
X25900000Y-40550000D03*
%TO.N,/DDR3/DDR_RESETN*%
X39300000Y-32900000D03*
X28350000Y-36300000D03*
%TO.N,/DDR3/DDR_BA1*%
X33700000Y-36100000D03*
X26700000Y-41350000D03*
%TO.N,/DDR3/DDR_RASN*%
X38500000Y-38500000D03*
X28300000Y-38950000D03*
%TO.N,/DDR3/DDR_BA0*%
X28600000Y-37950000D03*
X39300000Y-36100000D03*
%TO.N,/DDR3/DDR_A4*%
X33700000Y-35300000D03*
X25100000Y-41350000D03*
%TO.N,/DDR3/DDR_A2*%
X38500000Y-34500000D03*
X29600000Y-36700000D03*
%TO.N,/DDR3/DDR_A6*%
X33700000Y-34500000D03*
X27500000Y-41350000D03*
%TO.N,/DDR3/DDR_A11*%
X34500000Y-33700000D03*
X25100000Y-40550000D03*
%TO.N,/DDR3/DDR_A1*%
X34500000Y-34500000D03*
X26700000Y-40550000D03*
%TO.N,/DDR3/DDR_A5*%
X29350000Y-36100000D03*
X39300000Y-34500000D03*
%TO.N,/DDR3/DDR_CSN*%
X39300000Y-36900000D03*
X27500000Y-38900000D03*
%TO.N,/DDR3/DDR_A0*%
X27500000Y-38150000D03*
X38500000Y-35300000D03*
%TO.N,/DDR3/DDR_A13*%
X25100000Y-37350000D03*
X38500000Y-32900000D03*
%TO.N,/DDR3/DDR_ODT*%
X26700000Y-38900000D03*
X40500000Y-38350000D03*
%TO.N,/DDR3/DDR_A15*%
X27500000Y-40550000D03*
X34500000Y-36100000D03*
%TO.N,/DDR3/DDR_A7*%
X39300000Y-33700000D03*
X25900000Y-38150000D03*
%TO.N,/DDR3/DDR_BA2*%
X24300000Y-38150000D03*
X24300000Y-37350000D03*
X38500000Y-36100000D03*
%TO.N,/DDR3/DDR_A10*%
X34500000Y-36900000D03*
X25900000Y-39750000D03*
%TO.N,/DDR3/DDR_WEN*%
X25100000Y-38950000D03*
X38500000Y-36900000D03*
%TO.N,/DDR3/DDR_A9*%
X38500000Y-33700000D03*
X26700000Y-37350000D03*
%TO.N,/DDR3/DDR_A3*%
X26700000Y-38150000D03*
X39300000Y-35300000D03*
%TO.N,/DDR3/DDR_A14*%
X28300000Y-41350000D03*
X35300000Y-33700000D03*
%TO.N,/DDR3/DDR_A12*%
X28300000Y-40550000D03*
X34500000Y-35300000D03*
%TO.N,/DDR3/DDR_A8*%
X33700000Y-33700000D03*
X25900000Y-41350000D03*
%TO.N,/DDR3/DDR_CASN*%
X40500000Y-37700000D03*
X26700000Y-39750000D03*
%TD*%
%TA.AperFunction,Conductor*%
%TO.N,GND*%
G36*
X42093039Y-18519685D02*
G01*
X42138794Y-18572489D01*
X42150000Y-18624000D01*
X42150000Y-58976000D01*
X42130315Y-59043039D01*
X42077511Y-59088794D01*
X42026000Y-59100000D01*
X12774000Y-59100000D01*
X12706961Y-59080315D01*
X12661206Y-59027511D01*
X12650000Y-58976000D01*
X12650000Y-44493984D01*
X20674500Y-44493984D01*
X20674500Y-44606020D01*
X20703497Y-44714239D01*
X20759515Y-44811265D01*
X20838737Y-44890487D01*
X20935763Y-44946505D01*
X21043982Y-44975502D01*
X21043984Y-44975502D01*
X21156016Y-44975502D01*
X21156018Y-44975502D01*
X21264237Y-44946505D01*
X21361263Y-44890487D01*
X21407768Y-44843982D01*
X33274500Y-44843982D01*
X33274500Y-44956018D01*
X33303497Y-45064237D01*
X33359515Y-45161263D01*
X33438737Y-45240485D01*
X33535763Y-45296503D01*
X33643982Y-45325500D01*
X33643984Y-45325500D01*
X33756016Y-45325500D01*
X33756018Y-45325500D01*
X33864237Y-45296503D01*
X33961263Y-45240485D01*
X34040485Y-45161263D01*
X34096503Y-45064237D01*
X34125500Y-44956018D01*
X34125500Y-44843982D01*
X38874500Y-44843982D01*
X38874500Y-44956018D01*
X38903497Y-45064237D01*
X38959515Y-45161263D01*
X39038737Y-45240485D01*
X39135763Y-45296503D01*
X39243982Y-45325500D01*
X39243984Y-45325500D01*
X39356016Y-45325500D01*
X39356018Y-45325500D01*
X39464237Y-45296503D01*
X39561263Y-45240485D01*
X39562819Y-45238929D01*
X39564451Y-45238037D01*
X39567709Y-45235538D01*
X39568098Y-45236045D01*
X39624142Y-45205444D01*
X39693834Y-45210428D01*
X39749767Y-45252300D01*
X39774184Y-45317764D01*
X39774500Y-45326610D01*
X39774500Y-45356018D01*
X39803497Y-45464237D01*
X39859515Y-45561263D01*
X39938737Y-45640485D01*
X40035763Y-45696503D01*
X40143982Y-45725500D01*
X40143984Y-45725500D01*
X40256016Y-45725500D01*
X40256018Y-45725500D01*
X40364237Y-45696503D01*
X40461263Y-45640485D01*
X40540485Y-45561263D01*
X40596503Y-45464237D01*
X40625500Y-45356018D01*
X40625500Y-45243982D01*
X40596503Y-45135763D01*
X40540485Y-45038737D01*
X40461263Y-44959515D01*
X40364237Y-44903497D01*
X40256018Y-44874500D01*
X40143982Y-44874500D01*
X40035763Y-44903497D01*
X40035760Y-44903498D01*
X39938740Y-44959513D01*
X39938734Y-44959517D01*
X39937181Y-44961071D01*
X39935548Y-44961962D01*
X39932291Y-44964462D01*
X39931901Y-44963954D01*
X39875858Y-44994556D01*
X39806166Y-44989572D01*
X39750233Y-44947700D01*
X39725816Y-44882236D01*
X39725500Y-44873390D01*
X39725500Y-44843984D01*
X39725500Y-44843982D01*
X39696503Y-44735763D01*
X39640485Y-44638737D01*
X39561263Y-44559515D01*
X39464237Y-44503497D01*
X39356018Y-44474500D01*
X39243982Y-44474500D01*
X39135763Y-44503497D01*
X39135760Y-44503498D01*
X39038740Y-44559513D01*
X39038734Y-44559517D01*
X38959517Y-44638734D01*
X38959513Y-44638740D01*
X38903498Y-44735760D01*
X38903497Y-44735763D01*
X38874500Y-44843982D01*
X34125500Y-44843982D01*
X34096503Y-44735763D01*
X34040485Y-44638737D01*
X33961263Y-44559515D01*
X33864237Y-44503497D01*
X33756018Y-44474500D01*
X33643982Y-44474500D01*
X33535763Y-44503497D01*
X33535760Y-44503498D01*
X33438740Y-44559513D01*
X33438734Y-44559517D01*
X33359517Y-44638734D01*
X33359513Y-44638740D01*
X33303498Y-44735760D01*
X33303497Y-44735763D01*
X33274500Y-44843982D01*
X21407768Y-44843982D01*
X21440485Y-44811265D01*
X21496503Y-44714239D01*
X21525500Y-44606020D01*
X21525500Y-44493984D01*
X21496503Y-44385765D01*
X21440485Y-44288739D01*
X21361263Y-44209517D01*
X21264237Y-44153499D01*
X21156018Y-44124502D01*
X21043982Y-44124502D01*
X20935763Y-44153499D01*
X20935760Y-44153500D01*
X20838740Y-44209515D01*
X20838734Y-44209519D01*
X20759517Y-44288736D01*
X20759513Y-44288742D01*
X20703498Y-44385762D01*
X20703497Y-44385765D01*
X20674500Y-44493984D01*
X12650000Y-44493984D01*
X12650000Y-43693984D01*
X19074500Y-43693984D01*
X19074500Y-43806020D01*
X19103497Y-43914239D01*
X19159515Y-44011265D01*
X19238737Y-44090487D01*
X19335763Y-44146505D01*
X19443982Y-44175502D01*
X19443984Y-44175502D01*
X19556016Y-44175502D01*
X19556018Y-44175502D01*
X19664237Y-44146505D01*
X19761263Y-44090487D01*
X19840485Y-44011265D01*
X19896503Y-43914239D01*
X19925500Y-43806020D01*
X19925500Y-43693984D01*
X19925499Y-43693982D01*
X23874498Y-43693982D01*
X23874498Y-43806018D01*
X23903495Y-43914237D01*
X23959513Y-44011263D01*
X24038735Y-44090485D01*
X24135761Y-44146503D01*
X24243980Y-44175500D01*
X24243982Y-44175500D01*
X24356014Y-44175500D01*
X24356016Y-44175500D01*
X24464235Y-44146503D01*
X24561261Y-44090485D01*
X24640483Y-44011263D01*
X24696501Y-43914237D01*
X24725498Y-43806018D01*
X24725498Y-43693982D01*
X24696501Y-43585763D01*
X24640483Y-43488737D01*
X24561261Y-43409515D01*
X24474662Y-43359517D01*
X24464237Y-43353498D01*
X24464236Y-43353497D01*
X24464235Y-43353497D01*
X24356016Y-43324500D01*
X24243980Y-43324500D01*
X24135761Y-43353497D01*
X24135758Y-43353498D01*
X24038738Y-43409513D01*
X24038732Y-43409517D01*
X23959515Y-43488734D01*
X23959511Y-43488740D01*
X23903496Y-43585760D01*
X23903495Y-43585763D01*
X23874498Y-43693982D01*
X19925499Y-43693982D01*
X19896503Y-43585765D01*
X19840485Y-43488739D01*
X19761263Y-43409517D01*
X19696579Y-43372171D01*
X19664239Y-43353500D01*
X19664238Y-43353499D01*
X19664237Y-43353499D01*
X19556018Y-43324502D01*
X19443982Y-43324502D01*
X19335763Y-43353499D01*
X19335760Y-43353500D01*
X19238740Y-43409515D01*
X19238734Y-43409519D01*
X19159517Y-43488736D01*
X19159513Y-43488742D01*
X19103498Y-43585762D01*
X19103498Y-43585763D01*
X19103497Y-43585765D01*
X19074500Y-43693984D01*
X12650000Y-43693984D01*
X12650000Y-42718982D01*
X28599500Y-42718982D01*
X28599500Y-42831018D01*
X28617047Y-42896502D01*
X28628497Y-42939236D01*
X28628498Y-42939239D01*
X28647169Y-42971579D01*
X28684515Y-43036263D01*
X28763737Y-43115485D01*
X28860763Y-43171503D01*
X28968982Y-43200500D01*
X28968984Y-43200500D01*
X29081016Y-43200500D01*
X29081018Y-43200500D01*
X29189237Y-43171503D01*
X29286263Y-43115485D01*
X29365485Y-43036263D01*
X29421503Y-42939237D01*
X29450500Y-42831018D01*
X29450500Y-42718982D01*
X29421503Y-42610763D01*
X29365485Y-42513737D01*
X29286263Y-42434515D01*
X29189237Y-42378497D01*
X29081018Y-42349500D01*
X28968982Y-42349500D01*
X28860763Y-42378497D01*
X28860760Y-42378498D01*
X28763740Y-42434513D01*
X28763734Y-42434517D01*
X28684517Y-42513734D01*
X28684513Y-42513740D01*
X28628498Y-42610760D01*
X28628497Y-42610763D01*
X28599500Y-42718982D01*
X12650000Y-42718982D01*
X12650000Y-42093982D01*
X20674500Y-42093982D01*
X20674500Y-42206018D01*
X20703497Y-42314237D01*
X20759515Y-42411263D01*
X20838737Y-42490485D01*
X20935763Y-42546503D01*
X21043982Y-42575500D01*
X21043984Y-42575500D01*
X21156016Y-42575500D01*
X21156018Y-42575500D01*
X21264237Y-42546503D01*
X21361263Y-42490485D01*
X21412319Y-42439429D01*
X21473642Y-42405944D01*
X21543334Y-42410928D01*
X21587681Y-42439429D01*
X21638737Y-42490485D01*
X21735763Y-42546503D01*
X21843982Y-42575500D01*
X21843984Y-42575500D01*
X21956016Y-42575500D01*
X21956018Y-42575500D01*
X22064237Y-42546503D01*
X22161263Y-42490485D01*
X22240485Y-42411263D01*
X22296503Y-42314237D01*
X22325500Y-42206018D01*
X22325500Y-42093982D01*
X22296503Y-41985763D01*
X22240485Y-41888737D01*
X22161263Y-41809515D01*
X22074664Y-41759517D01*
X22064239Y-41753498D01*
X22064238Y-41753497D01*
X22064237Y-41753497D01*
X21956018Y-41724500D01*
X21843982Y-41724500D01*
X21735763Y-41753497D01*
X21735760Y-41753498D01*
X21638740Y-41809513D01*
X21638734Y-41809517D01*
X21587681Y-41860571D01*
X21526358Y-41894056D01*
X21456666Y-41889072D01*
X21412319Y-41860571D01*
X21361265Y-41809517D01*
X21361263Y-41809515D01*
X21274664Y-41759517D01*
X21264239Y-41753498D01*
X21264238Y-41753497D01*
X21264237Y-41753497D01*
X21156018Y-41724500D01*
X21043982Y-41724500D01*
X20935763Y-41753497D01*
X20935760Y-41753498D01*
X20838740Y-41809513D01*
X20838734Y-41809517D01*
X20759517Y-41888734D01*
X20759513Y-41888740D01*
X20703498Y-41985760D01*
X20703497Y-41985763D01*
X20674500Y-42093982D01*
X12650000Y-42093982D01*
X12650000Y-41293982D01*
X17474500Y-41293982D01*
X17474500Y-41406018D01*
X17503497Y-41514237D01*
X17559515Y-41611263D01*
X17638737Y-41690485D01*
X17735763Y-41746503D01*
X17843982Y-41775500D01*
X17843984Y-41775500D01*
X17956016Y-41775500D01*
X17956018Y-41775500D01*
X18064237Y-41746503D01*
X18161263Y-41690485D01*
X18240485Y-41611263D01*
X18296503Y-41514237D01*
X18325500Y-41406018D01*
X18325500Y-41293982D01*
X19074500Y-41293982D01*
X19074500Y-41406018D01*
X19103497Y-41514237D01*
X19159515Y-41611263D01*
X19238737Y-41690485D01*
X19335763Y-41746503D01*
X19443982Y-41775500D01*
X19443984Y-41775500D01*
X19556016Y-41775500D01*
X19556018Y-41775500D01*
X19664237Y-41746503D01*
X19761263Y-41690485D01*
X19840485Y-41611263D01*
X19896503Y-41514237D01*
X19925500Y-41406018D01*
X19925500Y-41293982D01*
X19896503Y-41185763D01*
X19840485Y-41088737D01*
X19761263Y-41009515D01*
X19674664Y-40959517D01*
X19664239Y-40953498D01*
X19664238Y-40953497D01*
X19664237Y-40953497D01*
X19556018Y-40924500D01*
X19443982Y-40924500D01*
X19335763Y-40953497D01*
X19335760Y-40953498D01*
X19238740Y-41009513D01*
X19238734Y-41009517D01*
X19159517Y-41088734D01*
X19159513Y-41088740D01*
X19103498Y-41185760D01*
X19103497Y-41185763D01*
X19074500Y-41293982D01*
X18325500Y-41293982D01*
X18296503Y-41185763D01*
X18240485Y-41088737D01*
X18161263Y-41009515D01*
X18074664Y-40959517D01*
X18064239Y-40953498D01*
X18064238Y-40953497D01*
X18064237Y-40953497D01*
X17956018Y-40924500D01*
X17843982Y-40924500D01*
X17735763Y-40953497D01*
X17735760Y-40953498D01*
X17638740Y-41009513D01*
X17638734Y-41009517D01*
X17559517Y-41088734D01*
X17559513Y-41088740D01*
X17503498Y-41185760D01*
X17503497Y-41185763D01*
X17474500Y-41293982D01*
X12650000Y-41293982D01*
X12650000Y-38893982D01*
X18274500Y-38893982D01*
X18274500Y-39006018D01*
X18303497Y-39114237D01*
X18359515Y-39211263D01*
X18359517Y-39211265D01*
X18410571Y-39262319D01*
X18444056Y-39323642D01*
X18439072Y-39393334D01*
X18410571Y-39437681D01*
X18359517Y-39488734D01*
X18359513Y-39488740D01*
X18303498Y-39585760D01*
X18303497Y-39585763D01*
X18274500Y-39693982D01*
X18274500Y-39806018D01*
X18303497Y-39914237D01*
X18359515Y-40011263D01*
X18438737Y-40090485D01*
X18535763Y-40146503D01*
X18643982Y-40175500D01*
X18643984Y-40175500D01*
X18756016Y-40175500D01*
X18756018Y-40175500D01*
X18864237Y-40146503D01*
X18961263Y-40090485D01*
X19040485Y-40011263D01*
X19096503Y-39914237D01*
X19125500Y-39806018D01*
X19125500Y-39693982D01*
X19096503Y-39585763D01*
X19040485Y-39488737D01*
X18989429Y-39437681D01*
X18955944Y-39376358D01*
X18960928Y-39306666D01*
X18989429Y-39262319D01*
X19014429Y-39237319D01*
X19040485Y-39211263D01*
X19096503Y-39114237D01*
X19125500Y-39006018D01*
X19125500Y-38893982D01*
X20674500Y-38893982D01*
X20674500Y-39006018D01*
X20703497Y-39114237D01*
X20759515Y-39211263D01*
X20759517Y-39211265D01*
X20810571Y-39262319D01*
X20844056Y-39323642D01*
X20839072Y-39393334D01*
X20810571Y-39437681D01*
X20759517Y-39488734D01*
X20759513Y-39488740D01*
X20703498Y-39585760D01*
X20703497Y-39585763D01*
X20674500Y-39693982D01*
X20674500Y-39806018D01*
X20703497Y-39914237D01*
X20759515Y-40011263D01*
X20838737Y-40090485D01*
X20935763Y-40146503D01*
X21043982Y-40175500D01*
X21043984Y-40175500D01*
X21156016Y-40175500D01*
X21156018Y-40175500D01*
X21264237Y-40146503D01*
X21361263Y-40090485D01*
X21440485Y-40011263D01*
X21496503Y-39914237D01*
X21525500Y-39806018D01*
X21525500Y-39693982D01*
X21496503Y-39585763D01*
X21440485Y-39488737D01*
X21389429Y-39437681D01*
X21385090Y-39429735D01*
X21377843Y-39424310D01*
X21368608Y-39399550D01*
X21355944Y-39376358D01*
X21356589Y-39367328D01*
X21353426Y-39358846D01*
X21359042Y-39333025D01*
X21360928Y-39306666D01*
X21366746Y-39297612D01*
X21368278Y-39290573D01*
X21389429Y-39262319D01*
X21412319Y-39239429D01*
X21473642Y-39205944D01*
X21543334Y-39210928D01*
X21587681Y-39239429D01*
X21638737Y-39290485D01*
X21735763Y-39346503D01*
X21843982Y-39375500D01*
X21843984Y-39375500D01*
X21956016Y-39375500D01*
X21956018Y-39375500D01*
X22064237Y-39346503D01*
X22161263Y-39290485D01*
X22240485Y-39211263D01*
X22296503Y-39114237D01*
X22325500Y-39006018D01*
X22325500Y-38893982D01*
X22296503Y-38785763D01*
X22240485Y-38688737D01*
X22161263Y-38609515D01*
X22081965Y-38563732D01*
X22064239Y-38553498D01*
X22064238Y-38553497D01*
X22064237Y-38553497D01*
X21956018Y-38524500D01*
X21843982Y-38524500D01*
X21735763Y-38553497D01*
X21735760Y-38553498D01*
X21638740Y-38609513D01*
X21638734Y-38609517D01*
X21587681Y-38660571D01*
X21526358Y-38694056D01*
X21456666Y-38689072D01*
X21412319Y-38660571D01*
X21361265Y-38609517D01*
X21361263Y-38609515D01*
X21281965Y-38563732D01*
X21264239Y-38553498D01*
X21264238Y-38553497D01*
X21264237Y-38553497D01*
X21156018Y-38524500D01*
X21043982Y-38524500D01*
X20935763Y-38553497D01*
X20935760Y-38553498D01*
X20838740Y-38609513D01*
X20838734Y-38609517D01*
X20759517Y-38688734D01*
X20759513Y-38688740D01*
X20703498Y-38785760D01*
X20703497Y-38785763D01*
X20674500Y-38893982D01*
X19125500Y-38893982D01*
X19096503Y-38785763D01*
X19040485Y-38688737D01*
X18961263Y-38609515D01*
X18881965Y-38563732D01*
X18864239Y-38553498D01*
X18864238Y-38553497D01*
X18864237Y-38553497D01*
X18756018Y-38524500D01*
X18643982Y-38524500D01*
X18535763Y-38553497D01*
X18535760Y-38553498D01*
X18438740Y-38609513D01*
X18438734Y-38609517D01*
X18359517Y-38688734D01*
X18359513Y-38688740D01*
X18303498Y-38785760D01*
X18303497Y-38785763D01*
X18274500Y-38893982D01*
X12650000Y-38893982D01*
X12650000Y-37293982D01*
X19074500Y-37293982D01*
X19074500Y-37406018D01*
X19103497Y-37514237D01*
X19159515Y-37611263D01*
X19238737Y-37690485D01*
X19335763Y-37746503D01*
X19443982Y-37775500D01*
X19443984Y-37775500D01*
X19556016Y-37775500D01*
X19556018Y-37775500D01*
X19664237Y-37746503D01*
X19761263Y-37690485D01*
X19840485Y-37611263D01*
X19896503Y-37514237D01*
X19925500Y-37406018D01*
X19925500Y-37293982D01*
X19896503Y-37185763D01*
X19840485Y-37088737D01*
X19761263Y-37009515D01*
X19677681Y-36961259D01*
X19664239Y-36953498D01*
X19664238Y-36953497D01*
X19664237Y-36953497D01*
X19556018Y-36924500D01*
X19443982Y-36924500D01*
X19335763Y-36953497D01*
X19335760Y-36953498D01*
X19238740Y-37009513D01*
X19238734Y-37009517D01*
X19159517Y-37088734D01*
X19159513Y-37088740D01*
X19103498Y-37185760D01*
X19103498Y-37185761D01*
X19103497Y-37185763D01*
X19074500Y-37293982D01*
X12650000Y-37293982D01*
X12650000Y-36493982D01*
X18274500Y-36493982D01*
X18274500Y-36606018D01*
X18303497Y-36714237D01*
X18359515Y-36811263D01*
X18438737Y-36890485D01*
X18535763Y-36946503D01*
X18643982Y-36975500D01*
X18643984Y-36975500D01*
X18756016Y-36975500D01*
X18756018Y-36975500D01*
X18864237Y-36946503D01*
X18961263Y-36890485D01*
X19040485Y-36811263D01*
X19096503Y-36714237D01*
X19125500Y-36606018D01*
X19125500Y-36493982D01*
X19874500Y-36493982D01*
X19874500Y-36606018D01*
X19903497Y-36714237D01*
X19959515Y-36811263D01*
X20038737Y-36890485D01*
X20135763Y-36946503D01*
X20243982Y-36975500D01*
X20243984Y-36975500D01*
X20356016Y-36975500D01*
X20356018Y-36975500D01*
X20464237Y-36946503D01*
X20561263Y-36890485D01*
X20612319Y-36839429D01*
X20673642Y-36805944D01*
X20743334Y-36810928D01*
X20787681Y-36839429D01*
X20838737Y-36890485D01*
X20935763Y-36946503D01*
X21043982Y-36975500D01*
X21043984Y-36975500D01*
X21156016Y-36975500D01*
X21156018Y-36975500D01*
X21264237Y-36946503D01*
X21361263Y-36890485D01*
X21440485Y-36811263D01*
X21496503Y-36714237D01*
X21525500Y-36606018D01*
X21525500Y-36493984D01*
X22274500Y-36493984D01*
X22274500Y-36606020D01*
X22303497Y-36714237D01*
X22303497Y-36714238D01*
X22303498Y-36714241D01*
X22315922Y-36735760D01*
X22359515Y-36811265D01*
X22359517Y-36811267D01*
X22410569Y-36862319D01*
X22444054Y-36923642D01*
X22439070Y-36993334D01*
X22410569Y-37037681D01*
X22359517Y-37088732D01*
X22359513Y-37088738D01*
X22303498Y-37185758D01*
X22303497Y-37185761D01*
X22274500Y-37293980D01*
X22274500Y-37406016D01*
X22300002Y-37501189D01*
X22303497Y-37514234D01*
X22303498Y-37514237D01*
X22315924Y-37535760D01*
X22359515Y-37611261D01*
X22438737Y-37690483D01*
X22535763Y-37746501D01*
X22643982Y-37775498D01*
X22643984Y-37775498D01*
X22756016Y-37775498D01*
X22756018Y-37775498D01*
X22864237Y-37746501D01*
X22961263Y-37690483D01*
X23012319Y-37639427D01*
X23073642Y-37605942D01*
X23143334Y-37610926D01*
X23187681Y-37639427D01*
X23238739Y-37690485D01*
X23335765Y-37746503D01*
X23443984Y-37775500D01*
X23443986Y-37775500D01*
X23556018Y-37775500D01*
X23556020Y-37775500D01*
X23664239Y-37746503D01*
X23761265Y-37690485D01*
X23812320Y-37639430D01*
X23820265Y-37635091D01*
X23825691Y-37627844D01*
X23850450Y-37618609D01*
X23873643Y-37605945D01*
X23882672Y-37606590D01*
X23891155Y-37603427D01*
X23916975Y-37609043D01*
X23943335Y-37610929D01*
X23952388Y-37616747D01*
X23959428Y-37618279D01*
X23987682Y-37639430D01*
X24010571Y-37662319D01*
X24044056Y-37723642D01*
X24039072Y-37793334D01*
X24010571Y-37837681D01*
X23959517Y-37888734D01*
X23959513Y-37888740D01*
X23903498Y-37985760D01*
X23903497Y-37985763D01*
X23874500Y-38093982D01*
X23874500Y-38206018D01*
X23903497Y-38314237D01*
X23959515Y-38411263D01*
X23959517Y-38411265D01*
X24003630Y-38455378D01*
X24037115Y-38516701D01*
X24032131Y-38586393D01*
X24003630Y-38630740D01*
X23953480Y-38680889D01*
X23953476Y-38680895D01*
X23898857Y-38775499D01*
X23897460Y-38777918D01*
X23868463Y-38886137D01*
X23868463Y-38998173D01*
X23897460Y-39106392D01*
X23953478Y-39203418D01*
X24032700Y-39282640D01*
X24129726Y-39338658D01*
X24237945Y-39367655D01*
X24237947Y-39367655D01*
X24349979Y-39367655D01*
X24349981Y-39367655D01*
X24458200Y-39338658D01*
X24555226Y-39282640D01*
X24605378Y-39232488D01*
X24613323Y-39228149D01*
X24618749Y-39220902D01*
X24643508Y-39211667D01*
X24666701Y-39199003D01*
X24675730Y-39199648D01*
X24684213Y-39196485D01*
X24710033Y-39202101D01*
X24736393Y-39203987D01*
X24745446Y-39209805D01*
X24752486Y-39211337D01*
X24780740Y-39232488D01*
X24810571Y-39262319D01*
X24844056Y-39323642D01*
X24839072Y-39393334D01*
X24810571Y-39437681D01*
X24759517Y-39488734D01*
X24759513Y-39488740D01*
X24703498Y-39585760D01*
X24703497Y-39585763D01*
X24674500Y-39693982D01*
X24674500Y-39806018D01*
X24703497Y-39914237D01*
X24759515Y-40011263D01*
X24759517Y-40011265D01*
X24810571Y-40062319D01*
X24814909Y-40070264D01*
X24822157Y-40075690D01*
X24831391Y-40100449D01*
X24844056Y-40123642D01*
X24843410Y-40132671D01*
X24846574Y-40141154D01*
X24840957Y-40166974D01*
X24839072Y-40193334D01*
X24833253Y-40202387D01*
X24831722Y-40209427D01*
X24810571Y-40237681D01*
X24774249Y-40274003D01*
X24712926Y-40307488D01*
X24643234Y-40302504D01*
X24598887Y-40274003D01*
X24534392Y-40209508D01*
X24534390Y-40209506D01*
X24469706Y-40172160D01*
X24437366Y-40153489D01*
X24437365Y-40153488D01*
X24437364Y-40153488D01*
X24329145Y-40124491D01*
X24217109Y-40124491D01*
X24108890Y-40153488D01*
X24108887Y-40153489D01*
X24011867Y-40209504D01*
X24011861Y-40209508D01*
X23932644Y-40288725D01*
X23932640Y-40288731D01*
X23876625Y-40385751D01*
X23876624Y-40385754D01*
X23847627Y-40493973D01*
X23847627Y-40606009D01*
X23847630Y-40606018D01*
X23876624Y-40714227D01*
X23876625Y-40714230D01*
X23876629Y-40714237D01*
X23932642Y-40811254D01*
X24011864Y-40890476D01*
X24108890Y-40946494D01*
X24217109Y-40975491D01*
X24217111Y-40975491D01*
X24329143Y-40975491D01*
X24329145Y-40975491D01*
X24437364Y-40946494D01*
X24534390Y-40890476D01*
X24598878Y-40825988D01*
X24606823Y-40821649D01*
X24612249Y-40814402D01*
X24637008Y-40805167D01*
X24660201Y-40792503D01*
X24669230Y-40793148D01*
X24677713Y-40789985D01*
X24703533Y-40795601D01*
X24729893Y-40797487D01*
X24738946Y-40803305D01*
X24745986Y-40804837D01*
X24774240Y-40825988D01*
X24810571Y-40862319D01*
X24844056Y-40923642D01*
X24839072Y-40993334D01*
X24810571Y-41037681D01*
X24759517Y-41088734D01*
X24759513Y-41088740D01*
X24703498Y-41185760D01*
X24703497Y-41185763D01*
X24674500Y-41293982D01*
X24674500Y-41406018D01*
X24703497Y-41514237D01*
X24759515Y-41611263D01*
X24759517Y-41611265D01*
X24810571Y-41662319D01*
X24814909Y-41670264D01*
X24822157Y-41675690D01*
X24831391Y-41700449D01*
X24844056Y-41723642D01*
X24843410Y-41732671D01*
X24846574Y-41741154D01*
X24840957Y-41766974D01*
X24839072Y-41793334D01*
X24833253Y-41802387D01*
X24831722Y-41809427D01*
X24810571Y-41837681D01*
X24787681Y-41860571D01*
X24726358Y-41894056D01*
X24656666Y-41889072D01*
X24612319Y-41860571D01*
X24561265Y-41809517D01*
X24561263Y-41809515D01*
X24474664Y-41759517D01*
X24464239Y-41753498D01*
X24464238Y-41753497D01*
X24464237Y-41753497D01*
X24356018Y-41724500D01*
X24243982Y-41724500D01*
X24135763Y-41753497D01*
X24135760Y-41753498D01*
X24038740Y-41809513D01*
X24038734Y-41809517D01*
X23987681Y-41860571D01*
X23926358Y-41894056D01*
X23856666Y-41889072D01*
X23812319Y-41860571D01*
X23761265Y-41809517D01*
X23761263Y-41809515D01*
X23674664Y-41759517D01*
X23664239Y-41753498D01*
X23664238Y-41753497D01*
X23664237Y-41753497D01*
X23556018Y-41724500D01*
X23443982Y-41724500D01*
X23335763Y-41753497D01*
X23335760Y-41753498D01*
X23238740Y-41809513D01*
X23238734Y-41809517D01*
X23159517Y-41888734D01*
X23159513Y-41888740D01*
X23103498Y-41985760D01*
X23103497Y-41985763D01*
X23074500Y-42093982D01*
X23074500Y-42206018D01*
X23103497Y-42314237D01*
X23159515Y-42411263D01*
X23238737Y-42490485D01*
X23335763Y-42546503D01*
X23443982Y-42575500D01*
X23443984Y-42575500D01*
X23556016Y-42575500D01*
X23556018Y-42575500D01*
X23664237Y-42546503D01*
X23761263Y-42490485D01*
X23812319Y-42439429D01*
X23873642Y-42405944D01*
X23943334Y-42410928D01*
X23987681Y-42439429D01*
X24038737Y-42490485D01*
X24135763Y-42546503D01*
X24243982Y-42575500D01*
X24243984Y-42575500D01*
X24356016Y-42575500D01*
X24356018Y-42575500D01*
X24464237Y-42546503D01*
X24561263Y-42490485D01*
X24612319Y-42439429D01*
X24673642Y-42405944D01*
X24743334Y-42410928D01*
X24787681Y-42439429D01*
X24838737Y-42490485D01*
X24935763Y-42546503D01*
X25043982Y-42575500D01*
X25043984Y-42575500D01*
X25156016Y-42575500D01*
X25156018Y-42575500D01*
X25264237Y-42546503D01*
X25361263Y-42490485D01*
X25440485Y-42411263D01*
X25496503Y-42314237D01*
X25525500Y-42206018D01*
X25525500Y-42093982D01*
X25512103Y-42043982D01*
X32374500Y-42043982D01*
X32374500Y-42156018D01*
X32403497Y-42264237D01*
X32459515Y-42361263D01*
X32459517Y-42361265D01*
X32510571Y-42412319D01*
X32544056Y-42473642D01*
X32539072Y-42543334D01*
X32510571Y-42587681D01*
X32459517Y-42638734D01*
X32459513Y-42638740D01*
X32403498Y-42735760D01*
X32403497Y-42735763D01*
X32374500Y-42843982D01*
X32374500Y-42956018D01*
X32403497Y-43064237D01*
X32459515Y-43161263D01*
X32459517Y-43161265D01*
X32510571Y-43212319D01*
X32544056Y-43273642D01*
X32539072Y-43343334D01*
X32510571Y-43387681D01*
X32459517Y-43438734D01*
X32459513Y-43438740D01*
X32403498Y-43535760D01*
X32403497Y-43535763D01*
X32374500Y-43643982D01*
X32374500Y-43756018D01*
X32403497Y-43864237D01*
X32459515Y-43961263D01*
X32538737Y-44040485D01*
X32635763Y-44096503D01*
X32743982Y-44125500D01*
X32743984Y-44125500D01*
X32856016Y-44125500D01*
X32856018Y-44125500D01*
X32964237Y-44096503D01*
X33061263Y-44040485D01*
X33140485Y-43961263D01*
X33196503Y-43864237D01*
X33225500Y-43756018D01*
X33225500Y-43643982D01*
X39774500Y-43643982D01*
X39774500Y-43756018D01*
X39803497Y-43864237D01*
X39859515Y-43961263D01*
X39938737Y-44040485D01*
X40035763Y-44096503D01*
X40143982Y-44125500D01*
X40143984Y-44125500D01*
X40256016Y-44125500D01*
X40256018Y-44125500D01*
X40364237Y-44096503D01*
X40461263Y-44040485D01*
X40540485Y-43961263D01*
X40596503Y-43864237D01*
X40625500Y-43756018D01*
X40625500Y-43643982D01*
X40596503Y-43535763D01*
X40540485Y-43438737D01*
X40461263Y-43359515D01*
X40364237Y-43303497D01*
X40256018Y-43274500D01*
X40143982Y-43274500D01*
X40035763Y-43303497D01*
X40035760Y-43303498D01*
X39938740Y-43359513D01*
X39938734Y-43359517D01*
X39859517Y-43438734D01*
X39859513Y-43438740D01*
X39803498Y-43535760D01*
X39803497Y-43535763D01*
X39774500Y-43643982D01*
X33225500Y-43643982D01*
X33196503Y-43535763D01*
X33140485Y-43438737D01*
X33089429Y-43387681D01*
X33055944Y-43326358D01*
X33060928Y-43256666D01*
X33089429Y-43212319D01*
X33101249Y-43200499D01*
X33140485Y-43161263D01*
X33196503Y-43064237D01*
X33225500Y-42956018D01*
X33225500Y-42843982D01*
X33196503Y-42735763D01*
X33140485Y-42638737D01*
X33089429Y-42587681D01*
X33085493Y-42580474D01*
X33078855Y-42575643D01*
X33068995Y-42550259D01*
X33055944Y-42526358D01*
X33056529Y-42518167D01*
X33053557Y-42510514D01*
X33058985Y-42483831D01*
X33060928Y-42456666D01*
X33066208Y-42448326D01*
X33067092Y-42443982D01*
X38074500Y-42443982D01*
X38074500Y-42556018D01*
X38103497Y-42664237D01*
X38159515Y-42761263D01*
X38238737Y-42840485D01*
X38335763Y-42896503D01*
X38443982Y-42925500D01*
X38443984Y-42925500D01*
X38556016Y-42925500D01*
X38556018Y-42925500D01*
X38664237Y-42896503D01*
X38761263Y-42840485D01*
X38840485Y-42761263D01*
X38896503Y-42664237D01*
X38925500Y-42556018D01*
X38925500Y-42443982D01*
X38896503Y-42335763D01*
X38840485Y-42238737D01*
X38761263Y-42159515D01*
X38664237Y-42103497D01*
X38556018Y-42074500D01*
X38443982Y-42074500D01*
X38335763Y-42103497D01*
X38335760Y-42103498D01*
X38238740Y-42159513D01*
X38238734Y-42159517D01*
X38159517Y-42238734D01*
X38159513Y-42238740D01*
X38103498Y-42335760D01*
X38103497Y-42335763D01*
X38074500Y-42443982D01*
X33067092Y-42443982D01*
X33067486Y-42442047D01*
X33086468Y-42416329D01*
X33088254Y-42413510D01*
X33088838Y-42412909D01*
X33140485Y-42361263D01*
X33196503Y-42264237D01*
X33225500Y-42156018D01*
X33225500Y-42043982D01*
X33196503Y-41935763D01*
X33140485Y-41838737D01*
X33061263Y-41759515D01*
X32964237Y-41703497D01*
X32856018Y-41674500D01*
X32743982Y-41674500D01*
X32635763Y-41703497D01*
X32635760Y-41703498D01*
X32538740Y-41759513D01*
X32538734Y-41759517D01*
X32459517Y-41838734D01*
X32459513Y-41838740D01*
X32403498Y-41935760D01*
X32403497Y-41935763D01*
X32374500Y-42043982D01*
X25512103Y-42043982D01*
X25496503Y-41985763D01*
X25440485Y-41888737D01*
X25389429Y-41837681D01*
X25385090Y-41829735D01*
X25377843Y-41824310D01*
X25368608Y-41799550D01*
X25355944Y-41776358D01*
X25356589Y-41767328D01*
X25353426Y-41758846D01*
X25359042Y-41733025D01*
X25360928Y-41706666D01*
X25366746Y-41697612D01*
X25368278Y-41690573D01*
X25389429Y-41662319D01*
X25412319Y-41639429D01*
X25473642Y-41605944D01*
X25543334Y-41610928D01*
X25587681Y-41639429D01*
X25638737Y-41690485D01*
X25735763Y-41746503D01*
X25843982Y-41775500D01*
X25843984Y-41775500D01*
X25956016Y-41775500D01*
X25956018Y-41775500D01*
X26064237Y-41746503D01*
X26161263Y-41690485D01*
X26212319Y-41639429D01*
X26273642Y-41605944D01*
X26343334Y-41610928D01*
X26387681Y-41639429D01*
X26438737Y-41690485D01*
X26535763Y-41746503D01*
X26643982Y-41775500D01*
X26643984Y-41775500D01*
X26756016Y-41775500D01*
X26756018Y-41775500D01*
X26864237Y-41746503D01*
X26961263Y-41690485D01*
X27012319Y-41639429D01*
X27073642Y-41605944D01*
X27143334Y-41610928D01*
X27187681Y-41639429D01*
X27238737Y-41690485D01*
X27335763Y-41746503D01*
X27443982Y-41775500D01*
X27443984Y-41775500D01*
X27556016Y-41775500D01*
X27556018Y-41775500D01*
X27664237Y-41746503D01*
X27761263Y-41690485D01*
X27812319Y-41639429D01*
X27873642Y-41605944D01*
X27943334Y-41610928D01*
X27987681Y-41639429D01*
X28038737Y-41690485D01*
X28135763Y-41746503D01*
X28243982Y-41775500D01*
X28243984Y-41775500D01*
X28356016Y-41775500D01*
X28356018Y-41775500D01*
X28464237Y-41746503D01*
X28561263Y-41690485D01*
X28640485Y-41611263D01*
X28696503Y-41514237D01*
X28725500Y-41406018D01*
X28725500Y-41293982D01*
X28712103Y-41243982D01*
X39774500Y-41243982D01*
X39774500Y-41356018D01*
X39803497Y-41464237D01*
X39859515Y-41561263D01*
X39938737Y-41640485D01*
X40035763Y-41696503D01*
X40143982Y-41725500D01*
X40143984Y-41725500D01*
X40256016Y-41725500D01*
X40256018Y-41725500D01*
X40364237Y-41696503D01*
X40461263Y-41640485D01*
X40540485Y-41561263D01*
X40596503Y-41464237D01*
X40625500Y-41356018D01*
X40625500Y-41243982D01*
X40596503Y-41135763D01*
X40540485Y-41038737D01*
X40461263Y-40959515D01*
X40364237Y-40903497D01*
X40256018Y-40874500D01*
X40143982Y-40874500D01*
X40035763Y-40903497D01*
X40035760Y-40903498D01*
X39938740Y-40959513D01*
X39938734Y-40959517D01*
X39859517Y-41038734D01*
X39859513Y-41038740D01*
X39803498Y-41135760D01*
X39803497Y-41135763D01*
X39774500Y-41243982D01*
X28712103Y-41243982D01*
X28696503Y-41185763D01*
X28640485Y-41088737D01*
X28589429Y-41037681D01*
X28555944Y-40976358D01*
X28560928Y-40906666D01*
X28589429Y-40862319D01*
X28640485Y-40811263D01*
X28696503Y-40714237D01*
X28725500Y-40606018D01*
X28725500Y-40493982D01*
X28696503Y-40385763D01*
X28640485Y-40288737D01*
X28589429Y-40237681D01*
X28555944Y-40176358D01*
X28560928Y-40106666D01*
X28589429Y-40062319D01*
X28611266Y-40040482D01*
X28640485Y-40011263D01*
X28696503Y-39914237D01*
X28725500Y-39806018D01*
X28725500Y-39693982D01*
X28712103Y-39643982D01*
X32374500Y-39643982D01*
X32374500Y-39756018D01*
X32403497Y-39864237D01*
X32459515Y-39961263D01*
X32538737Y-40040485D01*
X32635763Y-40096503D01*
X32743982Y-40125500D01*
X32743984Y-40125500D01*
X32856016Y-40125500D01*
X32856018Y-40125500D01*
X32964237Y-40096503D01*
X33055206Y-40043982D01*
X34074500Y-40043982D01*
X34074500Y-40156018D01*
X34103497Y-40264237D01*
X34159515Y-40361263D01*
X34238737Y-40440485D01*
X34335763Y-40496503D01*
X34443982Y-40525500D01*
X34443984Y-40525500D01*
X34556016Y-40525500D01*
X34556018Y-40525500D01*
X34664237Y-40496503D01*
X34761263Y-40440485D01*
X34840485Y-40361263D01*
X34896503Y-40264237D01*
X34925500Y-40156018D01*
X34925500Y-40043982D01*
X34896503Y-39935763D01*
X34840485Y-39838737D01*
X34761263Y-39759515D01*
X34664237Y-39703497D01*
X34556018Y-39674500D01*
X34443982Y-39674500D01*
X34335763Y-39703497D01*
X34335760Y-39703498D01*
X34238740Y-39759513D01*
X34238734Y-39759517D01*
X34159517Y-39838734D01*
X34159513Y-39838740D01*
X34103498Y-39935760D01*
X34103497Y-39935763D01*
X34074500Y-40043982D01*
X33055206Y-40043982D01*
X33061263Y-40040485D01*
X33140485Y-39961263D01*
X33196503Y-39864237D01*
X33225500Y-39756018D01*
X33225500Y-39643982D01*
X33196503Y-39535763D01*
X33140485Y-39438737D01*
X33061263Y-39359515D01*
X32964237Y-39303497D01*
X32856018Y-39274500D01*
X32743982Y-39274500D01*
X32635763Y-39303497D01*
X32635760Y-39303498D01*
X32538740Y-39359513D01*
X32538734Y-39359517D01*
X32459517Y-39438734D01*
X32459513Y-39438740D01*
X32403498Y-39535760D01*
X32403497Y-39535763D01*
X32374500Y-39643982D01*
X28712103Y-39643982D01*
X28696503Y-39585763D01*
X28640485Y-39488737D01*
X28589429Y-39437681D01*
X28555944Y-39376358D01*
X28560928Y-39306666D01*
X28589429Y-39262319D01*
X28614429Y-39237319D01*
X28640485Y-39211263D01*
X28696503Y-39114237D01*
X28725500Y-39006018D01*
X28725500Y-38893982D01*
X28696503Y-38785763D01*
X28640485Y-38688737D01*
X28561263Y-38609515D01*
X28556710Y-38606886D01*
X28508496Y-38556321D01*
X28495272Y-38487714D01*
X28521240Y-38422849D01*
X28578154Y-38382320D01*
X28618711Y-38375500D01*
X28656016Y-38375500D01*
X28656018Y-38375500D01*
X28764237Y-38346503D01*
X28861263Y-38290485D01*
X28940485Y-38211263D01*
X28996503Y-38114237D01*
X29025500Y-38006018D01*
X29025500Y-37893982D01*
X28996503Y-37785763D01*
X28940485Y-37688737D01*
X28861263Y-37609515D01*
X28764237Y-37553497D01*
X28656018Y-37524500D01*
X28543982Y-37524500D01*
X28435763Y-37553497D01*
X28435760Y-37553498D01*
X28338740Y-37609513D01*
X28338734Y-37609517D01*
X28259517Y-37688734D01*
X28259513Y-37688740D01*
X28203498Y-37785760D01*
X28203497Y-37785763D01*
X28174500Y-37893982D01*
X28174500Y-38006018D01*
X28203497Y-38114237D01*
X28259515Y-38211263D01*
X28338737Y-38290485D01*
X28343289Y-38293113D01*
X28391504Y-38343679D01*
X28404728Y-38412286D01*
X28378760Y-38477151D01*
X28321846Y-38517680D01*
X28281289Y-38524500D01*
X28243982Y-38524500D01*
X28135763Y-38553497D01*
X28135760Y-38553498D01*
X28038740Y-38609513D01*
X28038734Y-38609517D01*
X28012681Y-38635571D01*
X28004735Y-38639909D01*
X27999310Y-38647157D01*
X27974550Y-38656391D01*
X27951358Y-38669056D01*
X27942328Y-38668410D01*
X27933846Y-38671574D01*
X27908025Y-38665957D01*
X27881666Y-38664072D01*
X27872612Y-38658253D01*
X27865573Y-38656722D01*
X27837319Y-38635571D01*
X27814429Y-38612681D01*
X27780944Y-38551358D01*
X27785928Y-38481666D01*
X27814429Y-38437319D01*
X27840485Y-38411263D01*
X27896503Y-38314237D01*
X27925500Y-38206018D01*
X27925500Y-38093982D01*
X27896503Y-37985763D01*
X27840485Y-37888737D01*
X27761263Y-37809515D01*
X27673502Y-37758846D01*
X27664239Y-37753498D01*
X27664238Y-37753497D01*
X27664237Y-37753497D01*
X27556018Y-37724500D01*
X27443982Y-37724500D01*
X27335763Y-37753497D01*
X27335760Y-37753498D01*
X27238740Y-37809513D01*
X27238734Y-37809517D01*
X27187681Y-37860571D01*
X27179735Y-37864909D01*
X27174310Y-37872157D01*
X27149550Y-37881391D01*
X27126358Y-37894056D01*
X27117328Y-37893410D01*
X27108846Y-37896574D01*
X27083025Y-37890957D01*
X27056666Y-37889072D01*
X27047612Y-37883253D01*
X27040573Y-37881722D01*
X27012319Y-37860571D01*
X26989429Y-37837681D01*
X26955944Y-37776358D01*
X26960928Y-37706666D01*
X26989429Y-37662319D01*
X27012321Y-37639427D01*
X27040485Y-37611263D01*
X27096503Y-37514237D01*
X27125500Y-37406018D01*
X27125500Y-37293982D01*
X27096503Y-37185763D01*
X27040485Y-37088737D01*
X26961263Y-37009515D01*
X26877681Y-36961259D01*
X26864239Y-36953498D01*
X26864238Y-36953497D01*
X26864237Y-36953497D01*
X26756018Y-36924500D01*
X26643982Y-36924500D01*
X26535763Y-36953497D01*
X26535760Y-36953498D01*
X26438740Y-37009513D01*
X26438734Y-37009517D01*
X26359517Y-37088734D01*
X26359513Y-37088740D01*
X26303498Y-37185760D01*
X26303498Y-37185761D01*
X26303497Y-37185763D01*
X26274500Y-37293982D01*
X26274500Y-37406018D01*
X26303497Y-37514237D01*
X26359515Y-37611263D01*
X26359517Y-37611265D01*
X26410571Y-37662319D01*
X26414909Y-37670264D01*
X26422157Y-37675690D01*
X26431391Y-37700449D01*
X26444056Y-37723642D01*
X26443410Y-37732671D01*
X26446574Y-37741154D01*
X26440957Y-37766974D01*
X26439072Y-37793334D01*
X26433253Y-37802387D01*
X26431722Y-37809427D01*
X26410571Y-37837681D01*
X26387681Y-37860571D01*
X26326358Y-37894056D01*
X26256666Y-37889072D01*
X26212319Y-37860571D01*
X26161265Y-37809517D01*
X26161263Y-37809515D01*
X26073502Y-37758846D01*
X26064239Y-37753498D01*
X26064238Y-37753497D01*
X26064237Y-37753497D01*
X25956018Y-37724500D01*
X25843982Y-37724500D01*
X25735763Y-37753497D01*
X25735760Y-37753498D01*
X25638740Y-37809513D01*
X25638734Y-37809517D01*
X25559517Y-37888734D01*
X25559513Y-37888740D01*
X25503498Y-37985760D01*
X25503497Y-37985763D01*
X25474500Y-38093982D01*
X25474500Y-38206018D01*
X25503497Y-38314237D01*
X25559515Y-38411263D01*
X25638737Y-38490485D01*
X25735763Y-38546503D01*
X25843982Y-38575500D01*
X25843984Y-38575500D01*
X25956016Y-38575500D01*
X25956018Y-38575500D01*
X26064237Y-38546503D01*
X26161263Y-38490485D01*
X26166842Y-38484905D01*
X26228162Y-38451419D01*
X26297853Y-38456400D01*
X26353789Y-38498269D01*
X26378209Y-38563732D01*
X26363360Y-38632006D01*
X26361912Y-38634583D01*
X26303499Y-38735756D01*
X26303497Y-38735763D01*
X26274500Y-38843982D01*
X26274500Y-38956018D01*
X26303497Y-39064237D01*
X26359515Y-39161263D01*
X26359517Y-39161265D01*
X26435571Y-39237319D01*
X26439909Y-39245264D01*
X26447157Y-39250690D01*
X26456391Y-39275449D01*
X26469056Y-39298642D01*
X26468410Y-39307671D01*
X26471574Y-39316154D01*
X26465957Y-39341974D01*
X26464072Y-39368334D01*
X26458253Y-39377387D01*
X26456722Y-39384427D01*
X26435571Y-39412681D01*
X26387681Y-39460571D01*
X26326358Y-39494056D01*
X26256666Y-39489072D01*
X26212319Y-39460571D01*
X26161265Y-39409517D01*
X26161263Y-39409515D01*
X26074664Y-39359517D01*
X26064239Y-39353498D01*
X26064238Y-39353497D01*
X26064237Y-39353497D01*
X25956018Y-39324500D01*
X25843982Y-39324500D01*
X25735763Y-39353497D01*
X25735760Y-39353498D01*
X25638740Y-39409513D01*
X25638734Y-39409517D01*
X25587681Y-39460571D01*
X25579735Y-39464909D01*
X25574310Y-39472157D01*
X25549550Y-39481391D01*
X25526358Y-39494056D01*
X25517328Y-39493410D01*
X25508846Y-39496574D01*
X25483025Y-39490957D01*
X25456666Y-39489072D01*
X25447612Y-39483253D01*
X25440573Y-39481722D01*
X25412319Y-39460571D01*
X25389429Y-39437681D01*
X25355944Y-39376358D01*
X25360928Y-39306666D01*
X25389429Y-39262319D01*
X25414429Y-39237319D01*
X25440485Y-39211263D01*
X25496503Y-39114237D01*
X25525500Y-39006018D01*
X25525500Y-38893982D01*
X25496503Y-38785763D01*
X25440485Y-38688737D01*
X25361263Y-38609515D01*
X25281965Y-38563732D01*
X25264239Y-38553498D01*
X25264238Y-38553497D01*
X25264237Y-38553497D01*
X25156018Y-38524500D01*
X25043982Y-38524500D01*
X24935763Y-38553497D01*
X24935760Y-38553498D01*
X24838740Y-38609513D01*
X24838734Y-38609517D01*
X24788585Y-38659667D01*
X24780639Y-38664005D01*
X24775214Y-38671253D01*
X24750454Y-38680487D01*
X24727262Y-38693152D01*
X24718232Y-38692506D01*
X24709750Y-38695670D01*
X24683929Y-38690053D01*
X24657570Y-38688168D01*
X24648516Y-38682349D01*
X24641477Y-38680818D01*
X24613223Y-38659667D01*
X24590333Y-38636777D01*
X24556848Y-38575454D01*
X24561832Y-38505762D01*
X24590333Y-38461415D01*
X24614429Y-38437319D01*
X24640485Y-38411263D01*
X24696503Y-38314237D01*
X24725500Y-38206018D01*
X24725500Y-38093982D01*
X24696503Y-37985763D01*
X24640485Y-37888737D01*
X24589429Y-37837681D01*
X24585090Y-37829735D01*
X24577843Y-37824310D01*
X24568608Y-37799550D01*
X24555944Y-37776358D01*
X24556589Y-37767328D01*
X24553426Y-37758846D01*
X24559042Y-37733025D01*
X24560928Y-37706666D01*
X24566746Y-37697612D01*
X24568278Y-37690573D01*
X24589429Y-37662319D01*
X24612319Y-37639429D01*
X24673642Y-37605944D01*
X24743334Y-37610928D01*
X24787681Y-37639429D01*
X24838737Y-37690485D01*
X24935763Y-37746503D01*
X25043982Y-37775500D01*
X25043984Y-37775500D01*
X25156016Y-37775500D01*
X25156018Y-37775500D01*
X25264237Y-37746503D01*
X25361263Y-37690485D01*
X25440485Y-37611263D01*
X25496503Y-37514237D01*
X25525500Y-37406018D01*
X25525500Y-37293982D01*
X25496503Y-37185763D01*
X25440485Y-37088737D01*
X25361263Y-37009515D01*
X25277681Y-36961259D01*
X25264239Y-36953498D01*
X25264238Y-36953497D01*
X25264237Y-36953497D01*
X25156018Y-36924500D01*
X25043982Y-36924500D01*
X24935763Y-36953497D01*
X24935760Y-36953498D01*
X24838740Y-37009513D01*
X24838734Y-37009517D01*
X24787681Y-37060571D01*
X24779735Y-37064909D01*
X24774310Y-37072157D01*
X24749550Y-37081391D01*
X24726358Y-37094056D01*
X24717328Y-37093410D01*
X24708846Y-37096574D01*
X24683025Y-37090957D01*
X24656666Y-37089072D01*
X24647612Y-37083253D01*
X24640573Y-37081722D01*
X24612319Y-37060571D01*
X24589428Y-37037680D01*
X24555943Y-36976357D01*
X24560927Y-36906665D01*
X24589428Y-36862318D01*
X24612317Y-36839429D01*
X24640483Y-36811263D01*
X24696501Y-36714237D01*
X24725498Y-36606018D01*
X24725498Y-36493982D01*
X24696501Y-36385763D01*
X24640483Y-36288737D01*
X24595728Y-36243982D01*
X27924500Y-36243982D01*
X27924500Y-36356018D01*
X27953497Y-36464237D01*
X28009515Y-36561263D01*
X28088737Y-36640485D01*
X28185763Y-36696503D01*
X28293982Y-36725500D01*
X28293984Y-36725500D01*
X28406016Y-36725500D01*
X28406018Y-36725500D01*
X28514237Y-36696503D01*
X28611263Y-36640485D01*
X28690485Y-36561263D01*
X28746503Y-36464237D01*
X28771239Y-36371916D01*
X28807602Y-36312259D01*
X28870449Y-36281729D01*
X28939824Y-36290023D01*
X28976513Y-36314203D01*
X28989462Y-36326531D01*
X29009515Y-36361263D01*
X29088737Y-36440485D01*
X29140627Y-36470444D01*
X29151330Y-36480633D01*
X29161721Y-36498599D01*
X29176045Y-36513621D01*
X29178861Y-36528233D01*
X29186312Y-36541115D01*
X29185340Y-36561846D01*
X29189269Y-36582228D01*
X29185605Y-36602533D01*
X29174500Y-36643977D01*
X29174500Y-36643982D01*
X29174500Y-36756018D01*
X29203497Y-36864237D01*
X29259515Y-36961263D01*
X29338737Y-37040485D01*
X29435763Y-37096503D01*
X29543982Y-37125500D01*
X29543984Y-37125500D01*
X29656016Y-37125500D01*
X29656018Y-37125500D01*
X29764237Y-37096503D01*
X29861263Y-37040485D01*
X29940485Y-36961263D01*
X29996503Y-36864237D01*
X30025500Y-36756018D01*
X30025500Y-36643982D01*
X29996503Y-36535763D01*
X29940485Y-36438737D01*
X29861263Y-36359515D01*
X29822169Y-36336944D01*
X29773953Y-36286377D01*
X29760731Y-36217770D01*
X29764392Y-36197473D01*
X29775500Y-36156018D01*
X29775500Y-36043982D01*
X29746503Y-35935763D01*
X29690485Y-35838737D01*
X29611263Y-35759515D01*
X29514237Y-35703497D01*
X29406018Y-35674500D01*
X29293982Y-35674500D01*
X29185763Y-35703497D01*
X29185760Y-35703498D01*
X29088740Y-35759513D01*
X29088734Y-35759517D01*
X29009517Y-35838734D01*
X29009513Y-35838740D01*
X28953498Y-35935760D01*
X28953497Y-35935761D01*
X28947132Y-35959517D01*
X28935248Y-36003872D01*
X28928761Y-36028081D01*
X28892396Y-36087741D01*
X28829549Y-36118270D01*
X28760173Y-36109975D01*
X28706295Y-36065490D01*
X28701599Y-36057987D01*
X28701526Y-36057862D01*
X28690485Y-36038737D01*
X28611263Y-35959515D01*
X28514237Y-35903497D01*
X28406018Y-35874500D01*
X28293982Y-35874500D01*
X28185763Y-35903497D01*
X28185760Y-35903498D01*
X28088740Y-35959513D01*
X28088734Y-35959517D01*
X28009517Y-36038734D01*
X28009513Y-36038740D01*
X27953498Y-36135760D01*
X27953497Y-36135763D01*
X27924500Y-36243982D01*
X24595728Y-36243982D01*
X24561261Y-36209515D01*
X24496577Y-36172169D01*
X24464237Y-36153498D01*
X24464236Y-36153497D01*
X24464235Y-36153497D01*
X24356016Y-36124500D01*
X24243980Y-36124500D01*
X24135761Y-36153497D01*
X24135758Y-36153498D01*
X24038738Y-36209513D01*
X24038732Y-36209517D01*
X23959515Y-36288734D01*
X23959511Y-36288740D01*
X23903496Y-36385760D01*
X23903495Y-36385763D01*
X23874498Y-36493982D01*
X23874498Y-36606018D01*
X23903495Y-36714237D01*
X23959513Y-36811263D01*
X23959515Y-36811265D01*
X24010570Y-36862320D01*
X24014908Y-36870265D01*
X24022156Y-36875691D01*
X24031390Y-36900450D01*
X24044055Y-36923643D01*
X24043409Y-36932672D01*
X24046573Y-36941155D01*
X24040956Y-36966975D01*
X24039071Y-36993335D01*
X24033252Y-37002388D01*
X24031721Y-37009428D01*
X24010570Y-37037682D01*
X23987682Y-37060570D01*
X23926359Y-37094055D01*
X23856667Y-37089071D01*
X23812320Y-37060570D01*
X23761267Y-37009517D01*
X23761265Y-37009515D01*
X23677683Y-36961259D01*
X23664241Y-36953498D01*
X23664240Y-36953497D01*
X23664239Y-36953497D01*
X23556020Y-36924500D01*
X23443984Y-36924500D01*
X23335765Y-36953497D01*
X23335762Y-36953498D01*
X23238742Y-37009513D01*
X23238736Y-37009517D01*
X23187683Y-37060571D01*
X23179737Y-37064909D01*
X23174312Y-37072157D01*
X23149552Y-37081391D01*
X23126360Y-37094056D01*
X23117330Y-37093410D01*
X23108848Y-37096574D01*
X23083027Y-37090957D01*
X23056668Y-37089072D01*
X23047614Y-37083253D01*
X23040575Y-37081722D01*
X23012321Y-37060571D01*
X22989431Y-37037681D01*
X22955946Y-36976358D01*
X22960930Y-36906666D01*
X22989431Y-36862319D01*
X23012321Y-36839429D01*
X23040485Y-36811265D01*
X23096503Y-36714239D01*
X23125500Y-36606020D01*
X23125500Y-36493984D01*
X23096503Y-36385765D01*
X23040485Y-36288739D01*
X22961263Y-36209517D01*
X22868600Y-36156018D01*
X22864239Y-36153500D01*
X22864238Y-36153499D01*
X22864237Y-36153499D01*
X22756018Y-36124502D01*
X22643982Y-36124502D01*
X22535763Y-36153499D01*
X22535760Y-36153500D01*
X22438740Y-36209515D01*
X22438734Y-36209519D01*
X22359517Y-36288736D01*
X22359513Y-36288742D01*
X22303498Y-36385762D01*
X22303498Y-36385763D01*
X22303497Y-36385765D01*
X22274500Y-36493984D01*
X21525500Y-36493984D01*
X21525500Y-36493982D01*
X21496503Y-36385763D01*
X21440485Y-36288737D01*
X21361263Y-36209515D01*
X21296579Y-36172169D01*
X21264239Y-36153498D01*
X21264238Y-36153497D01*
X21264237Y-36153497D01*
X21156018Y-36124500D01*
X21043982Y-36124500D01*
X20935763Y-36153497D01*
X20935760Y-36153498D01*
X20838740Y-36209513D01*
X20838734Y-36209517D01*
X20787681Y-36260571D01*
X20726358Y-36294056D01*
X20656666Y-36289072D01*
X20612319Y-36260571D01*
X20561265Y-36209517D01*
X20561263Y-36209515D01*
X20496579Y-36172169D01*
X20464239Y-36153498D01*
X20464238Y-36153497D01*
X20464237Y-36153497D01*
X20356018Y-36124500D01*
X20243982Y-36124500D01*
X20135763Y-36153497D01*
X20135760Y-36153498D01*
X20038740Y-36209513D01*
X20038734Y-36209517D01*
X19959517Y-36288734D01*
X19959513Y-36288740D01*
X19903498Y-36385760D01*
X19903497Y-36385763D01*
X19874500Y-36493982D01*
X19125500Y-36493982D01*
X19096503Y-36385763D01*
X19040485Y-36288737D01*
X18961263Y-36209515D01*
X18896579Y-36172169D01*
X18864239Y-36153498D01*
X18864238Y-36153497D01*
X18864237Y-36153497D01*
X18756018Y-36124500D01*
X18643982Y-36124500D01*
X18535763Y-36153497D01*
X18535760Y-36153498D01*
X18438740Y-36209513D01*
X18438734Y-36209517D01*
X18359517Y-36288734D01*
X18359513Y-36288740D01*
X18303498Y-36385760D01*
X18303497Y-36385763D01*
X18274500Y-36493982D01*
X12650000Y-36493982D01*
X12650000Y-34893982D01*
X23074500Y-34893982D01*
X23074500Y-35006018D01*
X23103497Y-35114237D01*
X23159515Y-35211263D01*
X23238737Y-35290485D01*
X23335763Y-35346503D01*
X23443982Y-35375500D01*
X23443984Y-35375500D01*
X23556016Y-35375500D01*
X23556018Y-35375500D01*
X23664237Y-35346503D01*
X23761263Y-35290485D01*
X23840485Y-35211263D01*
X23896503Y-35114237D01*
X23925500Y-35006018D01*
X23925500Y-34893982D01*
X23896503Y-34785763D01*
X23840485Y-34688737D01*
X23761263Y-34609515D01*
X23696579Y-34572169D01*
X23664239Y-34553498D01*
X23664238Y-34553497D01*
X23664237Y-34553497D01*
X23556018Y-34524500D01*
X23443982Y-34524500D01*
X23335763Y-34553497D01*
X23335760Y-34553498D01*
X23238740Y-34609513D01*
X23238734Y-34609517D01*
X23159517Y-34688734D01*
X23159513Y-34688740D01*
X23103498Y-34785760D01*
X23103497Y-34785763D01*
X23074500Y-34893982D01*
X12650000Y-34893982D01*
X12650000Y-34043982D01*
X32374500Y-34043982D01*
X32374500Y-34156018D01*
X32403497Y-34264237D01*
X32459515Y-34361263D01*
X32538737Y-34440485D01*
X32635763Y-34496503D01*
X32743982Y-34525500D01*
X32743984Y-34525500D01*
X32856016Y-34525500D01*
X32856018Y-34525500D01*
X32964237Y-34496503D01*
X33061263Y-34440485D01*
X33062819Y-34438929D01*
X33064451Y-34438037D01*
X33067709Y-34435538D01*
X33068098Y-34436045D01*
X33124142Y-34405444D01*
X33193834Y-34410428D01*
X33249767Y-34452300D01*
X33274184Y-34517764D01*
X33274500Y-34526610D01*
X33274500Y-34556018D01*
X33303497Y-34664237D01*
X33359515Y-34761263D01*
X33359517Y-34761265D01*
X33410571Y-34812319D01*
X33444056Y-34873642D01*
X33439072Y-34943334D01*
X33410571Y-34987681D01*
X33359517Y-35038734D01*
X33359513Y-35038740D01*
X33303498Y-35135760D01*
X33303497Y-35135763D01*
X33274500Y-35243982D01*
X33274500Y-35273390D01*
X33254815Y-35340429D01*
X33202011Y-35386184D01*
X33132853Y-35396128D01*
X33069297Y-35367103D01*
X33062819Y-35361071D01*
X33061265Y-35359517D01*
X33061263Y-35359515D01*
X32964237Y-35303497D01*
X32856018Y-35274500D01*
X32743982Y-35274500D01*
X32635763Y-35303497D01*
X32635760Y-35303498D01*
X32538740Y-35359513D01*
X32538734Y-35359517D01*
X32459517Y-35438734D01*
X32459513Y-35438740D01*
X32403498Y-35535760D01*
X32403497Y-35535763D01*
X32374500Y-35643982D01*
X32374500Y-35756018D01*
X32403497Y-35864237D01*
X32459515Y-35961263D01*
X32538737Y-36040485D01*
X32635763Y-36096503D01*
X32743982Y-36125500D01*
X32743984Y-36125500D01*
X32856016Y-36125500D01*
X32856018Y-36125500D01*
X32964237Y-36096503D01*
X33061263Y-36040485D01*
X33062819Y-36038929D01*
X33064451Y-36038037D01*
X33067709Y-36035538D01*
X33068098Y-36036045D01*
X33124142Y-36005444D01*
X33193834Y-36010428D01*
X33249767Y-36052300D01*
X33274184Y-36117764D01*
X33274500Y-36126610D01*
X33274500Y-36156018D01*
X33291047Y-36217770D01*
X33303497Y-36264236D01*
X33303498Y-36264239D01*
X33317642Y-36288737D01*
X33359515Y-36361263D01*
X33359517Y-36361265D01*
X33410571Y-36412319D01*
X33444056Y-36473642D01*
X33439072Y-36543334D01*
X33410571Y-36587681D01*
X33359517Y-36638734D01*
X33359513Y-36638740D01*
X33303498Y-36735760D01*
X33303497Y-36735763D01*
X33274500Y-36843982D01*
X33274500Y-36956018D01*
X33302515Y-37060570D01*
X33303497Y-37064236D01*
X33303498Y-37064239D01*
X33313401Y-37081391D01*
X33359515Y-37161263D01*
X33359517Y-37161265D01*
X33410571Y-37212319D01*
X33444056Y-37273642D01*
X33439072Y-37343334D01*
X33410571Y-37387681D01*
X33359517Y-37438734D01*
X33359513Y-37438740D01*
X33303498Y-37535760D01*
X33303497Y-37535763D01*
X33274500Y-37643982D01*
X33274500Y-37756018D01*
X33296382Y-37837681D01*
X33303497Y-37864236D01*
X33303498Y-37864239D01*
X33313401Y-37881391D01*
X33359515Y-37961263D01*
X33359517Y-37961265D01*
X33410571Y-38012319D01*
X33414909Y-38020264D01*
X33422157Y-38025690D01*
X33431391Y-38050449D01*
X33444056Y-38073642D01*
X33443410Y-38082671D01*
X33446574Y-38091154D01*
X33440957Y-38116974D01*
X33439072Y-38143334D01*
X33433253Y-38152387D01*
X33431722Y-38159427D01*
X33410571Y-38187681D01*
X33387681Y-38210571D01*
X33326358Y-38244056D01*
X33256666Y-38239072D01*
X33212319Y-38210571D01*
X33161265Y-38159517D01*
X33161263Y-38159515D01*
X33082839Y-38114237D01*
X33064239Y-38103498D01*
X33064238Y-38103497D01*
X33064237Y-38103497D01*
X32956018Y-38074500D01*
X32843982Y-38074500D01*
X32735763Y-38103497D01*
X32735760Y-38103498D01*
X32638740Y-38159513D01*
X32638734Y-38159517D01*
X32559517Y-38238734D01*
X32559513Y-38238740D01*
X32503498Y-38335760D01*
X32503497Y-38335763D01*
X32474500Y-38443982D01*
X32474500Y-38556018D01*
X32502273Y-38659667D01*
X32503497Y-38664236D01*
X32503498Y-38664239D01*
X32513954Y-38682349D01*
X32559515Y-38761263D01*
X32638737Y-38840485D01*
X32735763Y-38896503D01*
X32843982Y-38925500D01*
X32843984Y-38925500D01*
X32956016Y-38925500D01*
X32956018Y-38925500D01*
X33064237Y-38896503D01*
X33161263Y-38840485D01*
X33212319Y-38789429D01*
X33273642Y-38755944D01*
X33343334Y-38760928D01*
X33387681Y-38789429D01*
X33438737Y-38840485D01*
X33535763Y-38896503D01*
X33643982Y-38925500D01*
X33643984Y-38925500D01*
X33756016Y-38925500D01*
X33756018Y-38925500D01*
X33864237Y-38896503D01*
X33961263Y-38840485D01*
X34012319Y-38789429D01*
X34073642Y-38755944D01*
X34143334Y-38760928D01*
X34187681Y-38789429D01*
X34238737Y-38840485D01*
X34335763Y-38896503D01*
X34443982Y-38925500D01*
X34443984Y-38925500D01*
X34556016Y-38925500D01*
X34556018Y-38925500D01*
X34664237Y-38896503D01*
X34761263Y-38840485D01*
X34840485Y-38761263D01*
X34896503Y-38664237D01*
X34925500Y-38556018D01*
X34925500Y-38443982D01*
X38074500Y-38443982D01*
X38074500Y-38556018D01*
X38102273Y-38659667D01*
X38103497Y-38664236D01*
X38103498Y-38664239D01*
X38113954Y-38682349D01*
X38159515Y-38761263D01*
X38159517Y-38761265D01*
X38210571Y-38812319D01*
X38244056Y-38873642D01*
X38239072Y-38943334D01*
X38210571Y-38987681D01*
X38159517Y-39038734D01*
X38159513Y-39038740D01*
X38103498Y-39135760D01*
X38103497Y-39135763D01*
X38074500Y-39243982D01*
X38074500Y-39356018D01*
X38096665Y-39438737D01*
X38103497Y-39464236D01*
X38103498Y-39464239D01*
X38113401Y-39481391D01*
X38159515Y-39561263D01*
X38238737Y-39640485D01*
X38335763Y-39696503D01*
X38443982Y-39725500D01*
X38443984Y-39725500D01*
X38556016Y-39725500D01*
X38556018Y-39725500D01*
X38664237Y-39696503D01*
X38755206Y-39643982D01*
X39774500Y-39643982D01*
X39774500Y-39756018D01*
X39803497Y-39864237D01*
X39859515Y-39961263D01*
X39938737Y-40040485D01*
X40035763Y-40096503D01*
X40143982Y-40125500D01*
X40143984Y-40125500D01*
X40256016Y-40125500D01*
X40256018Y-40125500D01*
X40364237Y-40096503D01*
X40461263Y-40040485D01*
X40540485Y-39961263D01*
X40596503Y-39864237D01*
X40625500Y-39756018D01*
X40625500Y-39643982D01*
X40596503Y-39535763D01*
X40540485Y-39438737D01*
X40461263Y-39359515D01*
X40364237Y-39303497D01*
X40256018Y-39274500D01*
X40143982Y-39274500D01*
X40035763Y-39303497D01*
X40035760Y-39303498D01*
X39938740Y-39359513D01*
X39938734Y-39359517D01*
X39859517Y-39438734D01*
X39859513Y-39438740D01*
X39803498Y-39535760D01*
X39803497Y-39535763D01*
X39774500Y-39643982D01*
X38755206Y-39643982D01*
X38761263Y-39640485D01*
X38840485Y-39561263D01*
X38896503Y-39464237D01*
X38925500Y-39356018D01*
X38925500Y-39243982D01*
X38896503Y-39135763D01*
X38840485Y-39038737D01*
X38789429Y-38987681D01*
X38785090Y-38979735D01*
X38777843Y-38974310D01*
X38768608Y-38949550D01*
X38755944Y-38926358D01*
X38756589Y-38917328D01*
X38753426Y-38908846D01*
X38759042Y-38883025D01*
X38760928Y-38856666D01*
X38766746Y-38847612D01*
X38768278Y-38840573D01*
X38789429Y-38812319D01*
X38812319Y-38789429D01*
X38873642Y-38755944D01*
X38943334Y-38760928D01*
X38987681Y-38789429D01*
X39038737Y-38840485D01*
X39135763Y-38896503D01*
X39243982Y-38925500D01*
X39243984Y-38925500D01*
X39356016Y-38925500D01*
X39356018Y-38925500D01*
X39464237Y-38896503D01*
X39561263Y-38840485D01*
X39640485Y-38761263D01*
X39696503Y-38664237D01*
X39725500Y-38556018D01*
X39725500Y-38443982D01*
X39696503Y-38335763D01*
X39640485Y-38238737D01*
X39561263Y-38159515D01*
X39482839Y-38114237D01*
X39464239Y-38103498D01*
X39464238Y-38103497D01*
X39464237Y-38103497D01*
X39356018Y-38074500D01*
X39243982Y-38074500D01*
X39135763Y-38103497D01*
X39135760Y-38103498D01*
X39038740Y-38159513D01*
X39038734Y-38159517D01*
X38987681Y-38210571D01*
X38926358Y-38244056D01*
X38856666Y-38239072D01*
X38812319Y-38210571D01*
X38761265Y-38159517D01*
X38761263Y-38159515D01*
X38682839Y-38114237D01*
X38664239Y-38103498D01*
X38664238Y-38103497D01*
X38664237Y-38103497D01*
X38556018Y-38074500D01*
X38443982Y-38074500D01*
X38335763Y-38103497D01*
X38335760Y-38103498D01*
X38238740Y-38159513D01*
X38238734Y-38159517D01*
X38159517Y-38238734D01*
X38159513Y-38238740D01*
X38103498Y-38335760D01*
X38103497Y-38335763D01*
X38074500Y-38443982D01*
X34925500Y-38443982D01*
X34896503Y-38335763D01*
X34840485Y-38238737D01*
X34789429Y-38187681D01*
X34755944Y-38126358D01*
X34760928Y-38056666D01*
X34789429Y-38012319D01*
X34802934Y-37998814D01*
X34840485Y-37961263D01*
X34896503Y-37864237D01*
X34925500Y-37756018D01*
X34925500Y-37643982D01*
X40074500Y-37643982D01*
X40074500Y-37756018D01*
X40096382Y-37837681D01*
X40103497Y-37864236D01*
X40103497Y-37864237D01*
X40160518Y-37963001D01*
X40176990Y-38030901D01*
X40160518Y-38086999D01*
X40103497Y-38185762D01*
X40103497Y-38185763D01*
X40074500Y-38293982D01*
X40074500Y-38406018D01*
X40099219Y-38498269D01*
X40103497Y-38514236D01*
X40103498Y-38514239D01*
X40105485Y-38517680D01*
X40159515Y-38611263D01*
X40238737Y-38690485D01*
X40335763Y-38746503D01*
X40443982Y-38775500D01*
X40443984Y-38775500D01*
X40556016Y-38775500D01*
X40556018Y-38775500D01*
X40664237Y-38746503D01*
X40761263Y-38690485D01*
X40840485Y-38611263D01*
X40896503Y-38514237D01*
X40925500Y-38406018D01*
X40925500Y-38293982D01*
X40896503Y-38185763D01*
X40840485Y-38088737D01*
X40840484Y-38088736D01*
X40839482Y-38087000D01*
X40823009Y-38019100D01*
X40839482Y-37963000D01*
X40877833Y-37896574D01*
X40896503Y-37864237D01*
X40925500Y-37756018D01*
X40925500Y-37643982D01*
X40896503Y-37535763D01*
X40840485Y-37438737D01*
X40761263Y-37359515D01*
X40664237Y-37303497D01*
X40556018Y-37274500D01*
X40443982Y-37274500D01*
X40335763Y-37303497D01*
X40335760Y-37303498D01*
X40238740Y-37359513D01*
X40238734Y-37359517D01*
X40159517Y-37438734D01*
X40159513Y-37438740D01*
X40103498Y-37535760D01*
X40103497Y-37535763D01*
X40074500Y-37643982D01*
X34925500Y-37643982D01*
X34896503Y-37535763D01*
X34840485Y-37438737D01*
X34789429Y-37387681D01*
X34755944Y-37326358D01*
X34760928Y-37256666D01*
X34789429Y-37212319D01*
X34812319Y-37189429D01*
X34840485Y-37161263D01*
X34896503Y-37064237D01*
X34925500Y-36956018D01*
X34925500Y-36843982D01*
X34896503Y-36735763D01*
X34840485Y-36638737D01*
X34789429Y-36587681D01*
X34755944Y-36526358D01*
X34760928Y-36456666D01*
X34789429Y-36412319D01*
X34802934Y-36398814D01*
X34840485Y-36361263D01*
X34896503Y-36264237D01*
X34925500Y-36156018D01*
X34925500Y-36043982D01*
X34896503Y-35935763D01*
X34840485Y-35838737D01*
X34789429Y-35787681D01*
X34755944Y-35726358D01*
X34760928Y-35656666D01*
X34789429Y-35612319D01*
X34840485Y-35561263D01*
X34896503Y-35464237D01*
X34925500Y-35356018D01*
X34925500Y-35243982D01*
X34896503Y-35135763D01*
X34840485Y-35038737D01*
X34789429Y-34987681D01*
X34755944Y-34926358D01*
X34760928Y-34856666D01*
X34789429Y-34812319D01*
X34840485Y-34761263D01*
X34896503Y-34664237D01*
X34925500Y-34556018D01*
X34925500Y-34443982D01*
X34896503Y-34335763D01*
X34840485Y-34238737D01*
X34789429Y-34187681D01*
X34785090Y-34179735D01*
X34777843Y-34174310D01*
X34768608Y-34149550D01*
X34755944Y-34126358D01*
X34756589Y-34117328D01*
X34753426Y-34108846D01*
X34759042Y-34083025D01*
X34760928Y-34056666D01*
X34766746Y-34047612D01*
X34768278Y-34040573D01*
X34789429Y-34012319D01*
X34812319Y-33989429D01*
X34873642Y-33955944D01*
X34943334Y-33960928D01*
X34987681Y-33989429D01*
X35038737Y-34040485D01*
X35135763Y-34096503D01*
X35243982Y-34125500D01*
X35243984Y-34125500D01*
X35356016Y-34125500D01*
X35356018Y-34125500D01*
X35464237Y-34096503D01*
X35561263Y-34040485D01*
X35640485Y-33961263D01*
X35696503Y-33864237D01*
X35725500Y-33756018D01*
X35725500Y-33643982D01*
X35696503Y-33535763D01*
X35640485Y-33438737D01*
X35561263Y-33359515D01*
X35464237Y-33303497D01*
X35356018Y-33274500D01*
X35243982Y-33274500D01*
X35135763Y-33303497D01*
X35135760Y-33303498D01*
X35038740Y-33359513D01*
X35038734Y-33359517D01*
X34987681Y-33410571D01*
X34926358Y-33444056D01*
X34856666Y-33439072D01*
X34812319Y-33410571D01*
X34761265Y-33359517D01*
X34761263Y-33359515D01*
X34664237Y-33303497D01*
X34556018Y-33274500D01*
X34443982Y-33274500D01*
X34335763Y-33303497D01*
X34335760Y-33303498D01*
X34238740Y-33359513D01*
X34238734Y-33359517D01*
X34187681Y-33410571D01*
X34126358Y-33444056D01*
X34056666Y-33439072D01*
X34012319Y-33410571D01*
X33961265Y-33359517D01*
X33961263Y-33359515D01*
X33864237Y-33303497D01*
X33756018Y-33274500D01*
X33643982Y-33274500D01*
X33535763Y-33303497D01*
X33535760Y-33303498D01*
X33438740Y-33359513D01*
X33438734Y-33359517D01*
X33359517Y-33438734D01*
X33359513Y-33438740D01*
X33303498Y-33535760D01*
X33303497Y-33535763D01*
X33274500Y-33643982D01*
X33274500Y-33673390D01*
X33254815Y-33740429D01*
X33202011Y-33786184D01*
X33132853Y-33796128D01*
X33069297Y-33767103D01*
X33062819Y-33761071D01*
X33061265Y-33759517D01*
X33061263Y-33759515D01*
X32964237Y-33703497D01*
X32856018Y-33674500D01*
X32743982Y-33674500D01*
X32635763Y-33703497D01*
X32635760Y-33703498D01*
X32538740Y-33759513D01*
X32538734Y-33759517D01*
X32459517Y-33838734D01*
X32459513Y-33838740D01*
X32403498Y-33935760D01*
X32403497Y-33935763D01*
X32374500Y-34043982D01*
X12650000Y-34043982D01*
X12650000Y-32843982D01*
X38074500Y-32843982D01*
X38074500Y-32956018D01*
X38103497Y-33064237D01*
X38159515Y-33161263D01*
X38159517Y-33161265D01*
X38210571Y-33212319D01*
X38244056Y-33273642D01*
X38239072Y-33343334D01*
X38210571Y-33387681D01*
X38159517Y-33438734D01*
X38159513Y-33438740D01*
X38103498Y-33535760D01*
X38103497Y-33535763D01*
X38074500Y-33643982D01*
X38074500Y-33756018D01*
X38103497Y-33864237D01*
X38159515Y-33961263D01*
X38159517Y-33961265D01*
X38210571Y-34012319D01*
X38244056Y-34073642D01*
X38239072Y-34143334D01*
X38210571Y-34187681D01*
X38159517Y-34238734D01*
X38159513Y-34238740D01*
X38103498Y-34335760D01*
X38103497Y-34335763D01*
X38074500Y-34443982D01*
X38074500Y-34556018D01*
X38103497Y-34664237D01*
X38159515Y-34761263D01*
X38159517Y-34761265D01*
X38210571Y-34812319D01*
X38244056Y-34873642D01*
X38239072Y-34943334D01*
X38210571Y-34987681D01*
X38159517Y-35038734D01*
X38159513Y-35038740D01*
X38103498Y-35135760D01*
X38103497Y-35135763D01*
X38074500Y-35243982D01*
X38074500Y-35356018D01*
X38103497Y-35464237D01*
X38159515Y-35561263D01*
X38159517Y-35561265D01*
X38210571Y-35612319D01*
X38244056Y-35673642D01*
X38239072Y-35743334D01*
X38210571Y-35787681D01*
X38159517Y-35838734D01*
X38159513Y-35838740D01*
X38103498Y-35935760D01*
X38103498Y-35935761D01*
X38103497Y-35935763D01*
X38074500Y-36043982D01*
X38074500Y-36156018D01*
X38091047Y-36217770D01*
X38103497Y-36264236D01*
X38103498Y-36264239D01*
X38117642Y-36288737D01*
X38159515Y-36361263D01*
X38159517Y-36361265D01*
X38210571Y-36412319D01*
X38244056Y-36473642D01*
X38239072Y-36543334D01*
X38210571Y-36587681D01*
X38159517Y-36638734D01*
X38159513Y-36638740D01*
X38103498Y-36735760D01*
X38103497Y-36735763D01*
X38074500Y-36843982D01*
X38074500Y-36956018D01*
X38102515Y-37060570D01*
X38103497Y-37064236D01*
X38103498Y-37064239D01*
X38113401Y-37081391D01*
X38159515Y-37161263D01*
X38238737Y-37240485D01*
X38335763Y-37296503D01*
X38443982Y-37325500D01*
X38443984Y-37325500D01*
X38556016Y-37325500D01*
X38556018Y-37325500D01*
X38664237Y-37296503D01*
X38761263Y-37240485D01*
X38812319Y-37189429D01*
X38873642Y-37155944D01*
X38943334Y-37160928D01*
X38987681Y-37189429D01*
X39038737Y-37240485D01*
X39135763Y-37296503D01*
X39243982Y-37325500D01*
X39243984Y-37325500D01*
X39356016Y-37325500D01*
X39356018Y-37325500D01*
X39464237Y-37296503D01*
X39561263Y-37240485D01*
X39640485Y-37161263D01*
X39696503Y-37064237D01*
X39725500Y-36956018D01*
X39725500Y-36843982D01*
X39696503Y-36735763D01*
X39640485Y-36638737D01*
X39589429Y-36587681D01*
X39555944Y-36526358D01*
X39560928Y-36456666D01*
X39589429Y-36412319D01*
X39602934Y-36398814D01*
X39640485Y-36361263D01*
X39696503Y-36264237D01*
X39725500Y-36156018D01*
X39725500Y-36126610D01*
X39745185Y-36059571D01*
X39797989Y-36013816D01*
X39867147Y-36003872D01*
X39930703Y-36032897D01*
X39937181Y-36038929D01*
X39938737Y-36040485D01*
X40035763Y-36096503D01*
X40143982Y-36125500D01*
X40143984Y-36125500D01*
X40256016Y-36125500D01*
X40256018Y-36125500D01*
X40364237Y-36096503D01*
X40461263Y-36040485D01*
X40540485Y-35961263D01*
X40596503Y-35864237D01*
X40625500Y-35756018D01*
X40625500Y-35643982D01*
X40596503Y-35535763D01*
X40540485Y-35438737D01*
X40461263Y-35359515D01*
X40364237Y-35303497D01*
X40256018Y-35274500D01*
X40143982Y-35274500D01*
X40035763Y-35303497D01*
X40035760Y-35303498D01*
X39938740Y-35359513D01*
X39938734Y-35359517D01*
X39937181Y-35361071D01*
X39935548Y-35361962D01*
X39932291Y-35364462D01*
X39931901Y-35363954D01*
X39875858Y-35394556D01*
X39806166Y-35389572D01*
X39750233Y-35347700D01*
X39725816Y-35282236D01*
X39725500Y-35273390D01*
X39725500Y-35243984D01*
X39725500Y-35243982D01*
X39696503Y-35135763D01*
X39640485Y-35038737D01*
X39589429Y-34987681D01*
X39555944Y-34926358D01*
X39560928Y-34856666D01*
X39589429Y-34812319D01*
X39640485Y-34761263D01*
X39696503Y-34664237D01*
X39725500Y-34556018D01*
X39725500Y-34526610D01*
X39745185Y-34459571D01*
X39797989Y-34413816D01*
X39867147Y-34403872D01*
X39930703Y-34432897D01*
X39937181Y-34438929D01*
X39938737Y-34440485D01*
X40035763Y-34496503D01*
X40143982Y-34525500D01*
X40143984Y-34525500D01*
X40256016Y-34525500D01*
X40256018Y-34525500D01*
X40364237Y-34496503D01*
X40461263Y-34440485D01*
X40540485Y-34361263D01*
X40596503Y-34264237D01*
X40625500Y-34156018D01*
X40625500Y-34043982D01*
X40596503Y-33935763D01*
X40540485Y-33838737D01*
X40461263Y-33759515D01*
X40364237Y-33703497D01*
X40256018Y-33674500D01*
X40143982Y-33674500D01*
X40035763Y-33703497D01*
X40035760Y-33703498D01*
X39938740Y-33759513D01*
X39938734Y-33759517D01*
X39937181Y-33761071D01*
X39935548Y-33761962D01*
X39932291Y-33764462D01*
X39931901Y-33763954D01*
X39875858Y-33794556D01*
X39806166Y-33789572D01*
X39750233Y-33747700D01*
X39725816Y-33682236D01*
X39725500Y-33673390D01*
X39725500Y-33643984D01*
X39725500Y-33643982D01*
X39696503Y-33535763D01*
X39640485Y-33438737D01*
X39589429Y-33387681D01*
X39555944Y-33326358D01*
X39560928Y-33256666D01*
X39589429Y-33212319D01*
X39640485Y-33161263D01*
X39696503Y-33064237D01*
X39725500Y-32956018D01*
X39725500Y-32843982D01*
X39696503Y-32735763D01*
X39640485Y-32638737D01*
X39561263Y-32559515D01*
X39464237Y-32503497D01*
X39356018Y-32474500D01*
X39243982Y-32474500D01*
X39135763Y-32503497D01*
X39135760Y-32503498D01*
X39038740Y-32559513D01*
X39038734Y-32559517D01*
X38987681Y-32610571D01*
X38926358Y-32644056D01*
X38856666Y-32639072D01*
X38812319Y-32610571D01*
X38761265Y-32559517D01*
X38761263Y-32559515D01*
X38664237Y-32503497D01*
X38556018Y-32474500D01*
X38443982Y-32474500D01*
X38335763Y-32503497D01*
X38335760Y-32503498D01*
X38238740Y-32559513D01*
X38238734Y-32559517D01*
X38159517Y-32638734D01*
X38159513Y-32638740D01*
X38103498Y-32735760D01*
X38103497Y-32735763D01*
X38074500Y-32843982D01*
X12650000Y-32843982D01*
X12650000Y-18624000D01*
X12669685Y-18556961D01*
X12722489Y-18511206D01*
X12774000Y-18500000D01*
X42026000Y-18500000D01*
X42093039Y-18519685D01*
G37*
%TD.AperFunction*%
%TD*%
M02*
