%TF.GenerationSoftware,KiCad,Pcbnew,9.0.3*%
%TF.CreationDate,2025-09-01T16:13:13+03:00*%
%TF.ProjectId,ThingsCore-1,5468696e-6773-4436-9f72-652d312e6b69,rev?*%
%TF.SameCoordinates,Original*%
%TF.FileFunction,Paste,Top*%
%TF.FilePolarity,Positive*%
%FSLAX46Y46*%
G04 Gerber Fmt 4.6, Leading zero omitted, Abs format (unit mm)*
G04 Created by KiCad (PCBNEW 9.0.3) date 2025-09-01 16:13:13*
%MOMM*%
%LPD*%
G01*
G04 APERTURE LIST*
G04 Aperture macros list*
%AMRoundRect*
0 Rectangle with rounded corners*
0 $1 Rounding radius*
0 $2 $3 $4 $5 $6 $7 $8 $9 X,Y pos of 4 corners*
0 Add a 4 corners polygon primitive as box body*
4,1,4,$2,$3,$4,$5,$6,$7,$8,$9,$2,$3,0*
0 Add four circle primitives for the rounded corners*
1,1,$1+$1,$2,$3*
1,1,$1+$1,$4,$5*
1,1,$1+$1,$6,$7*
1,1,$1+$1,$8,$9*
0 Add four rect primitives between the rounded corners*
20,1,$1+$1,$2,$3,$4,$5,0*
20,1,$1+$1,$4,$5,$6,$7,0*
20,1,$1+$1,$6,$7,$8,$9,0*
20,1,$1+$1,$8,$9,$2,$3,0*%
G04 Aperture macros list end*
%ADD10R,1.350000X1.800000*%
%ADD11R,0.200000X0.750000*%
%ADD12R,0.750000X0.200000*%
%ADD13R,2.800000X2.800000*%
%ADD14R,4.350000X3.450000*%
%ADD15R,0.450000X0.950000*%
%ADD16RoundRect,0.140000X0.140000X0.170000X-0.140000X0.170000X-0.140000X-0.170000X0.140000X-0.170000X0*%
%ADD17RoundRect,0.147500X0.172500X-0.147500X0.172500X0.147500X-0.172500X0.147500X-0.172500X-0.147500X0*%
%ADD18C,0.450000*%
%ADD19C,0.320002*%
%ADD20RoundRect,0.218750X0.256250X-0.218750X0.256250X0.218750X-0.256250X0.218750X-0.256250X-0.218750X0*%
%ADD21RoundRect,0.100000X0.400000X0.400000X-0.400000X0.400000X-0.400000X-0.400000X0.400000X-0.400000X0*%
%ADD22RoundRect,0.105000X0.420000X0.995000X-0.420000X0.995000X-0.420000X-0.995000X0.420000X-0.995000X0*%
%ADD23C,0.240000*%
G04 APERTURE END LIST*
D10*
%TO.C,S2*%
X62850000Y-54800000D03*
X58700000Y-54800000D03*
%TD*%
%TO.C,S1*%
X55820000Y-54800000D03*
X51670000Y-54800000D03*
%TD*%
D11*
%TO.C,IC1*%
X15775000Y-24975000D03*
X16175000Y-24975000D03*
X16575000Y-24975000D03*
X16975000Y-24975000D03*
X17375000Y-24975000D03*
X17775000Y-24975000D03*
X18175000Y-24975000D03*
X18575000Y-24975000D03*
D12*
X19175000Y-24375000D03*
X19175000Y-23975000D03*
X19175000Y-23575000D03*
X19175000Y-23175000D03*
X19175000Y-22775000D03*
X19175000Y-22375000D03*
X19175000Y-21975000D03*
X19175000Y-21575000D03*
D11*
X18575000Y-20975000D03*
X18175000Y-20975000D03*
X17775000Y-20975000D03*
X17375000Y-20975000D03*
X16975000Y-20975000D03*
X16575000Y-20975000D03*
X16175000Y-20975000D03*
X15775000Y-20975000D03*
D12*
X15175000Y-21575000D03*
X15175000Y-21975000D03*
X15175000Y-22375000D03*
X15175000Y-22775000D03*
X15175000Y-23175000D03*
X15175000Y-23575000D03*
X15175000Y-23975000D03*
X15175000Y-24375000D03*
D13*
X17175000Y-22975000D03*
%TD*%
D14*
%TO.C,U8*%
X17060000Y-31800000D03*
D15*
X18965000Y-35700000D03*
X17695000Y-35700000D03*
X16425000Y-35700000D03*
X15155000Y-35700000D03*
X15155000Y-27900000D03*
X16425000Y-27900000D03*
X17695000Y-27900000D03*
X18965000Y-27900000D03*
%TD*%
D16*
%TO.C,C82*%
X21942100Y-21102900D03*
X20982100Y-21102900D03*
%TD*%
D17*
%TO.C,L4*%
X21937100Y-19217900D03*
X21937100Y-20187900D03*
%TD*%
D16*
%TO.C,C81*%
X20982100Y-18302900D03*
X21942100Y-18302900D03*
%TD*%
D18*
%TO.C,U2*%
X27750000Y-21200000D03*
X28550000Y-21200000D03*
X29350000Y-21200000D03*
X32550000Y-21200000D03*
X33350000Y-21200000D03*
X34150000Y-21200000D03*
X27750000Y-22000000D03*
X28550000Y-22000000D03*
X29350000Y-22000000D03*
X32550000Y-22000000D03*
X33350000Y-22000000D03*
X34150000Y-22000000D03*
X27750000Y-22800000D03*
X28550000Y-22800000D03*
X29350000Y-22800000D03*
X32550000Y-22800000D03*
X33350000Y-22800000D03*
X34150000Y-22800000D03*
X27750000Y-23600000D03*
X28550000Y-23600000D03*
X29350000Y-23600000D03*
X32550000Y-23600000D03*
X33350000Y-23600000D03*
X34150000Y-23600000D03*
X27750000Y-24400000D03*
X28550000Y-24400000D03*
X29350000Y-24400000D03*
X32550000Y-24400000D03*
X33350000Y-24400000D03*
X34150000Y-24400000D03*
X27750000Y-25200000D03*
X28550000Y-25200000D03*
X29350000Y-25200000D03*
X32550000Y-25200000D03*
X33350000Y-25200000D03*
X34150000Y-25200000D03*
X27750000Y-26000000D03*
X28550000Y-26000000D03*
X29350000Y-26000000D03*
X32550000Y-26000000D03*
X33350000Y-26000000D03*
X34150000Y-26000000D03*
X27750000Y-26800000D03*
X28550000Y-26800000D03*
X29350000Y-26800000D03*
X32550000Y-26800000D03*
X33350000Y-26800000D03*
X34150000Y-26800000D03*
X27750000Y-27600000D03*
X28550000Y-27600000D03*
X29350000Y-27600000D03*
X32550000Y-27600000D03*
X33350000Y-27600000D03*
X34150000Y-27600000D03*
X27750000Y-28400000D03*
X28550000Y-28400000D03*
X29350000Y-28400000D03*
X32550000Y-28400000D03*
X33350000Y-28400000D03*
X34150000Y-28400000D03*
X27750000Y-29200000D03*
X28550000Y-29200000D03*
X29350000Y-29200000D03*
X32550000Y-29200000D03*
X33350000Y-29200000D03*
X34150000Y-29200000D03*
X27750000Y-30000000D03*
X28550000Y-30000000D03*
X29350000Y-30000000D03*
X32550000Y-30000000D03*
X33350000Y-30000000D03*
X34150000Y-30000000D03*
X27750000Y-30800000D03*
X28550000Y-30800000D03*
X29350000Y-30800000D03*
X32550000Y-30800000D03*
X33350000Y-30800000D03*
X34150000Y-30800000D03*
X27750000Y-31600000D03*
X28550000Y-31600000D03*
X29350000Y-31600000D03*
X32550000Y-31600000D03*
X33350000Y-31600000D03*
X34150000Y-31600000D03*
X27750000Y-32400000D03*
X28550000Y-32400000D03*
X29350000Y-32400000D03*
X32550000Y-32400000D03*
X33350000Y-32400000D03*
X34150000Y-32400000D03*
X27750000Y-33200000D03*
X28550000Y-33200000D03*
X29350000Y-33200000D03*
X32550000Y-33200000D03*
X33350000Y-33200000D03*
X34150000Y-33200000D03*
%TD*%
D19*
%TO.C,U7*%
X27100000Y-50850000D03*
X27100000Y-50050000D03*
X27100000Y-49250000D03*
X27100000Y-48450000D03*
X27100000Y-47650000D03*
X27100000Y-46850000D03*
X27100000Y-46050000D03*
X27100000Y-45250000D03*
X27100000Y-44450000D03*
X27100000Y-43650000D03*
X27100000Y-42850000D03*
X27100000Y-42050000D03*
X27100000Y-41250000D03*
X27100000Y-40450000D03*
X27100000Y-39650000D03*
X27100000Y-38850000D03*
X27100000Y-38050000D03*
X27900000Y-50850000D03*
X27900000Y-50050000D03*
X27900000Y-49250000D03*
X27900000Y-48450000D03*
X27900000Y-47650000D03*
X27900000Y-46850000D03*
X27900000Y-46050000D03*
X27900000Y-45250000D03*
X27900000Y-44450000D03*
X27900000Y-43650000D03*
X27900000Y-42850000D03*
X27900000Y-42050000D03*
X27900000Y-41250000D03*
X27900000Y-40450000D03*
X27900000Y-39650000D03*
X27900000Y-38850000D03*
X27900000Y-38050000D03*
X28700000Y-50850000D03*
X28700000Y-50050000D03*
X28700000Y-49250000D03*
X28700000Y-48450000D03*
X28700000Y-47650000D03*
X28700000Y-46850000D03*
X28700000Y-46050000D03*
X28700000Y-45250000D03*
X28700000Y-44450000D03*
X28700000Y-43650000D03*
X28700000Y-42850000D03*
X28700000Y-42050000D03*
X28700000Y-41250000D03*
X28700000Y-40450000D03*
X28700000Y-39650000D03*
X28700000Y-38850000D03*
X28700000Y-38050000D03*
X29500000Y-50850000D03*
X29500000Y-50050000D03*
X29500000Y-49250000D03*
X29500000Y-48450000D03*
X29500000Y-47650000D03*
X29500000Y-46850000D03*
X29500000Y-46050000D03*
X29500000Y-45250000D03*
X29500000Y-44450000D03*
X29500000Y-43650000D03*
X29500000Y-42850000D03*
X29500000Y-42050000D03*
X29500000Y-41250000D03*
X29500000Y-40450000D03*
X29500000Y-39650000D03*
X29500000Y-38850000D03*
X29500000Y-38050000D03*
X30300000Y-50850000D03*
X30300000Y-50050000D03*
X30300000Y-49250000D03*
X30300000Y-48450000D03*
X30300000Y-47650000D03*
X30300000Y-46850000D03*
X30300000Y-46050000D03*
X30300000Y-45250000D03*
X30300000Y-44450000D03*
X30300000Y-43650000D03*
X30300000Y-42850000D03*
X30300000Y-42050000D03*
X30300000Y-41250000D03*
X30300000Y-40450000D03*
X30300000Y-39650000D03*
X30300000Y-38850000D03*
X30300000Y-38050000D03*
X31100000Y-50850000D03*
X31100000Y-50050000D03*
X31100000Y-49250000D03*
X31100000Y-48450000D03*
X31100000Y-47650000D03*
X31100000Y-46850000D03*
X31100000Y-46050000D03*
X31100000Y-45250000D03*
X31100000Y-44450000D03*
X31100000Y-43650000D03*
X31100000Y-42850000D03*
X31100000Y-42050000D03*
X31100000Y-41250000D03*
X31100000Y-40450000D03*
X31100000Y-39650000D03*
X31100000Y-38850000D03*
X31100000Y-38050000D03*
X31900000Y-50850000D03*
X31900000Y-50050000D03*
X31900000Y-49250000D03*
X31900000Y-48450000D03*
X31900000Y-47650000D03*
X31900000Y-46850000D03*
X31900000Y-46050000D03*
X31900000Y-45250000D03*
X31900000Y-44450000D03*
X31900000Y-43650000D03*
X31900000Y-42850000D03*
X31900000Y-42050000D03*
X31900000Y-41250000D03*
X31900000Y-40450000D03*
X31900000Y-39650000D03*
X31900000Y-38850000D03*
X31900000Y-38050000D03*
X32700000Y-50850000D03*
X32700000Y-50050000D03*
X32700000Y-49250000D03*
X32700000Y-48450000D03*
X32700000Y-47650000D03*
X32700000Y-46850000D03*
X32700000Y-46050000D03*
X32700000Y-45250000D03*
X32700000Y-44450000D03*
X32700000Y-43650000D03*
X32700000Y-42850000D03*
X32700000Y-42050000D03*
X32700000Y-41250000D03*
X32700000Y-40450000D03*
X32700000Y-39650000D03*
X32700000Y-38850000D03*
X32700000Y-38050000D03*
X33500000Y-50850000D03*
X33500000Y-50050000D03*
X33500000Y-49250000D03*
X33500000Y-48450000D03*
X33500000Y-47650000D03*
X33500000Y-46850000D03*
X33500000Y-46050000D03*
X33500000Y-45250000D03*
X33500000Y-44450000D03*
X33500000Y-43650000D03*
X33500000Y-42850000D03*
X33500000Y-42050000D03*
X33500000Y-41250000D03*
X33500000Y-40450000D03*
X33500000Y-39650000D03*
X33500000Y-38850000D03*
X33500000Y-38050000D03*
X34300000Y-50850000D03*
X34300000Y-50050000D03*
X34300000Y-49250000D03*
X34300000Y-48450000D03*
X34300000Y-47650000D03*
X34300000Y-46850000D03*
X34300000Y-46050000D03*
X34300000Y-45250000D03*
X34300000Y-44450000D03*
X34300000Y-43650000D03*
X34300000Y-42850000D03*
X34300000Y-42050000D03*
X34300000Y-41250000D03*
X34300000Y-40450000D03*
X34300000Y-39650000D03*
X34300000Y-38850000D03*
X34300000Y-38050000D03*
X35100000Y-50850000D03*
X35100000Y-50050000D03*
X35100000Y-49250000D03*
X35100000Y-48450000D03*
X35100000Y-47650000D03*
X35100000Y-46850000D03*
X35100000Y-46050000D03*
X35100000Y-45250000D03*
X35100000Y-44450000D03*
X35100000Y-43650000D03*
X35100000Y-42850000D03*
X35100000Y-42050000D03*
X35100000Y-41250000D03*
X35100000Y-40450000D03*
X35100000Y-39650000D03*
X35100000Y-38850000D03*
X35100000Y-38050000D03*
X35900000Y-50850000D03*
X35900000Y-50050000D03*
X35900000Y-49250000D03*
X35900000Y-48450000D03*
X35900000Y-47650000D03*
X35900000Y-46850000D03*
X35900000Y-46050000D03*
X35900000Y-45250000D03*
X35900000Y-44450000D03*
X35900000Y-43650000D03*
X35900000Y-42850000D03*
X35900000Y-42050000D03*
X35900000Y-41250000D03*
X35900000Y-40450000D03*
X35900000Y-39650000D03*
X35900000Y-38850000D03*
X35900000Y-38050000D03*
X36700000Y-50850000D03*
X36700000Y-50050000D03*
X36700000Y-49250000D03*
X36700000Y-48450000D03*
X36700000Y-47650000D03*
X36700000Y-46850000D03*
X36700000Y-46050000D03*
X36700000Y-45250000D03*
X36700000Y-44450000D03*
X36700000Y-43650000D03*
X36700000Y-42850000D03*
X36700000Y-42050000D03*
X36700000Y-41250000D03*
X36700000Y-40450000D03*
X36700000Y-39650000D03*
X36700000Y-38850000D03*
X36700000Y-38050000D03*
X37500000Y-50850000D03*
X37500000Y-50050000D03*
X37500000Y-49250000D03*
X37500000Y-48450000D03*
X37500000Y-47650000D03*
X37500000Y-46850000D03*
X37500000Y-46050000D03*
X37500000Y-45250000D03*
X37500000Y-44450000D03*
X37500000Y-43650000D03*
X37500000Y-42850000D03*
X37500000Y-42050000D03*
X37500000Y-41250000D03*
X37500000Y-40450000D03*
X37500000Y-39650000D03*
X37500000Y-38850000D03*
X37500000Y-38050000D03*
X38300000Y-50850000D03*
X38300000Y-50050000D03*
X38300000Y-49250000D03*
X38300000Y-48450000D03*
X38300000Y-47650000D03*
X38300000Y-46850000D03*
X38300000Y-46050000D03*
X38300000Y-45250000D03*
X38300000Y-44450000D03*
X38300000Y-43650000D03*
X38300000Y-42850000D03*
X38300000Y-42050000D03*
X38300000Y-41250000D03*
X38300000Y-40450000D03*
X38300000Y-39650000D03*
X38300000Y-38850000D03*
X38300000Y-38050000D03*
X39100000Y-50850000D03*
X39100000Y-50050000D03*
X39100000Y-49250000D03*
X39100000Y-48450000D03*
X39100000Y-47650000D03*
X39100000Y-46850000D03*
X39100000Y-46050000D03*
X39100000Y-45250000D03*
X39100000Y-44450000D03*
X39100000Y-43650000D03*
X39100000Y-42850000D03*
X39100000Y-42050000D03*
X39100000Y-41250000D03*
X39100000Y-40450000D03*
X39100000Y-39650000D03*
X39100000Y-38850000D03*
X39100000Y-38050000D03*
X39900000Y-50850000D03*
X39900000Y-50050000D03*
X39900000Y-49250000D03*
X39900000Y-48450000D03*
X39900000Y-47650000D03*
X39900000Y-46850000D03*
X39900000Y-46050000D03*
X39900000Y-45250000D03*
X39900000Y-44450000D03*
X39900000Y-43650000D03*
X39900000Y-42850000D03*
X39900000Y-42050000D03*
X39900000Y-41250000D03*
X39900000Y-40450000D03*
X39900000Y-39650000D03*
X39900000Y-38850000D03*
X39900000Y-38050000D03*
%TD*%
D20*
%TO.C,D2*%
X27450000Y-16050000D03*
X27450000Y-14475000D03*
%TD*%
%TO.C,D3*%
X28925000Y-16037500D03*
X28925000Y-14462500D03*
%TD*%
%TO.C,D5*%
X30425000Y-16050000D03*
X30425000Y-14475000D03*
%TD*%
D21*
%TO.C,J1*%
X21950000Y-16900000D03*
D22*
X20475000Y-15400000D03*
D21*
X21950000Y-13900000D03*
D22*
X23425000Y-15400000D03*
%TD*%
D23*
%TO.C,U10*%
X21850000Y-41175000D03*
X22350000Y-42175000D03*
X22350000Y-47675000D03*
X21850000Y-47675000D03*
X21350000Y-47675000D03*
X20850000Y-47675000D03*
X20350000Y-47675000D03*
X19850000Y-47675000D03*
X19350000Y-47675000D03*
X18850000Y-47675000D03*
X18350000Y-47675000D03*
X17850000Y-47675000D03*
X17350000Y-47675000D03*
X16850000Y-47675000D03*
X16350000Y-47675000D03*
X15850000Y-47675000D03*
X22350000Y-47175000D03*
X21850000Y-47175000D03*
X21350000Y-47175000D03*
X20850000Y-47175000D03*
X20350000Y-47175000D03*
X19850000Y-47175000D03*
X19350000Y-47175000D03*
X18850000Y-47175000D03*
X18350000Y-47175000D03*
X17850000Y-47175000D03*
X17350000Y-47175000D03*
X16850000Y-47175000D03*
X16350000Y-47175000D03*
X15850000Y-47175000D03*
X22350000Y-46675000D03*
X21850000Y-46675000D03*
X21350000Y-46675000D03*
X20850000Y-46675000D03*
X20350000Y-46675000D03*
X19850000Y-46675000D03*
X19350000Y-46675000D03*
X18850000Y-46675000D03*
X18350000Y-46675000D03*
X17850000Y-46675000D03*
X17350000Y-46675000D03*
X16850000Y-46675000D03*
X16350000Y-46675000D03*
X15850000Y-46675000D03*
X22350000Y-46175000D03*
X21850000Y-46175000D03*
X21350000Y-46175000D03*
X20850000Y-46175000D03*
X16850000Y-46175000D03*
X16350000Y-46175000D03*
X15850000Y-46175000D03*
X22350000Y-45675000D03*
X21850000Y-45675000D03*
X21350000Y-45675000D03*
X20350000Y-45675000D03*
X19850000Y-45675000D03*
X19350000Y-45675000D03*
X18850000Y-45675000D03*
X18350000Y-45675000D03*
X17850000Y-45675000D03*
X16850000Y-45675000D03*
X16350000Y-45675000D03*
X15850000Y-45675000D03*
X22350000Y-45175000D03*
X21850000Y-45175000D03*
X21350000Y-45175000D03*
X20350000Y-45175000D03*
X17850000Y-45175000D03*
X16850000Y-45175000D03*
X16350000Y-45175000D03*
X15850000Y-45175000D03*
X22350000Y-44675000D03*
X21850000Y-44675000D03*
X21350000Y-44675000D03*
X20350000Y-44675000D03*
X17850000Y-44675000D03*
X16850000Y-44675000D03*
X16350000Y-44675000D03*
X15850000Y-44675000D03*
X22350000Y-44175000D03*
X21850000Y-44175000D03*
X21350000Y-44175000D03*
X20350000Y-44175000D03*
X17850000Y-44175000D03*
X16850000Y-44175000D03*
X16350000Y-44175000D03*
X15850000Y-44175000D03*
X22350000Y-43675000D03*
X21850000Y-43675000D03*
X21350000Y-43675000D03*
X20350000Y-43675000D03*
X17850000Y-43675000D03*
X16850000Y-43675000D03*
X16350000Y-43675000D03*
X15850000Y-43675000D03*
X22350000Y-43175000D03*
X21850000Y-43175000D03*
X21350000Y-43175000D03*
X20350000Y-43175000D03*
X19850000Y-43175000D03*
X19350000Y-43175000D03*
X18850000Y-43175000D03*
X18350000Y-43175000D03*
X17850000Y-43175000D03*
X16850000Y-43175000D03*
X16350000Y-43175000D03*
X15850000Y-43175000D03*
X22350000Y-42675000D03*
X21850000Y-42675000D03*
X21350000Y-42675000D03*
X16850000Y-42675000D03*
X16350000Y-42675000D03*
X15850000Y-42675000D03*
X21850000Y-42175000D03*
X21350000Y-42175000D03*
X20850000Y-42175000D03*
X20350000Y-42175000D03*
X19850000Y-42175000D03*
X19350000Y-42175000D03*
X18850000Y-42175000D03*
X18350000Y-42175000D03*
X17850000Y-42175000D03*
X17350000Y-42175000D03*
X16850000Y-42175000D03*
X16350000Y-42175000D03*
X15850000Y-42175000D03*
X22350000Y-41675000D03*
X21850000Y-41675000D03*
X21350000Y-41675000D03*
X20850000Y-41675000D03*
X20350000Y-41675000D03*
X19850000Y-41675000D03*
X19350000Y-41675000D03*
X18850000Y-41675000D03*
X18350000Y-41675000D03*
X17850000Y-41675000D03*
X17350000Y-41675000D03*
X16850000Y-41675000D03*
X16350000Y-41675000D03*
X15850000Y-41675000D03*
X22350000Y-41175000D03*
X21350000Y-41175000D03*
X20850000Y-41175000D03*
X20350000Y-41175000D03*
X19850000Y-41175000D03*
X19350000Y-41175000D03*
X18850000Y-41175000D03*
X18350000Y-41175000D03*
X17850000Y-41175000D03*
X17350000Y-41175000D03*
X16850000Y-41175000D03*
X16350000Y-41175000D03*
X15850000Y-41175000D03*
%TD*%
M02*
