%TF.GenerationSoftware,KiCad,Pcbnew,9.0.3*%
%TF.CreationDate,2025-09-01T16:13:12+03:00*%
%TF.ProjectId,ThingsCore-1,5468696e-6773-4436-9f72-652d312e6b69,rev?*%
%TF.SameCoordinates,Original*%
%TF.FileFunction,Copper,L2,Inr*%
%TF.FilePolarity,Positive*%
%FSLAX46Y46*%
G04 Gerber Fmt 4.6, Leading zero omitted, Abs format (unit mm)*
G04 Created by KiCad (PCBNEW 9.0.3) date 2025-09-01 16:13:12*
%MOMM*%
%LPD*%
G01*
G04 APERTURE LIST*
%TA.AperFunction,HeatsinkPad*%
%ADD10C,0.500000*%
%TD*%
%TA.AperFunction,ComponentPad*%
%ADD11R,5.800000X5.800000*%
%TD*%
%TA.AperFunction,ViaPad*%
%ADD12C,0.450000*%
%TD*%
%TA.AperFunction,ViaPad*%
%ADD13C,0.500000*%
%TD*%
G04 APERTURE END LIST*
D10*
%TO.N,GND*%
%TO.C,U6*%
X17220000Y-38435000D03*
X17220000Y-39335000D03*
X17220000Y-40235000D03*
X18120000Y-40235000D03*
%TD*%
%TO.N,GND*%
%TO.C,IC1*%
X16075000Y-24075000D03*
X16775000Y-24075000D03*
X17475000Y-24075000D03*
X18275000Y-24075000D03*
X16075000Y-23375000D03*
X16775000Y-23375000D03*
X17475000Y-23375000D03*
X18275000Y-23375000D03*
X16075000Y-22575000D03*
X16775000Y-22575000D03*
X17475000Y-22575000D03*
X18275000Y-22575000D03*
X16075000Y-21875000D03*
X16775000Y-21875000D03*
X17475000Y-21875000D03*
X18275000Y-21875000D03*
%TD*%
D11*
%TO.N,*%
%TO.C,U1*%
X15307328Y-15308537D03*
X39486338Y-15314455D03*
%TD*%
D12*
%TO.N,GND*%
X22900000Y-42600000D03*
%TO.N,3V3_VDD*%
X22850000Y-43250000D03*
%TO.N,GND*%
X18900000Y-42700000D03*
X23900000Y-43700000D03*
X25800000Y-46580000D03*
%TO.N,/MPU-IO/USB_RREF*%
X41300000Y-43500000D03*
%TO.N,GND*%
X24300000Y-48500000D03*
X15800000Y-35600000D03*
X34765000Y-29420000D03*
X27170000Y-24400000D03*
X40440000Y-50860000D03*
%TO.N,/POWER/VBAT*%
X33900000Y-50450000D03*
%TO.N,1V35_DDR*%
X39791091Y-52056176D03*
X41382670Y-52734327D03*
X39810084Y-52748167D03*
X40882670Y-52734327D03*
X39791091Y-51556176D03*
X40310084Y-52748167D03*
%TO.N,GND*%
X38225000Y-52650000D03*
X38025000Y-55775000D03*
X37657567Y-52656920D03*
X38025000Y-57325000D03*
X38025000Y-56325000D03*
X38025000Y-56825000D03*
X38025000Y-55250000D03*
X36260000Y-56100000D03*
X31657567Y-52706920D03*
X32225000Y-52700000D03*
X32025000Y-55300000D03*
X32025000Y-55825000D03*
X32025000Y-56375000D03*
X32025000Y-57375000D03*
X32025000Y-56875000D03*
%TO.N,1V25_CORE*%
X33885084Y-52723167D03*
X34957670Y-52709327D03*
X33866091Y-52031176D03*
X35457670Y-52709327D03*
X34385084Y-52723167D03*
X33866091Y-51531176D03*
%TO.N,GND*%
X26100000Y-55850000D03*
X26100000Y-57400000D03*
X26100000Y-56900000D03*
X26100000Y-56400000D03*
X30335000Y-56100000D03*
X22210000Y-53320000D03*
X25833199Y-52728526D03*
X25265766Y-52735446D03*
X24649894Y-52735446D03*
X24345418Y-52361771D03*
X24366178Y-51863537D03*
X24352338Y-51372224D03*
%TO.N,3V3_VDD*%
X29007670Y-52659327D03*
X29507670Y-52659327D03*
X27935084Y-52673167D03*
X28435084Y-52673167D03*
X27916091Y-51481176D03*
X27916091Y-51981176D03*
X26250000Y-52000000D03*
X26250000Y-51500000D03*
%TO.N,GND*%
X24385000Y-56165000D03*
%TO.N,3V3_VDD*%
X22110000Y-56150000D03*
%TO.N,GND*%
X19320000Y-53640000D03*
X17390000Y-60220000D03*
X16070000Y-60230000D03*
X16740000Y-60220000D03*
X14560000Y-58980000D03*
X13240000Y-58990000D03*
X13910000Y-58980000D03*
X14560000Y-58400000D03*
X13240000Y-58410000D03*
X13910000Y-58400000D03*
X14570000Y-57790000D03*
X13250000Y-57800000D03*
X13920000Y-57790000D03*
X14550000Y-57230000D03*
X13230000Y-57240000D03*
X13900000Y-57230000D03*
X14540000Y-56680000D03*
X13220000Y-56690000D03*
X13890000Y-56680000D03*
X14530000Y-56120000D03*
X13210000Y-56130000D03*
X13880000Y-56120000D03*
X14510000Y-55540000D03*
X13190000Y-55550000D03*
X13860000Y-55540000D03*
X14520000Y-54970000D03*
X13200000Y-54980000D03*
X13870000Y-54970000D03*
X14510000Y-54390000D03*
X13190000Y-54400000D03*
X13860000Y-54390000D03*
X14500000Y-53800000D03*
X13850000Y-53800000D03*
X13180000Y-53810000D03*
X17000000Y-28325000D03*
X19050000Y-26350000D03*
X21000000Y-26775000D03*
X21480000Y-26495000D03*
X20425000Y-26775000D03*
X21550000Y-36150000D03*
%TO.N,/NETWORKING/RXD0*%
X21625000Y-38175000D03*
%TO.N,/NETWORKING/RXD1*%
X20900000Y-38100000D03*
%TO.N,GND*%
X20918521Y-33898910D03*
X16689221Y-34500000D03*
%TO.N,/NETWORKING/LED1*%
X17875000Y-36625000D03*
%TO.N,/NETWORKING/LED2*%
X17100000Y-36450000D03*
%TO.N,GND*%
X13055000Y-43170000D03*
X13050000Y-42225000D03*
X13600000Y-36750000D03*
%TO.N,/NETWORKING/TXN*%
X15200000Y-41295000D03*
%TO.N,/NETWORKING/TXP*%
X15225000Y-39950000D03*
%TO.N,/NETWORKING/RXN*%
X15175000Y-39370000D03*
%TO.N,/NETWORKING/RXP*%
X15175000Y-38400000D03*
%TO.N,3V3_VDD*%
X20850000Y-42500000D03*
%TO.N,/MEMORY/EMMC_CLK_M6*%
X19475000Y-42700000D03*
%TO.N,GND*%
X19850000Y-43675000D03*
X18975000Y-44450000D03*
%TO.N,3V3_VDD*%
X18350000Y-43675000D03*
%TO.N,GND*%
X19274997Y-45175000D03*
%TO.N,3V3_VDD*%
X19675000Y-46150000D03*
X19850000Y-45175000D03*
%TO.N,GND*%
X19746174Y-48452105D03*
%TO.N,/MEMORY/EMMC_CMD*%
X20150000Y-42650000D03*
%TO.N,/MEMORY/EMMC_~{RST}*%
X20825000Y-43100000D03*
%TO.N,/MEMORY/EMMC_D3*%
X20825000Y-43825000D03*
%TO.N,/MEMORY/VDDI*%
X20875000Y-44450000D03*
%TO.N,/MEMORY/EMMC_D5*%
X20850000Y-45175000D03*
%TO.N,GND*%
X20850000Y-45775000D03*
%TO.N,/MEMORY/EMMC_D4*%
X22075000Y-48175000D03*
%TO.N,/MEMORY/EMMC_D7*%
X19225000Y-48150000D03*
%TO.N,/MEMORY/EMMC_D6*%
X20350000Y-46175000D03*
%TO.N,/MEMORY/EMMC_D2*%
X20250000Y-48175000D03*
%TO.N,/MEMORY/EMMC_D1*%
X20800000Y-48375000D03*
%TO.N,/MEMORY/EMMC_D0*%
X21425000Y-48400000D03*
%TO.N,/MEMORY/QSPI1_D0*%
X14600000Y-35700000D03*
%TO.N,GND*%
X16550000Y-29700000D03*
X13325000Y-28850000D03*
X13250000Y-35675000D03*
X13425000Y-34825000D03*
X27500000Y-50450000D03*
%TO.N,/MEMORY/QSPI1_CLK_NOR*%
X14025000Y-35325000D03*
%TO.N,GND*%
X14025000Y-27900000D03*
%TO.N,/MEMORY/QSPI1_D2*%
X14025000Y-28549997D03*
%TO.N,/MEMORY/QSPI1_D1*%
X14025000Y-29125000D03*
%TO.N,/MEMORY/QSPI1_~{CS}*%
X17200000Y-29675000D03*
%TO.N,/MEMORY/QSPI1_D3*%
X14025000Y-34300000D03*
%TO.N,3V3_VDD*%
X14350000Y-33600000D03*
%TO.N,GND*%
X22250000Y-23425000D03*
X21500000Y-22325000D03*
%TO.N,Net-(IC1-XTAL_I)*%
X17925000Y-25750000D03*
%TO.N,Net-(IC1-XTAL_O)*%
X18825000Y-25750000D03*
%TO.N,/NETWORKING/RF2*%
X21275000Y-23050000D03*
%TO.N,GND*%
X21775000Y-23850000D03*
X21050000Y-24025000D03*
X33900000Y-46450000D03*
X39500000Y-40850000D03*
X27200000Y-26000000D03*
X32300000Y-43250000D03*
X37100000Y-44050000D03*
X27200000Y-22000000D03*
X32300000Y-40850000D03*
X34700000Y-30000000D03*
X34700000Y-31600000D03*
X37900000Y-43250000D03*
X34700000Y-21200000D03*
X27200000Y-33200000D03*
X34700000Y-49650000D03*
X31500000Y-45650000D03*
X28950000Y-22400000D03*
X26700000Y-37650000D03*
X27200000Y-31600000D03*
X36300000Y-45650000D03*
X33900000Y-48850000D03*
X29100000Y-44850000D03*
X33900000Y-44850000D03*
X38700000Y-48050000D03*
X38700000Y-44850000D03*
X34700000Y-44050000D03*
X35500000Y-39250000D03*
X37100000Y-41650000D03*
X28150000Y-27200000D03*
X34700000Y-33200000D03*
X27000000Y-30000000D03*
X40300000Y-37650000D03*
X24250000Y-39100000D03*
X30700000Y-40850000D03*
X34700000Y-26000000D03*
X33750000Y-24000000D03*
X29900000Y-48050000D03*
X37900000Y-47250000D03*
X34697256Y-21986956D03*
X32300000Y-45650000D03*
X29900000Y-48850000D03*
X34700000Y-25200000D03*
X23700000Y-39100000D03*
X35500000Y-48050000D03*
X30700000Y-39250000D03*
X29900000Y-42450000D03*
X37100000Y-48050000D03*
X35500000Y-44850000D03*
X32950000Y-27200000D03*
%TO.N,3V3_VDD*%
X38700000Y-41650000D03*
X35500000Y-46450000D03*
X35500000Y-48850000D03*
X33900000Y-48050000D03*
X29100000Y-43250000D03*
X37900000Y-46450000D03*
X31500000Y-43250000D03*
X36300000Y-46450000D03*
X34700000Y-46450000D03*
X36286341Y-44836341D03*
X37900000Y-44850000D03*
X31500000Y-46450000D03*
X29900000Y-43250000D03*
X35500000Y-44050000D03*
%TO.N,1V25_CORE*%
X31500000Y-44850000D03*
X33900000Y-44050000D03*
X34700000Y-44850000D03*
X33100000Y-46450000D03*
X33100000Y-44850000D03*
X33100000Y-44050000D03*
X31500000Y-47250000D03*
X33900000Y-45650000D03*
X33900000Y-41650000D03*
%TO.N,1V35_DDR*%
X31500000Y-42450000D03*
X32300000Y-42425000D03*
X28950000Y-24000000D03*
X32000000Y-26000000D03*
X27200000Y-22800000D03*
X34700000Y-26800000D03*
X33350000Y-20650000D03*
X28150000Y-28000000D03*
X30700000Y-42450000D03*
X34700000Y-42450000D03*
X34700000Y-24400000D03*
X34700000Y-22800000D03*
X34700000Y-30800000D03*
X34700000Y-32400000D03*
X28150000Y-26400000D03*
X36300000Y-41650000D03*
X27200000Y-21200000D03*
X27200000Y-32400000D03*
X34700000Y-23600000D03*
X28150000Y-21600000D03*
X35500000Y-42450000D03*
X27200000Y-30800000D03*
X27200000Y-25200000D03*
X32950000Y-28000000D03*
%TO.N,/POWER/VDDA1V1*%
X37100000Y-43250000D03*
%TO.N,/POWER/VDDA1V8*%
X38700000Y-43250000D03*
%TO.N,/POWER/VREF+*%
X38700000Y-47250000D03*
%TO.N,/MPU-IO/NRST*%
X39490000Y-43242164D03*
%TO.N,/DDR3/DDR_VREF*%
X27200000Y-26800000D03*
X35550000Y-40850000D03*
X32950000Y-29600000D03*
%TO.N,/POWER/VDD3V3_USBHS*%
X37900000Y-44050000D03*
%TO.N,/MPU-IO/PWR_ON*%
X37100000Y-40050000D03*
D13*
%TO.N,/DDR3/DDR_CLK_N*%
X29939137Y-28755508D03*
X33281280Y-36869442D03*
%TO.N,/DDR3/DDR_CLK_P*%
X30504823Y-28189822D03*
X33846966Y-37435128D03*
D12*
%TO.N,/DDR3/ZQ*%
X37050000Y-37650000D03*
X33750000Y-28800000D03*
%TO.N,/DDR3/DDR_CKE*%
X34700000Y-40850000D03*
X33750000Y-28000000D03*
%TO.N,/DDR3/DDR_RESETN*%
X28550000Y-34075000D03*
X30150000Y-36950000D03*
%TO.N,/DDR3/DDR_D1*%
X32950000Y-25600000D03*
X22850000Y-25100000D03*
%TO.N,/DDR3/DDR_D6*%
X30950000Y-24650000D03*
X23550000Y-24250000D03*
%TO.N,/DDR3/DDR_D3*%
X26330000Y-25680000D03*
X33750000Y-25600000D03*
%TO.N,/DDR3/DDR_BA1*%
X36404000Y-29900000D03*
X34700000Y-38450000D03*
%TO.N,/DDR3/DDR_DQS0N*%
X24897280Y-25085076D03*
X30168403Y-25225000D03*
%TO.N,/DDR3/DDR_RASN*%
X33101994Y-39224995D03*
X28950000Y-27200000D03*
%TO.N,/DDR3/DDR_D4*%
X23800000Y-25100000D03*
X31400000Y-25450000D03*
%TO.N,/DDR3/DDR_BA0*%
X28150000Y-29600000D03*
X32300000Y-37600000D03*
%TO.N,/DDR3/DDR_A4*%
X36300000Y-40050000D03*
X35250000Y-31250000D03*
%TO.N,/DDR3/DDR_A2*%
X28950000Y-31200000D03*
X31100000Y-37350000D03*
%TO.N,/DDR3/DDR_A6*%
X35750000Y-37420809D03*
X32950000Y-32800000D03*
%TO.N,/DDR3/DDR_A11*%
X34700000Y-41650000D03*
X32000000Y-29500000D03*
%TO.N,/DDR3/DDR_A1*%
X34700000Y-40050000D03*
X32950000Y-32000000D03*
%TO.N,/DDR3/DDR_A5*%
X28150000Y-31200000D03*
X29870946Y-38400000D03*
%TO.N,/DDR3/DDR_D0*%
X24487500Y-22612500D03*
X29950000Y-24000000D03*
%TO.N,/DDR3/DDR_DQS0P*%
X30168403Y-25975000D03*
X25647280Y-25085076D03*
%TO.N,/DDR3/DDR_CSN*%
X28150000Y-28800000D03*
X32300000Y-38450000D03*
%TO.N,/DDR3/DDR_A0*%
X31500000Y-38450000D03*
X28950000Y-30400000D03*
%TO.N,/DDR3/DDR_A13*%
X30700000Y-40050000D03*
X28950000Y-32800000D03*
%TO.N,/DDR3/DDR_ODT*%
X32300000Y-39250000D03*
X27050000Y-28400000D03*
%TO.N,/DDR3/DDR_A15*%
X34713659Y-39236341D03*
X32950000Y-30400000D03*
%TO.N,/DDR3/DDR_A7*%
X31500000Y-40050000D03*
X26424997Y-30000000D03*
%TO.N,/DDR3/DDR_BA2*%
X28950000Y-29600000D03*
X31500000Y-40900000D03*
%TO.N,/DDR3/DDR_A10*%
X32950000Y-28800000D03*
X33901000Y-40850000D03*
%TO.N,/DDR3/DDR_D2*%
X23450000Y-23600000D03*
X30600000Y-23650000D03*
%TO.N,/DDR3/DDR_WEN*%
X28950000Y-28800000D03*
X33100000Y-41650000D03*
%TO.N,/DDR3/DDR_A9*%
X28145264Y-32000000D03*
X30750000Y-38449000D03*
%TO.N,/DDR3/DDR_A3*%
X28150000Y-30450000D03*
X31500000Y-39250000D03*
%TO.N,/DDR3/DDR_D5*%
X31300000Y-26250000D03*
X26600000Y-24800000D03*
%TO.N,/DDR3/DDR_A14*%
X32100000Y-32800000D03*
X36074471Y-36625471D03*
%TO.N,/DDR3/DDR_A12*%
X34650000Y-37200000D03*
X32950000Y-31200000D03*
%TO.N,/DDR3/DDR_A8*%
X35500000Y-40050000D03*
X33750000Y-32800000D03*
%TO.N,/DDR3/DDR_D7*%
X23300000Y-26700000D03*
X31500000Y-27100000D03*
%TO.N,/DDR3/DDR_DQM0*%
X32950000Y-24800000D03*
X23100000Y-25650000D03*
%TO.N,/DDR3/DDR_CASN*%
X28950000Y-28000000D03*
X33100000Y-40050000D03*
%TO.N,unconnected-(U7D-PB14-PadA13)*%
X24000000Y-42750000D03*
%TO.N,unconnected-(U7D-PC10-PadB14)*%
X23600000Y-39650000D03*
%TO.N,unconnected-(U7E-PG6-PadA14)*%
X23487233Y-40213837D03*
%TO.N,unconnected-(U7D-PC9-PadA16)*%
X25900000Y-38450000D03*
%TO.N,unconnected-(U7D-PB15-PadB12)*%
X26250000Y-42550000D03*
%TO.N,unconnected-(U7D-PD2-PadA15)*%
X24850000Y-39300000D03*
%TO.N,unconnected-(U7D-PC12-PadB15)*%
X24300000Y-39699285D03*
%TO.N,unconnected-(U7D-PB4-PadB13)*%
X24750000Y-42550000D03*
%TO.N,unconnected-(U7D-PC11-PadC14)*%
X25400000Y-42650000D03*
%TO.N,GND*%
X22625000Y-18775000D03*
X22623781Y-19348694D03*
X22626219Y-19901306D03*
X22625000Y-20475000D03*
X22625000Y-21125000D03*
X22375000Y-21675000D03*
X22375000Y-22300000D03*
X20376110Y-21746936D03*
X20950990Y-21758765D03*
X21525000Y-21725000D03*
X20375000Y-21100000D03*
X20401110Y-20471936D03*
X20975990Y-20483765D03*
X21025000Y-19725000D03*
X21050000Y-18975000D03*
X20325120Y-18938171D03*
X20324010Y-18291235D03*
X20350120Y-17663171D03*
X20925000Y-17675000D03*
%TO.N,3V3_VDD*%
X20196151Y-22580348D03*
%TO.N,GND*%
X20350000Y-24075000D03*
%TO.N,/NETWORKING/TRX_WUP*%
X19000000Y-20175000D03*
%TO.N,GND*%
X19600000Y-20175000D03*
%TO.N,3V3_VDD*%
X20075000Y-24775000D03*
%TO.N,/NETWORKING/TRX_~{RST}*%
X19625000Y-20825000D03*
%TO.N,GND*%
X16225000Y-20175000D03*
%TO.N,/NETWORKING/TRX_IRQ*%
X15575000Y-19825000D03*
%TO.N,/NETWORKING/TRX_D1*%
X13675000Y-23125000D03*
%TO.N,/NETWORKING/TRX_D2*%
X13125000Y-23650000D03*
%TO.N,/NETWORKING/TRX_D3*%
X13625000Y-24175000D03*
%TO.N,3V3_VDD*%
X14425000Y-24575000D03*
%TO.N,GND*%
X13125000Y-24500000D03*
X13025000Y-23075000D03*
X13000000Y-22025000D03*
%TO.N,/NETWORKING/TRX_CLK*%
X13375000Y-21225000D03*
%TO.N,/NETWORKING/TRX_D0*%
X13275000Y-22550000D03*
%TO.N,3V3_VDD*%
X14425000Y-21250000D03*
%TO.N,/NETWORKING/TRX_CMD*%
X13573540Y-21984020D03*
%TO.N,GND*%
X13750000Y-24900000D03*
%TD*%
%TA.AperFunction,Conductor*%
%TO.N,GND*%
G36*
X36328515Y-12691813D02*
G01*
X36374453Y-12744458D01*
X36385838Y-12796361D01*
X36385838Y-18234207D01*
X36397469Y-18292684D01*
X36397470Y-18292685D01*
X36441785Y-18359007D01*
X36508107Y-18403322D01*
X36508108Y-18403323D01*
X36566585Y-18414954D01*
X36566588Y-18414955D01*
X41882068Y-18414955D01*
X41949107Y-18434640D01*
X41994862Y-18487444D01*
X42006068Y-18538820D01*
X42043065Y-52612945D01*
X42043328Y-52854460D01*
X42049866Y-58875865D01*
X42030254Y-58942926D01*
X41977500Y-58988738D01*
X41925866Y-59000000D01*
X39700000Y-59000000D01*
X39700000Y-62876000D01*
X39680315Y-62943039D01*
X39627511Y-62988794D01*
X39576000Y-63000000D01*
X25024000Y-63000000D01*
X24956961Y-62980315D01*
X24911206Y-62927511D01*
X24900000Y-62876000D01*
X24900000Y-59000000D01*
X22475000Y-59000000D01*
X22475000Y-62876000D01*
X22455315Y-62943039D01*
X22402511Y-62988794D01*
X22351000Y-63000000D01*
X15424000Y-63000000D01*
X15356961Y-62980315D01*
X15311206Y-62927511D01*
X15300000Y-62876000D01*
X15300000Y-59000000D01*
X12874000Y-59000000D01*
X12806961Y-58980315D01*
X12761206Y-58927511D01*
X12750000Y-58876000D01*
X12750000Y-56093982D01*
X21684500Y-56093982D01*
X21684500Y-56206018D01*
X21713497Y-56314237D01*
X21769515Y-56411263D01*
X21848737Y-56490485D01*
X21945763Y-56546503D01*
X22053982Y-56575500D01*
X22053984Y-56575500D01*
X22166016Y-56575500D01*
X22166018Y-56575500D01*
X22274237Y-56546503D01*
X22371263Y-56490485D01*
X22450485Y-56411263D01*
X22506503Y-56314237D01*
X22535500Y-56206018D01*
X22535500Y-56093982D01*
X22506503Y-55985763D01*
X22450485Y-55888737D01*
X22371263Y-55809515D01*
X22274237Y-55753497D01*
X22166018Y-55724500D01*
X22053982Y-55724500D01*
X21945763Y-55753497D01*
X21945760Y-55753498D01*
X21848740Y-55809513D01*
X21848734Y-55809517D01*
X21769517Y-55888734D01*
X21769513Y-55888740D01*
X21713498Y-55985760D01*
X21713497Y-55985763D01*
X21684500Y-56093982D01*
X12750000Y-56093982D01*
X12750000Y-51443982D01*
X25824500Y-51443982D01*
X25824500Y-51556018D01*
X25832854Y-51587193D01*
X25853497Y-51664236D01*
X25853497Y-51664237D01*
X25867217Y-51688001D01*
X25883688Y-51755902D01*
X25867217Y-51811999D01*
X25853497Y-51835762D01*
X25853497Y-51835763D01*
X25824500Y-51943982D01*
X25824500Y-52056018D01*
X25853497Y-52164237D01*
X25909515Y-52261263D01*
X25988737Y-52340485D01*
X26085763Y-52396503D01*
X26193982Y-52425500D01*
X26193984Y-52425500D01*
X26306016Y-52425500D01*
X26306018Y-52425500D01*
X26414237Y-52396503D01*
X26511263Y-52340485D01*
X26590485Y-52261263D01*
X26646503Y-52164237D01*
X26675500Y-52056018D01*
X26675500Y-51943982D01*
X26646503Y-51835763D01*
X26632783Y-51811999D01*
X26616310Y-51744103D01*
X26632783Y-51688000D01*
X26646503Y-51664237D01*
X26675500Y-51556018D01*
X26675500Y-51443982D01*
X26670456Y-51425158D01*
X27490591Y-51425158D01*
X27490591Y-51537194D01*
X27503989Y-51587194D01*
X27519588Y-51645412D01*
X27519588Y-51645413D01*
X27533308Y-51669177D01*
X27549779Y-51737078D01*
X27533308Y-51793175D01*
X27519588Y-51816938D01*
X27519588Y-51816939D01*
X27490591Y-51925158D01*
X27490591Y-52037194D01*
X27519588Y-52145413D01*
X27575606Y-52242439D01*
X27575608Y-52242441D01*
X27583035Y-52249868D01*
X27616520Y-52311191D01*
X27611536Y-52380883D01*
X27598355Y-52404687D01*
X27598663Y-52404865D01*
X27538582Y-52508927D01*
X27538581Y-52508930D01*
X27509584Y-52617149D01*
X27509584Y-52729185D01*
X27538581Y-52837404D01*
X27594599Y-52934430D01*
X27673821Y-53013652D01*
X27770847Y-53069670D01*
X27879066Y-53098667D01*
X27879068Y-53098667D01*
X27991100Y-53098667D01*
X27991102Y-53098667D01*
X28099321Y-53069670D01*
X28123083Y-53055950D01*
X28190981Y-53039477D01*
X28247083Y-53055950D01*
X28270847Y-53069670D01*
X28379066Y-53098667D01*
X28379068Y-53098667D01*
X28491100Y-53098667D01*
X28491102Y-53098667D01*
X28599321Y-53069670D01*
X28671363Y-53028076D01*
X28739261Y-53011603D01*
X28795361Y-53028075D01*
X28843433Y-53055830D01*
X28951652Y-53084827D01*
X28951654Y-53084827D01*
X29063686Y-53084827D01*
X29063688Y-53084827D01*
X29171907Y-53055830D01*
X29195669Y-53042110D01*
X29263567Y-53025637D01*
X29319669Y-53042110D01*
X29343433Y-53055830D01*
X29451652Y-53084827D01*
X29451654Y-53084827D01*
X29563686Y-53084827D01*
X29563688Y-53084827D01*
X29671907Y-53055830D01*
X29768933Y-52999812D01*
X29848155Y-52920590D01*
X29904173Y-52823564D01*
X29933170Y-52715345D01*
X29933170Y-52603309D01*
X29904173Y-52495090D01*
X29848155Y-52398064D01*
X29768933Y-52318842D01*
X29671907Y-52262824D01*
X29563688Y-52233827D01*
X29451652Y-52233827D01*
X29343433Y-52262824D01*
X29343432Y-52262824D01*
X29319669Y-52276544D01*
X29251768Y-52293015D01*
X29195671Y-52276544D01*
X29171907Y-52262824D01*
X29123554Y-52249868D01*
X29063688Y-52233827D01*
X28951652Y-52233827D01*
X28843433Y-52262824D01*
X28843430Y-52262825D01*
X28771391Y-52304417D01*
X28703490Y-52320890D01*
X28647391Y-52304417D01*
X28599323Y-52276665D01*
X28599322Y-52276664D01*
X28599321Y-52276664D01*
X28491102Y-52247667D01*
X28446795Y-52247667D01*
X28379756Y-52227982D01*
X28334001Y-52175178D01*
X28324057Y-52106020D01*
X28327020Y-52091574D01*
X28328194Y-52087192D01*
X28341591Y-52037194D01*
X28341591Y-51925158D01*
X28312594Y-51816939D01*
X28298874Y-51793175D01*
X28282401Y-51725279D01*
X28298874Y-51669176D01*
X28312594Y-51645413D01*
X28341591Y-51537194D01*
X28341591Y-51475158D01*
X33440591Y-51475158D01*
X33440591Y-51587194D01*
X33461235Y-51664237D01*
X33469588Y-51695412D01*
X33469588Y-51695413D01*
X33483308Y-51719177D01*
X33499779Y-51787078D01*
X33483308Y-51843175D01*
X33469588Y-51866938D01*
X33469588Y-51866939D01*
X33440591Y-51975158D01*
X33440591Y-52087194D01*
X33469588Y-52195413D01*
X33525606Y-52292439D01*
X33525608Y-52292441D01*
X33533035Y-52299868D01*
X33566520Y-52361191D01*
X33561536Y-52430883D01*
X33548355Y-52454687D01*
X33548663Y-52454865D01*
X33488582Y-52558927D01*
X33488581Y-52558930D01*
X33459584Y-52667149D01*
X33459584Y-52779185D01*
X33488581Y-52887404D01*
X33544599Y-52984430D01*
X33623821Y-53063652D01*
X33720847Y-53119670D01*
X33829066Y-53148667D01*
X33829068Y-53148667D01*
X33941100Y-53148667D01*
X33941102Y-53148667D01*
X34049321Y-53119670D01*
X34073083Y-53105950D01*
X34140981Y-53089477D01*
X34197083Y-53105950D01*
X34220847Y-53119670D01*
X34329066Y-53148667D01*
X34329068Y-53148667D01*
X34441100Y-53148667D01*
X34441102Y-53148667D01*
X34549321Y-53119670D01*
X34621363Y-53078076D01*
X34689261Y-53061603D01*
X34745361Y-53078075D01*
X34793433Y-53105830D01*
X34901652Y-53134827D01*
X34901654Y-53134827D01*
X35013686Y-53134827D01*
X35013688Y-53134827D01*
X35121907Y-53105830D01*
X35145669Y-53092110D01*
X35213567Y-53075637D01*
X35269669Y-53092110D01*
X35293433Y-53105830D01*
X35401652Y-53134827D01*
X35401654Y-53134827D01*
X35513686Y-53134827D01*
X35513688Y-53134827D01*
X35621907Y-53105830D01*
X35718933Y-53049812D01*
X35798155Y-52970590D01*
X35854173Y-52873564D01*
X35883170Y-52765345D01*
X35883170Y-52653309D01*
X35854173Y-52545090D01*
X35798155Y-52448064D01*
X35718933Y-52368842D01*
X35632334Y-52318844D01*
X35621909Y-52312825D01*
X35621908Y-52312824D01*
X35621907Y-52312824D01*
X35513688Y-52283827D01*
X35401652Y-52283827D01*
X35293433Y-52312824D01*
X35293432Y-52312824D01*
X35269669Y-52326544D01*
X35201768Y-52343015D01*
X35145671Y-52326544D01*
X35121907Y-52312824D01*
X35120097Y-52312339D01*
X35013688Y-52283827D01*
X34901652Y-52283827D01*
X34793433Y-52312824D01*
X34793430Y-52312825D01*
X34721391Y-52354417D01*
X34653490Y-52370890D01*
X34597391Y-52354417D01*
X34549323Y-52326665D01*
X34549322Y-52326664D01*
X34549321Y-52326664D01*
X34441102Y-52297667D01*
X34396795Y-52297667D01*
X34329756Y-52277982D01*
X34284001Y-52225178D01*
X34274057Y-52156020D01*
X34277020Y-52141574D01*
X34284892Y-52112194D01*
X34291591Y-52087194D01*
X34291591Y-51975158D01*
X34262594Y-51866939D01*
X34248874Y-51843175D01*
X34232401Y-51775279D01*
X34248874Y-51719176D01*
X34262594Y-51695413D01*
X34291591Y-51587194D01*
X34291591Y-51500158D01*
X39365591Y-51500158D01*
X39365591Y-51612194D01*
X39387890Y-51695413D01*
X39394588Y-51720412D01*
X39394588Y-51720413D01*
X39408308Y-51744177D01*
X39424779Y-51812078D01*
X39408308Y-51868175D01*
X39394588Y-51891938D01*
X39394588Y-51891939D01*
X39365591Y-52000158D01*
X39365591Y-52112194D01*
X39387890Y-52195413D01*
X39394588Y-52220412D01*
X39394589Y-52220415D01*
X39407302Y-52242435D01*
X39450606Y-52317439D01*
X39450608Y-52317441D01*
X39458035Y-52324868D01*
X39491520Y-52386191D01*
X39486536Y-52455883D01*
X39473355Y-52479687D01*
X39473663Y-52479865D01*
X39413582Y-52583927D01*
X39413581Y-52583930D01*
X39384584Y-52692149D01*
X39384584Y-52804185D01*
X39413581Y-52912404D01*
X39469599Y-53009430D01*
X39548821Y-53088652D01*
X39645847Y-53144670D01*
X39754066Y-53173667D01*
X39754068Y-53173667D01*
X39866100Y-53173667D01*
X39866102Y-53173667D01*
X39974321Y-53144670D01*
X39998083Y-53130950D01*
X40065981Y-53114477D01*
X40122083Y-53130950D01*
X40145847Y-53144670D01*
X40254066Y-53173667D01*
X40254068Y-53173667D01*
X40366100Y-53173667D01*
X40366102Y-53173667D01*
X40474321Y-53144670D01*
X40546363Y-53103076D01*
X40614261Y-53086603D01*
X40670361Y-53103075D01*
X40718433Y-53130830D01*
X40826652Y-53159827D01*
X40826654Y-53159827D01*
X40938686Y-53159827D01*
X40938688Y-53159827D01*
X41046907Y-53130830D01*
X41070669Y-53117110D01*
X41138567Y-53100637D01*
X41194669Y-53117110D01*
X41218433Y-53130830D01*
X41326652Y-53159827D01*
X41326654Y-53159827D01*
X41438686Y-53159827D01*
X41438688Y-53159827D01*
X41546907Y-53130830D01*
X41643933Y-53074812D01*
X41723155Y-52995590D01*
X41779173Y-52898564D01*
X41808170Y-52790345D01*
X41808170Y-52678309D01*
X41779173Y-52570090D01*
X41723155Y-52473064D01*
X41643933Y-52393842D01*
X41546907Y-52337824D01*
X41438688Y-52308827D01*
X41326652Y-52308827D01*
X41218433Y-52337824D01*
X41218432Y-52337824D01*
X41194669Y-52351544D01*
X41126768Y-52368015D01*
X41070671Y-52351544D01*
X41046907Y-52337824D01*
X40938688Y-52308827D01*
X40826652Y-52308827D01*
X40718433Y-52337824D01*
X40718430Y-52337825D01*
X40646391Y-52379417D01*
X40578490Y-52395890D01*
X40522391Y-52379417D01*
X40474323Y-52351665D01*
X40474322Y-52351664D01*
X40474321Y-52351664D01*
X40366102Y-52322667D01*
X40321795Y-52322667D01*
X40254756Y-52302982D01*
X40209001Y-52250178D01*
X40199057Y-52181020D01*
X40202020Y-52166574D01*
X40204848Y-52156020D01*
X40216591Y-52112194D01*
X40216591Y-52000158D01*
X40187594Y-51891939D01*
X40173874Y-51868175D01*
X40157401Y-51800279D01*
X40173874Y-51744176D01*
X40187594Y-51720413D01*
X40216591Y-51612194D01*
X40216591Y-51500158D01*
X40187594Y-51391939D01*
X40131576Y-51294913D01*
X40052354Y-51215691D01*
X39955328Y-51159673D01*
X39847109Y-51130676D01*
X39735073Y-51130676D01*
X39626854Y-51159673D01*
X39626851Y-51159674D01*
X39529831Y-51215689D01*
X39529825Y-51215693D01*
X39450608Y-51294910D01*
X39450604Y-51294916D01*
X39394589Y-51391936D01*
X39394588Y-51391939D01*
X39365591Y-51500158D01*
X34291591Y-51500158D01*
X34291591Y-51475158D01*
X34262594Y-51366939D01*
X34206576Y-51269913D01*
X34127354Y-51190691D01*
X34040755Y-51140693D01*
X34030330Y-51134674D01*
X34030329Y-51134673D01*
X33969706Y-51118429D01*
X33969703Y-51118428D01*
X33922109Y-51105676D01*
X33810073Y-51105676D01*
X33791143Y-51110748D01*
X33701852Y-51134673D01*
X33701851Y-51134674D01*
X33604831Y-51190689D01*
X33604825Y-51190693D01*
X33525608Y-51269910D01*
X33525604Y-51269916D01*
X33469589Y-51366936D01*
X33469588Y-51366939D01*
X33440591Y-51475158D01*
X28341591Y-51475158D01*
X28341591Y-51425158D01*
X28312594Y-51316939D01*
X28256576Y-51219913D01*
X28177354Y-51140691D01*
X28080328Y-51084673D01*
X27972109Y-51055676D01*
X27860073Y-51055676D01*
X27751854Y-51084673D01*
X27751851Y-51084674D01*
X27654831Y-51140689D01*
X27654825Y-51140693D01*
X27575608Y-51219910D01*
X27575604Y-51219916D01*
X27519589Y-51316936D01*
X27519588Y-51316939D01*
X27490591Y-51425158D01*
X26670456Y-51425158D01*
X26646503Y-51335763D01*
X26590485Y-51238737D01*
X26511263Y-51159515D01*
X26414237Y-51103497D01*
X26306018Y-51074500D01*
X26193982Y-51074500D01*
X26085763Y-51103497D01*
X26085760Y-51103498D01*
X25988740Y-51159513D01*
X25988734Y-51159517D01*
X25909517Y-51238734D01*
X25909513Y-51238740D01*
X25853498Y-51335760D01*
X25853497Y-51335763D01*
X25824500Y-51443982D01*
X12750000Y-51443982D01*
X12750000Y-50393982D01*
X33474500Y-50393982D01*
X33474500Y-50506018D01*
X33503497Y-50614237D01*
X33559515Y-50711263D01*
X33638737Y-50790485D01*
X33735763Y-50846503D01*
X33843982Y-50875500D01*
X33956018Y-50875500D01*
X34064237Y-50846503D01*
X34161263Y-50790485D01*
X34240485Y-50711263D01*
X34296503Y-50614237D01*
X34325500Y-50506018D01*
X34325500Y-50393982D01*
X34296503Y-50285763D01*
X34240485Y-50188737D01*
X34161263Y-50109515D01*
X34064237Y-50053497D01*
X33956018Y-50024500D01*
X33843982Y-50024500D01*
X33735763Y-50053497D01*
X33735760Y-50053498D01*
X33638740Y-50109513D01*
X33638734Y-50109517D01*
X33559517Y-50188734D01*
X33559513Y-50188740D01*
X33503498Y-50285760D01*
X33503497Y-50285763D01*
X33474500Y-50393982D01*
X12750000Y-50393982D01*
X12750000Y-48093982D01*
X18799500Y-48093982D01*
X18799500Y-48206018D01*
X18828497Y-48314237D01*
X18884515Y-48411263D01*
X18963737Y-48490485D01*
X19060763Y-48546503D01*
X19168982Y-48575500D01*
X19168984Y-48575500D01*
X19281016Y-48575500D01*
X19281018Y-48575500D01*
X19389237Y-48546503D01*
X19486263Y-48490485D01*
X19565485Y-48411263D01*
X19621503Y-48314237D01*
X19621503Y-48314236D01*
X19625567Y-48307198D01*
X19628628Y-48308965D01*
X19662140Y-48267201D01*
X19728388Y-48244998D01*
X19796123Y-48262135D01*
X19843841Y-48313173D01*
X19852846Y-48336809D01*
X19853495Y-48339232D01*
X19853496Y-48339236D01*
X19853497Y-48339237D01*
X19909515Y-48436263D01*
X19988737Y-48515485D01*
X20085763Y-48571503D01*
X20193982Y-48600500D01*
X20193984Y-48600500D01*
X20306016Y-48600500D01*
X20306018Y-48600500D01*
X20330544Y-48593928D01*
X20400392Y-48595589D01*
X20453053Y-48631230D01*
X20453768Y-48630516D01*
X20457475Y-48634223D01*
X20458255Y-48634751D01*
X20459240Y-48635988D01*
X20459515Y-48636263D01*
X20538737Y-48715485D01*
X20635763Y-48771503D01*
X20743982Y-48800500D01*
X20743984Y-48800500D01*
X20856016Y-48800500D01*
X20856018Y-48800500D01*
X20964237Y-48771503D01*
X21029393Y-48733884D01*
X21097293Y-48717412D01*
X21155951Y-48737713D01*
X21156698Y-48736421D01*
X21163736Y-48740484D01*
X21163737Y-48740485D01*
X21260763Y-48796503D01*
X21368982Y-48825500D01*
X21368984Y-48825500D01*
X21481016Y-48825500D01*
X21481018Y-48825500D01*
X21589237Y-48796503D01*
X21593603Y-48793982D01*
X35074500Y-48793982D01*
X35074500Y-48906018D01*
X35103497Y-49014237D01*
X35159515Y-49111263D01*
X35238737Y-49190485D01*
X35335763Y-49246503D01*
X35443982Y-49275500D01*
X35443984Y-49275500D01*
X35556016Y-49275500D01*
X35556018Y-49275500D01*
X35664237Y-49246503D01*
X35761263Y-49190485D01*
X35840485Y-49111263D01*
X35896503Y-49014237D01*
X35925500Y-48906018D01*
X35925500Y-48793982D01*
X35896503Y-48685763D01*
X35840485Y-48588737D01*
X35761263Y-48509515D01*
X35664237Y-48453497D01*
X35556018Y-48424500D01*
X35443982Y-48424500D01*
X35335763Y-48453497D01*
X35335760Y-48453498D01*
X35238740Y-48509513D01*
X35238734Y-48509517D01*
X35159517Y-48588734D01*
X35159513Y-48588740D01*
X35103498Y-48685760D01*
X35103497Y-48685763D01*
X35074500Y-48793982D01*
X21593603Y-48793982D01*
X21686263Y-48740485D01*
X21765485Y-48661263D01*
X21786968Y-48624053D01*
X21792852Y-48616706D01*
X21814077Y-48601872D01*
X21832819Y-48584002D01*
X21842251Y-48582183D01*
X21850123Y-48576683D01*
X21875994Y-48575679D01*
X21901426Y-48570778D01*
X21919291Y-48574001D01*
X21919940Y-48573976D01*
X21920287Y-48574180D01*
X21921724Y-48574440D01*
X22018982Y-48600500D01*
X22018985Y-48600500D01*
X22131016Y-48600500D01*
X22131018Y-48600500D01*
X22239237Y-48571503D01*
X22336263Y-48515485D01*
X22415485Y-48436263D01*
X22471503Y-48339237D01*
X22500500Y-48231018D01*
X22500500Y-48118982D01*
X22471503Y-48010763D01*
X22461814Y-47993982D01*
X33474500Y-47993982D01*
X33474500Y-48106018D01*
X33501295Y-48206017D01*
X33503497Y-48214236D01*
X33503498Y-48214239D01*
X33521257Y-48244998D01*
X33559515Y-48311263D01*
X33638737Y-48390485D01*
X33735763Y-48446503D01*
X33843982Y-48475500D01*
X33843984Y-48475500D01*
X33956016Y-48475500D01*
X33956018Y-48475500D01*
X34064237Y-48446503D01*
X34161263Y-48390485D01*
X34240485Y-48311263D01*
X34296503Y-48214237D01*
X34325500Y-48106018D01*
X34325500Y-47993982D01*
X34296503Y-47885763D01*
X34240485Y-47788737D01*
X34161263Y-47709515D01*
X34064237Y-47653497D01*
X33956018Y-47624500D01*
X33843982Y-47624500D01*
X33735763Y-47653497D01*
X33735760Y-47653498D01*
X33638740Y-47709513D01*
X33638734Y-47709517D01*
X33559517Y-47788734D01*
X33559513Y-47788740D01*
X33503498Y-47885760D01*
X33503497Y-47885763D01*
X33474500Y-47993982D01*
X22461814Y-47993982D01*
X22415485Y-47913737D01*
X22336263Y-47834515D01*
X22271579Y-47797169D01*
X22239239Y-47778498D01*
X22239238Y-47778497D01*
X22239237Y-47778497D01*
X22131018Y-47749500D01*
X22018982Y-47749500D01*
X21910763Y-47778497D01*
X21910760Y-47778498D01*
X21813740Y-47834513D01*
X21813734Y-47834517D01*
X21734517Y-47913734D01*
X21734513Y-47913740D01*
X21717744Y-47942784D01*
X21667176Y-47990999D01*
X21598569Y-48004220D01*
X21578265Y-48000557D01*
X21553726Y-47993982D01*
X21481018Y-47974500D01*
X21368982Y-47974500D01*
X21260763Y-48003497D01*
X21260758Y-48003499D01*
X21195604Y-48041115D01*
X21127704Y-48057586D01*
X21069049Y-48037284D01*
X21068302Y-48038579D01*
X20964239Y-47978498D01*
X20964238Y-47978497D01*
X20964237Y-47978497D01*
X20856018Y-47949500D01*
X20743982Y-47949500D01*
X20743977Y-47949500D01*
X20719452Y-47956072D01*
X20649602Y-47954408D01*
X20596947Y-47918768D01*
X20596232Y-47919484D01*
X20592520Y-47915772D01*
X20591741Y-47915245D01*
X20590757Y-47914009D01*
X20511265Y-47834517D01*
X20511263Y-47834515D01*
X20446579Y-47797169D01*
X20414239Y-47778498D01*
X20414238Y-47778497D01*
X20414237Y-47778497D01*
X20306018Y-47749500D01*
X20193982Y-47749500D01*
X20085763Y-47778497D01*
X20085760Y-47778498D01*
X19988740Y-47834513D01*
X19988734Y-47834517D01*
X19909517Y-47913734D01*
X19909513Y-47913740D01*
X19849433Y-48017802D01*
X19846440Y-48016073D01*
X19812433Y-48058094D01*
X19746093Y-48080020D01*
X19678430Y-48062599D01*
X19630926Y-48011362D01*
X19622151Y-47988182D01*
X19621503Y-47985764D01*
X19621501Y-47985760D01*
X19565485Y-47888737D01*
X19486263Y-47809515D01*
X19389237Y-47753497D01*
X19281018Y-47724500D01*
X19168982Y-47724500D01*
X19060763Y-47753497D01*
X19060760Y-47753498D01*
X18963740Y-47809513D01*
X18963734Y-47809517D01*
X18884517Y-47888734D01*
X18884513Y-47888740D01*
X18828498Y-47985760D01*
X18828497Y-47985763D01*
X18799500Y-48093982D01*
X12750000Y-48093982D01*
X12750000Y-43618982D01*
X17924500Y-43618982D01*
X17924500Y-43731018D01*
X17940056Y-43789072D01*
X17953497Y-43839236D01*
X17953498Y-43839239D01*
X17954218Y-43840486D01*
X18009515Y-43936263D01*
X18088737Y-44015485D01*
X18185763Y-44071503D01*
X18293982Y-44100500D01*
X18293984Y-44100500D01*
X18406016Y-44100500D01*
X18406018Y-44100500D01*
X18514237Y-44071503D01*
X18611263Y-44015485D01*
X18690485Y-43936263D01*
X18746503Y-43839237D01*
X18775500Y-43731018D01*
X18775500Y-43618982D01*
X18746503Y-43510763D01*
X18690485Y-43413737D01*
X18611263Y-43334515D01*
X18514237Y-43278497D01*
X18406018Y-43249500D01*
X18293982Y-43249500D01*
X18185763Y-43278497D01*
X18185760Y-43278498D01*
X18088740Y-43334513D01*
X18088734Y-43334517D01*
X18009517Y-43413734D01*
X18009513Y-43413740D01*
X17953498Y-43510760D01*
X17953497Y-43510763D01*
X17924500Y-43618982D01*
X12750000Y-43618982D01*
X12750000Y-42643982D01*
X19049500Y-42643982D01*
X19049500Y-42756018D01*
X19077053Y-42858846D01*
X19078497Y-42864236D01*
X19078498Y-42864239D01*
X19080380Y-42867499D01*
X19134515Y-42961263D01*
X19213737Y-43040485D01*
X19310763Y-43096503D01*
X19418982Y-43125500D01*
X19418984Y-43125500D01*
X19531016Y-43125500D01*
X19531018Y-43125500D01*
X19639237Y-43096503D01*
X19736263Y-43040485D01*
X19756492Y-43020255D01*
X19817811Y-42986772D01*
X19887502Y-42991755D01*
X19906171Y-43000551D01*
X19940305Y-43020258D01*
X19985763Y-43046503D01*
X20093982Y-43075500D01*
X20093984Y-43075500D01*
X20206015Y-43075500D01*
X20206018Y-43075500D01*
X20246637Y-43064616D01*
X20316484Y-43066279D01*
X20374346Y-43105441D01*
X20398503Y-43152297D01*
X20428497Y-43264238D01*
X20428498Y-43264239D01*
X20484515Y-43361263D01*
X20484517Y-43361265D01*
X20498071Y-43374819D01*
X20531556Y-43436142D01*
X20526572Y-43505834D01*
X20498071Y-43550181D01*
X20484517Y-43563734D01*
X20484513Y-43563740D01*
X20428498Y-43660760D01*
X20428497Y-43660763D01*
X20399500Y-43768982D01*
X20399500Y-43881018D01*
X20414304Y-43936265D01*
X20428497Y-43989236D01*
X20428498Y-43989239D01*
X20431238Y-43993984D01*
X20484515Y-44086263D01*
X20484517Y-44086265D01*
X20486441Y-44088189D01*
X20487544Y-44090210D01*
X20489462Y-44092709D01*
X20489072Y-44093007D01*
X20519926Y-44149512D01*
X20514942Y-44219204D01*
X20506148Y-44237869D01*
X20478497Y-44285762D01*
X20478497Y-44285763D01*
X20449500Y-44393982D01*
X20449500Y-44506018D01*
X20478497Y-44614237D01*
X20534515Y-44711263D01*
X20534517Y-44711265D01*
X20535571Y-44712319D01*
X20536175Y-44713426D01*
X20539462Y-44717709D01*
X20538794Y-44718221D01*
X20569056Y-44773642D01*
X20564072Y-44843334D01*
X20549988Y-44870370D01*
X20543569Y-44879682D01*
X20509515Y-44913737D01*
X20454911Y-45008312D01*
X20452098Y-45012395D01*
X20428665Y-45031411D01*
X20406820Y-45052241D01*
X20401807Y-45053206D01*
X20397845Y-45056423D01*
X20367842Y-45059752D01*
X20338213Y-45065463D01*
X20333476Y-45063566D01*
X20328402Y-45064130D01*
X20301360Y-45050709D01*
X20273348Y-45039495D01*
X20269261Y-45034779D01*
X20265816Y-45033069D01*
X20261442Y-45025755D01*
X20242613Y-45004025D01*
X20232006Y-44985654D01*
X20190485Y-44913737D01*
X20111263Y-44834515D01*
X20014237Y-44778497D01*
X19906018Y-44749500D01*
X19793982Y-44749500D01*
X19685763Y-44778497D01*
X19685760Y-44778498D01*
X19588740Y-44834513D01*
X19588734Y-44834517D01*
X19509517Y-44913734D01*
X19509513Y-44913740D01*
X19453498Y-45010760D01*
X19453497Y-45010763D01*
X19424500Y-45118982D01*
X19424500Y-45231018D01*
X19430524Y-45253498D01*
X19453497Y-45339236D01*
X19453498Y-45339239D01*
X19472169Y-45371579D01*
X19509515Y-45436263D01*
X19588737Y-45515485D01*
X19588739Y-45515486D01*
X19595186Y-45520433D01*
X19593933Y-45522065D01*
X19634554Y-45564670D01*
X19647774Y-45633278D01*
X19621803Y-45698142D01*
X19564888Y-45738668D01*
X19556439Y-45741258D01*
X19538261Y-45746128D01*
X19510761Y-45753497D01*
X19510760Y-45753498D01*
X19413740Y-45809513D01*
X19413734Y-45809517D01*
X19334517Y-45888734D01*
X19334513Y-45888740D01*
X19278498Y-45985760D01*
X19278497Y-45985763D01*
X19249500Y-46093982D01*
X19249500Y-46206018D01*
X19278497Y-46314237D01*
X19334515Y-46411263D01*
X19413737Y-46490485D01*
X19510763Y-46546503D01*
X19618982Y-46575500D01*
X19618984Y-46575500D01*
X19731016Y-46575500D01*
X19731018Y-46575500D01*
X19839237Y-46546503D01*
X19934679Y-46491399D01*
X20002577Y-46474927D01*
X20068604Y-46497779D01*
X20084358Y-46511106D01*
X20088737Y-46515485D01*
X20185763Y-46571503D01*
X20293982Y-46600500D01*
X20293984Y-46600500D01*
X20406016Y-46600500D01*
X20406018Y-46600500D01*
X20514237Y-46571503D01*
X20611263Y-46515485D01*
X20690485Y-46436263D01*
X20714896Y-46393982D01*
X31074500Y-46393982D01*
X31074500Y-46506018D01*
X31103497Y-46614237D01*
X31159515Y-46711263D01*
X31159517Y-46711265D01*
X31210571Y-46762319D01*
X31244056Y-46823642D01*
X31239072Y-46893334D01*
X31210571Y-46937681D01*
X31159517Y-46988734D01*
X31159513Y-46988740D01*
X31103498Y-47085760D01*
X31103497Y-47085763D01*
X31074500Y-47193982D01*
X31074500Y-47306018D01*
X31103497Y-47414237D01*
X31159515Y-47511263D01*
X31238737Y-47590485D01*
X31335763Y-47646503D01*
X31443982Y-47675500D01*
X31443984Y-47675500D01*
X31556016Y-47675500D01*
X31556018Y-47675500D01*
X31664237Y-47646503D01*
X31761263Y-47590485D01*
X31840485Y-47511263D01*
X31896503Y-47414237D01*
X31925500Y-47306018D01*
X31925500Y-47193982D01*
X38274500Y-47193982D01*
X38274500Y-47306018D01*
X38303497Y-47414237D01*
X38359515Y-47511263D01*
X38438737Y-47590485D01*
X38535763Y-47646503D01*
X38643982Y-47675500D01*
X38643984Y-47675500D01*
X38756016Y-47675500D01*
X38756018Y-47675500D01*
X38864237Y-47646503D01*
X38961263Y-47590485D01*
X39040485Y-47511263D01*
X39096503Y-47414237D01*
X39125500Y-47306018D01*
X39125500Y-47193982D01*
X39096503Y-47085763D01*
X39040485Y-46988737D01*
X38961263Y-46909515D01*
X38864237Y-46853497D01*
X38756018Y-46824500D01*
X38643982Y-46824500D01*
X38535763Y-46853497D01*
X38535760Y-46853498D01*
X38438740Y-46909513D01*
X38438734Y-46909517D01*
X38359517Y-46988734D01*
X38359513Y-46988740D01*
X38303498Y-47085760D01*
X38303497Y-47085763D01*
X38274500Y-47193982D01*
X31925500Y-47193982D01*
X31896503Y-47085763D01*
X31840485Y-46988737D01*
X31789429Y-46937681D01*
X31755944Y-46876358D01*
X31760928Y-46806666D01*
X31789429Y-46762319D01*
X31812319Y-46739429D01*
X31840485Y-46711263D01*
X31896503Y-46614237D01*
X31925500Y-46506018D01*
X31925500Y-46393982D01*
X32674500Y-46393982D01*
X32674500Y-46506018D01*
X32703497Y-46614237D01*
X32759515Y-46711263D01*
X32838737Y-46790485D01*
X32935763Y-46846503D01*
X33043982Y-46875500D01*
X33043984Y-46875500D01*
X33156016Y-46875500D01*
X33156018Y-46875500D01*
X33264237Y-46846503D01*
X33361263Y-46790485D01*
X33440485Y-46711263D01*
X33496503Y-46614237D01*
X33525500Y-46506018D01*
X33525500Y-46393982D01*
X34274500Y-46393982D01*
X34274500Y-46506018D01*
X34303497Y-46614237D01*
X34359515Y-46711263D01*
X34438737Y-46790485D01*
X34535763Y-46846503D01*
X34643982Y-46875500D01*
X34643984Y-46875500D01*
X34756016Y-46875500D01*
X34756018Y-46875500D01*
X34864237Y-46846503D01*
X34961263Y-46790485D01*
X35012319Y-46739429D01*
X35073642Y-46705944D01*
X35143334Y-46710928D01*
X35187681Y-46739429D01*
X35238737Y-46790485D01*
X35335763Y-46846503D01*
X35443982Y-46875500D01*
X35443984Y-46875500D01*
X35556016Y-46875500D01*
X35556018Y-46875500D01*
X35664237Y-46846503D01*
X35761263Y-46790485D01*
X35812319Y-46739429D01*
X35873642Y-46705944D01*
X35943334Y-46710928D01*
X35987681Y-46739429D01*
X36038737Y-46790485D01*
X36135763Y-46846503D01*
X36243982Y-46875500D01*
X36243984Y-46875500D01*
X36356016Y-46875500D01*
X36356018Y-46875500D01*
X36464237Y-46846503D01*
X36561263Y-46790485D01*
X36640485Y-46711263D01*
X36696503Y-46614237D01*
X36725500Y-46506018D01*
X36725500Y-46393982D01*
X37474500Y-46393982D01*
X37474500Y-46506018D01*
X37503497Y-46614237D01*
X37559515Y-46711263D01*
X37638737Y-46790485D01*
X37735763Y-46846503D01*
X37843982Y-46875500D01*
X37843984Y-46875500D01*
X37956016Y-46875500D01*
X37956018Y-46875500D01*
X38064237Y-46846503D01*
X38161263Y-46790485D01*
X38240485Y-46711263D01*
X38296503Y-46614237D01*
X38325500Y-46506018D01*
X38325500Y-46393982D01*
X38296503Y-46285763D01*
X38240485Y-46188737D01*
X38161263Y-46109515D01*
X38064237Y-46053497D01*
X37956018Y-46024500D01*
X37843982Y-46024500D01*
X37735763Y-46053497D01*
X37735760Y-46053498D01*
X37638740Y-46109513D01*
X37638734Y-46109517D01*
X37559517Y-46188734D01*
X37559513Y-46188740D01*
X37503498Y-46285760D01*
X37503497Y-46285763D01*
X37474500Y-46393982D01*
X36725500Y-46393982D01*
X36696503Y-46285763D01*
X36640485Y-46188737D01*
X36561263Y-46109515D01*
X36464237Y-46053497D01*
X36356018Y-46024500D01*
X36243982Y-46024500D01*
X36135763Y-46053497D01*
X36135760Y-46053498D01*
X36038740Y-46109513D01*
X36038734Y-46109517D01*
X35987681Y-46160571D01*
X35926358Y-46194056D01*
X35856666Y-46189072D01*
X35812319Y-46160571D01*
X35761265Y-46109517D01*
X35761263Y-46109515D01*
X35664237Y-46053497D01*
X35556018Y-46024500D01*
X35443982Y-46024500D01*
X35335763Y-46053497D01*
X35335760Y-46053498D01*
X35238740Y-46109513D01*
X35238734Y-46109517D01*
X35187681Y-46160571D01*
X35126358Y-46194056D01*
X35056666Y-46189072D01*
X35012319Y-46160571D01*
X34961265Y-46109517D01*
X34961263Y-46109515D01*
X34864237Y-46053497D01*
X34756018Y-46024500D01*
X34643982Y-46024500D01*
X34535763Y-46053497D01*
X34535760Y-46053498D01*
X34438740Y-46109513D01*
X34438734Y-46109517D01*
X34359517Y-46188734D01*
X34359513Y-46188740D01*
X34303498Y-46285760D01*
X34303497Y-46285763D01*
X34274500Y-46393982D01*
X33525500Y-46393982D01*
X33496503Y-46285763D01*
X33440485Y-46188737D01*
X33361263Y-46109515D01*
X33264237Y-46053497D01*
X33156018Y-46024500D01*
X33043982Y-46024500D01*
X32935763Y-46053497D01*
X32935760Y-46053498D01*
X32838740Y-46109513D01*
X32838734Y-46109517D01*
X32759517Y-46188734D01*
X32759513Y-46188740D01*
X32703498Y-46285760D01*
X32703497Y-46285763D01*
X32674500Y-46393982D01*
X31925500Y-46393982D01*
X31896503Y-46285763D01*
X31840485Y-46188737D01*
X31761263Y-46109515D01*
X31664237Y-46053497D01*
X31556018Y-46024500D01*
X31443982Y-46024500D01*
X31335763Y-46053497D01*
X31335760Y-46053498D01*
X31238740Y-46109513D01*
X31238734Y-46109517D01*
X31159517Y-46188734D01*
X31159513Y-46188740D01*
X31103498Y-46285760D01*
X31103497Y-46285763D01*
X31074500Y-46393982D01*
X20714896Y-46393982D01*
X20746503Y-46339237D01*
X20775500Y-46231018D01*
X20775500Y-46118982D01*
X20746503Y-46010763D01*
X20690485Y-45913737D01*
X20611263Y-45834515D01*
X20514237Y-45778497D01*
X20406018Y-45749500D01*
X20293982Y-45749500D01*
X20185763Y-45778497D01*
X20185762Y-45778497D01*
X20090321Y-45833600D01*
X20068973Y-45838778D01*
X20049249Y-45848433D01*
X20035690Y-45846852D01*
X20022421Y-45850072D01*
X20001662Y-45842887D01*
X19979849Y-45840345D01*
X19964606Y-45830061D01*
X19956394Y-45827219D01*
X19949658Y-45822066D01*
X19944951Y-45818203D01*
X19936263Y-45809515D01*
X19929859Y-45805818D01*
X19921999Y-45799367D01*
X19907820Y-45778551D01*
X19890441Y-45760321D01*
X19888485Y-45750166D01*
X19882664Y-45741621D01*
X19881989Y-45716443D01*
X19877226Y-45691713D01*
X19881069Y-45682114D01*
X19880793Y-45671776D01*
X19893839Y-45650228D01*
X19903201Y-45626851D01*
X19911623Y-45620854D01*
X19916980Y-45612008D01*
X19939599Y-45600936D01*
X19960119Y-45586328D01*
X19968550Y-45583744D01*
X20014237Y-45571503D01*
X20111263Y-45515485D01*
X20190485Y-45436263D01*
X20242613Y-45345973D01*
X20293180Y-45297759D01*
X20361787Y-45284535D01*
X20426651Y-45310503D01*
X20457385Y-45345972D01*
X20509515Y-45436263D01*
X20588737Y-45515485D01*
X20685763Y-45571503D01*
X20793982Y-45600500D01*
X20793984Y-45600500D01*
X20906016Y-45600500D01*
X20906018Y-45600500D01*
X20930344Y-45593982D01*
X33474500Y-45593982D01*
X33474500Y-45706018D01*
X33502233Y-45809517D01*
X33503497Y-45814236D01*
X33503498Y-45814239D01*
X33515206Y-45834517D01*
X33559515Y-45911263D01*
X33638737Y-45990485D01*
X33735763Y-46046503D01*
X33843982Y-46075500D01*
X33843984Y-46075500D01*
X33956016Y-46075500D01*
X33956018Y-46075500D01*
X34064237Y-46046503D01*
X34161263Y-45990485D01*
X34240485Y-45911263D01*
X34296503Y-45814237D01*
X34325500Y-45706018D01*
X34325500Y-45593982D01*
X34296503Y-45485763D01*
X34240485Y-45388737D01*
X34161263Y-45309515D01*
X34078689Y-45261841D01*
X34064239Y-45253498D01*
X34064238Y-45253497D01*
X34064237Y-45253497D01*
X33956018Y-45224500D01*
X33843982Y-45224500D01*
X33735763Y-45253497D01*
X33735760Y-45253498D01*
X33638740Y-45309513D01*
X33638734Y-45309517D01*
X33559517Y-45388734D01*
X33559513Y-45388740D01*
X33503498Y-45485760D01*
X33503497Y-45485763D01*
X33474500Y-45593982D01*
X20930344Y-45593982D01*
X21014237Y-45571503D01*
X21111263Y-45515485D01*
X21190485Y-45436263D01*
X21246503Y-45339237D01*
X21275500Y-45231018D01*
X21275500Y-45118982D01*
X21246503Y-45010763D01*
X21190485Y-44913737D01*
X21189429Y-44912681D01*
X21188824Y-44911573D01*
X21185538Y-44907291D01*
X21186205Y-44906778D01*
X21185758Y-44905958D01*
X21179524Y-44901505D01*
X21169244Y-44875716D01*
X21155944Y-44851358D01*
X21156490Y-44843717D01*
X21153654Y-44836602D01*
X21158947Y-44809355D01*
X21160047Y-44793982D01*
X31074500Y-44793982D01*
X31074500Y-44906018D01*
X31103497Y-45014237D01*
X31159515Y-45111263D01*
X31238737Y-45190485D01*
X31335763Y-45246503D01*
X31443982Y-45275500D01*
X31443984Y-45275500D01*
X31556016Y-45275500D01*
X31556018Y-45275500D01*
X31664237Y-45246503D01*
X31761263Y-45190485D01*
X31840485Y-45111263D01*
X31896503Y-45014237D01*
X31925500Y-44906018D01*
X31925500Y-44793982D01*
X31896503Y-44685763D01*
X31840485Y-44588737D01*
X31761263Y-44509515D01*
X31664237Y-44453497D01*
X31556018Y-44424500D01*
X31443982Y-44424500D01*
X31335763Y-44453497D01*
X31335760Y-44453498D01*
X31238740Y-44509513D01*
X31238734Y-44509517D01*
X31159517Y-44588734D01*
X31159513Y-44588740D01*
X31103498Y-44685760D01*
X31103497Y-44685763D01*
X31074500Y-44793982D01*
X21160047Y-44793982D01*
X21160928Y-44781666D01*
X21165854Y-44773809D01*
X21166980Y-44768015D01*
X21184560Y-44743975D01*
X21187495Y-44739296D01*
X21188436Y-44738311D01*
X21215485Y-44711263D01*
X21271503Y-44614237D01*
X21300500Y-44506018D01*
X21300500Y-44393982D01*
X21271503Y-44285763D01*
X21215485Y-44188737D01*
X21213558Y-44186810D01*
X21212453Y-44184787D01*
X21210538Y-44182291D01*
X21210927Y-44181992D01*
X21203410Y-44168225D01*
X21189288Y-44152448D01*
X21187000Y-44138174D01*
X21180073Y-44125487D01*
X21181583Y-44104367D01*
X21178233Y-44083459D01*
X21184383Y-44065215D01*
X21185057Y-44055795D01*
X21187631Y-44049439D01*
X21190398Y-44043111D01*
X21218763Y-43993982D01*
X32674500Y-43993982D01*
X32674500Y-44106018D01*
X32703497Y-44214237D01*
X32759515Y-44311263D01*
X32759517Y-44311265D01*
X32810571Y-44362319D01*
X32844056Y-44423642D01*
X32839072Y-44493334D01*
X32810571Y-44537681D01*
X32759517Y-44588734D01*
X32759513Y-44588740D01*
X32703498Y-44685760D01*
X32703497Y-44685763D01*
X32674500Y-44793982D01*
X32674500Y-44906018D01*
X32703497Y-45014237D01*
X32759515Y-45111263D01*
X32838737Y-45190485D01*
X32935763Y-45246503D01*
X33043982Y-45275500D01*
X33043984Y-45275500D01*
X33156016Y-45275500D01*
X33156018Y-45275500D01*
X33264237Y-45246503D01*
X33361263Y-45190485D01*
X33440485Y-45111263D01*
X33496503Y-45014237D01*
X33525500Y-44906018D01*
X33525500Y-44793982D01*
X34274500Y-44793982D01*
X34274500Y-44906018D01*
X34303497Y-45014237D01*
X34359515Y-45111263D01*
X34438737Y-45190485D01*
X34535763Y-45246503D01*
X34643982Y-45275500D01*
X34643984Y-45275500D01*
X34756016Y-45275500D01*
X34756018Y-45275500D01*
X34864237Y-45246503D01*
X34961263Y-45190485D01*
X35040485Y-45111263D01*
X35096503Y-45014237D01*
X35125500Y-44906018D01*
X35125500Y-44793982D01*
X35121840Y-44780323D01*
X35860841Y-44780323D01*
X35860841Y-44892359D01*
X35866569Y-44913734D01*
X35889838Y-45000577D01*
X35889839Y-45000580D01*
X35897723Y-45014236D01*
X35945856Y-45097604D01*
X36025078Y-45176826D01*
X36122104Y-45232844D01*
X36230323Y-45261841D01*
X36230325Y-45261841D01*
X36342357Y-45261841D01*
X36342359Y-45261841D01*
X36450578Y-45232844D01*
X36547604Y-45176826D01*
X36626826Y-45097604D01*
X36682844Y-45000578D01*
X36711841Y-44892359D01*
X36711841Y-44780323D01*
X36682844Y-44672104D01*
X36626826Y-44575078D01*
X36547604Y-44495856D01*
X36462122Y-44446503D01*
X36450580Y-44439839D01*
X36450579Y-44439838D01*
X36450578Y-44439838D01*
X36342359Y-44410841D01*
X36230323Y-44410841D01*
X36122104Y-44439838D01*
X36122101Y-44439839D01*
X36025081Y-44495854D01*
X36025075Y-44495858D01*
X35945858Y-44575075D01*
X35945854Y-44575081D01*
X35889839Y-44672101D01*
X35889838Y-44672104D01*
X35860841Y-44780323D01*
X35121840Y-44780323D01*
X35096503Y-44685763D01*
X35040485Y-44588737D01*
X34961263Y-44509515D01*
X34864237Y-44453497D01*
X34756018Y-44424500D01*
X34643982Y-44424500D01*
X34535763Y-44453497D01*
X34535760Y-44453498D01*
X34438740Y-44509513D01*
X34438734Y-44509517D01*
X34359517Y-44588734D01*
X34359513Y-44588740D01*
X34303498Y-44685760D01*
X34303497Y-44685763D01*
X34274500Y-44793982D01*
X33525500Y-44793982D01*
X33496503Y-44685763D01*
X33440485Y-44588737D01*
X33389429Y-44537681D01*
X33385090Y-44529735D01*
X33377843Y-44524310D01*
X33368608Y-44499550D01*
X33355944Y-44476358D01*
X33356589Y-44467328D01*
X33353426Y-44458846D01*
X33359042Y-44433025D01*
X33360928Y-44406666D01*
X33366746Y-44397612D01*
X33368278Y-44390573D01*
X33389429Y-44362319D01*
X33412319Y-44339429D01*
X33473642Y-44305944D01*
X33543334Y-44310928D01*
X33587681Y-44339429D01*
X33638737Y-44390485D01*
X33735763Y-44446503D01*
X33843982Y-44475500D01*
X33843984Y-44475500D01*
X33956016Y-44475500D01*
X33956018Y-44475500D01*
X34064237Y-44446503D01*
X34161263Y-44390485D01*
X34240485Y-44311263D01*
X34296503Y-44214237D01*
X34325500Y-44106018D01*
X34325500Y-43993982D01*
X35074500Y-43993982D01*
X35074500Y-44106018D01*
X35103497Y-44214237D01*
X35159515Y-44311263D01*
X35238737Y-44390485D01*
X35335763Y-44446503D01*
X35443982Y-44475500D01*
X35443984Y-44475500D01*
X35556016Y-44475500D01*
X35556018Y-44475500D01*
X35664237Y-44446503D01*
X35761263Y-44390485D01*
X35840485Y-44311263D01*
X35896503Y-44214237D01*
X35925500Y-44106018D01*
X35925500Y-43993982D01*
X37474500Y-43993982D01*
X37474500Y-44106018D01*
X37503497Y-44214237D01*
X37559515Y-44311263D01*
X37559517Y-44311265D01*
X37610571Y-44362319D01*
X37644056Y-44423642D01*
X37639072Y-44493334D01*
X37610571Y-44537681D01*
X37559517Y-44588734D01*
X37559513Y-44588740D01*
X37503498Y-44685760D01*
X37503497Y-44685763D01*
X37474500Y-44793982D01*
X37474500Y-44906018D01*
X37503497Y-45014237D01*
X37559515Y-45111263D01*
X37638737Y-45190485D01*
X37735763Y-45246503D01*
X37843982Y-45275500D01*
X37843984Y-45275500D01*
X37956016Y-45275500D01*
X37956018Y-45275500D01*
X38064237Y-45246503D01*
X38161263Y-45190485D01*
X38240485Y-45111263D01*
X38296503Y-45014237D01*
X38325500Y-44906018D01*
X38325500Y-44793982D01*
X38296503Y-44685763D01*
X38240485Y-44588737D01*
X38189429Y-44537681D01*
X38155944Y-44476358D01*
X38160928Y-44406666D01*
X38189429Y-44362319D01*
X38212319Y-44339429D01*
X38240485Y-44311263D01*
X38296503Y-44214237D01*
X38325500Y-44106018D01*
X38325500Y-43993982D01*
X38296503Y-43885763D01*
X38240485Y-43788737D01*
X38161263Y-43709515D01*
X38082839Y-43664237D01*
X38064239Y-43653498D01*
X38064238Y-43653497D01*
X38064237Y-43653497D01*
X37956018Y-43624500D01*
X37843982Y-43624500D01*
X37735763Y-43653497D01*
X37735760Y-43653498D01*
X37638740Y-43709513D01*
X37638734Y-43709517D01*
X37559517Y-43788734D01*
X37559513Y-43788740D01*
X37503498Y-43885760D01*
X37503497Y-43885763D01*
X37474500Y-43993982D01*
X35925500Y-43993982D01*
X35896503Y-43885763D01*
X35840485Y-43788737D01*
X35761263Y-43709515D01*
X35682839Y-43664237D01*
X35664239Y-43653498D01*
X35664238Y-43653497D01*
X35664237Y-43653497D01*
X35556018Y-43624500D01*
X35443982Y-43624500D01*
X35335763Y-43653497D01*
X35335760Y-43653498D01*
X35238740Y-43709513D01*
X35238734Y-43709517D01*
X35159517Y-43788734D01*
X35159513Y-43788740D01*
X35103498Y-43885760D01*
X35103497Y-43885763D01*
X35074500Y-43993982D01*
X34325500Y-43993982D01*
X34296503Y-43885763D01*
X34240485Y-43788737D01*
X34161263Y-43709515D01*
X34082839Y-43664237D01*
X34064239Y-43653498D01*
X34064238Y-43653497D01*
X34064237Y-43653497D01*
X33956018Y-43624500D01*
X33843982Y-43624500D01*
X33735763Y-43653497D01*
X33735760Y-43653498D01*
X33638740Y-43709513D01*
X33638734Y-43709517D01*
X33587681Y-43760571D01*
X33526358Y-43794056D01*
X33456666Y-43789072D01*
X33412319Y-43760571D01*
X33361265Y-43709517D01*
X33361263Y-43709515D01*
X33282839Y-43664237D01*
X33264239Y-43653498D01*
X33264238Y-43653497D01*
X33264237Y-43653497D01*
X33156018Y-43624500D01*
X33043982Y-43624500D01*
X32935763Y-43653497D01*
X32935760Y-43653498D01*
X32838740Y-43709513D01*
X32838734Y-43709517D01*
X32759517Y-43788734D01*
X32759513Y-43788740D01*
X32703498Y-43885760D01*
X32703497Y-43885763D01*
X32674500Y-43993982D01*
X21218763Y-43993982D01*
X21221503Y-43989237D01*
X21250500Y-43881018D01*
X21250500Y-43768982D01*
X21221503Y-43660763D01*
X21165485Y-43563737D01*
X21151929Y-43550181D01*
X21118444Y-43488858D01*
X21123428Y-43419166D01*
X21151929Y-43374819D01*
X21165485Y-43361263D01*
X21221503Y-43264237D01*
X21240328Y-43193982D01*
X22424500Y-43193982D01*
X22424500Y-43306018D01*
X22453497Y-43414237D01*
X22509515Y-43511263D01*
X22588737Y-43590485D01*
X22685763Y-43646503D01*
X22793982Y-43675500D01*
X22793984Y-43675500D01*
X22906016Y-43675500D01*
X22906018Y-43675500D01*
X23014237Y-43646503D01*
X23111263Y-43590485D01*
X23190485Y-43511263D01*
X23246503Y-43414237D01*
X23275500Y-43306018D01*
X23275500Y-43193982D01*
X28674500Y-43193982D01*
X28674500Y-43306018D01*
X28703497Y-43414237D01*
X28759515Y-43511263D01*
X28838737Y-43590485D01*
X28935763Y-43646503D01*
X29043982Y-43675500D01*
X29043984Y-43675500D01*
X29156016Y-43675500D01*
X29156018Y-43675500D01*
X29264237Y-43646503D01*
X29361263Y-43590485D01*
X29412319Y-43539429D01*
X29473642Y-43505944D01*
X29543334Y-43510928D01*
X29587681Y-43539429D01*
X29638737Y-43590485D01*
X29735763Y-43646503D01*
X29843982Y-43675500D01*
X29843984Y-43675500D01*
X29956016Y-43675500D01*
X29956018Y-43675500D01*
X30064237Y-43646503D01*
X30161263Y-43590485D01*
X30240485Y-43511263D01*
X30296503Y-43414237D01*
X30325500Y-43306018D01*
X30325500Y-43193982D01*
X30296503Y-43085763D01*
X30240485Y-42988737D01*
X30161263Y-42909515D01*
X30082839Y-42864237D01*
X30064239Y-42853498D01*
X30064238Y-42853497D01*
X30064237Y-42853497D01*
X29956018Y-42824500D01*
X29843982Y-42824500D01*
X29735763Y-42853497D01*
X29735760Y-42853498D01*
X29638740Y-42909513D01*
X29638734Y-42909517D01*
X29587681Y-42960571D01*
X29526358Y-42994056D01*
X29456666Y-42989072D01*
X29412319Y-42960571D01*
X29361265Y-42909517D01*
X29361263Y-42909515D01*
X29282839Y-42864237D01*
X29264239Y-42853498D01*
X29264238Y-42853497D01*
X29264237Y-42853497D01*
X29156018Y-42824500D01*
X29043982Y-42824500D01*
X28935763Y-42853497D01*
X28935760Y-42853498D01*
X28838740Y-42909513D01*
X28838734Y-42909517D01*
X28759517Y-42988734D01*
X28759513Y-42988740D01*
X28703498Y-43085760D01*
X28703497Y-43085763D01*
X28674500Y-43193982D01*
X23275500Y-43193982D01*
X23246503Y-43085763D01*
X23190485Y-42988737D01*
X23111263Y-42909515D01*
X23032839Y-42864237D01*
X23014239Y-42853498D01*
X23014238Y-42853497D01*
X23014237Y-42853497D01*
X22906018Y-42824500D01*
X22793982Y-42824500D01*
X22685763Y-42853497D01*
X22685760Y-42853498D01*
X22588740Y-42909513D01*
X22588734Y-42909517D01*
X22509517Y-42988734D01*
X22509513Y-42988740D01*
X22453498Y-43085760D01*
X22453497Y-43085763D01*
X22424500Y-43193982D01*
X21240328Y-43193982D01*
X21250500Y-43156018D01*
X21250500Y-43043982D01*
X21221503Y-42935763D01*
X21191414Y-42883647D01*
X21189256Y-42874754D01*
X21183611Y-42867552D01*
X21181150Y-42841340D01*
X21174942Y-42815751D01*
X21177762Y-42805258D01*
X21177080Y-42797988D01*
X21186460Y-42772899D01*
X21188677Y-42764654D01*
X21190375Y-42761372D01*
X21190485Y-42761263D01*
X21229330Y-42693982D01*
X23574500Y-42693982D01*
X23574500Y-42806018D01*
X23603497Y-42914237D01*
X23659515Y-43011263D01*
X23738737Y-43090485D01*
X23835763Y-43146503D01*
X23943982Y-43175500D01*
X23943984Y-43175500D01*
X24056016Y-43175500D01*
X24056018Y-43175500D01*
X24164237Y-43146503D01*
X24261263Y-43090485D01*
X24340485Y-43011263D01*
X24367847Y-42963869D01*
X24418412Y-42915656D01*
X24487019Y-42902432D01*
X24537232Y-42918483D01*
X24585763Y-42946503D01*
X24693982Y-42975500D01*
X24693984Y-42975500D01*
X24806016Y-42975500D01*
X24806018Y-42975500D01*
X24914237Y-42946503D01*
X24946279Y-42928003D01*
X25014175Y-42911529D01*
X25080203Y-42934379D01*
X25095960Y-42947708D01*
X25138737Y-42990485D01*
X25235763Y-43046503D01*
X25343982Y-43075500D01*
X25343984Y-43075500D01*
X25456016Y-43075500D01*
X25456018Y-43075500D01*
X25564237Y-43046503D01*
X25661263Y-42990485D01*
X25740485Y-42911263D01*
X25758157Y-42880653D01*
X25808724Y-42832438D01*
X25877331Y-42819215D01*
X25942196Y-42845183D01*
X25953225Y-42854973D01*
X25988737Y-42890485D01*
X26085763Y-42946503D01*
X26193982Y-42975500D01*
X26193984Y-42975500D01*
X26306016Y-42975500D01*
X26306018Y-42975500D01*
X26414237Y-42946503D01*
X26511263Y-42890485D01*
X26590485Y-42811263D01*
X26646503Y-42714237D01*
X26675500Y-42606018D01*
X26675500Y-42493982D01*
X26648705Y-42393982D01*
X30274500Y-42393982D01*
X30274500Y-42506018D01*
X30303497Y-42614237D01*
X30359515Y-42711263D01*
X30438737Y-42790485D01*
X30535763Y-42846503D01*
X30643982Y-42875500D01*
X30643984Y-42875500D01*
X30756016Y-42875500D01*
X30756018Y-42875500D01*
X30864237Y-42846503D01*
X30961263Y-42790485D01*
X31012319Y-42739429D01*
X31020264Y-42735090D01*
X31025690Y-42727843D01*
X31050449Y-42718608D01*
X31073642Y-42705944D01*
X31082671Y-42706589D01*
X31091154Y-42703426D01*
X31116974Y-42709042D01*
X31143334Y-42710928D01*
X31152387Y-42716746D01*
X31159427Y-42718278D01*
X31187681Y-42739429D01*
X31210571Y-42762319D01*
X31244056Y-42823642D01*
X31239072Y-42893334D01*
X31210571Y-42937681D01*
X31159517Y-42988734D01*
X31159513Y-42988740D01*
X31103498Y-43085760D01*
X31103497Y-43085763D01*
X31074500Y-43193982D01*
X31074500Y-43306018D01*
X31103497Y-43414237D01*
X31159515Y-43511263D01*
X31238737Y-43590485D01*
X31335763Y-43646503D01*
X31443982Y-43675500D01*
X31443984Y-43675500D01*
X31556016Y-43675500D01*
X31556018Y-43675500D01*
X31664237Y-43646503D01*
X31761263Y-43590485D01*
X31840485Y-43511263D01*
X31896503Y-43414237D01*
X31925500Y-43306018D01*
X31925500Y-43193982D01*
X36674500Y-43193982D01*
X36674500Y-43306018D01*
X36703497Y-43414237D01*
X36759515Y-43511263D01*
X36838737Y-43590485D01*
X36935763Y-43646503D01*
X37043982Y-43675500D01*
X37043984Y-43675500D01*
X37156016Y-43675500D01*
X37156018Y-43675500D01*
X37264237Y-43646503D01*
X37361263Y-43590485D01*
X37440485Y-43511263D01*
X37496503Y-43414237D01*
X37525500Y-43306018D01*
X37525500Y-43193982D01*
X38274500Y-43193982D01*
X38274500Y-43306018D01*
X38303497Y-43414237D01*
X38359515Y-43511263D01*
X38438737Y-43590485D01*
X38535763Y-43646503D01*
X38643982Y-43675500D01*
X38643984Y-43675500D01*
X38756016Y-43675500D01*
X38756018Y-43675500D01*
X38864237Y-43646503D01*
X38961263Y-43590485D01*
X39011237Y-43540511D01*
X39072560Y-43507026D01*
X39142252Y-43512010D01*
X39186599Y-43540511D01*
X39228737Y-43582649D01*
X39325763Y-43638667D01*
X39433982Y-43667664D01*
X39433984Y-43667664D01*
X39546016Y-43667664D01*
X39546018Y-43667664D01*
X39654237Y-43638667D01*
X39751263Y-43582649D01*
X39830485Y-43503427D01*
X39864806Y-43443982D01*
X40874500Y-43443982D01*
X40874500Y-43556018D01*
X40902566Y-43660760D01*
X40903497Y-43664236D01*
X40903498Y-43664239D01*
X40909999Y-43675499D01*
X40959515Y-43761263D01*
X41038737Y-43840485D01*
X41135763Y-43896503D01*
X41243982Y-43925500D01*
X41243984Y-43925500D01*
X41356016Y-43925500D01*
X41356018Y-43925500D01*
X41464237Y-43896503D01*
X41561263Y-43840485D01*
X41640485Y-43761263D01*
X41696503Y-43664237D01*
X41725500Y-43556018D01*
X41725500Y-43443982D01*
X41696503Y-43335763D01*
X41640485Y-43238737D01*
X41561263Y-43159515D01*
X41464237Y-43103497D01*
X41356018Y-43074500D01*
X41243982Y-43074500D01*
X41135763Y-43103497D01*
X41135760Y-43103498D01*
X41038740Y-43159513D01*
X41038734Y-43159517D01*
X40959517Y-43238734D01*
X40959513Y-43238740D01*
X40903498Y-43335760D01*
X40903497Y-43335763D01*
X40874500Y-43443982D01*
X39864806Y-43443982D01*
X39886503Y-43406401D01*
X39915500Y-43298182D01*
X39915500Y-43186146D01*
X39886503Y-43077927D01*
X39830485Y-42980901D01*
X39751263Y-42901679D01*
X39667811Y-42853498D01*
X39654239Y-42845662D01*
X39654238Y-42845661D01*
X39654237Y-42845661D01*
X39546018Y-42816664D01*
X39433982Y-42816664D01*
X39325763Y-42845661D01*
X39325760Y-42845662D01*
X39228740Y-42901677D01*
X39228734Y-42901681D01*
X39178763Y-42951653D01*
X39117440Y-42985138D01*
X39047748Y-42980154D01*
X39003401Y-42951653D01*
X38961265Y-42909517D01*
X38961263Y-42909515D01*
X38882839Y-42864237D01*
X38864239Y-42853498D01*
X38864238Y-42853497D01*
X38864237Y-42853497D01*
X38756018Y-42824500D01*
X38643982Y-42824500D01*
X38535763Y-42853497D01*
X38535760Y-42853498D01*
X38438740Y-42909513D01*
X38438734Y-42909517D01*
X38359517Y-42988734D01*
X38359513Y-42988740D01*
X38303498Y-43085760D01*
X38303497Y-43085763D01*
X38274500Y-43193982D01*
X37525500Y-43193982D01*
X37496503Y-43085763D01*
X37440485Y-42988737D01*
X37361263Y-42909515D01*
X37282839Y-42864237D01*
X37264239Y-42853498D01*
X37264238Y-42853497D01*
X37264237Y-42853497D01*
X37156018Y-42824500D01*
X37043982Y-42824500D01*
X36935763Y-42853497D01*
X36935760Y-42853498D01*
X36838740Y-42909513D01*
X36838734Y-42909517D01*
X36759517Y-42988734D01*
X36759513Y-42988740D01*
X36703498Y-43085760D01*
X36703497Y-43085763D01*
X36674500Y-43193982D01*
X31925500Y-43193982D01*
X31896503Y-43085763D01*
X31840485Y-42988737D01*
X31789429Y-42937681D01*
X31785090Y-42929735D01*
X31777843Y-42924310D01*
X31768608Y-42899550D01*
X31755944Y-42876358D01*
X31756589Y-42867328D01*
X31753426Y-42858846D01*
X31759042Y-42833025D01*
X31760928Y-42806666D01*
X31766746Y-42797612D01*
X31768278Y-42790573D01*
X31789429Y-42762319D01*
X31824819Y-42726929D01*
X31886142Y-42693444D01*
X31955834Y-42698428D01*
X32000181Y-42726929D01*
X32038737Y-42765485D01*
X32135763Y-42821503D01*
X32243982Y-42850500D01*
X32243984Y-42850500D01*
X32356016Y-42850500D01*
X32356018Y-42850500D01*
X32464237Y-42821503D01*
X32561263Y-42765485D01*
X32640485Y-42686263D01*
X32696503Y-42589237D01*
X32725500Y-42481018D01*
X32725500Y-42368982D01*
X32696503Y-42260763D01*
X32640485Y-42163737D01*
X32561263Y-42084515D01*
X32464237Y-42028497D01*
X32356018Y-41999500D01*
X32243982Y-41999500D01*
X32135763Y-42028497D01*
X32135760Y-42028498D01*
X32038740Y-42084513D01*
X32038734Y-42084517D01*
X31975181Y-42148071D01*
X31913858Y-42181556D01*
X31844166Y-42176572D01*
X31799819Y-42148071D01*
X31761265Y-42109517D01*
X31761263Y-42109515D01*
X31664237Y-42053497D01*
X31556018Y-42024500D01*
X31443982Y-42024500D01*
X31335763Y-42053497D01*
X31335760Y-42053498D01*
X31238740Y-42109513D01*
X31238734Y-42109517D01*
X31187681Y-42160571D01*
X31126358Y-42194056D01*
X31056666Y-42189072D01*
X31012319Y-42160571D01*
X30961265Y-42109517D01*
X30961263Y-42109515D01*
X30864237Y-42053497D01*
X30756018Y-42024500D01*
X30643982Y-42024500D01*
X30535763Y-42053497D01*
X30535760Y-42053498D01*
X30438740Y-42109513D01*
X30438734Y-42109517D01*
X30359517Y-42188734D01*
X30359513Y-42188740D01*
X30303498Y-42285760D01*
X30303497Y-42285763D01*
X30274500Y-42393982D01*
X26648705Y-42393982D01*
X26646503Y-42385763D01*
X26590485Y-42288737D01*
X26511263Y-42209515D01*
X26434003Y-42164909D01*
X26414239Y-42153498D01*
X26414238Y-42153497D01*
X26414237Y-42153497D01*
X26306018Y-42124500D01*
X26193982Y-42124500D01*
X26085763Y-42153497D01*
X26085760Y-42153498D01*
X25988740Y-42209513D01*
X25988734Y-42209517D01*
X25909517Y-42288734D01*
X25909510Y-42288743D01*
X25891840Y-42319348D01*
X25841272Y-42367562D01*
X25772664Y-42380783D01*
X25707800Y-42354813D01*
X25696774Y-42345026D01*
X25661265Y-42309517D01*
X25661263Y-42309515D01*
X25564237Y-42253497D01*
X25456018Y-42224500D01*
X25343982Y-42224500D01*
X25235763Y-42253497D01*
X25235760Y-42253498D01*
X25203716Y-42271998D01*
X25135815Y-42288468D01*
X25069789Y-42265614D01*
X25054038Y-42252290D01*
X25011265Y-42209517D01*
X25011263Y-42209515D01*
X24934003Y-42164909D01*
X24914239Y-42153498D01*
X24914238Y-42153497D01*
X24914237Y-42153497D01*
X24806018Y-42124500D01*
X24693982Y-42124500D01*
X24585763Y-42153497D01*
X24585760Y-42153498D01*
X24488740Y-42209513D01*
X24488734Y-42209517D01*
X24409517Y-42288734D01*
X24409511Y-42288743D01*
X24382152Y-42336129D01*
X24331585Y-42384344D01*
X24262978Y-42397566D01*
X24212766Y-42381515D01*
X24164239Y-42353498D01*
X24164238Y-42353497D01*
X24164237Y-42353497D01*
X24056018Y-42324500D01*
X23943982Y-42324500D01*
X23835763Y-42353497D01*
X23835760Y-42353498D01*
X23738740Y-42409513D01*
X23738734Y-42409517D01*
X23659517Y-42488734D01*
X23659513Y-42488740D01*
X23603498Y-42585760D01*
X23603497Y-42585763D01*
X23574500Y-42693982D01*
X21229330Y-42693982D01*
X21246503Y-42664237D01*
X21275500Y-42556018D01*
X21275500Y-42443982D01*
X21246503Y-42335763D01*
X21190485Y-42238737D01*
X21111263Y-42159515D01*
X21024664Y-42109517D01*
X21014239Y-42103498D01*
X21014238Y-42103497D01*
X21014237Y-42103497D01*
X20906018Y-42074500D01*
X20793982Y-42074500D01*
X20685763Y-42103497D01*
X20685760Y-42103498D01*
X20588740Y-42159513D01*
X20588734Y-42159517D01*
X20509513Y-42238738D01*
X20507906Y-42240833D01*
X20506102Y-42242149D01*
X20503768Y-42244484D01*
X20503403Y-42244119D01*
X20451474Y-42282030D01*
X20381727Y-42286177D01*
X20347539Y-42272724D01*
X20314237Y-42253497D01*
X20309732Y-42252290D01*
X20206018Y-42224500D01*
X20093982Y-42224500D01*
X19985763Y-42253497D01*
X19985760Y-42253498D01*
X19888740Y-42309513D01*
X19888737Y-42309515D01*
X19868508Y-42329744D01*
X19807184Y-42363228D01*
X19737492Y-42358242D01*
X19718829Y-42349449D01*
X19639237Y-42303497D01*
X19621760Y-42298814D01*
X19531018Y-42274500D01*
X19418982Y-42274500D01*
X19310763Y-42303497D01*
X19310760Y-42303498D01*
X19213740Y-42359513D01*
X19213734Y-42359517D01*
X19134517Y-42438734D01*
X19134513Y-42438740D01*
X19078498Y-42535760D01*
X19078497Y-42535763D01*
X19049500Y-42643982D01*
X12750000Y-42643982D01*
X12750000Y-41238982D01*
X14774500Y-41238982D01*
X14774500Y-41351018D01*
X14803497Y-41459237D01*
X14859515Y-41556263D01*
X14938737Y-41635485D01*
X15035763Y-41691503D01*
X15143982Y-41720500D01*
X15143984Y-41720500D01*
X15256016Y-41720500D01*
X15256018Y-41720500D01*
X15364237Y-41691503D01*
X15461263Y-41635485D01*
X15502766Y-41593982D01*
X32674500Y-41593982D01*
X32674500Y-41706018D01*
X32703497Y-41814237D01*
X32759515Y-41911263D01*
X32838737Y-41990485D01*
X32935763Y-42046503D01*
X33043982Y-42075500D01*
X33043984Y-42075500D01*
X33156016Y-42075500D01*
X33156018Y-42075500D01*
X33264237Y-42046503D01*
X33361263Y-41990485D01*
X33412319Y-41939429D01*
X33473642Y-41905944D01*
X33543334Y-41910928D01*
X33587681Y-41939429D01*
X33638737Y-41990485D01*
X33735763Y-42046503D01*
X33843982Y-42075500D01*
X33843984Y-42075500D01*
X33956016Y-42075500D01*
X33956018Y-42075500D01*
X34064237Y-42046503D01*
X34161263Y-41990485D01*
X34212319Y-41939429D01*
X34220264Y-41935090D01*
X34225690Y-41927843D01*
X34250449Y-41918608D01*
X34273642Y-41905944D01*
X34282671Y-41906589D01*
X34291154Y-41903426D01*
X34316974Y-41909042D01*
X34343334Y-41910928D01*
X34352387Y-41916746D01*
X34359427Y-41918278D01*
X34387681Y-41939429D01*
X34410571Y-41962319D01*
X34444056Y-42023642D01*
X34439072Y-42093334D01*
X34410571Y-42137681D01*
X34359517Y-42188734D01*
X34359513Y-42188740D01*
X34303498Y-42285760D01*
X34303497Y-42285763D01*
X34274500Y-42393982D01*
X34274500Y-42506018D01*
X34303497Y-42614237D01*
X34359515Y-42711263D01*
X34438737Y-42790485D01*
X34535763Y-42846503D01*
X34643982Y-42875500D01*
X34643984Y-42875500D01*
X34756016Y-42875500D01*
X34756018Y-42875500D01*
X34864237Y-42846503D01*
X34961263Y-42790485D01*
X35012319Y-42739429D01*
X35073642Y-42705944D01*
X35143334Y-42710928D01*
X35187681Y-42739429D01*
X35238737Y-42790485D01*
X35335763Y-42846503D01*
X35443982Y-42875500D01*
X35443984Y-42875500D01*
X35556016Y-42875500D01*
X35556018Y-42875500D01*
X35664237Y-42846503D01*
X35761263Y-42790485D01*
X35840485Y-42711263D01*
X35896503Y-42614237D01*
X35925500Y-42506018D01*
X35925500Y-42393982D01*
X35896503Y-42285763D01*
X35840485Y-42188737D01*
X35761263Y-42109515D01*
X35664237Y-42053497D01*
X35556018Y-42024500D01*
X35443982Y-42024500D01*
X35335763Y-42053497D01*
X35335760Y-42053498D01*
X35238740Y-42109513D01*
X35238734Y-42109517D01*
X35187681Y-42160571D01*
X35179735Y-42164909D01*
X35174310Y-42172157D01*
X35149550Y-42181391D01*
X35126358Y-42194056D01*
X35117328Y-42193410D01*
X35108846Y-42196574D01*
X35083025Y-42190957D01*
X35056666Y-42189072D01*
X35047612Y-42183253D01*
X35040573Y-42181722D01*
X35012319Y-42160571D01*
X34989429Y-42137681D01*
X34955944Y-42076358D01*
X34960928Y-42006666D01*
X34989429Y-41962319D01*
X35012319Y-41939429D01*
X35040485Y-41911263D01*
X35096503Y-41814237D01*
X35125500Y-41706018D01*
X35125500Y-41593982D01*
X35874500Y-41593982D01*
X35874500Y-41706018D01*
X35903497Y-41814237D01*
X35959515Y-41911263D01*
X36038737Y-41990485D01*
X36135763Y-42046503D01*
X36243982Y-42075500D01*
X36243984Y-42075500D01*
X36356016Y-42075500D01*
X36356018Y-42075500D01*
X36464237Y-42046503D01*
X36561263Y-41990485D01*
X36640485Y-41911263D01*
X36696503Y-41814237D01*
X36725500Y-41706018D01*
X36725500Y-41593982D01*
X38274500Y-41593982D01*
X38274500Y-41706018D01*
X38303497Y-41814237D01*
X38359515Y-41911263D01*
X38438737Y-41990485D01*
X38535763Y-42046503D01*
X38643982Y-42075500D01*
X38643984Y-42075500D01*
X38756016Y-42075500D01*
X38756018Y-42075500D01*
X38864237Y-42046503D01*
X38961263Y-41990485D01*
X39040485Y-41911263D01*
X39096503Y-41814237D01*
X39125500Y-41706018D01*
X39125500Y-41593982D01*
X39096503Y-41485763D01*
X39040485Y-41388737D01*
X38961263Y-41309515D01*
X38873502Y-41258846D01*
X38864239Y-41253498D01*
X38864238Y-41253497D01*
X38864237Y-41253497D01*
X38756018Y-41224500D01*
X38643982Y-41224500D01*
X38535763Y-41253497D01*
X38535760Y-41253498D01*
X38438740Y-41309513D01*
X38438734Y-41309517D01*
X38359517Y-41388734D01*
X38359513Y-41388740D01*
X38303498Y-41485760D01*
X38303497Y-41485763D01*
X38274500Y-41593982D01*
X36725500Y-41593982D01*
X36696503Y-41485763D01*
X36640485Y-41388737D01*
X36561263Y-41309515D01*
X36473502Y-41258846D01*
X36464239Y-41253498D01*
X36464238Y-41253497D01*
X36464237Y-41253497D01*
X36356018Y-41224500D01*
X36243982Y-41224500D01*
X36135763Y-41253497D01*
X36135756Y-41253499D01*
X36047485Y-41304462D01*
X36047478Y-41304467D01*
X36038737Y-41309515D01*
X35964147Y-41384104D01*
X35964102Y-41384148D01*
X35959519Y-41388732D01*
X35959513Y-41388740D01*
X35903498Y-41485760D01*
X35903497Y-41485763D01*
X35874500Y-41593982D01*
X35125500Y-41593982D01*
X35096503Y-41485763D01*
X35040485Y-41388737D01*
X34989429Y-41337681D01*
X34985090Y-41329735D01*
X34977843Y-41324310D01*
X34968608Y-41299550D01*
X34955944Y-41276358D01*
X34956589Y-41267328D01*
X34953426Y-41258846D01*
X34959042Y-41233025D01*
X34960928Y-41206666D01*
X34966746Y-41197612D01*
X34968278Y-41190573D01*
X34989429Y-41162319D01*
X35037319Y-41114429D01*
X35098642Y-41080944D01*
X35168334Y-41085928D01*
X35212681Y-41114429D01*
X35288737Y-41190485D01*
X35385763Y-41246503D01*
X35493982Y-41275500D01*
X35493984Y-41275500D01*
X35606016Y-41275500D01*
X35606018Y-41275500D01*
X35714237Y-41246503D01*
X35811263Y-41190485D01*
X35890485Y-41111263D01*
X35946503Y-41014237D01*
X35975500Y-40906018D01*
X35975500Y-40793982D01*
X35946503Y-40685763D01*
X35890485Y-40588737D01*
X35884903Y-40583155D01*
X35851418Y-40521832D01*
X35856402Y-40452140D01*
X35898274Y-40396207D01*
X35963738Y-40371790D01*
X36032011Y-40386642D01*
X36034584Y-40388087D01*
X36038736Y-40390484D01*
X36038737Y-40390485D01*
X36135763Y-40446503D01*
X36243982Y-40475500D01*
X36243984Y-40475500D01*
X36356016Y-40475500D01*
X36356018Y-40475500D01*
X36464237Y-40446503D01*
X36561263Y-40390485D01*
X36612319Y-40339429D01*
X36673642Y-40305944D01*
X36743334Y-40310928D01*
X36787681Y-40339429D01*
X36838737Y-40390485D01*
X36935763Y-40446503D01*
X37043982Y-40475500D01*
X37043984Y-40475500D01*
X37156016Y-40475500D01*
X37156018Y-40475500D01*
X37264237Y-40446503D01*
X37361263Y-40390485D01*
X37440485Y-40311263D01*
X37496503Y-40214237D01*
X37525500Y-40106018D01*
X37525500Y-39993982D01*
X37496503Y-39885763D01*
X37440485Y-39788737D01*
X37361263Y-39709515D01*
X37287580Y-39666974D01*
X37264239Y-39653498D01*
X37264238Y-39653497D01*
X37264237Y-39653497D01*
X37156018Y-39624500D01*
X37043982Y-39624500D01*
X36935763Y-39653497D01*
X36935760Y-39653498D01*
X36838740Y-39709513D01*
X36838734Y-39709517D01*
X36787681Y-39760571D01*
X36726358Y-39794056D01*
X36656666Y-39789072D01*
X36612319Y-39760571D01*
X36561265Y-39709517D01*
X36561263Y-39709515D01*
X36487580Y-39666974D01*
X36464239Y-39653498D01*
X36464238Y-39653497D01*
X36464237Y-39653497D01*
X36356018Y-39624500D01*
X36243982Y-39624500D01*
X36135763Y-39653497D01*
X36135760Y-39653498D01*
X36038740Y-39709513D01*
X36038734Y-39709517D01*
X35987681Y-39760571D01*
X35926358Y-39794056D01*
X35856666Y-39789072D01*
X35812319Y-39760571D01*
X35761265Y-39709517D01*
X35761263Y-39709515D01*
X35687580Y-39666974D01*
X35664239Y-39653498D01*
X35664238Y-39653497D01*
X35664237Y-39653497D01*
X35556018Y-39624500D01*
X35443982Y-39624500D01*
X35335763Y-39653497D01*
X35335760Y-39653498D01*
X35238740Y-39709513D01*
X35238734Y-39709517D01*
X35187681Y-39760571D01*
X35179735Y-39764909D01*
X35174310Y-39772157D01*
X35149550Y-39781391D01*
X35126358Y-39794056D01*
X35117328Y-39793410D01*
X35108846Y-39796574D01*
X35083025Y-39790957D01*
X35056666Y-39789072D01*
X35047612Y-39783253D01*
X35040573Y-39781722D01*
X35012319Y-39760571D01*
X34989429Y-39737681D01*
X34955944Y-39676358D01*
X34960928Y-39606666D01*
X34989429Y-39562319D01*
X35017512Y-39534236D01*
X35054144Y-39497604D01*
X35110162Y-39400578D01*
X35139159Y-39292359D01*
X35139159Y-39180323D01*
X35110162Y-39072104D01*
X35054144Y-38975078D01*
X35003088Y-38924022D01*
X34969603Y-38862699D01*
X34974587Y-38793007D01*
X35003088Y-38748660D01*
X35011266Y-38740482D01*
X35040485Y-38711263D01*
X35096503Y-38614237D01*
X35125500Y-38506018D01*
X35125500Y-38393982D01*
X35096503Y-38285763D01*
X35040485Y-38188737D01*
X34961263Y-38109515D01*
X34874664Y-38059517D01*
X34864239Y-38053498D01*
X34864238Y-38053497D01*
X34864237Y-38053497D01*
X34756018Y-38024500D01*
X34643982Y-38024500D01*
X34535763Y-38053497D01*
X34535760Y-38053498D01*
X34438740Y-38109513D01*
X34438734Y-38109517D01*
X34359517Y-38188734D01*
X34359513Y-38188740D01*
X34303498Y-38285760D01*
X34303497Y-38285763D01*
X34274500Y-38393982D01*
X34274500Y-38506018D01*
X34303497Y-38614237D01*
X34359515Y-38711263D01*
X34359517Y-38711265D01*
X34410571Y-38762319D01*
X34444056Y-38823642D01*
X34439072Y-38893334D01*
X34410571Y-38937681D01*
X34373176Y-38975075D01*
X34373172Y-38975081D01*
X34317157Y-39072101D01*
X34317156Y-39072104D01*
X34288159Y-39180323D01*
X34288159Y-39292359D01*
X34314763Y-39391645D01*
X34317156Y-39400577D01*
X34317157Y-39400580D01*
X34325041Y-39414236D01*
X34373174Y-39497604D01*
X34373176Y-39497606D01*
X34424230Y-39548660D01*
X34457715Y-39609983D01*
X34452731Y-39679675D01*
X34424230Y-39724022D01*
X34359517Y-39788734D01*
X34359513Y-39788740D01*
X34303498Y-39885760D01*
X34303497Y-39885763D01*
X34274500Y-39993982D01*
X34274500Y-40106018D01*
X34294805Y-40181795D01*
X34303497Y-40214236D01*
X34303498Y-40214239D01*
X34315485Y-40235001D01*
X34359515Y-40311263D01*
X34359517Y-40311265D01*
X34410571Y-40362319D01*
X34414909Y-40370264D01*
X34422157Y-40375690D01*
X34431391Y-40400449D01*
X34444056Y-40423642D01*
X34443410Y-40432671D01*
X34446574Y-40441154D01*
X34440957Y-40466974D01*
X34439072Y-40493334D01*
X34433253Y-40502387D01*
X34431722Y-40509427D01*
X34410571Y-40537681D01*
X34388181Y-40560071D01*
X34326858Y-40593556D01*
X34257166Y-40588572D01*
X34212819Y-40560071D01*
X34162265Y-40509517D01*
X34162263Y-40509515D01*
X34065237Y-40453497D01*
X33957018Y-40424500D01*
X33844982Y-40424500D01*
X33736763Y-40453497D01*
X33736760Y-40453498D01*
X33639740Y-40509513D01*
X33639734Y-40509517D01*
X33560517Y-40588734D01*
X33560513Y-40588740D01*
X33504498Y-40685760D01*
X33504497Y-40685763D01*
X33475500Y-40793982D01*
X33475500Y-40906018D01*
X33504497Y-41014237D01*
X33560515Y-41111263D01*
X33560517Y-41111265D01*
X33611071Y-41161819D01*
X33615409Y-41169764D01*
X33622657Y-41175190D01*
X33631891Y-41199949D01*
X33644556Y-41223142D01*
X33643910Y-41232171D01*
X33647074Y-41240654D01*
X33641457Y-41266474D01*
X33639572Y-41292834D01*
X33633753Y-41301887D01*
X33632222Y-41308927D01*
X33611071Y-41337181D01*
X33587681Y-41360571D01*
X33526358Y-41394056D01*
X33456666Y-41389072D01*
X33412319Y-41360571D01*
X33361265Y-41309517D01*
X33361263Y-41309515D01*
X33273502Y-41258846D01*
X33264239Y-41253498D01*
X33264238Y-41253497D01*
X33264237Y-41253497D01*
X33156018Y-41224500D01*
X33043982Y-41224500D01*
X32935763Y-41253497D01*
X32935760Y-41253498D01*
X32838740Y-41309513D01*
X32838734Y-41309517D01*
X32759517Y-41388734D01*
X32759513Y-41388740D01*
X32703498Y-41485760D01*
X32703497Y-41485763D01*
X32674500Y-41593982D01*
X15502766Y-41593982D01*
X15540485Y-41556263D01*
X15596503Y-41459237D01*
X15625500Y-41351018D01*
X15625500Y-41238982D01*
X15596503Y-41130763D01*
X15540485Y-41033737D01*
X15461263Y-40954515D01*
X15388624Y-40912577D01*
X16895975Y-40912577D01*
X17001236Y-40956178D01*
X17001240Y-40956179D01*
X17146126Y-40984999D01*
X17146129Y-40985000D01*
X17293871Y-40985000D01*
X17293873Y-40984999D01*
X17438760Y-40956179D01*
X17438775Y-40956175D01*
X17544022Y-40912578D01*
X17544023Y-40912577D01*
X17795975Y-40912577D01*
X17901236Y-40956178D01*
X17901240Y-40956179D01*
X18046126Y-40984999D01*
X18046129Y-40985000D01*
X18193871Y-40985000D01*
X18193873Y-40984999D01*
X18338760Y-40956179D01*
X18338775Y-40956175D01*
X18444024Y-40912578D01*
X18444024Y-40912577D01*
X18120001Y-40588554D01*
X17795975Y-40912577D01*
X17544023Y-40912577D01*
X17544023Y-40912576D01*
X17220001Y-40588554D01*
X17220000Y-40588554D01*
X16895975Y-40912577D01*
X15388624Y-40912577D01*
X15364237Y-40898497D01*
X15256018Y-40869500D01*
X15143982Y-40869500D01*
X15035763Y-40898497D01*
X15035760Y-40898498D01*
X14938740Y-40954513D01*
X14938734Y-40954517D01*
X14859517Y-41033734D01*
X14859513Y-41033740D01*
X14803498Y-41130760D01*
X14803497Y-41130763D01*
X14774500Y-41238982D01*
X12750000Y-41238982D01*
X12750000Y-38343982D01*
X14749500Y-38343982D01*
X14749500Y-38456018D01*
X14778497Y-38564237D01*
X14834515Y-38661263D01*
X14913737Y-38740485D01*
X14927897Y-38748660D01*
X14978044Y-38777613D01*
X15026260Y-38828180D01*
X15039482Y-38896787D01*
X15013514Y-38961652D01*
X14978044Y-38992387D01*
X14913740Y-39029513D01*
X14913734Y-39029517D01*
X14834517Y-39108734D01*
X14834513Y-39108740D01*
X14778498Y-39205760D01*
X14778497Y-39205763D01*
X14749500Y-39313982D01*
X14749500Y-39426018D01*
X14773167Y-39514343D01*
X14778497Y-39534236D01*
X14778498Y-39534239D01*
X14838579Y-39638302D01*
X14836275Y-39639631D01*
X14856738Y-39692556D01*
X14842702Y-39761001D01*
X14840556Y-39764876D01*
X14828497Y-39785762D01*
X14828497Y-39785763D01*
X14799500Y-39893982D01*
X14799500Y-40006018D01*
X14826295Y-40106017D01*
X14828497Y-40114236D01*
X14828498Y-40114239D01*
X14842536Y-40138554D01*
X14884515Y-40211263D01*
X14963737Y-40290485D01*
X15060763Y-40346503D01*
X15168982Y-40375500D01*
X15168984Y-40375500D01*
X15281016Y-40375500D01*
X15281018Y-40375500D01*
X15389237Y-40346503D01*
X15486263Y-40290485D01*
X15565485Y-40211263D01*
X15594432Y-40161126D01*
X16470000Y-40161126D01*
X16470000Y-40308873D01*
X16498820Y-40453759D01*
X16498822Y-40453767D01*
X16542421Y-40559024D01*
X16866446Y-40235000D01*
X16866446Y-40234999D01*
X16846556Y-40215109D01*
X17120000Y-40215109D01*
X17120000Y-40254891D01*
X17135224Y-40291645D01*
X17163355Y-40319776D01*
X17200109Y-40335000D01*
X17239891Y-40335000D01*
X17276645Y-40319776D01*
X17304776Y-40291645D01*
X17320000Y-40254891D01*
X17320000Y-40235000D01*
X17573554Y-40235000D01*
X17670000Y-40331446D01*
X17766446Y-40235000D01*
X17746555Y-40215109D01*
X18020000Y-40215109D01*
X18020000Y-40254891D01*
X18035224Y-40291645D01*
X18063355Y-40319776D01*
X18100109Y-40335000D01*
X18139891Y-40335000D01*
X18176645Y-40319776D01*
X18204776Y-40291645D01*
X18220000Y-40254891D01*
X18220000Y-40234999D01*
X18473554Y-40234999D01*
X18473554Y-40235001D01*
X18797577Y-40559024D01*
X18797578Y-40559024D01*
X18841175Y-40453775D01*
X18841179Y-40453760D01*
X18869999Y-40308873D01*
X18870000Y-40308871D01*
X18870000Y-40161134D01*
X18869998Y-40161120D01*
X18869341Y-40157819D01*
X23061733Y-40157819D01*
X23061733Y-40269855D01*
X23090041Y-40375500D01*
X23090730Y-40378073D01*
X23090731Y-40378076D01*
X23096511Y-40388087D01*
X23146748Y-40475100D01*
X23225970Y-40554322D01*
X23322996Y-40610340D01*
X23431215Y-40639337D01*
X23431217Y-40639337D01*
X23543249Y-40639337D01*
X23543251Y-40639337D01*
X23651470Y-40610340D01*
X23748496Y-40554322D01*
X23827718Y-40475100D01*
X23883736Y-40378074D01*
X23912733Y-40269855D01*
X23912733Y-40181795D01*
X23932418Y-40114756D01*
X23985222Y-40069001D01*
X24054380Y-40059057D01*
X24098732Y-40074408D01*
X24135763Y-40095788D01*
X24243982Y-40124785D01*
X24243984Y-40124785D01*
X24356016Y-40124785D01*
X24356018Y-40124785D01*
X24464237Y-40095788D01*
X24561263Y-40039770D01*
X24640485Y-39960548D01*
X24696503Y-39863522D01*
X24708859Y-39817405D01*
X24745224Y-39757746D01*
X24808071Y-39727217D01*
X24828634Y-39725500D01*
X24906016Y-39725500D01*
X24906018Y-39725500D01*
X25014237Y-39696503D01*
X25111263Y-39640485D01*
X25190485Y-39561263D01*
X25246503Y-39464237D01*
X25275500Y-39356018D01*
X25275500Y-39243982D01*
X25246503Y-39135763D01*
X25190485Y-39038737D01*
X25111263Y-38959515D01*
X25036887Y-38916574D01*
X25014239Y-38903498D01*
X25014238Y-38903497D01*
X25014237Y-38903497D01*
X24906018Y-38874500D01*
X24793982Y-38874500D01*
X24685763Y-38903497D01*
X24685760Y-38903498D01*
X24588740Y-38959513D01*
X24588734Y-38959517D01*
X24509517Y-39038734D01*
X24509513Y-39038740D01*
X24453498Y-39135760D01*
X24453497Y-39135763D01*
X24441558Y-39180323D01*
X24441141Y-39181878D01*
X24404776Y-39241539D01*
X24341929Y-39272068D01*
X24321366Y-39273785D01*
X24243982Y-39273785D01*
X24135763Y-39302782D01*
X24135762Y-39302782D01*
X24039868Y-39358146D01*
X23971968Y-39374617D01*
X23905941Y-39351765D01*
X23890189Y-39338441D01*
X23886747Y-39334999D01*
X23861263Y-39309515D01*
X23764237Y-39253497D01*
X23656018Y-39224500D01*
X23543982Y-39224500D01*
X23435763Y-39253497D01*
X23435760Y-39253498D01*
X23338740Y-39309513D01*
X23338734Y-39309517D01*
X23259517Y-39388734D01*
X23259513Y-39388740D01*
X23203498Y-39485760D01*
X23203497Y-39485763D01*
X23174500Y-39593982D01*
X23174500Y-39706018D01*
X23175437Y-39709515D01*
X23202209Y-39809431D01*
X23200546Y-39879281D01*
X23170118Y-39929202D01*
X23146752Y-39952569D01*
X23146746Y-39952577D01*
X23090731Y-40049597D01*
X23090730Y-40049600D01*
X23061733Y-40157819D01*
X18869341Y-40157819D01*
X18841179Y-40016240D01*
X18841178Y-40016236D01*
X18797577Y-39910975D01*
X18473554Y-40234999D01*
X18220000Y-40234999D01*
X18220000Y-40215109D01*
X18204776Y-40178355D01*
X18176645Y-40150224D01*
X18139891Y-40135000D01*
X18100109Y-40135000D01*
X18063355Y-40150224D01*
X18035224Y-40178355D01*
X18020000Y-40215109D01*
X17746555Y-40215109D01*
X17670000Y-40138554D01*
X17573554Y-40235000D01*
X17320000Y-40235000D01*
X17320000Y-40215109D01*
X17304776Y-40178355D01*
X17276645Y-40150224D01*
X17239891Y-40135000D01*
X17200109Y-40135000D01*
X17163355Y-40150224D01*
X17135224Y-40178355D01*
X17120000Y-40215109D01*
X16846556Y-40215109D01*
X16542421Y-39910974D01*
X16498823Y-40016228D01*
X16498820Y-40016240D01*
X16470000Y-40161126D01*
X15594432Y-40161126D01*
X15621503Y-40114237D01*
X15650500Y-40006018D01*
X15650500Y-39893982D01*
X15621503Y-39785763D01*
X15621062Y-39785000D01*
X17123554Y-39785000D01*
X17220000Y-39881446D01*
X17316446Y-39785000D01*
X17220000Y-39688554D01*
X17123554Y-39785000D01*
X15621062Y-39785000D01*
X15565485Y-39688737D01*
X15565484Y-39688736D01*
X15561421Y-39681698D01*
X15563725Y-39680367D01*
X15543262Y-39627450D01*
X15557294Y-39559004D01*
X15559427Y-39555151D01*
X15571503Y-39534237D01*
X15600500Y-39426018D01*
X15600500Y-39313982D01*
X15586337Y-39261126D01*
X16470000Y-39261126D01*
X16470000Y-39408873D01*
X16498820Y-39553759D01*
X16498822Y-39553767D01*
X16542421Y-39659023D01*
X16555488Y-39645957D01*
X16866446Y-39335000D01*
X16866446Y-39334999D01*
X16846556Y-39315109D01*
X17120000Y-39315109D01*
X17120000Y-39354891D01*
X17135224Y-39391645D01*
X17163355Y-39419776D01*
X17200109Y-39435000D01*
X17239891Y-39435000D01*
X17276645Y-39419776D01*
X17304776Y-39391645D01*
X17320000Y-39354891D01*
X17320000Y-39335000D01*
X17573554Y-39335000D01*
X17674523Y-39435968D01*
X17674523Y-39435969D01*
X18120000Y-39881446D01*
X18120001Y-39881446D01*
X18444024Y-39557421D01*
X18338767Y-39513822D01*
X18338759Y-39513820D01*
X18193872Y-39485000D01*
X18094000Y-39485000D01*
X18026961Y-39465315D01*
X17981206Y-39412511D01*
X17970000Y-39361000D01*
X17970000Y-39261128D01*
X17969999Y-39261126D01*
X17941179Y-39116240D01*
X17941178Y-39116236D01*
X17897577Y-39010975D01*
X17573554Y-39335000D01*
X17320000Y-39335000D01*
X17320000Y-39315109D01*
X17304776Y-39278355D01*
X17276645Y-39250224D01*
X17239891Y-39235000D01*
X17200109Y-39235000D01*
X17163355Y-39250224D01*
X17135224Y-39278355D01*
X17120000Y-39315109D01*
X16846556Y-39315109D01*
X16542421Y-39010974D01*
X16498823Y-39116228D01*
X16498820Y-39116240D01*
X16470000Y-39261126D01*
X15586337Y-39261126D01*
X15571503Y-39205763D01*
X15515485Y-39108737D01*
X15436263Y-39029515D01*
X15371954Y-38992386D01*
X15323740Y-38941820D01*
X15312788Y-38885000D01*
X17123554Y-38885000D01*
X17220000Y-38981446D01*
X17316446Y-38885000D01*
X17220000Y-38788554D01*
X17123554Y-38885000D01*
X15312788Y-38885000D01*
X15310516Y-38873213D01*
X15336484Y-38808349D01*
X15371955Y-38777613D01*
X15436263Y-38740485D01*
X15515485Y-38661263D01*
X15571503Y-38564237D01*
X15600500Y-38456018D01*
X15600500Y-38361126D01*
X16470000Y-38361126D01*
X16470000Y-38508873D01*
X16498820Y-38653759D01*
X16498822Y-38653767D01*
X16542421Y-38759023D01*
X16555488Y-38745957D01*
X16866446Y-38435000D01*
X16866446Y-38434999D01*
X16846556Y-38415109D01*
X17120000Y-38415109D01*
X17120000Y-38454891D01*
X17135224Y-38491645D01*
X17163355Y-38519776D01*
X17200109Y-38535000D01*
X17239891Y-38535000D01*
X17276645Y-38519776D01*
X17304776Y-38491645D01*
X17320000Y-38454891D01*
X17320000Y-38434999D01*
X17573554Y-38434999D01*
X17573554Y-38435001D01*
X17897576Y-38759023D01*
X17897578Y-38759022D01*
X17941175Y-38653775D01*
X17941179Y-38653760D01*
X17969999Y-38508873D01*
X17970000Y-38508871D01*
X17970000Y-38361128D01*
X17969999Y-38361126D01*
X17941179Y-38216240D01*
X17941178Y-38216236D01*
X17897577Y-38110975D01*
X17573554Y-38434999D01*
X17320000Y-38434999D01*
X17320000Y-38415109D01*
X17304776Y-38378355D01*
X17276645Y-38350224D01*
X17239891Y-38335000D01*
X17200109Y-38335000D01*
X17163355Y-38350224D01*
X17135224Y-38378355D01*
X17120000Y-38415109D01*
X16846556Y-38415109D01*
X16542421Y-38110974D01*
X16542420Y-38110974D01*
X16498823Y-38216228D01*
X16498820Y-38216240D01*
X16470000Y-38361126D01*
X15600500Y-38361126D01*
X15600500Y-38343982D01*
X15571503Y-38235763D01*
X15515485Y-38138737D01*
X15436263Y-38059515D01*
X15339237Y-38003497D01*
X15231018Y-37974500D01*
X15118982Y-37974500D01*
X15010763Y-38003497D01*
X15010760Y-38003498D01*
X14913740Y-38059513D01*
X14913734Y-38059517D01*
X14834517Y-38138734D01*
X14834513Y-38138740D01*
X14778498Y-38235760D01*
X14778497Y-38235763D01*
X14749500Y-38343982D01*
X12750000Y-38343982D01*
X12750000Y-37757420D01*
X16895974Y-37757420D01*
X16895974Y-37757421D01*
X17220000Y-38081446D01*
X17220001Y-38081446D01*
X17257465Y-38043982D01*
X20474500Y-38043982D01*
X20474500Y-38156018D01*
X20503497Y-38264237D01*
X20559515Y-38361263D01*
X20638737Y-38440485D01*
X20735763Y-38496503D01*
X20843982Y-38525500D01*
X20843984Y-38525500D01*
X20956016Y-38525500D01*
X20956018Y-38525500D01*
X21064237Y-38496503D01*
X21159679Y-38441399D01*
X21227577Y-38424927D01*
X21293604Y-38447779D01*
X21309358Y-38461106D01*
X21363737Y-38515485D01*
X21460763Y-38571503D01*
X21568982Y-38600500D01*
X21568984Y-38600500D01*
X21681016Y-38600500D01*
X21681018Y-38600500D01*
X21789237Y-38571503D01*
X21886263Y-38515485D01*
X21965485Y-38436263D01*
X21989896Y-38393982D01*
X25474500Y-38393982D01*
X25474500Y-38506018D01*
X25503497Y-38614237D01*
X25559515Y-38711263D01*
X25638737Y-38790485D01*
X25735763Y-38846503D01*
X25843982Y-38875500D01*
X25843984Y-38875500D01*
X25956016Y-38875500D01*
X25956018Y-38875500D01*
X26064237Y-38846503D01*
X26161263Y-38790485D01*
X26240485Y-38711263D01*
X26296503Y-38614237D01*
X26325500Y-38506018D01*
X26325500Y-38393982D01*
X26312103Y-38343982D01*
X29445446Y-38343982D01*
X29445446Y-38456018D01*
X29474443Y-38564237D01*
X29530461Y-38661263D01*
X29609683Y-38740485D01*
X29706709Y-38796503D01*
X29814928Y-38825500D01*
X29814930Y-38825500D01*
X29926962Y-38825500D01*
X29926964Y-38825500D01*
X30035183Y-38796503D01*
X30132209Y-38740485D01*
X30204810Y-38667883D01*
X30266129Y-38634401D01*
X30335821Y-38639385D01*
X30391755Y-38681256D01*
X30399874Y-38693565D01*
X30409515Y-38710263D01*
X30488737Y-38789485D01*
X30585763Y-38845503D01*
X30693982Y-38874500D01*
X30693984Y-38874500D01*
X30806016Y-38874500D01*
X30806018Y-38874500D01*
X30914237Y-38845503D01*
X31011263Y-38789485D01*
X31011266Y-38789481D01*
X31017780Y-38785721D01*
X31085680Y-38769248D01*
X31151707Y-38792100D01*
X31194898Y-38847021D01*
X31201540Y-38916574D01*
X31169525Y-38978677D01*
X31167465Y-38980786D01*
X31159519Y-38988732D01*
X31159513Y-38988740D01*
X31103498Y-39085760D01*
X31103497Y-39085763D01*
X31074500Y-39193982D01*
X31074500Y-39306018D01*
X31096665Y-39388737D01*
X31103497Y-39414236D01*
X31103498Y-39414239D01*
X31116043Y-39435968D01*
X31159515Y-39511263D01*
X31159517Y-39511265D01*
X31210571Y-39562319D01*
X31214909Y-39570264D01*
X31222157Y-39575690D01*
X31231391Y-39600449D01*
X31244056Y-39623642D01*
X31243410Y-39632671D01*
X31246574Y-39641154D01*
X31240957Y-39666974D01*
X31239072Y-39693334D01*
X31233253Y-39702387D01*
X31231722Y-39709427D01*
X31210571Y-39737681D01*
X31187681Y-39760571D01*
X31126358Y-39794056D01*
X31056666Y-39789072D01*
X31012319Y-39760571D01*
X30961265Y-39709517D01*
X30961263Y-39709515D01*
X30887580Y-39666974D01*
X30864239Y-39653498D01*
X30864238Y-39653497D01*
X30864237Y-39653497D01*
X30756018Y-39624500D01*
X30643982Y-39624500D01*
X30535763Y-39653497D01*
X30535760Y-39653498D01*
X30438740Y-39709513D01*
X30438734Y-39709517D01*
X30359517Y-39788734D01*
X30359513Y-39788740D01*
X30303498Y-39885760D01*
X30303497Y-39885763D01*
X30274500Y-39993982D01*
X30274500Y-40106018D01*
X30294805Y-40181795D01*
X30303497Y-40214236D01*
X30303498Y-40214239D01*
X30315485Y-40235001D01*
X30359515Y-40311263D01*
X30438737Y-40390485D01*
X30535763Y-40446503D01*
X30643982Y-40475500D01*
X30643984Y-40475500D01*
X30756016Y-40475500D01*
X30756018Y-40475500D01*
X30864237Y-40446503D01*
X30961263Y-40390485D01*
X31012319Y-40339429D01*
X31020264Y-40335090D01*
X31025690Y-40327843D01*
X31050449Y-40318608D01*
X31073642Y-40305944D01*
X31082671Y-40306589D01*
X31091154Y-40303426D01*
X31116974Y-40309042D01*
X31143334Y-40310928D01*
X31152387Y-40316746D01*
X31159427Y-40318278D01*
X31187681Y-40339429D01*
X31235571Y-40387319D01*
X31269056Y-40448642D01*
X31264072Y-40518334D01*
X31235571Y-40562681D01*
X31159517Y-40638734D01*
X31159513Y-40638740D01*
X31103498Y-40735760D01*
X31103497Y-40735763D01*
X31074500Y-40843982D01*
X31074500Y-40956018D01*
X31103497Y-41064237D01*
X31159515Y-41161263D01*
X31238737Y-41240485D01*
X31335763Y-41296503D01*
X31443982Y-41325500D01*
X31443984Y-41325500D01*
X31556016Y-41325500D01*
X31556018Y-41325500D01*
X31664237Y-41296503D01*
X31761263Y-41240485D01*
X31840485Y-41161263D01*
X31896503Y-41064237D01*
X31925500Y-40956018D01*
X31925500Y-40843982D01*
X31896503Y-40735763D01*
X31840485Y-40638737D01*
X31764429Y-40562681D01*
X31730944Y-40501358D01*
X31735928Y-40431666D01*
X31764429Y-40387319D01*
X31789429Y-40362319D01*
X31840485Y-40311263D01*
X31896503Y-40214237D01*
X31925500Y-40106018D01*
X31925500Y-39993982D01*
X31896503Y-39885763D01*
X31840485Y-39788737D01*
X31789429Y-39737681D01*
X31785090Y-39729735D01*
X31777843Y-39724310D01*
X31768608Y-39699550D01*
X31755944Y-39676358D01*
X31756589Y-39667328D01*
X31753426Y-39658846D01*
X31759042Y-39633025D01*
X31760928Y-39606666D01*
X31766746Y-39597612D01*
X31768278Y-39590573D01*
X31789429Y-39562319D01*
X31812319Y-39539429D01*
X31873642Y-39505944D01*
X31943334Y-39510928D01*
X31987681Y-39539429D01*
X32038737Y-39590485D01*
X32135763Y-39646503D01*
X32243982Y-39675500D01*
X32243984Y-39675500D01*
X32356016Y-39675500D01*
X32356018Y-39675500D01*
X32464237Y-39646503D01*
X32561263Y-39590485D01*
X32625821Y-39525926D01*
X32633764Y-39521589D01*
X32639189Y-39514343D01*
X32663945Y-39505109D01*
X32687140Y-39492444D01*
X32696170Y-39493089D01*
X32704653Y-39489926D01*
X32730473Y-39495542D01*
X32756832Y-39497428D01*
X32765885Y-39503246D01*
X32772926Y-39504778D01*
X32801180Y-39525929D01*
X32824070Y-39548819D01*
X32857555Y-39610142D01*
X32852571Y-39679834D01*
X32824071Y-39724181D01*
X32759514Y-39788738D01*
X32759513Y-39788740D01*
X32703498Y-39885760D01*
X32703497Y-39885763D01*
X32674500Y-39993982D01*
X32674500Y-40106018D01*
X32694805Y-40181795D01*
X32703497Y-40214236D01*
X32703498Y-40214239D01*
X32715485Y-40235001D01*
X32759515Y-40311263D01*
X32838737Y-40390485D01*
X32935763Y-40446503D01*
X33043982Y-40475500D01*
X33043984Y-40475500D01*
X33156016Y-40475500D01*
X33156018Y-40475500D01*
X33264237Y-40446503D01*
X33361263Y-40390485D01*
X33440485Y-40311263D01*
X33496503Y-40214237D01*
X33525500Y-40106018D01*
X33525500Y-39993982D01*
X33496503Y-39885763D01*
X33440485Y-39788737D01*
X33377923Y-39726175D01*
X33344438Y-39664852D01*
X33349422Y-39595160D01*
X33377919Y-39550817D01*
X33442479Y-39486258D01*
X33498497Y-39389232D01*
X33527494Y-39281013D01*
X33527494Y-39168977D01*
X33498497Y-39060758D01*
X33442479Y-38963732D01*
X33363257Y-38884510D01*
X33297425Y-38846502D01*
X33266233Y-38828493D01*
X33266232Y-38828492D01*
X33266231Y-38828492D01*
X33158012Y-38799495D01*
X33045976Y-38799495D01*
X32937757Y-38828492D01*
X32937754Y-38828493D01*
X32840734Y-38884508D01*
X32840732Y-38884509D01*
X32776175Y-38949066D01*
X32768228Y-38953404D01*
X32762804Y-38960651D01*
X32738044Y-38969885D01*
X32714851Y-38982550D01*
X32705822Y-38981904D01*
X32697340Y-38985068D01*
X32671515Y-38979450D01*
X32645160Y-38977565D01*
X32636108Y-38971747D01*
X32629067Y-38970216D01*
X32600813Y-38949065D01*
X32589429Y-38937681D01*
X32555944Y-38876358D01*
X32560928Y-38806666D01*
X32589429Y-38762319D01*
X32611266Y-38740482D01*
X32640485Y-38711263D01*
X32696503Y-38614237D01*
X32725500Y-38506018D01*
X32725500Y-38393982D01*
X32696503Y-38285763D01*
X32640485Y-38188737D01*
X32564429Y-38112681D01*
X32530944Y-38051358D01*
X32535928Y-37981666D01*
X32564429Y-37937319D01*
X32590489Y-37911259D01*
X32640485Y-37861263D01*
X32696503Y-37764237D01*
X32725500Y-37656018D01*
X32725500Y-37543982D01*
X32696503Y-37435763D01*
X32640485Y-37338737D01*
X32561263Y-37259515D01*
X32476242Y-37210428D01*
X32464239Y-37203498D01*
X32464238Y-37203497D01*
X32464237Y-37203497D01*
X32356018Y-37174500D01*
X32243982Y-37174500D01*
X32135763Y-37203497D01*
X32135760Y-37203498D01*
X32038740Y-37259513D01*
X32038734Y-37259517D01*
X31959517Y-37338734D01*
X31959513Y-37338740D01*
X31903498Y-37435760D01*
X31903497Y-37435763D01*
X31874500Y-37543982D01*
X31874500Y-37656018D01*
X31903497Y-37764237D01*
X31959515Y-37861263D01*
X31959517Y-37861265D01*
X32035571Y-37937319D01*
X32039909Y-37945264D01*
X32047157Y-37950690D01*
X32056391Y-37975449D01*
X32069056Y-37998642D01*
X32068410Y-38007671D01*
X32071574Y-38016154D01*
X32065957Y-38041974D01*
X32064072Y-38068334D01*
X32058253Y-38077387D01*
X32056722Y-38084427D01*
X32035571Y-38112681D01*
X31987681Y-38160571D01*
X31926358Y-38194056D01*
X31856666Y-38189072D01*
X31812319Y-38160571D01*
X31761265Y-38109517D01*
X31761263Y-38109515D01*
X31674664Y-38059517D01*
X31664239Y-38053498D01*
X31664238Y-38053497D01*
X31664237Y-38053497D01*
X31556018Y-38024500D01*
X31443982Y-38024500D01*
X31335763Y-38053497D01*
X31335760Y-38053498D01*
X31238740Y-38109513D01*
X31238732Y-38109519D01*
X31213177Y-38135073D01*
X31151853Y-38168556D01*
X31082162Y-38163569D01*
X31037818Y-38135070D01*
X31011265Y-38108517D01*
X31011263Y-38108515D01*
X30946579Y-38071169D01*
X30914239Y-38052498D01*
X30914238Y-38052497D01*
X30914237Y-38052497D01*
X30806018Y-38023500D01*
X30693982Y-38023500D01*
X30585763Y-38052497D01*
X30585760Y-38052498D01*
X30488740Y-38108513D01*
X30488738Y-38108514D01*
X30416138Y-38181114D01*
X30354814Y-38214598D01*
X30285123Y-38209613D01*
X30229189Y-38167742D01*
X30221070Y-38155433D01*
X30211431Y-38138737D01*
X30132209Y-38059515D01*
X30035183Y-38003497D01*
X29926964Y-37974500D01*
X29814928Y-37974500D01*
X29706709Y-38003497D01*
X29706706Y-38003498D01*
X29609686Y-38059513D01*
X29609680Y-38059517D01*
X29530463Y-38138734D01*
X29530459Y-38138740D01*
X29474444Y-38235760D01*
X29474443Y-38235763D01*
X29445446Y-38343982D01*
X26312103Y-38343982D01*
X26296503Y-38285763D01*
X26240485Y-38188737D01*
X26161263Y-38109515D01*
X26074664Y-38059517D01*
X26064239Y-38053498D01*
X26064238Y-38053497D01*
X26064237Y-38053497D01*
X25956018Y-38024500D01*
X25843982Y-38024500D01*
X25735763Y-38053497D01*
X25735760Y-38053498D01*
X25638740Y-38109513D01*
X25638734Y-38109517D01*
X25559517Y-38188734D01*
X25559513Y-38188740D01*
X25503498Y-38285760D01*
X25503497Y-38285763D01*
X25474500Y-38393982D01*
X21989896Y-38393982D01*
X22021503Y-38339237D01*
X22050500Y-38231018D01*
X22050500Y-38118982D01*
X22021503Y-38010763D01*
X21965485Y-37913737D01*
X21886263Y-37834515D01*
X21789237Y-37778497D01*
X21681018Y-37749500D01*
X21568982Y-37749500D01*
X21460763Y-37778497D01*
X21460762Y-37778497D01*
X21365321Y-37833600D01*
X21297421Y-37850072D01*
X21231394Y-37827219D01*
X21215641Y-37813893D01*
X21161265Y-37759517D01*
X21161263Y-37759515D01*
X21082122Y-37713823D01*
X21064239Y-37703498D01*
X21064238Y-37703497D01*
X21064237Y-37703497D01*
X20956018Y-37674500D01*
X20843982Y-37674500D01*
X20735763Y-37703497D01*
X20735760Y-37703498D01*
X20638740Y-37759513D01*
X20638734Y-37759517D01*
X20559517Y-37838734D01*
X20559513Y-37838740D01*
X20503498Y-37935760D01*
X20503497Y-37935763D01*
X20474500Y-38043982D01*
X17257465Y-38043982D01*
X17544024Y-37757421D01*
X17438767Y-37713822D01*
X17438759Y-37713820D01*
X17293872Y-37685000D01*
X17146128Y-37685000D01*
X17001240Y-37713820D01*
X17001228Y-37713823D01*
X16895974Y-37757420D01*
X12750000Y-37757420D01*
X12750000Y-36393982D01*
X16674500Y-36393982D01*
X16674500Y-36506018D01*
X16703497Y-36614237D01*
X16759515Y-36711263D01*
X16838737Y-36790485D01*
X16935763Y-36846503D01*
X17043982Y-36875500D01*
X17043984Y-36875500D01*
X17156016Y-36875500D01*
X17156018Y-36875500D01*
X17264237Y-36846503D01*
X17342343Y-36801408D01*
X17410240Y-36784936D01*
X17476267Y-36807788D01*
X17511727Y-36846795D01*
X17534510Y-36886256D01*
X17534513Y-36886260D01*
X17534515Y-36886263D01*
X17613737Y-36965485D01*
X17710763Y-37021503D01*
X17818982Y-37050500D01*
X17818984Y-37050500D01*
X17931016Y-37050500D01*
X17931018Y-37050500D01*
X18039237Y-37021503D01*
X18136263Y-36965485D01*
X18207766Y-36893982D01*
X29724500Y-36893982D01*
X29724500Y-37006018D01*
X29753497Y-37114237D01*
X29809515Y-37211263D01*
X29888737Y-37290485D01*
X29985763Y-37346503D01*
X30093982Y-37375500D01*
X30093984Y-37375500D01*
X30206016Y-37375500D01*
X30206018Y-37375500D01*
X30314237Y-37346503D01*
X30411263Y-37290485D01*
X30462819Y-37238929D01*
X30524142Y-37205444D01*
X30593834Y-37210428D01*
X30649767Y-37252300D01*
X30674184Y-37317764D01*
X30674500Y-37326610D01*
X30674500Y-37406018D01*
X30703497Y-37514237D01*
X30759515Y-37611263D01*
X30838737Y-37690485D01*
X30935763Y-37746503D01*
X31043982Y-37775500D01*
X31043984Y-37775500D01*
X31156016Y-37775500D01*
X31156018Y-37775500D01*
X31264237Y-37746503D01*
X31361263Y-37690485D01*
X31440485Y-37611263D01*
X31496503Y-37514237D01*
X31525500Y-37406018D01*
X31525500Y-37293982D01*
X31496503Y-37185763D01*
X31440485Y-37088737D01*
X31361263Y-37009515D01*
X31285817Y-36965956D01*
X31264239Y-36953498D01*
X31264238Y-36953497D01*
X31264237Y-36953497D01*
X31156018Y-36924500D01*
X31043982Y-36924500D01*
X30935763Y-36953497D01*
X30935760Y-36953498D01*
X30838740Y-37009513D01*
X30838734Y-37009517D01*
X30787181Y-37061071D01*
X30725858Y-37094556D01*
X30656166Y-37089572D01*
X30600233Y-37047700D01*
X30575816Y-36982236D01*
X30575500Y-36973390D01*
X30575500Y-36893984D01*
X30575500Y-36893982D01*
X30553033Y-36810133D01*
X32830780Y-36810133D01*
X32830780Y-36928751D01*
X32861481Y-37043328D01*
X32920791Y-37146055D01*
X33004667Y-37229931D01*
X33107394Y-37289241D01*
X33221971Y-37319942D01*
X33221974Y-37319942D01*
X33272466Y-37319942D01*
X33339505Y-37339627D01*
X33385260Y-37392431D01*
X33396466Y-37443942D01*
X33396466Y-37494437D01*
X33427167Y-37609014D01*
X33486477Y-37711741D01*
X33570353Y-37795617D01*
X33673080Y-37854927D01*
X33787657Y-37885628D01*
X33787660Y-37885628D01*
X33906272Y-37885628D01*
X33906275Y-37885628D01*
X34020852Y-37854927D01*
X34123579Y-37795617D01*
X34207455Y-37711741D01*
X34264932Y-37612189D01*
X34315499Y-37563973D01*
X34384107Y-37550751D01*
X34434319Y-37566802D01*
X34485763Y-37596503D01*
X34593982Y-37625500D01*
X34593984Y-37625500D01*
X34706016Y-37625500D01*
X34706018Y-37625500D01*
X34814237Y-37596503D01*
X34911263Y-37540485D01*
X34990485Y-37461263D01*
X35046183Y-37364791D01*
X35324500Y-37364791D01*
X35324500Y-37476827D01*
X35341558Y-37540486D01*
X35353497Y-37585045D01*
X35353498Y-37585048D01*
X35368631Y-37611259D01*
X35409515Y-37682072D01*
X35488737Y-37761294D01*
X35585763Y-37817312D01*
X35693982Y-37846309D01*
X35693984Y-37846309D01*
X35806016Y-37846309D01*
X35806018Y-37846309D01*
X35914237Y-37817312D01*
X36011263Y-37761294D01*
X36090485Y-37682072D01*
X36141344Y-37593982D01*
X36624500Y-37593982D01*
X36624500Y-37706018D01*
X36643118Y-37775499D01*
X36653497Y-37814236D01*
X36653498Y-37814239D01*
X36665206Y-37834517D01*
X36709515Y-37911263D01*
X36788737Y-37990485D01*
X36885763Y-38046503D01*
X36993982Y-38075500D01*
X36993984Y-38075500D01*
X37106016Y-38075500D01*
X37106018Y-38075500D01*
X37214237Y-38046503D01*
X37311263Y-37990485D01*
X37390485Y-37911263D01*
X37446503Y-37814237D01*
X37475500Y-37706018D01*
X37475500Y-37593982D01*
X37446503Y-37485763D01*
X37390485Y-37388737D01*
X37311263Y-37309515D01*
X37224664Y-37259517D01*
X37214239Y-37253498D01*
X37214238Y-37253497D01*
X37214237Y-37253497D01*
X37106018Y-37224500D01*
X36993982Y-37224500D01*
X36885763Y-37253497D01*
X36885760Y-37253498D01*
X36788740Y-37309513D01*
X36788734Y-37309517D01*
X36709517Y-37388734D01*
X36709513Y-37388740D01*
X36653498Y-37485760D01*
X36653497Y-37485763D01*
X36624500Y-37593982D01*
X36141344Y-37593982D01*
X36146503Y-37585046D01*
X36175500Y-37476827D01*
X36175500Y-37364791D01*
X36146503Y-37256572D01*
X36122355Y-37214746D01*
X36105883Y-37146850D01*
X36128735Y-37080823D01*
X36183656Y-37037632D01*
X36197638Y-37032978D01*
X36238708Y-37021974D01*
X36335734Y-36965956D01*
X36414956Y-36886734D01*
X36470974Y-36789708D01*
X36499971Y-36681489D01*
X36499971Y-36569453D01*
X36470974Y-36461234D01*
X36414956Y-36364208D01*
X36335734Y-36284986D01*
X36238708Y-36228968D01*
X36130489Y-36199971D01*
X36018453Y-36199971D01*
X35910234Y-36228968D01*
X35910231Y-36228969D01*
X35813211Y-36284984D01*
X35813205Y-36284988D01*
X35733988Y-36364205D01*
X35733984Y-36364211D01*
X35677969Y-36461231D01*
X35677968Y-36461234D01*
X35648971Y-36569453D01*
X35648971Y-36681489D01*
X35676690Y-36784936D01*
X35677968Y-36789707D01*
X35677969Y-36789710D01*
X35702114Y-36831530D01*
X35718587Y-36899430D01*
X35695735Y-36965457D01*
X35640813Y-37008648D01*
X35626826Y-37013303D01*
X35609668Y-37017900D01*
X35585761Y-37024306D01*
X35585760Y-37024307D01*
X35488740Y-37080322D01*
X35488734Y-37080326D01*
X35409517Y-37159543D01*
X35409513Y-37159549D01*
X35353498Y-37256569D01*
X35353497Y-37256572D01*
X35324500Y-37364791D01*
X35046183Y-37364791D01*
X35046503Y-37364237D01*
X35075500Y-37256018D01*
X35075500Y-37143982D01*
X35046503Y-37035763D01*
X34990485Y-36938737D01*
X34911263Y-36859515D01*
X34846579Y-36822169D01*
X34814239Y-36803498D01*
X34814238Y-36803497D01*
X34814237Y-36803497D01*
X34706018Y-36774500D01*
X34593982Y-36774500D01*
X34485763Y-36803497D01*
X34485760Y-36803498D01*
X34388740Y-36859513D01*
X34388734Y-36859517D01*
X34309517Y-36938734D01*
X34309510Y-36938743D01*
X34266182Y-37013789D01*
X34215615Y-37062004D01*
X34147008Y-37075226D01*
X34096796Y-37059175D01*
X34020855Y-37015330D01*
X34020856Y-37015330D01*
X33999154Y-37009515D01*
X33906275Y-36984628D01*
X33855780Y-36984628D01*
X33788741Y-36964943D01*
X33742986Y-36912139D01*
X33731780Y-36860628D01*
X33731780Y-36810135D01*
X33731780Y-36810133D01*
X33701079Y-36695556D01*
X33641769Y-36592829D01*
X33557893Y-36508953D01*
X33455166Y-36449643D01*
X33340589Y-36418942D01*
X33221971Y-36418942D01*
X33107394Y-36449643D01*
X33107392Y-36449643D01*
X33107392Y-36449644D01*
X33004667Y-36508953D01*
X33004664Y-36508955D01*
X32920793Y-36592826D01*
X32920791Y-36592829D01*
X32869875Y-36681018D01*
X32861481Y-36695556D01*
X32830780Y-36810133D01*
X30553033Y-36810133D01*
X30546503Y-36785763D01*
X30490485Y-36688737D01*
X30411263Y-36609515D01*
X30314237Y-36553497D01*
X30206018Y-36524500D01*
X30093982Y-36524500D01*
X29985763Y-36553497D01*
X29985760Y-36553498D01*
X29888740Y-36609513D01*
X29888734Y-36609517D01*
X29809517Y-36688734D01*
X29809513Y-36688740D01*
X29753498Y-36785760D01*
X29753497Y-36785763D01*
X29724500Y-36893982D01*
X18207766Y-36893982D01*
X18215485Y-36886263D01*
X18271503Y-36789237D01*
X18300500Y-36681018D01*
X18300500Y-36568982D01*
X18271503Y-36460763D01*
X18215485Y-36363737D01*
X18136263Y-36284515D01*
X18039237Y-36228497D01*
X17931018Y-36199500D01*
X17818982Y-36199500D01*
X17710763Y-36228497D01*
X17710762Y-36228497D01*
X17632657Y-36273591D01*
X17564757Y-36290063D01*
X17498730Y-36267210D01*
X17463271Y-36228204D01*
X17440485Y-36188737D01*
X17361263Y-36109515D01*
X17264237Y-36053497D01*
X17156018Y-36024500D01*
X17043982Y-36024500D01*
X16935763Y-36053497D01*
X16935760Y-36053498D01*
X16838740Y-36109513D01*
X16838734Y-36109517D01*
X16759517Y-36188734D01*
X16759513Y-36188740D01*
X16703498Y-36285760D01*
X16703497Y-36285763D01*
X16674500Y-36393982D01*
X12750000Y-36393982D01*
X12750000Y-34243982D01*
X13599500Y-34243982D01*
X13599500Y-34356018D01*
X13628497Y-34464237D01*
X13684515Y-34561263D01*
X13763737Y-34640485D01*
X13860763Y-34696503D01*
X13860766Y-34696504D01*
X13864230Y-34697939D01*
X13866705Y-34699934D01*
X13867802Y-34700567D01*
X13867703Y-34700737D01*
X13918633Y-34741780D01*
X13940698Y-34808074D01*
X13923419Y-34875774D01*
X13872281Y-34923384D01*
X13864230Y-34927061D01*
X13860762Y-34928497D01*
X13763740Y-34984513D01*
X13763734Y-34984517D01*
X13684517Y-35063734D01*
X13684513Y-35063740D01*
X13628498Y-35160760D01*
X13628498Y-35160761D01*
X13628497Y-35160763D01*
X13599500Y-35268982D01*
X13599500Y-35381018D01*
X13628497Y-35489237D01*
X13684515Y-35586263D01*
X13763737Y-35665485D01*
X13860763Y-35721503D01*
X13968982Y-35750500D01*
X13968984Y-35750500D01*
X14077873Y-35750500D01*
X14144912Y-35770185D01*
X14190667Y-35822989D01*
X14197645Y-35842399D01*
X14203497Y-35864237D01*
X14259515Y-35961263D01*
X14338737Y-36040485D01*
X14435763Y-36096503D01*
X14543982Y-36125500D01*
X14543984Y-36125500D01*
X14656016Y-36125500D01*
X14656018Y-36125500D01*
X14764237Y-36096503D01*
X14861263Y-36040485D01*
X14940485Y-35961263D01*
X14996503Y-35864237D01*
X15025500Y-35756018D01*
X15025500Y-35643982D01*
X14996503Y-35535763D01*
X14940485Y-35438737D01*
X14861263Y-35359515D01*
X14764237Y-35303497D01*
X14656018Y-35274500D01*
X14547127Y-35274500D01*
X14480088Y-35254815D01*
X14434333Y-35202011D01*
X14427354Y-35182600D01*
X14421503Y-35160763D01*
X14365485Y-35063737D01*
X14286263Y-34984515D01*
X14237750Y-34956506D01*
X14189241Y-34928499D01*
X14189239Y-34928498D01*
X14189237Y-34928497D01*
X14189234Y-34928496D01*
X14185773Y-34927063D01*
X14183295Y-34925066D01*
X14182198Y-34924433D01*
X14182296Y-34924261D01*
X14131368Y-34883223D01*
X14109301Y-34816930D01*
X14126578Y-34749230D01*
X14177714Y-34701618D01*
X14185773Y-34697937D01*
X14189227Y-34696505D01*
X14189237Y-34696503D01*
X14286263Y-34640485D01*
X14365485Y-34561263D01*
X14421503Y-34464237D01*
X14450500Y-34356018D01*
X14450500Y-34243982D01*
X14424992Y-34148784D01*
X14426655Y-34078940D01*
X14465817Y-34021078D01*
X14468743Y-34018982D01*
X28124500Y-34018982D01*
X28124500Y-34131018D01*
X28125772Y-34135763D01*
X28153497Y-34239236D01*
X28153498Y-34239239D01*
X28156238Y-34243984D01*
X28209515Y-34336263D01*
X28288737Y-34415485D01*
X28385763Y-34471503D01*
X28493982Y-34500500D01*
X28493984Y-34500500D01*
X28606016Y-34500500D01*
X28606018Y-34500500D01*
X28714237Y-34471503D01*
X28811263Y-34415485D01*
X28890485Y-34336263D01*
X28946503Y-34239237D01*
X28975500Y-34131018D01*
X28975500Y-34018982D01*
X28946503Y-33910763D01*
X28890485Y-33813737D01*
X28811263Y-33734515D01*
X28714237Y-33678497D01*
X28606018Y-33649500D01*
X28493982Y-33649500D01*
X28385763Y-33678497D01*
X28385760Y-33678498D01*
X28288740Y-33734513D01*
X28288734Y-33734517D01*
X28209517Y-33813734D01*
X28209513Y-33813740D01*
X28153498Y-33910760D01*
X28153497Y-33910763D01*
X28124500Y-34018982D01*
X14468743Y-34018982D01*
X14479641Y-34011176D01*
X14495111Y-34001627D01*
X14514237Y-33996503D01*
X14611263Y-33940485D01*
X14690485Y-33861263D01*
X14746503Y-33764237D01*
X14775500Y-33656018D01*
X14775500Y-33543982D01*
X14746503Y-33435763D01*
X14690485Y-33338737D01*
X14611263Y-33259515D01*
X14514237Y-33203497D01*
X14406018Y-33174500D01*
X14293982Y-33174500D01*
X14185763Y-33203497D01*
X14185760Y-33203498D01*
X14088740Y-33259513D01*
X14088734Y-33259517D01*
X14009517Y-33338734D01*
X14009513Y-33338740D01*
X13953498Y-33435760D01*
X13953497Y-33435763D01*
X13924500Y-33543982D01*
X13924500Y-33656018D01*
X13950006Y-33751211D01*
X13948344Y-33821059D01*
X13909182Y-33878922D01*
X13868142Y-33900080D01*
X13868270Y-33900388D01*
X13864591Y-33901911D01*
X13862335Y-33903075D01*
X13860770Y-33903494D01*
X13860760Y-33903498D01*
X13763740Y-33959513D01*
X13763734Y-33959517D01*
X13684517Y-34038734D01*
X13684513Y-34038740D01*
X13628498Y-34135760D01*
X13628497Y-34135763D01*
X13599500Y-34243982D01*
X12750000Y-34243982D01*
X12750000Y-30743982D01*
X26774500Y-30743982D01*
X26774500Y-30856018D01*
X26803497Y-30964237D01*
X26859515Y-31061263D01*
X26938737Y-31140485D01*
X27035763Y-31196503D01*
X27143982Y-31225500D01*
X27143984Y-31225500D01*
X27256016Y-31225500D01*
X27256018Y-31225500D01*
X27364237Y-31196503D01*
X27461263Y-31140485D01*
X27512819Y-31088929D01*
X27574142Y-31055444D01*
X27643834Y-31060428D01*
X27699767Y-31102300D01*
X27724184Y-31167764D01*
X27724500Y-31176610D01*
X27724500Y-31256018D01*
X27753497Y-31364237D01*
X27809515Y-31461263D01*
X27809517Y-31461265D01*
X27858203Y-31509951D01*
X27891688Y-31571274D01*
X27886704Y-31640966D01*
X27858203Y-31685313D01*
X27804781Y-31738734D01*
X27804777Y-31738740D01*
X27748762Y-31835760D01*
X27748761Y-31835763D01*
X27719764Y-31943982D01*
X27719764Y-32018654D01*
X27700079Y-32085693D01*
X27647275Y-32131448D01*
X27578117Y-32141392D01*
X27514561Y-32112367D01*
X27508083Y-32106335D01*
X27461265Y-32059517D01*
X27461263Y-32059515D01*
X27364237Y-32003497D01*
X27256018Y-31974500D01*
X27143982Y-31974500D01*
X27035763Y-32003497D01*
X27035760Y-32003498D01*
X26938740Y-32059513D01*
X26938734Y-32059517D01*
X26859517Y-32138734D01*
X26859513Y-32138740D01*
X26803498Y-32235760D01*
X26803497Y-32235763D01*
X26774500Y-32343982D01*
X26774500Y-32456018D01*
X26803497Y-32564237D01*
X26859515Y-32661263D01*
X26938737Y-32740485D01*
X27035763Y-32796503D01*
X27143982Y-32825500D01*
X27143984Y-32825500D01*
X27256016Y-32825500D01*
X27256018Y-32825500D01*
X27364237Y-32796503D01*
X27455206Y-32743982D01*
X28524500Y-32743982D01*
X28524500Y-32856018D01*
X28553497Y-32964237D01*
X28609515Y-33061263D01*
X28688737Y-33140485D01*
X28785763Y-33196503D01*
X28893982Y-33225500D01*
X28893984Y-33225500D01*
X29006016Y-33225500D01*
X29006018Y-33225500D01*
X29114237Y-33196503D01*
X29211263Y-33140485D01*
X29290485Y-33061263D01*
X29346503Y-32964237D01*
X29375500Y-32856018D01*
X29375500Y-32743982D01*
X29346503Y-32635763D01*
X29290485Y-32538737D01*
X29211263Y-32459515D01*
X29114237Y-32403497D01*
X29006018Y-32374500D01*
X28893982Y-32374500D01*
X28785763Y-32403497D01*
X28785760Y-32403498D01*
X28688740Y-32459513D01*
X28688734Y-32459517D01*
X28609517Y-32538734D01*
X28609513Y-32538740D01*
X28553498Y-32635760D01*
X28553497Y-32635763D01*
X28524500Y-32743982D01*
X27455206Y-32743982D01*
X27461263Y-32740485D01*
X27540485Y-32661263D01*
X27596503Y-32564237D01*
X27625500Y-32456018D01*
X27625500Y-32381346D01*
X27645185Y-32314307D01*
X27697989Y-32268552D01*
X27767147Y-32258608D01*
X27830703Y-32287633D01*
X27837181Y-32293665D01*
X27884001Y-32340485D01*
X27981027Y-32396503D01*
X28089246Y-32425500D01*
X28089248Y-32425500D01*
X28201280Y-32425500D01*
X28201282Y-32425500D01*
X28309501Y-32396503D01*
X28406527Y-32340485D01*
X28485749Y-32261263D01*
X28541767Y-32164237D01*
X28570764Y-32056018D01*
X28570764Y-31943982D01*
X28541767Y-31835763D01*
X28485749Y-31738737D01*
X28437061Y-31690049D01*
X28432722Y-31682103D01*
X28425475Y-31676678D01*
X28416240Y-31651918D01*
X28403576Y-31628726D01*
X28404221Y-31619696D01*
X28401058Y-31611214D01*
X28406674Y-31585393D01*
X28408560Y-31559034D01*
X28414378Y-31549980D01*
X28415910Y-31542941D01*
X28437061Y-31514687D01*
X28462319Y-31489429D01*
X28523642Y-31455944D01*
X28593334Y-31460928D01*
X28637681Y-31489429D01*
X28688737Y-31540485D01*
X28785763Y-31596503D01*
X28893982Y-31625500D01*
X28893984Y-31625500D01*
X29006016Y-31625500D01*
X29006018Y-31625500D01*
X29114237Y-31596503D01*
X29211263Y-31540485D01*
X29290485Y-31461263D01*
X29346503Y-31364237D01*
X29375500Y-31256018D01*
X29375500Y-31143982D01*
X29346503Y-31035763D01*
X29290485Y-30938737D01*
X29239429Y-30887681D01*
X29205944Y-30826358D01*
X29210928Y-30756666D01*
X29239429Y-30712319D01*
X29240485Y-30711263D01*
X29290485Y-30661263D01*
X29346503Y-30564237D01*
X29375500Y-30456018D01*
X29375500Y-30343982D01*
X29346503Y-30235763D01*
X29290485Y-30138737D01*
X29239429Y-30087681D01*
X29205944Y-30026358D01*
X29210928Y-29956666D01*
X29239429Y-29912319D01*
X29255247Y-29896501D01*
X29290485Y-29861263D01*
X29346503Y-29764237D01*
X29375500Y-29656018D01*
X29375500Y-29543982D01*
X29359034Y-29482531D01*
X29355129Y-29467955D01*
X29355127Y-29467950D01*
X29354467Y-29465486D01*
X29348705Y-29443982D01*
X31574500Y-29443982D01*
X31574500Y-29556018D01*
X31603497Y-29664237D01*
X31659515Y-29761263D01*
X31738737Y-29840485D01*
X31835763Y-29896503D01*
X31943982Y-29925500D01*
X31943984Y-29925500D01*
X32056016Y-29925500D01*
X32056018Y-29925500D01*
X32164237Y-29896503D01*
X32261263Y-29840485D01*
X32340485Y-29761263D01*
X32340489Y-29761255D01*
X32345433Y-29754814D01*
X32347228Y-29756191D01*
X32363514Y-29740657D01*
X32388043Y-29716723D01*
X32388761Y-29716575D01*
X32389292Y-29716070D01*
X32422960Y-29709574D01*
X32456493Y-29702709D01*
X32457175Y-29702973D01*
X32457896Y-29702834D01*
X32489747Y-29715578D01*
X32521653Y-29727926D01*
X32522218Y-29728570D01*
X32522766Y-29728790D01*
X32546302Y-29753186D01*
X32552993Y-29762356D01*
X32553497Y-29764237D01*
X32609515Y-29861263D01*
X32667384Y-29919132D01*
X32673060Y-29926911D01*
X32681743Y-29951093D01*
X32694056Y-29973642D01*
X32693355Y-29983432D01*
X32696673Y-29992670D01*
X32690904Y-30017705D01*
X32689072Y-30043334D01*
X32682724Y-30053210D01*
X32680986Y-30060756D01*
X32672643Y-30068896D01*
X32660571Y-30087681D01*
X32609517Y-30138734D01*
X32609513Y-30138740D01*
X32553498Y-30235760D01*
X32553497Y-30235763D01*
X32524500Y-30343982D01*
X32524500Y-30456018D01*
X32553497Y-30564237D01*
X32609515Y-30661263D01*
X32609517Y-30661265D01*
X32660571Y-30712319D01*
X32694056Y-30773642D01*
X32689072Y-30843334D01*
X32660571Y-30887681D01*
X32609517Y-30938734D01*
X32609513Y-30938740D01*
X32553498Y-31035760D01*
X32553497Y-31035763D01*
X32524500Y-31143982D01*
X32524500Y-31256018D01*
X32553497Y-31364237D01*
X32609515Y-31461263D01*
X32609517Y-31461265D01*
X32660571Y-31512319D01*
X32694056Y-31573642D01*
X32689072Y-31643334D01*
X32660571Y-31687681D01*
X32609517Y-31738734D01*
X32609513Y-31738740D01*
X32553498Y-31835760D01*
X32553497Y-31835763D01*
X32524500Y-31943982D01*
X32524500Y-32056018D01*
X32553497Y-32164237D01*
X32609515Y-32261263D01*
X32609517Y-32261265D01*
X32660571Y-32312319D01*
X32664909Y-32320264D01*
X32672157Y-32325690D01*
X32681391Y-32350449D01*
X32694056Y-32373642D01*
X32693410Y-32382671D01*
X32696574Y-32391154D01*
X32690957Y-32416974D01*
X32689072Y-32443334D01*
X32683253Y-32452387D01*
X32681722Y-32459427D01*
X32660571Y-32487681D01*
X32612681Y-32535571D01*
X32551358Y-32569056D01*
X32481666Y-32564072D01*
X32437319Y-32535571D01*
X32361265Y-32459517D01*
X32361263Y-32459515D01*
X32264237Y-32403497D01*
X32156018Y-32374500D01*
X32043982Y-32374500D01*
X31935763Y-32403497D01*
X31935760Y-32403498D01*
X31838740Y-32459513D01*
X31838734Y-32459517D01*
X31759517Y-32538734D01*
X31759513Y-32538740D01*
X31703498Y-32635760D01*
X31703497Y-32635763D01*
X31674500Y-32743982D01*
X31674500Y-32856018D01*
X31703497Y-32964237D01*
X31759515Y-33061263D01*
X31838737Y-33140485D01*
X31935763Y-33196503D01*
X32043982Y-33225500D01*
X32043984Y-33225500D01*
X32156016Y-33225500D01*
X32156018Y-33225500D01*
X32264237Y-33196503D01*
X32361263Y-33140485D01*
X32437319Y-33064429D01*
X32498642Y-33030944D01*
X32568334Y-33035928D01*
X32612681Y-33064429D01*
X32688737Y-33140485D01*
X32785763Y-33196503D01*
X32893982Y-33225500D01*
X32893984Y-33225500D01*
X33006016Y-33225500D01*
X33006018Y-33225500D01*
X33114237Y-33196503D01*
X33211263Y-33140485D01*
X33262319Y-33089429D01*
X33323642Y-33055944D01*
X33393334Y-33060928D01*
X33437681Y-33089429D01*
X33488737Y-33140485D01*
X33585763Y-33196503D01*
X33693982Y-33225500D01*
X33693984Y-33225500D01*
X33806016Y-33225500D01*
X33806018Y-33225500D01*
X33914237Y-33196503D01*
X34011263Y-33140485D01*
X34090485Y-33061263D01*
X34146503Y-32964237D01*
X34175500Y-32856018D01*
X34175500Y-32776610D01*
X34195185Y-32709571D01*
X34247989Y-32663816D01*
X34317147Y-32653872D01*
X34380703Y-32682897D01*
X34387181Y-32688929D01*
X34438737Y-32740485D01*
X34535763Y-32796503D01*
X34643982Y-32825500D01*
X34643984Y-32825500D01*
X34756016Y-32825500D01*
X34756018Y-32825500D01*
X34864237Y-32796503D01*
X34961263Y-32740485D01*
X35040485Y-32661263D01*
X35096503Y-32564237D01*
X35125500Y-32456018D01*
X35125500Y-32343982D01*
X35096503Y-32235763D01*
X35040485Y-32138737D01*
X34961263Y-32059515D01*
X34864237Y-32003497D01*
X34756018Y-31974500D01*
X34643982Y-31974500D01*
X34535763Y-32003497D01*
X34535760Y-32003498D01*
X34438740Y-32059513D01*
X34438734Y-32059517D01*
X34359517Y-32138734D01*
X34359513Y-32138740D01*
X34303498Y-32235760D01*
X34303497Y-32235763D01*
X34274500Y-32343982D01*
X34274500Y-32423390D01*
X34254815Y-32490429D01*
X34202011Y-32536184D01*
X34132853Y-32546128D01*
X34069297Y-32517103D01*
X34062819Y-32511071D01*
X34011265Y-32459517D01*
X34011263Y-32459515D01*
X33914237Y-32403497D01*
X33806018Y-32374500D01*
X33693982Y-32374500D01*
X33585763Y-32403497D01*
X33585760Y-32403498D01*
X33488740Y-32459513D01*
X33488734Y-32459517D01*
X33437681Y-32510571D01*
X33429735Y-32514909D01*
X33424310Y-32522157D01*
X33399550Y-32531391D01*
X33376358Y-32544056D01*
X33367328Y-32543410D01*
X33358846Y-32546574D01*
X33333025Y-32540957D01*
X33306666Y-32539072D01*
X33297612Y-32533253D01*
X33290573Y-32531722D01*
X33262319Y-32510571D01*
X33239429Y-32487681D01*
X33205944Y-32426358D01*
X33210928Y-32356666D01*
X33239429Y-32312319D01*
X33264115Y-32287633D01*
X33290485Y-32261263D01*
X33346503Y-32164237D01*
X33375500Y-32056018D01*
X33375500Y-31943982D01*
X33346503Y-31835763D01*
X33290485Y-31738737D01*
X33239429Y-31687681D01*
X33205944Y-31626358D01*
X33210928Y-31556666D01*
X33239429Y-31512319D01*
X33262319Y-31489429D01*
X33290485Y-31461263D01*
X33346503Y-31364237D01*
X33375500Y-31256018D01*
X33375500Y-31143982D01*
X33346503Y-31035763D01*
X33290485Y-30938737D01*
X33239429Y-30887681D01*
X33235493Y-30880474D01*
X33228855Y-30875643D01*
X33218995Y-30850259D01*
X33205944Y-30826358D01*
X33206529Y-30818167D01*
X33203557Y-30810514D01*
X33208985Y-30783831D01*
X33210928Y-30756666D01*
X33216208Y-30748326D01*
X33217092Y-30743982D01*
X34274500Y-30743982D01*
X34274500Y-30856018D01*
X34303497Y-30964237D01*
X34359515Y-31061263D01*
X34438737Y-31140485D01*
X34535763Y-31196503D01*
X34643982Y-31225500D01*
X34643984Y-31225500D01*
X34707777Y-31225500D01*
X34774816Y-31245185D01*
X34820571Y-31297989D01*
X34827550Y-31317403D01*
X34853497Y-31414237D01*
X34909515Y-31511263D01*
X34988737Y-31590485D01*
X35085763Y-31646503D01*
X35193982Y-31675500D01*
X35193984Y-31675500D01*
X35306016Y-31675500D01*
X35306018Y-31675500D01*
X35414237Y-31646503D01*
X35511263Y-31590485D01*
X35590485Y-31511263D01*
X35646503Y-31414237D01*
X35675500Y-31306018D01*
X35675500Y-31193982D01*
X35646503Y-31085763D01*
X35590485Y-30988737D01*
X35511263Y-30909515D01*
X35446579Y-30872169D01*
X35414239Y-30853498D01*
X35414238Y-30853497D01*
X35414237Y-30853497D01*
X35306018Y-30824500D01*
X35242223Y-30824500D01*
X35175184Y-30804815D01*
X35129429Y-30752011D01*
X35122448Y-30732593D01*
X35117335Y-30713510D01*
X35096503Y-30635763D01*
X35040485Y-30538737D01*
X34961263Y-30459515D01*
X34864237Y-30403497D01*
X34756018Y-30374500D01*
X34643982Y-30374500D01*
X34535763Y-30403497D01*
X34535760Y-30403498D01*
X34438740Y-30459513D01*
X34438734Y-30459517D01*
X34359517Y-30538734D01*
X34359513Y-30538740D01*
X34303498Y-30635760D01*
X34303497Y-30635763D01*
X34274500Y-30743982D01*
X33217092Y-30743982D01*
X33217486Y-30742047D01*
X33236468Y-30716329D01*
X33238254Y-30713510D01*
X33238838Y-30712909D01*
X33290485Y-30661263D01*
X33346503Y-30564237D01*
X33375500Y-30456018D01*
X33375500Y-30343982D01*
X33346503Y-30235763D01*
X33290485Y-30138737D01*
X33239429Y-30087681D01*
X33205944Y-30026358D01*
X33210928Y-29956666D01*
X33227364Y-29926334D01*
X33232871Y-29918876D01*
X33290485Y-29861263D01*
X33300462Y-29843982D01*
X35978500Y-29843982D01*
X35978500Y-29956018D01*
X36007497Y-30064237D01*
X36063515Y-30161263D01*
X36142737Y-30240485D01*
X36239763Y-30296503D01*
X36347982Y-30325500D01*
X36347984Y-30325500D01*
X36460016Y-30325500D01*
X36460018Y-30325500D01*
X36568237Y-30296503D01*
X36665263Y-30240485D01*
X36744485Y-30161263D01*
X36800503Y-30064237D01*
X36829500Y-29956018D01*
X36829500Y-29843982D01*
X36800503Y-29735763D01*
X36744485Y-29638737D01*
X36665263Y-29559515D01*
X36568237Y-29503497D01*
X36460018Y-29474500D01*
X36347982Y-29474500D01*
X36239763Y-29503497D01*
X36239760Y-29503498D01*
X36142740Y-29559513D01*
X36142734Y-29559517D01*
X36063517Y-29638734D01*
X36063513Y-29638740D01*
X36007498Y-29735760D01*
X36007497Y-29735763D01*
X35978500Y-29843982D01*
X33300462Y-29843982D01*
X33346503Y-29764237D01*
X33375500Y-29656018D01*
X33375500Y-29543982D01*
X33346503Y-29435763D01*
X33290485Y-29338737D01*
X33239429Y-29287681D01*
X33235090Y-29279735D01*
X33227843Y-29274310D01*
X33218608Y-29249550D01*
X33205944Y-29226358D01*
X33206589Y-29217328D01*
X33203426Y-29208846D01*
X33209042Y-29183025D01*
X33210928Y-29156666D01*
X33216746Y-29147612D01*
X33218278Y-29140573D01*
X33239429Y-29112319D01*
X33262319Y-29089429D01*
X33323642Y-29055944D01*
X33393334Y-29060928D01*
X33437681Y-29089429D01*
X33488737Y-29140485D01*
X33585763Y-29196503D01*
X33693982Y-29225500D01*
X33693984Y-29225500D01*
X33806016Y-29225500D01*
X33806018Y-29225500D01*
X33914237Y-29196503D01*
X34011263Y-29140485D01*
X34090485Y-29061263D01*
X34146503Y-28964237D01*
X34175500Y-28856018D01*
X34175500Y-28743982D01*
X34146503Y-28635763D01*
X34090485Y-28538737D01*
X34039429Y-28487681D01*
X34005944Y-28426358D01*
X34010928Y-28356666D01*
X34039429Y-28312319D01*
X34063017Y-28288731D01*
X34090485Y-28261263D01*
X34146503Y-28164237D01*
X34175500Y-28056018D01*
X34175500Y-27943982D01*
X34146503Y-27835763D01*
X34090485Y-27738737D01*
X34011263Y-27659515D01*
X33914237Y-27603497D01*
X33806018Y-27574500D01*
X33693982Y-27574500D01*
X33585763Y-27603497D01*
X33585760Y-27603498D01*
X33488740Y-27659513D01*
X33488734Y-27659517D01*
X33437681Y-27710571D01*
X33376358Y-27744056D01*
X33306666Y-27739072D01*
X33262319Y-27710571D01*
X33211265Y-27659517D01*
X33211263Y-27659515D01*
X33114237Y-27603497D01*
X33006018Y-27574500D01*
X32893982Y-27574500D01*
X32785763Y-27603497D01*
X32785760Y-27603498D01*
X32688740Y-27659513D01*
X32688734Y-27659517D01*
X32609517Y-27738734D01*
X32609513Y-27738740D01*
X32553498Y-27835760D01*
X32553497Y-27835763D01*
X32524500Y-27943982D01*
X32524500Y-28056018D01*
X32553497Y-28164237D01*
X32609515Y-28261263D01*
X32609517Y-28261265D01*
X32660571Y-28312319D01*
X32694056Y-28373642D01*
X32689072Y-28443334D01*
X32660571Y-28487681D01*
X32609517Y-28538734D01*
X32609513Y-28538740D01*
X32553498Y-28635760D01*
X32553497Y-28635763D01*
X32524500Y-28743982D01*
X32524500Y-28856018D01*
X32553497Y-28964237D01*
X32609515Y-29061263D01*
X32609517Y-29061265D01*
X32660571Y-29112319D01*
X32663923Y-29118458D01*
X32669657Y-29122463D01*
X32680448Y-29148722D01*
X32694056Y-29173642D01*
X32693557Y-29180618D01*
X32696216Y-29187088D01*
X32691097Y-29215013D01*
X32689072Y-29243334D01*
X32684576Y-29250588D01*
X32683619Y-29255813D01*
X32667703Y-29277819D01*
X32663410Y-29284748D01*
X32662029Y-29286222D01*
X32609515Y-29338737D01*
X32604127Y-29348067D01*
X32594387Y-29358472D01*
X32576066Y-29369272D01*
X32560675Y-29383946D01*
X32546571Y-29386662D01*
X32534199Y-29393957D01*
X32512948Y-29393138D01*
X32492067Y-29397161D01*
X32478733Y-29391821D01*
X32464381Y-29391269D01*
X32446946Y-29379091D01*
X32427205Y-29371186D01*
X32414296Y-29356287D01*
X32407100Y-29351261D01*
X32404535Y-29345021D01*
X32396480Y-29335724D01*
X32340485Y-29238737D01*
X32261263Y-29159515D01*
X32185886Y-29115996D01*
X32164239Y-29103498D01*
X32164238Y-29103497D01*
X32164237Y-29103497D01*
X32056018Y-29074500D01*
X31943982Y-29074500D01*
X31835763Y-29103497D01*
X31835760Y-29103498D01*
X31738740Y-29159513D01*
X31738734Y-29159517D01*
X31659517Y-29238734D01*
X31659513Y-29238740D01*
X31603498Y-29335760D01*
X31603497Y-29335763D01*
X31574500Y-29443982D01*
X29348705Y-29443982D01*
X29346503Y-29435763D01*
X29290485Y-29338737D01*
X29239429Y-29287681D01*
X29205944Y-29226358D01*
X29210928Y-29156666D01*
X29227824Y-29125715D01*
X29233145Y-29118602D01*
X29290485Y-29061263D01*
X29339281Y-28976744D01*
X29343692Y-28970850D01*
X29365993Y-28954145D01*
X29386157Y-28934920D01*
X29393569Y-28933491D01*
X29399614Y-28928964D01*
X29427405Y-28926969D01*
X29454764Y-28921696D01*
X29461774Y-28924502D01*
X29469305Y-28923962D01*
X29493763Y-28937308D01*
X29519629Y-28947664D01*
X29525809Y-28954796D01*
X29530637Y-28957431D01*
X29534979Y-28965379D01*
X29550364Y-28983134D01*
X29578643Y-29032114D01*
X29578646Y-29032118D01*
X29578648Y-29032121D01*
X29662524Y-29115997D01*
X29765251Y-29175307D01*
X29879828Y-29206008D01*
X29879831Y-29206008D01*
X29998443Y-29206008D01*
X29998446Y-29206008D01*
X30113023Y-29175307D01*
X30215750Y-29115997D01*
X30299626Y-29032121D01*
X30358936Y-28929394D01*
X30389637Y-28814817D01*
X30389637Y-28764322D01*
X30409322Y-28697283D01*
X30462126Y-28651528D01*
X30513637Y-28640322D01*
X30564129Y-28640322D01*
X30564132Y-28640322D01*
X30678709Y-28609621D01*
X30781436Y-28550311D01*
X30865312Y-28466435D01*
X30924622Y-28363708D01*
X30955323Y-28249131D01*
X30955323Y-28130513D01*
X30924622Y-28015936D01*
X30865312Y-27913209D01*
X30781436Y-27829333D01*
X30678709Y-27770023D01*
X30564132Y-27739322D01*
X30445514Y-27739322D01*
X30330937Y-27770023D01*
X30330935Y-27770023D01*
X30330935Y-27770024D01*
X30228210Y-27829333D01*
X30228207Y-27829335D01*
X30144336Y-27913206D01*
X30144334Y-27913209D01*
X30085024Y-28015936D01*
X30054323Y-28130513D01*
X30054323Y-28130515D01*
X30054323Y-28181008D01*
X30034638Y-28248047D01*
X29981834Y-28293802D01*
X29930323Y-28305008D01*
X29879828Y-28305008D01*
X29765251Y-28335709D01*
X29765249Y-28335709D01*
X29765249Y-28335710D01*
X29662524Y-28395019D01*
X29662521Y-28395021D01*
X29578650Y-28478892D01*
X29578643Y-28478901D01*
X29524677Y-28572372D01*
X29474110Y-28620587D01*
X29405503Y-28633809D01*
X29340638Y-28607841D01*
X29321268Y-28588829D01*
X29314920Y-28581060D01*
X29290485Y-28538737D01*
X29235022Y-28483274D01*
X29231087Y-28478458D01*
X29219821Y-28451772D01*
X29205944Y-28426358D01*
X29206400Y-28419980D01*
X29203913Y-28414089D01*
X29208862Y-28385554D01*
X29210928Y-28356666D01*
X29214960Y-28350391D01*
X29215853Y-28345247D01*
X29223891Y-28336494D01*
X29239429Y-28312319D01*
X29263017Y-28288731D01*
X29290485Y-28261263D01*
X29346503Y-28164237D01*
X29375500Y-28056018D01*
X29375500Y-27943982D01*
X29346503Y-27835763D01*
X29290485Y-27738737D01*
X29239429Y-27687681D01*
X29205944Y-27626358D01*
X29210928Y-27556666D01*
X29239429Y-27512319D01*
X29255247Y-27496501D01*
X29290485Y-27461263D01*
X29346503Y-27364237D01*
X29375500Y-27256018D01*
X29375500Y-27143982D01*
X29346503Y-27035763D01*
X29290485Y-26938737D01*
X29211263Y-26859515D01*
X29114237Y-26803497D01*
X29006018Y-26774500D01*
X28893982Y-26774500D01*
X28785763Y-26803497D01*
X28785760Y-26803498D01*
X28688740Y-26859513D01*
X28688734Y-26859517D01*
X28609517Y-26938734D01*
X28609513Y-26938740D01*
X28553498Y-27035760D01*
X28553497Y-27035763D01*
X28524500Y-27143982D01*
X28524500Y-27256018D01*
X28553497Y-27364237D01*
X28609515Y-27461263D01*
X28609517Y-27461265D01*
X28660571Y-27512319D01*
X28664909Y-27520264D01*
X28672157Y-27525690D01*
X28681391Y-27550449D01*
X28694056Y-27573642D01*
X28693410Y-27582671D01*
X28696574Y-27591154D01*
X28690957Y-27616974D01*
X28689072Y-27643334D01*
X28683253Y-27652387D01*
X28681722Y-27659427D01*
X28660571Y-27687681D01*
X28637681Y-27710571D01*
X28576358Y-27744056D01*
X28506666Y-27739072D01*
X28462319Y-27710571D01*
X28411265Y-27659517D01*
X28411263Y-27659515D01*
X28314237Y-27603497D01*
X28206018Y-27574500D01*
X28093982Y-27574500D01*
X27985763Y-27603497D01*
X27985760Y-27603498D01*
X27888740Y-27659513D01*
X27888734Y-27659517D01*
X27809517Y-27738734D01*
X27809513Y-27738740D01*
X27753498Y-27835760D01*
X27753497Y-27835763D01*
X27724500Y-27943982D01*
X27724500Y-28056018D01*
X27753497Y-28164237D01*
X27809515Y-28261263D01*
X27809517Y-28261265D01*
X27860571Y-28312319D01*
X27894056Y-28373642D01*
X27889072Y-28443334D01*
X27860571Y-28487681D01*
X27809517Y-28538734D01*
X27809513Y-28538740D01*
X27753498Y-28635760D01*
X27753497Y-28635763D01*
X27724500Y-28743982D01*
X27724500Y-28856018D01*
X27753497Y-28964237D01*
X27809515Y-29061263D01*
X27809517Y-29061265D01*
X27860571Y-29112319D01*
X27894056Y-29173642D01*
X27889072Y-29243334D01*
X27860571Y-29287681D01*
X27809517Y-29338734D01*
X27809513Y-29338740D01*
X27753498Y-29435760D01*
X27753497Y-29435763D01*
X27724500Y-29543982D01*
X27724500Y-29656018D01*
X27753497Y-29764237D01*
X27809515Y-29861263D01*
X27809517Y-29861265D01*
X27885571Y-29937319D01*
X27919056Y-29998642D01*
X27914072Y-30068334D01*
X27885571Y-30112681D01*
X27809517Y-30188734D01*
X27809513Y-30188740D01*
X27753498Y-30285760D01*
X27753497Y-30285763D01*
X27724500Y-30393982D01*
X27724500Y-30423390D01*
X27704815Y-30490429D01*
X27652011Y-30536184D01*
X27582853Y-30546128D01*
X27519297Y-30517103D01*
X27512819Y-30511071D01*
X27461265Y-30459517D01*
X27461263Y-30459515D01*
X27364237Y-30403497D01*
X27256018Y-30374500D01*
X27143982Y-30374500D01*
X27035763Y-30403497D01*
X27035760Y-30403498D01*
X26938740Y-30459513D01*
X26938734Y-30459517D01*
X26859517Y-30538734D01*
X26859513Y-30538740D01*
X26803498Y-30635760D01*
X26803497Y-30635763D01*
X26774500Y-30743982D01*
X12750000Y-30743982D01*
X12750000Y-29618982D01*
X16774500Y-29618982D01*
X16774500Y-29731018D01*
X16802566Y-29835760D01*
X16803497Y-29839236D01*
X16803498Y-29839239D01*
X16806238Y-29843984D01*
X16859515Y-29936263D01*
X16938737Y-30015485D01*
X17035763Y-30071503D01*
X17143982Y-30100500D01*
X17143984Y-30100500D01*
X17256016Y-30100500D01*
X17256018Y-30100500D01*
X17364237Y-30071503D01*
X17461263Y-30015485D01*
X17532766Y-29943982D01*
X25999497Y-29943982D01*
X25999497Y-30056018D01*
X26028494Y-30164237D01*
X26084512Y-30261263D01*
X26163734Y-30340485D01*
X26260760Y-30396503D01*
X26368979Y-30425500D01*
X26368981Y-30425500D01*
X26481013Y-30425500D01*
X26481015Y-30425500D01*
X26589234Y-30396503D01*
X26686260Y-30340485D01*
X26765482Y-30261263D01*
X26821500Y-30164237D01*
X26850497Y-30056018D01*
X26850497Y-29943982D01*
X26821500Y-29835763D01*
X26765482Y-29738737D01*
X26686260Y-29659515D01*
X26589234Y-29603497D01*
X26481015Y-29574500D01*
X26368979Y-29574500D01*
X26260760Y-29603497D01*
X26260757Y-29603498D01*
X26163737Y-29659513D01*
X26163731Y-29659517D01*
X26084514Y-29738734D01*
X26084510Y-29738740D01*
X26028495Y-29835760D01*
X26028494Y-29835763D01*
X25999497Y-29943982D01*
X17532766Y-29943982D01*
X17540485Y-29936263D01*
X17596503Y-29839237D01*
X17625500Y-29731018D01*
X17625500Y-29618982D01*
X17596503Y-29510763D01*
X17540485Y-29413737D01*
X17461263Y-29334515D01*
X17382839Y-29289237D01*
X17364239Y-29278498D01*
X17364238Y-29278497D01*
X17364237Y-29278497D01*
X17256018Y-29249500D01*
X17143982Y-29249500D01*
X17035763Y-29278497D01*
X17035760Y-29278498D01*
X16938740Y-29334513D01*
X16938734Y-29334517D01*
X16859517Y-29413734D01*
X16859513Y-29413740D01*
X16803498Y-29510760D01*
X16803497Y-29510763D01*
X16774500Y-29618982D01*
X12750000Y-29618982D01*
X12750000Y-28493979D01*
X13599500Y-28493979D01*
X13599500Y-28606015D01*
X13614303Y-28661259D01*
X13628497Y-28714233D01*
X13628497Y-28714234D01*
X13663868Y-28775499D01*
X13680340Y-28843399D01*
X13663868Y-28899496D01*
X13628499Y-28960758D01*
X13628497Y-28960763D01*
X13599500Y-29068982D01*
X13599500Y-29181018D01*
X13628497Y-29289237D01*
X13684515Y-29386263D01*
X13763737Y-29465485D01*
X13860763Y-29521503D01*
X13968982Y-29550500D01*
X13968984Y-29550500D01*
X14081016Y-29550500D01*
X14081018Y-29550500D01*
X14189237Y-29521503D01*
X14220423Y-29503498D01*
X14220475Y-29503468D01*
X14231783Y-29496938D01*
X14286263Y-29465485D01*
X14365485Y-29386263D01*
X14421503Y-29289237D01*
X14450500Y-29181018D01*
X14450500Y-29068982D01*
X14421503Y-28960763D01*
X14386130Y-28899495D01*
X14369658Y-28831599D01*
X14386131Y-28775499D01*
X14421503Y-28714234D01*
X14450500Y-28606015D01*
X14450500Y-28493979D01*
X14421503Y-28385760D01*
X14397382Y-28343982D01*
X26624500Y-28343982D01*
X26624500Y-28456018D01*
X26653497Y-28564237D01*
X26709515Y-28661263D01*
X26788737Y-28740485D01*
X26885763Y-28796503D01*
X26993982Y-28825500D01*
X26993984Y-28825500D01*
X27106016Y-28825500D01*
X27106018Y-28825500D01*
X27214237Y-28796503D01*
X27311263Y-28740485D01*
X27390485Y-28661263D01*
X27446503Y-28564237D01*
X27475500Y-28456018D01*
X27475500Y-28343982D01*
X27446503Y-28235763D01*
X27390485Y-28138737D01*
X27311263Y-28059515D01*
X27214237Y-28003497D01*
X27106018Y-27974500D01*
X26993982Y-27974500D01*
X26885763Y-28003497D01*
X26885760Y-28003498D01*
X26788740Y-28059513D01*
X26788734Y-28059517D01*
X26709517Y-28138734D01*
X26709513Y-28138740D01*
X26653498Y-28235760D01*
X26653497Y-28235763D01*
X26624500Y-28343982D01*
X14397382Y-28343982D01*
X14365485Y-28288734D01*
X14286263Y-28209512D01*
X14207848Y-28164239D01*
X14189239Y-28153495D01*
X14189238Y-28153494D01*
X14189237Y-28153494D01*
X14081018Y-28124497D01*
X13968982Y-28124497D01*
X13860763Y-28153494D01*
X13860760Y-28153495D01*
X13763740Y-28209510D01*
X13763734Y-28209514D01*
X13684517Y-28288731D01*
X13684513Y-28288737D01*
X13628498Y-28385757D01*
X13628497Y-28385760D01*
X13599500Y-28493979D01*
X12750000Y-28493979D01*
X12750000Y-25693982D01*
X17499500Y-25693982D01*
X17499500Y-25806018D01*
X17527233Y-25909517D01*
X17528497Y-25914236D01*
X17528498Y-25914239D01*
X17531238Y-25918984D01*
X17584515Y-26011263D01*
X17663737Y-26090485D01*
X17760763Y-26146503D01*
X17868982Y-26175500D01*
X17868984Y-26175500D01*
X17981016Y-26175500D01*
X17981018Y-26175500D01*
X18089237Y-26146503D01*
X18186263Y-26090485D01*
X18265485Y-26011263D01*
X18267613Y-26007576D01*
X18270220Y-26005090D01*
X18270433Y-26004814D01*
X18270476Y-26004847D01*
X18318179Y-25959362D01*
X18386786Y-25946138D01*
X18451651Y-25972106D01*
X18482386Y-26007576D01*
X18484515Y-26011263D01*
X18563737Y-26090485D01*
X18660763Y-26146503D01*
X18768982Y-26175500D01*
X18768984Y-26175500D01*
X18881016Y-26175500D01*
X18881018Y-26175500D01*
X18989237Y-26146503D01*
X19086263Y-26090485D01*
X19165485Y-26011263D01*
X19221503Y-25914237D01*
X19250500Y-25806018D01*
X19250500Y-25693982D01*
X19221503Y-25585763D01*
X19165485Y-25488737D01*
X19086263Y-25409515D01*
X19019560Y-25371004D01*
X18989239Y-25353498D01*
X18989238Y-25353497D01*
X18989237Y-25353497D01*
X18881018Y-25324500D01*
X18768982Y-25324500D01*
X18660763Y-25353497D01*
X18660760Y-25353498D01*
X18563740Y-25409513D01*
X18563734Y-25409517D01*
X18484517Y-25488734D01*
X18484513Y-25488740D01*
X18482385Y-25492426D01*
X18479776Y-25494913D01*
X18479567Y-25495186D01*
X18479524Y-25495153D01*
X18431816Y-25540640D01*
X18363209Y-25553860D01*
X18298345Y-25527890D01*
X18267615Y-25492426D01*
X18267244Y-25491784D01*
X18265485Y-25488737D01*
X18186263Y-25409515D01*
X18119560Y-25371004D01*
X18089239Y-25353498D01*
X18089238Y-25353497D01*
X18089237Y-25353497D01*
X17981018Y-25324500D01*
X17868982Y-25324500D01*
X17760763Y-25353497D01*
X17760760Y-25353498D01*
X17663740Y-25409513D01*
X17663734Y-25409517D01*
X17584517Y-25488734D01*
X17584513Y-25488740D01*
X17528498Y-25585760D01*
X17528497Y-25585763D01*
X17499500Y-25693982D01*
X12750000Y-25693982D01*
X12750000Y-24139593D01*
X12769685Y-24072554D01*
X12822489Y-24026799D01*
X12891647Y-24016855D01*
X12909337Y-24020735D01*
X12923344Y-24024899D01*
X12960763Y-24046503D01*
X13068982Y-24075500D01*
X13093542Y-24075500D01*
X13110837Y-24080642D01*
X13125630Y-24090220D01*
X13142539Y-24095185D01*
X13154347Y-24108813D01*
X13169487Y-24118615D01*
X13176754Y-24134671D01*
X13188294Y-24147989D01*
X13193395Y-24171437D01*
X13198297Y-24182268D01*
X13197269Y-24189246D01*
X13199500Y-24199500D01*
X13199500Y-24231018D01*
X13221665Y-24313737D01*
X13228497Y-24339236D01*
X13228498Y-24339239D01*
X13231238Y-24343984D01*
X13284515Y-24436263D01*
X13363737Y-24515485D01*
X13460763Y-24571503D01*
X13568982Y-24600500D01*
X13568984Y-24600500D01*
X13681016Y-24600500D01*
X13681018Y-24600500D01*
X13789237Y-24571503D01*
X13817571Y-24555144D01*
X13885468Y-24538671D01*
X13951495Y-24561522D01*
X13994687Y-24616442D01*
X13999345Y-24630438D01*
X13999500Y-24631015D01*
X13999500Y-24631018D01*
X14026905Y-24733295D01*
X14028497Y-24739236D01*
X14028498Y-24739239D01*
X14046632Y-24770647D01*
X14084515Y-24836263D01*
X14163737Y-24915485D01*
X14260763Y-24971503D01*
X14368982Y-25000500D01*
X14368984Y-25000500D01*
X14481016Y-25000500D01*
X14481018Y-25000500D01*
X14589237Y-24971503D01*
X14686263Y-24915485D01*
X14765485Y-24836263D01*
X14813801Y-24752577D01*
X15750975Y-24752577D01*
X15856236Y-24796178D01*
X15856240Y-24796179D01*
X16001126Y-24824999D01*
X16001129Y-24825000D01*
X16148871Y-24825000D01*
X16148873Y-24824999D01*
X16293760Y-24796179D01*
X16293775Y-24796175D01*
X16377546Y-24761475D01*
X16447015Y-24754005D01*
X16472454Y-24761475D01*
X16556224Y-24796175D01*
X16556239Y-24796179D01*
X16701126Y-24824999D01*
X16701129Y-24825000D01*
X16848871Y-24825000D01*
X16848873Y-24824999D01*
X16993760Y-24796179D01*
X16993775Y-24796175D01*
X17077546Y-24761475D01*
X17147015Y-24754005D01*
X17172454Y-24761475D01*
X17256224Y-24796175D01*
X17256239Y-24796179D01*
X17401126Y-24824999D01*
X17401129Y-24825000D01*
X17548871Y-24825000D01*
X17548873Y-24824999D01*
X17693759Y-24796179D01*
X17693767Y-24796177D01*
X17827547Y-24740764D01*
X17897016Y-24733295D01*
X17922453Y-24740764D01*
X18056232Y-24796177D01*
X18056240Y-24796179D01*
X18201126Y-24824999D01*
X18201129Y-24825000D01*
X18348871Y-24825000D01*
X18348873Y-24824999D01*
X18493760Y-24796179D01*
X18493775Y-24796175D01*
X18599024Y-24752578D01*
X18599024Y-24752577D01*
X18565429Y-24718982D01*
X19649500Y-24718982D01*
X19649500Y-24831018D01*
X19678497Y-24939237D01*
X19734515Y-25036263D01*
X19813737Y-25115485D01*
X19910763Y-25171503D01*
X20018982Y-25200500D01*
X20018984Y-25200500D01*
X20131016Y-25200500D01*
X20131018Y-25200500D01*
X20239237Y-25171503D01*
X20336263Y-25115485D01*
X20407766Y-25043982D01*
X22424500Y-25043982D01*
X22424500Y-25156018D01*
X22452764Y-25261499D01*
X22453497Y-25264236D01*
X22453498Y-25264239D01*
X22464617Y-25283497D01*
X22509515Y-25361263D01*
X22588737Y-25440485D01*
X22614141Y-25455152D01*
X22616228Y-25456357D01*
X22664444Y-25506924D01*
X22677666Y-25575531D01*
X22674937Y-25590657D01*
X22674500Y-25593980D01*
X22674500Y-25593982D01*
X22674500Y-25706018D01*
X22703497Y-25814237D01*
X22759515Y-25911263D01*
X22838737Y-25990485D01*
X22935763Y-26046503D01*
X23043982Y-26075500D01*
X23043984Y-26075500D01*
X23067891Y-26075500D01*
X23134930Y-26095185D01*
X23180685Y-26147989D01*
X23190629Y-26217147D01*
X23161604Y-26280703D01*
X23129891Y-26306887D01*
X23038740Y-26359513D01*
X23038734Y-26359517D01*
X22959517Y-26438734D01*
X22959513Y-26438740D01*
X22903498Y-26535760D01*
X22903497Y-26535763D01*
X22874500Y-26643982D01*
X22874500Y-26756018D01*
X22903497Y-26864237D01*
X22959515Y-26961263D01*
X23038737Y-27040485D01*
X23135763Y-27096503D01*
X23243982Y-27125500D01*
X23243984Y-27125500D01*
X23356016Y-27125500D01*
X23356018Y-27125500D01*
X23464237Y-27096503D01*
X23561263Y-27040485D01*
X23640485Y-26961263D01*
X23696503Y-26864237D01*
X23725500Y-26756018D01*
X23725500Y-26743982D01*
X26774500Y-26743982D01*
X26774500Y-26856018D01*
X26803497Y-26964237D01*
X26859515Y-27061263D01*
X26938737Y-27140485D01*
X27035763Y-27196503D01*
X27143982Y-27225500D01*
X27143984Y-27225500D01*
X27256016Y-27225500D01*
X27256018Y-27225500D01*
X27364237Y-27196503D01*
X27461263Y-27140485D01*
X27540485Y-27061263D01*
X27596503Y-26964237D01*
X27625500Y-26856018D01*
X27625500Y-26776610D01*
X27645185Y-26709571D01*
X27697989Y-26663816D01*
X27767147Y-26653872D01*
X27830703Y-26682897D01*
X27837181Y-26688929D01*
X27888737Y-26740485D01*
X27985763Y-26796503D01*
X28093982Y-26825500D01*
X28093984Y-26825500D01*
X28206016Y-26825500D01*
X28206018Y-26825500D01*
X28314237Y-26796503D01*
X28411263Y-26740485D01*
X28490485Y-26661263D01*
X28546503Y-26564237D01*
X28575500Y-26456018D01*
X28575500Y-26343982D01*
X28546503Y-26235763D01*
X28490485Y-26138737D01*
X28411263Y-26059515D01*
X28327688Y-26011263D01*
X28314239Y-26003498D01*
X28314238Y-26003497D01*
X28314237Y-26003497D01*
X28206018Y-25974500D01*
X28093982Y-25974500D01*
X27985763Y-26003497D01*
X27985760Y-26003498D01*
X27888740Y-26059513D01*
X27888734Y-26059517D01*
X27809517Y-26138734D01*
X27809513Y-26138740D01*
X27753498Y-26235760D01*
X27753497Y-26235763D01*
X27724500Y-26343982D01*
X27724500Y-26423390D01*
X27704815Y-26490429D01*
X27652011Y-26536184D01*
X27582853Y-26546128D01*
X27519297Y-26517103D01*
X27512819Y-26511071D01*
X27461265Y-26459517D01*
X27461263Y-26459515D01*
X27382839Y-26414237D01*
X27364239Y-26403498D01*
X27364238Y-26403497D01*
X27364237Y-26403497D01*
X27256018Y-26374500D01*
X27143982Y-26374500D01*
X27035763Y-26403497D01*
X27035760Y-26403498D01*
X26938740Y-26459513D01*
X26938734Y-26459517D01*
X26859517Y-26538734D01*
X26859513Y-26538740D01*
X26803498Y-26635760D01*
X26803497Y-26635763D01*
X26774500Y-26743982D01*
X23725500Y-26743982D01*
X23725500Y-26643982D01*
X23696503Y-26535763D01*
X23640485Y-26438737D01*
X23561263Y-26359515D01*
X23470109Y-26306887D01*
X23464239Y-26303498D01*
X23464238Y-26303497D01*
X23464237Y-26303497D01*
X23356018Y-26274500D01*
X23332109Y-26274500D01*
X23265070Y-26254815D01*
X23219315Y-26202011D01*
X23209371Y-26132853D01*
X23238396Y-26069297D01*
X23270109Y-26043113D01*
X23291058Y-26031018D01*
X23361263Y-25990485D01*
X23440485Y-25911263D01*
X23496503Y-25814237D01*
X23525500Y-25706018D01*
X23525500Y-25628557D01*
X23545185Y-25561518D01*
X23597989Y-25515763D01*
X23667147Y-25505819D01*
X23681573Y-25508777D01*
X23743982Y-25525500D01*
X23743985Y-25525500D01*
X23856016Y-25525500D01*
X23856018Y-25525500D01*
X23964237Y-25496503D01*
X24061263Y-25440485D01*
X24140485Y-25361263D01*
X24196503Y-25264237D01*
X24225500Y-25156018D01*
X24225500Y-25043982D01*
X24221501Y-25029058D01*
X24471780Y-25029058D01*
X24471780Y-25141094D01*
X24494626Y-25226358D01*
X24500777Y-25249312D01*
X24500778Y-25249315D01*
X24519081Y-25281016D01*
X24556795Y-25346339D01*
X24636017Y-25425561D01*
X24733043Y-25481579D01*
X24841262Y-25510576D01*
X24841264Y-25510576D01*
X24953296Y-25510576D01*
X24953298Y-25510576D01*
X25061517Y-25481579D01*
X25158543Y-25425561D01*
X25184599Y-25399505D01*
X25245922Y-25366020D01*
X25315614Y-25371004D01*
X25359961Y-25399505D01*
X25386017Y-25425561D01*
X25483043Y-25481579D01*
X25591262Y-25510576D01*
X25591264Y-25510576D01*
X25703296Y-25510576D01*
X25703298Y-25510576D01*
X25748407Y-25498489D01*
X25818255Y-25500150D01*
X25876118Y-25539312D01*
X25903623Y-25603540D01*
X25904500Y-25618263D01*
X25904500Y-25623982D01*
X25904500Y-25736018D01*
X25931227Y-25835763D01*
X25933497Y-25844236D01*
X25933498Y-25844239D01*
X25943325Y-25861259D01*
X25989515Y-25941263D01*
X26068737Y-26020485D01*
X26165763Y-26076503D01*
X26273982Y-26105500D01*
X26273984Y-26105500D01*
X26386016Y-26105500D01*
X26386018Y-26105500D01*
X26494237Y-26076503D01*
X26591263Y-26020485D01*
X26670485Y-25941263D01*
X26726503Y-25844237D01*
X26755500Y-25736018D01*
X26755500Y-25649467D01*
X26775185Y-25582428D01*
X26827989Y-25536673D01*
X26897147Y-25526729D01*
X26941499Y-25542079D01*
X27035763Y-25596503D01*
X27143982Y-25625500D01*
X27143984Y-25625500D01*
X27256016Y-25625500D01*
X27256018Y-25625500D01*
X27364237Y-25596503D01*
X27461263Y-25540485D01*
X27540485Y-25461263D01*
X27596503Y-25364237D01*
X27625500Y-25256018D01*
X27625500Y-25143982D01*
X27596503Y-25035763D01*
X27540485Y-24938737D01*
X27461263Y-24859515D01*
X27382839Y-24814237D01*
X27364239Y-24803498D01*
X27364238Y-24803497D01*
X27364237Y-24803497D01*
X27256018Y-24774500D01*
X27143982Y-24774500D01*
X27135855Y-24774500D01*
X27135855Y-24772867D01*
X27076216Y-24763568D01*
X27023960Y-24717189D01*
X27009291Y-24683490D01*
X26996503Y-24635763D01*
X26940485Y-24538737D01*
X26861263Y-24459515D01*
X26782839Y-24414237D01*
X26764239Y-24403498D01*
X26764238Y-24403497D01*
X26764237Y-24403497D01*
X26656018Y-24374500D01*
X26543982Y-24374500D01*
X26435763Y-24403497D01*
X26435760Y-24403498D01*
X26338740Y-24459513D01*
X26338734Y-24459517D01*
X26259517Y-24538734D01*
X26259513Y-24538740D01*
X26203498Y-24635760D01*
X26203497Y-24635763D01*
X26175363Y-24740764D01*
X26173756Y-24746760D01*
X26137391Y-24806421D01*
X26074544Y-24836950D01*
X26005169Y-24828655D01*
X25966300Y-24802348D01*
X25908545Y-24744593D01*
X25908543Y-24744591D01*
X25835383Y-24702352D01*
X25811519Y-24688574D01*
X25811518Y-24688573D01*
X25811517Y-24688573D01*
X25703298Y-24659576D01*
X25591262Y-24659576D01*
X25483043Y-24688573D01*
X25483040Y-24688574D01*
X25386020Y-24744589D01*
X25386014Y-24744593D01*
X25359961Y-24770647D01*
X25298638Y-24804132D01*
X25228946Y-24799148D01*
X25184599Y-24770647D01*
X25158545Y-24744593D01*
X25158543Y-24744591D01*
X25085383Y-24702352D01*
X25061519Y-24688574D01*
X25061518Y-24688573D01*
X25061517Y-24688573D01*
X24953298Y-24659576D01*
X24841262Y-24659576D01*
X24733043Y-24688573D01*
X24733040Y-24688574D01*
X24636020Y-24744589D01*
X24636014Y-24744593D01*
X24556797Y-24823810D01*
X24556793Y-24823816D01*
X24500778Y-24920836D01*
X24500777Y-24920839D01*
X24482116Y-24990485D01*
X24471780Y-25029058D01*
X24221501Y-25029058D01*
X24196503Y-24935763D01*
X24140485Y-24838737D01*
X24061263Y-24759515D01*
X23974051Y-24709163D01*
X23964239Y-24703498D01*
X23964238Y-24703497D01*
X23964237Y-24703497D01*
X23959962Y-24702351D01*
X23956764Y-24700402D01*
X23956730Y-24700388D01*
X23956732Y-24700382D01*
X23900304Y-24665985D01*
X23869777Y-24603137D01*
X23878074Y-24533761D01*
X23886946Y-24518605D01*
X23886421Y-24518302D01*
X23905209Y-24485760D01*
X23946503Y-24414237D01*
X23975500Y-24306018D01*
X23975500Y-24193982D01*
X23946503Y-24085763D01*
X23943546Y-24080642D01*
X23903748Y-24011710D01*
X23890485Y-23988737D01*
X23845730Y-23943982D01*
X28524500Y-23943982D01*
X28524500Y-24056018D01*
X28552102Y-24159028D01*
X28553497Y-24164236D01*
X28553498Y-24164239D01*
X28557654Y-24171437D01*
X28609515Y-24261263D01*
X28688737Y-24340485D01*
X28785763Y-24396503D01*
X28893982Y-24425500D01*
X28893984Y-24425500D01*
X29006016Y-24425500D01*
X29006018Y-24425500D01*
X29114237Y-24396503D01*
X29211263Y-24340485D01*
X29290485Y-24261263D01*
X29342613Y-24170973D01*
X29393180Y-24122759D01*
X29461787Y-24109535D01*
X29526651Y-24135503D01*
X29557385Y-24170972D01*
X29609515Y-24261263D01*
X29688737Y-24340485D01*
X29785763Y-24396503D01*
X29893982Y-24425500D01*
X29893984Y-24425500D01*
X30006016Y-24425500D01*
X30006018Y-24425500D01*
X30114237Y-24396503D01*
X30211263Y-24340485D01*
X30290485Y-24261263D01*
X30346503Y-24164237D01*
X30349821Y-24151851D01*
X30386182Y-24092192D01*
X30449027Y-24061660D01*
X30481472Y-24060512D01*
X30491728Y-24061498D01*
X30543982Y-24075500D01*
X30637241Y-24075500D01*
X30643165Y-24076070D01*
X30670290Y-24086952D01*
X30698328Y-24095185D01*
X30702333Y-24099807D01*
X30708011Y-24102085D01*
X30724948Y-24125906D01*
X30744083Y-24147989D01*
X30744953Y-24154042D01*
X30748498Y-24159028D01*
X30749867Y-24188217D01*
X30754027Y-24217147D01*
X30751485Y-24222712D01*
X30751772Y-24228821D01*
X30737143Y-24254116D01*
X30725002Y-24280703D01*
X30718813Y-24285812D01*
X30716794Y-24289305D01*
X30710926Y-24292324D01*
X30693289Y-24306887D01*
X30688740Y-24309513D01*
X30688734Y-24309517D01*
X30609517Y-24388734D01*
X30609513Y-24388740D01*
X30553498Y-24485760D01*
X30553497Y-24485763D01*
X30524500Y-24593982D01*
X30524500Y-24706017D01*
X30524914Y-24709163D01*
X30524500Y-24711817D01*
X30524500Y-24714145D01*
X30524137Y-24714145D01*
X30514146Y-24778198D01*
X30467764Y-24830452D01*
X30400494Y-24849335D01*
X30339975Y-24832732D01*
X30332640Y-24828497D01*
X30279443Y-24814243D01*
X30224421Y-24799500D01*
X30112385Y-24799500D01*
X30004166Y-24828497D01*
X30004163Y-24828498D01*
X29907143Y-24884513D01*
X29907137Y-24884517D01*
X29827920Y-24963734D01*
X29827916Y-24963740D01*
X29771901Y-25060760D01*
X29771900Y-25060763D01*
X29742903Y-25168982D01*
X29742903Y-25281018D01*
X29765202Y-25364237D01*
X29771900Y-25389236D01*
X29771901Y-25389239D01*
X29783609Y-25409517D01*
X29827918Y-25486263D01*
X29827920Y-25486265D01*
X29853974Y-25512319D01*
X29887459Y-25573642D01*
X29882475Y-25643334D01*
X29853974Y-25687681D01*
X29827920Y-25713734D01*
X29827916Y-25713740D01*
X29771901Y-25810760D01*
X29771900Y-25810763D01*
X29742903Y-25918982D01*
X29742903Y-26031018D01*
X29771900Y-26139237D01*
X29827918Y-26236263D01*
X29907140Y-26315485D01*
X30004166Y-26371503D01*
X30112385Y-26400500D01*
X30112387Y-26400500D01*
X30224419Y-26400500D01*
X30224421Y-26400500D01*
X30332640Y-26371503D01*
X30429666Y-26315485D01*
X30508888Y-26236263D01*
X30564906Y-26139237D01*
X30593903Y-26031018D01*
X30593903Y-25918982D01*
X30564906Y-25810763D01*
X30508888Y-25713737D01*
X30482832Y-25687681D01*
X30449347Y-25626358D01*
X30454331Y-25556666D01*
X30482832Y-25512319D01*
X30495001Y-25500150D01*
X30508888Y-25486263D01*
X30564906Y-25389237D01*
X30593903Y-25281018D01*
X30593903Y-25168982D01*
X30593490Y-25165846D01*
X30593903Y-25163196D01*
X30593903Y-25160855D01*
X30594268Y-25160855D01*
X30604252Y-25096810D01*
X30650630Y-25044552D01*
X30717898Y-25025664D01*
X30747332Y-25029568D01*
X30763747Y-25033792D01*
X30785763Y-25046503D01*
X30893982Y-25075500D01*
X30925817Y-25075500D01*
X30941022Y-25079413D01*
X30958092Y-25089586D01*
X30977157Y-25095185D01*
X30987486Y-25107106D01*
X31001040Y-25115184D01*
X31009900Y-25132972D01*
X31022912Y-25147989D01*
X31025157Y-25163603D01*
X31032191Y-25177725D01*
X31030027Y-25197477D01*
X31032856Y-25217147D01*
X31025567Y-25238203D01*
X31024585Y-25247179D01*
X31020873Y-25251765D01*
X31017505Y-25261499D01*
X31003500Y-25285756D01*
X31003497Y-25285763D01*
X30974500Y-25393982D01*
X30974500Y-25506018D01*
X31000620Y-25603497D01*
X31003497Y-25614236D01*
X31003498Y-25614239D01*
X31020296Y-25643334D01*
X31059515Y-25711263D01*
X31059517Y-25711265D01*
X31063328Y-25715076D01*
X31096813Y-25776399D01*
X31091829Y-25846091D01*
X31049957Y-25902024D01*
X31039576Y-25908871D01*
X31038734Y-25909517D01*
X30959517Y-25988734D01*
X30959513Y-25988740D01*
X30903498Y-26085760D01*
X30903497Y-26085763D01*
X30874500Y-26193982D01*
X30874500Y-26306018D01*
X30903497Y-26414237D01*
X30959515Y-26511263D01*
X31038737Y-26590485D01*
X31132743Y-26644759D01*
X31180958Y-26695326D01*
X31194182Y-26763933D01*
X31168214Y-26828797D01*
X31160297Y-26837717D01*
X31159513Y-26838740D01*
X31103498Y-26935760D01*
X31103497Y-26935763D01*
X31074500Y-27043982D01*
X31074500Y-27156018D01*
X31103497Y-27264237D01*
X31159515Y-27361263D01*
X31238737Y-27440485D01*
X31335763Y-27496503D01*
X31443982Y-27525500D01*
X31443984Y-27525500D01*
X31556016Y-27525500D01*
X31556018Y-27525500D01*
X31664237Y-27496503D01*
X31761263Y-27440485D01*
X31840485Y-27361263D01*
X31896503Y-27264237D01*
X31925500Y-27156018D01*
X31925500Y-27043982D01*
X31896503Y-26935763D01*
X31840485Y-26838737D01*
X31761263Y-26759515D01*
X31734359Y-26743982D01*
X34274500Y-26743982D01*
X34274500Y-26856018D01*
X34303497Y-26964237D01*
X34359515Y-27061263D01*
X34438737Y-27140485D01*
X34535763Y-27196503D01*
X34643982Y-27225500D01*
X34643984Y-27225500D01*
X34756016Y-27225500D01*
X34756018Y-27225500D01*
X34864237Y-27196503D01*
X34961263Y-27140485D01*
X35040485Y-27061263D01*
X35096503Y-26964237D01*
X35125500Y-26856018D01*
X35125500Y-26743982D01*
X35096503Y-26635763D01*
X35040485Y-26538737D01*
X34961263Y-26459515D01*
X34882839Y-26414237D01*
X34864239Y-26403498D01*
X34864238Y-26403497D01*
X34864237Y-26403497D01*
X34756018Y-26374500D01*
X34643982Y-26374500D01*
X34535763Y-26403497D01*
X34535760Y-26403498D01*
X34438740Y-26459513D01*
X34438734Y-26459517D01*
X34359517Y-26538734D01*
X34359513Y-26538740D01*
X34303498Y-26635760D01*
X34303497Y-26635763D01*
X34274500Y-26743982D01*
X31734359Y-26743982D01*
X31664237Y-26703497D01*
X31662989Y-26703162D01*
X31654780Y-26696996D01*
X31638188Y-26674754D01*
X31619040Y-26654673D01*
X31617588Y-26647140D01*
X31613002Y-26640993D01*
X31611068Y-26613315D01*
X31605817Y-26586066D01*
X31608668Y-26578943D01*
X31608134Y-26571293D01*
X31621470Y-26546965D01*
X31631785Y-26521201D01*
X31639704Y-26512279D01*
X31640477Y-26511270D01*
X31640485Y-26511263D01*
X31677270Y-26447548D01*
X31727835Y-26399335D01*
X31796442Y-26386111D01*
X31832110Y-26394989D01*
X31835755Y-26396498D01*
X31835763Y-26396503D01*
X31943982Y-26425500D01*
X31943984Y-26425500D01*
X32056016Y-26425500D01*
X32056018Y-26425500D01*
X32164237Y-26396503D01*
X32261263Y-26340485D01*
X32340485Y-26261263D01*
X32396503Y-26164237D01*
X32425500Y-26056018D01*
X32425500Y-25976610D01*
X32445185Y-25909571D01*
X32497989Y-25863816D01*
X32567147Y-25853872D01*
X32630703Y-25882897D01*
X32637181Y-25888929D01*
X32688737Y-25940485D01*
X32785763Y-25996503D01*
X32893982Y-26025500D01*
X32893984Y-26025500D01*
X33006016Y-26025500D01*
X33006018Y-26025500D01*
X33114237Y-25996503D01*
X33211263Y-25940485D01*
X33262319Y-25889429D01*
X33323642Y-25855944D01*
X33393334Y-25860928D01*
X33437681Y-25889429D01*
X33488737Y-25940485D01*
X33585763Y-25996503D01*
X33693982Y-26025500D01*
X33693984Y-26025500D01*
X33806016Y-26025500D01*
X33806018Y-26025500D01*
X33914237Y-25996503D01*
X34011263Y-25940485D01*
X34090485Y-25861263D01*
X34146503Y-25764237D01*
X34175500Y-25656018D01*
X34175500Y-25543982D01*
X34146503Y-25435763D01*
X34090485Y-25338737D01*
X34011263Y-25259515D01*
X33946579Y-25222169D01*
X33914239Y-25203498D01*
X33914238Y-25203497D01*
X33914237Y-25203497D01*
X33806018Y-25174500D01*
X33693982Y-25174500D01*
X33585763Y-25203497D01*
X33585760Y-25203498D01*
X33488740Y-25259513D01*
X33488734Y-25259517D01*
X33437681Y-25310571D01*
X33429735Y-25314909D01*
X33424310Y-25322157D01*
X33399550Y-25331391D01*
X33376358Y-25344056D01*
X33367328Y-25343410D01*
X33358846Y-25346574D01*
X33333025Y-25340957D01*
X33306666Y-25339072D01*
X33297612Y-25333253D01*
X33290573Y-25331722D01*
X33262319Y-25310571D01*
X33239429Y-25287681D01*
X33205944Y-25226358D01*
X33210928Y-25156666D01*
X33239429Y-25112319D01*
X33262162Y-25089586D01*
X33290485Y-25061263D01*
X33346503Y-24964237D01*
X33375500Y-24856018D01*
X33375500Y-24743982D01*
X33346503Y-24635763D01*
X33290485Y-24538737D01*
X33211263Y-24459515D01*
X33132839Y-24414237D01*
X33114239Y-24403498D01*
X33114238Y-24403497D01*
X33114237Y-24403497D01*
X33006018Y-24374500D01*
X32893982Y-24374500D01*
X32785763Y-24403497D01*
X32785760Y-24403498D01*
X32688740Y-24459513D01*
X32688734Y-24459517D01*
X32609517Y-24538734D01*
X32609513Y-24538740D01*
X32553498Y-24635760D01*
X32553497Y-24635763D01*
X32524500Y-24743982D01*
X32524500Y-24856018D01*
X32553497Y-24964237D01*
X32609515Y-25061263D01*
X32609517Y-25061265D01*
X32660571Y-25112319D01*
X32694056Y-25173642D01*
X32689072Y-25243334D01*
X32660571Y-25287681D01*
X32609517Y-25338734D01*
X32609513Y-25338740D01*
X32553498Y-25435760D01*
X32553497Y-25435763D01*
X32524500Y-25543982D01*
X32524500Y-25623390D01*
X32504815Y-25690429D01*
X32452011Y-25736184D01*
X32382853Y-25746128D01*
X32319297Y-25717103D01*
X32312819Y-25711071D01*
X32261265Y-25659517D01*
X32261263Y-25659515D01*
X32196579Y-25622169D01*
X32164239Y-25603498D01*
X32164238Y-25603497D01*
X32164237Y-25603497D01*
X32056018Y-25574500D01*
X31949500Y-25574500D01*
X31882461Y-25554815D01*
X31836706Y-25502011D01*
X31825500Y-25450500D01*
X31825500Y-25393984D01*
X31825500Y-25393982D01*
X31796503Y-25285763D01*
X31740485Y-25188737D01*
X31661263Y-25109515D01*
X31564237Y-25053497D01*
X31456018Y-25024500D01*
X31439882Y-25024500D01*
X31372843Y-25004815D01*
X31327088Y-24952011D01*
X31317144Y-24882853D01*
X31332495Y-24838501D01*
X31341005Y-24823759D01*
X31346503Y-24814237D01*
X31375500Y-24706018D01*
X31375500Y-24593982D01*
X31346503Y-24485763D01*
X31290485Y-24388737D01*
X31211263Y-24309515D01*
X31114237Y-24253497D01*
X31006018Y-24224500D01*
X30918711Y-24224500D01*
X30851672Y-24204815D01*
X30805917Y-24152011D01*
X30795973Y-24082853D01*
X30824998Y-24019297D01*
X30856711Y-23993113D01*
X30861263Y-23990485D01*
X30940485Y-23911263D01*
X30996503Y-23814237D01*
X31025500Y-23706018D01*
X31025500Y-23593982D01*
X30996503Y-23485763D01*
X30940485Y-23388737D01*
X30861263Y-23309515D01*
X30774664Y-23259517D01*
X30764239Y-23253498D01*
X30764238Y-23253497D01*
X30764237Y-23253497D01*
X30656018Y-23224500D01*
X30543982Y-23224500D01*
X30435763Y-23253497D01*
X30435760Y-23253498D01*
X30338740Y-23309513D01*
X30338734Y-23309517D01*
X30259517Y-23388734D01*
X30259513Y-23388740D01*
X30203498Y-23485760D01*
X30203495Y-23485767D01*
X30200177Y-23498152D01*
X30163812Y-23557812D01*
X30100965Y-23588340D01*
X30048311Y-23585832D01*
X30006019Y-23574500D01*
X30006018Y-23574500D01*
X29893982Y-23574500D01*
X29785763Y-23603497D01*
X29785760Y-23603498D01*
X29688740Y-23659513D01*
X29688734Y-23659517D01*
X29609517Y-23738734D01*
X29609513Y-23738740D01*
X29557387Y-23829025D01*
X29506820Y-23877241D01*
X29438213Y-23890463D01*
X29373348Y-23864495D01*
X29342613Y-23829025D01*
X29332006Y-23810654D01*
X29290485Y-23738737D01*
X29211263Y-23659515D01*
X29114237Y-23603497D01*
X29006018Y-23574500D01*
X28893982Y-23574500D01*
X28785763Y-23603497D01*
X28785760Y-23603498D01*
X28688740Y-23659513D01*
X28688734Y-23659517D01*
X28609517Y-23738734D01*
X28609513Y-23738740D01*
X28553498Y-23835760D01*
X28553497Y-23835763D01*
X28524500Y-23943982D01*
X23845730Y-23943982D01*
X23844741Y-23942993D01*
X23841991Y-23939844D01*
X23829036Y-23911765D01*
X23814223Y-23884637D01*
X23814531Y-23880326D01*
X23812720Y-23876401D01*
X23817001Y-23845779D01*
X23819207Y-23814945D01*
X23822202Y-23808588D01*
X23822396Y-23807204D01*
X23823410Y-23806023D01*
X23827998Y-23796287D01*
X23846503Y-23764237D01*
X23875500Y-23656018D01*
X23875500Y-23543982D01*
X23846503Y-23435763D01*
X23790485Y-23338737D01*
X23711263Y-23259515D01*
X23632839Y-23214237D01*
X23614239Y-23203498D01*
X23614238Y-23203497D01*
X23614237Y-23203497D01*
X23506018Y-23174500D01*
X23393982Y-23174500D01*
X23285763Y-23203497D01*
X23285760Y-23203498D01*
X23188740Y-23259513D01*
X23188734Y-23259517D01*
X23109517Y-23338734D01*
X23109513Y-23338740D01*
X23053498Y-23435760D01*
X23053497Y-23435763D01*
X23024500Y-23543982D01*
X23024500Y-23656018D01*
X23049549Y-23749500D01*
X23053497Y-23764236D01*
X23053498Y-23764239D01*
X23058241Y-23772454D01*
X23109515Y-23861263D01*
X23109517Y-23861265D01*
X23152290Y-23904038D01*
X23185775Y-23965361D01*
X23180791Y-24035053D01*
X23171998Y-24053716D01*
X23155177Y-24082853D01*
X23153497Y-24085763D01*
X23124500Y-24193982D01*
X23124500Y-24306018D01*
X23152566Y-24410760D01*
X23153497Y-24414236D01*
X23153498Y-24414239D01*
X23165206Y-24434517D01*
X23209515Y-24511263D01*
X23209517Y-24511265D01*
X23265096Y-24566844D01*
X23298581Y-24628167D01*
X23293597Y-24697859D01*
X23251725Y-24753792D01*
X23186261Y-24778209D01*
X23117988Y-24763357D01*
X23115415Y-24761912D01*
X23014239Y-24703498D01*
X23014238Y-24703497D01*
X23014237Y-24703497D01*
X22906018Y-24674500D01*
X22793982Y-24674500D01*
X22685763Y-24703497D01*
X22685760Y-24703498D01*
X22588740Y-24759513D01*
X22588734Y-24759517D01*
X22509517Y-24838734D01*
X22509513Y-24838740D01*
X22453498Y-24935760D01*
X22453497Y-24935763D01*
X22424500Y-25043982D01*
X20407766Y-25043982D01*
X20415485Y-25036263D01*
X20471503Y-24939237D01*
X20500500Y-24831018D01*
X20500500Y-24718982D01*
X20471503Y-24610763D01*
X20415485Y-24513737D01*
X20336263Y-24434515D01*
X20270421Y-24396501D01*
X20239239Y-24378498D01*
X20239238Y-24378497D01*
X20239237Y-24378497D01*
X20131018Y-24349500D01*
X20018982Y-24349500D01*
X19910763Y-24378497D01*
X19910760Y-24378498D01*
X19813740Y-24434513D01*
X19813734Y-24434517D01*
X19734517Y-24513734D01*
X19734513Y-24513740D01*
X19678498Y-24610760D01*
X19678497Y-24610763D01*
X19649500Y-24718982D01*
X18565429Y-24718982D01*
X18098223Y-24251777D01*
X17970477Y-24124031D01*
X17946049Y-24124031D01*
X17943326Y-24124422D01*
X17940950Y-24125720D01*
X17914592Y-24128554D01*
X17835408Y-24128554D01*
X17820005Y-24124031D01*
X17779523Y-24124031D01*
X17739458Y-24164096D01*
X17678135Y-24197581D01*
X17608443Y-24192597D01*
X17564096Y-24164096D01*
X17545710Y-24145710D01*
X17559776Y-24131645D01*
X17575000Y-24094891D01*
X17575000Y-24055109D01*
X18175000Y-24055109D01*
X18175000Y-24094891D01*
X18190224Y-24131645D01*
X18218355Y-24159776D01*
X18255109Y-24175000D01*
X18294891Y-24175000D01*
X18331645Y-24159776D01*
X18359776Y-24131645D01*
X18375000Y-24094891D01*
X18375000Y-24055109D01*
X18359776Y-24018355D01*
X18331645Y-23990224D01*
X18294891Y-23975000D01*
X18255109Y-23975000D01*
X18218355Y-23990224D01*
X18190224Y-24018355D01*
X18175000Y-24055109D01*
X17575000Y-24055109D01*
X17559776Y-24018355D01*
X17531645Y-23990224D01*
X17494891Y-23975000D01*
X17455109Y-23975000D01*
X17418355Y-23990224D01*
X17390224Y-24018355D01*
X17375000Y-24055109D01*
X17375000Y-24094891D01*
X17390224Y-24131645D01*
X17404289Y-24145710D01*
X17385904Y-24164096D01*
X17324581Y-24197581D01*
X17254889Y-24192597D01*
X17210542Y-24164096D01*
X17125000Y-24078554D01*
X17039458Y-24164096D01*
X16978135Y-24197581D01*
X16908443Y-24192597D01*
X16864096Y-24164096D01*
X16845710Y-24145710D01*
X16859776Y-24131645D01*
X16875000Y-24094891D01*
X16875000Y-24055109D01*
X16859776Y-24018355D01*
X16831645Y-23990224D01*
X16794891Y-23975000D01*
X16755109Y-23975000D01*
X16718355Y-23990224D01*
X16690224Y-24018355D01*
X16675000Y-24055109D01*
X16675000Y-24094891D01*
X16690224Y-24131645D01*
X16704289Y-24145710D01*
X16685904Y-24164096D01*
X16624581Y-24197581D01*
X16554889Y-24192597D01*
X16510542Y-24164096D01*
X16425000Y-24078554D01*
X16251777Y-24251777D01*
X15750975Y-24752577D01*
X14813801Y-24752577D01*
X14821503Y-24739237D01*
X14850500Y-24631018D01*
X14850500Y-24518982D01*
X14821503Y-24410763D01*
X14765485Y-24313737D01*
X14686263Y-24234515D01*
X14589237Y-24178497D01*
X14481018Y-24149500D01*
X14368982Y-24149500D01*
X14260763Y-24178497D01*
X14260762Y-24178497D01*
X14232428Y-24194856D01*
X14164527Y-24211327D01*
X14098501Y-24188474D01*
X14055311Y-24133553D01*
X14050654Y-24119561D01*
X14050500Y-24118986D01*
X14050500Y-24118982D01*
X14021503Y-24010763D01*
X13965485Y-23913737D01*
X13886263Y-23834515D01*
X13789237Y-23778497D01*
X13789235Y-23778496D01*
X13781680Y-23776472D01*
X13722020Y-23740105D01*
X13691493Y-23677257D01*
X13699790Y-23607882D01*
X13744277Y-23554005D01*
X13781680Y-23536925D01*
X13839237Y-23521503D01*
X13936263Y-23465485D01*
X14015485Y-23386263D01*
X14071503Y-23289237D01*
X14100500Y-23181018D01*
X14100500Y-23068982D01*
X14071503Y-22960763D01*
X14015485Y-22863737D01*
X13936263Y-22784515D01*
X13867102Y-22744585D01*
X13839239Y-22728498D01*
X13839238Y-22728497D01*
X13814766Y-22721940D01*
X13792405Y-22715948D01*
X13769255Y-22701837D01*
X13744456Y-22690878D01*
X13739863Y-22683921D01*
X13732746Y-22679583D01*
X13720900Y-22655198D01*
X13705961Y-22632569D01*
X13704196Y-22620811D01*
X13702217Y-22616736D01*
X13700509Y-22597698D01*
X13700500Y-22596965D01*
X13700500Y-22493982D01*
X13699172Y-22489029D01*
X13699013Y-22476023D01*
X13706534Y-22449190D01*
X13710826Y-22421658D01*
X13715835Y-22416013D01*
X13717872Y-22408747D01*
X13738707Y-22390239D01*
X13757202Y-22369399D01*
X13760951Y-22367143D01*
X13834803Y-22324505D01*
X13914025Y-22245283D01*
X13970043Y-22148257D01*
X13999040Y-22040038D01*
X13999040Y-21928002D01*
X13970043Y-21819783D01*
X13959271Y-21801126D01*
X15325000Y-21801126D01*
X15325000Y-21948873D01*
X15353820Y-22093759D01*
X15353822Y-22093767D01*
X15388525Y-22177547D01*
X15395994Y-22247017D01*
X15388525Y-22272453D01*
X15353822Y-22356232D01*
X15353820Y-22356240D01*
X15325000Y-22501126D01*
X15325000Y-22648873D01*
X15353820Y-22793759D01*
X15353823Y-22793771D01*
X15409235Y-22927548D01*
X15416704Y-22997017D01*
X15409235Y-23022452D01*
X15353823Y-23156228D01*
X15353820Y-23156240D01*
X15325000Y-23301126D01*
X15325000Y-23448873D01*
X15353820Y-23593759D01*
X15353822Y-23593767D01*
X15388525Y-23677547D01*
X15395994Y-23747017D01*
X15388525Y-23772453D01*
X15353822Y-23856232D01*
X15353820Y-23856240D01*
X15325000Y-24001126D01*
X15325000Y-24148873D01*
X15353820Y-24293759D01*
X15353822Y-24293767D01*
X15397421Y-24399024D01*
X15741337Y-24055109D01*
X15975000Y-24055109D01*
X15975000Y-24094891D01*
X15990224Y-24131645D01*
X16018355Y-24159776D01*
X16055109Y-24175000D01*
X16094891Y-24175000D01*
X16131645Y-24159776D01*
X16159776Y-24131645D01*
X16175000Y-24094891D01*
X16175000Y-24055109D01*
X16159776Y-24018355D01*
X16131645Y-23990224D01*
X16094891Y-23975000D01*
X16055109Y-23975000D01*
X16018355Y-23990224D01*
X15990224Y-24018355D01*
X15975000Y-24055109D01*
X15741337Y-24055109D01*
X16071446Y-23725000D01*
X15985904Y-23639458D01*
X15952419Y-23578135D01*
X15957403Y-23508443D01*
X15985904Y-23464096D01*
X16004289Y-23445710D01*
X16018355Y-23459776D01*
X16055109Y-23475000D01*
X16094891Y-23475000D01*
X16131645Y-23459776D01*
X16159776Y-23431645D01*
X16175000Y-23394891D01*
X16175000Y-23355109D01*
X16675000Y-23355109D01*
X16675000Y-23394891D01*
X16690224Y-23431645D01*
X16718355Y-23459776D01*
X16755109Y-23475000D01*
X16794891Y-23475000D01*
X16831645Y-23459776D01*
X16859776Y-23431645D01*
X16875000Y-23394891D01*
X16875000Y-23355109D01*
X17375000Y-23355109D01*
X17375000Y-23394891D01*
X17390224Y-23431645D01*
X17418355Y-23459776D01*
X17455109Y-23475000D01*
X17494891Y-23475000D01*
X17531645Y-23459776D01*
X17559776Y-23431645D01*
X17575000Y-23394891D01*
X17575000Y-23355109D01*
X17559776Y-23318355D01*
X17531645Y-23290224D01*
X17494891Y-23275000D01*
X17455109Y-23275000D01*
X17418355Y-23290224D01*
X17390224Y-23318355D01*
X17375000Y-23355109D01*
X16875000Y-23355109D01*
X16859776Y-23318355D01*
X16831645Y-23290224D01*
X16794891Y-23275000D01*
X16755109Y-23275000D01*
X16718355Y-23290224D01*
X16690224Y-23318355D01*
X16675000Y-23355109D01*
X16175000Y-23355109D01*
X16159776Y-23318355D01*
X16131645Y-23290224D01*
X16094891Y-23275000D01*
X16055109Y-23275000D01*
X16018355Y-23290224D01*
X16004289Y-23304289D01*
X15985904Y-23285904D01*
X15952419Y-23224581D01*
X15957403Y-23154889D01*
X15958112Y-23153035D01*
X16021446Y-22991193D01*
X16021446Y-22935408D01*
X16025969Y-22920004D01*
X16025969Y-22879523D01*
X15985904Y-22839458D01*
X15952419Y-22778135D01*
X15957403Y-22708443D01*
X15985904Y-22664096D01*
X16004289Y-22645710D01*
X16018355Y-22659776D01*
X16055109Y-22675000D01*
X16094891Y-22675000D01*
X16131645Y-22659776D01*
X16159776Y-22631645D01*
X16175000Y-22594891D01*
X16175000Y-22555109D01*
X16675000Y-22555109D01*
X16675000Y-22594891D01*
X16690224Y-22631645D01*
X16718355Y-22659776D01*
X16755109Y-22675000D01*
X16794891Y-22675000D01*
X16831645Y-22659776D01*
X16859776Y-22631645D01*
X16875000Y-22594891D01*
X16875000Y-22555109D01*
X17375000Y-22555109D01*
X17375000Y-22594891D01*
X17390224Y-22631645D01*
X17418355Y-22659776D01*
X17455109Y-22675000D01*
X17494891Y-22675000D01*
X17531645Y-22659776D01*
X17559776Y-22631645D01*
X17575000Y-22594891D01*
X17575000Y-22555109D01*
X18175000Y-22555109D01*
X18175000Y-22594891D01*
X18190224Y-22631645D01*
X18218355Y-22659776D01*
X18255109Y-22675000D01*
X18294891Y-22675000D01*
X18331645Y-22659776D01*
X18345710Y-22645710D01*
X18364096Y-22664096D01*
X18368434Y-22672041D01*
X18375682Y-22677467D01*
X18384916Y-22702226D01*
X18397581Y-22725419D01*
X18396935Y-22734448D01*
X18400099Y-22742931D01*
X18394482Y-22768751D01*
X18392597Y-22795111D01*
X18386778Y-22804164D01*
X18385247Y-22811204D01*
X18364096Y-22839458D01*
X18228554Y-22975000D01*
X18364096Y-23110542D01*
X18397581Y-23171865D01*
X18392597Y-23241557D01*
X18364096Y-23285904D01*
X18345710Y-23304289D01*
X18331645Y-23290224D01*
X18294891Y-23275000D01*
X18255109Y-23275000D01*
X18218355Y-23290224D01*
X18190224Y-23318355D01*
X18175000Y-23355109D01*
X18175000Y-23394891D01*
X18190224Y-23431645D01*
X18218355Y-23459776D01*
X18255109Y-23475000D01*
X18294891Y-23475000D01*
X18331645Y-23459776D01*
X18345710Y-23445710D01*
X18364096Y-23464096D01*
X18397581Y-23525419D01*
X18392597Y-23595111D01*
X18364096Y-23639458D01*
X18278554Y-23725000D01*
X18451777Y-23898223D01*
X18952577Y-24399024D01*
X18952578Y-24399024D01*
X18996175Y-24293775D01*
X18996179Y-24293760D01*
X19024999Y-24148873D01*
X19025000Y-24148871D01*
X19025000Y-24001128D01*
X19024999Y-24001126D01*
X18996179Y-23856239D01*
X18996175Y-23856224D01*
X18961475Y-23772454D01*
X18954005Y-23702985D01*
X18961475Y-23677546D01*
X18996175Y-23593775D01*
X18996179Y-23593760D01*
X19024999Y-23448873D01*
X19025000Y-23448871D01*
X19025000Y-23301128D01*
X19024999Y-23301126D01*
X18996179Y-23156240D01*
X18996177Y-23156232D01*
X18940764Y-23022453D01*
X18933295Y-22952984D01*
X18940764Y-22927547D01*
X18996177Y-22793767D01*
X18996179Y-22793759D01*
X19024999Y-22648873D01*
X19025000Y-22648871D01*
X19025000Y-22524330D01*
X19770651Y-22524330D01*
X19770651Y-22636366D01*
X19799648Y-22744585D01*
X19855666Y-22841611D01*
X19934888Y-22920833D01*
X20031914Y-22976851D01*
X20140133Y-23005848D01*
X20140135Y-23005848D01*
X20252167Y-23005848D01*
X20252169Y-23005848D01*
X20296454Y-22993982D01*
X20849500Y-22993982D01*
X20849500Y-23106018D01*
X20878497Y-23214237D01*
X20934515Y-23311263D01*
X21013737Y-23390485D01*
X21110763Y-23446503D01*
X21218982Y-23475500D01*
X21218984Y-23475500D01*
X21331016Y-23475500D01*
X21331018Y-23475500D01*
X21439237Y-23446503D01*
X21536263Y-23390485D01*
X21615485Y-23311263D01*
X21671503Y-23214237D01*
X21700500Y-23106018D01*
X21700500Y-22993982D01*
X21671503Y-22885763D01*
X21615485Y-22788737D01*
X21536263Y-22709515D01*
X21439237Y-22653497D01*
X21331018Y-22624500D01*
X21218982Y-22624500D01*
X21110763Y-22653497D01*
X21110760Y-22653498D01*
X21013740Y-22709513D01*
X21013734Y-22709517D01*
X20934517Y-22788734D01*
X20934513Y-22788740D01*
X20878498Y-22885760D01*
X20878497Y-22885763D01*
X20849500Y-22993982D01*
X20296454Y-22993982D01*
X20360388Y-22976851D01*
X20457414Y-22920833D01*
X20536636Y-22841611D01*
X20592654Y-22744585D01*
X20621651Y-22636366D01*
X20621651Y-22556482D01*
X24062000Y-22556482D01*
X24062000Y-22668518D01*
X24090997Y-22776737D01*
X24147015Y-22873763D01*
X24226237Y-22952985D01*
X24323263Y-23009003D01*
X24431482Y-23038000D01*
X24431484Y-23038000D01*
X24543516Y-23038000D01*
X24543518Y-23038000D01*
X24651737Y-23009003D01*
X24748763Y-22952985D01*
X24827985Y-22873763D01*
X24884003Y-22776737D01*
X24892780Y-22743982D01*
X26774500Y-22743982D01*
X26774500Y-22856018D01*
X26802566Y-22960760D01*
X26803497Y-22964236D01*
X26803498Y-22964239D01*
X26810779Y-22976850D01*
X26859515Y-23061263D01*
X26938737Y-23140485D01*
X27035763Y-23196503D01*
X27143982Y-23225500D01*
X27143984Y-23225500D01*
X27256016Y-23225500D01*
X27256018Y-23225500D01*
X27364237Y-23196503D01*
X27461263Y-23140485D01*
X27540485Y-23061263D01*
X27596503Y-22964237D01*
X27625500Y-22856018D01*
X27625500Y-22743982D01*
X34274500Y-22743982D01*
X34274500Y-22856018D01*
X34302566Y-22960760D01*
X34303497Y-22964236D01*
X34303498Y-22964239D01*
X34310779Y-22976850D01*
X34359515Y-23061263D01*
X34359517Y-23061265D01*
X34410571Y-23112319D01*
X34444056Y-23173642D01*
X34439072Y-23243334D01*
X34410571Y-23287681D01*
X34359517Y-23338734D01*
X34359513Y-23338740D01*
X34303498Y-23435760D01*
X34303497Y-23435763D01*
X34274500Y-23543982D01*
X34274500Y-23656018D01*
X34299549Y-23749500D01*
X34303497Y-23764236D01*
X34303498Y-23764239D01*
X34308241Y-23772454D01*
X34359515Y-23861263D01*
X34359517Y-23861265D01*
X34410571Y-23912319D01*
X34444056Y-23973642D01*
X34439072Y-24043334D01*
X34410571Y-24087681D01*
X34359517Y-24138734D01*
X34359513Y-24138740D01*
X34303498Y-24235760D01*
X34303497Y-24235763D01*
X34274500Y-24343982D01*
X34274500Y-24456018D01*
X34303497Y-24564237D01*
X34359515Y-24661263D01*
X34438737Y-24740485D01*
X34535763Y-24796503D01*
X34643982Y-24825500D01*
X34643984Y-24825500D01*
X34756016Y-24825500D01*
X34756018Y-24825500D01*
X34864237Y-24796503D01*
X34961263Y-24740485D01*
X35040485Y-24661263D01*
X35096503Y-24564237D01*
X35125500Y-24456018D01*
X35125500Y-24343982D01*
X35096503Y-24235763D01*
X35040485Y-24138737D01*
X34989429Y-24087681D01*
X34955944Y-24026358D01*
X34960928Y-23956666D01*
X34989429Y-23912319D01*
X35011285Y-23890463D01*
X35040485Y-23861263D01*
X35096503Y-23764237D01*
X35125500Y-23656018D01*
X35125500Y-23543982D01*
X35096503Y-23435763D01*
X35040485Y-23338737D01*
X34989429Y-23287681D01*
X34955944Y-23226358D01*
X34960928Y-23156666D01*
X34989429Y-23112319D01*
X35001248Y-23100500D01*
X35040485Y-23061263D01*
X35096503Y-22964237D01*
X35125500Y-22856018D01*
X35125500Y-22743982D01*
X35096503Y-22635763D01*
X35040485Y-22538737D01*
X34961263Y-22459515D01*
X34864237Y-22403497D01*
X34756018Y-22374500D01*
X34643982Y-22374500D01*
X34535763Y-22403497D01*
X34535760Y-22403498D01*
X34438740Y-22459513D01*
X34438734Y-22459517D01*
X34359517Y-22538734D01*
X34359513Y-22538740D01*
X34303498Y-22635760D01*
X34303497Y-22635763D01*
X34274500Y-22743982D01*
X27625500Y-22743982D01*
X27596503Y-22635763D01*
X27540485Y-22538737D01*
X27461263Y-22459515D01*
X27364237Y-22403497D01*
X27256018Y-22374500D01*
X27143982Y-22374500D01*
X27035763Y-22403497D01*
X27035760Y-22403498D01*
X26938740Y-22459513D01*
X26938734Y-22459517D01*
X26859517Y-22538734D01*
X26859513Y-22538740D01*
X26803498Y-22635760D01*
X26803497Y-22635763D01*
X26774500Y-22743982D01*
X24892780Y-22743982D01*
X24913000Y-22668518D01*
X24913000Y-22556482D01*
X24884003Y-22448263D01*
X24827985Y-22351237D01*
X24748763Y-22272015D01*
X24651737Y-22215997D01*
X24543518Y-22187000D01*
X24431482Y-22187000D01*
X24323263Y-22215997D01*
X24323260Y-22215998D01*
X24226240Y-22272013D01*
X24226234Y-22272017D01*
X24147017Y-22351234D01*
X24147013Y-22351240D01*
X24090998Y-22448260D01*
X24090997Y-22448263D01*
X24062000Y-22556482D01*
X20621651Y-22556482D01*
X20621651Y-22524330D01*
X20592654Y-22416111D01*
X20536636Y-22319085D01*
X20457414Y-22239863D01*
X20360388Y-22183845D01*
X20252169Y-22154848D01*
X20140133Y-22154848D01*
X20031914Y-22183845D01*
X20031911Y-22183846D01*
X19934891Y-22239861D01*
X19934885Y-22239865D01*
X19855668Y-22319082D01*
X19855664Y-22319088D01*
X19799649Y-22416108D01*
X19799648Y-22416111D01*
X19770651Y-22524330D01*
X19025000Y-22524330D01*
X19025000Y-22501128D01*
X19024999Y-22501126D01*
X18996179Y-22356239D01*
X18996175Y-22356224D01*
X18961475Y-22272454D01*
X18954005Y-22202985D01*
X18961475Y-22177546D01*
X18996175Y-22093775D01*
X18996179Y-22093760D01*
X19024999Y-21948873D01*
X19025000Y-21948871D01*
X19025000Y-21801128D01*
X19024999Y-21801126D01*
X18996179Y-21656240D01*
X18996178Y-21656236D01*
X18952577Y-21550975D01*
X18451777Y-22051777D01*
X18278554Y-22225000D01*
X18364096Y-22310542D01*
X18397581Y-22371865D01*
X18392597Y-22441557D01*
X18364096Y-22485904D01*
X18345710Y-22504289D01*
X18331645Y-22490224D01*
X18294891Y-22475000D01*
X18255109Y-22475000D01*
X18218355Y-22490224D01*
X18190224Y-22518355D01*
X18175000Y-22555109D01*
X17575000Y-22555109D01*
X17559776Y-22518355D01*
X17531645Y-22490224D01*
X17494891Y-22475000D01*
X17455109Y-22475000D01*
X17418355Y-22490224D01*
X17390224Y-22518355D01*
X17375000Y-22555109D01*
X16875000Y-22555109D01*
X16859776Y-22518355D01*
X16831645Y-22490224D01*
X16794891Y-22475000D01*
X16755109Y-22475000D01*
X16718355Y-22490224D01*
X16690224Y-22518355D01*
X16675000Y-22555109D01*
X16175000Y-22555109D01*
X16159776Y-22518355D01*
X16131645Y-22490224D01*
X16094891Y-22475000D01*
X16055109Y-22475000D01*
X16018355Y-22490224D01*
X16004289Y-22504289D01*
X15985904Y-22485904D01*
X15952419Y-22424581D01*
X15957403Y-22354889D01*
X15985904Y-22310542D01*
X16071446Y-22225000D01*
X15898223Y-22051777D01*
X15701555Y-21855109D01*
X15975000Y-21855109D01*
X15975000Y-21894891D01*
X15990224Y-21931645D01*
X16018355Y-21959776D01*
X16055109Y-21975000D01*
X16094891Y-21975000D01*
X16131645Y-21959776D01*
X16159776Y-21931645D01*
X16175000Y-21894891D01*
X16175000Y-21855109D01*
X16159776Y-21818355D01*
X16131645Y-21790224D01*
X16094891Y-21775000D01*
X16055109Y-21775000D01*
X16018355Y-21790224D01*
X15990224Y-21818355D01*
X15975000Y-21855109D01*
X15701555Y-21855109D01*
X15397421Y-21550974D01*
X15397420Y-21550974D01*
X15353823Y-21656228D01*
X15353820Y-21656240D01*
X15325000Y-21801126D01*
X13959271Y-21801126D01*
X13914025Y-21722757D01*
X13834803Y-21643535D01*
X13834801Y-21643534D01*
X13834799Y-21643532D01*
X13784600Y-21614550D01*
X13781914Y-21611733D01*
X13778194Y-21610588D01*
X13757997Y-21586650D01*
X13736384Y-21563983D01*
X13735647Y-21560160D01*
X13733138Y-21557186D01*
X13729089Y-21526130D01*
X13723162Y-21495376D01*
X13724462Y-21490646D01*
X13724105Y-21487903D01*
X13729112Y-21473737D01*
X13734493Y-21454172D01*
X13736661Y-21449583D01*
X13771503Y-21389237D01*
X13779770Y-21358383D01*
X13784543Y-21348286D01*
X13800635Y-21330200D01*
X13813237Y-21309525D01*
X13823445Y-21304565D01*
X13830988Y-21296089D01*
X13854303Y-21289574D01*
X13876084Y-21278994D01*
X13887353Y-21280341D01*
X13898281Y-21277288D01*
X13921417Y-21284413D01*
X13945459Y-21287287D01*
X13954209Y-21294511D01*
X13965056Y-21297852D01*
X13980668Y-21316356D01*
X13999339Y-21331771D01*
X14006024Y-21346408D01*
X14010112Y-21351254D01*
X14010861Y-21357000D01*
X14016425Y-21369183D01*
X14028497Y-21414238D01*
X14028498Y-21414239D01*
X14084515Y-21511263D01*
X14163737Y-21590485D01*
X14260763Y-21646503D01*
X14368982Y-21675500D01*
X14368984Y-21675500D01*
X14481015Y-21675500D01*
X14481018Y-21675500D01*
X14589237Y-21646503D01*
X14686263Y-21590485D01*
X14765485Y-21511263D01*
X14821503Y-21414237D01*
X14850500Y-21306018D01*
X14850500Y-21197420D01*
X15750974Y-21197420D01*
X15750974Y-21197421D01*
X16251777Y-21698223D01*
X16425000Y-21871446D01*
X16510542Y-21785904D01*
X16571865Y-21752419D01*
X16641557Y-21757403D01*
X16685904Y-21785904D01*
X16704289Y-21804289D01*
X16690224Y-21818355D01*
X16675000Y-21855109D01*
X16675000Y-21894891D01*
X16690224Y-21931645D01*
X16718355Y-21959776D01*
X16755109Y-21975000D01*
X16794891Y-21975000D01*
X16831645Y-21959776D01*
X16859776Y-21931645D01*
X16875000Y-21894891D01*
X16875000Y-21855109D01*
X16859776Y-21818355D01*
X16845710Y-21804289D01*
X16864096Y-21785904D01*
X16925419Y-21752419D01*
X16995111Y-21757403D01*
X17039458Y-21785904D01*
X17125000Y-21871446D01*
X17210542Y-21785904D01*
X17271865Y-21752419D01*
X17341557Y-21757403D01*
X17385904Y-21785904D01*
X17404289Y-21804289D01*
X17390224Y-21818355D01*
X17375000Y-21855109D01*
X17375000Y-21894891D01*
X17390224Y-21931645D01*
X17418355Y-21959776D01*
X17455109Y-21975000D01*
X17494891Y-21975000D01*
X17531645Y-21959776D01*
X17559776Y-21931645D01*
X17575000Y-21894891D01*
X17575000Y-21855109D01*
X18175000Y-21855109D01*
X18175000Y-21894891D01*
X18190224Y-21931645D01*
X18218355Y-21959776D01*
X18255109Y-21975000D01*
X18294891Y-21975000D01*
X18331645Y-21959776D01*
X18359776Y-21931645D01*
X18375000Y-21894891D01*
X18375000Y-21855109D01*
X18359776Y-21818355D01*
X18331645Y-21790224D01*
X18294891Y-21775000D01*
X18255109Y-21775000D01*
X18218355Y-21790224D01*
X18190224Y-21818355D01*
X18175000Y-21855109D01*
X17575000Y-21855109D01*
X17559776Y-21818355D01*
X17545710Y-21804289D01*
X17564096Y-21785904D01*
X17625419Y-21752419D01*
X17695111Y-21757403D01*
X17696965Y-21758112D01*
X17858806Y-21821446D01*
X17914592Y-21821446D01*
X17929995Y-21825969D01*
X17970477Y-21825969D01*
X18599024Y-21197421D01*
X18493767Y-21153822D01*
X18493759Y-21153820D01*
X18348872Y-21125000D01*
X18201128Y-21125000D01*
X18056240Y-21153820D01*
X18056228Y-21153823D01*
X17922452Y-21209235D01*
X17852983Y-21216704D01*
X17827548Y-21209235D01*
X17693771Y-21153823D01*
X17693759Y-21153820D01*
X17548872Y-21125000D01*
X17401128Y-21125000D01*
X17256240Y-21153820D01*
X17256232Y-21153822D01*
X17172453Y-21188525D01*
X17102983Y-21195994D01*
X17077547Y-21188525D01*
X16993767Y-21153822D01*
X16993759Y-21153820D01*
X16848872Y-21125000D01*
X16701128Y-21125000D01*
X16556240Y-21153820D01*
X16556232Y-21153822D01*
X16472453Y-21188525D01*
X16402983Y-21195994D01*
X16377547Y-21188525D01*
X16293767Y-21153822D01*
X16293759Y-21153820D01*
X16148872Y-21125000D01*
X16001128Y-21125000D01*
X15856240Y-21153820D01*
X15856228Y-21153823D01*
X15750974Y-21197420D01*
X14850500Y-21197420D01*
X14850500Y-21193982D01*
X14821503Y-21085763D01*
X14765485Y-20988737D01*
X14686263Y-20909515D01*
X14599664Y-20859517D01*
X14589239Y-20853498D01*
X14589238Y-20853497D01*
X14589237Y-20853497D01*
X14481018Y-20824500D01*
X14368982Y-20824500D01*
X14260763Y-20853497D01*
X14260760Y-20853498D01*
X14163740Y-20909513D01*
X14163734Y-20909517D01*
X14084517Y-20988734D01*
X14084513Y-20988740D01*
X14028498Y-21085760D01*
X14028495Y-21085767D01*
X14023123Y-21105817D01*
X13986758Y-21165477D01*
X13923910Y-21196005D01*
X13854535Y-21187710D01*
X13800658Y-21143224D01*
X13783575Y-21105817D01*
X13771503Y-21060763D01*
X13715485Y-20963737D01*
X13636263Y-20884515D01*
X13539237Y-20828497D01*
X13431018Y-20799500D01*
X13318982Y-20799500D01*
X13210763Y-20828497D01*
X13210760Y-20828498D01*
X13113740Y-20884513D01*
X13113734Y-20884517D01*
X13034517Y-20963734D01*
X13034513Y-20963740D01*
X12981387Y-21055757D01*
X12930820Y-21103973D01*
X12862213Y-21117195D01*
X12797348Y-21091227D01*
X12756820Y-21034313D01*
X12750000Y-20993757D01*
X12750000Y-19768982D01*
X15149500Y-19768982D01*
X15149500Y-19881018D01*
X15178497Y-19989237D01*
X15234515Y-20086263D01*
X15313737Y-20165485D01*
X15410763Y-20221503D01*
X15518982Y-20250500D01*
X15518984Y-20250500D01*
X15631016Y-20250500D01*
X15631018Y-20250500D01*
X15739237Y-20221503D01*
X15836263Y-20165485D01*
X15882766Y-20118982D01*
X18574500Y-20118982D01*
X18574500Y-20231018D01*
X18580524Y-20253498D01*
X18603497Y-20339236D01*
X18603498Y-20339239D01*
X18622169Y-20371579D01*
X18659515Y-20436263D01*
X18738737Y-20515485D01*
X18835763Y-20571503D01*
X18943982Y-20600500D01*
X18943984Y-20600500D01*
X19056016Y-20600500D01*
X19056018Y-20600500D01*
X19056019Y-20600499D01*
X19064074Y-20599439D01*
X19064403Y-20601938D01*
X19121615Y-20603294D01*
X19179482Y-20642450D01*
X19206993Y-20706675D01*
X19203648Y-20753499D01*
X19199500Y-20768980D01*
X19199500Y-20768982D01*
X19199500Y-20881018D01*
X19221665Y-20963737D01*
X19228497Y-20989236D01*
X19228498Y-20989239D01*
X19247169Y-21021579D01*
X19284515Y-21086263D01*
X19363737Y-21165485D01*
X19460763Y-21221503D01*
X19568982Y-21250500D01*
X19568984Y-21250500D01*
X19681016Y-21250500D01*
X19681018Y-21250500D01*
X19789237Y-21221503D01*
X19886263Y-21165485D01*
X19907766Y-21143982D01*
X26774500Y-21143982D01*
X26774500Y-21256018D01*
X26803040Y-21362529D01*
X26803497Y-21364236D01*
X26803498Y-21364239D01*
X26817911Y-21389203D01*
X26859515Y-21461263D01*
X26938737Y-21540485D01*
X27035763Y-21596503D01*
X27143982Y-21625500D01*
X27143984Y-21625500D01*
X27256016Y-21625500D01*
X27256018Y-21625500D01*
X27364237Y-21596503D01*
X27461263Y-21540485D01*
X27512819Y-21488929D01*
X27574142Y-21455444D01*
X27643834Y-21460428D01*
X27699767Y-21502300D01*
X27724184Y-21567764D01*
X27724500Y-21576610D01*
X27724500Y-21656018D01*
X27753497Y-21764237D01*
X27809515Y-21861263D01*
X27888737Y-21940485D01*
X27985763Y-21996503D01*
X28093982Y-22025500D01*
X28093984Y-22025500D01*
X28206016Y-22025500D01*
X28206018Y-22025500D01*
X28314237Y-21996503D01*
X28411263Y-21940485D01*
X28490485Y-21861263D01*
X28546503Y-21764237D01*
X28575500Y-21656018D01*
X28575500Y-21543982D01*
X28546503Y-21435763D01*
X28490485Y-21338737D01*
X28411263Y-21259515D01*
X28314237Y-21203497D01*
X28206018Y-21174500D01*
X28093982Y-21174500D01*
X27985763Y-21203497D01*
X27985760Y-21203498D01*
X27888740Y-21259513D01*
X27888734Y-21259517D01*
X27837181Y-21311071D01*
X27775858Y-21344556D01*
X27706166Y-21339572D01*
X27650233Y-21297700D01*
X27625816Y-21232236D01*
X27625500Y-21223390D01*
X27625500Y-21143984D01*
X27625500Y-21143982D01*
X27596503Y-21035763D01*
X27540485Y-20938737D01*
X27461263Y-20859515D01*
X27382839Y-20814237D01*
X27364239Y-20803498D01*
X27364238Y-20803497D01*
X27364237Y-20803497D01*
X27256018Y-20774500D01*
X27143982Y-20774500D01*
X27035763Y-20803497D01*
X27035760Y-20803498D01*
X26938740Y-20859513D01*
X26938734Y-20859517D01*
X26859517Y-20938734D01*
X26859513Y-20938740D01*
X26803498Y-21035760D01*
X26803497Y-21035763D01*
X26774500Y-21143982D01*
X19907766Y-21143982D01*
X19965485Y-21086263D01*
X20021503Y-20989237D01*
X20050500Y-20881018D01*
X20050500Y-20768982D01*
X20021503Y-20660763D01*
X20020306Y-20658690D01*
X20014050Y-20647853D01*
X19982947Y-20593982D01*
X32924500Y-20593982D01*
X32924500Y-20706018D01*
X32953497Y-20814237D01*
X33009515Y-20911263D01*
X33088737Y-20990485D01*
X33185763Y-21046503D01*
X33293982Y-21075500D01*
X33293984Y-21075500D01*
X33406016Y-21075500D01*
X33406018Y-21075500D01*
X33514237Y-21046503D01*
X33611263Y-20990485D01*
X33690485Y-20911263D01*
X33746503Y-20814237D01*
X33775500Y-20706018D01*
X33775500Y-20593982D01*
X33746503Y-20485763D01*
X33690485Y-20388737D01*
X33611263Y-20309515D01*
X33514237Y-20253497D01*
X33406018Y-20224500D01*
X33293982Y-20224500D01*
X33185763Y-20253497D01*
X33185760Y-20253498D01*
X33088740Y-20309513D01*
X33088734Y-20309517D01*
X33009517Y-20388734D01*
X33009513Y-20388740D01*
X32953498Y-20485760D01*
X32953497Y-20485763D01*
X32924500Y-20593982D01*
X19982947Y-20593982D01*
X19965487Y-20563740D01*
X19965482Y-20563734D01*
X19886265Y-20484517D01*
X19886263Y-20484515D01*
X19789237Y-20428497D01*
X19681018Y-20399500D01*
X19568982Y-20399500D01*
X19568980Y-20399500D01*
X19560926Y-20400561D01*
X19560597Y-20398068D01*
X19503345Y-20396693D01*
X19445491Y-20357518D01*
X19418001Y-20293284D01*
X19421353Y-20246494D01*
X19425500Y-20231018D01*
X19425500Y-20118982D01*
X19396503Y-20010763D01*
X19340485Y-19913737D01*
X19261263Y-19834515D01*
X19164237Y-19778497D01*
X19056018Y-19749500D01*
X18943982Y-19749500D01*
X18835763Y-19778497D01*
X18835760Y-19778498D01*
X18738740Y-19834513D01*
X18738734Y-19834517D01*
X18659517Y-19913734D01*
X18659513Y-19913740D01*
X18603498Y-20010760D01*
X18603497Y-20010763D01*
X18574500Y-20118982D01*
X15882766Y-20118982D01*
X15915485Y-20086263D01*
X15971503Y-19989237D01*
X16000500Y-19881018D01*
X16000500Y-19768982D01*
X15971503Y-19660763D01*
X15915485Y-19563737D01*
X15836263Y-19484515D01*
X15739237Y-19428497D01*
X15631018Y-19399500D01*
X15518982Y-19399500D01*
X15410763Y-19428497D01*
X15410760Y-19428498D01*
X15313740Y-19484513D01*
X15313734Y-19484517D01*
X15234517Y-19563734D01*
X15234513Y-19563740D01*
X15178498Y-19660760D01*
X15178497Y-19660763D01*
X15149500Y-19768982D01*
X12750000Y-19768982D01*
X12750000Y-18533037D01*
X12769685Y-18465998D01*
X12822489Y-18420243D01*
X12874000Y-18409037D01*
X18227078Y-18409037D01*
X18227079Y-18409036D01*
X18241896Y-18406089D01*
X18285557Y-18397405D01*
X18285557Y-18397404D01*
X18285559Y-18397404D01*
X18351880Y-18353089D01*
X18396195Y-18286768D01*
X18396195Y-18286766D01*
X18396196Y-18286766D01*
X18407827Y-18228289D01*
X18407828Y-18228287D01*
X18407828Y-12857922D01*
X18427513Y-12790883D01*
X18480317Y-12745128D01*
X18531392Y-12733923D01*
X36261407Y-12672362D01*
X36328515Y-12691813D01*
G37*
%TD.AperFunction*%
%TD*%
M02*
