M48
; DRILL file {KiCad 9.0.3} date 2025-09-05T02:51:14+0300
; FORMAT={-:-/ absolute / metric / decimal}
; #@! TF.CreationDate,2025-09-05T02:51:14+03:00
; #@! TF.GenerationSoftware,Kicad,Pcbnew,9.0.3
; #@! TF.FileFunction,Plated,1,6,PTH
FMAT,2
METRIC
; #@! TA.AperFunction,Plated,PTH,ComponentDrill
T1C0.200
; #@! TA.AperFunction,Plated,PTH,ViaDrill
T2C0.300
; #@! TA.AperFunction,Plated,PTH,ComponentDrill
T3C2.600
%
G90
G05
T1
X16.075Y-21.875
X16.075Y-22.575
X16.075Y-23.375
X16.075Y-24.075
X16.775Y-21.875
X16.775Y-22.575
X16.775Y-23.375
X16.775Y-24.075
X17.22Y-38.435
X17.22Y-39.335
X17.22Y-40.235
X17.475Y-21.875
X17.475Y-22.575
X17.475Y-23.375
X17.475Y-24.075
X18.12Y-40.235
X18.275Y-21.875
X18.275Y-22.575
X18.275Y-23.375
X18.275Y-24.075
T2
X12.825Y-42.225
X13.0Y-48.2
X13.055Y-43.17
X13.18Y-53.81
X13.19Y-54.4
X13.19Y-55.55
X13.2Y-54.98
X13.21Y-56.13
X13.22Y-56.69
X13.23Y-57.24
X13.24Y-58.41
X13.24Y-58.99
X13.25Y-24.6
X13.25Y-35.675
X13.25Y-57.8
X13.273Y-23.967
X13.325Y-28.85
X13.425Y-34.825
X13.486Y-23.433
X13.6Y-36.75
X13.701Y-22.9
X13.8Y-32.5
X13.85Y-53.8
X13.86Y-54.39
X13.86Y-55.54
X13.87Y-54.97
X13.88Y-56.12
X13.89Y-56.68
X13.9Y-57.23
X13.91Y-58.4
X13.91Y-58.98
X13.92Y-57.79
X14.025Y-27.9
X14.025Y-28.55
X14.05Y-22.366
X14.35Y-33.6
X14.373Y-35.761
X14.4Y-19.9
X14.425Y-21.25
X14.425Y-24.575
X14.5Y-31.6
X14.5Y-34.375
X14.5Y-35.2
X14.5Y-53.8
X14.51Y-54.39
X14.51Y-55.54
X14.52Y-54.97
X14.53Y-56.12
X14.54Y-56.68
X14.55Y-57.23
X14.56Y-58.4
X14.56Y-58.98
X14.57Y-57.79
X14.6Y-36.3
X14.75Y-29.125
X15.1Y-20.1
X15.175Y-38.4
X15.175Y-39.37
X15.2Y-41.295
X15.2Y-46.9
X15.2Y-47.5
X15.225Y-39.95
X15.3Y-46.05
X15.325Y-49.45
X15.35Y-42.6
X15.36Y-43.55
X15.36Y-44.5
X15.36Y-45.45
X15.45Y-48.15
X15.95Y-26.0
X16.21Y-48.202
X16.4Y-20.2
X16.525Y-49.425
X16.55Y-29.7
X16.75Y-50.55
X16.825Y-52.45
X16.9Y-48.2
X16.95Y-28.65
X16.95Y-33.95
X17.05Y-26.1
X17.1Y-20.1
X17.1Y-36.45
X17.2Y-29.675
X17.25Y-45.25
X17.4Y-50.35
X17.7Y-26.35
X17.825Y-36.575
X18.05Y-20.25
X18.225Y-53.175
X18.5Y-43.85
X18.6Y-20.1
X18.9Y-42.7
X18.975Y-44.45
X19.225Y-48.15
X19.275Y-45.175
X19.35Y-27.0
X19.433Y-48.686
X19.45Y-13.45
X19.45Y-14.2
X19.45Y-14.9
X19.45Y-15.5
X19.45Y-16.15
X19.55Y-42.65
X19.625Y-20.825
X19.7Y-20.1
X19.7Y-43.85
X19.725Y-55.275
X19.8Y-25.0
X19.85Y-45.175
X20.15Y-42.65
X20.15Y-48.9
X20.196Y-22.58
X20.2Y-13.45
X20.2Y-14.0
X20.25Y-20.4
X20.35Y-17.6
X20.35Y-46.175
X20.375Y-21.1
X20.447Y-23.098
X20.723Y-42.697
X20.816Y-48.364
X20.825Y-43.825
X20.843Y-51.626
X20.85Y-37.0
X20.85Y-45.175
X20.85Y-45.775
X20.874Y-43.252
X20.875Y-44.45
X20.925Y-17.675
X20.951Y-21.759
X21.001Y-37.555
X21.05Y-13.45
X21.05Y-14.0
X21.125Y-51.125
X21.35Y-48.15
X21.4Y-38.05
X21.825Y-50.925
X22.21Y-53.32
X22.25Y-48.225
X22.45Y-56.5
X22.55Y-51.2
X22.624Y-19.349
X22.625Y-18.775
X22.85Y-25.1
X22.85Y-43.55
X22.9Y-42.6
X22.95Y-52.075
X23.025Y-39.65
X23.1Y-25.65
X23.2Y-21.4
X23.3Y-26.7
X23.425Y-17.775
X23.45Y-23.6
X23.45Y-44.75
X23.475Y-13.343
X23.486Y-40.214
X23.55Y-24.25
X23.623Y-39.655
X23.625Y-18.825
X23.775Y-45.92
X23.8Y-25.1
X23.8Y-43.1
X23.9Y-39.15
X24.037Y-44.438
X24.05Y-42.575
X24.345Y-52.362
X24.352Y-51.372
X24.366Y-51.864
X24.385Y-56.165
X24.4Y-14.6
X24.4Y-15.35
X24.4Y-16.0
X24.487Y-22.613
X24.55Y-39.1
X24.6Y-45.4
X24.65Y-52.735
X24.725Y-18.9
X24.8Y-43.65
X24.897Y-25.085
X25.0Y-43.076
X25.05Y-44.7
X25.266Y-52.735
X25.3Y-18.425
X25.573Y-45.817
X25.647Y-25.085
X25.7Y-59.95
X25.833Y-52.729
X25.9Y-18.525
X25.9Y-38.45
X25.925Y-55.85
X25.925Y-56.4
X25.925Y-56.9
X25.925Y-57.4
X26.05Y-44.15
X26.25Y-51.5
X26.25Y-52.0
X26.33Y-25.68
X26.375Y-43.275
X26.425Y-30.0
X26.5Y-59.95
X26.6Y-24.8
X26.684Y-44.061
X26.686Y-45.664
X26.7Y-37.65
X27.0Y-30.0
X27.05Y-28.4
X27.17Y-24.4
X27.2Y-21.2
X27.2Y-22.0
X27.2Y-22.8
X27.2Y-25.2
X27.2Y-26.0
X27.2Y-26.8
X27.2Y-30.8
X27.2Y-31.6
X27.2Y-32.4
X27.2Y-33.2
X27.3Y-59.95
X27.481Y-47.206
X27.5Y-46.45
X27.5Y-50.45
X27.525Y-15.475
X27.775Y-56.05
X27.92Y-52.098
X27.935Y-52.673
X28.025Y-18.075
X28.1Y-59.95
X28.145Y-32.0
X28.15Y-21.6
X28.15Y-26.4
X28.15Y-27.2
X28.15Y-28.0
X28.15Y-28.8
X28.15Y-29.6
X28.15Y-30.45
X28.15Y-31.2
X28.3Y-42.45
X28.3Y-47.25
X28.435Y-52.673
X28.55Y-34.075
X28.6Y-15.0
X28.9Y-59.95
X28.95Y-22.4
X28.95Y-24.0
X28.95Y-27.2
X28.95Y-28.0
X28.95Y-28.8
X28.95Y-29.6
X28.95Y-30.4
X28.95Y-31.2
X28.95Y-32.8
X29.008Y-52.659
X29.086Y-50.464
X29.1Y-44.85
X29.1Y-48.05
X29.1Y-48.85
X29.1Y-49.65
X29.508Y-52.659
X29.7Y-59.95
X29.871Y-38.4
X29.9Y-42.45
X29.9Y-43.25
X29.9Y-48.05
X29.9Y-48.85
X29.939Y-28.756
X29.95Y-24.0
X30.15Y-15.1
X30.15Y-36.95
X30.168Y-25.225
X30.168Y-25.975
X30.335Y-56.1
X30.35Y-18.025
X30.5Y-60.397
X30.505Y-28.19
X30.6Y-23.65
X30.7Y-39.25
X30.7Y-40.05
X30.7Y-40.85
X30.7Y-42.45
X30.7Y-50.45
X30.75Y-38.449
X30.95Y-24.65
X31.05Y-54.8
X31.1Y-37.35
X31.275Y-18.025
X31.3Y-26.25
X31.3Y-59.95
X31.4Y-25.45
X31.5Y-27.1
X31.5Y-38.45
X31.5Y-39.25
X31.5Y-40.05
X31.5Y-40.9
X31.5Y-42.45
X31.5Y-43.25
X31.5Y-44.85
X31.5Y-45.65
X31.5Y-46.45
X31.5Y-47.25
X31.5Y-50.45
X31.625Y-13.357
X31.658Y-52.707
X31.8Y-37.3
X31.9Y-14.4
X32.0Y-26.0
X32.0Y-29.5
X32.075Y-16.075
X32.1Y-32.8
X32.1Y-55.4
X32.1Y-55.975
X32.1Y-56.55
X32.1Y-59.95
X32.225Y-52.7
X32.3Y-38.45
X32.3Y-39.25
X32.3Y-40.85
X32.3Y-42.425
X32.3Y-43.25
X32.3Y-45.65
X32.3Y-49.65
X32.3Y-50.45
X32.325Y-16.625
X32.525Y-15.375
X32.6Y-37.45
X32.675Y-16.05
X32.9Y-59.95
X32.95Y-24.8
X32.95Y-25.6
X32.95Y-27.2
X32.95Y-28.0
X32.95Y-28.8
X32.95Y-29.6
X32.95Y-30.4
X32.95Y-31.2
X32.95Y-32.0
X32.95Y-32.8
X33.1Y-40.05
X33.1Y-41.65
X33.1Y-44.05
X33.1Y-44.85
X33.1Y-46.45
X33.1Y-50.45
X33.102Y-39.225
X33.15Y-15.675
X33.281Y-36.869
X33.35Y-20.65
X33.5Y-18.043
X33.7Y-59.95
X33.75Y-24.0
X33.75Y-25.6
X33.75Y-28.0
X33.75Y-28.8
X33.75Y-32.8
X33.75Y-52.825
X33.847Y-37.435
X33.866Y-51.531
X33.866Y-52.031
X33.9Y-41.65
X33.9Y-44.05
X33.9Y-44.85
X33.9Y-45.65
X33.9Y-46.45
X33.9Y-48.05
X33.9Y-48.85
X33.9Y-50.45
X33.901Y-40.85
X34.1Y-60.372
X34.225Y-58.0
X34.284Y-52.427
X34.325Y-16.35
X34.4Y-37.175
X34.5Y-59.95
X34.55Y-16.875
X34.697Y-21.987
X34.7Y-21.2
X34.7Y-22.8
X34.7Y-23.6
X34.7Y-24.4
X34.7Y-25.2
X34.7Y-26.0
X34.7Y-26.8
X34.7Y-30.0
X34.7Y-30.8
X34.7Y-31.6
X34.7Y-32.4
X34.7Y-33.2
X34.7Y-38.45
X34.7Y-40.05
X34.7Y-40.85
X34.7Y-41.65
X34.7Y-42.45
X34.7Y-44.05
X34.7Y-44.85
X34.7Y-46.45
X34.7Y-50.45
X34.7Y-52.85
X34.714Y-39.236
X34.765Y-29.42
X35.1Y-16.3
X35.1Y-52.45
X35.25Y-31.25
X35.498Y-50.475
X35.5Y-38.45
X35.5Y-39.25
X35.5Y-40.05
X35.5Y-40.85
X35.5Y-42.45
X35.5Y-44.05
X35.5Y-44.85
X35.5Y-46.45
X35.5Y-48.05
X35.5Y-48.85
X35.5Y-49.65
X35.65Y-13.4
X35.675Y-15.175
X35.7Y-14.25
X35.75Y-16.15
X35.75Y-16.65
X35.75Y-37.421
X36.0Y-59.7
X36.074Y-36.625
X36.075Y-58.0
X36.2Y-14.75
X36.225Y-13.85
X36.26Y-56.1
X36.286Y-48.836
X36.3Y-40.05
X36.3Y-41.65
X36.3Y-42.45
X36.3Y-44.05
X36.3Y-45.65
X36.3Y-46.45
X36.3Y-48.05
X36.3Y-50.45
X36.404Y-29.9
X36.5Y-60.422
X36.6Y-54.6
X37.0Y-60.0
X37.05Y-37.65
X37.1Y-40.05
X37.1Y-41.65
X37.1Y-49.65
X37.1Y-50.45
X37.45Y-52.7
X37.85Y-51.45
X37.85Y-52.05
X37.9Y-42.45
X37.9Y-43.25
X37.9Y-44.05
X37.9Y-44.85
X37.9Y-46.45
X37.9Y-47.25
X37.9Y-48.05
X38.022Y-52.643
X38.025Y-56.325
X38.025Y-56.825
X38.025Y-57.325
X38.7Y-41.65
X38.7Y-42.45
X38.7Y-43.25
X38.7Y-44.05
X38.7Y-44.85
X38.7Y-47.25
X38.7Y-48.05
X38.7Y-48.85
X38.7Y-49.65
X38.9Y-60.422
X39.4Y-59.7
X39.5Y-40.05
X39.5Y-43.25
X39.5Y-44.05
X39.5Y-48.05
X39.5Y-48.85
X39.95Y-51.5
X39.95Y-52.85
X39.989Y-52.087
X40.0Y-60.0
X40.3Y-37.65
X40.3Y-48.85
X40.3Y-49.65
X40.3Y-50.45
X40.349Y-44.075
X40.45Y-52.5
X40.6Y-51.0
X40.65Y-38.85
X40.65Y-40.55
X40.675Y-39.7
X41.1Y-42.3
X41.125Y-54.7
T3
X15.307Y-15.309
X39.486Y-15.314
M30
