%TF.GenerationSoftware,KiCad,Pcbnew,9.0.3*%
%TF.CreationDate,2025-09-05T02:51:16+03:00*%
%TF.ProjectId,ThingsCore-1,5468696e-6773-4436-9f72-652d312e6b69,rev?*%
%TF.SameCoordinates,Original*%
%TF.FileFunction,AssemblyDrawing,Top*%
%FSLAX46Y46*%
G04 Gerber Fmt 4.6, Leading zero omitted, Abs format (unit mm)*
G04 Created by KiCad (PCBNEW 9.0.3) date 2025-09-05 02:51:16*
%MOMM*%
%LPD*%
G01*
G04 APERTURE LIST*
%ADD10C,0.254000*%
%ADD11C,0.150000*%
%ADD12C,0.040000*%
%ADD13C,0.060000*%
%ADD14C,0.100000*%
%ADD15C,0.127000*%
G04 APERTURE END LIST*
D10*
X36482380Y-56638842D02*
X36663809Y-56699318D01*
X36663809Y-56699318D02*
X36966190Y-56699318D01*
X36966190Y-56699318D02*
X37087142Y-56638842D01*
X37087142Y-56638842D02*
X37147618Y-56578365D01*
X37147618Y-56578365D02*
X37208095Y-56457413D01*
X37208095Y-56457413D02*
X37208095Y-56336461D01*
X37208095Y-56336461D02*
X37147618Y-56215508D01*
X37147618Y-56215508D02*
X37087142Y-56155032D01*
X37087142Y-56155032D02*
X36966190Y-56094556D01*
X36966190Y-56094556D02*
X36724285Y-56034080D01*
X36724285Y-56034080D02*
X36603333Y-55973603D01*
X36603333Y-55973603D02*
X36542856Y-55913127D01*
X36542856Y-55913127D02*
X36482380Y-55792175D01*
X36482380Y-55792175D02*
X36482380Y-55671222D01*
X36482380Y-55671222D02*
X36542856Y-55550270D01*
X36542856Y-55550270D02*
X36603333Y-55489794D01*
X36603333Y-55489794D02*
X36724285Y-55429318D01*
X36724285Y-55429318D02*
X37026666Y-55429318D01*
X37026666Y-55429318D02*
X37208095Y-55489794D01*
X37691904Y-55550270D02*
X37752380Y-55489794D01*
X37752380Y-55489794D02*
X37873333Y-55429318D01*
X37873333Y-55429318D02*
X38175714Y-55429318D01*
X38175714Y-55429318D02*
X38296666Y-55489794D01*
X38296666Y-55489794D02*
X38357142Y-55550270D01*
X38357142Y-55550270D02*
X38417619Y-55671222D01*
X38417619Y-55671222D02*
X38417619Y-55792175D01*
X38417619Y-55792175D02*
X38357142Y-55973603D01*
X38357142Y-55973603D02*
X37631428Y-56699318D01*
X37631428Y-56699318D02*
X38417619Y-56699318D01*
D11*
X3959816Y-36985361D02*
X4227089Y-36985361D01*
X4341634Y-37405361D02*
X3959816Y-37405361D01*
X3959816Y-37405361D02*
X3959816Y-36603542D01*
X3959816Y-36603542D02*
X4341634Y-36603542D01*
X4685271Y-37405361D02*
X4685271Y-36603542D01*
X4685271Y-36603542D02*
X4952544Y-37176270D01*
X4952544Y-37176270D02*
X5219817Y-36603542D01*
X5219817Y-36603542D02*
X5219817Y-37405361D01*
X5601636Y-37405361D02*
X5601636Y-36603542D01*
X5601636Y-36603542D02*
X5868909Y-37176270D01*
X5868909Y-37176270D02*
X6136182Y-36603542D01*
X6136182Y-36603542D02*
X6136182Y-37405361D01*
X6976183Y-37328998D02*
X6938001Y-37367180D01*
X6938001Y-37367180D02*
X6823456Y-37405361D01*
X6823456Y-37405361D02*
X6747092Y-37405361D01*
X6747092Y-37405361D02*
X6632546Y-37367180D01*
X6632546Y-37367180D02*
X6556183Y-37290816D01*
X6556183Y-37290816D02*
X6518001Y-37214452D01*
X6518001Y-37214452D02*
X6479819Y-37061725D01*
X6479819Y-37061725D02*
X6479819Y-36947179D01*
X6479819Y-36947179D02*
X6518001Y-36794452D01*
X6518001Y-36794452D02*
X6556183Y-36718088D01*
X6556183Y-36718088D02*
X6632546Y-36641724D01*
X6632546Y-36641724D02*
X6747092Y-36603542D01*
X6747092Y-36603542D02*
X6823456Y-36603542D01*
X6823456Y-36603542D02*
X6938001Y-36641724D01*
X6938001Y-36641724D02*
X6976183Y-36679906D01*
X7472547Y-36603542D02*
X7548911Y-36603542D01*
X7548911Y-36603542D02*
X7625275Y-36641724D01*
X7625275Y-36641724D02*
X7663457Y-36679906D01*
X7663457Y-36679906D02*
X7701638Y-36756270D01*
X7701638Y-36756270D02*
X7739820Y-36908997D01*
X7739820Y-36908997D02*
X7739820Y-37099907D01*
X7739820Y-37099907D02*
X7701638Y-37252634D01*
X7701638Y-37252634D02*
X7663457Y-37328998D01*
X7663457Y-37328998D02*
X7625275Y-37367180D01*
X7625275Y-37367180D02*
X7548911Y-37405361D01*
X7548911Y-37405361D02*
X7472547Y-37405361D01*
X7472547Y-37405361D02*
X7396184Y-37367180D01*
X7396184Y-37367180D02*
X7358002Y-37328998D01*
X7358002Y-37328998D02*
X7319820Y-37252634D01*
X7319820Y-37252634D02*
X7281638Y-37099907D01*
X7281638Y-37099907D02*
X7281638Y-36908997D01*
X7281638Y-36908997D02*
X7319820Y-36756270D01*
X7319820Y-36756270D02*
X7358002Y-36679906D01*
X7358002Y-36679906D02*
X7396184Y-36641724D01*
X7396184Y-36641724D02*
X7472547Y-36603542D01*
X8427094Y-36870815D02*
X8427094Y-37405361D01*
X8236184Y-36565361D02*
X8045275Y-37138088D01*
X8045275Y-37138088D02*
X8541639Y-37138088D01*
X9267094Y-36641724D02*
X9190731Y-36603542D01*
X9190731Y-36603542D02*
X9076185Y-36603542D01*
X9076185Y-36603542D02*
X8961639Y-36641724D01*
X8961639Y-36641724D02*
X8885276Y-36718088D01*
X8885276Y-36718088D02*
X8847094Y-36794452D01*
X8847094Y-36794452D02*
X8808912Y-36947179D01*
X8808912Y-36947179D02*
X8808912Y-37061725D01*
X8808912Y-37061725D02*
X8847094Y-37214452D01*
X8847094Y-37214452D02*
X8885276Y-37290816D01*
X8885276Y-37290816D02*
X8961639Y-37367180D01*
X8961639Y-37367180D02*
X9076185Y-37405361D01*
X9076185Y-37405361D02*
X9152549Y-37405361D01*
X9152549Y-37405361D02*
X9267094Y-37367180D01*
X9267094Y-37367180D02*
X9305276Y-37328998D01*
X9305276Y-37328998D02*
X9305276Y-37061725D01*
X9305276Y-37061725D02*
X9152549Y-37061725D01*
X9648913Y-37099907D02*
X10259823Y-37099907D01*
X10641641Y-37405361D02*
X10641641Y-36603542D01*
X10641641Y-36603542D02*
X10908914Y-37176270D01*
X10908914Y-37176270D02*
X11176187Y-36603542D01*
X11176187Y-36603542D02*
X11176187Y-37405361D01*
X11901643Y-36603542D02*
X11748915Y-36603542D01*
X11748915Y-36603542D02*
X11672551Y-36641724D01*
X11672551Y-36641724D02*
X11634370Y-36679906D01*
X11634370Y-36679906D02*
X11558006Y-36794452D01*
X11558006Y-36794452D02*
X11519824Y-36947179D01*
X11519824Y-36947179D02*
X11519824Y-37252634D01*
X11519824Y-37252634D02*
X11558006Y-37328998D01*
X11558006Y-37328998D02*
X11596188Y-37367180D01*
X11596188Y-37367180D02*
X11672551Y-37405361D01*
X11672551Y-37405361D02*
X11825279Y-37405361D01*
X11825279Y-37405361D02*
X11901643Y-37367180D01*
X11901643Y-37367180D02*
X11939824Y-37328998D01*
X11939824Y-37328998D02*
X11978006Y-37252634D01*
X11978006Y-37252634D02*
X11978006Y-37061725D01*
X11978006Y-37061725D02*
X11939824Y-36985361D01*
X11939824Y-36985361D02*
X11901643Y-36947179D01*
X11901643Y-36947179D02*
X11825279Y-36908997D01*
X11825279Y-36908997D02*
X11672551Y-36908997D01*
X11672551Y-36908997D02*
X11596188Y-36947179D01*
X11596188Y-36947179D02*
X11558006Y-36985361D01*
X11558006Y-36985361D02*
X11519824Y-37061725D01*
X12283461Y-36679906D02*
X12321643Y-36641724D01*
X12321643Y-36641724D02*
X12398007Y-36603542D01*
X12398007Y-36603542D02*
X12588916Y-36603542D01*
X12588916Y-36603542D02*
X12665280Y-36641724D01*
X12665280Y-36641724D02*
X12703461Y-36679906D01*
X12703461Y-36679906D02*
X12741643Y-36756270D01*
X12741643Y-36756270D02*
X12741643Y-36832634D01*
X12741643Y-36832634D02*
X12703461Y-36947179D01*
X12703461Y-36947179D02*
X12245279Y-37405361D01*
X12245279Y-37405361D02*
X12741643Y-37405361D01*
X13008916Y-36603542D02*
X13543462Y-36603542D01*
X13543462Y-36603542D02*
X13199825Y-37405361D01*
X13848917Y-37099907D02*
X14459827Y-37099907D01*
X14803463Y-37176270D02*
X15185282Y-37176270D01*
X14727099Y-37405361D02*
X14994372Y-36603542D01*
X14994372Y-36603542D02*
X15261645Y-37405361D01*
X15681645Y-36603542D02*
X15758009Y-36603542D01*
X15758009Y-36603542D02*
X15834373Y-36641724D01*
X15834373Y-36641724D02*
X15872555Y-36679906D01*
X15872555Y-36679906D02*
X15910736Y-36756270D01*
X15910736Y-36756270D02*
X15948918Y-36908997D01*
X15948918Y-36908997D02*
X15948918Y-37099907D01*
X15948918Y-37099907D02*
X15910736Y-37252634D01*
X15910736Y-37252634D02*
X15872555Y-37328998D01*
X15872555Y-37328998D02*
X15834373Y-37367180D01*
X15834373Y-37367180D02*
X15758009Y-37405361D01*
X15758009Y-37405361D02*
X15681645Y-37405361D01*
X15681645Y-37405361D02*
X15605282Y-37367180D01*
X15605282Y-37367180D02*
X15567100Y-37328998D01*
X15567100Y-37328998D02*
X15528918Y-37252634D01*
X15528918Y-37252634D02*
X15490736Y-37099907D01*
X15490736Y-37099907D02*
X15490736Y-36908997D01*
X15490736Y-36908997D02*
X15528918Y-36756270D01*
X15528918Y-36756270D02*
X15567100Y-36679906D01*
X15567100Y-36679906D02*
X15605282Y-36641724D01*
X15605282Y-36641724D02*
X15681645Y-36603542D01*
X16712555Y-37405361D02*
X16254373Y-37405361D01*
X16483464Y-37405361D02*
X16483464Y-36603542D01*
X16483464Y-36603542D02*
X16407100Y-36718088D01*
X16407100Y-36718088D02*
X16330737Y-36794452D01*
X16330737Y-36794452D02*
X16254373Y-36832634D01*
D10*
X29982380Y-26504318D02*
X29982380Y-27532413D01*
X29982380Y-27532413D02*
X30042857Y-27653365D01*
X30042857Y-27653365D02*
X30103333Y-27713842D01*
X30103333Y-27713842D02*
X30224285Y-27774318D01*
X30224285Y-27774318D02*
X30466190Y-27774318D01*
X30466190Y-27774318D02*
X30587142Y-27713842D01*
X30587142Y-27713842D02*
X30647619Y-27653365D01*
X30647619Y-27653365D02*
X30708095Y-27532413D01*
X30708095Y-27532413D02*
X30708095Y-26504318D01*
X31252380Y-26625270D02*
X31312856Y-26564794D01*
X31312856Y-26564794D02*
X31433809Y-26504318D01*
X31433809Y-26504318D02*
X31736190Y-26504318D01*
X31736190Y-26504318D02*
X31857142Y-26564794D01*
X31857142Y-26564794D02*
X31917618Y-26625270D01*
X31917618Y-26625270D02*
X31978095Y-26746222D01*
X31978095Y-26746222D02*
X31978095Y-26867175D01*
X31978095Y-26867175D02*
X31917618Y-27048603D01*
X31917618Y-27048603D02*
X31191904Y-27774318D01*
X31191904Y-27774318D02*
X31978095Y-27774318D01*
D11*
X41907200Y-50997618D02*
X41954819Y-50854761D01*
X41954819Y-50854761D02*
X41954819Y-50616666D01*
X41954819Y-50616666D02*
X41907200Y-50521428D01*
X41907200Y-50521428D02*
X41859580Y-50473809D01*
X41859580Y-50473809D02*
X41764342Y-50426190D01*
X41764342Y-50426190D02*
X41669104Y-50426190D01*
X41669104Y-50426190D02*
X41573866Y-50473809D01*
X41573866Y-50473809D02*
X41526247Y-50521428D01*
X41526247Y-50521428D02*
X41478628Y-50616666D01*
X41478628Y-50616666D02*
X41431009Y-50807142D01*
X41431009Y-50807142D02*
X41383390Y-50902380D01*
X41383390Y-50902380D02*
X41335771Y-50949999D01*
X41335771Y-50949999D02*
X41240533Y-50997618D01*
X41240533Y-50997618D02*
X41145295Y-50997618D01*
X41145295Y-50997618D02*
X41050057Y-50949999D01*
X41050057Y-50949999D02*
X41002438Y-50902380D01*
X41002438Y-50902380D02*
X40954819Y-50807142D01*
X40954819Y-50807142D02*
X40954819Y-50569047D01*
X40954819Y-50569047D02*
X41002438Y-50426190D01*
X40954819Y-50140475D02*
X40954819Y-49569047D01*
X41954819Y-49854761D02*
X40954819Y-49854761D01*
X41954819Y-49235713D02*
X40954819Y-49235713D01*
X40954819Y-49235713D02*
X41669104Y-48902380D01*
X41669104Y-48902380D02*
X40954819Y-48569047D01*
X40954819Y-48569047D02*
X41954819Y-48569047D01*
X40954819Y-48188094D02*
X40954819Y-47569047D01*
X40954819Y-47569047D02*
X41335771Y-47902380D01*
X41335771Y-47902380D02*
X41335771Y-47759523D01*
X41335771Y-47759523D02*
X41383390Y-47664285D01*
X41383390Y-47664285D02*
X41431009Y-47616666D01*
X41431009Y-47616666D02*
X41526247Y-47569047D01*
X41526247Y-47569047D02*
X41764342Y-47569047D01*
X41764342Y-47569047D02*
X41859580Y-47616666D01*
X41859580Y-47616666D02*
X41907200Y-47664285D01*
X41907200Y-47664285D02*
X41954819Y-47759523D01*
X41954819Y-47759523D02*
X41954819Y-48045237D01*
X41954819Y-48045237D02*
X41907200Y-48140475D01*
X41907200Y-48140475D02*
X41859580Y-48188094D01*
X41050057Y-47188094D02*
X41002438Y-47140475D01*
X41002438Y-47140475D02*
X40954819Y-47045237D01*
X40954819Y-47045237D02*
X40954819Y-46807142D01*
X40954819Y-46807142D02*
X41002438Y-46711904D01*
X41002438Y-46711904D02*
X41050057Y-46664285D01*
X41050057Y-46664285D02*
X41145295Y-46616666D01*
X41145295Y-46616666D02*
X41240533Y-46616666D01*
X41240533Y-46616666D02*
X41383390Y-46664285D01*
X41383390Y-46664285D02*
X41954819Y-47235713D01*
X41954819Y-47235713D02*
X41954819Y-46616666D01*
X41954819Y-46188094D02*
X40954819Y-46188094D01*
X40954819Y-46188094D02*
X41669104Y-45854761D01*
X41669104Y-45854761D02*
X40954819Y-45521428D01*
X40954819Y-45521428D02*
X41954819Y-45521428D01*
X41954819Y-45045237D02*
X40954819Y-45045237D01*
X40954819Y-45045237D02*
X40954819Y-44664285D01*
X40954819Y-44664285D02*
X41002438Y-44569047D01*
X41002438Y-44569047D02*
X41050057Y-44521428D01*
X41050057Y-44521428D02*
X41145295Y-44473809D01*
X41145295Y-44473809D02*
X41288152Y-44473809D01*
X41288152Y-44473809D02*
X41383390Y-44521428D01*
X41383390Y-44521428D02*
X41431009Y-44569047D01*
X41431009Y-44569047D02*
X41478628Y-44664285D01*
X41478628Y-44664285D02*
X41478628Y-45045237D01*
X41954819Y-43521428D02*
X41954819Y-44092856D01*
X41954819Y-43807142D02*
X40954819Y-43807142D01*
X40954819Y-43807142D02*
X41097676Y-43902380D01*
X41097676Y-43902380D02*
X41192914Y-43997618D01*
X41192914Y-43997618D02*
X41240533Y-44092856D01*
X40954819Y-43188094D02*
X40954819Y-42569047D01*
X40954819Y-42569047D02*
X41335771Y-42902380D01*
X41335771Y-42902380D02*
X41335771Y-42759523D01*
X41335771Y-42759523D02*
X41383390Y-42664285D01*
X41383390Y-42664285D02*
X41431009Y-42616666D01*
X41431009Y-42616666D02*
X41526247Y-42569047D01*
X41526247Y-42569047D02*
X41764342Y-42569047D01*
X41764342Y-42569047D02*
X41859580Y-42616666D01*
X41859580Y-42616666D02*
X41907200Y-42664285D01*
X41907200Y-42664285D02*
X41954819Y-42759523D01*
X41954819Y-42759523D02*
X41954819Y-43045237D01*
X41954819Y-43045237D02*
X41907200Y-43140475D01*
X41907200Y-43140475D02*
X41859580Y-43188094D01*
X40954819Y-42235713D02*
X40954819Y-41616666D01*
X40954819Y-41616666D02*
X41335771Y-41949999D01*
X41335771Y-41949999D02*
X41335771Y-41807142D01*
X41335771Y-41807142D02*
X41383390Y-41711904D01*
X41383390Y-41711904D02*
X41431009Y-41664285D01*
X41431009Y-41664285D02*
X41526247Y-41616666D01*
X41526247Y-41616666D02*
X41764342Y-41616666D01*
X41764342Y-41616666D02*
X41859580Y-41664285D01*
X41859580Y-41664285D02*
X41907200Y-41711904D01*
X41907200Y-41711904D02*
X41954819Y-41807142D01*
X41954819Y-41807142D02*
X41954819Y-42092856D01*
X41954819Y-42092856D02*
X41907200Y-42188094D01*
X41907200Y-42188094D02*
X41859580Y-42235713D01*
X41954819Y-41188094D02*
X40954819Y-41188094D01*
X40954819Y-41188094D02*
X40954819Y-40949999D01*
X40954819Y-40949999D02*
X41002438Y-40807142D01*
X41002438Y-40807142D02*
X41097676Y-40711904D01*
X41097676Y-40711904D02*
X41192914Y-40664285D01*
X41192914Y-40664285D02*
X41383390Y-40616666D01*
X41383390Y-40616666D02*
X41526247Y-40616666D01*
X41526247Y-40616666D02*
X41716723Y-40664285D01*
X41716723Y-40664285D02*
X41811961Y-40711904D01*
X41811961Y-40711904D02*
X41907200Y-40807142D01*
X41907200Y-40807142D02*
X41954819Y-40949999D01*
X41954819Y-40949999D02*
X41954819Y-41188094D01*
X41669104Y-40235713D02*
X41669104Y-39759523D01*
X41954819Y-40330951D02*
X40954819Y-39997618D01*
X40954819Y-39997618D02*
X41954819Y-39664285D01*
X41431009Y-39330951D02*
X41431009Y-38997618D01*
X41954819Y-38854761D02*
X41954819Y-39330951D01*
X41954819Y-39330951D02*
X40954819Y-39330951D01*
X40954819Y-39330951D02*
X40954819Y-38854761D01*
X40954819Y-38521427D02*
X40954819Y-37854761D01*
X40954819Y-37854761D02*
X41954819Y-38283332D01*
X32954819Y-45211904D02*
X33764342Y-45211904D01*
X33764342Y-45211904D02*
X33859580Y-45164285D01*
X33859580Y-45164285D02*
X33907200Y-45116666D01*
X33907200Y-45116666D02*
X33954819Y-45021428D01*
X33954819Y-45021428D02*
X33954819Y-44830952D01*
X33954819Y-44830952D02*
X33907200Y-44735714D01*
X33907200Y-44735714D02*
X33859580Y-44688095D01*
X33859580Y-44688095D02*
X33764342Y-44640476D01*
X33764342Y-44640476D02*
X32954819Y-44640476D01*
X32954819Y-44259523D02*
X32954819Y-43592857D01*
X32954819Y-43592857D02*
X33954819Y-44021428D01*
X20009719Y-19492957D02*
X20057338Y-19445338D01*
X20057338Y-19445338D02*
X20152576Y-19397719D01*
X20152576Y-19397719D02*
X20390671Y-19397719D01*
X20390671Y-19397719D02*
X20485909Y-19445338D01*
X20485909Y-19445338D02*
X20533528Y-19492957D01*
X20533528Y-19492957D02*
X20581147Y-19588195D01*
X20581147Y-19588195D02*
X20581147Y-19683433D01*
X20581147Y-19683433D02*
X20533528Y-19826290D01*
X20533528Y-19826290D02*
X19962100Y-20397719D01*
X19962100Y-20397719D02*
X20581147Y-20397719D01*
X21009719Y-20302480D02*
X21057338Y-20350100D01*
X21057338Y-20350100D02*
X21009719Y-20397719D01*
X21009719Y-20397719D02*
X20962100Y-20350100D01*
X20962100Y-20350100D02*
X21009719Y-20302480D01*
X21009719Y-20302480D02*
X21009719Y-20397719D01*
X21438290Y-19492957D02*
X21485909Y-19445338D01*
X21485909Y-19445338D02*
X21581147Y-19397719D01*
X21581147Y-19397719D02*
X21819242Y-19397719D01*
X21819242Y-19397719D02*
X21914480Y-19445338D01*
X21914480Y-19445338D02*
X21962099Y-19492957D01*
X21962099Y-19492957D02*
X22009718Y-19588195D01*
X22009718Y-19588195D02*
X22009718Y-19683433D01*
X22009718Y-19683433D02*
X21962099Y-19826290D01*
X21962099Y-19826290D02*
X21390671Y-20397719D01*
X21390671Y-20397719D02*
X22009718Y-20397719D01*
X22866861Y-19731052D02*
X22866861Y-20397719D01*
X22438290Y-19731052D02*
X22438290Y-20254861D01*
X22438290Y-20254861D02*
X22485909Y-20350100D01*
X22485909Y-20350100D02*
X22581147Y-20397719D01*
X22581147Y-20397719D02*
X22724004Y-20397719D01*
X22724004Y-20397719D02*
X22819242Y-20350100D01*
X22819242Y-20350100D02*
X22866861Y-20302480D01*
D12*
X21301385Y-21192665D02*
X21289481Y-21204570D01*
X21289481Y-21204570D02*
X21253766Y-21216474D01*
X21253766Y-21216474D02*
X21229957Y-21216474D01*
X21229957Y-21216474D02*
X21194243Y-21204570D01*
X21194243Y-21204570D02*
X21170433Y-21180760D01*
X21170433Y-21180760D02*
X21158528Y-21156950D01*
X21158528Y-21156950D02*
X21146624Y-21109331D01*
X21146624Y-21109331D02*
X21146624Y-21073617D01*
X21146624Y-21073617D02*
X21158528Y-21025998D01*
X21158528Y-21025998D02*
X21170433Y-21002189D01*
X21170433Y-21002189D02*
X21194243Y-20978379D01*
X21194243Y-20978379D02*
X21229957Y-20966474D01*
X21229957Y-20966474D02*
X21253766Y-20966474D01*
X21253766Y-20966474D02*
X21289481Y-20978379D01*
X21289481Y-20978379D02*
X21301385Y-20990284D01*
X21444243Y-21073617D02*
X21420433Y-21061712D01*
X21420433Y-21061712D02*
X21408528Y-21049808D01*
X21408528Y-21049808D02*
X21396624Y-21025998D01*
X21396624Y-21025998D02*
X21396624Y-21014093D01*
X21396624Y-21014093D02*
X21408528Y-20990284D01*
X21408528Y-20990284D02*
X21420433Y-20978379D01*
X21420433Y-20978379D02*
X21444243Y-20966474D01*
X21444243Y-20966474D02*
X21491862Y-20966474D01*
X21491862Y-20966474D02*
X21515671Y-20978379D01*
X21515671Y-20978379D02*
X21527576Y-20990284D01*
X21527576Y-20990284D02*
X21539481Y-21014093D01*
X21539481Y-21014093D02*
X21539481Y-21025998D01*
X21539481Y-21025998D02*
X21527576Y-21049808D01*
X21527576Y-21049808D02*
X21515671Y-21061712D01*
X21515671Y-21061712D02*
X21491862Y-21073617D01*
X21491862Y-21073617D02*
X21444243Y-21073617D01*
X21444243Y-21073617D02*
X21420433Y-21085522D01*
X21420433Y-21085522D02*
X21408528Y-21097427D01*
X21408528Y-21097427D02*
X21396624Y-21121236D01*
X21396624Y-21121236D02*
X21396624Y-21168855D01*
X21396624Y-21168855D02*
X21408528Y-21192665D01*
X21408528Y-21192665D02*
X21420433Y-21204570D01*
X21420433Y-21204570D02*
X21444243Y-21216474D01*
X21444243Y-21216474D02*
X21491862Y-21216474D01*
X21491862Y-21216474D02*
X21515671Y-21204570D01*
X21515671Y-21204570D02*
X21527576Y-21192665D01*
X21527576Y-21192665D02*
X21539481Y-21168855D01*
X21539481Y-21168855D02*
X21539481Y-21121236D01*
X21539481Y-21121236D02*
X21527576Y-21097427D01*
X21527576Y-21097427D02*
X21515671Y-21085522D01*
X21515671Y-21085522D02*
X21491862Y-21073617D01*
X21634719Y-20990284D02*
X21646623Y-20978379D01*
X21646623Y-20978379D02*
X21670433Y-20966474D01*
X21670433Y-20966474D02*
X21729957Y-20966474D01*
X21729957Y-20966474D02*
X21753766Y-20978379D01*
X21753766Y-20978379D02*
X21765671Y-20990284D01*
X21765671Y-20990284D02*
X21777576Y-21014093D01*
X21777576Y-21014093D02*
X21777576Y-21037903D01*
X21777576Y-21037903D02*
X21765671Y-21073617D01*
X21765671Y-21073617D02*
X21622814Y-21216474D01*
X21622814Y-21216474D02*
X21777576Y-21216474D01*
D11*
X23180966Y-19964804D02*
X23133347Y-19917185D01*
X23133347Y-19917185D02*
X23085728Y-19821947D01*
X23085728Y-19821947D02*
X23180966Y-19631471D01*
X23180966Y-19631471D02*
X23133347Y-19536233D01*
X23133347Y-19536233D02*
X23085728Y-19488614D01*
D12*
X22050674Y-19744566D02*
X22050674Y-19863614D01*
X22050674Y-19863614D02*
X21800674Y-19863614D01*
X21884008Y-19554090D02*
X22050674Y-19554090D01*
X21788770Y-19613614D02*
X21967341Y-19673137D01*
X21967341Y-19673137D02*
X21967341Y-19518376D01*
D10*
X28132380Y-56638842D02*
X28313809Y-56699318D01*
X28313809Y-56699318D02*
X28616190Y-56699318D01*
X28616190Y-56699318D02*
X28737142Y-56638842D01*
X28737142Y-56638842D02*
X28797618Y-56578365D01*
X28797618Y-56578365D02*
X28858095Y-56457413D01*
X28858095Y-56457413D02*
X28858095Y-56336461D01*
X28858095Y-56336461D02*
X28797618Y-56215508D01*
X28797618Y-56215508D02*
X28737142Y-56155032D01*
X28737142Y-56155032D02*
X28616190Y-56094556D01*
X28616190Y-56094556D02*
X28374285Y-56034080D01*
X28374285Y-56034080D02*
X28253333Y-55973603D01*
X28253333Y-55973603D02*
X28192856Y-55913127D01*
X28192856Y-55913127D02*
X28132380Y-55792175D01*
X28132380Y-55792175D02*
X28132380Y-55671222D01*
X28132380Y-55671222D02*
X28192856Y-55550270D01*
X28192856Y-55550270D02*
X28253333Y-55489794D01*
X28253333Y-55489794D02*
X28374285Y-55429318D01*
X28374285Y-55429318D02*
X28676666Y-55429318D01*
X28676666Y-55429318D02*
X28858095Y-55489794D01*
X30067619Y-56699318D02*
X29341904Y-56699318D01*
X29704761Y-56699318D02*
X29704761Y-55429318D01*
X29704761Y-55429318D02*
X29583809Y-55610746D01*
X29583809Y-55610746D02*
X29462857Y-55731699D01*
X29462857Y-55731699D02*
X29341904Y-55792175D01*
X12064318Y-32867619D02*
X13092413Y-32867619D01*
X13092413Y-32867619D02*
X13213365Y-32807142D01*
X13213365Y-32807142D02*
X13273842Y-32746666D01*
X13273842Y-32746666D02*
X13334318Y-32625714D01*
X13334318Y-32625714D02*
X13334318Y-32383809D01*
X13334318Y-32383809D02*
X13273842Y-32262857D01*
X13273842Y-32262857D02*
X13213365Y-32202380D01*
X13213365Y-32202380D02*
X13092413Y-32141904D01*
X13092413Y-32141904D02*
X12064318Y-32141904D01*
X12608603Y-31355714D02*
X12548127Y-31476666D01*
X12548127Y-31476666D02*
X12487651Y-31537143D01*
X12487651Y-31537143D02*
X12366699Y-31597619D01*
X12366699Y-31597619D02*
X12306222Y-31597619D01*
X12306222Y-31597619D02*
X12185270Y-31537143D01*
X12185270Y-31537143D02*
X12124794Y-31476666D01*
X12124794Y-31476666D02*
X12064318Y-31355714D01*
X12064318Y-31355714D02*
X12064318Y-31113809D01*
X12064318Y-31113809D02*
X12124794Y-30992857D01*
X12124794Y-30992857D02*
X12185270Y-30932381D01*
X12185270Y-30932381D02*
X12306222Y-30871904D01*
X12306222Y-30871904D02*
X12366699Y-30871904D01*
X12366699Y-30871904D02*
X12487651Y-30932381D01*
X12487651Y-30932381D02*
X12548127Y-30992857D01*
X12548127Y-30992857D02*
X12608603Y-31113809D01*
X12608603Y-31113809D02*
X12608603Y-31355714D01*
X12608603Y-31355714D02*
X12669080Y-31476666D01*
X12669080Y-31476666D02*
X12729556Y-31537143D01*
X12729556Y-31537143D02*
X12850508Y-31597619D01*
X12850508Y-31597619D02*
X13092413Y-31597619D01*
X13092413Y-31597619D02*
X13213365Y-31537143D01*
X13213365Y-31537143D02*
X13273842Y-31476666D01*
X13273842Y-31476666D02*
X13334318Y-31355714D01*
X13334318Y-31355714D02*
X13334318Y-31113809D01*
X13334318Y-31113809D02*
X13273842Y-30992857D01*
X13273842Y-30992857D02*
X13213365Y-30932381D01*
X13213365Y-30932381D02*
X13092413Y-30871904D01*
X13092413Y-30871904D02*
X12850508Y-30871904D01*
X12850508Y-30871904D02*
X12729556Y-30932381D01*
X12729556Y-30932381D02*
X12669080Y-30992857D01*
X12669080Y-30992857D02*
X12608603Y-31113809D01*
D11*
X17759523Y-12457580D02*
X17711904Y-12505200D01*
X17711904Y-12505200D02*
X17569047Y-12552819D01*
X17569047Y-12552819D02*
X17473809Y-12552819D01*
X17473809Y-12552819D02*
X17330952Y-12505200D01*
X17330952Y-12505200D02*
X17235714Y-12409961D01*
X17235714Y-12409961D02*
X17188095Y-12314723D01*
X17188095Y-12314723D02*
X17140476Y-12124247D01*
X17140476Y-12124247D02*
X17140476Y-11981390D01*
X17140476Y-11981390D02*
X17188095Y-11790914D01*
X17188095Y-11790914D02*
X17235714Y-11695676D01*
X17235714Y-11695676D02*
X17330952Y-11600438D01*
X17330952Y-11600438D02*
X17473809Y-11552819D01*
X17473809Y-11552819D02*
X17569047Y-11552819D01*
X17569047Y-11552819D02*
X17711904Y-11600438D01*
X17711904Y-11600438D02*
X17759523Y-11648057D01*
X18330952Y-12552819D02*
X18235714Y-12505200D01*
X18235714Y-12505200D02*
X18188095Y-12457580D01*
X18188095Y-12457580D02*
X18140476Y-12362342D01*
X18140476Y-12362342D02*
X18140476Y-12076628D01*
X18140476Y-12076628D02*
X18188095Y-11981390D01*
X18188095Y-11981390D02*
X18235714Y-11933771D01*
X18235714Y-11933771D02*
X18330952Y-11886152D01*
X18330952Y-11886152D02*
X18473809Y-11886152D01*
X18473809Y-11886152D02*
X18569047Y-11933771D01*
X18569047Y-11933771D02*
X18616666Y-11981390D01*
X18616666Y-11981390D02*
X18664285Y-12076628D01*
X18664285Y-12076628D02*
X18664285Y-12362342D01*
X18664285Y-12362342D02*
X18616666Y-12457580D01*
X18616666Y-12457580D02*
X18569047Y-12505200D01*
X18569047Y-12505200D02*
X18473809Y-12552819D01*
X18473809Y-12552819D02*
X18330952Y-12552819D01*
X19092857Y-11886152D02*
X19092857Y-12552819D01*
X19092857Y-11981390D02*
X19140476Y-11933771D01*
X19140476Y-11933771D02*
X19235714Y-11886152D01*
X19235714Y-11886152D02*
X19378571Y-11886152D01*
X19378571Y-11886152D02*
X19473809Y-11933771D01*
X19473809Y-11933771D02*
X19521428Y-12029009D01*
X19521428Y-12029009D02*
X19521428Y-12552819D01*
X19997619Y-11886152D02*
X19997619Y-12552819D01*
X19997619Y-11981390D02*
X20045238Y-11933771D01*
X20045238Y-11933771D02*
X20140476Y-11886152D01*
X20140476Y-11886152D02*
X20283333Y-11886152D01*
X20283333Y-11886152D02*
X20378571Y-11933771D01*
X20378571Y-11933771D02*
X20426190Y-12029009D01*
X20426190Y-12029009D02*
X20426190Y-12552819D01*
X20664286Y-12648057D02*
X21426190Y-12648057D01*
X22235714Y-12457580D02*
X22188095Y-12505200D01*
X22188095Y-12505200D02*
X22045238Y-12552819D01*
X22045238Y-12552819D02*
X21950000Y-12552819D01*
X21950000Y-12552819D02*
X21807143Y-12505200D01*
X21807143Y-12505200D02*
X21711905Y-12409961D01*
X21711905Y-12409961D02*
X21664286Y-12314723D01*
X21664286Y-12314723D02*
X21616667Y-12124247D01*
X21616667Y-12124247D02*
X21616667Y-11981390D01*
X21616667Y-11981390D02*
X21664286Y-11790914D01*
X21664286Y-11790914D02*
X21711905Y-11695676D01*
X21711905Y-11695676D02*
X21807143Y-11600438D01*
X21807143Y-11600438D02*
X21950000Y-11552819D01*
X21950000Y-11552819D02*
X22045238Y-11552819D01*
X22045238Y-11552819D02*
X22188095Y-11600438D01*
X22188095Y-11600438D02*
X22235714Y-11648057D01*
X22807143Y-12552819D02*
X22711905Y-12505200D01*
X22711905Y-12505200D02*
X22664286Y-12457580D01*
X22664286Y-12457580D02*
X22616667Y-12362342D01*
X22616667Y-12362342D02*
X22616667Y-12076628D01*
X22616667Y-12076628D02*
X22664286Y-11981390D01*
X22664286Y-11981390D02*
X22711905Y-11933771D01*
X22711905Y-11933771D02*
X22807143Y-11886152D01*
X22807143Y-11886152D02*
X22950000Y-11886152D01*
X22950000Y-11886152D02*
X23045238Y-11933771D01*
X23045238Y-11933771D02*
X23092857Y-11981390D01*
X23092857Y-11981390D02*
X23140476Y-12076628D01*
X23140476Y-12076628D02*
X23140476Y-12362342D01*
X23140476Y-12362342D02*
X23092857Y-12457580D01*
X23092857Y-12457580D02*
X23045238Y-12505200D01*
X23045238Y-12505200D02*
X22950000Y-12552819D01*
X22950000Y-12552819D02*
X22807143Y-12552819D01*
X23997619Y-12552819D02*
X23997619Y-12029009D01*
X23997619Y-12029009D02*
X23950000Y-11933771D01*
X23950000Y-11933771D02*
X23854762Y-11886152D01*
X23854762Y-11886152D02*
X23664286Y-11886152D01*
X23664286Y-11886152D02*
X23569048Y-11933771D01*
X23997619Y-12505200D02*
X23902381Y-12552819D01*
X23902381Y-12552819D02*
X23664286Y-12552819D01*
X23664286Y-12552819D02*
X23569048Y-12505200D01*
X23569048Y-12505200D02*
X23521429Y-12409961D01*
X23521429Y-12409961D02*
X23521429Y-12314723D01*
X23521429Y-12314723D02*
X23569048Y-12219485D01*
X23569048Y-12219485D02*
X23664286Y-12171866D01*
X23664286Y-12171866D02*
X23902381Y-12171866D01*
X23902381Y-12171866D02*
X23997619Y-12124247D01*
X24378572Y-12552819D02*
X24902381Y-11886152D01*
X24378572Y-11886152D02*
X24902381Y-12552819D01*
X25283334Y-12552819D02*
X25283334Y-11886152D01*
X25283334Y-11552819D02*
X25235715Y-11600438D01*
X25235715Y-11600438D02*
X25283334Y-11648057D01*
X25283334Y-11648057D02*
X25330953Y-11600438D01*
X25330953Y-11600438D02*
X25283334Y-11552819D01*
X25283334Y-11552819D02*
X25283334Y-11648057D01*
X26188095Y-12552819D02*
X26188095Y-12029009D01*
X26188095Y-12029009D02*
X26140476Y-11933771D01*
X26140476Y-11933771D02*
X26045238Y-11886152D01*
X26045238Y-11886152D02*
X25854762Y-11886152D01*
X25854762Y-11886152D02*
X25759524Y-11933771D01*
X26188095Y-12505200D02*
X26092857Y-12552819D01*
X26092857Y-12552819D02*
X25854762Y-12552819D01*
X25854762Y-12552819D02*
X25759524Y-12505200D01*
X25759524Y-12505200D02*
X25711905Y-12409961D01*
X25711905Y-12409961D02*
X25711905Y-12314723D01*
X25711905Y-12314723D02*
X25759524Y-12219485D01*
X25759524Y-12219485D02*
X25854762Y-12171866D01*
X25854762Y-12171866D02*
X26092857Y-12171866D01*
X26092857Y-12171866D02*
X26188095Y-12124247D01*
X26807143Y-12552819D02*
X26711905Y-12505200D01*
X26711905Y-12505200D02*
X26664286Y-12409961D01*
X26664286Y-12409961D02*
X26664286Y-11552819D01*
X21616666Y-18354819D02*
X21616666Y-19069104D01*
X21616666Y-19069104D02*
X21569047Y-19211961D01*
X21569047Y-19211961D02*
X21473809Y-19307200D01*
X21473809Y-19307200D02*
X21330952Y-19354819D01*
X21330952Y-19354819D02*
X21235714Y-19354819D01*
X22616666Y-19354819D02*
X22045238Y-19354819D01*
X22330952Y-19354819D02*
X22330952Y-18354819D01*
X22330952Y-18354819D02*
X22235714Y-18497676D01*
X22235714Y-18497676D02*
X22140476Y-18592914D01*
X22140476Y-18592914D02*
X22045238Y-18640533D01*
X28957438Y-16866666D02*
X28909819Y-16961904D01*
X28909819Y-16961904D02*
X28909819Y-17104761D01*
X28909819Y-17104761D02*
X28957438Y-17247618D01*
X28957438Y-17247618D02*
X29052676Y-17342856D01*
X29052676Y-17342856D02*
X29147914Y-17390475D01*
X29147914Y-17390475D02*
X29338390Y-17438094D01*
X29338390Y-17438094D02*
X29481247Y-17438094D01*
X29481247Y-17438094D02*
X29671723Y-17390475D01*
X29671723Y-17390475D02*
X29766961Y-17342856D01*
X29766961Y-17342856D02*
X29862200Y-17247618D01*
X29862200Y-17247618D02*
X29909819Y-17104761D01*
X29909819Y-17104761D02*
X29909819Y-17009523D01*
X29909819Y-17009523D02*
X29862200Y-16866666D01*
X29862200Y-16866666D02*
X29814580Y-16819047D01*
X29814580Y-16819047D02*
X29481247Y-16819047D01*
X29481247Y-16819047D02*
X29481247Y-17009523D01*
X29909819Y-15819047D02*
X29433628Y-16152380D01*
X29909819Y-16390475D02*
X28909819Y-16390475D01*
X28909819Y-16390475D02*
X28909819Y-16009523D01*
X28909819Y-16009523D02*
X28957438Y-15914285D01*
X28957438Y-15914285D02*
X29005057Y-15866666D01*
X29005057Y-15866666D02*
X29100295Y-15819047D01*
X29100295Y-15819047D02*
X29243152Y-15819047D01*
X29243152Y-15819047D02*
X29338390Y-15866666D01*
X29338390Y-15866666D02*
X29386009Y-15914285D01*
X29386009Y-15914285D02*
X29433628Y-16009523D01*
X29433628Y-16009523D02*
X29433628Y-16390475D01*
X29386009Y-15390475D02*
X29386009Y-15057142D01*
X29909819Y-14914285D02*
X29909819Y-15390475D01*
X29909819Y-15390475D02*
X28909819Y-15390475D01*
X28909819Y-15390475D02*
X28909819Y-14914285D01*
X29386009Y-14485713D02*
X29386009Y-14152380D01*
X29909819Y-14009523D02*
X29909819Y-14485713D01*
X29909819Y-14485713D02*
X28909819Y-14485713D01*
X28909819Y-14485713D02*
X28909819Y-14009523D01*
X29909819Y-13580951D02*
X28909819Y-13580951D01*
X28909819Y-13580951D02*
X29909819Y-13009523D01*
X29909819Y-13009523D02*
X28909819Y-13009523D01*
D13*
X28206927Y-15495237D02*
X27806927Y-15495237D01*
X27806927Y-15495237D02*
X27806927Y-15399999D01*
X27806927Y-15399999D02*
X27825975Y-15342856D01*
X27825975Y-15342856D02*
X27864070Y-15304761D01*
X27864070Y-15304761D02*
X27902165Y-15285714D01*
X27902165Y-15285714D02*
X27978356Y-15266666D01*
X27978356Y-15266666D02*
X28035499Y-15266666D01*
X28035499Y-15266666D02*
X28111689Y-15285714D01*
X28111689Y-15285714D02*
X28149784Y-15304761D01*
X28149784Y-15304761D02*
X28187880Y-15342856D01*
X28187880Y-15342856D02*
X28206927Y-15399999D01*
X28206927Y-15399999D02*
X28206927Y-15495237D01*
X27845022Y-15114285D02*
X27825975Y-15095237D01*
X27825975Y-15095237D02*
X27806927Y-15057142D01*
X27806927Y-15057142D02*
X27806927Y-14961904D01*
X27806927Y-14961904D02*
X27825975Y-14923809D01*
X27825975Y-14923809D02*
X27845022Y-14904761D01*
X27845022Y-14904761D02*
X27883118Y-14885714D01*
X27883118Y-14885714D02*
X27921213Y-14885714D01*
X27921213Y-14885714D02*
X27978356Y-14904761D01*
X27978356Y-14904761D02*
X28206927Y-15133333D01*
X28206927Y-15133333D02*
X28206927Y-14885714D01*
D11*
X21200195Y-17216766D02*
X21247814Y-17169147D01*
X21247814Y-17169147D02*
X21343052Y-17121528D01*
X21343052Y-17121528D02*
X21533528Y-17216766D01*
X21533528Y-17216766D02*
X21628766Y-17169147D01*
X21628766Y-17169147D02*
X21676385Y-17121528D01*
D12*
X21301385Y-18392665D02*
X21289481Y-18404570D01*
X21289481Y-18404570D02*
X21253766Y-18416474D01*
X21253766Y-18416474D02*
X21229957Y-18416474D01*
X21229957Y-18416474D02*
X21194243Y-18404570D01*
X21194243Y-18404570D02*
X21170433Y-18380760D01*
X21170433Y-18380760D02*
X21158528Y-18356950D01*
X21158528Y-18356950D02*
X21146624Y-18309331D01*
X21146624Y-18309331D02*
X21146624Y-18273617D01*
X21146624Y-18273617D02*
X21158528Y-18225998D01*
X21158528Y-18225998D02*
X21170433Y-18202189D01*
X21170433Y-18202189D02*
X21194243Y-18178379D01*
X21194243Y-18178379D02*
X21229957Y-18166474D01*
X21229957Y-18166474D02*
X21253766Y-18166474D01*
X21253766Y-18166474D02*
X21289481Y-18178379D01*
X21289481Y-18178379D02*
X21301385Y-18190284D01*
X21444243Y-18273617D02*
X21420433Y-18261712D01*
X21420433Y-18261712D02*
X21408528Y-18249808D01*
X21408528Y-18249808D02*
X21396624Y-18225998D01*
X21396624Y-18225998D02*
X21396624Y-18214093D01*
X21396624Y-18214093D02*
X21408528Y-18190284D01*
X21408528Y-18190284D02*
X21420433Y-18178379D01*
X21420433Y-18178379D02*
X21444243Y-18166474D01*
X21444243Y-18166474D02*
X21491862Y-18166474D01*
X21491862Y-18166474D02*
X21515671Y-18178379D01*
X21515671Y-18178379D02*
X21527576Y-18190284D01*
X21527576Y-18190284D02*
X21539481Y-18214093D01*
X21539481Y-18214093D02*
X21539481Y-18225998D01*
X21539481Y-18225998D02*
X21527576Y-18249808D01*
X21527576Y-18249808D02*
X21515671Y-18261712D01*
X21515671Y-18261712D02*
X21491862Y-18273617D01*
X21491862Y-18273617D02*
X21444243Y-18273617D01*
X21444243Y-18273617D02*
X21420433Y-18285522D01*
X21420433Y-18285522D02*
X21408528Y-18297427D01*
X21408528Y-18297427D02*
X21396624Y-18321236D01*
X21396624Y-18321236D02*
X21396624Y-18368855D01*
X21396624Y-18368855D02*
X21408528Y-18392665D01*
X21408528Y-18392665D02*
X21420433Y-18404570D01*
X21420433Y-18404570D02*
X21444243Y-18416474D01*
X21444243Y-18416474D02*
X21491862Y-18416474D01*
X21491862Y-18416474D02*
X21515671Y-18404570D01*
X21515671Y-18404570D02*
X21527576Y-18392665D01*
X21527576Y-18392665D02*
X21539481Y-18368855D01*
X21539481Y-18368855D02*
X21539481Y-18321236D01*
X21539481Y-18321236D02*
X21527576Y-18297427D01*
X21527576Y-18297427D02*
X21515671Y-18285522D01*
X21515671Y-18285522D02*
X21491862Y-18273617D01*
X21777576Y-18416474D02*
X21634719Y-18416474D01*
X21706147Y-18416474D02*
X21706147Y-18166474D01*
X21706147Y-18166474D02*
X21682338Y-18202189D01*
X21682338Y-18202189D02*
X21658528Y-18225998D01*
X21658528Y-18225998D02*
X21634719Y-18237903D01*
D11*
X31384819Y-15855357D02*
X30908628Y-16188690D01*
X31384819Y-16426785D02*
X30384819Y-16426785D01*
X30384819Y-16426785D02*
X30384819Y-16045833D01*
X30384819Y-16045833D02*
X30432438Y-15950595D01*
X30432438Y-15950595D02*
X30480057Y-15902976D01*
X30480057Y-15902976D02*
X30575295Y-15855357D01*
X30575295Y-15855357D02*
X30718152Y-15855357D01*
X30718152Y-15855357D02*
X30813390Y-15902976D01*
X30813390Y-15902976D02*
X30861009Y-15950595D01*
X30861009Y-15950595D02*
X30908628Y-16045833D01*
X30908628Y-16045833D02*
X30908628Y-16426785D01*
X30861009Y-15426785D02*
X30861009Y-15093452D01*
X31384819Y-14950595D02*
X31384819Y-15426785D01*
X31384819Y-15426785D02*
X30384819Y-15426785D01*
X30384819Y-15426785D02*
X30384819Y-14950595D01*
X31384819Y-14522023D02*
X30384819Y-14522023D01*
X30384819Y-14522023D02*
X30384819Y-14283928D01*
X30384819Y-14283928D02*
X30432438Y-14141071D01*
X30432438Y-14141071D02*
X30527676Y-14045833D01*
X30527676Y-14045833D02*
X30622914Y-13998214D01*
X30622914Y-13998214D02*
X30813390Y-13950595D01*
X30813390Y-13950595D02*
X30956247Y-13950595D01*
X30956247Y-13950595D02*
X31146723Y-13998214D01*
X31146723Y-13998214D02*
X31241961Y-14045833D01*
X31241961Y-14045833D02*
X31337200Y-14141071D01*
X31337200Y-14141071D02*
X31384819Y-14283928D01*
X31384819Y-14283928D02*
X31384819Y-14522023D01*
D13*
X29681927Y-15507737D02*
X29281927Y-15507737D01*
X29281927Y-15507737D02*
X29281927Y-15412499D01*
X29281927Y-15412499D02*
X29300975Y-15355356D01*
X29300975Y-15355356D02*
X29339070Y-15317261D01*
X29339070Y-15317261D02*
X29377165Y-15298214D01*
X29377165Y-15298214D02*
X29453356Y-15279166D01*
X29453356Y-15279166D02*
X29510499Y-15279166D01*
X29510499Y-15279166D02*
X29586689Y-15298214D01*
X29586689Y-15298214D02*
X29624784Y-15317261D01*
X29624784Y-15317261D02*
X29662880Y-15355356D01*
X29662880Y-15355356D02*
X29681927Y-15412499D01*
X29681927Y-15412499D02*
X29681927Y-15507737D01*
X29281927Y-15145833D02*
X29281927Y-14898214D01*
X29281927Y-14898214D02*
X29434308Y-15031547D01*
X29434308Y-15031547D02*
X29434308Y-14974404D01*
X29434308Y-14974404D02*
X29453356Y-14936309D01*
X29453356Y-14936309D02*
X29472403Y-14917261D01*
X29472403Y-14917261D02*
X29510499Y-14898214D01*
X29510499Y-14898214D02*
X29605737Y-14898214D01*
X29605737Y-14898214D02*
X29643832Y-14917261D01*
X29643832Y-14917261D02*
X29662880Y-14936309D01*
X29662880Y-14936309D02*
X29681927Y-14974404D01*
X29681927Y-14974404D02*
X29681927Y-15088690D01*
X29681927Y-15088690D02*
X29662880Y-15126785D01*
X29662880Y-15126785D02*
X29643832Y-15145833D01*
D11*
X32361009Y-16509523D02*
X32408628Y-16366666D01*
X32408628Y-16366666D02*
X32456247Y-16319047D01*
X32456247Y-16319047D02*
X32551485Y-16271428D01*
X32551485Y-16271428D02*
X32694342Y-16271428D01*
X32694342Y-16271428D02*
X32789580Y-16319047D01*
X32789580Y-16319047D02*
X32837200Y-16366666D01*
X32837200Y-16366666D02*
X32884819Y-16461904D01*
X32884819Y-16461904D02*
X32884819Y-16842856D01*
X32884819Y-16842856D02*
X31884819Y-16842856D01*
X31884819Y-16842856D02*
X31884819Y-16509523D01*
X31884819Y-16509523D02*
X31932438Y-16414285D01*
X31932438Y-16414285D02*
X31980057Y-16366666D01*
X31980057Y-16366666D02*
X32075295Y-16319047D01*
X32075295Y-16319047D02*
X32170533Y-16319047D01*
X32170533Y-16319047D02*
X32265771Y-16366666D01*
X32265771Y-16366666D02*
X32313390Y-16414285D01*
X32313390Y-16414285D02*
X32361009Y-16509523D01*
X32361009Y-16509523D02*
X32361009Y-16842856D01*
X32884819Y-15366666D02*
X32884819Y-15842856D01*
X32884819Y-15842856D02*
X31884819Y-15842856D01*
X31884819Y-15033332D02*
X32694342Y-15033332D01*
X32694342Y-15033332D02*
X32789580Y-14985713D01*
X32789580Y-14985713D02*
X32837200Y-14938094D01*
X32837200Y-14938094D02*
X32884819Y-14842856D01*
X32884819Y-14842856D02*
X32884819Y-14652380D01*
X32884819Y-14652380D02*
X32837200Y-14557142D01*
X32837200Y-14557142D02*
X32789580Y-14509523D01*
X32789580Y-14509523D02*
X32694342Y-14461904D01*
X32694342Y-14461904D02*
X31884819Y-14461904D01*
X32361009Y-13985713D02*
X32361009Y-13652380D01*
X32884819Y-13509523D02*
X32884819Y-13985713D01*
X32884819Y-13985713D02*
X31884819Y-13985713D01*
X31884819Y-13985713D02*
X31884819Y-13509523D01*
D13*
X31181927Y-15495237D02*
X30781927Y-15495237D01*
X30781927Y-15495237D02*
X30781927Y-15399999D01*
X30781927Y-15399999D02*
X30800975Y-15342856D01*
X30800975Y-15342856D02*
X30839070Y-15304761D01*
X30839070Y-15304761D02*
X30877165Y-15285714D01*
X30877165Y-15285714D02*
X30953356Y-15266666D01*
X30953356Y-15266666D02*
X31010499Y-15266666D01*
X31010499Y-15266666D02*
X31086689Y-15285714D01*
X31086689Y-15285714D02*
X31124784Y-15304761D01*
X31124784Y-15304761D02*
X31162880Y-15342856D01*
X31162880Y-15342856D02*
X31181927Y-15399999D01*
X31181927Y-15399999D02*
X31181927Y-15495237D01*
X30781927Y-14904761D02*
X30781927Y-15095237D01*
X30781927Y-15095237D02*
X30972403Y-15114285D01*
X30972403Y-15114285D02*
X30953356Y-15095237D01*
X30953356Y-15095237D02*
X30934308Y-15057142D01*
X30934308Y-15057142D02*
X30934308Y-14961904D01*
X30934308Y-14961904D02*
X30953356Y-14923809D01*
X30953356Y-14923809D02*
X30972403Y-14904761D01*
X30972403Y-14904761D02*
X31010499Y-14885714D01*
X31010499Y-14885714D02*
X31105737Y-14885714D01*
X31105737Y-14885714D02*
X31143832Y-14904761D01*
X31143832Y-14904761D02*
X31162880Y-14923809D01*
X31162880Y-14923809D02*
X31181927Y-14961904D01*
X31181927Y-14961904D02*
X31181927Y-15057142D01*
X31181927Y-15057142D02*
X31162880Y-15095237D01*
X31162880Y-15095237D02*
X31143832Y-15114285D01*
D10*
X12249318Y-24214762D02*
X10979318Y-24214762D01*
X12128365Y-22884285D02*
X12188842Y-22944761D01*
X12188842Y-22944761D02*
X12249318Y-23126190D01*
X12249318Y-23126190D02*
X12249318Y-23247142D01*
X12249318Y-23247142D02*
X12188842Y-23428571D01*
X12188842Y-23428571D02*
X12067889Y-23549523D01*
X12067889Y-23549523D02*
X11946937Y-23610000D01*
X11946937Y-23610000D02*
X11705032Y-23670476D01*
X11705032Y-23670476D02*
X11523603Y-23670476D01*
X11523603Y-23670476D02*
X11281699Y-23610000D01*
X11281699Y-23610000D02*
X11160746Y-23549523D01*
X11160746Y-23549523D02*
X11039794Y-23428571D01*
X11039794Y-23428571D02*
X10979318Y-23247142D01*
X10979318Y-23247142D02*
X10979318Y-23126190D01*
X10979318Y-23126190D02*
X11039794Y-22944761D01*
X11039794Y-22944761D02*
X11100270Y-22884285D01*
X12249318Y-21674761D02*
X12249318Y-22400476D01*
X12249318Y-22037619D02*
X10979318Y-22037619D01*
X10979318Y-22037619D02*
X11160746Y-22158571D01*
X11160746Y-22158571D02*
X11281699Y-22279523D01*
X11281699Y-22279523D02*
X11342175Y-22400476D01*
D14*
%TO.C,S2*%
X35450000Y-54675000D02*
X39450000Y-54675000D01*
X35450000Y-57575000D02*
X35450000Y-54675000D01*
X39450000Y-54675000D02*
X39450000Y-57575000D01*
X39450000Y-57575000D02*
X35450000Y-57575000D01*
D15*
%TO.C,U10*%
X13350000Y-37925000D02*
X13350000Y-50925000D01*
X13350000Y-50925000D02*
X24850000Y-50925000D01*
X24850000Y-37925000D02*
X13350000Y-37925000D01*
X24850000Y-50925000D02*
X24850000Y-37925000D01*
D14*
%TO.C,U2*%
X27200000Y-20550000D02*
X34700000Y-20550000D01*
X27200000Y-23900000D02*
X30550000Y-20550000D01*
X27200000Y-33850000D02*
X27200000Y-20550000D01*
X34700000Y-20550000D02*
X34700000Y-33850000D01*
X34700000Y-33850000D02*
X27200000Y-33850000D01*
%TO.C,U7*%
X26500000Y-37450000D02*
X40500000Y-37450000D01*
X26500000Y-50450000D02*
X26500000Y-37450000D01*
X27500000Y-51450000D02*
X26500000Y-50450000D01*
X40500000Y-37450000D02*
X40500000Y-51450000D01*
X40500000Y-51450000D02*
X27500000Y-51450000D01*
%TO.C,C82*%
X20962100Y-20852900D02*
X21962100Y-20852900D01*
X20962100Y-21352900D02*
X20962100Y-20852900D01*
X21962100Y-20852900D02*
X21962100Y-21352900D01*
X21962100Y-21352900D02*
X20962100Y-21352900D01*
%TO.C,L4*%
X21687100Y-19202900D02*
X22187100Y-19202900D01*
X21687100Y-20202900D02*
X21687100Y-19202900D01*
X22187100Y-19202900D02*
X22187100Y-20202900D01*
X22187100Y-20202900D02*
X21687100Y-20202900D01*
%TO.C,S1*%
X27100000Y-54675000D02*
X31100000Y-54675000D01*
X27100000Y-57575000D02*
X27100000Y-54675000D01*
X31100000Y-54675000D02*
X31100000Y-57575000D01*
X31100000Y-57575000D02*
X27100000Y-57575000D01*
%TO.C,U8*%
X14060000Y-27800000D02*
X20060000Y-27800000D01*
X14060000Y-35800000D02*
X14060000Y-27800000D01*
X18060000Y-27800000D02*
X20060000Y-29800000D01*
X20060000Y-27800000D02*
X20060000Y-35800000D01*
X20060000Y-35800000D02*
X14060000Y-35800000D01*
%TO.C,J1*%
X20650000Y-16700000D02*
X20650000Y-14100000D01*
X21950000Y-14400000D02*
X21650000Y-14100000D01*
X22250000Y-14100000D02*
X21950000Y-14400000D01*
X22950000Y-14100000D02*
X20650000Y-14100000D01*
X23250000Y-14400000D02*
X22950000Y-14100000D01*
X23250000Y-16700000D02*
X20650000Y-16700000D01*
X23250000Y-16700000D02*
X23250000Y-14400000D01*
X22850000Y-15400000D02*
G75*
G02*
X21050000Y-15400000I-900000J0D01*
G01*
X21050000Y-15400000D02*
G75*
G02*
X22850000Y-15400000I900000J0D01*
G01*
X22150000Y-15400000D02*
G75*
G02*
X21750000Y-15400000I-200000J0D01*
G01*
X21750000Y-15400000D02*
G75*
G02*
X22150000Y-15400000I200000J0D01*
G01*
X22075000Y-15400000D02*
G75*
G02*
X21825000Y-15400000I-125000J0D01*
G01*
X21825000Y-15400000D02*
G75*
G02*
X22075000Y-15400000I125000J0D01*
G01*
X22000000Y-15400000D02*
G75*
G02*
X21900000Y-15400000I-50000J0D01*
G01*
X21900000Y-15400000D02*
G75*
G02*
X22000000Y-15400000I50000J0D01*
G01*
%TO.C,D2*%
X27625000Y-14400000D02*
X27625000Y-15700000D01*
X27625000Y-15700000D02*
X27925000Y-16000000D01*
X27925000Y-16000000D02*
X28425000Y-16000000D01*
X28425000Y-14400000D02*
X27625000Y-14400000D01*
X28425000Y-16000000D02*
X28425000Y-14400000D01*
%TO.C,C81*%
X20962100Y-18052900D02*
X21962100Y-18052900D01*
X20962100Y-18552900D02*
X20962100Y-18052900D01*
X21962100Y-18052900D02*
X21962100Y-18552900D01*
X21962100Y-18552900D02*
X20962100Y-18552900D01*
%TO.C,D3*%
X29100000Y-14412500D02*
X29100000Y-15712500D01*
X29100000Y-15712500D02*
X29400000Y-16012500D01*
X29400000Y-16012500D02*
X29900000Y-16012500D01*
X29900000Y-14412500D02*
X29100000Y-14412500D01*
X29900000Y-16012500D02*
X29900000Y-14412500D01*
%TO.C,D5*%
X30600000Y-14400000D02*
X30600000Y-15700000D01*
X30600000Y-15700000D02*
X30900000Y-16000000D01*
X30900000Y-16000000D02*
X31400000Y-16000000D01*
X31400000Y-14400000D02*
X30600000Y-14400000D01*
X31400000Y-16000000D02*
X31400000Y-14400000D01*
%TO.C,IC1*%
X15175000Y-20975000D02*
X19175000Y-20975000D01*
X15175000Y-24975000D02*
X15175000Y-20975000D01*
X15575000Y-24975000D02*
X15175000Y-24575000D01*
X19175000Y-20975000D02*
X19175000Y-24975000D01*
X19175000Y-24975000D02*
X15175000Y-24975000D01*
%TD*%
M02*
