%TF.GenerationSoftware,KiCad,Pcbnew,9.0.3*%
%TF.CreationDate,2025-09-05T02:51:16+03:00*%
%TF.ProjectId,ThingsCore-1,5468696e-6773-4436-9f72-652d312e6b69,rev?*%
%TF.SameCoordinates,Original*%
%TF.FileFunction,Legend,Top*%
%TF.FilePolarity,Positive*%
%FSLAX46Y46*%
G04 Gerber Fmt 4.6, Leading zero omitted, Abs format (unit mm)*
G04 Created by KiCad (PCBNEW 9.0.3) date 2025-09-05 02:51:16*
%MOMM*%
%LPD*%
G01*
G04 APERTURE LIST*
%ADD10C,0.254000*%
%ADD11C,0.150000*%
%ADD12C,0.200000*%
%ADD13C,0.100000*%
%ADD14C,0.127000*%
%ADD15C,0.120000*%
%ADD16C,0.250000*%
G04 APERTURE END LIST*
D10*
X36482380Y-56638842D02*
X36663809Y-56699318D01*
X36663809Y-56699318D02*
X36966190Y-56699318D01*
X36966190Y-56699318D02*
X37087142Y-56638842D01*
X37087142Y-56638842D02*
X37147618Y-56578365D01*
X37147618Y-56578365D02*
X37208095Y-56457413D01*
X37208095Y-56457413D02*
X37208095Y-56336461D01*
X37208095Y-56336461D02*
X37147618Y-56215508D01*
X37147618Y-56215508D02*
X37087142Y-56155032D01*
X37087142Y-56155032D02*
X36966190Y-56094556D01*
X36966190Y-56094556D02*
X36724285Y-56034080D01*
X36724285Y-56034080D02*
X36603333Y-55973603D01*
X36603333Y-55973603D02*
X36542856Y-55913127D01*
X36542856Y-55913127D02*
X36482380Y-55792175D01*
X36482380Y-55792175D02*
X36482380Y-55671222D01*
X36482380Y-55671222D02*
X36542856Y-55550270D01*
X36542856Y-55550270D02*
X36603333Y-55489794D01*
X36603333Y-55489794D02*
X36724285Y-55429318D01*
X36724285Y-55429318D02*
X37026666Y-55429318D01*
X37026666Y-55429318D02*
X37208095Y-55489794D01*
X37691904Y-55550270D02*
X37752380Y-55489794D01*
X37752380Y-55489794D02*
X37873333Y-55429318D01*
X37873333Y-55429318D02*
X38175714Y-55429318D01*
X38175714Y-55429318D02*
X38296666Y-55489794D01*
X38296666Y-55489794D02*
X38357142Y-55550270D01*
X38357142Y-55550270D02*
X38417619Y-55671222D01*
X38417619Y-55671222D02*
X38417619Y-55792175D01*
X38417619Y-55792175D02*
X38357142Y-55973603D01*
X38357142Y-55973603D02*
X37631428Y-56699318D01*
X37631428Y-56699318D02*
X38417619Y-56699318D01*
X29932380Y-18754318D02*
X29932380Y-19782413D01*
X29932380Y-19782413D02*
X29992857Y-19903365D01*
X29992857Y-19903365D02*
X30053333Y-19963842D01*
X30053333Y-19963842D02*
X30174285Y-20024318D01*
X30174285Y-20024318D02*
X30416190Y-20024318D01*
X30416190Y-20024318D02*
X30537142Y-19963842D01*
X30537142Y-19963842D02*
X30597619Y-19903365D01*
X30597619Y-19903365D02*
X30658095Y-19782413D01*
X30658095Y-19782413D02*
X30658095Y-18754318D01*
X31202380Y-18875270D02*
X31262856Y-18814794D01*
X31262856Y-18814794D02*
X31383809Y-18754318D01*
X31383809Y-18754318D02*
X31686190Y-18754318D01*
X31686190Y-18754318D02*
X31807142Y-18814794D01*
X31807142Y-18814794D02*
X31867618Y-18875270D01*
X31867618Y-18875270D02*
X31928095Y-18996222D01*
X31928095Y-18996222D02*
X31928095Y-19117175D01*
X31928095Y-19117175D02*
X31867618Y-19298603D01*
X31867618Y-19298603D02*
X31141904Y-20024318D01*
X31141904Y-20024318D02*
X31928095Y-20024318D01*
D11*
X25054819Y-47411904D02*
X25864342Y-47411904D01*
X25864342Y-47411904D02*
X25959580Y-47364285D01*
X25959580Y-47364285D02*
X26007200Y-47316666D01*
X26007200Y-47316666D02*
X26054819Y-47221428D01*
X26054819Y-47221428D02*
X26054819Y-47030952D01*
X26054819Y-47030952D02*
X26007200Y-46935714D01*
X26007200Y-46935714D02*
X25959580Y-46888095D01*
X25959580Y-46888095D02*
X25864342Y-46840476D01*
X25864342Y-46840476D02*
X25054819Y-46840476D01*
X25054819Y-46459523D02*
X25054819Y-45792857D01*
X25054819Y-45792857D02*
X26054819Y-46221428D01*
D10*
X28132380Y-56638842D02*
X28313809Y-56699318D01*
X28313809Y-56699318D02*
X28616190Y-56699318D01*
X28616190Y-56699318D02*
X28737142Y-56638842D01*
X28737142Y-56638842D02*
X28797618Y-56578365D01*
X28797618Y-56578365D02*
X28858095Y-56457413D01*
X28858095Y-56457413D02*
X28858095Y-56336461D01*
X28858095Y-56336461D02*
X28797618Y-56215508D01*
X28797618Y-56215508D02*
X28737142Y-56155032D01*
X28737142Y-56155032D02*
X28616190Y-56094556D01*
X28616190Y-56094556D02*
X28374285Y-56034080D01*
X28374285Y-56034080D02*
X28253333Y-55973603D01*
X28253333Y-55973603D02*
X28192856Y-55913127D01*
X28192856Y-55913127D02*
X28132380Y-55792175D01*
X28132380Y-55792175D02*
X28132380Y-55671222D01*
X28132380Y-55671222D02*
X28192856Y-55550270D01*
X28192856Y-55550270D02*
X28253333Y-55489794D01*
X28253333Y-55489794D02*
X28374285Y-55429318D01*
X28374285Y-55429318D02*
X28676666Y-55429318D01*
X28676666Y-55429318D02*
X28858095Y-55489794D01*
X30067619Y-56699318D02*
X29341904Y-56699318D01*
X29704761Y-56699318D02*
X29704761Y-55429318D01*
X29704761Y-55429318D02*
X29583809Y-55610746D01*
X29583809Y-55610746D02*
X29462857Y-55731699D01*
X29462857Y-55731699D02*
X29341904Y-55792175D01*
X14249318Y-25214762D02*
X12979318Y-25214762D01*
X14128365Y-23884285D02*
X14188842Y-23944761D01*
X14188842Y-23944761D02*
X14249318Y-24126190D01*
X14249318Y-24126190D02*
X14249318Y-24247142D01*
X14249318Y-24247142D02*
X14188842Y-24428571D01*
X14188842Y-24428571D02*
X14067889Y-24549523D01*
X14067889Y-24549523D02*
X13946937Y-24610000D01*
X13946937Y-24610000D02*
X13705032Y-24670476D01*
X13705032Y-24670476D02*
X13523603Y-24670476D01*
X13523603Y-24670476D02*
X13281699Y-24610000D01*
X13281699Y-24610000D02*
X13160746Y-24549523D01*
X13160746Y-24549523D02*
X13039794Y-24428571D01*
X13039794Y-24428571D02*
X12979318Y-24247142D01*
X12979318Y-24247142D02*
X12979318Y-24126190D01*
X12979318Y-24126190D02*
X13039794Y-23944761D01*
X13039794Y-23944761D02*
X13100270Y-23884285D01*
X14249318Y-22674761D02*
X14249318Y-23400476D01*
X14249318Y-23037619D02*
X12979318Y-23037619D01*
X12979318Y-23037619D02*
X13160746Y-23158571D01*
X13160746Y-23158571D02*
X13281699Y-23279523D01*
X13281699Y-23279523D02*
X13342175Y-23400476D01*
D12*
%TO.C,S2*%
X39450000Y-54675000D02*
X35450000Y-54675000D01*
X39450000Y-57575000D02*
X35450000Y-57575000D01*
D13*
X39750000Y-57425000D02*
X39750000Y-57425000D01*
X39850000Y-57425000D02*
X39850000Y-57425000D01*
X39750000Y-57425000D02*
G75*
G02*
X39850000Y-57425000I50000J0D01*
G01*
X39850000Y-57425000D02*
G75*
G02*
X39750000Y-57425000I-50000J0D01*
G01*
D14*
%TO.C,U10*%
X13350000Y-37925000D02*
X13350000Y-50925000D01*
X13350000Y-50925000D02*
X24850000Y-50925000D01*
X24850000Y-37925000D02*
X13350000Y-37925000D01*
X24850000Y-50925000D02*
X24850000Y-37925000D01*
D12*
X25871000Y-47615000D02*
G75*
G02*
X25671000Y-47615000I-100000J0D01*
G01*
X25671000Y-47615000D02*
G75*
G02*
X25871000Y-47615000I100000J0D01*
G01*
%TO.C,U2*%
X27175000Y-21200000D02*
X27825000Y-20550000D01*
X27175000Y-33850000D02*
X27175000Y-21200000D01*
X27825000Y-20550000D02*
X34725000Y-20550000D01*
X34725000Y-20550000D02*
X34725000Y-33850000D01*
X34725000Y-33850000D02*
X27175000Y-33850000D01*
X27275000Y-20550000D02*
G75*
G02*
X27075000Y-20550000I-100000J0D01*
G01*
X27075000Y-20550000D02*
G75*
G02*
X27275000Y-20550000I100000J0D01*
G01*
D15*
%TO.C,U7*%
X26390000Y-37340000D02*
X40610000Y-37340000D01*
X26390000Y-50560000D02*
X26390000Y-37340000D01*
X40610000Y-37340000D02*
X40610000Y-51560000D01*
X40610000Y-51560000D02*
X27390000Y-51560000D01*
X26390000Y-52060000D02*
X25890000Y-51560000D01*
X26390000Y-51560000D01*
X26390000Y-52060000D01*
G36*
X26390000Y-52060000D02*
G01*
X25890000Y-51560000D01*
X26390000Y-51560000D01*
X26390000Y-52060000D01*
G37*
%TO.C,C82*%
X21569936Y-20742900D02*
X21354264Y-20742900D01*
X21569936Y-21462900D02*
X21354264Y-21462900D01*
D13*
%TO.C,S1*%
X26700000Y-54825000D02*
X26700000Y-54825000D01*
X26800000Y-54825000D02*
X26800000Y-54825000D01*
D12*
X27100000Y-54675000D02*
X31100000Y-54675000D01*
X27100000Y-57575000D02*
X31100000Y-57575000D01*
D13*
X26700000Y-54825000D02*
G75*
G02*
X26800000Y-54825000I50000J0D01*
G01*
X26800000Y-54825000D02*
G75*
G02*
X26700000Y-54825000I-50000J0D01*
G01*
D16*
%TO.C,U8*%
X19815000Y-27425000D02*
G75*
G02*
X19565000Y-27425000I-125000J0D01*
G01*
X19565000Y-27425000D02*
G75*
G02*
X19815000Y-27425000I125000J0D01*
G01*
D15*
%TO.C,J1*%
X20450000Y-13900000D02*
X21250000Y-13900000D01*
X20450000Y-14100000D02*
X20450000Y-13900000D01*
X20450000Y-16900000D02*
X20450000Y-16700000D01*
X21250000Y-13900000D02*
X21250000Y-13400000D01*
X21250000Y-16900000D02*
X20450000Y-16900000D01*
X22650000Y-13900000D02*
X22650000Y-13400000D01*
X22650000Y-13900000D02*
X23250000Y-13900000D01*
X23250000Y-13900000D02*
X23450000Y-14100000D01*
X23450000Y-16700000D02*
X23450000Y-16900000D01*
X23450000Y-16900000D02*
X22650000Y-16900000D01*
%TO.C,D2*%
X27290000Y-14400000D02*
X27290000Y-16685000D01*
X27290000Y-16685000D02*
X28760000Y-16685000D01*
X28760000Y-16685000D02*
X28760000Y-14400000D01*
%TO.C,C81*%
X21569936Y-17942900D02*
X21354264Y-17942900D01*
X21569936Y-18662900D02*
X21354264Y-18662900D01*
%TO.C,D3*%
X28765000Y-14412500D02*
X28765000Y-16697500D01*
X28765000Y-16697500D02*
X30235000Y-16697500D01*
X30235000Y-16697500D02*
X30235000Y-14412500D01*
%TO.C,D5*%
X30265000Y-14400000D02*
X30265000Y-16685000D01*
X30265000Y-16685000D02*
X31735000Y-16685000D01*
X31735000Y-16685000D02*
X31735000Y-14400000D01*
D12*
%TO.C,IC1*%
X15275000Y-25350000D02*
G75*
G02*
X15075000Y-25350000I-100000J0D01*
G01*
X15075000Y-25350000D02*
G75*
G02*
X15275000Y-25350000I100000J0D01*
G01*
%TD*%
M02*
