%TF.GenerationSoftware,KiCad,Pcbnew,9.0.3*%
%TF.CreationDate,2025-09-01T16:13:13+03:00*%
%TF.ProjectId,ThingsCore-1,5468696e-6773-4436-9f72-652d312e6b69,rev?*%
%TF.SameCoordinates,Original*%
%TF.FileFunction,Legend,Top*%
%TF.FilePolarity,Positive*%
%FSLAX46Y46*%
G04 Gerber Fmt 4.6, Leading zero omitted, Abs format (unit mm)*
G04 Created by KiCad (PCBNEW 9.0.3) date 2025-09-01 16:13:13*
%MOMM*%
%LPD*%
G01*
G04 APERTURE LIST*
%ADD10C,0.254000*%
%ADD11C,0.150000*%
%ADD12C,0.100000*%
%ADD13C,0.200000*%
%ADD14C,0.250000*%
%ADD15C,0.120000*%
%ADD16C,0.127000*%
G04 APERTURE END LIST*
D10*
X14249318Y-25214762D02*
X12979318Y-25214762D01*
X14128365Y-23884285D02*
X14188842Y-23944761D01*
X14188842Y-23944761D02*
X14249318Y-24126190D01*
X14249318Y-24126190D02*
X14249318Y-24247142D01*
X14249318Y-24247142D02*
X14188842Y-24428571D01*
X14188842Y-24428571D02*
X14067889Y-24549523D01*
X14067889Y-24549523D02*
X13946937Y-24610000D01*
X13946937Y-24610000D02*
X13705032Y-24670476D01*
X13705032Y-24670476D02*
X13523603Y-24670476D01*
X13523603Y-24670476D02*
X13281699Y-24610000D01*
X13281699Y-24610000D02*
X13160746Y-24549523D01*
X13160746Y-24549523D02*
X13039794Y-24428571D01*
X13039794Y-24428571D02*
X12979318Y-24247142D01*
X12979318Y-24247142D02*
X12979318Y-24126190D01*
X12979318Y-24126190D02*
X13039794Y-23944761D01*
X13039794Y-23944761D02*
X13100270Y-23884285D01*
X14249318Y-22674761D02*
X14249318Y-23400476D01*
X14249318Y-23037619D02*
X12979318Y-23037619D01*
X12979318Y-23037619D02*
X13160746Y-23158571D01*
X13160746Y-23158571D02*
X13281699Y-23279523D01*
X13281699Y-23279523D02*
X13342175Y-23400476D01*
X29932380Y-18754318D02*
X29932380Y-19782413D01*
X29932380Y-19782413D02*
X29992857Y-19903365D01*
X29992857Y-19903365D02*
X30053333Y-19963842D01*
X30053333Y-19963842D02*
X30174285Y-20024318D01*
X30174285Y-20024318D02*
X30416190Y-20024318D01*
X30416190Y-20024318D02*
X30537142Y-19963842D01*
X30537142Y-19963842D02*
X30597619Y-19903365D01*
X30597619Y-19903365D02*
X30658095Y-19782413D01*
X30658095Y-19782413D02*
X30658095Y-18754318D01*
X31202380Y-18875270D02*
X31262856Y-18814794D01*
X31262856Y-18814794D02*
X31383809Y-18754318D01*
X31383809Y-18754318D02*
X31686190Y-18754318D01*
X31686190Y-18754318D02*
X31807142Y-18814794D01*
X31807142Y-18814794D02*
X31867618Y-18875270D01*
X31867618Y-18875270D02*
X31928095Y-18996222D01*
X31928095Y-18996222D02*
X31928095Y-19117175D01*
X31928095Y-19117175D02*
X31867618Y-19298603D01*
X31867618Y-19298603D02*
X31141904Y-20024318D01*
X31141904Y-20024318D02*
X31928095Y-20024318D01*
D11*
X25054819Y-47411904D02*
X25864342Y-47411904D01*
X25864342Y-47411904D02*
X25959580Y-47364285D01*
X25959580Y-47364285D02*
X26007200Y-47316666D01*
X26007200Y-47316666D02*
X26054819Y-47221428D01*
X26054819Y-47221428D02*
X26054819Y-47030952D01*
X26054819Y-47030952D02*
X26007200Y-46935714D01*
X26007200Y-46935714D02*
X25959580Y-46888095D01*
X25959580Y-46888095D02*
X25864342Y-46840476D01*
X25864342Y-46840476D02*
X25054819Y-46840476D01*
X25054819Y-46459523D02*
X25054819Y-45792857D01*
X25054819Y-45792857D02*
X26054819Y-46221428D01*
X26474819Y-16000594D02*
X25474819Y-16000594D01*
X25474819Y-16000594D02*
X25474819Y-15762499D01*
X25474819Y-15762499D02*
X25522438Y-15619642D01*
X25522438Y-15619642D02*
X25617676Y-15524404D01*
X25617676Y-15524404D02*
X25712914Y-15476785D01*
X25712914Y-15476785D02*
X25903390Y-15429166D01*
X25903390Y-15429166D02*
X26046247Y-15429166D01*
X26046247Y-15429166D02*
X26236723Y-15476785D01*
X26236723Y-15476785D02*
X26331961Y-15524404D01*
X26331961Y-15524404D02*
X26427200Y-15619642D01*
X26427200Y-15619642D02*
X26474819Y-15762499D01*
X26474819Y-15762499D02*
X26474819Y-16000594D01*
X25570057Y-15048213D02*
X25522438Y-15000594D01*
X25522438Y-15000594D02*
X25474819Y-14905356D01*
X25474819Y-14905356D02*
X25474819Y-14667261D01*
X25474819Y-14667261D02*
X25522438Y-14572023D01*
X25522438Y-14572023D02*
X25570057Y-14524404D01*
X25570057Y-14524404D02*
X25665295Y-14476785D01*
X25665295Y-14476785D02*
X25760533Y-14476785D01*
X25760533Y-14476785D02*
X25903390Y-14524404D01*
X25903390Y-14524404D02*
X26474819Y-15095832D01*
X26474819Y-15095832D02*
X26474819Y-14476785D01*
X27949819Y-15988094D02*
X26949819Y-15988094D01*
X26949819Y-15988094D02*
X26949819Y-15749999D01*
X26949819Y-15749999D02*
X26997438Y-15607142D01*
X26997438Y-15607142D02*
X27092676Y-15511904D01*
X27092676Y-15511904D02*
X27187914Y-15464285D01*
X27187914Y-15464285D02*
X27378390Y-15416666D01*
X27378390Y-15416666D02*
X27521247Y-15416666D01*
X27521247Y-15416666D02*
X27711723Y-15464285D01*
X27711723Y-15464285D02*
X27806961Y-15511904D01*
X27806961Y-15511904D02*
X27902200Y-15607142D01*
X27902200Y-15607142D02*
X27949819Y-15749999D01*
X27949819Y-15749999D02*
X27949819Y-15988094D01*
X26949819Y-15083332D02*
X26949819Y-14464285D01*
X26949819Y-14464285D02*
X27330771Y-14797618D01*
X27330771Y-14797618D02*
X27330771Y-14654761D01*
X27330771Y-14654761D02*
X27378390Y-14559523D01*
X27378390Y-14559523D02*
X27426009Y-14511904D01*
X27426009Y-14511904D02*
X27521247Y-14464285D01*
X27521247Y-14464285D02*
X27759342Y-14464285D01*
X27759342Y-14464285D02*
X27854580Y-14511904D01*
X27854580Y-14511904D02*
X27902200Y-14559523D01*
X27902200Y-14559523D02*
X27949819Y-14654761D01*
X27949819Y-14654761D02*
X27949819Y-14940475D01*
X27949819Y-14940475D02*
X27902200Y-15035713D01*
X27902200Y-15035713D02*
X27854580Y-15083332D01*
X29449819Y-16000594D02*
X28449819Y-16000594D01*
X28449819Y-16000594D02*
X28449819Y-15762499D01*
X28449819Y-15762499D02*
X28497438Y-15619642D01*
X28497438Y-15619642D02*
X28592676Y-15524404D01*
X28592676Y-15524404D02*
X28687914Y-15476785D01*
X28687914Y-15476785D02*
X28878390Y-15429166D01*
X28878390Y-15429166D02*
X29021247Y-15429166D01*
X29021247Y-15429166D02*
X29211723Y-15476785D01*
X29211723Y-15476785D02*
X29306961Y-15524404D01*
X29306961Y-15524404D02*
X29402200Y-15619642D01*
X29402200Y-15619642D02*
X29449819Y-15762499D01*
X29449819Y-15762499D02*
X29449819Y-16000594D01*
X28449819Y-14524404D02*
X28449819Y-15000594D01*
X28449819Y-15000594D02*
X28926009Y-15048213D01*
X28926009Y-15048213D02*
X28878390Y-15000594D01*
X28878390Y-15000594D02*
X28830771Y-14905356D01*
X28830771Y-14905356D02*
X28830771Y-14667261D01*
X28830771Y-14667261D02*
X28878390Y-14572023D01*
X28878390Y-14572023D02*
X28926009Y-14524404D01*
X28926009Y-14524404D02*
X29021247Y-14476785D01*
X29021247Y-14476785D02*
X29259342Y-14476785D01*
X29259342Y-14476785D02*
X29354580Y-14524404D01*
X29354580Y-14524404D02*
X29402200Y-14572023D01*
X29402200Y-14572023D02*
X29449819Y-14667261D01*
X29449819Y-14667261D02*
X29449819Y-14905356D01*
X29449819Y-14905356D02*
X29402200Y-15000594D01*
X29402200Y-15000594D02*
X29354580Y-15048213D01*
X21616666Y-18354819D02*
X21616666Y-19069104D01*
X21616666Y-19069104D02*
X21569047Y-19211961D01*
X21569047Y-19211961D02*
X21473809Y-19307200D01*
X21473809Y-19307200D02*
X21330952Y-19354819D01*
X21330952Y-19354819D02*
X21235714Y-19354819D01*
X22616666Y-19354819D02*
X22045238Y-19354819D01*
X22330952Y-19354819D02*
X22330952Y-18354819D01*
X22330952Y-18354819D02*
X22235714Y-18497676D01*
X22235714Y-18497676D02*
X22140476Y-18592914D01*
X22140476Y-18592914D02*
X22045238Y-18640533D01*
X22556033Y-49760780D02*
X22556033Y-50410681D01*
X22556033Y-50410681D02*
X22594262Y-50487140D01*
X22594262Y-50487140D02*
X22632492Y-50525370D01*
X22632492Y-50525370D02*
X22708951Y-50563599D01*
X22708951Y-50563599D02*
X22861869Y-50563599D01*
X22861869Y-50563599D02*
X22938328Y-50525370D01*
X22938328Y-50525370D02*
X22976557Y-50487140D01*
X22976557Y-50487140D02*
X23014787Y-50410681D01*
X23014787Y-50410681D02*
X23014787Y-49760780D01*
X23817605Y-50563599D02*
X23358851Y-50563599D01*
X23588228Y-50563599D02*
X23588228Y-49760780D01*
X23588228Y-49760780D02*
X23511769Y-49875468D01*
X23511769Y-49875468D02*
X23435310Y-49951927D01*
X23435310Y-49951927D02*
X23358851Y-49990157D01*
X24314589Y-49760780D02*
X24391048Y-49760780D01*
X24391048Y-49760780D02*
X24467507Y-49799009D01*
X24467507Y-49799009D02*
X24505736Y-49837239D01*
X24505736Y-49837239D02*
X24543966Y-49913698D01*
X24543966Y-49913698D02*
X24582195Y-50066616D01*
X24582195Y-50066616D02*
X24582195Y-50257763D01*
X24582195Y-50257763D02*
X24543966Y-50410681D01*
X24543966Y-50410681D02*
X24505736Y-50487140D01*
X24505736Y-50487140D02*
X24467507Y-50525370D01*
X24467507Y-50525370D02*
X24391048Y-50563599D01*
X24391048Y-50563599D02*
X24314589Y-50563599D01*
X24314589Y-50563599D02*
X24238130Y-50525370D01*
X24238130Y-50525370D02*
X24199900Y-50487140D01*
X24199900Y-50487140D02*
X24161671Y-50410681D01*
X24161671Y-50410681D02*
X24123441Y-50257763D01*
X24123441Y-50257763D02*
X24123441Y-50066616D01*
X24123441Y-50066616D02*
X24161671Y-49913698D01*
X24161671Y-49913698D02*
X24199900Y-49837239D01*
X24199900Y-49837239D02*
X24238130Y-49799009D01*
X24238130Y-49799009D02*
X24314589Y-49760780D01*
D12*
%TO.C,S2*%
X58475000Y-53500000D02*
G75*
G02*
X58375000Y-53500000I-50000J0D01*
G01*
X58375000Y-53500000D02*
G75*
G02*
X58475000Y-53500000I50000J0D01*
G01*
D13*
X58775000Y-56250000D02*
X62775000Y-56250000D01*
X58775000Y-53350000D02*
X62775000Y-53350000D01*
D12*
X58475000Y-53500000D02*
X58475000Y-53500000D01*
X58375000Y-53500000D02*
X58375000Y-53500000D01*
%TO.C,S1*%
X51445000Y-53500000D02*
G75*
G02*
X51345000Y-53500000I-50000J0D01*
G01*
X51345000Y-53500000D02*
G75*
G02*
X51445000Y-53500000I50000J0D01*
G01*
D13*
X51745000Y-56250000D02*
X55745000Y-56250000D01*
X51745000Y-53350000D02*
X55745000Y-53350000D01*
D12*
X51445000Y-53500000D02*
X51445000Y-53500000D01*
X51345000Y-53500000D02*
X51345000Y-53500000D01*
D13*
%TO.C,IC1*%
X15275000Y-25350000D02*
G75*
G02*
X15075000Y-25350000I-100000J0D01*
G01*
X15075000Y-25350000D02*
G75*
G02*
X15275000Y-25350000I100000J0D01*
G01*
D14*
%TO.C,U8*%
X19815000Y-27425000D02*
G75*
G02*
X19565000Y-27425000I-125000J0D01*
G01*
X19565000Y-27425000D02*
G75*
G02*
X19815000Y-27425000I125000J0D01*
G01*
D15*
%TO.C,C82*%
X21569936Y-21462900D02*
X21354264Y-21462900D01*
X21569936Y-20742900D02*
X21354264Y-20742900D01*
%TO.C,C81*%
X21569936Y-17942900D02*
X21354264Y-17942900D01*
X21569936Y-18662900D02*
X21354264Y-18662900D01*
D13*
%TO.C,U2*%
X27175000Y-21200000D02*
X27825000Y-20550000D01*
X27175000Y-33850000D02*
X27175000Y-21200000D01*
X27825000Y-20550000D02*
X34725000Y-20550000D01*
X34725000Y-20550000D02*
X34725000Y-33850000D01*
X34725000Y-33850000D02*
X27175000Y-33850000D01*
X27275000Y-20550000D02*
G75*
G02*
X27075000Y-20550000I-100000J0D01*
G01*
X27075000Y-20550000D02*
G75*
G02*
X27275000Y-20550000I100000J0D01*
G01*
D15*
%TO.C,U7*%
X26390000Y-37340000D02*
X40610000Y-37340000D01*
X26390000Y-50560000D02*
X26390000Y-37340000D01*
X40610000Y-37340000D02*
X40610000Y-51560000D01*
X40610000Y-51560000D02*
X27390000Y-51560000D01*
X26390000Y-52060000D02*
X25890000Y-51560000D01*
X26390000Y-51560000D01*
X26390000Y-52060000D01*
G36*
X26390000Y-52060000D02*
G01*
X25890000Y-51560000D01*
X26390000Y-51560000D01*
X26390000Y-52060000D01*
G37*
%TO.C,D2*%
X26715000Y-14462500D02*
X26715000Y-16747500D01*
X26715000Y-16747500D02*
X28185000Y-16747500D01*
X28185000Y-16747500D02*
X28185000Y-14462500D01*
%TO.C,D3*%
X28190000Y-14450000D02*
X28190000Y-16735000D01*
X28190000Y-16735000D02*
X29660000Y-16735000D01*
X29660000Y-16735000D02*
X29660000Y-14450000D01*
%TO.C,D5*%
X29690000Y-14462500D02*
X29690000Y-16747500D01*
X29690000Y-16747500D02*
X31160000Y-16747500D01*
X31160000Y-16747500D02*
X31160000Y-14462500D01*
%TO.C,J1*%
X20450000Y-13900000D02*
X21250000Y-13900000D01*
X20450000Y-14100000D02*
X20450000Y-13900000D01*
X20450000Y-16900000D02*
X20450000Y-16700000D01*
X21250000Y-13900000D02*
X21250000Y-13400000D01*
X21250000Y-16900000D02*
X20450000Y-16900000D01*
X22650000Y-13900000D02*
X22650000Y-13400000D01*
X22650000Y-13900000D02*
X23250000Y-13900000D01*
X23250000Y-13900000D02*
X23450000Y-14100000D01*
X23450000Y-16700000D02*
X23450000Y-16900000D01*
X23450000Y-16900000D02*
X22650000Y-16900000D01*
D16*
%TO.C,U10*%
X24850000Y-50925000D02*
X24850000Y-37925000D01*
X24850000Y-37925000D02*
X13350000Y-37925000D01*
X13350000Y-50925000D02*
X24850000Y-50925000D01*
X13350000Y-37925000D02*
X13350000Y-50925000D01*
D13*
X25871000Y-47615000D02*
G75*
G02*
X25671000Y-47615000I-100000J0D01*
G01*
X25671000Y-47615000D02*
G75*
G02*
X25871000Y-47615000I100000J0D01*
G01*
%TD*%
M02*
