M48
; DRILL file {KiCad 9.0.3} date 2025-08-17T15:03:43+0300
; FORMAT={-:-/ absolute / metric / decimal}
; #@! TF.CreationDate,2025-08-17T15:03:43+03:00
; #@! TF.GenerationSoftware,Kicad,Pcbnew,9.0.3
; #@! TF.FileFunction,Plated,1,6,PTH
FMAT,2
METRIC
; #@! TA.AperFunction,Plated,PTH,ViaDrill
T1C0.300
; #@! TA.AperFunction,Plated,PTH,ComponentDrill
T2C2.600
%
G90
G05
T1
X14.7Y-32.55
X14.7Y-45.35
X16.35Y-35.0
X16.35Y-40.5
X17.9Y-39.75
X17.9Y-41.35
X17.95Y-35.8
X17.95Y-42.1
X18.65Y-41.4
X18.7Y-36.55
X18.7Y-38.95
X18.7Y-39.75
X18.7Y-43.75
X19.5Y-37.35
X19.5Y-39.75
X19.5Y-41.35
X19.5Y-42.95
X19.5Y-43.75
X20.3Y-36.55
X20.3Y-44.55
X20.35Y-34.2
X21.1Y-36.55
X21.1Y-37.35
X21.1Y-38.95
X21.1Y-39.75
X21.1Y-41.35
X21.1Y-42.15
X21.1Y-44.55
X21.9Y-37.35
X21.9Y-38.95
X21.9Y-39.75
X21.9Y-41.35
X21.9Y-42.15
X22.7Y-36.55
X22.7Y-37.35
X22.7Y-40.55
X22.7Y-42.15
X23.5Y-34.95
X23.5Y-35.75
X23.5Y-42.15
X23.5Y-37.35
X23.5Y-43.75
X24.273Y-40.55
X24.294Y-38.942
X24.3Y-36.55
X24.3Y-43.75
X24.3Y-37.35
X24.3Y-38.15
X24.3Y-42.15
X24.3Y-42.95
X25.1Y-36.55
X25.1Y-37.35
X25.1Y-38.95
X25.1Y-39.75
X25.1Y-40.55
X25.1Y-41.35
X25.1Y-42.15
X25.1Y-45.35
X25.9Y-37.35
X25.9Y-38.15
X25.9Y-38.95
X25.9Y-39.75
X25.9Y-40.55
X25.9Y-41.35
X25.9Y-42.15
X26.7Y-37.35
X26.7Y-38.15
X26.7Y-38.9
X26.7Y-39.75
X26.7Y-40.55
X26.7Y-41.35
X27.5Y-38.15
X27.5Y-38.9
X27.5Y-39.75
X27.5Y-40.55
X27.5Y-41.35
X27.9Y-46.3
X28.3Y-32.55
X28.3Y-38.95
X28.3Y-39.75
X28.3Y-40.55
X28.3Y-41.35
X28.35Y-36.3
X28.6Y-37.95
X28.95Y-36.55
X29.025Y-42.775
X29.35Y-36.1
X29.6Y-36.7
X32.8Y-33.3
X32.8Y-34.1
X32.8Y-34.9
X32.8Y-35.7
X32.8Y-36.5
X32.8Y-39.7
X32.8Y-40.5
X32.8Y-41.3
X32.8Y-42.1
X32.8Y-42.9
X32.8Y-43.7
X32.8Y-44.62
X32.8Y-45.3
X32.9Y-38.5
X33.7Y-33.7
X33.7Y-34.5
X33.7Y-35.3
X33.7Y-36.1
X33.7Y-36.9
X33.7Y-37.7
X33.7Y-38.5
X33.7Y-39.3
X33.7Y-42.5
X33.7Y-44.9
X34.5Y-33.7
X34.5Y-34.5
X34.5Y-35.3
X34.5Y-36.1
X34.5Y-36.9
X34.5Y-37.7
X34.5Y-38.5
X34.5Y-40.1
X34.5Y-40.9
X34.5Y-42.5
X35.3Y-33.7
X37.7Y-44.1
X38.5Y-32.9
X38.5Y-33.7
X38.5Y-34.5
X38.5Y-35.3
X38.5Y-36.1
X38.5Y-36.9
X38.5Y-38.5
X38.5Y-39.3
X38.5Y-42.5
X39.3Y-32.9
X39.3Y-33.7
X39.3Y-34.5
X39.3Y-35.3
X39.3Y-36.1
X39.3Y-36.9
X39.3Y-38.5
X39.3Y-39.3
X39.3Y-42.5
X39.3Y-44.9
X40.2Y-33.3
X40.2Y-34.1
X40.2Y-34.9
X40.2Y-35.7
X40.2Y-36.5
X40.2Y-39.7
X40.2Y-40.5
X40.2Y-41.3
X40.2Y-42.1
X40.2Y-42.9
X40.2Y-43.7
X40.2Y-44.5
X40.2Y-45.3
X40.5Y-37.7
X40.5Y-38.35
T2
X15.307Y-15.309
X39.486Y-15.314
M30
