%TF.GenerationSoftware,KiCad,Pcbnew,9.0.3*%
%TF.CreationDate,2025-08-17T15:03:40+03:00*%
%TF.ProjectId,ThingsCore-1,5468696e-6773-4436-9f72-652d312e6b69,rev?*%
%TF.SameCoordinates,Original*%
%TF.FileFunction,Copper,L1,Top*%
%TF.FilePolarity,Positive*%
%FSLAX46Y46*%
G04 Gerber Fmt 4.6, Leading zero omitted, Abs format (unit mm)*
G04 Created by KiCad (PCBNEW 9.0.3) date 2025-08-17 15:03:40*
%MOMM*%
%LPD*%
G01*
G04 APERTURE LIST*
G04 Aperture macros list*
%AMRoundRect*
0 Rectangle with rounded corners*
0 $1 Rounding radius*
0 $2 $3 $4 $5 $6 $7 $8 $9 X,Y pos of 4 corners*
0 Add a 4 corners polygon primitive as box body*
4,1,4,$2,$3,$4,$5,$6,$7,$8,$9,$2,$3,0*
0 Add four circle primitives for the rounded corners*
1,1,$1+$1,$2,$3*
1,1,$1+$1,$4,$5*
1,1,$1+$1,$6,$7*
1,1,$1+$1,$8,$9*
0 Add four rect primitives between the rounded corners*
20,1,$1+$1,$2,$3,$4,$5,0*
20,1,$1+$1,$4,$5,$6,$7,0*
20,1,$1+$1,$6,$7,$8,$9,0*
20,1,$1+$1,$8,$9,$2,$3,0*%
G04 Aperture macros list end*
%TA.AperFunction,SMDPad,CuDef*%
%ADD10C,0.450000*%
%TD*%
%TA.AperFunction,BGAPad,CuDef*%
%ADD11C,0.320000*%
%TD*%
%TA.AperFunction,SMDPad,CuDef*%
%ADD12R,1.800000X1.350000*%
%TD*%
%TA.AperFunction,SMDPad,CuDef*%
%ADD13RoundRect,0.062500X-0.325000X-0.062500X0.325000X-0.062500X0.325000X0.062500X-0.325000X0.062500X0*%
%TD*%
%TA.AperFunction,SMDPad,CuDef*%
%ADD14RoundRect,0.062500X-0.062500X-0.325000X0.062500X-0.325000X0.062500X0.325000X-0.062500X0.325000X0*%
%TD*%
%TA.AperFunction,HeatsinkPad*%
%ADD15R,2.450000X2.450000*%
%TD*%
%TA.AperFunction,SMDPad,CuDef*%
%ADD16R,0.950000X0.450000*%
%TD*%
%TA.AperFunction,SMDPad,CuDef*%
%ADD17R,3.450000X4.350000*%
%TD*%
%TA.AperFunction,SMDPad,CuDef*%
%ADD18R,0.700000X1.600000*%
%TD*%
%TA.AperFunction,SMDPad,CuDef*%
%ADD19R,1.200000X1.500000*%
%TD*%
%TA.AperFunction,SMDPad,CuDef*%
%ADD20R,1.200000X2.200000*%
%TD*%
%TA.AperFunction,SMDPad,CuDef*%
%ADD21R,1.600000X1.500000*%
%TD*%
%TA.AperFunction,ComponentPad*%
%ADD22R,5.800000X5.800000*%
%TD*%
%TA.AperFunction,SMDPad,CuDef*%
%ADD23R,0.600000X2.000000*%
%TD*%
%TA.AperFunction,ViaPad*%
%ADD24C,0.450000*%
%TD*%
%TA.AperFunction,Conductor*%
%ADD25C,0.121700*%
%TD*%
%TA.AperFunction,Conductor*%
%ADD26C,0.100000*%
%TD*%
%TA.AperFunction,Conductor*%
%ADD27C,0.300000*%
%TD*%
%TA.AperFunction,Conductor*%
%ADD28C,0.250000*%
%TD*%
G04 APERTURE END LIST*
D10*
%TO.P,U2,A1,VDDQ_1*%
%TO.N,1V35_DDR*%
X39700000Y-45300000D03*
%TO.P,U2,A2,DQU5*%
%TO.N,/DDR3/DDR_D13*%
X38900000Y-45300000D03*
%TO.P,U2,A3,DQU7*%
%TO.N,/DDR3/DDR_D15*%
X38100000Y-45300000D03*
%TO.P,U2,A7,DQU4*%
%TO.N,/DDR3/DDR_D12*%
X34900000Y-45300000D03*
%TO.P,U2,A8,VDDQ_2*%
%TO.N,1V35_DDR*%
X34100000Y-45300000D03*
%TO.P,U2,A9,VSS_1*%
%TO.N,GND*%
X33300000Y-45300000D03*
%TO.P,U2,B1,VSSQ_1*%
X39700000Y-44500000D03*
%TO.P,U2,B2,VDD_1*%
%TO.N,1V35_DDR*%
X38900000Y-44500000D03*
%TO.P,U2,B3,VSS_2*%
%TO.N,GND*%
X38100000Y-44500000D03*
%TO.P,U2,B7,~{DQSU}*%
%TO.N,/DDR3/DDR_DQS1P*%
X34900000Y-44500000D03*
%TO.P,U2,B8,DQU6*%
%TO.N,/DDR3/DDR_D14*%
X34100000Y-44500000D03*
%TO.P,U2,B9,VSSQ_2*%
%TO.N,GND*%
X33300000Y-44500000D03*
%TO.P,U2,C1,VDDQ_3*%
%TO.N,1V35_DDR*%
X39700000Y-43700000D03*
%TO.P,U2,C2,DQU3*%
%TO.N,/DDR3/DDR_D11*%
X38900000Y-43700000D03*
%TO.P,U2,C3,DQU1*%
%TO.N,/DDR3/DDR_D9*%
X38100000Y-43700000D03*
%TO.P,U2,C7,DQSU*%
%TO.N,/DDR3/DDR_DQS1N*%
X34900000Y-43700000D03*
%TO.P,U2,C8,DQU2*%
%TO.N,/DDR3/DDR_D10*%
X34100000Y-43700000D03*
%TO.P,U2,C9,VDDQ_4*%
%TO.N,1V35_DDR*%
X33300000Y-43700000D03*
%TO.P,U2,D1,VSSQ_3*%
%TO.N,GND*%
X39700000Y-42900000D03*
%TO.P,U2,D2,VDDQ_5*%
%TO.N,1V35_DDR*%
X38900000Y-42900000D03*
%TO.P,U2,D3,DMU*%
%TO.N,/DDR3/DDR_DQM1*%
X38100000Y-42900000D03*
%TO.P,U2,D7,DQU0*%
%TO.N,/DDR3/DDR_D8*%
X34900000Y-42900000D03*
%TO.P,U2,D8,VSSQ_4*%
%TO.N,GND*%
X34100000Y-42900000D03*
%TO.P,U2,D9,VDD_2*%
%TO.N,1V35_DDR*%
X33300000Y-42900000D03*
%TO.P,U2,E1,VSS_3*%
%TO.N,GND*%
X39700000Y-42100000D03*
%TO.P,U2,E2,VSSQ_5*%
X38900000Y-42100000D03*
%TO.P,U2,E3,DQL0*%
%TO.N,/DDR3/DDR_D0*%
X38100000Y-42100000D03*
%TO.P,U2,E7,DML*%
%TO.N,/DDR3/DDR_DQM0*%
X34900000Y-42100000D03*
%TO.P,U2,E8,VSSQ_6*%
%TO.N,GND*%
X34100000Y-42100000D03*
%TO.P,U2,E9,VDDQ_6*%
%TO.N,1V35_DDR*%
X33300000Y-42100000D03*
%TO.P,U2,F1,VDDQ_7*%
X39700000Y-41300000D03*
%TO.P,U2,F2,DQL2*%
%TO.N,/DDR3/DDR_D2*%
X38900000Y-41300000D03*
%TO.P,U2,F3,DQSL*%
%TO.N,/DDR3/DDR_DQS0N*%
X38100000Y-41300000D03*
%TO.P,U2,F7,DQL1*%
%TO.N,/DDR3/DDR_D1*%
X34900000Y-41300000D03*
%TO.P,U2,F8,DQL3*%
%TO.N,/DDR3/DDR_D3*%
X34100000Y-41300000D03*
%TO.P,U2,F9,VSSQ_7*%
%TO.N,GND*%
X33300000Y-41300000D03*
%TO.P,U2,G1,VSSQ_8*%
X39700000Y-40500000D03*
%TO.P,U2,G2,DQL6*%
%TO.N,/DDR3/DDR_D6*%
X38900000Y-40500000D03*
%TO.P,U2,G3,~{DQSL}*%
%TO.N,/DDR3/DDR_DQS0P*%
X38100000Y-40500000D03*
%TO.P,U2,G7,VDD_3*%
%TO.N,1V35_DDR*%
X34900000Y-40500000D03*
%TO.P,U2,G8,VSS_4*%
%TO.N,GND*%
X34100000Y-40500000D03*
%TO.P,U2,G9,VSSQ_9*%
X33300000Y-40500000D03*
%TO.P,U2,H1,VREFDQ*%
%TO.N,/DDR3/DDR_VREF*%
X39700000Y-39700000D03*
%TO.P,U2,H2,VDDQ_8*%
%TO.N,1V35_DDR*%
X38900000Y-39700000D03*
%TO.P,U2,H3,DQL4*%
%TO.N,/DDR3/DDR_D4*%
X38100000Y-39700000D03*
%TO.P,U2,H7,DQL7*%
%TO.N,/DDR3/DDR_D7*%
X34900000Y-39700000D03*
%TO.P,U2,H8,DQL5*%
%TO.N,/DDR3/DDR_D5*%
X34100000Y-39700000D03*
%TO.P,U2,H9,VDDQ_9*%
%TO.N,1V35_DDR*%
X33300000Y-39700000D03*
%TO.P,U2,J1,NC_1/ODT1*%
%TO.N,unconnected-(U2-NC_1{slash}ODT1-PadJ1)*%
X39700000Y-38900000D03*
%TO.P,U2,J2,VSS_5*%
%TO.N,GND*%
X38900000Y-38900000D03*
%TO.P,U2,J3,~{RAS}*%
%TO.N,/DDR3/DDR_RASN*%
X38100000Y-38900000D03*
%TO.P,U2,J7,CK*%
%TO.N,/DDR3/DDR_CLK_P*%
X34900000Y-38900000D03*
%TO.P,U2,J8,VSS_6*%
%TO.N,GND*%
X34100000Y-38900000D03*
%TO.P,U2,J9,NC_2*%
%TO.N,unconnected-(U2-NC_2-PadJ9)*%
X33300000Y-38900000D03*
%TO.P,U2,K1,ODT0*%
%TO.N,/DDR3/DDR_ODT*%
X39700000Y-38100000D03*
%TO.P,U2,K2,VDD_4*%
%TO.N,1V35_DDR*%
X38900000Y-38100000D03*
%TO.P,U2,K3,~{CAS}*%
%TO.N,/DDR3/DDR_CASN*%
X38100000Y-38100000D03*
%TO.P,U2,K7,~{CK}*%
%TO.N,/DDR3/DDR_CLK_N*%
X34900000Y-38100000D03*
%TO.P,U2,K8,VDD_5*%
%TO.N,1V35_DDR*%
X34100000Y-38100000D03*
%TO.P,U2,K9,CKE*%
%TO.N,/DDR3/DDR_CKE*%
X33300000Y-38100000D03*
%TO.P,U2,L1,NC_3*%
%TO.N,unconnected-(U2-NC_3-PadL1)*%
X39700000Y-37300000D03*
%TO.P,U2,L2,~{CS}*%
%TO.N,/DDR3/DDR_CSN*%
X38900000Y-37300000D03*
%TO.P,U2,L3,~{WE}*%
%TO.N,/DDR3/DDR_WEN*%
X38100000Y-37300000D03*
%TO.P,U2,L7,A10/AP*%
%TO.N,/DDR3/DDR_A10*%
X34900000Y-37300000D03*
%TO.P,U2,L8,ZQ*%
%TO.N,/DDR3/ZQ*%
X34100000Y-37300000D03*
%TO.P,U2,L9,NC_4*%
%TO.N,unconnected-(U2-NC_4-PadL9)*%
X33300000Y-37300000D03*
%TO.P,U2,M1,VSS_7*%
%TO.N,GND*%
X39700000Y-36500000D03*
%TO.P,U2,M2,BA0*%
%TO.N,/DDR3/DDR_BA0*%
X38900000Y-36500000D03*
%TO.P,U2,M3,BA2*%
%TO.N,/DDR3/DDR_BA2*%
X38100000Y-36500000D03*
%TO.P,U2,M7,NC_5/A15*%
%TO.N,/DDR3/DDR_A15*%
X34900000Y-36500000D03*
%TO.P,U2,M8,VREFCA*%
%TO.N,/DDR3/DDR_VREF*%
X34100000Y-36500000D03*
%TO.P,U2,M9,VSS_8*%
%TO.N,GND*%
X33300000Y-36500000D03*
%TO.P,U2,N1,VDD_6*%
%TO.N,1V35_DDR*%
X39700000Y-35700000D03*
%TO.P,U2,N2,A3*%
%TO.N,/DDR3/DDR_A3*%
X38900000Y-35700000D03*
%TO.P,U2,N3,A0*%
%TO.N,/DDR3/DDR_A0*%
X38100000Y-35700000D03*
%TO.P,U2,N7,A12/~{BC}*%
%TO.N,/DDR3/DDR_A12*%
X34900000Y-35700000D03*
%TO.P,U2,N8,BA1*%
%TO.N,/DDR3/DDR_BA1*%
X34100000Y-35700000D03*
%TO.P,U2,N9,VDD_7*%
%TO.N,1V35_DDR*%
X33300000Y-35700000D03*
%TO.P,U2,P1,VSS_9*%
%TO.N,GND*%
X39700000Y-34900000D03*
%TO.P,U2,P2,A5*%
%TO.N,/DDR3/DDR_A5*%
X38900000Y-34900000D03*
%TO.P,U2,P3,A2*%
%TO.N,/DDR3/DDR_A2*%
X38100000Y-34900000D03*
%TO.P,U2,P7,A1*%
%TO.N,/DDR3/DDR_A1*%
X34900000Y-34900000D03*
%TO.P,U2,P8,A4*%
%TO.N,/DDR3/DDR_A4*%
X34100000Y-34900000D03*
%TO.P,U2,P9,VSS_10*%
%TO.N,GND*%
X33300000Y-34900000D03*
%TO.P,U2,R1,VDD_8*%
%TO.N,1V35_DDR*%
X39700000Y-34100000D03*
%TO.P,U2,R2,A7*%
%TO.N,/DDR3/DDR_A7*%
X38900000Y-34100000D03*
%TO.P,U2,R3,A9*%
%TO.N,/DDR3/DDR_A9*%
X38100000Y-34100000D03*
%TO.P,U2,R7,A11*%
%TO.N,/DDR3/DDR_A11*%
X34900000Y-34100000D03*
%TO.P,U2,R8,A6*%
%TO.N,/DDR3/DDR_A6*%
X34100000Y-34100000D03*
%TO.P,U2,R9,VDD_9*%
%TO.N,1V35_DDR*%
X33300000Y-34100000D03*
%TO.P,U2,T1,VSS_11*%
%TO.N,GND*%
X39700000Y-33300000D03*
%TO.P,U2,T2,~{RESET}*%
%TO.N,/DDR3/DDR_RESETN*%
X38900000Y-33300000D03*
%TO.P,U2,T3,A13*%
%TO.N,/DDR3/DDR_A13*%
X38100000Y-33300000D03*
%TO.P,U2,T7,A14*%
%TO.N,/DDR3/DDR_A14*%
X34900000Y-33300000D03*
%TO.P,U2,T8,A8*%
%TO.N,/DDR3/DDR_A8*%
X34100000Y-33300000D03*
%TO.P,U2,T9,VSS_12*%
%TO.N,GND*%
X33300000Y-33300000D03*
%TD*%
D11*
%TO.P,U7,A1,VSS*%
%TO.N,GND*%
X15100000Y-32950000D03*
%TO.P,U7,A2,PA9*%
%TO.N,unconnected-(U7D-PA9-PadA2)*%
X15900000Y-32950000D03*
%TO.P,U7,A3,PD10*%
%TO.N,unconnected-(U7D-PD10-PadA3)*%
X16700000Y-32950000D03*
%TO.P,U7,A4,PB7*%
%TO.N,unconnected-(U7D-PB7-PadA4)*%
X17500000Y-32950000D03*
%TO.P,U7,A5,PE7*%
%TO.N,unconnected-(U7E-PE7-PadA5)*%
X18300000Y-32950000D03*
%TO.P,U7,A6,PD5*%
%TO.N,unconnected-(U7D-PD5-PadA6)*%
X19100000Y-32950000D03*
%TO.P,U7,A7,PE8*%
%TO.N,unconnected-(U7E-PE8-PadA7)*%
X19900000Y-32950000D03*
%TO.P,U7,A8,PG4*%
%TO.N,unconnected-(U7E-PG4-PadA8)*%
X20700000Y-32950000D03*
%TO.P,U7,A9,PH9*%
%TO.N,unconnected-(U7E-PH9-PadA9)*%
X21500000Y-32950000D03*
%TO.P,U7,A10,PH13*%
%TO.N,unconnected-(U7E-PH13-PadA10)*%
X22300000Y-32950000D03*
%TO.P,U7,A11,PC7*%
%TO.N,unconnected-(U7D-PC7-PadA11)*%
X23100000Y-32950000D03*
%TO.P,U7,A12,PB9*%
%TO.N,unconnected-(U7D-PB9-PadA12)*%
X23900000Y-32950000D03*
%TO.P,U7,A13,PB14*%
%TO.N,unconnected-(U7D-PB14-PadA13)*%
X24700000Y-32950000D03*
%TO.P,U7,A14,PG6*%
%TO.N,unconnected-(U7E-PG6-PadA14)*%
X25500000Y-32950000D03*
%TO.P,U7,A15,PD2*%
%TO.N,unconnected-(U7D-PD2-PadA15)*%
X26300000Y-32950000D03*
%TO.P,U7,A16,PC9*%
%TO.N,unconnected-(U7D-PC9-PadA16)*%
X27100000Y-32950000D03*
%TO.P,U7,A17,VSS*%
%TO.N,GND*%
X27900000Y-32950000D03*
%TO.P,U7,B1,PD3*%
%TO.N,unconnected-(U7D-PD3-PadB1)*%
X15100000Y-33750000D03*
%TO.P,U7,B2,PF5*%
%TO.N,unconnected-(U7E-PF5-PadB2)*%
X15900000Y-33750000D03*
%TO.P,U7,B3,PD14*%
%TO.N,unconnected-(U7D-PD14-PadB3)*%
X16700000Y-33750000D03*
%TO.P,U7,B4,PE12*%
%TO.N,unconnected-(U7E-PE12-PadB4)*%
X17500000Y-33750000D03*
%TO.P,U7,B5,PE1*%
%TO.N,unconnected-(U7E-PE1-PadB5)*%
X18300000Y-33750000D03*
%TO.P,U7,B6,PE9*%
%TO.N,unconnected-(U7E-PE9-PadB6)*%
X19100000Y-33750000D03*
%TO.P,U7,B7,PH14*%
%TO.N,unconnected-(U7E-PH14-PadB7)*%
X19900000Y-33750000D03*
%TO.P,U7,B8,PE10*%
%TO.N,unconnected-(U7E-PE10-PadB8)*%
X20700000Y-33750000D03*
%TO.P,U7,B9,PF1*%
%TO.N,unconnected-(U7E-PF1-PadB9)*%
X21500000Y-33750000D03*
%TO.P,U7,B10,PF3*%
%TO.N,unconnected-(U7E-PF3-PadB10)*%
X22300000Y-33750000D03*
%TO.P,U7,B11,PC6*%
%TO.N,unconnected-(U7D-PC6-PadB11)*%
X23100000Y-33750000D03*
%TO.P,U7,B12,PB15*%
%TO.N,unconnected-(U7D-PB15-PadB12)*%
X23900000Y-33750000D03*
%TO.P,U7,B13,PB4*%
%TO.N,unconnected-(U7D-PB4-PadB13)*%
X24700000Y-33750000D03*
%TO.P,U7,B14,PC10*%
%TO.N,unconnected-(U7D-PC10-PadB14)*%
X25500000Y-33750000D03*
%TO.P,U7,B15,PC12*%
%TO.N,unconnected-(U7D-PC12-PadB15)*%
X26300000Y-33750000D03*
%TO.P,U7,B16,DDR_DQ4*%
%TO.N,/DDR3/DDR_D4*%
X27100000Y-33750000D03*
%TO.P,U7,B17,DDR_DQ0*%
%TO.N,/DDR3/DDR_D0*%
X27900000Y-33750000D03*
%TO.P,U7,C1,PB6*%
%TO.N,unconnected-(U7D-PB6-PadC1)*%
X15100000Y-34550000D03*
%TO.P,U7,C2,PH12*%
%TO.N,unconnected-(U7E-PH12-PadC2)*%
X15900000Y-34550000D03*
%TO.P,U7,C3,PE14*%
%TO.N,unconnected-(U7E-PE14-PadC3)*%
X16700000Y-34550000D03*
%TO.P,U7,C4,PE13*%
%TO.N,unconnected-(U7E-PE13-PadC4)*%
X17500000Y-34550000D03*
%TO.P,U7,C5,PD8*%
%TO.N,unconnected-(U7D-PD8-PadC5)*%
X18300000Y-34550000D03*
%TO.P,U7,C6,PD12*%
%TO.N,unconnected-(U7D-PD12-PadC6)*%
X19100000Y-34550000D03*
%TO.P,U7,C7,PD15*%
%TO.N,unconnected-(U7D-PD15-PadC7)*%
X19900000Y-34550000D03*
%TO.P,U7,C8,VSS*%
%TO.N,GND*%
X20700000Y-34550000D03*
%TO.P,U7,C9,PG7*%
%TO.N,unconnected-(U7E-PG7-PadC9)*%
X21500000Y-34550000D03*
%TO.P,U7,C10,PB5*%
%TO.N,unconnected-(U7D-PB5-PadC10)*%
X22300000Y-34550000D03*
%TO.P,U7,C11,PB3*%
%TO.N,unconnected-(U7D-PB3-PadC11)*%
X23100000Y-34550000D03*
%TO.P,U7,C12,VDDSD1*%
%TO.N,3V3_VDD*%
X23900000Y-34550000D03*
%TO.P,U7,C13,PF0*%
%TO.N,unconnected-(U7E-PF0-PadC13)*%
X24700000Y-34550000D03*
%TO.P,U7,C14,PC11*%
%TO.N,unconnected-(U7D-PC11-PadC14)*%
X25500000Y-34550000D03*
%TO.P,U7,C15,DDR_DQ1*%
%TO.N,/DDR3/DDR_D1*%
X26300000Y-34550000D03*
%TO.P,U7,C16,DDR_DQS0N*%
%TO.N,/DDR3/DDR_DQS0N*%
X27100000Y-34550000D03*
%TO.P,U7,C17,DDR_DQS0P*%
%TO.N,/DDR3/DDR_DQS0P*%
X27900000Y-34550000D03*
%TO.P,U7,D1,PB8*%
%TO.N,unconnected-(U7D-PB8-PadD1)*%
X15100000Y-35350000D03*
%TO.P,U7,D2,PD6*%
%TO.N,unconnected-(U7D-PD6-PadD2)*%
X15900000Y-35350000D03*
%TO.P,U7,D3,VSS*%
%TO.N,GND*%
X16700000Y-35350000D03*
%TO.P,U7,D4,PE11*%
%TO.N,unconnected-(U7E-PE11-PadD4)*%
X17500000Y-35350000D03*
%TO.P,U7,D5,PD1*%
%TO.N,unconnected-(U7D-PD1-PadD5)*%
X18300000Y-35350000D03*
%TO.P,U7,D6,PE0*%
%TO.N,unconnected-(U7E-PE0-PadD6)*%
X19100000Y-35350000D03*
%TO.P,U7,D7,PG0*%
%TO.N,unconnected-(U7E-PG0-PadD7)*%
X19900000Y-35350000D03*
%TO.P,U7,D8,PE15*%
%TO.N,unconnected-(U7E-PE15-PadD8)*%
X20700000Y-35350000D03*
%TO.P,U7,D9,PB12*%
%TO.N,unconnected-(U7D-PB12-PadD9)*%
X21500000Y-35350000D03*
%TO.P,U7,D10,PB10*%
%TO.N,unconnected-(U7D-PB10-PadD10)*%
X22300000Y-35350000D03*
%TO.P,U7,D11,VDDSD2*%
%TO.N,3V3_VDD*%
X23100000Y-35350000D03*
%TO.P,U7,D12,VSS*%
%TO.N,GND*%
X23900000Y-35350000D03*
%TO.P,U7,D13,PE3*%
%TO.N,unconnected-(U7E-PE3-PadD13)*%
X24700000Y-35350000D03*
%TO.P,U7,D14,PC8*%
%TO.N,unconnected-(U7D-PC8-PadD14)*%
X25500000Y-35350000D03*
%TO.P,U7,D15,DDR_DQM0*%
%TO.N,/DDR3/DDR_DQM0*%
X26300000Y-35350000D03*
%TO.P,U7,D16,DDR_DQ5*%
%TO.N,/DDR3/DDR_D5*%
X27100000Y-35350000D03*
%TO.P,U7,D17,DDR_DQ3*%
%TO.N,/DDR3/DDR_D3*%
X27900000Y-35350000D03*
%TO.P,U7,E1,PG9*%
%TO.N,unconnected-(U7E-PG9-PadE1)*%
X15100000Y-36150000D03*
%TO.P,U7,E2,PD11*%
%TO.N,unconnected-(U7D-PD11-PadE2)*%
X15900000Y-36150000D03*
%TO.P,U7,E3,PA12*%
%TO.N,unconnected-(U7D-PA12-PadE3)*%
X16700000Y-36150000D03*
%TO.P,U7,E4,PD0*%
%TO.N,unconnected-(U7D-PD0-PadE4)*%
X17500000Y-36150000D03*
%TO.P,U7,E5,VSS*%
%TO.N,GND*%
X18300000Y-36150000D03*
%TO.P,U7,E6,PA15*%
%TO.N,unconnected-(U7D-PA15-PadE6)*%
X19100000Y-36150000D03*
%TO.P,U7,E7,PD4*%
%TO.N,unconnected-(U7D-PD4-PadE7)*%
X19900000Y-36150000D03*
%TO.P,U7,E8,PD9*%
%TO.N,unconnected-(U7D-PD9-PadE8)*%
X20700000Y-36150000D03*
%TO.P,U7,E9,PF2*%
%TO.N,unconnected-(U7E-PF2-PadE9)*%
X21500000Y-36150000D03*
%TO.P,U7,E10,PB13*%
%TO.N,unconnected-(U7D-PB13-PadE10)*%
X22300000Y-36150000D03*
%TO.P,U7,E11,PH10*%
%TO.N,unconnected-(U7E-PH10-PadE11)*%
X23100000Y-36150000D03*
%TO.P,U7,E12,VDDQ_DDR*%
%TO.N,1V35_DDR*%
X23900000Y-36150000D03*
%TO.P,U7,E13,DDR_DQ2*%
%TO.N,/DDR3/DDR_D2*%
X24700000Y-36150000D03*
%TO.P,U7,E14,DDR_DQ6*%
%TO.N,/DDR3/DDR_D6*%
X25500000Y-36150000D03*
%TO.P,U7,E15,DDR_DQ7*%
%TO.N,/DDR3/DDR_D7*%
X26300000Y-36150000D03*
%TO.P,U7,E16,DDR_A5*%
%TO.N,/DDR3/DDR_A5*%
X27100000Y-36150000D03*
%TO.P,U7,E17,DDR_RESETN*%
%TO.N,/DDR3/DDR_RESETN*%
X27900000Y-36150000D03*
%TO.P,U7,F1,PG10*%
%TO.N,unconnected-(U7E-PG10-PadF1)*%
X15100000Y-36950000D03*
%TO.P,U7,F2,PG5*%
%TO.N,unconnected-(U7E-PG5-PadF2)*%
X15900000Y-36950000D03*
%TO.P,U7,F3,PG8*%
%TO.N,unconnected-(U7E-PG8-PadF3)*%
X16700000Y-36950000D03*
%TO.P,U7,F4,PH2*%
%TO.N,unconnected-(U7E-PH2-PadF4)*%
X17500000Y-36950000D03*
%TO.P,U7,F5,PH8*%
%TO.N,unconnected-(U7E-PH8-PadF5)*%
X18300000Y-36950000D03*
%TO.P,U7,F6,VDDCPU*%
%TO.N,1V25_CORE*%
X19100000Y-36950000D03*
%TO.P,U7,F7,VDD*%
%TO.N,3V3_VDD*%
X19900000Y-36950000D03*
%TO.P,U7,F8,VDDCPU*%
%TO.N,1V25_CORE*%
X20700000Y-36950000D03*
%TO.P,U7,F9,VDDCPU*%
X21500000Y-36950000D03*
%TO.P,U7,F10,VDD*%
%TO.N,3V3_VDD*%
X22300000Y-36950000D03*
%TO.P,U7,F11,VDD*%
X23100000Y-36950000D03*
%TO.P,U7,F12,VDDQ_DDR*%
%TO.N,1V35_DDR*%
X23900000Y-36950000D03*
%TO.P,U7,F13,VSS*%
%TO.N,GND*%
X24700000Y-36950000D03*
%TO.P,U7,F14,DDR_A13*%
%TO.N,/DDR3/DDR_A13*%
X25500000Y-36950000D03*
%TO.P,U7,F15,VSS*%
%TO.N,GND*%
X26300000Y-36950000D03*
%TO.P,U7,F16,DDR_A9*%
%TO.N,/DDR3/DDR_A9*%
X27100000Y-36950000D03*
%TO.P,U7,F17,DDR_A2*%
%TO.N,/DDR3/DDR_A2*%
X27900000Y-36950000D03*
%TO.P,U7,G1,PF9*%
%TO.N,unconnected-(U7E-PF9-PadG1)*%
X15100000Y-37750000D03*
%TO.P,U7,G2,PF6*%
%TO.N,unconnected-(U7E-PF6-PadG2)*%
X15900000Y-37750000D03*
%TO.P,U7,G3,PF10*%
%TO.N,unconnected-(U7E-PF10-PadG3)*%
X16700000Y-37750000D03*
%TO.P,U7,G4,PG15*%
%TO.N,unconnected-(U7E-PG15-PadG4)*%
X17500000Y-37750000D03*
%TO.P,U7,G5,PF8*%
%TO.N,unconnected-(U7E-PF8-PadG5)*%
X18300000Y-37750000D03*
%TO.P,U7,G6,VDD*%
%TO.N,3V3_VDD*%
X19100000Y-37750000D03*
%TO.P,U7,G7,VSS*%
%TO.N,GND*%
X19900000Y-37750000D03*
%TO.P,U7,G8,VSS*%
X20700000Y-37750000D03*
%TO.P,U7,G9,VSS*%
X21500000Y-37750000D03*
%TO.P,U7,G10,VSS*%
X22300000Y-37750000D03*
%TO.P,U7,G11,VSS*%
X23100000Y-37750000D03*
%TO.P,U7,G12,VDDQ_DDR*%
%TO.N,1V35_DDR*%
X23900000Y-37750000D03*
%TO.P,U7,G13,DDR_BA2*%
%TO.N,/DDR3/DDR_BA2*%
X24700000Y-37750000D03*
%TO.P,U7,G14,DDR_A7*%
%TO.N,/DDR3/DDR_A7*%
X25500000Y-37750000D03*
%TO.P,U7,G15,DDR_A3*%
%TO.N,/DDR3/DDR_A3*%
X26300000Y-37750000D03*
%TO.P,U7,G16,DDR_A0*%
%TO.N,/DDR3/DDR_A0*%
X27100000Y-37750000D03*
%TO.P,U7,G17,DDR_BA0*%
%TO.N,/DDR3/DDR_BA0*%
X27900000Y-37750000D03*
%TO.P,U7,H1,PH11*%
%TO.N,unconnected-(U7E-PH11-PadH1)*%
X15100000Y-38550000D03*
%TO.P,U7,H2,PI3*%
%TO.N,unconnected-(U7E-PI3-PadH2)*%
X15900000Y-38550000D03*
%TO.P,U7,H3,PH7*%
%TO.N,unconnected-(U7E-PH7-PadH3)*%
X16700000Y-38550000D03*
%TO.P,U7,H4,PB2*%
%TO.N,unconnected-(U7D-PB2-PadH4)*%
X17500000Y-38550000D03*
%TO.P,U7,H5,PE4*%
%TO.N,unconnected-(U7E-PE4-PadH5)*%
X18300000Y-38550000D03*
%TO.P,U7,H6,VDDCPU*%
%TO.N,1V25_CORE*%
X19100000Y-38550000D03*
%TO.P,U7,H7,VSS*%
%TO.N,GND*%
X19900000Y-38550000D03*
%TO.P,U7,H8,VDDCORE*%
%TO.N,1V25_CORE*%
X20700000Y-38550000D03*
%TO.P,U7,H9,VDDCORE*%
X21500000Y-38550000D03*
%TO.P,U7,H10,VDDCORE*%
X22300000Y-38550000D03*
%TO.P,U7,H11,VSS*%
%TO.N,GND*%
X23100000Y-38550000D03*
%TO.P,U7,H12,VDDQ_DDR*%
%TO.N,1V35_DDR*%
X23900000Y-38550000D03*
%TO.P,U7,H13,DDR_WEN*%
%TO.N,/DDR3/DDR_WEN*%
X24700000Y-38550000D03*
%TO.P,U7,H14,VSS*%
%TO.N,GND*%
X25500000Y-38550000D03*
%TO.P,U7,H15,DDR_ODT*%
%TO.N,/DDR3/DDR_ODT*%
X26300000Y-38550000D03*
%TO.P,U7,H16,DDR_CSN*%
%TO.N,/DDR3/DDR_CSN*%
X27100000Y-38550000D03*
%TO.P,U7,H17,DDR_RASN*%
%TO.N,/DDR3/DDR_RASN*%
X27900000Y-38550000D03*
%TO.P,U7,J1,PD13*%
%TO.N,unconnected-(U7D-PD13-PadJ1)*%
X15100000Y-39350000D03*
%TO.P,U7,J2,VBAT*%
%TO.N,/POWER/VBAT*%
X15900000Y-39350000D03*
%TO.P,U7,J3,PI2*%
%TO.N,unconnected-(U7E-PI2-PadJ3)*%
X16700000Y-39350000D03*
%TO.P,U7,J4,VSS_PLL*%
%TO.N,GND*%
X17500000Y-39350000D03*
%TO.P,U7,J5,VDD_PLL*%
%TO.N,3V3_VDD*%
X18300000Y-39350000D03*
%TO.P,U7,J6,VDDCPU*%
%TO.N,1V25_CORE*%
X19100000Y-39350000D03*
%TO.P,U7,J7,VSS*%
%TO.N,GND*%
X19900000Y-39350000D03*
%TO.P,U7,J8,VDDCORE*%
%TO.N,1V25_CORE*%
X20700000Y-39350000D03*
%TO.P,U7,J9,VSS*%
%TO.N,GND*%
X21500000Y-39350000D03*
%TO.P,U7,J10,VDDCORE*%
%TO.N,1V25_CORE*%
X22300000Y-39350000D03*
%TO.P,U7,J11,VSS*%
%TO.N,GND*%
X23100000Y-39350000D03*
%TO.P,U7,J12,VDDQ_DDR*%
%TO.N,1V35_DDR*%
X23900000Y-39350000D03*
%TO.P,U7,J13,VDDCORE*%
%TO.N,1V25_CORE*%
X24700000Y-39350000D03*
%TO.P,U7,J14,DDR_A10*%
%TO.N,/DDR3/DDR_A10*%
X25500000Y-39350000D03*
%TO.P,U7,J15,DDR_CASN*%
%TO.N,/DDR3/DDR_CASN*%
X26300000Y-39350000D03*
%TO.P,U7,J16,DDR_CLKP*%
%TO.N,/DDR3/DDR_CLK_P*%
X27100000Y-39350000D03*
%TO.P,U7,J17,DDR_CLKN*%
%TO.N,/DDR3/DDR_CLK_N*%
X27900000Y-39350000D03*
%TO.P,U7,K1,PC14*%
%TO.N,unconnected-(U7D-PC14-PadK1)*%
X15100000Y-40150000D03*
%TO.P,U7,K2,PC15*%
%TO.N,unconnected-(U7D-PC15-PadK2)*%
X15900000Y-40150000D03*
%TO.P,U7,K3,VSS*%
%TO.N,GND*%
X16700000Y-40150000D03*
%TO.P,U7,K4,PC13*%
%TO.N,unconnected-(U7D-PC13-PadK4)*%
X17500000Y-40150000D03*
%TO.P,U7,K5,PI1*%
%TO.N,unconnected-(U7E-PI1-PadK5)*%
X18300000Y-40150000D03*
%TO.P,U7,K6,VDD*%
%TO.N,3V3_VDD*%
X19100000Y-40150000D03*
%TO.P,U7,K7,VSS*%
%TO.N,GND*%
X19900000Y-40150000D03*
%TO.P,U7,K8,VDDCORE*%
%TO.N,1V25_CORE*%
X20700000Y-40150000D03*
%TO.P,U7,K9,VDDCORE*%
X21500000Y-40150000D03*
%TO.P,U7,K10,VDDCORE*%
X22300000Y-40150000D03*
%TO.P,U7,K11,VSS*%
%TO.N,GND*%
X23100000Y-40150000D03*
%TO.P,U7,K12,VDDQ_DDR*%
%TO.N,1V35_DDR*%
X23900000Y-40150000D03*
%TO.P,U7,K13,DDR_A11*%
%TO.N,/DDR3/DDR_A11*%
X24700000Y-40150000D03*
%TO.P,U7,K14,DDR_CKE*%
%TO.N,/DDR3/DDR_CKE*%
X25500000Y-40150000D03*
%TO.P,U7,K15,DDR_A1*%
%TO.N,/DDR3/DDR_A1*%
X26300000Y-40150000D03*
%TO.P,U7,K16,DDR_A15*%
%TO.N,/DDR3/DDR_A15*%
X27100000Y-40150000D03*
%TO.P,U7,K17,DDR_A12*%
%TO.N,/DDR3/DDR_A12*%
X27900000Y-40150000D03*
%TO.P,U7,L1,PE2*%
%TO.N,unconnected-(U7E-PE2-PadL1)*%
X15100000Y-40950000D03*
%TO.P,U7,L2,PF4*%
%TO.N,unconnected-(U7E-PF4-PadL2)*%
X15900000Y-40950000D03*
%TO.P,U7,L3,PH6*%
%TO.N,unconnected-(U7E-PH6-PadL3)*%
X16700000Y-40950000D03*
%TO.P,U7,L4,PI0*%
%TO.N,unconnected-(U7E-PI0-PadL4)*%
X17500000Y-40950000D03*
%TO.P,U7,L5,PG3*%
%TO.N,unconnected-(U7E-PG3-PadL5)*%
X18300000Y-40950000D03*
%TO.P,U7,L6,VDD*%
%TO.N,3V3_VDD*%
X19100000Y-40950000D03*
%TO.P,U7,L7,VSS*%
%TO.N,GND*%
X19900000Y-40950000D03*
%TO.P,U7,L8,VSS*%
X20700000Y-40950000D03*
%TO.P,U7,L9,VSS*%
X21500000Y-40950000D03*
%TO.P,U7,L10,VSS*%
X22300000Y-40950000D03*
%TO.P,U7,L11,VSS*%
X23100000Y-40950000D03*
%TO.P,U7,L12,VDDQ_DDR*%
%TO.N,1V35_DDR*%
X23900000Y-40950000D03*
%TO.P,U7,L13,DDR_ATO*%
%TO.N,unconnected-(U7B-DDR_ATO-PadL13)*%
X24700000Y-40950000D03*
%TO.P,U7,L14,DDR_DTO0*%
%TO.N,unconnected-(U7B-DDR_DTO0-PadL14)*%
X25500000Y-40950000D03*
%TO.P,U7,L15,DDR_A8*%
%TO.N,/DDR3/DDR_A8*%
X26300000Y-40950000D03*
%TO.P,U7,L16,DDR_BA1*%
%TO.N,/DDR3/DDR_BA1*%
X27100000Y-40950000D03*
%TO.P,U7,L17,DDR_A14*%
%TO.N,/DDR3/DDR_A14*%
X27900000Y-40950000D03*
%TO.P,U7,M1,PF7*%
%TO.N,unconnected-(U7E-PF7-PadM1)*%
X15100000Y-41750000D03*
%TO.P,U7,M2,PA8*%
%TO.N,unconnected-(U7D-PA8-PadM2)*%
X15900000Y-41750000D03*
%TO.P,U7,M3,PG11*%
%TO.N,unconnected-(U7E-PG11-PadM3)*%
X16700000Y-41750000D03*
%TO.P,U7,M4,VDD_ANA*%
%TO.N,3V3_VDD*%
X17500000Y-41750000D03*
%TO.P,U7,M5,VSS_ANA*%
%TO.N,GND*%
X18300000Y-41750000D03*
%TO.P,U7,M6,VDD*%
%TO.N,3V3_VDD*%
X19100000Y-41750000D03*
%TO.P,U7,M7,VDD*%
X19900000Y-41750000D03*
%TO.P,U7,M8,VDD*%
X20700000Y-41750000D03*
%TO.P,U7,M9,VDD*%
X21500000Y-41750000D03*
%TO.P,U7,M10,VDD*%
X22300000Y-41750000D03*
%TO.P,U7,M11,VDD*%
X23100000Y-41750000D03*
%TO.P,U7,M12,VDDQ_DDR*%
%TO.N,1V35_DDR*%
X23900000Y-41750000D03*
%TO.P,U7,M13,DDR_VREF*%
%TO.N,/DDR3/DDR_VREF*%
X24700000Y-41750000D03*
%TO.P,U7,M14,DDR_A4*%
%TO.N,/DDR3/DDR_A4*%
X25500000Y-41750000D03*
%TO.P,U7,M15,VSS*%
%TO.N,GND*%
X26300000Y-41750000D03*
%TO.P,U7,M16,DDR_DTO1*%
%TO.N,unconnected-(U7B-DDR_DTO1-PadM16)*%
X27100000Y-41750000D03*
%TO.P,U7,M17,DDR_A6*%
%TO.N,/DDR3/DDR_A6*%
X27900000Y-41750000D03*
%TO.P,U7,N1,PE6*%
%TO.N,unconnected-(U7E-PE6-PadN1)*%
X15100000Y-42550000D03*
%TO.P,U7,N2,PG1*%
%TO.N,unconnected-(U7E-PG1-PadN2)*%
X15900000Y-42550000D03*
%TO.P,U7,N3,PD7*%
%TO.N,unconnected-(U7D-PD7-PadN3)*%
X16700000Y-42550000D03*
%TO.P,U7,N4,VSS*%
%TO.N,GND*%
X17500000Y-42550000D03*
%TO.P,U7,N5,PB11*%
%TO.N,unconnected-(U7D-PB11-PadN5)*%
X18300000Y-42550000D03*
%TO.P,U7,N6,PF13*%
%TO.N,unconnected-(U7E-PF13-PadN6)*%
X19100000Y-42550000D03*
%TO.P,U7,N7,VSSA*%
%TO.N,GND*%
X19900000Y-42550000D03*
%TO.P,U7,N8,PA3*%
%TO.N,unconnected-(U7D-PA3-PadN8)*%
X20700000Y-42550000D03*
%TO.P,U7,N9,NJTRST*%
%TO.N,unconnected-(U7C-NJTRST-PadN9)*%
X21500000Y-42550000D03*
%TO.P,U7,N10,VSS_USBHS*%
%TO.N,GND*%
X22300000Y-42550000D03*
%TO.P,U7,N11,VDDA1V1_REG*%
%TO.N,/POWER/VDDA1V1*%
X23100000Y-42550000D03*
%TO.P,U7,N12,VDDQ_DDR*%
%TO.N,1V35_DDR*%
X23900000Y-42550000D03*
%TO.P,U7,N13,PWR_LP*%
%TO.N,unconnected-(U7C-PWR_LP-PadN13)*%
X24700000Y-42550000D03*
%TO.P,U7,N14,DDR_DQM1*%
%TO.N,/DDR3/DDR_DQM1*%
X25500000Y-42550000D03*
%TO.P,U7,N15,DDR_DQ10*%
%TO.N,/DDR3/DDR_D10*%
X26300000Y-42550000D03*
%TO.P,U7,N16,DDR_DQ8*%
%TO.N,/DDR3/DDR_D8*%
X27100000Y-42550000D03*
%TO.P,U7,N17,DDR_ZQ*%
%TO.N,/DDR3/ZQ*%
X27900000Y-42550000D03*
%TO.P,U7,P1,PH0*%
%TO.N,unconnected-(U7E-PH0-PadP1)*%
X15100000Y-43350000D03*
%TO.P,U7,P2,PH1*%
%TO.N,unconnected-(U7E-PH1-PadP2)*%
X15900000Y-43350000D03*
%TO.P,U7,P3,PA13*%
%TO.N,unconnected-(U7D-PA13-PadP3)*%
X16700000Y-43350000D03*
%TO.P,U7,P4,PF14*%
%TO.N,unconnected-(U7E-PF14-PadP4)*%
X17500000Y-43350000D03*
%TO.P,U7,P5,PA2*%
%TO.N,unconnected-(U7D-PA2-PadP5)*%
X18300000Y-43350000D03*
%TO.P,U7,P6,VREF-*%
%TO.N,GND*%
X19100000Y-43350000D03*
%TO.P,U7,P7,VDDA*%
%TO.N,3V3_VDD*%
X19900000Y-43350000D03*
%TO.P,U7,P8,PG13*%
%TO.N,unconnected-(U7E-PG13-PadP8)*%
X20700000Y-43350000D03*
%TO.P,U7,P9,PG14*%
%TO.N,unconnected-(U7E-PG14-PadP9)*%
X21500000Y-43350000D03*
%TO.P,U7,P10,VDD3V3_USBHS*%
%TO.N,/POWER/VDD3V3_USBHS*%
X22300000Y-43350000D03*
%TO.P,U7,P11,VSS*%
%TO.N,GND*%
X23100000Y-43350000D03*
%TO.P,U7,P12,PI5*%
%TO.N,unconnected-(U7E-PI5-PadP12)*%
X23900000Y-43350000D03*
%TO.P,U7,P13,VSS_PLL2*%
%TO.N,GND*%
X24700000Y-43350000D03*
%TO.P,U7,P14,PWR_ON*%
%TO.N,/MPU-IO/PWR_ON*%
X25500000Y-43350000D03*
%TO.P,U7,P15,DDR_DQ11*%
%TO.N,/DDR3/DDR_D11*%
X26300000Y-43350000D03*
%TO.P,U7,P16,DDR_DQ13*%
%TO.N,/DDR3/DDR_D13*%
X27100000Y-43350000D03*
%TO.P,U7,P17,DDR_DQ9*%
%TO.N,/DDR3/DDR_D9*%
X27900000Y-43350000D03*
%TO.P,U7,R1,PG2*%
%TO.N,unconnected-(U7E-PG2-PadR1)*%
X15100000Y-44150000D03*
%TO.P,U7,R2,PH3*%
%TO.N,unconnected-(U7E-PH3-PadR2)*%
X15900000Y-44150000D03*
%TO.P,U7,R3,PWR_CPU_ON*%
%TO.N,unconnected-(U7E-PWR_CPU_ON-PadR3)*%
X16700000Y-44150000D03*
%TO.P,U7,R4,PA1*%
%TO.N,unconnected-(U7D-PA1-PadR4)*%
X17500000Y-44150000D03*
%TO.P,U7,R5,VSS*%
%TO.N,GND*%
X18300000Y-44150000D03*
%TO.P,U7,R6,VREF+*%
%TO.N,/POWER/VREF+*%
X19100000Y-44150000D03*
%TO.P,U7,R7,PC5*%
%TO.N,unconnected-(U7D-PC5-PadR7)*%
X19900000Y-44150000D03*
%TO.P,U7,R8,VSS*%
%TO.N,GND*%
X20700000Y-44150000D03*
%TO.P,U7,R9,VDD*%
%TO.N,3V3_VDD*%
X21500000Y-44150000D03*
%TO.P,U7,R10,PF15*%
%TO.N,unconnected-(U7E-PF15-PadR10)*%
X22300000Y-44150000D03*
%TO.P,U7,R11,VDDA1V8_REG*%
%TO.N,/POWER/VDDA1V8*%
X23100000Y-44150000D03*
%TO.P,U7,R12,PI6*%
%TO.N,unconnected-(U7E-PI6-PadR12)*%
X23900000Y-44150000D03*
%TO.P,U7,R13,VDD_PLL2*%
%TO.N,3V3_VDD*%
X24700000Y-44150000D03*
%TO.P,U7,R14,PH5*%
%TO.N,unconnected-(U7E-PH5-PadR14)*%
X25500000Y-44150000D03*
%TO.P,U7,R15,DDR_DQ12*%
%TO.N,/DDR3/DDR_D12*%
X26300000Y-44150000D03*
%TO.P,U7,R16,DDR_DQS1N*%
%TO.N,/DDR3/DDR_DQS1N*%
X27100000Y-44150000D03*
%TO.P,U7,R17,DDR_DQS1P*%
%TO.N,/DDR3/DDR_DQS1P*%
X27900000Y-44150000D03*
%TO.P,U7,T1,PG12*%
%TO.N,unconnected-(U7E-PG12-PadT1)*%
X15100000Y-44950000D03*
%TO.P,U7,T2,PA11*%
%TO.N,unconnected-(U7D-PA11-PadT2)*%
X15900000Y-44950000D03*
%TO.P,U7,T3,PC0*%
%TO.N,unconnected-(U7D-PC0-PadT3)*%
X16700000Y-44950000D03*
%TO.P,U7,T4,PF12*%
%TO.N,unconnected-(U7E-PF12-PadT4)*%
X17500000Y-44950000D03*
%TO.P,U7,T5,PC3*%
%TO.N,unconnected-(U7D-PC3-PadT5)*%
X18300000Y-44950000D03*
%TO.P,U7,T6,PF11*%
%TO.N,unconnected-(U7E-PF11-PadT6)*%
X19100000Y-44950000D03*
%TO.P,U7,T7,PB1*%
%TO.N,unconnected-(U7D-PB1-PadT7)*%
X19900000Y-44950000D03*
%TO.P,U7,T8,PA6*%
%TO.N,unconnected-(U7D-PA6-PadT8)*%
X20700000Y-44950000D03*
%TO.P,U7,T9,PE5*%
%TO.N,unconnected-(U7E-PE5-PadT9)*%
X21500000Y-44950000D03*
%TO.P,U7,T10,PDR_ON*%
%TO.N,unconnected-(U7E-PDR_ON-PadT10)*%
X22300000Y-44950000D03*
%TO.P,U7,T11,USB_DP2*%
%TO.N,unconnected-(U7C-USB_DP2-PadT11)*%
X23100000Y-44950000D03*
%TO.P,U7,T12,PA14*%
%TO.N,unconnected-(U7D-PA14-PadT12)*%
X23900000Y-44950000D03*
%TO.P,U7,T13,USB_DP1*%
%TO.N,unconnected-(U7C-USB_DP1-PadT13)*%
X24700000Y-44950000D03*
%TO.P,U7,T14,BYPASS_REG1V8*%
%TO.N,GND*%
X25500000Y-44950000D03*
%TO.P,U7,T15,PH4*%
%TO.N,unconnected-(U7E-PH4-PadT15)*%
X26300000Y-44950000D03*
%TO.P,U7,T16,DDR_DQ15*%
%TO.N,/DDR3/DDR_D15*%
X27100000Y-44950000D03*
%TO.P,U7,T17,DDR_DQ14*%
%TO.N,/DDR3/DDR_D14*%
X27900000Y-44950000D03*
%TO.P,U7,U1,VSS*%
%TO.N,GND*%
X15100000Y-45750000D03*
%TO.P,U7,U2,PA7*%
%TO.N,unconnected-(U7D-PA7-PadU2)*%
X15900000Y-45750000D03*
%TO.P,U7,U3,PA0*%
%TO.N,unconnected-(U7D-PA0-PadU3)*%
X16700000Y-45750000D03*
%TO.P,U7,U4,PA5*%
%TO.N,unconnected-(U7D-PA5-PadU4)*%
X17500000Y-45750000D03*
%TO.P,U7,U5,PA4*%
%TO.N,unconnected-(U7D-PA4-PadU5)*%
X18300000Y-45750000D03*
%TO.P,U7,U6,PC4*%
%TO.N,unconnected-(U7D-PC4-PadU6)*%
X19100000Y-45750000D03*
%TO.P,U7,U7,PB0*%
%TO.N,unconnected-(U7D-PB0-PadU7)*%
X19900000Y-45750000D03*
%TO.P,U7,U8,PC1*%
%TO.N,unconnected-(U7D-PC1-PadU8)*%
X20700000Y-45750000D03*
%TO.P,U7,U9,PC2*%
%TO.N,unconnected-(U7D-PC2-PadU9)*%
X21500000Y-45750000D03*
%TO.P,U7,U10,NRST*%
%TO.N,/MPU-IO/NRST*%
X22300000Y-45750000D03*
%TO.P,U7,U11,USB_DM2*%
%TO.N,unconnected-(U7C-USB_DM2-PadU11)*%
X23100000Y-45750000D03*
%TO.P,U7,U12,USB_RREF*%
%TO.N,unconnected-(U7C-USB_RREF-PadU12)*%
X23900000Y-45750000D03*
%TO.P,U7,U13,USB_DM1*%
%TO.N,unconnected-(U7C-USB_DM1-PadU13)*%
X24700000Y-45750000D03*
%TO.P,U7,U14,PI4*%
%TO.N,unconnected-(U7E-PI4-PadU14)*%
X25500000Y-45750000D03*
%TO.P,U7,U15,PA10*%
%TO.N,unconnected-(U7D-PA10-PadU15)*%
X26300000Y-45750000D03*
%TO.P,U7,U16,PI7*%
%TO.N,unconnected-(U7E-PI7-PadU16)*%
X27100000Y-45750000D03*
%TO.P,U7,U17,VSS*%
%TO.N,GND*%
X27900000Y-45750000D03*
%TD*%
D12*
%TO.P,S2,1,COM*%
%TO.N,/MPU-IO/NRST*%
X15562500Y-26012500D03*
%TO.P,S2,2,NO*%
%TO.N,GND*%
X15562500Y-21862500D03*
%TD*%
D13*
%TO.P,U6,1,VDD2A*%
%TO.N,unconnected-(U6-VDD2A-Pad1)*%
X18112500Y-52750000D03*
%TO.P,U6,2,LED2/~{INTSEL}*%
%TO.N,unconnected-(U6-LED2{slash}~{INTSEL}-Pad2)*%
X18112500Y-53250000D03*
%TO.P,U6,3,LED1/REGOFF*%
%TO.N,unconnected-(U6-LED1{slash}REGOFF-Pad3)*%
X18112500Y-53750000D03*
%TO.P,U6,4,XTAL2*%
%TO.N,unconnected-(U6-XTAL2-Pad4)*%
X18112500Y-54250000D03*
%TO.P,U6,5,XTAL1/CLKIN*%
%TO.N,unconnected-(U6-XTAL1{slash}CLKIN-Pad5)*%
X18112500Y-54750000D03*
%TO.P,U6,6,VDDCR*%
%TO.N,unconnected-(U6-VDDCR-Pad6)*%
X18112500Y-55250000D03*
D14*
%TO.P,U6,7,RXD1/MODE1*%
%TO.N,unconnected-(U6-RXD1{slash}MODE1-Pad7)*%
X18850000Y-55987500D03*
%TO.P,U6,8,RXD0/MODE0*%
%TO.N,unconnected-(U6-RXD0{slash}MODE0-Pad8)*%
X19350000Y-55987500D03*
%TO.P,U6,9,VDDIO*%
%TO.N,unconnected-(U6-VDDIO-Pad9)*%
X19850000Y-55987500D03*
%TO.P,U6,10,RXER/PHYAD0*%
%TO.N,unconnected-(U6-RXER{slash}PHYAD0-Pad10)*%
X20350000Y-55987500D03*
%TO.P,U6,11,CRS_DV/MODE2*%
%TO.N,unconnected-(U6-CRS_DV{slash}MODE2-Pad11)*%
X20850000Y-55987500D03*
%TO.P,U6,12,MDIO*%
%TO.N,unconnected-(U6-MDIO-Pad12)*%
X21350000Y-55987500D03*
D13*
%TO.P,U6,13,MDC*%
%TO.N,unconnected-(U6-MDC-Pad13)*%
X22087500Y-55250000D03*
%TO.P,U6,14,~{INT}/REFCLKO*%
%TO.N,unconnected-(U6-~{INT}{slash}REFCLKO-Pad14)*%
X22087500Y-54750000D03*
%TO.P,U6,15,~{RST}*%
%TO.N,unconnected-(U6-~{RST}-Pad15)*%
X22087500Y-54250000D03*
%TO.P,U6,16,TXEN*%
%TO.N,unconnected-(U6-TXEN-Pad16)*%
X22087500Y-53750000D03*
%TO.P,U6,17,TXD0*%
%TO.N,unconnected-(U6-TXD0-Pad17)*%
X22087500Y-53250000D03*
%TO.P,U6,18,TXD1*%
%TO.N,unconnected-(U6-TXD1-Pad18)*%
X22087500Y-52750000D03*
D14*
%TO.P,U6,19,VDD1A*%
%TO.N,unconnected-(U6-VDD1A-Pad19)*%
X21350000Y-52012500D03*
%TO.P,U6,20,TXN*%
%TO.N,unconnected-(U6-TXN-Pad20)*%
X20850000Y-52012500D03*
%TO.P,U6,21,TXP*%
%TO.N,unconnected-(U6-TXP-Pad21)*%
X20350000Y-52012500D03*
%TO.P,U6,22,RXN*%
%TO.N,unconnected-(U6-RXN-Pad22)*%
X19850000Y-52012500D03*
%TO.P,U6,23,RXP*%
%TO.N,unconnected-(U6-RXP-Pad23)*%
X19350000Y-52012500D03*
%TO.P,U6,24,RBIAS*%
%TO.N,unconnected-(U6-RBIAS-Pad24)*%
X18850000Y-52012500D03*
D15*
%TO.P,U6,25,VSS*%
%TO.N,unconnected-(U6-VSS-Pad25)*%
X20100000Y-54000000D03*
%TD*%
D16*
%TO.P,U8,1,~{CS}*%
%TO.N,unconnected-(U8-~{CS}-Pad1)*%
X39162500Y-56532500D03*
%TO.P,U8,2,DO/IO1*%
%TO.N,unconnected-(U8-DO{slash}IO1-Pad2)*%
X39162500Y-55262500D03*
%TO.P,U8,3,~{WP}/IO2*%
%TO.N,unconnected-(U8-~{WP}{slash}IO2-Pad3)*%
X39162500Y-53992500D03*
%TO.P,U8,4,GND*%
%TO.N,unconnected-(U8-GND-Pad4)*%
X39162500Y-52722500D03*
%TO.P,U8,5,DI/IO0*%
%TO.N,unconnected-(U8-DI{slash}IO0-Pad5)*%
X31362500Y-52722500D03*
%TO.P,U8,6,CLK*%
%TO.N,unconnected-(U8-CLK-Pad6)*%
X31362500Y-53992500D03*
%TO.P,U8,7,~{HOLD}/~{RESET}/IO3*%
%TO.N,unconnected-(U8-~{HOLD}{slash}~{RESET}{slash}IO3-Pad7)*%
X31362500Y-55262500D03*
%TO.P,U8,8,VCC*%
%TO.N,unconnected-(U8-VCC-Pad8)*%
X31362500Y-56532500D03*
D17*
%TO.P,U8,9,EP*%
%TO.N,unconnected-(U8-EP-Pad9)*%
X35262500Y-54627500D03*
%TD*%
D12*
%TO.P,S1,1,COM*%
%TO.N,unconnected-(S1-COM-Pad1)*%
X38962500Y-26012500D03*
%TO.P,S1,2,NO*%
%TO.N,unconnected-(S1-NO-Pad2)*%
X38962500Y-21862500D03*
%TD*%
D18*
%TO.P,U9,1,DAT2*%
%TO.N,unconnected-(U9-DAT2-Pad1)*%
X25062420Y-27285505D03*
%TO.P,U9,2,CS/DAT3*%
%TO.N,unconnected-(U9-CS{slash}DAT3-Pad2)*%
X26162490Y-27285505D03*
%TO.P,U9,3,SDI/CMD*%
%TO.N,unconnected-(U9-SDI{slash}CMD-Pad3)*%
X27262560Y-27285505D03*
%TO.P,U9,4,VDD*%
%TO.N,unconnected-(U9-VDD-Pad4)*%
X28362640Y-27285505D03*
%TO.P,U9,5,CLK*%
%TO.N,unconnected-(U9-CLK-Pad5)*%
X29462460Y-27285505D03*
%TO.P,U9,6,VSS*%
%TO.N,unconnected-(U9-VSS-Pad6)*%
X30562530Y-27285505D03*
%TO.P,U9,7,SDO/DAT0*%
%TO.N,unconnected-(U9-SDO{slash}DAT0-Pad7)*%
X31662610Y-27285505D03*
%TO.P,U9,8,DAT1*%
%TO.N,unconnected-(U9-DAT1-Pad8)*%
X32762430Y-27285505D03*
%TO.P,U9,9,CD*%
%TO.N,unconnected-(U9-CD-Pad9)*%
X33862500Y-27285505D03*
D19*
%TO.P,U9,10,SHLD*%
%TO.N,unconnected-(U9-SHLD-Pad10)*%
X35062650Y-26285505D03*
D20*
%TO.P,U9,11,SHLD*%
%TO.N,unconnected-(U9-SHLD-Pad11)*%
X35062650Y-16685575D03*
%TO.P,U9,12,SHLD*%
%TO.N,unconnected-(U9-SHLD-Pad12)*%
X19562550Y-16685575D03*
D21*
%TO.P,U9,13,SHLD*%
%TO.N,unconnected-(U9-SHLD-Pad13)*%
X20462480Y-26285505D03*
%TD*%
D22*
%TO.P,U1,*%
%TO.N,*%
X15307328Y-15308537D03*
X39486338Y-15314455D03*
D23*
%TO.P,U1,1,1*%
%TO.N,unconnected-(U1-Pad1)*%
X15700000Y-61802500D03*
%TO.P,U1,3,3*%
%TO.N,unconnected-(U1-Pad3)*%
X16500000Y-61802500D03*
%TO.P,U1,5,5*%
%TO.N,unconnected-(U1-Pad5)*%
X17300000Y-61802500D03*
%TO.P,U1,7,7*%
%TO.N,unconnected-(U1-Pad7)*%
X18100000Y-61802500D03*
%TO.P,U1,9,9*%
%TO.N,unconnected-(U1-Pad9)*%
X18900000Y-61802500D03*
%TO.P,U1,11,11*%
%TO.N,unconnected-(U1-Pad11)*%
X19700000Y-61802500D03*
%TO.P,U1,13,13*%
%TO.N,unconnected-(U1-Pad13)*%
X20500000Y-61802500D03*
%TO.P,U1,15,15*%
%TO.N,unconnected-(U1-Pad15)*%
X21300000Y-61802500D03*
%TO.P,U1,17,17*%
%TO.N,unconnected-(U1-Pad17)*%
X25300000Y-61802500D03*
%TO.P,U1,19,19*%
%TO.N,unconnected-(U1-Pad19)*%
X26100000Y-61802500D03*
%TO.P,U1,21,21*%
%TO.N,unconnected-(U1-Pad21)*%
X26900000Y-61802500D03*
%TO.P,U1,23,23*%
%TO.N,unconnected-(U1-Pad23)*%
X27700000Y-61802500D03*
%TO.P,U1,25,25*%
%TO.N,unconnected-(U1-Pad25)*%
X28500000Y-61802500D03*
%TO.P,U1,27,27*%
%TO.N,unconnected-(U1-Pad27)*%
X29300000Y-61802500D03*
%TO.P,U1,29,29*%
%TO.N,unconnected-(U1-Pad29)*%
X30100000Y-61802500D03*
%TO.P,U1,31,31*%
%TO.N,unconnected-(U1-Pad31)*%
X30900000Y-61802500D03*
%TO.P,U1,33,33*%
%TO.N,unconnected-(U1-Pad33)*%
X31700000Y-61802500D03*
%TO.P,U1,35,35*%
%TO.N,unconnected-(U1-Pad35)*%
X32500000Y-61802500D03*
%TO.P,U1,37,37*%
%TO.N,unconnected-(U1-Pad37)*%
X33300000Y-61802500D03*
%TO.P,U1,39,39*%
%TO.N,unconnected-(U1-Pad39)*%
X34100000Y-61802500D03*
%TO.P,U1,41,41*%
%TO.N,unconnected-(U1-Pad41)*%
X34900000Y-61802500D03*
%TO.P,U1,43,43*%
%TO.N,unconnected-(U1-Pad43)*%
X35700000Y-61802500D03*
%TO.P,U1,45,45*%
%TO.N,unconnected-(U1-Pad45)*%
X36500000Y-61802500D03*
%TO.P,U1,47,47*%
%TO.N,unconnected-(U1-Pad47)*%
X37300000Y-61802500D03*
%TO.P,U1,49,49*%
%TO.N,unconnected-(U1-Pad49)*%
X38100000Y-61802500D03*
%TO.P,U1,51,51*%
%TO.N,unconnected-(U1-Pad51)*%
X38900000Y-61802500D03*
%TD*%
D24*
%TO.N,GND*%
X22700000Y-42149998D03*
X20350000Y-34200000D03*
X32800000Y-45300000D03*
X21900000Y-41350000D03*
X25100000Y-36550000D03*
X40200000Y-42100000D03*
X33700000Y-42500000D03*
X39300000Y-39300000D03*
X40200000Y-33300000D03*
X21900000Y-37350000D03*
X17950000Y-42100000D03*
X19500000Y-39750000D03*
X32800000Y-36500000D03*
X33700000Y-39300000D03*
X34500000Y-42500000D03*
X27900000Y-46300000D03*
X22700000Y-40550000D03*
X25900000Y-42149998D03*
X40200000Y-42900000D03*
X21900000Y-39750000D03*
X40200000Y-44500000D03*
X25900000Y-37350000D03*
X40200000Y-34900000D03*
X28950000Y-36550000D03*
X37700000Y-44100000D03*
X40200000Y-36500000D03*
X32800000Y-44619850D03*
X40200000Y-40500000D03*
X28300000Y-32550000D03*
X16350000Y-35000000D03*
X19500000Y-42950000D03*
X17950000Y-35800000D03*
X32800000Y-40500000D03*
X23500000Y-35750000D03*
X32800000Y-41300000D03*
X24300002Y-42950000D03*
X16350000Y-40500000D03*
X25900000Y-38950000D03*
X32800000Y-33300000D03*
X34500000Y-40900000D03*
X32800000Y-34900000D03*
X23500002Y-43750000D03*
X20300000Y-44550002D03*
X21100000Y-37350000D03*
X14700000Y-45350000D03*
X18650000Y-41400000D03*
X21100000Y-41350000D03*
X18700000Y-43750000D03*
X25100000Y-45349998D03*
X39300000Y-42500000D03*
X17900000Y-39750000D03*
X14700000Y-32550000D03*
%TO.N,3V3_VDD*%
X22700000Y-36550002D03*
X22700000Y-37349998D03*
X17900000Y-41350000D03*
X23500000Y-42150000D03*
X18700000Y-39750000D03*
X21900000Y-42150000D03*
X23500000Y-34950000D03*
X19500000Y-37350000D03*
X19500000Y-41350000D03*
X21100000Y-44550002D03*
X21100000Y-42150000D03*
X19500000Y-43750002D03*
X24299998Y-43750000D03*
%TO.N,1V25_CORE*%
X18700000Y-38950000D03*
X21900000Y-38950000D03*
X21100000Y-36550000D03*
X21100000Y-39750000D03*
X21100000Y-38950000D03*
X20300000Y-36550000D03*
X18700000Y-36550000D03*
X25100000Y-39750000D03*
%TO.N,1V35_DDR*%
X24299998Y-36550000D03*
X33700000Y-38500000D03*
X40200000Y-41300000D03*
X32800000Y-42100000D03*
X32800000Y-35700000D03*
X32800000Y-43700000D03*
X32800000Y-39700000D03*
X40200000Y-43700000D03*
X32800000Y-42900000D03*
X34500000Y-40100000D03*
X24293963Y-38942155D03*
X39300000Y-44900000D03*
X38500000Y-39300000D03*
X40200000Y-34100000D03*
X39300000Y-38500000D03*
X40200000Y-45300000D03*
X38500000Y-42500000D03*
X33700000Y-44900000D03*
X23500002Y-37350000D03*
X24300000Y-42150000D03*
X40200000Y-35700000D03*
X24273127Y-40549991D03*
X32800000Y-34100000D03*
%TO.N,/DDR3/DDR_VREF*%
X25100000Y-42150000D03*
X40200000Y-39700000D03*
X33700000Y-36900000D03*
%TO.N,/DDR3/DDR_CLK_N*%
X34500000Y-37700000D03*
X28300000Y-39750000D03*
%TO.N,/DDR3/DDR_CLK_P*%
X27500000Y-39750000D03*
X34500000Y-38500000D03*
%TO.N,/DDR3/ZQ*%
X29025000Y-42775000D03*
X33700000Y-37700000D03*
%TO.N,/DDR3/DDR_CKE*%
X32900000Y-38500000D03*
X25900000Y-40550000D03*
%TO.N,/DDR3/DDR_RESETN*%
X39300000Y-32900000D03*
X28350000Y-36300000D03*
%TO.N,/DDR3/DDR_BA1*%
X33700000Y-36100000D03*
X26700000Y-41350000D03*
%TO.N,/DDR3/DDR_RASN*%
X38500000Y-38500000D03*
X28300000Y-38950000D03*
%TO.N,/DDR3/DDR_BA0*%
X28600000Y-37950000D03*
X39300000Y-36100000D03*
%TO.N,/DDR3/DDR_A4*%
X33700000Y-35300000D03*
X25100000Y-41350000D03*
%TO.N,/DDR3/DDR_A2*%
X38500000Y-34500000D03*
X29600000Y-36700000D03*
%TO.N,/DDR3/DDR_A6*%
X33700000Y-34500000D03*
X27500000Y-41350000D03*
%TO.N,/DDR3/DDR_A11*%
X34500000Y-33700000D03*
X25100000Y-40550000D03*
%TO.N,/DDR3/DDR_A1*%
X34500000Y-34500000D03*
X26700000Y-40550000D03*
%TO.N,/DDR3/DDR_A5*%
X29350000Y-36100000D03*
X39300000Y-34500000D03*
%TO.N,/DDR3/DDR_CSN*%
X39300000Y-36900000D03*
X27500000Y-38900000D03*
%TO.N,/DDR3/DDR_A0*%
X27500000Y-38150000D03*
X38500000Y-35300000D03*
%TO.N,/DDR3/DDR_A13*%
X25100000Y-37350000D03*
X38500000Y-32900000D03*
%TO.N,/DDR3/DDR_ODT*%
X26700000Y-38900000D03*
X40500000Y-38350000D03*
%TO.N,/DDR3/DDR_A15*%
X27500000Y-40550000D03*
X34500000Y-36100000D03*
%TO.N,/DDR3/DDR_A7*%
X39300000Y-33700000D03*
X25900000Y-38150000D03*
%TO.N,/DDR3/DDR_BA2*%
X24300000Y-38150000D03*
X24300000Y-37350000D03*
X38500000Y-36100000D03*
%TO.N,/DDR3/DDR_A10*%
X34500000Y-36900000D03*
X25900000Y-39750000D03*
%TO.N,/DDR3/DDR_WEN*%
X25100000Y-38950000D03*
X38500000Y-36900000D03*
%TO.N,/DDR3/DDR_A9*%
X38500000Y-33700000D03*
X26700000Y-37350000D03*
%TO.N,/DDR3/DDR_A3*%
X26700000Y-38150000D03*
X39300000Y-35300000D03*
%TO.N,/DDR3/DDR_A14*%
X28300000Y-41350000D03*
X35300000Y-33700000D03*
%TO.N,/DDR3/DDR_A12*%
X28300000Y-40550000D03*
X34500000Y-35300000D03*
%TO.N,/DDR3/DDR_A8*%
X33700000Y-33700000D03*
X25900000Y-41350000D03*
%TO.N,/DDR3/DDR_CASN*%
X40500000Y-37700000D03*
X26700000Y-39750000D03*
%TD*%
D25*
%TO.N,/DDR3/DDR_D7*%
X30046592Y-37103408D02*
X30100000Y-37050000D01*
%TO.N,/DDR3/DDR_D4*%
X26780136Y-32300000D02*
X26750000Y-32300000D01*
%TO.N,/DDR3/DDR_DQM0*%
X38587143Y-30400000D02*
G75*
G03*
X38502400Y-30484680I-43J-84700D01*
G01*
%TO.N,/DDR3/DDR_D0*%
X37950000Y-32150000D02*
G75*
G03*
X38034700Y-32065320I0J84700D01*
G01*
%TO.N,/DDR3/DDR_DQS0N*%
X27812450Y-31182710D02*
X27812450Y-30717290D01*
X28167290Y-30362450D02*
X28287053Y-30362450D01*
X27812450Y-30717290D02*
X28167290Y-30362450D01*
X28067290Y-31437550D02*
X27812450Y-31182710D01*
%TO.N,/DDR3/DDR_DQS0P*%
X28287053Y-30037550D02*
X28817290Y-30037550D01*
%TO.N,/DDR3/DDR_DQS0N*%
X28287053Y-30362450D02*
X28682710Y-30362450D01*
D26*
%TO.N,/DDR3/DDR_D1*%
X29332159Y-35542841D02*
G75*
G02*
X29439639Y-35542841I53740J-53739D01*
G01*
D25*
%TO.N,/DDR3/DDR_D9*%
X37700000Y-45328371D02*
X37700000Y-45590071D01*
%TO.N,/DDR3/DDR_D14*%
X35200000Y-43300000D02*
X35358115Y-43300000D01*
X35358115Y-43300000D02*
G75*
G02*
X35442800Y-43384680I-15J-84700D01*
G01*
%TO.N,/DDR3/DDR_D11*%
X40850000Y-45400000D02*
X40850000Y-45642758D01*
X40850000Y-45642758D02*
G75*
G03*
X40934680Y-45727500I84700J-42D01*
G01*
%TO.N,/DDR3/DDR_D10*%
X29540320Y-43264065D02*
G75*
G02*
X29624935Y-43348745I-20J-84635D01*
G01*
X28975000Y-43650000D02*
X28800000Y-43475000D01*
X28800000Y-43475000D02*
X28800000Y-43250000D01*
X29625000Y-43650000D02*
X28975000Y-43650000D01*
X28375000Y-42825000D02*
X28225000Y-42825000D01*
X29625000Y-43348745D02*
X29625000Y-43450000D01*
X29625000Y-43450000D02*
X29625000Y-43650000D01*
X28800000Y-43250000D02*
X28375000Y-42825000D01*
%TO.N,/DDR3/DDR_D5*%
X29862923Y-37400001D02*
X30124623Y-37400001D01*
%TO.N,/DDR3/DDR_D12*%
X34750000Y-45750000D02*
X32400000Y-45750000D01*
X32400000Y-45750000D02*
X32370115Y-45720115D01*
%TO.N,/DDR3/DDR_D15*%
X38629567Y-45829567D02*
X38800000Y-46000000D01*
%TO.N,/DDR3/DDR_D3*%
X30856441Y-32100000D02*
X31050000Y-32100000D01*
%TO.N,/DDR3/DDR_D8*%
X28900000Y-41725816D02*
X28900000Y-41950000D01*
X28429406Y-41988150D02*
X28358556Y-42059000D01*
X28816222Y-42033778D02*
X28770594Y-41988150D01*
X28770594Y-41988150D02*
X28429406Y-41988150D01*
X28358556Y-42059000D02*
X28200000Y-42059000D01*
X28900000Y-41950000D02*
X28816222Y-42033778D01*
X28815320Y-41641136D02*
G75*
G02*
X28899964Y-41725816I-20J-84664D01*
G01*
%TO.N,/DDR3/DDR_DQS1P*%
X28946023Y-44150000D02*
X29329740Y-44150000D01*
%TO.N,/DDR3/DDR_DQS1N*%
X27100000Y-44150000D02*
X27424900Y-44474900D01*
X28946023Y-44474900D02*
X29195160Y-44474900D01*
X27424900Y-44474900D02*
X28946023Y-44474900D01*
%TO.N,/DDR3/DDR_D13*%
X39700000Y-46100000D02*
X39700000Y-46791481D01*
X38900000Y-45300000D02*
X39700000Y-46100000D01*
X39700000Y-46791481D02*
G75*
G03*
X39784680Y-46876200I84700J-19D01*
G01*
%TO.N,/DDR3/DDR_D6*%
X41300000Y-39400000D02*
X41300000Y-39251517D01*
X40600000Y-40100000D02*
X41300000Y-39400000D01*
X40500000Y-40100000D02*
X40600000Y-40100000D01*
X41300000Y-39251517D02*
G75*
G03*
X41215320Y-39166800I-84700J17D01*
G01*
%TO.N,/DDR3/DDR_D7*%
X31948779Y-32801220D02*
X32138300Y-32611700D01*
X32081925Y-33114002D02*
X31918837Y-32950914D01*
X32051987Y-33263697D02*
X32081925Y-33233758D01*
X30650000Y-33400000D02*
X31173400Y-33400000D01*
X31619448Y-33130548D02*
X31649389Y-33100610D01*
X30534680Y-33656820D02*
X30565320Y-33656820D01*
X30829068Y-35519458D02*
X30859006Y-35489519D01*
X31350000Y-36880640D02*
X31350000Y-36838300D01*
X30450000Y-34207240D02*
X30450000Y-34164900D01*
X35218198Y-39700000D02*
X34900000Y-39700000D01*
X30100000Y-35610440D02*
X30100000Y-35568100D01*
X31649389Y-33100610D02*
X31649390Y-33100610D01*
X30650000Y-34080220D02*
X31815320Y-34080220D01*
X32743462Y-32611700D02*
X35461700Y-32611700D01*
X35688300Y-34193534D02*
X35688300Y-39229898D01*
X30184680Y-36330220D02*
X30100000Y-36330220D01*
X31350000Y-36457240D02*
X31350000Y-36414900D01*
X30000000Y-37150000D02*
X30046592Y-37103408D01*
X31350000Y-36033840D02*
X31350000Y-35991500D01*
X31681887Y-33492376D02*
X31711825Y-33462437D01*
X30100000Y-35906820D02*
X30015320Y-35906820D01*
X30450000Y-33783840D02*
X30450000Y-33741500D01*
X30100000Y-35568100D02*
X30100000Y-35400000D01*
X35923550Y-33958284D02*
X35688300Y-34193534D01*
X35923550Y-33073550D02*
X35923550Y-33958284D01*
X30404804Y-35214950D02*
X30709312Y-35519458D01*
X35461700Y-32611700D02*
X35923550Y-33073550D01*
X30734680Y-34503620D02*
X31815320Y-34503620D01*
X31769145Y-33100610D02*
X31932232Y-33263697D01*
X30554497Y-34945498D02*
X30584438Y-34915560D01*
X31900000Y-33995540D02*
X31900000Y-33953200D01*
X31900000Y-34418940D02*
X31900000Y-34376600D01*
X32138300Y-32611700D02*
X32743462Y-32611700D01*
X31711825Y-33342681D02*
X31619448Y-33250304D01*
X31918837Y-32831159D02*
X31948779Y-32801220D01*
X30565320Y-33868520D02*
X30534680Y-33868520D01*
X30650000Y-33868520D02*
X30565320Y-33868520D01*
X30100000Y-35400000D02*
X30285049Y-35214950D01*
X30015320Y-35906820D02*
X29784680Y-35906820D01*
X30100000Y-36668940D02*
X30100000Y-36626600D01*
X31265320Y-36330220D02*
X30184680Y-36330220D01*
X30650000Y-34850000D02*
X30650000Y-34588300D01*
X30534680Y-34080220D02*
X30650000Y-34080220D01*
X31173400Y-33400000D02*
X31350000Y-33400000D01*
X30650000Y-34291920D02*
X30534680Y-34291920D01*
X30734680Y-34291920D02*
X30650000Y-34291920D01*
X30584438Y-34915560D02*
X30650000Y-34850000D01*
X30100000Y-36330220D02*
X29834680Y-36330220D01*
X31815320Y-34291920D02*
X30734680Y-34291920D01*
X35688300Y-39229898D02*
X35218198Y-39700000D01*
X31815320Y-33868520D02*
X30650000Y-33868520D01*
X30184680Y-36965320D02*
X31265320Y-36965320D01*
X30650000Y-33572140D02*
X30650000Y-33529800D01*
X29834680Y-36118520D02*
X30100000Y-36118520D01*
X31265320Y-35906820D02*
X30100000Y-35906820D01*
X31265320Y-36753620D02*
X30184680Y-36753620D01*
X29700000Y-35822140D02*
X29700000Y-35779800D01*
X29784680Y-35695120D02*
X30015320Y-35695120D01*
X31469755Y-33400000D02*
X31562131Y-33492376D01*
X30100000Y-36118520D02*
X31265320Y-36118520D01*
X30859006Y-35369763D02*
X30554497Y-35065254D01*
X30650000Y-33529800D02*
X30650000Y-33400000D01*
X30184680Y-36541920D02*
X31265320Y-36541920D01*
X29750000Y-36245540D02*
X29750000Y-36203200D01*
X31350000Y-36414900D02*
G75*
G03*
X31265320Y-36330200I-84700J0D01*
G01*
X30100000Y-37050000D02*
G75*
G02*
X30184680Y-36965300I84700J0D01*
G01*
X31932232Y-33263697D02*
G75*
G03*
X32051987Y-33263697I59877J59878D01*
G01*
X32081925Y-33233758D02*
G75*
G03*
X32081905Y-33114022I-59925J59858D01*
G01*
X31350000Y-35991500D02*
G75*
G03*
X31265320Y-35906800I-84700J0D01*
G01*
X30450000Y-34164900D02*
G75*
G02*
X30534680Y-34080200I84700J0D01*
G01*
X30285049Y-35214950D02*
G75*
G02*
X30404804Y-35214950I59877J-59878D01*
G01*
X30450000Y-33741500D02*
G75*
G02*
X30534680Y-33656800I84700J0D01*
G01*
X30650000Y-34588300D02*
G75*
G02*
X30734680Y-34503600I84700J0D01*
G01*
X30534680Y-33868520D02*
G75*
G02*
X30449980Y-33783840I20J84720D01*
G01*
X31900000Y-34376600D02*
G75*
G03*
X31815320Y-34291900I-84700J0D01*
G01*
X31815320Y-34080220D02*
G75*
G03*
X31900020Y-33995540I-20J84720D01*
G01*
X30100000Y-36626600D02*
G75*
G02*
X30184680Y-36541900I84700J0D01*
G01*
X31918837Y-32950914D02*
G75*
G02*
X31918800Y-32831123I59863J59914D01*
G01*
X31900000Y-33953200D02*
G75*
G03*
X31815320Y-33868500I-84700J0D01*
G01*
X29784680Y-35906820D02*
G75*
G02*
X29699980Y-35822140I20J84720D01*
G01*
X31265320Y-36541920D02*
G75*
G03*
X31350020Y-36457240I-20J84720D01*
G01*
X30709312Y-35519458D02*
G75*
G03*
X30829068Y-35519458I59878J59879D01*
G01*
X30859006Y-35489519D02*
G75*
G03*
X30859047Y-35369722I-59906J59919D01*
G01*
X30554497Y-35065254D02*
G75*
G02*
X30554521Y-34945522I59903J59854D01*
G01*
X30015320Y-35695120D02*
G75*
G03*
X30100020Y-35610440I-20J84720D01*
G01*
X31265320Y-36965320D02*
G75*
G03*
X31350020Y-36880640I-20J84720D01*
G01*
X31619448Y-33250304D02*
G75*
G02*
X31619422Y-33130522I59852J59904D01*
G01*
X29750000Y-36203200D02*
G75*
G02*
X29834680Y-36118500I84700J0D01*
G01*
X31265320Y-36118520D02*
G75*
G03*
X31350020Y-36033840I-20J84720D01*
G01*
X31649390Y-33100610D02*
G75*
G02*
X31769145Y-33100610I59877J-59878D01*
G01*
X29700000Y-35779800D02*
G75*
G02*
X29784680Y-35695100I84700J0D01*
G01*
X31562131Y-33492376D02*
G75*
G03*
X31681887Y-33492376I59878J59879D01*
G01*
X30534680Y-34291920D02*
G75*
G02*
X30449980Y-34207240I20J84720D01*
G01*
X31711825Y-33462437D02*
G75*
G03*
X31711784Y-33342722I-59925J59837D01*
G01*
X30565320Y-33656820D02*
G75*
G03*
X30650020Y-33572140I-20J84720D01*
G01*
X31350000Y-33400000D02*
G75*
G02*
X31469755Y-33400000I59877J-59878D01*
G01*
X31815320Y-34503620D02*
G75*
G03*
X31900020Y-34418940I-20J84720D01*
G01*
X30184680Y-36753620D02*
G75*
G02*
X30099980Y-36668940I20J84720D01*
G01*
X31350000Y-36838300D02*
G75*
G03*
X31265320Y-36753600I-84700J0D01*
G01*
X29834680Y-36330220D02*
G75*
G02*
X29749980Y-36245540I20J84720D01*
G01*
%TO.N,/DDR3/DDR_D11*%
X40934680Y-45727438D02*
X40965320Y-45727438D01*
X41050000Y-46235518D02*
X41050000Y-46277858D01*
X27285414Y-49335414D02*
X27285414Y-46994739D01*
X41050000Y-45812118D02*
X41050000Y-45854458D01*
X40765320Y-46362538D02*
X40184680Y-46362538D01*
X40100000Y-46447218D02*
X40100000Y-46489558D01*
X40850000Y-46701258D02*
X40850000Y-46888215D01*
X40850000Y-46658918D02*
X40850000Y-46701258D01*
X40850000Y-46150838D02*
X40965320Y-46150838D01*
X27285414Y-46994739D02*
X27100000Y-46809324D01*
X40184680Y-46574238D02*
X40765320Y-46574238D01*
X40934680Y-45939138D02*
X40850000Y-45939138D01*
X40850000Y-48350000D02*
X38850000Y-50350000D01*
X27100000Y-46809324D02*
X27100000Y-46447172D01*
X40965320Y-45939138D02*
X40934680Y-45939138D01*
X40850000Y-45939138D02*
X40184680Y-45939138D01*
X38850000Y-50350000D02*
X28300000Y-50350000D01*
X28300000Y-50350000D02*
X27285414Y-49335414D01*
X40100000Y-46023818D02*
X40100000Y-46066158D01*
X40850000Y-46888215D02*
X40850000Y-48350000D01*
X40965320Y-46362538D02*
X40850000Y-46362538D01*
X40850000Y-46362538D02*
X40765320Y-46362538D01*
X40184680Y-46150838D02*
X40850000Y-46150838D01*
X40765320Y-46574238D02*
G75*
G02*
X40849962Y-46658918I-20J-84662D01*
G01*
X41050000Y-46277858D02*
G75*
G02*
X40965320Y-46362600I-84700J-42D01*
G01*
X40100000Y-46066158D02*
G75*
G03*
X40184680Y-46150900I84700J-42D01*
G01*
X40965320Y-46150838D02*
G75*
G02*
X41049962Y-46235518I-20J-84662D01*
G01*
X40100000Y-46489558D02*
G75*
G03*
X40184680Y-46574300I84700J-42D01*
G01*
X40184680Y-46362538D02*
G75*
G03*
X40100038Y-46447218I20J-84662D01*
G01*
X40965320Y-45727438D02*
G75*
G02*
X41049962Y-45812118I-20J-84662D01*
G01*
X40184680Y-45939138D02*
G75*
G03*
X40100038Y-46023818I20J-84662D01*
G01*
X41050000Y-45854458D02*
G75*
G02*
X40965320Y-45939200I-84700J-42D01*
G01*
%TO.N,/DDR3/DDR_D10*%
X30469780Y-38700000D02*
X30469780Y-38935320D01*
X31465320Y-42683580D02*
X31550000Y-42683580D01*
X31550000Y-40227860D02*
X31550000Y-40270200D01*
X31550000Y-43600000D02*
X32084000Y-44134000D01*
X31550000Y-43450000D02*
X31550000Y-43600000D01*
X30893180Y-38464680D02*
X30893180Y-38615320D01*
X31550000Y-39804460D02*
X31550000Y-39846800D01*
X31230000Y-42979960D02*
X31230000Y-43022300D01*
X30681480Y-38700000D02*
X30681480Y-38615320D01*
X31770000Y-42768260D02*
X31770000Y-42810600D01*
X31465320Y-42895280D02*
X31314680Y-42895280D01*
X31550000Y-42683580D02*
X31685320Y-42683580D01*
X31314680Y-42683580D02*
X31465320Y-42683580D01*
X31230000Y-42556560D02*
X31230000Y-42598900D01*
X31465320Y-39931480D02*
X31314680Y-39931480D01*
X31550000Y-42344860D02*
X31550000Y-42387200D01*
X31465320Y-41625080D02*
X31314680Y-41625080D01*
X30046380Y-38615320D02*
X30046380Y-38700000D01*
X31314680Y-40989980D02*
X31465320Y-40989980D01*
X31230000Y-41286360D02*
X31230000Y-41328700D01*
X31465320Y-40778280D02*
X31314680Y-40778280D01*
X30046380Y-38464680D02*
X30046380Y-38615320D01*
X31230000Y-40439560D02*
X31230000Y-40481900D01*
X31250000Y-38700000D02*
X31435049Y-38885049D01*
X30681480Y-38935320D02*
X30681480Y-38700000D01*
X30258080Y-38935320D02*
X30258080Y-38700000D01*
X31465320Y-39084680D02*
X31314680Y-39084680D01*
X30258080Y-38700000D02*
X30258080Y-38464680D01*
X30131060Y-39020000D02*
X30173400Y-39020000D01*
X30977860Y-38700000D02*
X31020200Y-38700000D01*
X31230000Y-40862960D02*
X31230000Y-40905300D01*
X31314680Y-40566580D02*
X31465320Y-40566580D01*
X30469780Y-38464680D02*
X30469780Y-38700000D01*
X30554460Y-39020000D02*
X30596800Y-39020000D01*
X31465320Y-42048480D02*
X31314680Y-42048480D01*
X31230000Y-39169360D02*
X31230000Y-39211700D01*
X31465320Y-41201680D02*
X31314680Y-41201680D01*
X31550000Y-41074660D02*
X31550000Y-41117000D01*
X31550000Y-40651260D02*
X31550000Y-40693600D01*
X29585049Y-38864950D02*
X29750000Y-38700000D01*
X31314680Y-40143180D02*
X31465320Y-40143180D01*
X31465320Y-39508080D02*
X31314680Y-39508080D01*
X30046380Y-38700000D02*
X30046380Y-38935320D01*
X31314680Y-42260180D02*
X31465320Y-42260180D01*
X31230000Y-41709760D02*
X31230000Y-41752100D01*
X30766160Y-38380000D02*
X30808500Y-38380000D01*
X31230000Y-40016160D02*
X31230000Y-40058500D01*
X31314680Y-39296380D02*
X31465320Y-39296380D01*
X31435049Y-38885049D02*
X31550000Y-39000000D01*
X31550000Y-41498060D02*
X31550000Y-41540400D01*
X32084000Y-44134000D02*
X32800000Y-44134000D01*
X31685320Y-42895280D02*
X31550000Y-42895280D01*
X30681480Y-38615320D02*
X30681480Y-38464680D01*
X31550000Y-43191660D02*
X31550000Y-43234000D01*
X31230000Y-42133160D02*
X31230000Y-42175500D01*
X31550000Y-39381060D02*
X31550000Y-39423400D01*
X29400000Y-39324500D02*
X29400000Y-39050000D01*
X30342760Y-38380000D02*
X30385100Y-38380000D01*
X31465320Y-42471880D02*
X31314680Y-42471880D01*
X29635320Y-41568520D02*
X29484680Y-41568520D01*
X29400000Y-40637040D02*
X29400000Y-40594700D01*
X29264680Y-42203620D02*
X29315320Y-42203620D01*
X29484680Y-39663220D02*
X29635320Y-39663220D01*
X29635320Y-39451520D02*
X29484680Y-39451520D01*
X29720000Y-39578540D02*
X29720000Y-39536200D01*
X29484680Y-40086620D02*
X29635320Y-40086620D01*
X29400000Y-40213640D02*
X29400000Y-40171300D01*
X29635320Y-40298320D02*
X29484680Y-40298320D01*
X29315320Y-42415320D02*
X29264680Y-42415320D01*
X31550000Y-42895280D02*
X31465320Y-42895280D01*
X31550000Y-41921460D02*
X31550000Y-41963800D01*
X29439950Y-42539950D02*
X29400000Y-42500000D01*
X29635320Y-39874920D02*
X29484680Y-39874920D01*
X29635320Y-40721720D02*
X29484680Y-40721720D01*
X29400000Y-39050000D02*
X29585049Y-38864950D01*
X29400000Y-41991920D02*
X29214680Y-41991920D01*
X29484680Y-41780220D02*
X29635320Y-41780220D01*
X29400000Y-41060440D02*
X29400000Y-41018100D01*
X31314680Y-41413380D02*
X31465320Y-41413380D01*
X29540320Y-43264065D02*
X29389680Y-43264065D01*
X31465320Y-40354880D02*
X31314680Y-40354880D01*
X29400000Y-41483840D02*
X29400000Y-41441500D01*
X29305000Y-43179385D02*
X29305000Y-43137045D01*
X29834680Y-38615320D02*
X29834680Y-38464680D01*
X29400000Y-39366840D02*
X29400000Y-39324500D01*
X29720000Y-41272140D02*
X29720000Y-41229800D01*
X29484680Y-40510020D02*
X29635320Y-40510020D01*
X29720000Y-42118940D02*
X29720000Y-42076600D01*
X29130000Y-41907240D02*
X29130000Y-41864900D01*
X29400000Y-39790240D02*
X29400000Y-39747900D01*
X31020200Y-38700000D02*
X31250000Y-38700000D01*
X29720000Y-40001940D02*
X29720000Y-39959600D01*
X29720000Y-40425340D02*
X29720000Y-40383000D01*
X29720000Y-40848740D02*
X29720000Y-40806400D01*
X29484680Y-40933420D02*
X29635320Y-40933420D01*
X29315320Y-42203620D02*
X29400000Y-42203620D01*
X31314680Y-43106980D02*
X31465320Y-43106980D01*
X29484680Y-41356820D02*
X29635320Y-41356820D01*
X29389680Y-43052365D02*
X29540320Y-43052365D01*
X29720000Y-41695540D02*
X29720000Y-41653200D01*
X29635320Y-41145120D02*
X29484680Y-41145120D01*
X29214680Y-41780220D02*
X29400000Y-41780220D01*
X29400000Y-41780220D02*
X29484680Y-41780220D01*
X31314680Y-41836780D02*
X31465320Y-41836780D01*
X29635320Y-41991920D02*
X29400000Y-41991920D01*
X29625000Y-42725000D02*
X29439950Y-42539950D01*
X29400000Y-42203620D02*
X29635320Y-42203620D01*
X29180000Y-42330640D02*
X29180000Y-42288300D01*
X29625000Y-42925345D02*
X29625000Y-42725000D01*
X29625000Y-42967685D02*
X29625000Y-42925345D01*
X31550000Y-43234000D02*
X31550000Y-43450000D01*
X29919360Y-38380000D02*
X29961700Y-38380000D01*
X31314680Y-39719780D02*
X31465320Y-39719780D01*
X31230000Y-39592760D02*
X31230000Y-39635100D01*
X31314680Y-42895280D02*
G75*
G03*
X31229980Y-42979960I20J-84720D01*
G01*
X31465320Y-43106980D02*
G75*
G02*
X31550020Y-43191660I-20J-84720D01*
G01*
X31230000Y-43022300D02*
G75*
G03*
X31314680Y-43107000I84700J0D01*
G01*
X31770000Y-42810600D02*
G75*
G02*
X31685320Y-42895300I-84700J0D01*
G01*
X31685320Y-42683580D02*
G75*
G02*
X31770020Y-42768260I-20J-84720D01*
G01*
X31230000Y-42598900D02*
G75*
G03*
X31314680Y-42683600I84700J0D01*
G01*
X31314680Y-42471880D02*
G75*
G03*
X31229980Y-42556560I20J-84720D01*
G01*
X31550000Y-42387200D02*
G75*
G02*
X31465320Y-42471900I-84700J0D01*
G01*
X31465320Y-42260180D02*
G75*
G02*
X31550020Y-42344860I-20J-84720D01*
G01*
X31465320Y-41413380D02*
G75*
G02*
X31550020Y-41498060I-20J-84720D01*
G01*
X31465320Y-41836780D02*
G75*
G02*
X31550020Y-41921460I-20J-84720D01*
G01*
X31230000Y-41752100D02*
G75*
G03*
X31314680Y-41836800I84700J0D01*
G01*
X31550000Y-41540400D02*
G75*
G02*
X31465320Y-41625100I-84700J0D01*
G01*
X31230000Y-42175500D02*
G75*
G03*
X31314680Y-42260200I84700J0D01*
G01*
X31230000Y-41328700D02*
G75*
G03*
X31314680Y-41413400I84700J0D01*
G01*
X31314680Y-42048480D02*
G75*
G03*
X31229980Y-42133160I20J-84720D01*
G01*
X31550000Y-41963800D02*
G75*
G02*
X31465320Y-42048500I-84700J0D01*
G01*
X31314680Y-41625080D02*
G75*
G03*
X31229980Y-41709760I20J-84720D01*
G01*
X31314680Y-41201680D02*
G75*
G03*
X31229980Y-41286360I20J-84720D01*
G01*
X31550000Y-39423400D02*
G75*
G02*
X31465320Y-39508100I-84700J0D01*
G01*
X31550000Y-40693600D02*
G75*
G02*
X31465320Y-40778300I-84700J0D01*
G01*
X31550000Y-40270200D02*
G75*
G02*
X31465320Y-40354900I-84700J0D01*
G01*
X31465320Y-40143180D02*
G75*
G02*
X31550020Y-40227860I-20J-84720D01*
G01*
X31314680Y-39931480D02*
G75*
G03*
X31229980Y-40016160I20J-84720D01*
G01*
X29720000Y-40806400D02*
G75*
G03*
X29635320Y-40721700I-84700J0D01*
G01*
X29400000Y-39747900D02*
G75*
G02*
X29484680Y-39663200I84700J0D01*
G01*
X29484680Y-39874920D02*
G75*
G02*
X29399980Y-39790240I20J84720D01*
G01*
X29400000Y-40594700D02*
G75*
G02*
X29484680Y-40510000I84700J0D01*
G01*
X29720000Y-39959600D02*
G75*
G03*
X29635320Y-39874900I-84700J0D01*
G01*
X29961700Y-38380000D02*
G75*
G02*
X30046400Y-38464680I0J-84700D01*
G01*
X29484680Y-40298320D02*
G75*
G02*
X29399980Y-40213640I20J84720D01*
G01*
X31550000Y-41117000D02*
G75*
G02*
X31465320Y-41201700I-84700J0D01*
G01*
X30258080Y-38464680D02*
G75*
G02*
X30342760Y-38379980I84720J-20D01*
G01*
X29834680Y-38464680D02*
G75*
G02*
X29919360Y-38379980I84720J-20D01*
G01*
X31465320Y-40566580D02*
G75*
G02*
X31550020Y-40651260I-20J-84720D01*
G01*
X31465320Y-40989980D02*
G75*
G02*
X31550020Y-41074660I-20J-84720D01*
G01*
X31230000Y-40905300D02*
G75*
G03*
X31314680Y-40990000I84700J0D01*
G01*
X31465320Y-39719780D02*
G75*
G02*
X31550020Y-39804460I-20J-84720D01*
G01*
X29635320Y-40933420D02*
G75*
G03*
X29720020Y-40848740I-20J84720D01*
G01*
X30681480Y-38464680D02*
G75*
G02*
X30766160Y-38379980I84720J-20D01*
G01*
X30596800Y-39020000D02*
G75*
G03*
X30681500Y-38935320I0J84700D01*
G01*
X29484680Y-39451520D02*
G75*
G02*
X29399980Y-39366840I20J84720D01*
G01*
X29400000Y-40171300D02*
G75*
G02*
X29484680Y-40086600I84700J0D01*
G01*
X29720000Y-40383000D02*
G75*
G03*
X29635320Y-40298300I-84700J0D01*
G01*
X29635320Y-40510020D02*
G75*
G03*
X29720020Y-40425340I-20J84720D01*
G01*
X29635320Y-40086620D02*
G75*
G03*
X29720020Y-40001940I-20J84720D01*
G01*
X30046380Y-38935320D02*
G75*
G03*
X30131060Y-39020020I84720J20D01*
G01*
X29400000Y-41018100D02*
G75*
G02*
X29484680Y-40933400I84700J0D01*
G01*
X30808500Y-38380000D02*
G75*
G02*
X30893200Y-38464680I0J-84700D01*
G01*
X31230000Y-40058500D02*
G75*
G03*
X31314680Y-40143200I84700J0D01*
G01*
X31230000Y-39211700D02*
G75*
G03*
X31314680Y-39296400I84700J0D01*
G01*
X29635320Y-39663220D02*
G75*
G03*
X29720020Y-39578540I-20J84720D01*
G01*
X30385100Y-38380000D02*
G75*
G02*
X30469800Y-38464680I0J-84700D01*
G01*
X31230000Y-39635100D02*
G75*
G03*
X31314680Y-39719800I84700J0D01*
G01*
X31550000Y-39000000D02*
G75*
G02*
X31465320Y-39084700I-84700J0D01*
G01*
X29484680Y-41145120D02*
G75*
G02*
X29399980Y-41060440I20J84720D01*
G01*
X30173400Y-39020000D02*
G75*
G03*
X30258100Y-38935320I0J84700D01*
G01*
X29305000Y-43137045D02*
G75*
G02*
X29389680Y-43052300I84700J45D01*
G01*
X29264680Y-42415320D02*
G75*
G02*
X29179980Y-42330640I20J84720D01*
G01*
X29720000Y-39536200D02*
G75*
G03*
X29635320Y-39451500I-84700J0D01*
G01*
X29484680Y-41568520D02*
G75*
G02*
X29399980Y-41483840I20J84720D01*
G01*
X29389680Y-43264065D02*
G75*
G02*
X29305035Y-43179385I20J84665D01*
G01*
X31230000Y-40481900D02*
G75*
G03*
X31314680Y-40566600I84700J0D01*
G01*
X29180000Y-42288300D02*
G75*
G02*
X29264680Y-42203600I84700J0D01*
G01*
X29720000Y-42076600D02*
G75*
G03*
X29635320Y-41991900I-84700J0D01*
G01*
X31550000Y-39846800D02*
G75*
G02*
X31465320Y-39931500I-84700J0D01*
G01*
X29635320Y-41356820D02*
G75*
G03*
X29720020Y-41272140I-20J84720D01*
G01*
X29540320Y-43052365D02*
G75*
G03*
X29624965Y-42967685I-20J84665D01*
G01*
X29400000Y-41441500D02*
G75*
G02*
X29484680Y-41356800I84700J0D01*
G01*
X31314680Y-39084680D02*
G75*
G03*
X31229980Y-39169360I20J-84720D01*
G01*
X29130000Y-41864900D02*
G75*
G02*
X29214680Y-41780200I84700J0D01*
G01*
X31465320Y-39296380D02*
G75*
G02*
X31550020Y-39381060I-20J-84720D01*
G01*
X29484680Y-40721720D02*
G75*
G02*
X29399980Y-40637040I20J84720D01*
G01*
X30893180Y-38615320D02*
G75*
G03*
X30977860Y-38700020I84720J20D01*
G01*
X31314680Y-39508080D02*
G75*
G03*
X31229980Y-39592760I20J-84720D01*
G01*
X29720000Y-41229800D02*
G75*
G03*
X29635320Y-41145100I-84700J0D01*
G01*
X29635320Y-41780220D02*
G75*
G03*
X29720020Y-41695540I-20J84720D01*
G01*
X31314680Y-40354880D02*
G75*
G03*
X31229980Y-40439560I20J-84720D01*
G01*
X29720000Y-41653200D02*
G75*
G03*
X29635320Y-41568500I-84700J0D01*
G01*
X29750000Y-38700000D02*
G75*
G03*
X29834700Y-38615320I0J84700D01*
G01*
X30469780Y-38935320D02*
G75*
G03*
X30554460Y-39020020I84720J20D01*
G01*
X29635320Y-42203620D02*
G75*
G03*
X29720020Y-42118940I-20J84720D01*
G01*
X29214680Y-41991920D02*
G75*
G02*
X29129980Y-41907240I20J84720D01*
G01*
X31314680Y-40778280D02*
G75*
G03*
X31229980Y-40862960I20J-84720D01*
G01*
X29400000Y-42500000D02*
G75*
G03*
X29315320Y-42415300I-84700J0D01*
G01*
%TO.N,/DDR3/DDR_D5*%
X32350000Y-35013640D02*
X32350000Y-34971300D01*
X31350000Y-35648740D02*
X31350000Y-35606400D01*
X32350000Y-36283840D02*
X32350000Y-36241500D01*
X32249999Y-37400001D02*
X32350000Y-37300000D01*
X31987583Y-37400001D02*
X32029923Y-37400001D01*
X32434680Y-37003620D02*
X32265320Y-37003620D01*
X31691203Y-37134681D02*
X31691203Y-37315321D01*
X32350000Y-34286409D02*
X32350000Y-33150000D01*
X32265320Y-37003620D02*
X32084680Y-37003620D01*
X32350000Y-34590240D02*
X32350000Y-34547900D01*
X31950000Y-34801940D02*
X31950000Y-34759600D01*
X32029923Y-37400001D02*
X32249999Y-37400001D01*
X32000000Y-36918940D02*
X32000000Y-36876600D01*
X31434680Y-35521720D02*
X32265320Y-35521720D01*
X32350000Y-33150000D02*
X32650000Y-32850000D01*
X32350000Y-35437040D02*
X32350000Y-35394700D01*
X32265320Y-35733420D02*
X31434680Y-35733420D01*
X35711850Y-33870594D02*
X35425000Y-34157444D01*
X32265320Y-36580220D02*
X31684680Y-36580220D01*
X31775883Y-37650001D02*
X31818223Y-37650001D01*
X31184680Y-35098320D02*
X32265320Y-35098320D01*
X32350000Y-36707240D02*
X32350000Y-36664900D01*
X32084680Y-36791920D02*
X32265320Y-36791920D01*
X31684680Y-35945120D02*
X32265320Y-35945120D01*
X32950000Y-37130640D02*
X32950000Y-37088300D01*
X31902903Y-37565321D02*
X31902903Y-37484681D01*
X35400000Y-32850000D02*
X35711850Y-33161850D01*
X32265320Y-36156820D02*
X31684680Y-36156820D01*
X32650000Y-32850000D02*
X35400000Y-32850000D01*
X32265320Y-35310020D02*
X31184680Y-35310020D01*
X31684680Y-36368520D02*
X32265320Y-36368520D01*
X31600000Y-36495540D02*
X31600000Y-36453200D01*
X35425000Y-34157444D02*
X35425000Y-38775000D01*
X32865320Y-37003620D02*
X32434680Y-37003620D01*
X35711850Y-33161850D02*
X35711850Y-33870594D01*
X31600000Y-36072140D02*
X31600000Y-36029800D01*
X31564183Y-37050001D02*
X31606523Y-37050001D01*
X31479503Y-37315321D02*
X31479503Y-37134681D01*
X30929083Y-37400001D02*
X30971423Y-37400001D01*
X30844403Y-37284681D02*
X30844403Y-37315321D01*
X30717383Y-37200001D02*
X30759723Y-37200001D01*
X30505683Y-37400001D02*
X30548023Y-37400001D01*
X32350000Y-34547900D02*
X32350000Y-34286409D01*
X32034680Y-34674920D02*
X32265320Y-34674920D01*
X31140783Y-37200001D02*
X31183123Y-37200001D01*
X32434680Y-37215320D02*
X32865320Y-37215320D01*
X30632703Y-37315321D02*
X30632703Y-37284681D01*
X31267803Y-37284681D02*
X31267803Y-37315321D01*
X31100000Y-35225340D02*
X31100000Y-35183000D01*
X31056103Y-37315321D02*
X31056103Y-37284681D01*
X32265320Y-34886620D02*
X32034680Y-34886620D01*
X31352483Y-37400001D02*
X31394823Y-37400001D01*
X30209303Y-37315321D02*
X30209303Y-37284681D01*
X30293983Y-37200001D02*
X30336323Y-37200001D01*
X30421003Y-37284681D02*
X30421003Y-37315321D01*
X28899999Y-37400001D02*
X29862923Y-37400001D01*
X31691203Y-37315321D02*
X31691203Y-37484681D01*
X32350000Y-35860440D02*
X32350000Y-35818100D01*
X31691203Y-37484681D02*
X31691203Y-37565321D01*
X32350000Y-37300000D02*
G75*
G02*
X32434680Y-37215300I84700J0D01*
G01*
X32950000Y-37088300D02*
G75*
G03*
X32865320Y-37003600I-84700J0D01*
G01*
X31434680Y-35733420D02*
G75*
G02*
X31349980Y-35648740I20J84720D01*
G01*
X31479503Y-37134681D02*
G75*
G02*
X31564183Y-37050003I84697J-19D01*
G01*
X31606523Y-37050001D02*
G75*
G02*
X31691199Y-37134681I-23J-84699D01*
G01*
X32350000Y-36664900D02*
G75*
G03*
X32265320Y-36580200I-84700J0D01*
G01*
X32000000Y-36876600D02*
G75*
G02*
X32084680Y-36791900I84700J0D01*
G01*
X31902903Y-37484681D02*
G75*
G02*
X31987583Y-37400003I84697J-19D01*
G01*
X31267803Y-37315321D02*
G75*
G03*
X31352483Y-37399997I84697J21D01*
G01*
X31056103Y-37284681D02*
G75*
G02*
X31140783Y-37200003I84697J-19D01*
G01*
X31691203Y-37565321D02*
G75*
G03*
X31775883Y-37649997I84697J21D01*
G01*
X32265320Y-36368520D02*
G75*
G03*
X32350020Y-36283840I-20J84720D01*
G01*
X31183123Y-37200001D02*
G75*
G02*
X31267799Y-37284681I-23J-84699D01*
G01*
X30632703Y-37284681D02*
G75*
G02*
X30717383Y-37200003I84697J-19D01*
G01*
X32265320Y-34674920D02*
G75*
G03*
X32350020Y-34590240I-20J84720D01*
G01*
X31950000Y-34759600D02*
G75*
G02*
X32034680Y-34674900I84700J0D01*
G01*
X32350000Y-34971300D02*
G75*
G03*
X32265320Y-34886600I-84700J0D01*
G01*
X32084680Y-37003620D02*
G75*
G02*
X31999980Y-36918940I20J84720D01*
G01*
X31184680Y-35310020D02*
G75*
G02*
X31099980Y-35225340I20J84720D01*
G01*
X32265320Y-35098320D02*
G75*
G03*
X32350020Y-35013640I-20J84720D01*
G01*
X31100000Y-35183000D02*
G75*
G02*
X31184680Y-35098300I84700J0D01*
G01*
X32350000Y-35394700D02*
G75*
G03*
X32265320Y-35310000I-84700J0D01*
G01*
X31350000Y-35606400D02*
G75*
G02*
X31434680Y-35521700I84700J0D01*
G01*
X32350000Y-36241500D02*
G75*
G03*
X32265320Y-36156800I-84700J0D01*
G01*
X32265320Y-35521720D02*
G75*
G03*
X32350020Y-35437040I-20J84720D01*
G01*
X32865320Y-37215320D02*
G75*
G03*
X32950020Y-37130640I-20J84720D01*
G01*
X31818223Y-37650001D02*
G75*
G03*
X31902901Y-37565321I-23J84701D01*
G01*
X31394823Y-37400001D02*
G75*
G03*
X31479501Y-37315321I-23J84701D01*
G01*
X30209303Y-37284681D02*
G75*
G02*
X30293983Y-37200003I84697J-19D01*
G01*
X30844403Y-37315321D02*
G75*
G03*
X30929083Y-37399997I84697J21D01*
G01*
X32265320Y-35945120D02*
G75*
G03*
X32350020Y-35860440I-20J84720D01*
G01*
X32350000Y-35818100D02*
G75*
G03*
X32265320Y-35733400I-84700J0D01*
G01*
X30759723Y-37200001D02*
G75*
G02*
X30844399Y-37284681I-23J-84699D01*
G01*
X31600000Y-36029800D02*
G75*
G02*
X31684680Y-35945100I84700J0D01*
G01*
X30124623Y-37400001D02*
G75*
G03*
X30209301Y-37315321I-23J84701D01*
G01*
X31684680Y-36156820D02*
G75*
G02*
X31599980Y-36072140I20J84720D01*
G01*
X31600000Y-36453200D02*
G75*
G02*
X31684680Y-36368500I84700J0D01*
G01*
X31684680Y-36580220D02*
G75*
G02*
X31599980Y-36495540I20J84720D01*
G01*
X30971423Y-37400001D02*
G75*
G03*
X31056101Y-37315321I-23J84701D01*
G01*
X32265320Y-36791920D02*
G75*
G03*
X32350020Y-36707240I-20J84720D01*
G01*
X32034680Y-34886620D02*
G75*
G02*
X31949980Y-34801940I20J84720D01*
G01*
X30548023Y-37400001D02*
G75*
G03*
X30632701Y-37315321I-23J84701D01*
G01*
X30421003Y-37315321D02*
G75*
G03*
X30505683Y-37399997I84697J21D01*
G01*
X30336323Y-37200001D02*
G75*
G02*
X30420999Y-37284681I-23J-84699D01*
G01*
%TO.N,/DDR3/DDR_D12*%
X30066434Y-41833566D02*
X30166434Y-41833566D01*
X30800000Y-41600000D02*
X30700000Y-41600000D01*
X30700000Y-41850000D02*
X30800000Y-41850000D01*
X29966434Y-42183566D02*
X29966434Y-42233566D01*
X30266434Y-41933566D02*
X30266434Y-41983566D01*
X30600000Y-41500000D02*
X30600000Y-41450000D01*
X30600000Y-43000000D02*
X30600000Y-42950000D01*
X30066434Y-42833566D02*
X30166434Y-42833566D01*
X30900000Y-39750000D02*
X30900000Y-39700000D01*
X30700000Y-40350000D02*
X30800000Y-40350000D01*
X30900000Y-42250000D02*
X30900000Y-42200000D01*
X30900000Y-39700000D02*
X30900000Y-39650000D01*
X29966434Y-43183566D02*
X29966434Y-43233566D01*
X30266434Y-42933566D02*
X30266434Y-42983566D01*
X30266434Y-42433566D02*
X30266434Y-42483566D01*
X30800000Y-41100000D02*
X30700000Y-41100000D01*
X30037867Y-39662132D02*
X29966434Y-39733566D01*
X30066434Y-40833566D02*
X30166434Y-40833566D01*
X30600000Y-40000000D02*
X30600000Y-39950000D01*
X30900000Y-42750000D02*
X30900000Y-42700000D01*
X30600000Y-41000000D02*
X30600000Y-40950000D01*
X30700000Y-41350000D02*
X30800000Y-41350000D01*
X30800000Y-43100000D02*
X30700000Y-43100000D01*
X30800000Y-40600000D02*
X30700000Y-40600000D01*
X30066434Y-42333566D02*
X30166434Y-42333566D01*
X30700000Y-40850000D02*
X30800000Y-40850000D01*
X30250000Y-39450000D02*
X30037867Y-39662132D01*
X28800000Y-43900000D02*
X28475000Y-43900000D01*
X30166434Y-42583566D02*
X30066434Y-42583566D01*
X30700000Y-42350000D02*
X30800000Y-42350000D01*
X30166434Y-41583566D02*
X30066434Y-41583566D01*
X30600000Y-42000000D02*
X30600000Y-41950000D01*
X29966434Y-40683566D02*
X29966434Y-40733566D01*
X30266434Y-39933566D02*
X30266434Y-39983566D01*
X29966434Y-43733566D02*
X29800000Y-43900000D01*
X30166434Y-42083566D02*
X30066434Y-42083566D01*
X30900000Y-39650000D02*
X30700000Y-39450000D01*
X30266434Y-40433566D02*
X30266434Y-40483566D01*
X30900000Y-41750000D02*
X30900000Y-41700000D01*
X28475000Y-43249000D02*
X28275000Y-43049000D01*
X29966434Y-42683566D02*
X29966434Y-42733566D01*
X30166434Y-40583566D02*
X30066434Y-40583566D01*
X30900000Y-40250000D02*
X30900000Y-40200000D01*
X30700000Y-39450000D02*
X30250000Y-39450000D01*
X30700000Y-39850000D02*
X30800000Y-39850000D01*
X30700000Y-42850000D02*
X30800000Y-42850000D01*
X30800000Y-42100000D02*
X30700000Y-42100000D01*
X30600000Y-42500000D02*
X30600000Y-42450000D01*
X30800000Y-42600000D02*
X30700000Y-42600000D01*
X29966434Y-41683566D02*
X29966434Y-41733566D01*
X30066434Y-41333566D02*
X30166434Y-41333566D01*
X30066434Y-39833566D02*
X30166434Y-39833566D01*
X31415515Y-44765515D02*
X31344803Y-44836224D01*
X31769071Y-45119071D02*
X31627648Y-45260491D01*
X32087271Y-45013006D02*
X32051915Y-44977650D01*
X31910494Y-44977650D02*
X31839783Y-45048360D01*
X29800000Y-43900000D02*
X28800000Y-43900000D01*
X30166434Y-41083566D02*
X30066434Y-41083566D01*
X30900000Y-41250000D02*
X30900000Y-41200000D01*
X30800000Y-40100000D02*
X30700000Y-40100000D01*
X30900000Y-43250000D02*
X30900000Y-43200000D01*
X30700000Y-43350000D02*
X30800000Y-43350000D01*
X28475000Y-43900000D02*
X28475000Y-43249000D01*
X29966434Y-43233566D02*
X29966434Y-43733566D01*
X30166434Y-43083566D02*
X30066434Y-43083566D01*
X32016561Y-45225139D02*
X32087271Y-45154428D01*
X30266434Y-41433566D02*
X30266434Y-41483566D01*
X30600000Y-43500000D02*
X30600000Y-43450000D01*
X30166434Y-40083566D02*
X30066434Y-40083566D01*
X31100000Y-43600000D02*
X31000000Y-43600000D01*
X31200000Y-43750000D02*
X31200000Y-43700000D01*
X30600000Y-40500000D02*
X30600000Y-40450000D01*
X31556937Y-44624094D02*
X31415515Y-44765515D01*
X30900000Y-40750000D02*
X30900000Y-40700000D01*
X31486228Y-45260492D02*
X31450872Y-45225136D01*
X31097315Y-44730158D02*
X31168026Y-44659448D01*
X31839783Y-45048360D02*
X31769071Y-45119071D01*
X30066434Y-40333566D02*
X30166434Y-40333566D01*
X31592293Y-44942293D02*
X31733714Y-44800871D01*
X31450871Y-45083714D02*
X31592293Y-44942293D01*
X30800000Y-43600000D02*
X30700000Y-43600000D01*
X31132672Y-44482672D02*
X30900000Y-44250000D01*
X31733714Y-44659450D02*
X31698358Y-44624094D01*
X30266434Y-40933566D02*
X30266434Y-40983566D01*
X31000000Y-43600000D02*
X30800000Y-43600000D01*
X29966434Y-40183566D02*
X29966434Y-40233566D01*
X29966434Y-41183566D02*
X29966434Y-41233566D01*
X31000000Y-43850000D02*
X31100000Y-43850000D01*
X32051916Y-45401915D02*
X32016561Y-45366561D01*
X30900000Y-44250000D02*
X30900000Y-43950000D01*
X31168026Y-44518026D02*
X31132672Y-44482672D01*
X31132672Y-44906936D02*
X31097316Y-44871580D01*
X32370115Y-45437271D02*
X32334759Y-45401915D01*
X31344803Y-44836224D02*
X31274092Y-44906935D01*
X30166434Y-42833566D02*
G75*
G02*
X30266434Y-42933566I-34J-100034D01*
G01*
X30800000Y-40350000D02*
G75*
G03*
X30900000Y-40250000I0J100000D01*
G01*
X30700000Y-41600000D02*
G75*
G02*
X30600000Y-41500000I0J100000D01*
G01*
X30800000Y-40850000D02*
G75*
G03*
X30900000Y-40750000I0J100000D01*
G01*
X30166434Y-39833566D02*
G75*
G02*
X30266434Y-39933566I-34J-100034D01*
G01*
X30266434Y-39983566D02*
G75*
G02*
X30166434Y-40083634I-100034J-34D01*
G01*
X30066434Y-42083566D02*
G75*
G03*
X29966366Y-42183566I-34J-100034D01*
G01*
X30800000Y-39850000D02*
G75*
G03*
X30900000Y-39750000I0J100000D01*
G01*
X30166434Y-41833566D02*
G75*
G02*
X30266434Y-41933566I-34J-100034D01*
G01*
X29966434Y-41733566D02*
G75*
G03*
X30066434Y-41833566I99966J-34D01*
G01*
X30266434Y-40983566D02*
G75*
G02*
X30166434Y-41083634I-100034J-34D01*
G01*
X30266434Y-41983566D02*
G75*
G02*
X30166434Y-42083634I-100034J-34D01*
G01*
X29966434Y-41233566D02*
G75*
G03*
X30066434Y-41333566I99966J-34D01*
G01*
X30266434Y-40483566D02*
G75*
G02*
X30166434Y-40583634I-100034J-34D01*
G01*
X30066434Y-40583566D02*
G75*
G03*
X29966366Y-40683566I-34J-100034D01*
G01*
X30166434Y-40333566D02*
G75*
G02*
X30266434Y-40433566I-34J-100034D01*
G01*
X30166434Y-40833566D02*
G75*
G02*
X30266434Y-40933566I-34J-100034D01*
G01*
X30900000Y-41700000D02*
G75*
G03*
X30800000Y-41600000I-100000J0D01*
G01*
X29966434Y-40233566D02*
G75*
G03*
X30066434Y-40333566I99966J-34D01*
G01*
X29966434Y-39733566D02*
G75*
G03*
X30066434Y-39833566I99966J-34D01*
G01*
X30600000Y-39950000D02*
G75*
G02*
X30700000Y-39850000I100000J0D01*
G01*
X30600000Y-40950000D02*
G75*
G02*
X30700000Y-40850000I100000J0D01*
G01*
X30700000Y-41100000D02*
G75*
G02*
X30600000Y-41000000I0J100000D01*
G01*
X30900000Y-40700000D02*
G75*
G03*
X30800000Y-40600000I-100000J0D01*
G01*
X30900000Y-40200000D02*
G75*
G03*
X30800000Y-40100000I-100000J0D01*
G01*
X30600000Y-41450000D02*
G75*
G02*
X30700000Y-41350000I100000J0D01*
G01*
X30800000Y-41850000D02*
G75*
G03*
X30900000Y-41750000I0J100000D01*
G01*
X30700000Y-40100000D02*
G75*
G02*
X30600000Y-40000000I0J100000D01*
G01*
X30700000Y-40600000D02*
G75*
G02*
X30600000Y-40500000I0J100000D01*
G01*
X32051915Y-44977650D02*
G75*
G03*
X31910495Y-44977650I-70710J-70708D01*
G01*
X30700000Y-43100000D02*
G75*
G02*
X30600000Y-43000000I0J100000D01*
G01*
X30800000Y-43350000D02*
G75*
G03*
X30900000Y-43250000I0J100000D01*
G01*
X31698358Y-44624094D02*
G75*
G03*
X31556938Y-44624094I-70710J-70708D01*
G01*
X30800000Y-42850000D02*
G75*
G03*
X30900000Y-42750000I0J100000D01*
G01*
X32334759Y-45401915D02*
G75*
G03*
X32193339Y-45401915I-70710J-70708D01*
G01*
X30066434Y-40083566D02*
G75*
G03*
X29966366Y-40183566I-34J-100034D01*
G01*
X30600000Y-43450000D02*
G75*
G02*
X30700000Y-43350000I100000J0D01*
G01*
X31168026Y-44659448D02*
G75*
G03*
X31168063Y-44517989I-70726J70748D01*
G01*
X30266434Y-41483566D02*
G75*
G02*
X30166434Y-41583634I-100034J-34D01*
G01*
X31100000Y-43850000D02*
G75*
G03*
X31200000Y-43750000I0J100000D01*
G01*
X32016561Y-45366561D02*
G75*
G02*
X32016611Y-45225189I70739J70661D01*
G01*
X30266434Y-42983566D02*
G75*
G02*
X30166434Y-43083634I-100034J-34D01*
G01*
X30600000Y-41950000D02*
G75*
G02*
X30700000Y-41850000I100000J0D01*
G01*
X30700000Y-42100000D02*
G75*
G02*
X30600000Y-42000000I0J100000D01*
G01*
X30066434Y-41083566D02*
G75*
G03*
X29966366Y-41183566I-34J-100034D01*
G01*
X31097316Y-44871580D02*
G75*
G02*
X31097346Y-44730190I70684J70680D01*
G01*
X32370115Y-45720115D02*
G75*
G02*
X32370111Y-45578689I70685J70715D01*
G01*
X30600000Y-40450000D02*
G75*
G02*
X30700000Y-40350000I100000J0D01*
G01*
X30166434Y-41333566D02*
G75*
G02*
X30266434Y-41433566I-34J-100034D01*
G01*
X30600000Y-42450000D02*
G75*
G02*
X30700000Y-42350000I100000J0D01*
G01*
X30700000Y-42600000D02*
G75*
G02*
X30600000Y-42500000I0J100000D01*
G01*
X30900000Y-42700000D02*
G75*
G03*
X30800000Y-42600000I-100000J0D01*
G01*
X30600000Y-42950000D02*
G75*
G02*
X30700000Y-42850000I100000J0D01*
G01*
X30700000Y-43600000D02*
G75*
G02*
X30600000Y-43500000I0J100000D01*
G01*
X29966434Y-40733566D02*
G75*
G03*
X30066434Y-40833566I99966J-34D01*
G01*
X31274092Y-44906935D02*
G75*
G02*
X31132690Y-44906918I-70692J70735D01*
G01*
X31200000Y-43700000D02*
G75*
G03*
X31100000Y-43600000I-100000J0D01*
G01*
X31450872Y-45225136D02*
G75*
G02*
X31450846Y-45083690I70728J70736D01*
G01*
X31627648Y-45260491D02*
G75*
G02*
X31486191Y-45260530I-70748J70691D01*
G01*
X32087271Y-45154428D02*
G75*
G03*
X32087288Y-45012989I-70671J70728D01*
G01*
X30800000Y-41350000D02*
G75*
G03*
X30900000Y-41250000I0J100000D01*
G01*
X30066434Y-41583566D02*
G75*
G03*
X29966366Y-41683566I-34J-100034D01*
G01*
X32193338Y-45401915D02*
G75*
G02*
X32051916Y-45401915I-70711J70713D01*
G01*
X30900000Y-43200000D02*
G75*
G03*
X30800000Y-43100000I-100000J0D01*
G01*
X31733714Y-44800871D02*
G75*
G03*
X31733675Y-44659490I-70714J70671D01*
G01*
X30800000Y-42350000D02*
G75*
G03*
X30900000Y-42250000I0J100000D01*
G01*
X30900000Y-42200000D02*
G75*
G03*
X30800000Y-42100000I-100000J0D01*
G01*
X30900000Y-41200000D02*
G75*
G03*
X30800000Y-41100000I-100000J0D01*
G01*
X32370115Y-45578693D02*
G75*
G03*
X32370097Y-45437289I-70715J70693D01*
G01*
X30900000Y-43950000D02*
G75*
G02*
X31000000Y-43850000I100000J0D01*
G01*
X30266434Y-42483566D02*
G75*
G02*
X30166434Y-42583634I-100034J-34D01*
G01*
X29966434Y-42233566D02*
G75*
G03*
X30066434Y-42333566I99966J-34D01*
G01*
X30166434Y-42333566D02*
G75*
G02*
X30266434Y-42433566I-34J-100034D01*
G01*
X29966434Y-42733566D02*
G75*
G03*
X30066434Y-42833566I99966J-34D01*
G01*
X30066434Y-42583566D02*
G75*
G03*
X29966366Y-42683566I-34J-100034D01*
G01*
X30066434Y-43083566D02*
G75*
G03*
X29966366Y-43183566I-34J-100034D01*
G01*
%TO.N,/DDR3/DDR_D15*%
X38800000Y-46719780D02*
X38715320Y-46719780D01*
X38800000Y-47439560D02*
X38800000Y-47481900D01*
X39450000Y-46592760D02*
X39450000Y-46635100D01*
X38084680Y-47354880D02*
X38715320Y-47354880D01*
X38715320Y-47143180D02*
X38084680Y-47143180D01*
X39400000Y-46169360D02*
X39400000Y-46211700D01*
X38800000Y-48709760D02*
X38800000Y-48752100D01*
X38715320Y-47989980D02*
X38084680Y-47989980D01*
X38084680Y-46931480D02*
X38715320Y-46931480D01*
X38050000Y-49700000D02*
X28900000Y-49700000D01*
X38800000Y-46296380D02*
X38084680Y-46296380D01*
X38100000Y-45300000D02*
X38629567Y-45829567D01*
X38000000Y-46381060D02*
X38000000Y-46423400D01*
X39315320Y-46296380D02*
X38884680Y-46296380D01*
X38715320Y-46719780D02*
X38084680Y-46719780D01*
X38800000Y-48752100D02*
X38800000Y-48950000D01*
X39365320Y-46719780D02*
X38800000Y-46719780D01*
X38715320Y-48413380D02*
X38084680Y-48413380D01*
X38084680Y-48625080D02*
X38715320Y-48625080D01*
X38800000Y-47016160D02*
X38800000Y-47058500D01*
X28900000Y-49700000D02*
X27900000Y-48700000D01*
X38000000Y-47227860D02*
X38000000Y-47270200D01*
X27900000Y-47000000D02*
X28350000Y-46550000D01*
X38800000Y-48286360D02*
X38800000Y-48328700D01*
X38614950Y-49135049D02*
X38496888Y-49253112D01*
X38800000Y-48950000D02*
X38614950Y-49135049D01*
X38000000Y-47651260D02*
X38000000Y-47693600D01*
X38000000Y-46804460D02*
X38000000Y-46846800D01*
X38496888Y-49253112D02*
X38050000Y-49700000D01*
X38084680Y-47778280D02*
X38715320Y-47778280D01*
X38884680Y-46084680D02*
X39315320Y-46084680D01*
X38000000Y-48498060D02*
X38000000Y-48540400D01*
X38715320Y-47566580D02*
X38084680Y-47566580D01*
X38884680Y-46296380D02*
X38800000Y-46296380D01*
X38800000Y-46508080D02*
X39365320Y-46508080D01*
X28350000Y-46550000D02*
X28350000Y-45900000D01*
X38000000Y-48074660D02*
X38000000Y-48117000D01*
X38084680Y-46508080D02*
X38800000Y-46508080D01*
X38084680Y-48201680D02*
X38715320Y-48201680D01*
X27900000Y-48700000D02*
X27900000Y-47000000D01*
X38800000Y-47862960D02*
X38800000Y-47905300D01*
X38084680Y-46296380D02*
G75*
G03*
X37999980Y-46381060I20J-84720D01*
G01*
X38715320Y-48201680D02*
G75*
G02*
X38800020Y-48286360I-20J-84720D01*
G01*
X38715320Y-47354880D02*
G75*
G02*
X38800020Y-47439560I-20J-84720D01*
G01*
X38800000Y-47905300D02*
G75*
G02*
X38715320Y-47990000I-84700J0D01*
G01*
X38715320Y-46931480D02*
G75*
G02*
X38800020Y-47016160I-20J-84720D01*
G01*
X38800000Y-48328700D02*
G75*
G02*
X38715320Y-48413400I-84700J0D01*
G01*
X38000000Y-48117000D02*
G75*
G03*
X38084680Y-48201700I84700J0D01*
G01*
X39450000Y-46635100D02*
G75*
G02*
X39365320Y-46719800I-84700J0D01*
G01*
X38800000Y-47058500D02*
G75*
G02*
X38715320Y-47143200I-84700J0D01*
G01*
X38084680Y-48413380D02*
G75*
G03*
X37999980Y-48498060I20J-84720D01*
G01*
X39400000Y-46211700D02*
G75*
G02*
X39315320Y-46296400I-84700J0D01*
G01*
X38800000Y-46000000D02*
G75*
G03*
X38884680Y-46084700I84700J0D01*
G01*
X38000000Y-46423400D02*
G75*
G03*
X38084680Y-46508100I84700J0D01*
G01*
X39365320Y-46508080D02*
G75*
G02*
X39450020Y-46592760I-20J-84720D01*
G01*
X38715320Y-47778280D02*
G75*
G02*
X38800020Y-47862960I-20J-84720D01*
G01*
X38084680Y-47989980D02*
G75*
G03*
X37999980Y-48074660I20J-84720D01*
G01*
X38715320Y-48625080D02*
G75*
G02*
X38800020Y-48709760I-20J-84720D01*
G01*
X38800000Y-47481900D02*
G75*
G02*
X38715320Y-47566600I-84700J0D01*
G01*
X38000000Y-46846800D02*
G75*
G03*
X38084680Y-46931500I84700J0D01*
G01*
X38084680Y-47566580D02*
G75*
G03*
X37999980Y-47651260I20J-84720D01*
G01*
X38000000Y-47693600D02*
G75*
G03*
X38084680Y-47778300I84700J0D01*
G01*
X38000000Y-47270200D02*
G75*
G03*
X38084680Y-47354900I84700J0D01*
G01*
X38084680Y-47143180D02*
G75*
G03*
X37999980Y-47227860I20J-84720D01*
G01*
X39315320Y-46084680D02*
G75*
G02*
X39400020Y-46169360I-20J-84720D01*
G01*
X38000000Y-48540400D02*
G75*
G03*
X38084680Y-48625100I84700J0D01*
G01*
X38084680Y-46719780D02*
G75*
G03*
X37999980Y-46804460I20J-84720D01*
G01*
%TO.N,/DDR3/DDR_D3*%
X32181060Y-31700000D02*
X32223400Y-31700000D01*
X34231480Y-31134680D02*
X34231480Y-31815320D01*
X35798060Y-31050000D02*
X35840400Y-31050000D01*
X34654880Y-31134680D02*
X34654880Y-31815320D01*
X33596380Y-31815320D02*
X33596380Y-31134680D01*
X33892760Y-31900000D02*
X33935100Y-31900000D01*
X32858500Y-31400000D02*
X32950000Y-31400000D01*
X33469360Y-31900000D02*
X33511700Y-31900000D01*
X31648779Y-31501220D02*
X31750000Y-31400000D01*
X36450000Y-31300000D02*
X36450000Y-41650000D01*
X34739560Y-31900000D02*
X34781900Y-31900000D01*
X36262552Y-31112552D02*
X36450000Y-31300000D01*
X35289980Y-31815320D02*
X35289980Y-31134680D01*
X33135049Y-31214950D02*
X33300000Y-31050000D01*
X34527860Y-31050000D02*
X34570200Y-31050000D01*
X31169755Y-32100000D02*
X31226776Y-32157021D01*
X34104460Y-31050000D02*
X34146800Y-31050000D01*
X34443180Y-31815320D02*
X34443180Y-31134680D01*
X35840400Y-31050000D02*
X36200000Y-31050000D01*
X35713380Y-31815320D02*
X35713380Y-31134680D01*
X35586360Y-31900000D02*
X35628700Y-31900000D01*
X32604460Y-32150000D02*
X32646800Y-32150000D01*
X35078280Y-31134680D02*
X35078280Y-31815320D01*
X34951260Y-31050000D02*
X34993600Y-31050000D01*
X34866580Y-31815320D02*
X34866580Y-31134680D01*
X34019780Y-31815320D02*
X34019780Y-31134680D01*
X34316160Y-31900000D02*
X34358500Y-31900000D01*
X31928764Y-32140473D02*
X31958702Y-32110534D01*
X32308080Y-31615320D02*
X32308080Y-31484680D01*
X31349389Y-31800610D02*
X31349390Y-31800610D01*
X31618838Y-31531158D02*
X31648779Y-31501220D01*
X29950000Y-32400000D02*
X30250000Y-32100000D01*
X35162960Y-31900000D02*
X35205300Y-31900000D01*
X35374660Y-31050000D02*
X35417000Y-31050000D01*
X31346531Y-32157021D02*
X31376469Y-32127082D01*
X31376469Y-32007326D02*
X31319447Y-31950304D01*
X32731480Y-32065320D02*
X32731480Y-31484680D01*
X32519780Y-31484680D02*
X32519780Y-32065320D01*
X36300000Y-41800000D02*
X35550000Y-41800000D01*
X36200000Y-31050000D02*
X36262552Y-31112552D01*
X31750000Y-31400000D02*
X32011700Y-31400000D01*
X32816160Y-31400000D02*
X32858500Y-31400000D01*
X30250000Y-32100000D02*
X30856441Y-32100000D01*
X33808080Y-31134680D02*
X33808080Y-31815320D01*
X33681060Y-31050000D02*
X33723400Y-31050000D01*
X33384680Y-31134680D02*
X33384680Y-31815320D01*
X31958702Y-31990778D02*
X31618838Y-31650914D01*
X31469145Y-31800610D02*
X31809008Y-32140473D01*
X31319447Y-31830549D02*
X31349389Y-31800610D01*
X36450000Y-41650000D02*
X36300000Y-41800000D01*
X32950000Y-31400000D02*
X33135049Y-31214950D01*
X35501680Y-31134680D02*
X35501680Y-31815320D01*
X29950000Y-34450000D02*
X29950000Y-32400000D01*
X32392760Y-31400000D02*
X32435100Y-31400000D01*
X29000000Y-35400000D02*
X29950000Y-34450000D01*
X32096380Y-31484680D02*
X32096380Y-31615320D01*
X35628700Y-31900000D02*
G75*
G03*
X35713400Y-31815320I0J84700D01*
G01*
X34993600Y-31050000D02*
G75*
G02*
X35078300Y-31134680I0J-84700D01*
G01*
X34781900Y-31900000D02*
G75*
G03*
X34866600Y-31815320I0J84700D01*
G01*
X34654880Y-31815320D02*
G75*
G03*
X34739560Y-31900020I84720J20D01*
G01*
X32223400Y-31700000D02*
G75*
G03*
X32308100Y-31615320I0J84700D01*
G01*
X33511700Y-31900000D02*
G75*
G03*
X33596400Y-31815320I0J84700D01*
G01*
X33935100Y-31900000D02*
G75*
G03*
X34019800Y-31815320I0J84700D01*
G01*
X32011700Y-31400000D02*
G75*
G02*
X32096400Y-31484680I0J-84700D01*
G01*
X31958702Y-32110534D02*
G75*
G03*
X31958658Y-31990822I-59902J59834D01*
G01*
X35289980Y-31134680D02*
G75*
G02*
X35374660Y-31049980I84720J-20D01*
G01*
X35501680Y-31815320D02*
G75*
G03*
X35586360Y-31900020I84720J20D01*
G01*
X33384680Y-31815320D02*
G75*
G03*
X33469360Y-31900020I84720J20D01*
G01*
X33808080Y-31815320D02*
G75*
G03*
X33892760Y-31900020I84720J20D01*
G01*
X32731480Y-31484680D02*
G75*
G02*
X32816160Y-31399980I84720J-20D01*
G01*
X35713380Y-31134680D02*
G75*
G02*
X35798060Y-31049980I84720J-20D01*
G01*
X34866580Y-31134680D02*
G75*
G02*
X34951260Y-31049980I84720J-20D01*
G01*
X34019780Y-31134680D02*
G75*
G02*
X34104460Y-31049980I84720J-20D01*
G01*
X32646800Y-32150000D02*
G75*
G03*
X32731500Y-32065320I0J84700D01*
G01*
X34358500Y-31900000D02*
G75*
G03*
X34443200Y-31815320I0J84700D01*
G01*
X33723400Y-31050000D02*
G75*
G02*
X33808100Y-31134680I0J-84700D01*
G01*
X32519780Y-32065320D02*
G75*
G03*
X32604460Y-32150020I84720J20D01*
G01*
X31319447Y-31950304D02*
G75*
G02*
X31319420Y-31830522I59853J59904D01*
G01*
X31226776Y-32157021D02*
G75*
G03*
X31346531Y-32157021I59877J59878D01*
G01*
X33300000Y-31050000D02*
G75*
G02*
X33384700Y-31134680I0J-84700D01*
G01*
X31349390Y-31800610D02*
G75*
G02*
X31469145Y-31800609I59878J-59878D01*
G01*
X35417000Y-31050000D02*
G75*
G02*
X35501700Y-31134680I0J-84700D01*
G01*
X35205300Y-31900000D02*
G75*
G03*
X35290000Y-31815320I0J84700D01*
G01*
X34443180Y-31134680D02*
G75*
G02*
X34527860Y-31049980I84720J-20D01*
G01*
X35078280Y-31815320D02*
G75*
G03*
X35162960Y-31900020I84720J20D01*
G01*
X34231480Y-31815320D02*
G75*
G03*
X34316160Y-31900020I84720J20D01*
G01*
X32308080Y-31484680D02*
G75*
G02*
X32392760Y-31399980I84720J-20D01*
G01*
X33596380Y-31134680D02*
G75*
G02*
X33681060Y-31049980I84720J-20D01*
G01*
X31618838Y-31650914D02*
G75*
G02*
X31618802Y-31531122I59862J59914D01*
G01*
X31050000Y-32100000D02*
G75*
G02*
X31169755Y-32099999I59878J-59878D01*
G01*
X34570200Y-31050000D02*
G75*
G02*
X34654900Y-31134680I0J-84700D01*
G01*
X34146800Y-31050000D02*
G75*
G02*
X34231500Y-31134680I0J-84700D01*
G01*
X31376469Y-32127082D02*
G75*
G03*
X31376473Y-32007322I-59869J59882D01*
G01*
X31809008Y-32140473D02*
G75*
G03*
X31928764Y-32140473I59878J59879D01*
G01*
X32435100Y-31400000D02*
G75*
G02*
X32519800Y-31484680I0J-84700D01*
G01*
X32096380Y-31615320D02*
G75*
G03*
X32181060Y-31700020I84720J20D01*
G01*
%TO.N,/DDR3/DDR_D8*%
X32000000Y-39031480D02*
X32105320Y-39031480D01*
X32000000Y-39666580D02*
X31894680Y-39666580D01*
X32105320Y-39243180D02*
X32000000Y-39243180D01*
X31810000Y-41868260D02*
X31810000Y-41910600D01*
X31810000Y-42291660D02*
X31810000Y-42334000D01*
X32000000Y-41148480D02*
X32105320Y-41148480D01*
X32000000Y-41783580D02*
X31894680Y-41783580D01*
X32000000Y-40301680D02*
X32105320Y-40301680D01*
X32000000Y-40513380D02*
X31894680Y-40513380D01*
X32000000Y-40089980D02*
X31894680Y-40089980D01*
X32000000Y-42757400D02*
X32000000Y-43050000D01*
X32000000Y-41571880D02*
X32105320Y-41571880D01*
X32000000Y-43050000D02*
X32250000Y-43300000D01*
X32000000Y-42206980D02*
X31894680Y-42206980D01*
X31810000Y-41021460D02*
X31810000Y-41063800D01*
X31810000Y-40174660D02*
X31810000Y-40217000D01*
X32250000Y-43300000D02*
X32550000Y-43300000D01*
X32190000Y-42503360D02*
X32190000Y-42545700D01*
X31894680Y-41571880D02*
X32000000Y-41571880D01*
X32000000Y-40725080D02*
X32105320Y-40725080D01*
X32105320Y-40513380D02*
X32000000Y-40513380D01*
X32000000Y-39878280D02*
X32105320Y-39878280D01*
X32000000Y-42715060D02*
X32000000Y-42757400D01*
X31894680Y-41148480D02*
X32000000Y-41148480D01*
X31894680Y-41995280D02*
X32000000Y-41995280D01*
X32084680Y-42418680D02*
X32105320Y-42418680D01*
X32000000Y-39243180D02*
X31894680Y-39243180D01*
X32105320Y-42630380D02*
X32084680Y-42630380D01*
X32190000Y-41233160D02*
X32190000Y-41275500D01*
X31894680Y-40725080D02*
X32000000Y-40725080D01*
X32000000Y-40936780D02*
X31894680Y-40936780D01*
X31810000Y-39751260D02*
X31810000Y-39793600D01*
X32105320Y-40936780D02*
X32000000Y-40936780D01*
X32105320Y-39666580D02*
X32000000Y-39666580D01*
X32190000Y-41656560D02*
X32190000Y-41698900D01*
X32190000Y-40386360D02*
X32190000Y-40428700D01*
X31810000Y-38481060D02*
X31810000Y-38523400D01*
X28794680Y-38465636D02*
X28815320Y-38465636D01*
X28710000Y-38592656D02*
X28710000Y-38550316D01*
X32190000Y-38692760D02*
X32190000Y-38735100D01*
X29334680Y-37815320D02*
X29334680Y-37794680D01*
X28900000Y-38380956D02*
X28900000Y-38338616D01*
X31028280Y-38005320D02*
X31028280Y-37900000D01*
X29005320Y-39100736D02*
X28900000Y-39100736D01*
X32190000Y-40809760D02*
X32190000Y-40852100D01*
X31800000Y-37900000D02*
X31985049Y-38085049D01*
X29969780Y-37794680D02*
X29969780Y-37900000D01*
X31578700Y-37900000D02*
X31800000Y-37900000D01*
X30901260Y-38090000D02*
X30943600Y-38090000D01*
X31536360Y-37900000D02*
X31578700Y-37900000D01*
X29842760Y-37710000D02*
X29885100Y-37710000D01*
X30054460Y-38090000D02*
X30096800Y-38090000D01*
X28900000Y-38889036D02*
X29005320Y-38889036D01*
X29090000Y-39227756D02*
X29090000Y-39185416D01*
X29546380Y-37794680D02*
X29546380Y-37815320D01*
X31239980Y-37794680D02*
X31239980Y-37900000D01*
X30816580Y-37794680D02*
X30816580Y-37900000D01*
X28794680Y-39312436D02*
X28900000Y-39312436D01*
X30393180Y-37900000D02*
X30393180Y-38005320D01*
X29546380Y-37900000D02*
X29546380Y-38005320D01*
X28900000Y-39735836D02*
X29005320Y-39735836D01*
X29758080Y-37900000D02*
X29758080Y-37794680D01*
X32000000Y-38396380D02*
X31894680Y-38396380D01*
X31894680Y-42418680D02*
X32000000Y-42418680D01*
X30689560Y-37710000D02*
X30731900Y-37710000D01*
X31810000Y-39327860D02*
X31810000Y-39370200D01*
X29969780Y-37900000D02*
X29969780Y-38005320D01*
X32190000Y-39962960D02*
X32190000Y-40005300D01*
X32105320Y-38396380D02*
X32084680Y-38396380D01*
X31451680Y-38005320D02*
X31451680Y-37984680D01*
X31028280Y-37900000D02*
X31028280Y-37794680D01*
X30477860Y-38090000D02*
X30520200Y-38090000D01*
X28815320Y-38677336D02*
X28794680Y-38677336D01*
X31239980Y-37984680D02*
X31239980Y-38005320D01*
X32000000Y-41360180D02*
X31894680Y-41360180D01*
X31894680Y-38608080D02*
X32000000Y-38608080D01*
X29090000Y-38804356D02*
X29090000Y-38762016D01*
X31324660Y-38090000D02*
X31367000Y-38090000D01*
X28900000Y-38250000D02*
X29085049Y-38064950D01*
X30604880Y-38005320D02*
X30604880Y-37900000D01*
X28900000Y-39312436D02*
X29005320Y-39312436D01*
X30181480Y-37900000D02*
X30181480Y-37794680D01*
X28900000Y-39524136D02*
X28794680Y-39524136D01*
X28794680Y-38889036D02*
X28900000Y-38889036D01*
X29090000Y-39651156D02*
X29090000Y-39608816D01*
X28900000Y-39100736D02*
X28794680Y-39100736D01*
X31985049Y-38085049D02*
X32000000Y-38100000D01*
X30393180Y-37794680D02*
X30393180Y-37900000D01*
X31894680Y-39031480D02*
X32000000Y-39031480D01*
X32000000Y-38608080D02*
X32105320Y-38608080D01*
X29419360Y-37710000D02*
X29461700Y-37710000D01*
X30266160Y-37710000D02*
X30308500Y-37710000D01*
X28900000Y-38338616D02*
X28900000Y-38250000D01*
X29085049Y-38064950D02*
X29250000Y-37900000D01*
X32105320Y-38819780D02*
X32000000Y-38819780D01*
X30816580Y-37900000D02*
X30816580Y-38005320D01*
X32190000Y-38269360D02*
X32190000Y-38311700D01*
X32105320Y-41783580D02*
X32000000Y-41783580D01*
X28710000Y-39016056D02*
X28710000Y-38973716D01*
X29090000Y-41344756D02*
X29090000Y-41302416D01*
X28900000Y-39947536D02*
X28794680Y-39947536D01*
X29090000Y-40074556D02*
X29090000Y-40032216D01*
X31894680Y-39878280D02*
X32000000Y-39878280D01*
X28710000Y-40286256D02*
X28710000Y-40243916D01*
X28900000Y-41006036D02*
X29005320Y-41006036D01*
X28794680Y-41429436D02*
X28815320Y-41429436D01*
X28900000Y-38677336D02*
X28815320Y-38677336D01*
X32105320Y-41360180D02*
X32000000Y-41360180D01*
X31112960Y-37710000D02*
X31155300Y-37710000D01*
X28900000Y-40370936D02*
X28794680Y-40370936D01*
X28794680Y-40582636D02*
X28900000Y-40582636D01*
X32105320Y-40089980D02*
X32000000Y-40089980D01*
X28900000Y-40582636D02*
X29005320Y-40582636D01*
X29090000Y-40921356D02*
X29090000Y-40879016D01*
X31810000Y-38904460D02*
X31810000Y-38946800D01*
X32000000Y-42418680D02*
X32084680Y-42418680D01*
X29546380Y-37815320D02*
X29546380Y-37900000D01*
X28710000Y-39439456D02*
X28710000Y-39397116D01*
X28794680Y-40159236D02*
X28900000Y-40159236D01*
X29005320Y-39947536D02*
X28900000Y-39947536D01*
X30604880Y-37900000D02*
X30604880Y-37794680D01*
X29631060Y-38090000D02*
X29673400Y-38090000D01*
X31810000Y-41444860D02*
X31810000Y-41487200D01*
X28710000Y-40709656D02*
X28710000Y-40667316D01*
X32190000Y-39116160D02*
X32190000Y-39158500D01*
X28710000Y-41133056D02*
X28710000Y-41090716D01*
X28900000Y-41217736D02*
X28794680Y-41217736D01*
X29005320Y-41217736D02*
X28900000Y-41217736D01*
X28815320Y-41641136D02*
X28794680Y-41641136D01*
X29005320Y-38677336D02*
X28900000Y-38677336D01*
X29005320Y-39524136D02*
X28900000Y-39524136D01*
X28710000Y-41556456D02*
X28710000Y-41514116D01*
X28900000Y-40159236D02*
X29005320Y-40159236D01*
X32105320Y-42206980D02*
X32000000Y-42206980D01*
X32000000Y-41995280D02*
X32105320Y-41995280D01*
X29090000Y-40497956D02*
X29090000Y-40455616D01*
X31894680Y-40301680D02*
X32000000Y-40301680D01*
X30181480Y-38005320D02*
X30181480Y-37900000D01*
X31894680Y-39454880D02*
X32000000Y-39454880D01*
X28794680Y-39735836D02*
X28900000Y-39735836D01*
X29005320Y-40370936D02*
X28900000Y-40370936D01*
X31810000Y-40598060D02*
X31810000Y-40640400D01*
X29005320Y-40794336D02*
X28900000Y-40794336D01*
X31239980Y-37900000D02*
X31239980Y-37984680D01*
X28794680Y-41006036D02*
X28900000Y-41006036D01*
X28900000Y-40794336D02*
X28794680Y-40794336D01*
X28900000Y-41429436D02*
X29005320Y-41429436D01*
X32190000Y-42079960D02*
X32190000Y-42122300D01*
X32084680Y-38184680D02*
X32105320Y-38184680D01*
X32190000Y-39539560D02*
X32190000Y-39581900D01*
X28815320Y-41429436D02*
X28900000Y-41429436D01*
X32000000Y-39454880D02*
X32105320Y-39454880D01*
X32084680Y-38396380D02*
X32000000Y-38396380D01*
X29758080Y-38005320D02*
X29758080Y-37900000D01*
X28710000Y-39862856D02*
X28710000Y-39820516D01*
X32000000Y-38819780D02*
X31894680Y-38819780D01*
X31810000Y-41487200D02*
G75*
G03*
X31894680Y-41571900I84700J0D01*
G01*
X32190000Y-42545700D02*
G75*
G02*
X32105320Y-42630400I-84700J0D01*
G01*
X31810000Y-41910600D02*
G75*
G03*
X31894680Y-41995300I84700J0D01*
G01*
X32105320Y-42418680D02*
G75*
G02*
X32190020Y-42503360I-20J-84720D01*
G01*
X32190000Y-41698900D02*
G75*
G02*
X32105320Y-41783600I-84700J0D01*
G01*
X32105320Y-41995280D02*
G75*
G02*
X32190020Y-42079960I-20J-84720D01*
G01*
X32190000Y-42122300D02*
G75*
G02*
X32105320Y-42207000I-84700J0D01*
G01*
X32190000Y-41275500D02*
G75*
G02*
X32105320Y-41360200I-84700J0D01*
G01*
X32105320Y-41148480D02*
G75*
G02*
X32190020Y-41233160I-20J-84720D01*
G01*
X32084680Y-42630380D02*
G75*
G03*
X31999980Y-42715060I20J-84720D01*
G01*
X31894680Y-41360180D02*
G75*
G03*
X31809980Y-41444860I20J-84720D01*
G01*
X31810000Y-42334000D02*
G75*
G03*
X31894680Y-42418700I84700J0D01*
G01*
X31894680Y-42206980D02*
G75*
G03*
X31809980Y-42291660I20J-84720D01*
G01*
X31894680Y-41783580D02*
G75*
G03*
X31809980Y-41868260I20J-84720D01*
G01*
X32105320Y-41571880D02*
G75*
G02*
X32190020Y-41656560I-20J-84720D01*
G01*
X32190000Y-40428700D02*
G75*
G02*
X32105320Y-40513400I-84700J0D01*
G01*
X32105320Y-40301680D02*
G75*
G02*
X32190020Y-40386360I-20J-84720D01*
G01*
X32105320Y-38608080D02*
G75*
G02*
X32190020Y-38692760I-20J-84720D01*
G01*
X31810000Y-40217000D02*
G75*
G03*
X31894680Y-40301700I84700J0D01*
G01*
X32105320Y-39454880D02*
G75*
G02*
X32190020Y-39539560I-20J-84720D01*
G01*
X32190000Y-39158500D02*
G75*
G02*
X32105320Y-39243200I-84700J0D01*
G01*
X31239980Y-38005320D02*
G75*
G03*
X31324660Y-38090020I84720J20D01*
G01*
X31810000Y-38946800D02*
G75*
G03*
X31894680Y-39031500I84700J0D01*
G01*
X31894680Y-40089980D02*
G75*
G03*
X31809980Y-40174660I20J-84720D01*
G01*
X31810000Y-39793600D02*
G75*
G03*
X31894680Y-39878300I84700J0D01*
G01*
X31451680Y-37984680D02*
G75*
G02*
X31536360Y-37899980I84720J-20D01*
G01*
X32190000Y-40005300D02*
G75*
G02*
X32105320Y-40090000I-84700J0D01*
G01*
X32190000Y-39581900D02*
G75*
G02*
X32105320Y-39666600I-84700J0D01*
G01*
X32105320Y-39031480D02*
G75*
G02*
X32190020Y-39116160I-20J-84720D01*
G01*
X32190000Y-38735100D02*
G75*
G02*
X32105320Y-38819800I-84700J0D01*
G01*
X31894680Y-39666580D02*
G75*
G03*
X31809980Y-39751260I20J-84720D01*
G01*
X31155300Y-37710000D02*
G75*
G02*
X31240000Y-37794680I0J-84700D01*
G01*
X32105320Y-39878280D02*
G75*
G02*
X32190020Y-39962960I-20J-84720D01*
G01*
X31894680Y-39243180D02*
G75*
G03*
X31809980Y-39327860I20J-84720D01*
G01*
X31894680Y-38819780D02*
G75*
G03*
X31809980Y-38904460I20J-84720D01*
G01*
X31810000Y-41063800D02*
G75*
G03*
X31894680Y-41148500I84700J0D01*
G01*
X31894680Y-40936780D02*
G75*
G03*
X31809980Y-41021460I20J-84720D01*
G01*
X32190000Y-40852100D02*
G75*
G02*
X32105320Y-40936800I-84700J0D01*
G01*
X32105320Y-40725080D02*
G75*
G02*
X32190020Y-40809760I-20J-84720D01*
G01*
X31367000Y-38090000D02*
G75*
G03*
X31451700Y-38005320I0J84700D01*
G01*
X31810000Y-40640400D02*
G75*
G03*
X31894680Y-40725100I84700J0D01*
G01*
X31894680Y-40513380D02*
G75*
G03*
X31809980Y-40598060I20J-84720D01*
G01*
X31810000Y-39370200D02*
G75*
G03*
X31894680Y-39454900I84700J0D01*
G01*
X29250000Y-37900000D02*
G75*
G03*
X29334700Y-37815320I0J84700D01*
G01*
X29090000Y-39608816D02*
G75*
G03*
X29005320Y-39524100I-84700J16D01*
G01*
X29090000Y-40032216D02*
G75*
G03*
X29005320Y-39947500I-84700J16D01*
G01*
X29090000Y-41302416D02*
G75*
G03*
X29005320Y-41217700I-84700J16D01*
G01*
X29005320Y-39735836D02*
G75*
G03*
X29089936Y-39651156I-20J84636D01*
G01*
X30520200Y-38090000D02*
G75*
G03*
X30604900Y-38005320I0J84700D01*
G01*
X29005320Y-40159236D02*
G75*
G03*
X29089936Y-40074556I-20J84636D01*
G01*
X29005320Y-40582636D02*
G75*
G03*
X29089936Y-40497956I-20J84636D01*
G01*
X31028280Y-37794680D02*
G75*
G02*
X31112960Y-37709980I84720J-20D01*
G01*
X30943600Y-38090000D02*
G75*
G03*
X31028300Y-38005320I0J84700D01*
G01*
X32000000Y-38100000D02*
G75*
G03*
X32084680Y-38184700I84700J0D01*
G01*
X30393180Y-38005320D02*
G75*
G03*
X30477860Y-38090020I84720J20D01*
G01*
X29673400Y-38090000D02*
G75*
G03*
X29758100Y-38005320I0J84700D01*
G01*
X28794680Y-39947536D02*
G75*
G02*
X28710064Y-39862856I20J84636D01*
G01*
X29090000Y-40879016D02*
G75*
G03*
X29005320Y-40794300I-84700J16D01*
G01*
X28794680Y-40370936D02*
G75*
G02*
X28710064Y-40286256I20J84636D01*
G01*
X32190000Y-38311700D02*
G75*
G02*
X32105320Y-38396400I-84700J0D01*
G01*
X30181480Y-37794680D02*
G75*
G02*
X30266160Y-37709980I84720J-20D01*
G01*
X28710000Y-40667316D02*
G75*
G02*
X28794680Y-40582600I84700J16D01*
G01*
X29090000Y-38762016D02*
G75*
G03*
X29005320Y-38677300I-84700J16D01*
G01*
X29090000Y-39185416D02*
G75*
G03*
X29005320Y-39100700I-84700J16D01*
G01*
X28710000Y-40243916D02*
G75*
G02*
X28794680Y-40159200I84700J16D01*
G01*
X28794680Y-41217736D02*
G75*
G02*
X28710064Y-41133056I20J84636D01*
G01*
X29969780Y-38005320D02*
G75*
G03*
X30054460Y-38090020I84720J20D01*
G01*
X28710000Y-38973716D02*
G75*
G02*
X28794680Y-38889000I84700J16D01*
G01*
X28710000Y-39820516D02*
G75*
G02*
X28794680Y-39735800I84700J16D01*
G01*
X31810000Y-38523400D02*
G75*
G03*
X31894680Y-38608100I84700J0D01*
G01*
X32105320Y-38184680D02*
G75*
G02*
X32190020Y-38269360I-20J-84720D01*
G01*
X29885100Y-37710000D02*
G75*
G02*
X29969800Y-37794680I0J-84700D01*
G01*
X29758080Y-37794680D02*
G75*
G02*
X29842760Y-37709980I84720J-20D01*
G01*
X28794680Y-39524136D02*
G75*
G02*
X28710064Y-39439456I20J84636D01*
G01*
X29090000Y-40455616D02*
G75*
G03*
X29005320Y-40370900I-84700J16D01*
G01*
X29546380Y-38005320D02*
G75*
G03*
X29631060Y-38090020I84720J20D01*
G01*
X28794680Y-38677336D02*
G75*
G02*
X28710064Y-38592656I20J84636D01*
G01*
X31894680Y-38396380D02*
G75*
G03*
X31809980Y-38481060I20J-84720D01*
G01*
X29005320Y-38889036D02*
G75*
G03*
X29089936Y-38804356I-20J84636D01*
G01*
X29461700Y-37710000D02*
G75*
G02*
X29546400Y-37794680I0J-84700D01*
G01*
X29005320Y-39312436D02*
G75*
G03*
X29089936Y-39227756I-20J84636D01*
G01*
X30604880Y-37794680D02*
G75*
G02*
X30689560Y-37709980I84720J-20D01*
G01*
X29334680Y-37794680D02*
G75*
G02*
X29419360Y-37709980I84720J-20D01*
G01*
X30816580Y-38005320D02*
G75*
G03*
X30901260Y-38090020I84720J20D01*
G01*
X28710000Y-39397116D02*
G75*
G02*
X28794680Y-39312400I84700J16D01*
G01*
X28815320Y-38465636D02*
G75*
G03*
X28899936Y-38380956I-20J84636D01*
G01*
X28794680Y-39100736D02*
G75*
G02*
X28710064Y-39016056I20J84636D01*
G01*
X30731900Y-37710000D02*
G75*
G02*
X30816600Y-37794680I0J-84700D01*
G01*
X28710000Y-38550316D02*
G75*
G02*
X28794680Y-38465600I84700J16D01*
G01*
X28794680Y-40794336D02*
G75*
G02*
X28710064Y-40709656I20J84636D01*
G01*
X28710000Y-41090716D02*
G75*
G02*
X28794680Y-41006000I84700J16D01*
G01*
X29005320Y-41429436D02*
G75*
G03*
X29089936Y-41344756I-20J84636D01*
G01*
X28710000Y-41514116D02*
G75*
G02*
X28794680Y-41429400I84700J16D01*
G01*
X30308500Y-37710000D02*
G75*
G02*
X30393200Y-37794680I0J-84700D01*
G01*
X29005320Y-41006036D02*
G75*
G03*
X29089936Y-40921356I-20J84636D01*
G01*
X30096800Y-38090000D02*
G75*
G03*
X30181500Y-38005320I0J84700D01*
G01*
X28794680Y-41641136D02*
G75*
G02*
X28710064Y-41556456I20J84636D01*
G01*
%TO.N,/DDR3/DDR_DQS1N*%
X36112450Y-44912450D02*
X35300000Y-44100000D01*
X36112450Y-45149510D02*
X36112450Y-45059510D01*
X34203750Y-48374900D02*
X34293750Y-48374900D01*
X34679500Y-47989150D02*
X34679500Y-47123300D01*
X33818000Y-46360850D02*
X33818000Y-46737550D01*
X32057350Y-48374900D02*
X32147350Y-48374900D01*
X32533100Y-47062450D02*
X32533100Y-46737550D01*
X33606300Y-46737550D02*
X33606300Y-46360850D01*
X36739150Y-45210360D02*
X36173300Y-45210360D01*
X31671600Y-46737550D02*
X31671600Y-47062450D01*
X31671600Y-47062450D02*
X31671600Y-47989150D01*
X36173300Y-46071860D02*
X36739150Y-46071860D01*
X36112450Y-46267290D02*
X36112450Y-46132710D01*
X34830350Y-47062450D02*
X35317290Y-47062450D01*
X32744800Y-46737550D02*
X32744800Y-47062450D01*
X32533100Y-47989150D02*
X32533100Y-47062450D01*
X35317290Y-47062450D02*
X36112450Y-46267290D01*
X34740350Y-47062450D02*
X34830350Y-47062450D01*
X37124900Y-45686110D02*
X37124900Y-45596110D01*
X33667150Y-46300000D02*
X33757150Y-46300000D01*
X35300000Y-44100000D02*
X34900000Y-43700000D01*
X36112450Y-45059510D02*
X36112450Y-44912450D01*
X29075100Y-45563890D02*
X29075100Y-45653890D01*
%TO.N,/DDR3/DDR_DQS1P*%
X27900000Y-44150000D02*
X28946023Y-44150000D01*
%TO.N,/DDR3/DDR_DQS1N*%
X29460850Y-46039640D02*
X29776700Y-46039640D01*
%TO.N,/DDR3/DDR_DQS1P*%
X32208200Y-47989150D02*
X32208200Y-47062450D01*
X29329740Y-44150000D02*
X30162450Y-44982710D01*
X32208200Y-46737550D02*
X32208200Y-46360850D01*
%TO.N,/DDR3/DDR_DQS1N*%
X33818000Y-47123300D02*
X33818000Y-47989150D01*
%TO.N,/DDR3/DDR_DQS1P*%
X34830350Y-46737550D02*
X35182710Y-46737550D01*
X34354600Y-47989150D02*
X34354600Y-47123300D01*
X34142900Y-46360850D02*
X34142900Y-46737550D01*
X33069700Y-47062450D02*
X33069700Y-47989150D01*
X33069700Y-46737550D02*
X33069700Y-47062450D01*
X31996500Y-46737550D02*
X31996500Y-47062450D01*
X36800000Y-45686110D02*
X36800000Y-45596110D01*
X29460850Y-45714740D02*
X29776700Y-45714740D01*
X31996500Y-45910850D02*
X31996500Y-46737550D01*
%TO.N,/DDR3/DDR_DQS1N*%
X33606300Y-47989150D02*
X33606300Y-47062450D01*
X33606300Y-47062450D02*
X33606300Y-46737550D01*
%TO.N,/DDR3/DDR_DQS1P*%
X35787550Y-45047028D02*
X35240522Y-44500000D01*
X33281400Y-47989150D02*
X33281400Y-47062450D01*
%TO.N,/DDR3/DDR_DQS1N*%
X29776700Y-45178140D02*
X29460850Y-45178140D01*
X33130550Y-48374900D02*
X33220550Y-48374900D01*
%TO.N,/DDR3/DDR_DQS1P*%
X36739150Y-45535260D02*
X36173300Y-45535260D01*
%TO.N,/DDR3/DDR_DQS1N*%
X31459900Y-47989150D02*
X31459900Y-47123300D01*
X32744800Y-47062450D02*
X32744800Y-47989150D01*
%TO.N,/DDR3/DDR_DQS1P*%
X35240522Y-44500000D02*
X34900000Y-44500000D01*
X33069700Y-46360850D02*
X33069700Y-46737550D01*
X30984150Y-48050000D02*
X31074150Y-48050000D01*
X34203750Y-48050000D02*
X34293750Y-48050000D01*
X35182710Y-46737550D02*
X35787550Y-46132710D01*
X31996500Y-47062450D02*
X31996500Y-47989150D01*
X31135000Y-47989150D02*
X31135000Y-47123300D01*
X30162450Y-46100490D02*
X30162450Y-46190490D01*
X30162450Y-44982710D02*
X30162450Y-45117290D01*
X30162450Y-46362450D02*
X30537550Y-46737550D01*
X35787550Y-45059510D02*
X35787550Y-45047028D01*
%TO.N,/DDR3/DDR_DQS1N*%
X31671600Y-45910850D02*
X31671600Y-46737550D01*
X31520750Y-45850000D02*
X31610750Y-45850000D01*
X31459900Y-46737550D02*
X31459900Y-45910850D01*
%TO.N,/DDR3/DDR_DQS1P*%
X34142900Y-46737550D02*
X34142900Y-47123300D01*
%TO.N,/DDR3/DDR_DQS1N*%
X31459900Y-47123300D02*
X31459900Y-46737550D01*
X30984150Y-48374900D02*
X31074150Y-48374900D01*
X30598400Y-47123300D02*
X30598400Y-47989150D01*
%TO.N,/DDR3/DDR_DQS1P*%
X33281400Y-46737550D02*
X33281400Y-46360850D01*
X32057350Y-48050000D02*
X32147350Y-48050000D01*
X34142900Y-47123300D02*
X34142900Y-47989150D01*
X31520750Y-45525100D02*
X31610750Y-45525100D01*
%TO.N,/DDR3/DDR_DQS1N*%
X32593950Y-46300000D02*
X32683950Y-46300000D01*
X29195160Y-44474900D02*
X29837550Y-45117290D01*
X29837550Y-46497030D02*
X30402970Y-47062450D01*
%TO.N,/DDR3/DDR_DQS1P*%
X35787550Y-45149510D02*
X35787550Y-45059510D01*
X36173300Y-45746960D02*
X36739150Y-45746960D01*
X32593950Y-45975100D02*
X32683950Y-45975100D01*
%TO.N,/DDR3/DDR_DQS1N*%
X29837550Y-46100490D02*
X29837550Y-46190490D01*
X32533100Y-46737550D02*
X32533100Y-46360850D01*
X32744800Y-46360850D02*
X32744800Y-46737550D01*
%TO.N,/DDR3/DDR_DQS1P*%
X31135000Y-46737550D02*
X31135000Y-45910850D01*
X31135000Y-47123300D02*
X31135000Y-46737550D01*
%TO.N,/DDR3/DDR_DQS1N*%
X30402970Y-47062450D02*
X30537550Y-47062450D01*
X29837550Y-46190490D02*
X29837550Y-46497030D01*
%TO.N,/DDR3/DDR_DQS1P*%
X30162450Y-46190490D02*
X30162450Y-46362450D01*
%TO.N,/DDR3/DDR_DQS1N*%
X33818000Y-46737550D02*
X33818000Y-47123300D01*
%TO.N,/DDR3/DDR_DQS1P*%
X33667150Y-45975100D02*
X33757150Y-45975100D01*
X33281400Y-47062450D02*
X33281400Y-46737550D01*
X29400000Y-45563890D02*
X29400000Y-45653890D01*
X30923300Y-47123300D02*
X30923300Y-47989150D01*
X34740350Y-46737550D02*
X34830350Y-46737550D01*
X33130550Y-48050000D02*
X33220550Y-48050000D01*
X29776700Y-45503040D02*
X29460850Y-45503040D01*
X32208200Y-47062450D02*
X32208200Y-46737550D01*
%TO.N,/DDR3/DDR_DQS1N*%
X29837550Y-45117290D02*
G75*
G02*
X29776700Y-45178150I-60850J-10D01*
G01*
X31074150Y-48374900D02*
G75*
G03*
X31459900Y-47989150I-50J385800D01*
G01*
X36173300Y-45210360D02*
G75*
G02*
X36112440Y-45149510I0J60860D01*
G01*
X37124900Y-45596110D02*
G75*
G03*
X36739150Y-45210300I-385800J10D01*
G01*
%TO.N,/DDR3/DDR_DQS1P*%
X29400000Y-45653890D02*
G75*
G03*
X29460850Y-45714800I60900J-10D01*
G01*
X33281400Y-46360850D02*
G75*
G02*
X33667150Y-45975100I385800J-50D01*
G01*
%TO.N,/DDR3/DDR_DQS1N*%
X36739150Y-46071860D02*
G75*
G03*
X37124860Y-45686110I-50J385760D01*
G01*
X36112450Y-46132710D02*
G75*
G02*
X36173300Y-46071850I60850J10D01*
G01*
X33818000Y-47989150D02*
G75*
G03*
X34203750Y-48374900I385800J50D01*
G01*
X32683950Y-46300000D02*
G75*
G02*
X32744800Y-46360850I-50J-60900D01*
G01*
X31671600Y-47989150D02*
G75*
G03*
X32057350Y-48374900I385800J50D01*
G01*
X31610750Y-45850000D02*
G75*
G02*
X31671600Y-45910850I-50J-60900D01*
G01*
%TO.N,/DDR3/DDR_DQS1P*%
X36800000Y-45596110D02*
G75*
G03*
X36739150Y-45535200I-60900J10D01*
G01*
X32683950Y-45975100D02*
G75*
G02*
X33069700Y-46360850I-50J-385800D01*
G01*
X31996500Y-47989150D02*
G75*
G03*
X32057350Y-48050000I60900J50D01*
G01*
X36739150Y-45746960D02*
G75*
G03*
X36799960Y-45686110I-50J60860D01*
G01*
X31074150Y-48050000D02*
G75*
G03*
X31135000Y-47989150I-50J60900D01*
G01*
X33220550Y-48050000D02*
G75*
G03*
X33281400Y-47989150I-50J60900D01*
G01*
X32147350Y-48050000D02*
G75*
G03*
X32208200Y-47989150I-50J60900D01*
G01*
X33757150Y-45975100D02*
G75*
G02*
X34142900Y-46360850I-50J-385800D01*
G01*
%TO.N,/DDR3/DDR_DQS1N*%
X29460850Y-45178140D02*
G75*
G03*
X29075140Y-45563890I50J-385760D01*
G01*
X29075100Y-45653890D02*
G75*
G03*
X29460850Y-46039700I385800J-10D01*
G01*
%TO.N,/DDR3/DDR_DQS1P*%
X33069700Y-47989150D02*
G75*
G03*
X33130550Y-48050000I60900J50D01*
G01*
%TO.N,/DDR3/DDR_DQS1N*%
X34679500Y-47123300D02*
G75*
G02*
X34740350Y-47062400I60900J0D01*
G01*
%TO.N,/DDR3/DDR_DQS1P*%
X34354600Y-47123300D02*
G75*
G02*
X34740350Y-46737500I385800J0D01*
G01*
%TO.N,/DDR3/DDR_DQS1N*%
X33757150Y-46300000D02*
G75*
G02*
X33818000Y-46360850I-50J-60900D01*
G01*
X29776700Y-46039640D02*
G75*
G02*
X29837560Y-46100490I0J-60860D01*
G01*
X32147350Y-48374900D02*
G75*
G03*
X32533100Y-47989150I-50J385800D01*
G01*
%TO.N,/DDR3/DDR_DQS1P*%
X30537550Y-46737550D02*
G75*
G02*
X30923250Y-47123300I-50J-385750D01*
G01*
X34293750Y-48050000D02*
G75*
G03*
X34354600Y-47989150I-50J60900D01*
G01*
X35787550Y-46132710D02*
G75*
G02*
X36173300Y-45746950I385750J10D01*
G01*
%TO.N,/DDR3/DDR_DQS1N*%
X34293750Y-48374900D02*
G75*
G03*
X34679500Y-47989150I-50J385800D01*
G01*
X32533100Y-46360850D02*
G75*
G02*
X32593950Y-46300000I60900J-50D01*
G01*
X33606300Y-46360850D02*
G75*
G02*
X33667150Y-46300000I60900J-50D01*
G01*
%TO.N,/DDR3/DDR_DQS1P*%
X32208200Y-46360850D02*
G75*
G02*
X32593950Y-45975100I385800J-50D01*
G01*
%TO.N,/DDR3/DDR_DQS1N*%
X33220550Y-48374900D02*
G75*
G03*
X33606300Y-47989150I-50J385800D01*
G01*
X32744800Y-47989150D02*
G75*
G03*
X33130550Y-48374900I385800J50D01*
G01*
%TO.N,/DDR3/DDR_DQS1P*%
X31135000Y-45910850D02*
G75*
G02*
X31520750Y-45525100I385800J-50D01*
G01*
X29776700Y-45714740D02*
G75*
G02*
X30162460Y-46100490I0J-385760D01*
G01*
X30162450Y-45117290D02*
G75*
G02*
X29776700Y-45503050I-385750J-10D01*
G01*
X30923300Y-47989150D02*
G75*
G03*
X30984150Y-48050000I60900J50D01*
G01*
%TO.N,/DDR3/DDR_DQS1N*%
X31459900Y-45910850D02*
G75*
G02*
X31520750Y-45850000I60900J-50D01*
G01*
X30537550Y-47062450D02*
G75*
G02*
X30598350Y-47123300I-50J-60850D01*
G01*
%TO.N,/DDR3/DDR_DQS1P*%
X36173300Y-45535260D02*
G75*
G02*
X35787540Y-45149510I0J385760D01*
G01*
X31610750Y-45525100D02*
G75*
G02*
X31996500Y-45910850I-50J-385800D01*
G01*
X29460850Y-45503040D02*
G75*
G03*
X29400040Y-45563890I50J-60860D01*
G01*
X34142900Y-47989150D02*
G75*
G03*
X34203750Y-48050000I60900J50D01*
G01*
%TO.N,/DDR3/DDR_DQS1N*%
X30598400Y-47989150D02*
G75*
G03*
X30984150Y-48374900I385800J50D01*
G01*
%TO.N,/DDR3/DDR_D13*%
X40300000Y-48231041D02*
X40300000Y-48273381D01*
X39100000Y-48019341D02*
X39100000Y-48061681D01*
X40215320Y-47087861D02*
X39784680Y-47087861D01*
X38300000Y-50050000D02*
X28550000Y-50050000D01*
X40300000Y-47807641D02*
X40300000Y-47849981D01*
X39100000Y-47595941D02*
X39100000Y-47638281D01*
X40215320Y-47511261D02*
X39700000Y-47511261D01*
X39784680Y-47087861D02*
X39700000Y-47087861D01*
X39700000Y-48442741D02*
X39700000Y-48485081D01*
X40215320Y-47934661D02*
X39700000Y-47934661D01*
X39700000Y-47511261D02*
X39184680Y-47511261D01*
X40300000Y-46960841D02*
X40300000Y-47003181D01*
X39784680Y-46876161D02*
X40215320Y-46876161D01*
X40300000Y-47384241D02*
X40300000Y-47426581D01*
X39700000Y-47299561D02*
X40215320Y-47299561D01*
X39700000Y-48146361D02*
X39784680Y-48146361D01*
X39184680Y-47722961D02*
X39700000Y-47722961D01*
X39184680Y-48146361D02*
X39700000Y-48146361D01*
X39700000Y-47087861D02*
X39184680Y-47087861D01*
X39784680Y-48146361D02*
X40215320Y-48146361D01*
X39700000Y-48650000D02*
X38300000Y-50050000D01*
X39700000Y-47934661D02*
X39184680Y-47934661D01*
X39700000Y-47722961D02*
X40215320Y-47722961D01*
X40215320Y-48358061D02*
X39784680Y-48358061D01*
X39184680Y-47299561D02*
X39700000Y-47299561D01*
X27497114Y-48997114D02*
X27497114Y-46752886D01*
X39100000Y-47172541D02*
X39100000Y-47214881D01*
X28550000Y-50050000D02*
X27497114Y-48997114D01*
X39700000Y-48617345D02*
X39700000Y-48650000D01*
X39700000Y-48485081D02*
X39700000Y-48617345D01*
X40300000Y-48273381D02*
G75*
G02*
X40215320Y-48358100I-84700J-19D01*
G01*
X39184680Y-47934661D02*
G75*
G03*
X39100061Y-48019341I20J-84639D01*
G01*
X40300000Y-47849981D02*
G75*
G02*
X40215320Y-47934700I-84700J-19D01*
G01*
X39100000Y-48061681D02*
G75*
G03*
X39184680Y-48146400I84700J-19D01*
G01*
X40215320Y-47722961D02*
G75*
G02*
X40299939Y-47807641I-20J-84639D01*
G01*
X39100000Y-47638281D02*
G75*
G03*
X39184680Y-47723000I84700J-19D01*
G01*
X39100000Y-47214881D02*
G75*
G03*
X39184680Y-47299600I84700J-19D01*
G01*
X39184680Y-47087861D02*
G75*
G03*
X39100061Y-47172541I20J-84639D01*
G01*
X39184680Y-47511261D02*
G75*
G03*
X39100061Y-47595941I20J-84639D01*
G01*
X40215320Y-46876161D02*
G75*
G02*
X40299939Y-46960841I-20J-84639D01*
G01*
X40300000Y-47003181D02*
G75*
G02*
X40215320Y-47087900I-84700J-19D01*
G01*
X39784680Y-48358061D02*
G75*
G03*
X39700061Y-48442741I20J-84639D01*
G01*
X40215320Y-47299561D02*
G75*
G02*
X40299939Y-47384241I-20J-84639D01*
G01*
X40215320Y-48146361D02*
G75*
G02*
X40299939Y-48231041I-20J-84639D01*
G01*
X40300000Y-47426581D02*
G75*
G02*
X40215320Y-47511300I-84700J-19D01*
G01*
%TO.N,/DDR3/DDR_D6*%
X41215320Y-39166837D02*
X41184680Y-39166837D01*
X41100000Y-37811957D02*
X41100000Y-37769617D01*
X41300000Y-37176857D02*
X41300000Y-37134517D01*
X41215320Y-38743437D02*
X41184680Y-38743437D01*
X41100000Y-38235357D02*
X41100000Y-38193017D01*
X41215320Y-38320037D02*
X41184680Y-38320037D01*
X41300000Y-38447057D02*
X41300000Y-38404717D01*
X41184680Y-38531737D02*
X41215320Y-38531737D01*
X41100000Y-38658757D02*
X41100000Y-38616417D01*
X41300000Y-36753457D02*
X41300000Y-36711117D01*
X41300000Y-38870457D02*
X41300000Y-38828117D01*
X41184680Y-38955137D02*
X41215320Y-38955137D01*
X41184680Y-36838137D02*
X41215320Y-36838137D01*
X41184680Y-37261537D02*
X41215320Y-37261537D01*
X41300000Y-30050611D02*
X40387689Y-29138300D01*
X41215320Y-37049837D02*
X41184680Y-37049837D01*
X41100000Y-39082157D02*
X41100000Y-39039817D01*
X41100000Y-36965157D02*
X41100000Y-36922817D01*
X41215320Y-37896637D02*
X41184680Y-37896637D01*
X25600000Y-29900000D02*
X25600000Y-32000000D01*
X41300000Y-36400000D02*
X41300000Y-30050611D01*
X41184680Y-38108337D02*
X41215320Y-38108337D01*
X26500610Y-29150000D02*
X26350000Y-29150000D01*
X41100000Y-37388557D02*
X41100000Y-37346217D01*
X40387689Y-29138300D02*
X26512310Y-29138300D01*
X26512310Y-29138300D02*
X26500610Y-29150000D01*
X41300000Y-38023657D02*
X41300000Y-37981317D01*
X41300000Y-37600257D02*
X41300000Y-37557917D01*
X41184680Y-37684937D02*
X41215320Y-37684937D01*
X25600000Y-32000000D02*
X25700000Y-32100000D01*
X25700000Y-32100000D02*
X25700000Y-32129886D01*
X41215320Y-37473237D02*
X41184680Y-37473237D01*
X26350000Y-29150000D02*
X25600000Y-29900000D01*
X41300000Y-36711117D02*
X41300000Y-36400000D01*
X41300000Y-38828117D02*
G75*
G03*
X41215320Y-38743400I-84700J17D01*
G01*
X41100000Y-37769617D02*
G75*
G02*
X41184680Y-37684900I84700J17D01*
G01*
X41215320Y-38955137D02*
G75*
G03*
X41299937Y-38870457I-20J84637D01*
G01*
X41184680Y-38743437D02*
G75*
G02*
X41100063Y-38658757I20J84637D01*
G01*
X41215320Y-38531737D02*
G75*
G03*
X41299937Y-38447057I-20J84637D01*
G01*
X41100000Y-39039817D02*
G75*
G02*
X41184680Y-38955100I84700J17D01*
G01*
X41184680Y-39166837D02*
G75*
G02*
X41100063Y-39082157I20J84637D01*
G01*
X41100000Y-38616417D02*
G75*
G02*
X41184680Y-38531700I84700J17D01*
G01*
X41215320Y-36838137D02*
G75*
G03*
X41299937Y-36753457I-20J84637D01*
G01*
X41184680Y-37049837D02*
G75*
G02*
X41100063Y-36965157I20J84637D01*
G01*
X41300000Y-38404717D02*
G75*
G03*
X41215320Y-38320000I-84700J17D01*
G01*
X41215320Y-37684937D02*
G75*
G03*
X41299937Y-37600257I-20J84637D01*
G01*
X41100000Y-36922817D02*
G75*
G02*
X41184680Y-36838100I84700J17D01*
G01*
X41215320Y-37261537D02*
G75*
G03*
X41299937Y-37176857I-20J84637D01*
G01*
X41300000Y-37134517D02*
G75*
G03*
X41215320Y-37049800I-84700J17D01*
G01*
X41215320Y-38108337D02*
G75*
G03*
X41299937Y-38023657I-20J84637D01*
G01*
X41300000Y-37557917D02*
G75*
G03*
X41215320Y-37473200I-84700J17D01*
G01*
X41184680Y-37896637D02*
G75*
G02*
X41100063Y-37811957I20J84637D01*
G01*
X41300000Y-37981317D02*
G75*
G03*
X41215320Y-37896600I-84700J17D01*
G01*
X41100000Y-37346217D02*
G75*
G02*
X41184680Y-37261500I84700J17D01*
G01*
X41184680Y-38320037D02*
G75*
G02*
X41100063Y-38235357I20J84637D01*
G01*
X41184680Y-37473237D02*
G75*
G02*
X41100063Y-37388557I20J84637D01*
G01*
X41100000Y-38193017D02*
G75*
G02*
X41184680Y-38108300I84700J17D01*
G01*
%TO.N,/DDR3/DDR_DQS0P*%
X27487550Y-30582710D02*
X28032710Y-30037550D01*
X27487550Y-31317290D02*
X27487550Y-30582710D01*
X27932710Y-31762450D02*
X27487550Y-31317290D01*
X28032710Y-30037550D02*
X28287053Y-30037550D01*
X28982710Y-31762450D02*
X27932710Y-31762450D01*
%TO.N,/DDR3/DDR_D4*%
X26165320Y-31191920D02*
X25914680Y-31191920D01*
X26585320Y-30768520D02*
X26250000Y-30768520D01*
X26250000Y-30218100D02*
X26250000Y-30050000D01*
X25914680Y-30556820D02*
X26250000Y-30556820D01*
X26303320Y-32327534D02*
X26480548Y-32150303D01*
X27401000Y-32501000D02*
X27401000Y-32451000D01*
X26600302Y-32030547D02*
X26777532Y-31853317D01*
X26250000Y-30050000D02*
X26950000Y-29350000D01*
X26250000Y-30260440D02*
X26250000Y-30218100D01*
X37950000Y-32400000D02*
X37698300Y-32651700D01*
X26540425Y-32090425D02*
X26600302Y-32030547D01*
X26330852Y-31880852D02*
X26300913Y-31850913D01*
X26334680Y-30556820D02*
X26585320Y-30556820D01*
X25830000Y-30683840D02*
X25830000Y-30641500D01*
X26540426Y-32090425D02*
X26540425Y-32090425D01*
X26670000Y-30472140D02*
X26670000Y-30429800D01*
X25830000Y-31107240D02*
X25830000Y-31064900D01*
X25914680Y-30980220D02*
X26165320Y-30980220D01*
X40300000Y-29350000D02*
X40961700Y-30011700D01*
X26250000Y-30980220D02*
X26585320Y-30980220D01*
X26250000Y-31800000D02*
X26250000Y-31538300D01*
X37698300Y-39298300D02*
X38100000Y-39700000D01*
X26300913Y-31850913D02*
X26250000Y-31800000D01*
X26630244Y-32300000D02*
X26453013Y-32477228D01*
X26670000Y-30895540D02*
X26670000Y-30853200D01*
X26627837Y-31703623D02*
X26450607Y-31880852D01*
X26585320Y-30345120D02*
X26334680Y-30345120D01*
X26250000Y-30768520D02*
X25914680Y-30768520D01*
X27250000Y-32300000D02*
X26780136Y-32300000D01*
X37698300Y-32651700D02*
X37698300Y-39298300D01*
X27401000Y-32451000D02*
X27250000Y-32300000D01*
X40961700Y-32188300D02*
X40750000Y-32400000D01*
X26165320Y-30980220D02*
X26250000Y-30980220D01*
X26777532Y-31733562D02*
X26747593Y-31703623D01*
X26250000Y-31538300D02*
X26250000Y-31276600D01*
X26250000Y-30556820D02*
X26334680Y-30556820D01*
X40961700Y-30011700D02*
X40961700Y-32188300D01*
X26480548Y-32150303D02*
X26540426Y-32090425D01*
X26333259Y-32477229D02*
X26303320Y-32447290D01*
X26950000Y-29350000D02*
X40300000Y-29350000D01*
X40750000Y-32400000D02*
X37950000Y-32400000D01*
X26750000Y-32300000D02*
G75*
G03*
X26630244Y-32300000I-59878J-59879D01*
G01*
X26777532Y-31853317D02*
G75*
G03*
X26777572Y-31733522I-59832J59917D01*
G01*
X26334680Y-30345120D02*
G75*
G02*
X26249980Y-30260440I20J84720D01*
G01*
X26250000Y-31276600D02*
G75*
G03*
X26165320Y-31191900I-84700J0D01*
G01*
X25914680Y-30768520D02*
G75*
G02*
X25829980Y-30683840I20J84720D01*
G01*
X26670000Y-30853200D02*
G75*
G03*
X26585320Y-30768500I-84700J0D01*
G01*
X25830000Y-31064900D02*
G75*
G02*
X25914680Y-30980200I84700J0D01*
G01*
X26453013Y-32477228D02*
G75*
G02*
X26333223Y-32477265I-59913J59828D01*
G01*
X26747593Y-31703623D02*
G75*
G03*
X26627837Y-31703623I-59878J-59879D01*
G01*
X26303320Y-32447290D02*
G75*
G02*
X26303308Y-32327522I59880J59890D01*
G01*
X26670000Y-30429800D02*
G75*
G03*
X26585320Y-30345100I-84700J0D01*
G01*
X26585320Y-30556820D02*
G75*
G03*
X26670020Y-30472140I-20J84720D01*
G01*
X26585320Y-30980220D02*
G75*
G03*
X26670020Y-30895540I-20J84720D01*
G01*
X25830000Y-30641500D02*
G75*
G02*
X25914680Y-30556800I84700J0D01*
G01*
X26450607Y-31880852D02*
G75*
G02*
X26330852Y-31880853I-59878J59878D01*
G01*
X25914680Y-31191920D02*
G75*
G02*
X25829980Y-31107240I20J84720D01*
G01*
%TO.N,/DDR3/DDR_D9*%
X37149969Y-49308093D02*
G75*
G02*
X37149998Y-49427878I-59869J-59907D01*
G01*
X36897362Y-48336948D02*
G75*
G03*
X36897388Y-48456678I59838J-59852D01*
G01*
X38065320Y-45674751D02*
G75*
G02*
X38149949Y-45759431I-20J-84649D01*
G01*
X36464825Y-48323559D02*
G75*
G03*
X36345069Y-48323559I-59878J-59879D01*
G01*
X38150000Y-45801771D02*
G75*
G02*
X38065320Y-45886500I-84700J-29D01*
G01*
X37329900Y-48470098D02*
G75*
G02*
X37210144Y-48470098I-59878J59879D01*
G01*
X37615320Y-47094951D02*
G75*
G02*
X37699949Y-47179631I-20J-84649D01*
G01*
X37700000Y-45590071D02*
G75*
G03*
X37784680Y-45674800I84700J-29D01*
G01*
X36984680Y-47306651D02*
G75*
G03*
X36900051Y-47391331I20J-84649D01*
G01*
X37615320Y-47518351D02*
G75*
G02*
X37699949Y-47603031I-20J-84649D01*
G01*
X37350000Y-47010271D02*
G75*
G03*
X37434680Y-47095000I84700J-29D01*
G01*
X36315130Y-48353497D02*
G75*
G03*
X36315105Y-48473278I59870J-59903D01*
G01*
X37596198Y-49335175D02*
G75*
G02*
X37476442Y-49335175I-59878J59879D01*
G01*
X36731121Y-49188636D02*
G75*
G03*
X36611324Y-49188591I-59921J-59864D01*
G01*
X37784680Y-45886451D02*
G75*
G03*
X37700051Y-45971131I20J-84649D01*
G01*
X37434680Y-46883251D02*
G75*
G03*
X37350051Y-46967931I20J-84649D01*
G01*
X37626137Y-49185479D02*
G75*
G02*
X37626180Y-49305278I-59837J-59921D01*
G01*
X37047056Y-48307010D02*
G75*
G03*
X36927302Y-48307010I-59877J-59874D01*
G01*
X36900000Y-47857071D02*
G75*
G03*
X36984680Y-47941800I84700J-29D01*
G01*
X36984680Y-47730051D02*
G75*
G03*
X36900051Y-47814731I20J-84649D01*
G01*
X37700000Y-46798571D02*
G75*
G02*
X37615320Y-46883300I-84700J-29D01*
G01*
X36900000Y-47433671D02*
G75*
G03*
X36984680Y-47518400I84700J-29D01*
G01*
X37120030Y-49457789D02*
G75*
G02*
X37000274Y-49457789I-59878J59879D01*
G01*
X37615320Y-47941751D02*
G75*
G02*
X37699949Y-48026431I-20J-84649D01*
G01*
X37700000Y-47645371D02*
G75*
G02*
X37615320Y-47730100I-84700J-29D01*
G01*
X37700000Y-47221971D02*
G75*
G02*
X37615320Y-47306700I-84700J-29D01*
G01*
X36880816Y-49038940D02*
X37149969Y-49308093D01*
X28600000Y-47000000D02*
X28600000Y-45599998D01*
X36500000Y-49300000D02*
X36361736Y-49300000D01*
X28300000Y-48350000D02*
X28300000Y-47300000D01*
X36315130Y-48473253D02*
X36820937Y-48979060D01*
X36581426Y-49218575D02*
X36500000Y-49300000D01*
X37000274Y-49457789D02*
X36731121Y-49188636D01*
X36611367Y-49188635D02*
X36581426Y-49218575D01*
X37149969Y-49427849D02*
X37120030Y-49457789D01*
X36820937Y-48979060D02*
X36880816Y-49038940D01*
X28300000Y-47300000D02*
X28600000Y-47000000D01*
X36361736Y-49300000D02*
X29250000Y-49300000D01*
X37700000Y-45971131D02*
X37700000Y-46013471D01*
X38500000Y-44100000D02*
X38500000Y-44700000D01*
X36897362Y-48456704D02*
X37060449Y-48619791D01*
X29250000Y-49300000D02*
X28300000Y-48350000D01*
X36984680Y-47518351D02*
X37615320Y-47518351D01*
X37700000Y-48026431D02*
X37700000Y-48068771D01*
X36970635Y-48829368D02*
X36970633Y-48829367D01*
X37615320Y-47730051D02*
X36984680Y-47730051D01*
X36927301Y-48307010D02*
X36897362Y-48336948D01*
X38500000Y-44700000D02*
X38323150Y-44876850D01*
X37784680Y-45674751D02*
X38065320Y-45674751D01*
X37700000Y-45050000D02*
X37700000Y-45328371D01*
X37210144Y-48470098D02*
X37047056Y-48307010D01*
X37700000Y-46536871D02*
X37700000Y-46798571D01*
X37615320Y-46883251D02*
X37434680Y-46883251D01*
X37700000Y-48100000D02*
X37514950Y-48285049D01*
X37514950Y-48285049D02*
X37329900Y-48470098D01*
X37626137Y-49305235D02*
X37596198Y-49335175D01*
X37700000Y-46013471D02*
X37700000Y-46536871D01*
X37120329Y-48679671D02*
X37626137Y-49185479D01*
X37060449Y-48619791D02*
X37120329Y-48679671D01*
X37873150Y-44876850D02*
X37700000Y-45050000D01*
X37700000Y-48068771D02*
X37700000Y-48100000D01*
X36984680Y-47941751D02*
X37615320Y-47941751D01*
X36900000Y-47391331D02*
X36900000Y-47433671D01*
X38150000Y-45759431D02*
X38150000Y-45801771D01*
X38065320Y-45886451D02*
X37784680Y-45886451D01*
X37476442Y-49335175D02*
X36970635Y-48829368D01*
X38323150Y-44876850D02*
X37873150Y-44876850D01*
X37350000Y-46967931D02*
X37350000Y-47010271D01*
X36970633Y-48829367D02*
X36464825Y-48323559D01*
X37615320Y-47306651D02*
X36984680Y-47306651D01*
X37700000Y-47603031D02*
X37700000Y-47645371D01*
X37434680Y-47094951D02*
X37615320Y-47094951D01*
X36345069Y-48323559D02*
X36315130Y-48353497D01*
X36900000Y-47814731D02*
X36900000Y-47857071D01*
X38100000Y-43700000D02*
X38500000Y-44100000D01*
X37700000Y-47179631D02*
X37700000Y-47221971D01*
%TO.N,/DDR3/DDR_D14*%
X35527475Y-43950000D02*
X35569815Y-43950000D01*
X37251714Y-44105785D02*
X37028748Y-44328748D01*
X35866195Y-42584680D02*
X35866195Y-43215320D01*
X35654495Y-43215320D02*
X35654495Y-42584680D01*
X36223554Y-44654925D02*
X36253492Y-44684863D01*
X36185049Y-43485049D02*
X36370098Y-43670098D01*
X36073862Y-44385476D02*
X36519791Y-43939546D01*
X35442795Y-43384680D02*
X35442795Y-43865320D01*
X28400000Y-44950000D02*
X27900000Y-44950000D01*
X37238319Y-44538318D02*
X37268259Y-44568259D01*
X35654495Y-43865320D02*
X35654495Y-43384680D01*
X37221776Y-43956091D02*
X37251714Y-43986029D01*
X37235171Y-43523556D02*
X36729362Y-44029362D01*
X37205233Y-43373862D02*
X37235171Y-43403800D01*
X36370098Y-43789853D02*
X35924168Y-44235782D01*
X35950875Y-43300000D02*
X35993215Y-43300000D01*
X35739175Y-42500000D02*
X35781515Y-42500000D01*
X36579669Y-43879668D02*
X36579669Y-43879669D01*
X36579669Y-43879669D02*
X37085475Y-43373860D01*
X35993215Y-43300000D02*
X36000000Y-43300000D01*
X37268259Y-44568259D02*
X37350000Y-44650000D01*
X36000000Y-43300000D02*
X36185049Y-43485049D01*
X36519791Y-43939546D02*
X36579669Y-43879668D01*
X35924168Y-44355538D02*
X35954106Y-44385476D01*
X35654495Y-43384680D02*
X35654495Y-43215320D01*
X36680510Y-47269487D02*
X36415511Y-47534489D01*
X37350000Y-45292760D02*
X37350000Y-45335100D01*
X36729362Y-44029362D02*
X36223554Y-44535169D01*
X35150000Y-48800000D02*
X29450000Y-48800000D01*
X37084680Y-46416580D02*
X37265320Y-46416580D01*
X37350000Y-45335100D02*
X37350000Y-45858500D01*
X36415511Y-47534489D02*
X35150000Y-48800000D01*
X37350000Y-46600000D02*
X37164950Y-46785049D01*
X36879055Y-44179055D02*
X37102018Y-43956089D01*
X37234680Y-45208080D02*
X37265320Y-45208080D01*
X37265320Y-46204880D02*
X37084680Y-46204880D01*
X36558295Y-44918955D02*
X36588233Y-44948893D01*
X36264519Y-46673862D02*
X36710448Y-47119791D01*
X37350000Y-45858500D02*
X37350000Y-46120200D01*
X36373248Y-44684863D02*
X36879055Y-44179055D01*
X37265320Y-44996380D02*
X37234680Y-44996380D01*
X29450000Y-48800000D02*
X28850000Y-48200000D01*
X37350000Y-46543600D02*
X37350000Y-46600000D01*
X37350000Y-46501260D02*
X37350000Y-46543600D01*
X37028748Y-44328748D02*
X36968870Y-44388625D01*
X37150000Y-45081060D02*
X37150000Y-45123400D01*
X37164950Y-46785049D02*
X36979900Y-46970098D01*
X36294458Y-46524168D02*
X36264519Y-46554106D01*
X36710448Y-47239547D02*
X36680510Y-47269487D01*
X28850000Y-45400000D02*
X28400000Y-44950000D01*
X28850000Y-48200000D02*
X28850000Y-45400000D01*
X36707989Y-44948893D02*
X37118563Y-44538318D01*
X36968870Y-44388625D02*
X36558295Y-44799200D01*
X36860144Y-46970098D02*
X36414214Y-46524168D01*
X37000000Y-46289560D02*
X37000000Y-46331900D01*
X37350000Y-44650000D02*
X37350000Y-44911700D01*
X37350000Y-46120200D02*
G75*
G02*
X37265320Y-46204900I-84700J0D01*
G01*
X37084680Y-46204880D02*
G75*
G03*
X36999980Y-46289560I20J-84720D01*
G01*
X36264519Y-46554106D02*
G75*
G03*
X36264503Y-46673878I59881J-59894D01*
G01*
X37350000Y-44911700D02*
G75*
G02*
X37265320Y-44996400I-84700J0D01*
G01*
X36253492Y-44684863D02*
G75*
G03*
X36373248Y-44684863I59878J59879D01*
G01*
X37251714Y-43986029D02*
G75*
G02*
X37251707Y-44105778I-59914J-59871D01*
G01*
X37118563Y-44538318D02*
G75*
G02*
X37238319Y-44538318I59878J-59879D01*
G01*
X36414214Y-46524168D02*
G75*
G03*
X36294458Y-46524168I-59878J-59879D01*
G01*
X37000000Y-46331900D02*
G75*
G03*
X37084680Y-46416600I84700J0D01*
G01*
X37085475Y-43373860D02*
G75*
G02*
X37205280Y-43373815I59925J-59840D01*
G01*
X37234680Y-44996380D02*
G75*
G03*
X37149980Y-45081060I20J-84720D01*
G01*
X36588233Y-44948893D02*
G75*
G03*
X36707989Y-44948893I59878J59879D01*
G01*
X37235171Y-43403800D02*
G75*
G02*
X37235193Y-43523578I-59871J-59900D01*
G01*
X37102018Y-43956089D02*
G75*
G02*
X37221780Y-43956087I59882J-59911D01*
G01*
X36223554Y-44535169D02*
G75*
G03*
X36223601Y-44654878I59846J-59831D01*
G01*
X37265320Y-46416580D02*
G75*
G02*
X37350020Y-46501260I-20J-84720D01*
G01*
X37265320Y-45208080D02*
G75*
G02*
X37350020Y-45292760I-20J-84720D01*
G01*
X36979900Y-46970098D02*
G75*
G02*
X36860144Y-46970098I-59878J59879D01*
G01*
X36558295Y-44799200D02*
G75*
G03*
X36558272Y-44918977I59905J-59900D01*
G01*
X36710448Y-47119791D02*
G75*
G02*
X36710479Y-47239578I-59848J-59909D01*
G01*
X35654495Y-42584680D02*
G75*
G02*
X35739175Y-42499995I84705J-20D01*
G01*
X35442795Y-43865320D02*
G75*
G03*
X35527475Y-43950005I84705J20D01*
G01*
X35569815Y-43950000D02*
G75*
G03*
X35654500Y-43865320I-15J84700D01*
G01*
X35954106Y-44385476D02*
G75*
G03*
X36073862Y-44385476I59878J59879D01*
G01*
X35924168Y-44235782D02*
G75*
G03*
X35924128Y-44355578I59832J-59918D01*
G01*
X35866195Y-43215320D02*
G75*
G03*
X35950875Y-43300005I84705J20D01*
G01*
X37150000Y-45123400D02*
G75*
G03*
X37234680Y-45208100I84700J0D01*
G01*
X36370098Y-43670098D02*
G75*
G02*
X36370123Y-43789877I-59898J-59902D01*
G01*
X35781515Y-42500000D02*
G75*
G02*
X35866200Y-42584680I-15J-84700D01*
G01*
%TO.N,/DDR3/DDR_DQS0N*%
X31264840Y-30247550D02*
X31264840Y-30340000D01*
X32515620Y-30762450D02*
X33165620Y-30112450D01*
X39482710Y-30112450D02*
X39637550Y-30267290D01*
X33165620Y-30112450D02*
X39482710Y-30112450D01*
X32386179Y-30762450D02*
X32515620Y-30762450D01*
%TO.N,/DDR3/DDR_DQS0P*%
X31037290Y-29825100D02*
X31167290Y-29825100D01*
X30614840Y-30340000D02*
X30614840Y-30247550D01*
%TO.N,/DDR3/DDR_DQS0N*%
X31687290Y-30762450D02*
X31817290Y-30762450D01*
%TO.N,/DDR3/DDR_DQS0P*%
X31687290Y-30437550D02*
X31817290Y-30437550D01*
%TO.N,/DDR3/DDR_DQS0N*%
X31037290Y-30150000D02*
X31167290Y-30150000D01*
%TO.N,/DDR3/DDR_DQS0P*%
X39217290Y-31562450D02*
X37887550Y-31562450D01*
%TO.N,/DDR3/DDR_DQS0N*%
X30939740Y-30340000D02*
X30939740Y-30247550D01*
X29964840Y-30247550D02*
X29964840Y-30340000D01*
X28682710Y-30362450D02*
X29082710Y-30762450D01*
X29117290Y-31437550D02*
X28067290Y-31437550D01*
%TO.N,/DDR3/DDR_DQS0P*%
X37624900Y-40975100D02*
X38100000Y-40500000D01*
X39962450Y-30132710D02*
X39962450Y-30817290D01*
%TO.N,/DDR3/DDR_DQS0N*%
X30939740Y-30762450D02*
X30939740Y-30340000D01*
X29964840Y-30340000D02*
X29964840Y-30762450D01*
%TO.N,/DDR3/DDR_DQS0P*%
X31817290Y-30437550D02*
X32386179Y-30437550D01*
X37274900Y-32175100D02*
X37274900Y-40745160D01*
X39617290Y-29787550D02*
X39962450Y-30132710D01*
%TO.N,/DDR3/DDR_DQS0N*%
X30939740Y-31202450D02*
X30939740Y-30762450D01*
X29362450Y-34267290D02*
X29462450Y-34167290D01*
X29462450Y-34167290D02*
X29462450Y-31782710D01*
%TO.N,/DDR3/DDR_DQS0P*%
X37274900Y-40745160D02*
X37504840Y-40975100D01*
X32386179Y-30432411D02*
X33031040Y-29787550D01*
X30614840Y-31202450D02*
X30614840Y-30762450D01*
X33031040Y-29787550D02*
X39617290Y-29787550D01*
%TO.N,/DDR3/DDR_DQS0N*%
X37587550Y-31237550D02*
X36950000Y-31875100D01*
X30387290Y-31624900D02*
X30517290Y-31624900D01*
X39637550Y-30682710D02*
X39082710Y-31237550D01*
%TO.N,/DDR3/DDR_DQS0P*%
X39962450Y-30817290D02*
X39217290Y-31562450D01*
%TO.N,/DDR3/DDR_DQS0N*%
X29964840Y-30762450D02*
X29964840Y-31202450D01*
X31817290Y-30762450D02*
X32386179Y-30762450D01*
X36950000Y-40879740D02*
X37370260Y-41300000D01*
X29737290Y-30150000D02*
X29867290Y-30150000D01*
%TO.N,/DDR3/DDR_DQS0P*%
X30289740Y-30762450D02*
X30289740Y-31202450D01*
X30387290Y-31300000D02*
X30517290Y-31300000D01*
%TO.N,/DDR3/DDR_DQS0N*%
X39082710Y-31237550D02*
X37587550Y-31237550D01*
%TO.N,/DDR3/DDR_DQS0P*%
X31589740Y-30247550D02*
X31589740Y-30340000D01*
%TO.N,/DDR3/DDR_DQS0N*%
X37370260Y-41300000D02*
X38100000Y-41300000D01*
X36950000Y-31875100D02*
X36950000Y-40879740D01*
X39637550Y-30267290D02*
X39637550Y-30682710D01*
X29639740Y-30340000D02*
X29639740Y-30247550D01*
%TO.N,/DDR3/DDR_DQS0P*%
X30289740Y-30340000D02*
X30289740Y-30762450D01*
%TO.N,/DDR3/DDR_DQS0N*%
X29462450Y-31782710D02*
X29117290Y-31437550D01*
%TO.N,/DDR3/DDR_DQS0P*%
X29737290Y-29825100D02*
X29867290Y-29825100D01*
X29314840Y-30340000D02*
X29314840Y-30247550D01*
X29137550Y-34032710D02*
X29137550Y-31917290D01*
X30614840Y-30762450D02*
X30614840Y-30340000D01*
X37504840Y-40975100D02*
X37624900Y-40975100D01*
X32386179Y-30437550D02*
X32386179Y-30432411D01*
X29137550Y-31917290D02*
X28982710Y-31762450D01*
X28817290Y-30037550D02*
X29217290Y-30437550D01*
X37887550Y-31562450D02*
X37274900Y-32175100D01*
X28620260Y-34550000D02*
X29137550Y-34032710D01*
X30289740Y-30247550D02*
X30289740Y-30340000D01*
X27900000Y-34550000D02*
X28620260Y-34550000D01*
%TO.N,/DDR3/DDR_DQS0N*%
X29082710Y-30762450D02*
X29217290Y-30762450D01*
X31264840Y-30340000D02*
G75*
G03*
X31687290Y-30762460I422460J0D01*
G01*
X30517290Y-31624900D02*
G75*
G03*
X30939800Y-31202450I10J422500D01*
G01*
X29964840Y-31202450D02*
G75*
G03*
X30387290Y-31624860I422460J50D01*
G01*
X31167290Y-30150000D02*
G75*
G02*
X31264900Y-30247550I10J-97600D01*
G01*
X29639740Y-30247550D02*
G75*
G02*
X29737290Y-30150040I97560J-50D01*
G01*
X30939740Y-30247550D02*
G75*
G02*
X31037290Y-30150040I97560J-50D01*
G01*
X29867290Y-30150000D02*
G75*
G02*
X29964900Y-30247550I10J-97600D01*
G01*
X29217290Y-30762450D02*
G75*
G03*
X29639750Y-30340000I10J422450D01*
G01*
%TO.N,/DDR3/DDR_DQS0P*%
X29217290Y-30437550D02*
G75*
G03*
X29314850Y-30340000I10J97550D01*
G01*
X30517290Y-31300000D02*
G75*
G03*
X30614900Y-31202450I10J97600D01*
G01*
X31167290Y-29825100D02*
G75*
G02*
X31589800Y-30247550I10J-422500D01*
G01*
X29314840Y-30247550D02*
G75*
G02*
X29737290Y-29825140I422460J-50D01*
G01*
X30289740Y-31202450D02*
G75*
G03*
X30387290Y-31299960I97560J50D01*
G01*
X30614840Y-30247550D02*
G75*
G02*
X31037290Y-29825140I422460J-50D01*
G01*
X31589740Y-30340000D02*
G75*
G03*
X31687290Y-30437560I97560J0D01*
G01*
X29867290Y-29825100D02*
G75*
G02*
X30289800Y-30247550I10J-422500D01*
G01*
D27*
%TO.N,*%
X35500000Y-28550000D02*
X36150000Y-27900000D01*
X23250000Y-28550000D02*
X35500000Y-28550000D01*
X22350000Y-27650000D02*
X23250000Y-28550000D01*
X36150000Y-27900000D02*
X39200000Y-27900000D01*
D28*
%TO.N,GND*%
X17900000Y-39750000D02*
X17500000Y-39350000D01*
X21100000Y-37350000D02*
X21500000Y-37750000D01*
D27*
X34100000Y-38900000D02*
X33750000Y-39250000D01*
D28*
X22300000Y-40950000D02*
X21900000Y-41350000D01*
X19900000Y-40950000D02*
X20700000Y-40950000D01*
D27*
X39700000Y-34900000D02*
X40200000Y-34900000D01*
X38900000Y-42100000D02*
X39700000Y-42100000D01*
D28*
X21100000Y-37350000D02*
X20700000Y-37750000D01*
D27*
X18300000Y-36150000D02*
X18000000Y-35850000D01*
X39700000Y-40500000D02*
X40200000Y-40500000D01*
X33300000Y-41300000D02*
X32800000Y-41300000D01*
D28*
X16700000Y-40150000D02*
X16350000Y-40500000D01*
X18300000Y-44150000D02*
X19900000Y-42550000D01*
D27*
X38900000Y-38900000D02*
X39250000Y-39250000D01*
D28*
X24300002Y-42950000D02*
X24700000Y-43350000D01*
X21900000Y-37350000D02*
X22300000Y-37750000D01*
D27*
X26300000Y-36950000D02*
X25900000Y-37350000D01*
D28*
X19900000Y-37750000D02*
X20700000Y-37750000D01*
D27*
X33300000Y-33300000D02*
X32800000Y-33300000D01*
D28*
X19500000Y-39750000D02*
X19900000Y-40150000D01*
D27*
X34100000Y-42100000D02*
X34055044Y-42100000D01*
X39700000Y-36500000D02*
X40200000Y-36500000D01*
X38900000Y-42100000D02*
X39250000Y-42450000D01*
D28*
X21500000Y-40950000D02*
X21900000Y-41350000D01*
X22300000Y-42550000D02*
X22700000Y-42150000D01*
X20700000Y-44150000D02*
X20300000Y-44550000D01*
D27*
X33300000Y-34900000D02*
X32800000Y-34900000D01*
D28*
X18300000Y-41750000D02*
X18650000Y-41400000D01*
D27*
X24700000Y-36950000D02*
X25100000Y-36550000D01*
D28*
X19500000Y-39750000D02*
X19900000Y-39350000D01*
X25900000Y-42149998D02*
X26300000Y-41750000D01*
D27*
X25500000Y-38550000D02*
X25900000Y-38950000D01*
X38100000Y-44500000D02*
X37750000Y-44150000D01*
X34100000Y-40500000D02*
X33300000Y-40500000D01*
X14700000Y-32550000D02*
X15100000Y-32950000D01*
D28*
X19900000Y-39350000D02*
X19900000Y-38550000D01*
D27*
X20700000Y-34550000D02*
X20400000Y-34250000D01*
D28*
X22300000Y-40950000D02*
X22700000Y-40550000D01*
D27*
X14700000Y-45350000D02*
X15100000Y-45750000D01*
D28*
X17500000Y-42550000D02*
X17950000Y-42100000D01*
D27*
X23900000Y-35350000D02*
X23500000Y-35750000D01*
X34100000Y-42900000D02*
X34450000Y-42550000D01*
X33300000Y-44500000D02*
X32919850Y-44500000D01*
X23100000Y-37750000D02*
X23100000Y-40950000D01*
D28*
X23100000Y-40950000D02*
X22700000Y-40550000D01*
X27900000Y-45750000D02*
X27900000Y-46300000D01*
X25100000Y-45349998D02*
X25500000Y-44950000D01*
D27*
X34100000Y-40500000D02*
X34450000Y-40850000D01*
X33300000Y-40500000D02*
X32800000Y-40500000D01*
D28*
X20700000Y-40950000D02*
X21100000Y-41350000D01*
D27*
X39700000Y-33300000D02*
X40200000Y-33300000D01*
X32919850Y-44500000D02*
X32800000Y-44619850D01*
X27900000Y-32950000D02*
X28250000Y-32600000D01*
X33300000Y-36500000D02*
X32800000Y-36500000D01*
X39700000Y-44500000D02*
X40200000Y-44500000D01*
D28*
X23100000Y-43350000D02*
X23500000Y-43750000D01*
X19900000Y-38550000D02*
X19900000Y-37750000D01*
D27*
X39700000Y-42900000D02*
X40200000Y-42900000D01*
D28*
X21500000Y-40950000D02*
X21100000Y-41350000D01*
D27*
X34100000Y-42100000D02*
X33750000Y-42450000D01*
D28*
X21500000Y-37750000D02*
X21900000Y-37350000D01*
D27*
X16700000Y-35350000D02*
X16400000Y-35050000D01*
X33300000Y-45300000D02*
X32800000Y-45300000D01*
X39700000Y-42100000D02*
X40200000Y-42100000D01*
D28*
X21900000Y-39750000D02*
X21500000Y-39350000D01*
X19900000Y-40950000D02*
X19900000Y-40150000D01*
%TO.N,3V3_VDD*%
X21500000Y-41750000D02*
X21100000Y-42150000D01*
X18300000Y-39350000D02*
X19100000Y-40150000D01*
X19100000Y-40950000D02*
X19500000Y-41350000D01*
X19100000Y-40150000D02*
X19100000Y-40950000D01*
X21500000Y-41750000D02*
X21900000Y-42150000D01*
X19100000Y-37750000D02*
X19900000Y-36950000D01*
X22300000Y-36950000D02*
X22700000Y-36550000D01*
X17500000Y-41750000D02*
X17900000Y-41350000D01*
X24700000Y-44150000D02*
X24300000Y-43750000D01*
X23100000Y-35350000D02*
X23900000Y-34550000D01*
X19900000Y-43350000D02*
X19500000Y-43750000D01*
X23100000Y-41750000D02*
X23500000Y-42150000D01*
X23100000Y-36950000D02*
X22700000Y-37350000D01*
X19900000Y-41750000D02*
X20700000Y-41750000D01*
X19100000Y-41750000D02*
X19500000Y-41350000D01*
X19500000Y-41350000D02*
X19900000Y-41750000D01*
X21500000Y-44150000D02*
X21100000Y-44550000D01*
X21900000Y-42150000D02*
X22300000Y-41750000D01*
D27*
X22300000Y-41750000D02*
X23100000Y-41750000D01*
D28*
X20700000Y-41750000D02*
X21100000Y-42150000D01*
D27*
%TO.N,1V25_CORE*%
X20700000Y-39350000D02*
X20700000Y-40150000D01*
X22300000Y-39350000D02*
X22300000Y-38550000D01*
X24700000Y-39350000D02*
X25100000Y-39750000D01*
X22300000Y-38550000D02*
X21500000Y-38550000D01*
D28*
X20700000Y-36950000D02*
X21100000Y-36550000D01*
X21900000Y-38950000D02*
X22300000Y-38550000D01*
X19100000Y-38550000D02*
X18700000Y-38950000D01*
X21500000Y-36950000D02*
X21100000Y-36550000D01*
X19100000Y-36950000D02*
X18750000Y-36600000D01*
X20700000Y-36950000D02*
X20350000Y-36600000D01*
D27*
X20700000Y-38550000D02*
X21500000Y-38550000D01*
D28*
X19100000Y-39350000D02*
X18700000Y-38950000D01*
D27*
X20700000Y-38550000D02*
X20700000Y-39350000D01*
X22300000Y-40150000D02*
X21500000Y-40150000D01*
D28*
X21100000Y-39750000D02*
X20700000Y-40150000D01*
D27*
X22300000Y-39350000D02*
X22300000Y-40150000D01*
D28*
X21100000Y-38950000D02*
X20700000Y-38550000D01*
D27*
X21500000Y-40150000D02*
X20700000Y-40150000D01*
%TO.N,1V35_DDR*%
X33300000Y-35700000D02*
X32800000Y-35700000D01*
X34900000Y-40500000D02*
X34550000Y-40150000D01*
D28*
X23900000Y-36150000D02*
X24300000Y-36550000D01*
D27*
X33300000Y-43700000D02*
X32800000Y-43700000D01*
D28*
X23900000Y-41750000D02*
X23900000Y-38550000D01*
D27*
X39700000Y-43700000D02*
X40200000Y-43700000D01*
X39700000Y-34100000D02*
X40200000Y-34100000D01*
D28*
X23955643Y-40555643D02*
X24267475Y-40555643D01*
D27*
X39700000Y-45300000D02*
X40200000Y-45300000D01*
D28*
X23900000Y-36950000D02*
X23500000Y-37350000D01*
D27*
X38900000Y-44500000D02*
X39250000Y-44850000D01*
X38900000Y-39700000D02*
X38550000Y-39350000D01*
D28*
X23900000Y-37750000D02*
X23500000Y-37350000D01*
D27*
X39700000Y-35700000D02*
X40200000Y-35700000D01*
D28*
X23900000Y-36950000D02*
X24300000Y-36550000D01*
D27*
X33300000Y-42900000D02*
X32800000Y-42900000D01*
X33300000Y-34100000D02*
X32800000Y-34100000D01*
X39700000Y-41300000D02*
X40200000Y-41300000D01*
D28*
X23900000Y-37750000D02*
X23900000Y-37749998D01*
X24267475Y-40555643D02*
X24273127Y-40549991D01*
D27*
X33300000Y-39700000D02*
X32800000Y-39700000D01*
D28*
X23900000Y-42550000D02*
X24300000Y-42150000D01*
X23976479Y-38947807D02*
X24288311Y-38947807D01*
D27*
X34100000Y-38100000D02*
X33750000Y-38450000D01*
X33300000Y-42100000D02*
X32800000Y-42100000D01*
X34100000Y-45300000D02*
X33750000Y-44950000D01*
X38900000Y-42900000D02*
X38550000Y-42550000D01*
X38900000Y-38100000D02*
X39250000Y-38450000D01*
D28*
X24300000Y-42150000D02*
X23900000Y-41750000D01*
D26*
%TO.N,/DDR3/DDR_VREF*%
X24700000Y-41750000D02*
X25100000Y-42150000D01*
D27*
X39700000Y-39700000D02*
X40200000Y-39700000D01*
D26*
X34100000Y-36500000D02*
X33700000Y-36900000D01*
%TO.N,/DDR3/DDR_CLK_N*%
X34900000Y-38100000D02*
X34500000Y-37700000D01*
X27900000Y-39350000D02*
X28300000Y-39750000D01*
%TO.N,/DDR3/DDR_CLK_P*%
X34900000Y-38900000D02*
X34500000Y-38500000D01*
X27100000Y-39350000D02*
X27500000Y-39750000D01*
D25*
%TO.N,/DDR3/ZQ*%
X28800000Y-42550000D02*
X29025000Y-42775000D01*
X27900000Y-42550000D02*
X28800000Y-42550000D01*
D26*
X34100000Y-37300000D02*
X33700000Y-37700000D01*
%TO.N,/DDR3/DDR_CKE*%
X25500000Y-40150000D02*
X25900000Y-40550000D01*
X33300000Y-38100000D02*
X32900000Y-38500000D01*
%TO.N,/DDR3/DDR_RESETN*%
X38900000Y-33300000D02*
X39300000Y-32900000D01*
D25*
X28200000Y-36150000D02*
X28350000Y-36300000D01*
X27900000Y-36150000D02*
X28200000Y-36150000D01*
D26*
%TO.N,/DDR3/DDR_D1*%
X27303380Y-35841000D02*
X27494380Y-35650000D01*
X36135250Y-37647860D02*
X36135250Y-37685860D01*
X35935250Y-36317860D02*
X35935250Y-36355860D01*
X36059250Y-38141860D02*
X36011250Y-38141860D01*
X36011250Y-34911860D02*
X36059250Y-34911860D01*
X36059250Y-40041860D02*
X35611250Y-40041860D01*
X33900456Y-32400000D02*
X33938456Y-32400000D01*
X36135250Y-40687860D02*
X36135250Y-40725860D01*
X31576000Y-32824000D02*
X31576000Y-32476000D01*
X30200000Y-32715000D02*
X30200000Y-32650000D01*
X26365321Y-35841000D02*
X27303380Y-35841000D01*
X30450000Y-32400000D02*
X30690000Y-32400000D01*
X36059250Y-37001860D02*
X36011250Y-37001860D01*
X32908161Y-32230294D02*
X32988456Y-32150000D01*
X33710456Y-32150000D02*
X33748456Y-32150000D01*
X36135250Y-34987860D02*
X36135250Y-35025860D01*
X36059250Y-34721860D02*
X36011250Y-34721860D01*
X36059250Y-39661860D02*
X35611250Y-39661860D01*
X34394456Y-32324000D02*
X34394456Y-32226000D01*
X34470456Y-32150000D02*
X34508456Y-32150000D01*
X35935250Y-34797860D02*
X35935250Y-34835860D01*
X35611250Y-39851860D02*
X36059250Y-39851860D01*
X30145332Y-34905029D02*
X30111390Y-34871087D01*
X27494380Y-35650000D02*
X29225000Y-35650000D01*
X36059250Y-39281860D02*
X35961250Y-39281860D01*
X30200000Y-34675000D02*
X30200000Y-33715000D01*
X36059250Y-37381860D02*
X36011250Y-37381860D01*
X36059250Y-34341860D02*
X36011250Y-34341860D01*
X36135250Y-41014750D02*
X35850000Y-41300000D01*
X35935250Y-37837860D02*
X35935250Y-37875860D01*
X29977041Y-35005439D02*
X30010982Y-35039380D01*
X29911986Y-35209085D02*
X29842689Y-35139788D01*
X36135250Y-36127860D02*
X36135250Y-36165860D01*
X36135250Y-39927860D02*
X36135250Y-39965860D01*
X35935250Y-36697860D02*
X35935250Y-36735860D01*
X36011250Y-37951860D02*
X36059250Y-37951860D01*
X35610456Y-32150000D02*
X35648456Y-32150000D01*
X35935250Y-38217860D02*
X35935250Y-38255860D01*
X36135250Y-38027860D02*
X36135250Y-38065860D01*
X35935250Y-38977860D02*
X35935250Y-39015860D01*
X33140456Y-32400000D02*
X33178456Y-32400000D01*
X36059250Y-40421860D02*
X35611250Y-40421860D01*
X31006000Y-32476000D02*
X31006000Y-32624000D01*
X33330456Y-32150000D02*
X33368456Y-32150000D01*
X33444456Y-32226000D02*
X33444456Y-32324000D01*
X36135250Y-39547860D02*
X36135250Y-39585860D01*
X30450000Y-33323000D02*
X30450000Y-33285000D01*
X29581060Y-35576782D02*
X29607930Y-35549911D01*
X30138261Y-34736738D02*
X30200000Y-34675000D01*
X36059250Y-37761860D02*
X36011250Y-37761860D01*
X34774456Y-32324000D02*
X34774456Y-32226000D01*
X30200000Y-32753000D02*
X30200000Y-32715000D01*
X33520456Y-32400000D02*
X33558456Y-32400000D01*
X31082000Y-32700000D02*
X31120000Y-32700000D01*
X33064456Y-32226000D02*
X33064456Y-32324000D01*
X34964456Y-32226000D02*
X34964456Y-32324000D01*
X35420456Y-32400000D02*
X35458456Y-32400000D01*
X25999000Y-35474679D02*
X26365321Y-35841000D01*
X29708340Y-35274140D02*
X29777636Y-35343436D01*
X31272000Y-32400000D02*
X31310000Y-32400000D01*
X29573988Y-35301009D02*
X29600859Y-35274140D01*
X35935250Y-35937860D02*
X35935250Y-35975860D01*
X35154456Y-32324000D02*
X35154456Y-32226000D01*
X36059250Y-36241860D02*
X36011250Y-36241860D01*
X30111390Y-34763607D02*
X30138261Y-34736738D01*
X29600859Y-35274140D02*
X29600860Y-35274140D01*
X26300000Y-34884275D02*
X25999000Y-35185275D01*
X36100000Y-32550000D02*
X36100000Y-32550610D01*
X36011250Y-38711860D02*
X36059250Y-38711860D01*
X33824456Y-32226000D02*
X33824456Y-32324000D01*
X35230456Y-32150000D02*
X35268456Y-32150000D01*
X30690000Y-32400000D02*
X30930000Y-32400000D01*
X36135250Y-37267860D02*
X36135250Y-37305860D01*
X35344456Y-32226000D02*
X35344456Y-32324000D01*
X30369705Y-32480294D02*
X30450000Y-32400000D01*
X30374000Y-33209000D02*
X30276000Y-33209000D01*
X36059250Y-35861860D02*
X36011250Y-35861860D01*
X36135250Y-34607860D02*
X36135250Y-34645860D01*
X30276000Y-33399000D02*
X30374000Y-33399000D01*
X31386000Y-32476000D02*
X31386000Y-32824000D01*
X36011250Y-37191860D02*
X36059250Y-37191860D01*
X36135250Y-38407860D02*
X36135250Y-38445860D01*
X35648456Y-32150000D02*
X35700000Y-32150000D01*
X35935250Y-34417860D02*
X35935250Y-34455860D01*
X36011250Y-36051860D02*
X36059250Y-36051860D01*
X35885250Y-39357860D02*
X35885250Y-39395860D01*
X36011250Y-34531860D02*
X36059250Y-34531860D01*
X30200000Y-32650000D02*
X30369705Y-32480294D01*
X31690000Y-32400000D02*
X32738456Y-32400000D01*
X36135250Y-40832657D02*
X36135250Y-41014750D01*
X36059250Y-35481860D02*
X36011250Y-35481860D01*
X36059250Y-38901860D02*
X36011250Y-38901860D01*
X36135250Y-38787860D02*
X36135250Y-38825860D01*
X34584456Y-32226000D02*
X34584456Y-32324000D01*
X36135250Y-36887860D02*
X36135250Y-36925860D01*
X35935250Y-37457860D02*
X35935250Y-37495860D01*
X32738456Y-32400000D02*
X32908161Y-32230294D01*
X30800000Y-32943000D02*
X30800000Y-32905000D01*
X34014456Y-32324000D02*
X34014456Y-32226000D01*
X36011250Y-35671860D02*
X36059250Y-35671860D01*
X36011250Y-37571860D02*
X36059250Y-37571860D01*
X36059250Y-36621860D02*
X36011250Y-36621860D01*
X36059250Y-35101860D02*
X36011250Y-35101860D01*
X35040456Y-32400000D02*
X35078456Y-32400000D01*
X31196000Y-32624000D02*
X31196000Y-32476000D01*
X34280456Y-32400000D02*
X34318456Y-32400000D01*
X29885116Y-35343436D02*
X29911986Y-35316565D01*
X36059250Y-38521860D02*
X36011250Y-38521860D01*
X34090456Y-32150000D02*
X34128456Y-32150000D01*
X36135250Y-35367860D02*
X36135250Y-35405860D01*
X29869560Y-35005439D02*
X29869561Y-35005439D01*
X36135250Y-36507860D02*
X36135250Y-36545860D01*
X31462000Y-32900000D02*
X31500000Y-32900000D01*
X35961250Y-39471860D02*
X36059250Y-39471860D01*
X35535250Y-40497860D02*
X35535250Y-40535860D01*
X29225000Y-35650000D02*
X29332159Y-35542841D01*
X36011250Y-39091860D02*
X36059250Y-39091860D01*
X33254456Y-32324000D02*
X33254456Y-32226000D01*
X35535250Y-40117860D02*
X35535250Y-40155860D01*
X29439639Y-35542841D02*
X29473580Y-35576782D01*
X36135250Y-39167860D02*
X36135250Y-39205860D01*
X36011250Y-36431860D02*
X36059250Y-36431860D01*
X35611250Y-40611860D02*
X36059250Y-40611860D01*
X35935250Y-35177860D02*
X35935250Y-35215860D01*
X30276000Y-33019000D02*
X30724000Y-33019000D01*
X36135250Y-34025860D02*
X36135250Y-34265860D01*
X35534456Y-32324000D02*
X35534456Y-32226000D01*
X36011250Y-35291860D02*
X36059250Y-35291860D01*
X35935250Y-35557860D02*
X35935250Y-35595860D01*
X30724000Y-32829000D02*
X30276000Y-32829000D01*
X36135250Y-40307860D02*
X36135250Y-40345860D01*
X34850456Y-32150000D02*
X34888456Y-32150000D01*
X31652000Y-32400000D02*
X31690000Y-32400000D01*
X34660456Y-32400000D02*
X34698456Y-32400000D01*
X30200000Y-33715000D02*
X30200000Y-33475000D01*
X33634456Y-32324000D02*
X33634456Y-32226000D01*
X26300000Y-34550000D02*
X26300000Y-34884275D01*
X36135250Y-32585860D02*
X36135250Y-34025860D01*
X36135250Y-40725860D02*
X36135250Y-40832657D01*
X34204456Y-32226000D02*
X34204456Y-32324000D01*
X36011250Y-36811860D02*
X36059250Y-36811860D01*
X36135250Y-35747860D02*
X36135250Y-35785860D01*
X36011250Y-38331860D02*
X36059250Y-38331860D01*
X35935250Y-37077860D02*
X35935250Y-37115860D01*
X35700000Y-32150000D02*
X36100000Y-32550000D01*
X35935250Y-38597860D02*
X35935250Y-38635860D01*
X35535250Y-39737860D02*
X35535250Y-39775860D01*
X30200000Y-33133000D02*
X30200000Y-33095000D01*
X35850000Y-41300000D02*
X34900000Y-41300000D01*
X25999000Y-35185275D02*
X25999000Y-35474679D01*
X36100000Y-32550610D02*
X36135250Y-32585860D01*
X35611250Y-40231860D02*
X36059250Y-40231860D01*
X29842689Y-35032308D02*
X29869560Y-35005439D01*
X29607930Y-35442431D02*
X29573988Y-35408489D01*
X30118462Y-35039380D02*
X30145332Y-35012509D01*
X31196000Y-32476000D02*
G75*
G02*
X31272000Y-32400000I76000J0D01*
G01*
X36059250Y-40231860D02*
G75*
G02*
X36135240Y-40307860I-50J-76040D01*
G01*
X30200000Y-33475000D02*
G75*
G02*
X30276000Y-33399000I76000J0D01*
G01*
X36135250Y-36545860D02*
G75*
G02*
X36059250Y-36621950I-76050J-40D01*
G01*
X36059250Y-39851860D02*
G75*
G02*
X36135240Y-39927860I-50J-76040D01*
G01*
X33178456Y-32400000D02*
G75*
G03*
X33254500Y-32324000I44J76000D01*
G01*
X36135250Y-39205860D02*
G75*
G02*
X36059250Y-39281950I-76050J-40D01*
G01*
X36059250Y-37571860D02*
G75*
G02*
X36135240Y-37647860I-50J-76040D01*
G01*
X30276000Y-33209000D02*
G75*
G02*
X30200000Y-33133000I0J76000D01*
G01*
X33748456Y-32150000D02*
G75*
G02*
X33824500Y-32226000I44J-76000D01*
G01*
X36011250Y-35861860D02*
G75*
G03*
X35935260Y-35937860I50J-76040D01*
G01*
X29473580Y-35576782D02*
G75*
G03*
X29581060Y-35576782I53740J53739D01*
G01*
X36135250Y-37305860D02*
G75*
G02*
X36059250Y-37381950I-76050J-40D01*
G01*
X31120000Y-32700000D02*
G75*
G03*
X31196000Y-32624000I0J76000D01*
G01*
X35535250Y-40155860D02*
G75*
G03*
X35611250Y-40231950I76050J-40D01*
G01*
X35935250Y-36735860D02*
G75*
G03*
X36011250Y-36811950I76050J-40D01*
G01*
X30010982Y-35039380D02*
G75*
G03*
X30118462Y-35039380I53740J53739D01*
G01*
X31310000Y-32400000D02*
G75*
G02*
X31386000Y-32476000I0J-76000D01*
G01*
X33634456Y-32226000D02*
G75*
G02*
X33710456Y-32149956I76044J0D01*
G01*
X36011250Y-37761860D02*
G75*
G03*
X35935260Y-37837860I50J-76040D01*
G01*
X36135250Y-34265860D02*
G75*
G02*
X36059250Y-34341950I-76050J-40D01*
G01*
X36011250Y-38521860D02*
G75*
G03*
X35935260Y-38597860I50J-76040D01*
G01*
X36011250Y-37001860D02*
G75*
G03*
X35935260Y-37077860I50J-76040D01*
G01*
X36135250Y-40345860D02*
G75*
G02*
X36059250Y-40421950I-76050J-40D01*
G01*
X35935250Y-38255860D02*
G75*
G03*
X36011250Y-38331950I76050J-40D01*
G01*
X33824456Y-32324000D02*
G75*
G03*
X33900456Y-32400044I76044J0D01*
G01*
X29607930Y-35549911D02*
G75*
G03*
X29607901Y-35442460I-53730J53711D01*
G01*
X36059250Y-37191860D02*
G75*
G02*
X36135240Y-37267860I-50J-76040D01*
G01*
X29573988Y-35408489D02*
G75*
G02*
X29573939Y-35300960I53712J53789D01*
G01*
X35458456Y-32400000D02*
G75*
G03*
X35534500Y-32324000I44J76000D01*
G01*
X36011250Y-37381860D02*
G75*
G03*
X35935260Y-37457860I50J-76040D01*
G01*
X35611250Y-40041860D02*
G75*
G03*
X35535260Y-40117860I50J-76040D01*
G01*
X29911986Y-35316565D02*
G75*
G03*
X29912011Y-35209060I-53786J53765D01*
G01*
X31500000Y-32900000D02*
G75*
G03*
X31576000Y-32824000I0J76000D01*
G01*
X35885250Y-39395860D02*
G75*
G03*
X35961250Y-39471950I76050J-40D01*
G01*
X35935250Y-37875860D02*
G75*
G03*
X36011250Y-37951950I76050J-40D01*
G01*
X36135250Y-36165860D02*
G75*
G02*
X36059250Y-36241950I-76050J-40D01*
G01*
X30374000Y-33399000D02*
G75*
G03*
X30450000Y-33323000I0J76000D01*
G01*
X36059250Y-39091860D02*
G75*
G02*
X36135240Y-39167860I-50J-76040D01*
G01*
X30111390Y-34871087D02*
G75*
G02*
X30111343Y-34763560I53710J53787D01*
G01*
X29842689Y-35139788D02*
G75*
G02*
X29842641Y-35032260I53711J53788D01*
G01*
X36059250Y-36051860D02*
G75*
G02*
X36135240Y-36127860I-50J-76040D01*
G01*
X30724000Y-33019000D02*
G75*
G03*
X30800000Y-32943000I0J76000D01*
G01*
X29777636Y-35343436D02*
G75*
G03*
X29885116Y-35343436I53740J53739D01*
G01*
X35935250Y-36355860D02*
G75*
G03*
X36011250Y-36431950I76050J-40D01*
G01*
X35611250Y-40421860D02*
G75*
G03*
X35535260Y-40497860I50J-76040D01*
G01*
X35154456Y-32226000D02*
G75*
G02*
X35230456Y-32149956I76044J0D01*
G01*
X36011250Y-36621860D02*
G75*
G03*
X35935260Y-36697860I50J-76040D01*
G01*
X36059250Y-35671860D02*
G75*
G02*
X36135240Y-35747860I-50J-76040D01*
G01*
X35935250Y-37495860D02*
G75*
G03*
X36011250Y-37571950I76050J-40D01*
G01*
X34128456Y-32150000D02*
G75*
G02*
X34204500Y-32226000I44J-76000D01*
G01*
X35935250Y-34835860D02*
G75*
G03*
X36011250Y-34911950I76050J-40D01*
G01*
X31386000Y-32824000D02*
G75*
G03*
X31462000Y-32900000I76000J0D01*
G01*
X29600860Y-35274140D02*
G75*
G02*
X29708340Y-35274140I53740J-53739D01*
G01*
X36011250Y-34341860D02*
G75*
G03*
X35935260Y-34417860I50J-76040D01*
G01*
X36059250Y-39471860D02*
G75*
G02*
X36135240Y-39547860I-50J-76040D01*
G01*
X30145332Y-35012509D02*
G75*
G03*
X30145301Y-34905060I-53732J53709D01*
G01*
X32988456Y-32150000D02*
G75*
G02*
X33064500Y-32226000I44J-76000D01*
G01*
X30800000Y-32905000D02*
G75*
G03*
X30724000Y-32829000I-76000J0D01*
G01*
X34888456Y-32150000D02*
G75*
G02*
X34964500Y-32226000I44J-76000D01*
G01*
X35935250Y-38635860D02*
G75*
G03*
X36011250Y-38711950I76050J-40D01*
G01*
X35268456Y-32150000D02*
G75*
G02*
X35344500Y-32226000I44J-76000D01*
G01*
X30276000Y-32829000D02*
G75*
G02*
X30200000Y-32753000I0J76000D01*
G01*
X36135250Y-35785860D02*
G75*
G02*
X36059250Y-35861950I-76050J-40D01*
G01*
X35935250Y-34455860D02*
G75*
G03*
X36011250Y-34531950I76050J-40D01*
G01*
X30450000Y-33285000D02*
G75*
G03*
X30374000Y-33209000I-76000J0D01*
G01*
X36059250Y-34531860D02*
G75*
G02*
X36135240Y-34607860I-50J-76040D01*
G01*
X34394456Y-32226000D02*
G75*
G02*
X34470456Y-32149956I76044J0D01*
G01*
X36059250Y-37951860D02*
G75*
G02*
X36135240Y-38027860I-50J-76040D01*
G01*
X36135250Y-35025860D02*
G75*
G02*
X36059250Y-35101950I-76050J-40D01*
G01*
X36011250Y-35101860D02*
G75*
G03*
X35935260Y-35177860I50J-76040D01*
G01*
X36059250Y-38711860D02*
G75*
G02*
X36135240Y-38787860I-50J-76040D01*
G01*
X36135250Y-36925860D02*
G75*
G02*
X36059250Y-37001950I-76050J-40D01*
G01*
X35611250Y-39661860D02*
G75*
G03*
X35535260Y-39737860I50J-76040D01*
G01*
X33558456Y-32400000D02*
G75*
G03*
X33634500Y-32324000I44J76000D01*
G01*
X36059250Y-38331860D02*
G75*
G02*
X36135240Y-38407860I-50J-76040D01*
G01*
X30200000Y-33095000D02*
G75*
G02*
X30276000Y-33019000I76000J0D01*
G01*
X36135250Y-39965860D02*
G75*
G02*
X36059250Y-40041950I-76050J-40D01*
G01*
X36135250Y-34645860D02*
G75*
G02*
X36059250Y-34721950I-76050J-40D01*
G01*
X34508456Y-32150000D02*
G75*
G02*
X34584500Y-32226000I44J-76000D01*
G01*
X36135250Y-35405860D02*
G75*
G02*
X36059250Y-35481950I-76050J-40D01*
G01*
X33254456Y-32226000D02*
G75*
G02*
X33330456Y-32149956I76044J0D01*
G01*
X33368456Y-32150000D02*
G75*
G02*
X33444500Y-32226000I44J-76000D01*
G01*
X36059250Y-35291860D02*
G75*
G02*
X36135240Y-35367860I-50J-76040D01*
G01*
X35935250Y-35215860D02*
G75*
G03*
X36011250Y-35291950I76050J-40D01*
G01*
X36059250Y-36811860D02*
G75*
G02*
X36135240Y-36887860I-50J-76040D01*
G01*
X35535250Y-40535860D02*
G75*
G03*
X35611250Y-40611950I76050J-40D01*
G01*
X33938456Y-32400000D02*
G75*
G03*
X34014500Y-32324000I44J76000D01*
G01*
X35534456Y-32226000D02*
G75*
G02*
X35610456Y-32149956I76044J0D01*
G01*
X36011250Y-35481860D02*
G75*
G03*
X35935260Y-35557860I50J-76040D01*
G01*
X36135250Y-38825860D02*
G75*
G02*
X36059250Y-38901950I-76050J-40D01*
G01*
X36011250Y-34721860D02*
G75*
G03*
X35935260Y-34797860I50J-76040D01*
G01*
X33444456Y-32324000D02*
G75*
G03*
X33520456Y-32400044I76044J0D01*
G01*
X36135250Y-37685860D02*
G75*
G02*
X36059250Y-37761950I-76050J-40D01*
G01*
X34698456Y-32400000D02*
G75*
G03*
X34774500Y-32324000I44J76000D01*
G01*
X34318456Y-32400000D02*
G75*
G03*
X34394500Y-32324000I44J76000D01*
G01*
X36059250Y-34911860D02*
G75*
G02*
X36135240Y-34987860I-50J-76040D01*
G01*
X35961250Y-39281860D02*
G75*
G03*
X35885260Y-39357860I50J-76040D01*
G01*
X34204456Y-32324000D02*
G75*
G03*
X34280456Y-32400044I76044J0D01*
G01*
X36011250Y-38901860D02*
G75*
G03*
X35935260Y-38977860I50J-76040D01*
G01*
X35935250Y-35975860D02*
G75*
G03*
X36011250Y-36051950I76050J-40D01*
G01*
X36135250Y-39585860D02*
G75*
G02*
X36059250Y-39661950I-76050J-40D01*
G01*
X35935250Y-37115860D02*
G75*
G03*
X36011250Y-37191950I76050J-40D01*
G01*
X34584456Y-32324000D02*
G75*
G03*
X34660456Y-32400044I76044J0D01*
G01*
X35078456Y-32400000D02*
G75*
G03*
X35154500Y-32324000I44J76000D01*
G01*
X33064456Y-32324000D02*
G75*
G03*
X33140456Y-32400044I76044J0D01*
G01*
X36011250Y-38141860D02*
G75*
G03*
X35935260Y-38217860I50J-76040D01*
G01*
X31576000Y-32476000D02*
G75*
G02*
X31652000Y-32400000I76000J0D01*
G01*
X35344456Y-32324000D02*
G75*
G03*
X35420456Y-32400044I76044J0D01*
G01*
X30930000Y-32400000D02*
G75*
G02*
X31006000Y-32476000I0J-76000D01*
G01*
X35935250Y-35595860D02*
G75*
G03*
X36011250Y-35671950I76050J-40D01*
G01*
X36011250Y-36241860D02*
G75*
G03*
X35935260Y-36317860I50J-76040D01*
G01*
X36059250Y-36431860D02*
G75*
G02*
X36135240Y-36507860I-50J-76040D01*
G01*
X36135250Y-38065860D02*
G75*
G02*
X36059250Y-38141950I-76050J-40D01*
G01*
X31006000Y-32624000D02*
G75*
G03*
X31082000Y-32700000I76000J0D01*
G01*
X34964456Y-32324000D02*
G75*
G03*
X35040456Y-32400044I76044J0D01*
G01*
X36059250Y-40611860D02*
G75*
G02*
X36135240Y-40687860I-50J-76040D01*
G01*
X34014456Y-32226000D02*
G75*
G02*
X34090456Y-32149956I76044J0D01*
G01*
X29869561Y-35005439D02*
G75*
G02*
X29977041Y-35005439I53740J-53739D01*
G01*
X35535250Y-39775860D02*
G75*
G03*
X35611250Y-39851950I76050J-40D01*
G01*
X34774456Y-32226000D02*
G75*
G02*
X34850456Y-32149956I76044J0D01*
G01*
X35935250Y-39015860D02*
G75*
G03*
X36011250Y-39091950I76050J-40D01*
G01*
X36135250Y-38445860D02*
G75*
G02*
X36059250Y-38521950I-76050J-40D01*
G01*
%TO.N,/DDR3/DDR_D13*%
X26791000Y-44535379D02*
X26791000Y-45066679D01*
X27074321Y-45350000D02*
X27250000Y-45350000D01*
X27497114Y-45597114D02*
X27497114Y-46752886D01*
X26601000Y-44345379D02*
X26791000Y-44535379D01*
X27081300Y-43350000D02*
X26601000Y-43830300D01*
X26601000Y-43830300D02*
X26601000Y-44345379D01*
X27250000Y-45350000D02*
X27497114Y-45597114D01*
X26791000Y-45066679D02*
X27074321Y-45350000D01*
X27100000Y-43350000D02*
X27081300Y-43350000D01*
%TO.N,/DDR3/DDR_D6*%
X25991000Y-32420886D02*
X25991000Y-33545206D01*
X39300000Y-40100000D02*
X38900000Y-40500000D01*
X25991000Y-33545206D02*
X25992000Y-33546207D01*
X25800000Y-34700000D02*
X25600000Y-34900000D01*
X25700000Y-32129886D02*
X25991000Y-32420886D01*
X25191000Y-35129114D02*
X25191000Y-35841000D01*
X25800000Y-34145794D02*
X25800000Y-34700000D01*
X40500000Y-40100000D02*
X39300000Y-40100000D01*
X25191000Y-35841000D02*
X25500000Y-36150000D01*
X25992000Y-33953794D02*
X25800000Y-34145794D01*
X25420114Y-34900000D02*
X25191000Y-35129114D01*
X25992000Y-33546207D02*
X25992000Y-33953794D01*
X25600000Y-34900000D02*
X25420114Y-34900000D01*
%TO.N,/DDR3/DDR_D3*%
X28950000Y-35450000D02*
X29000000Y-35400000D01*
X28000000Y-35450000D02*
X28650000Y-35450000D01*
X34466000Y-41666000D02*
X35416000Y-41666000D01*
X35416000Y-41666000D02*
X35550000Y-41800000D01*
X27900000Y-35350000D02*
X28000000Y-35450000D01*
X34100000Y-41300000D02*
X34466000Y-41666000D01*
X28650000Y-35450000D02*
X28950000Y-35450000D01*
%TO.N,/DDR3/DDR_BA1*%
X34100000Y-35700000D02*
X33700000Y-36100000D01*
X27100000Y-40950000D02*
X26700000Y-41350000D01*
%TO.N,/DDR3/DDR_DQS0N*%
X28778740Y-34851000D02*
X29362450Y-34267290D01*
X27401000Y-34851000D02*
X28778740Y-34851000D01*
X27100000Y-34550000D02*
X27401000Y-34851000D01*
%TO.N,/DDR3/DDR_RASN*%
X27900000Y-38550000D02*
X28250000Y-38900000D01*
X38100000Y-38900000D02*
X38500000Y-38500000D01*
%TO.N,/DDR3/DDR_D4*%
X27401000Y-32501000D02*
X27401000Y-33449000D01*
X27401000Y-33449000D02*
X27100000Y-33750000D01*
%TO.N,/DDR3/DDR_BA0*%
X27900000Y-37750000D02*
X28100000Y-37950000D01*
X38900000Y-36500000D02*
X39300000Y-36100000D01*
X28100000Y-37950000D02*
X28600000Y-37950000D01*
%TO.N,/DDR3/DDR_A4*%
X34100000Y-34900000D02*
X33700000Y-35300000D01*
X25500000Y-41750000D02*
X25100000Y-41350000D01*
%TO.N,/DDR3/DDR_A2*%
X28900000Y-36950000D02*
X29350000Y-36950000D01*
X38100000Y-34900000D02*
X38500000Y-34500000D01*
X28850000Y-36950000D02*
X28929804Y-36950000D01*
X29350000Y-36950000D02*
X29550000Y-36750000D01*
X28850000Y-36950000D02*
X28900000Y-36950000D01*
X27900000Y-36950000D02*
X28850000Y-36950000D01*
%TO.N,/DDR3/DDR_A6*%
X34100000Y-34100000D02*
X33700000Y-34500000D01*
X27900000Y-41750000D02*
X27500000Y-41350000D01*
%TO.N,/DDR3/DDR_A11*%
X24700000Y-40150000D02*
X25100000Y-40550000D01*
X34900000Y-34100000D02*
X34500000Y-33700000D01*
%TO.N,/DDR3/DDR_A1*%
X26300000Y-40150000D02*
X26700000Y-40550000D01*
X34900000Y-34900000D02*
X34500000Y-34500000D01*
%TO.N,/DDR3/DDR_A5*%
X29099000Y-35849000D02*
X29350000Y-36100000D01*
X27100000Y-36150000D02*
X27350000Y-36150000D01*
X38900000Y-34900000D02*
X39300000Y-34500000D01*
X27651000Y-35849000D02*
X29099000Y-35849000D01*
X27350000Y-36150000D02*
X27651000Y-35849000D01*
D25*
%TO.N,/DDR3/DDR_D0*%
X39177860Y-32150000D02*
X39220200Y-32150000D01*
X40024660Y-32150000D02*
X40067000Y-32150000D01*
X39939980Y-31974680D02*
X39939980Y-32065320D01*
X40329649Y-29952581D02*
X40265556Y-30016673D01*
X40450001Y-32030244D02*
X40385909Y-31966152D01*
X40145801Y-30016673D02*
X40115863Y-29986734D01*
X40067000Y-32150000D02*
X40328700Y-32150000D01*
X27324150Y-29575850D02*
X27050000Y-29850000D01*
X40261346Y-30499913D02*
X40231407Y-30469974D01*
X39728280Y-32065320D02*
X39728280Y-31974680D01*
X40115863Y-29986734D02*
X40064564Y-29935435D01*
X39601260Y-32150000D02*
X39643600Y-32150000D01*
X38331060Y-32150000D02*
X38373400Y-32150000D01*
X40490000Y-31418940D02*
X40490000Y-31376600D01*
X38458080Y-32065320D02*
X38458080Y-31974680D01*
X40479344Y-29982520D02*
X40449405Y-29952581D01*
X40328700Y-32150000D02*
X40450000Y-32150000D01*
D26*
X27600000Y-32586044D02*
X27600000Y-33450000D01*
D25*
X38881480Y-32065320D02*
X38881480Y-31974680D01*
X39304880Y-32065320D02*
X39304880Y-31974680D01*
D26*
X27600000Y-32350000D02*
X27601850Y-32351850D01*
D25*
X37486600Y-39389990D02*
X37646610Y-39550000D01*
X38246380Y-31974680D02*
X38246380Y-32065320D01*
X40750000Y-30741500D02*
X40750000Y-30620871D01*
D26*
X38100000Y-42100000D02*
X38500000Y-41700000D01*
D25*
X40295498Y-30286124D02*
X40415252Y-30166368D01*
X38119360Y-31890000D02*
X38161700Y-31890000D01*
X40665320Y-31503620D02*
X40574680Y-31503620D01*
X40665320Y-31080220D02*
X40574680Y-31080220D01*
D26*
X27601850Y-32584194D02*
X27600000Y-32586044D01*
D25*
X40750000Y-31207240D02*
X40750000Y-31164900D01*
X40574680Y-30868520D02*
X40665320Y-30868520D01*
X40490000Y-30995540D02*
X40490000Y-30953200D01*
X37486600Y-32513400D02*
X37486600Y-39389990D01*
X37950000Y-32150000D02*
X37850000Y-32150000D01*
D26*
X27600000Y-33450000D02*
X27900000Y-33750000D01*
D25*
X39093180Y-31974680D02*
X39093180Y-32065320D01*
D26*
X27601850Y-32351850D02*
X27601850Y-32584194D01*
D25*
X39704979Y-29575850D02*
X27324150Y-29575850D01*
X40750000Y-31850000D02*
X40750000Y-31588300D01*
X40415252Y-30166368D02*
X40479344Y-30102276D01*
X38754460Y-32150000D02*
X38796800Y-32150000D01*
X40749391Y-31850610D02*
X40750000Y-31850000D01*
X38542760Y-31890000D02*
X38585100Y-31890000D01*
X37850000Y-32150000D02*
X37486600Y-32513400D01*
D26*
X38500000Y-40250000D02*
X38316000Y-40066000D01*
D25*
X27050000Y-29850000D02*
X27050000Y-31800000D01*
X40385908Y-31846398D02*
X40415848Y-31816459D01*
X39812960Y-31890000D02*
X39855300Y-31890000D01*
X40719451Y-31880553D02*
X40749391Y-31850610D01*
X40445194Y-30435821D02*
X40381100Y-30499912D01*
D26*
X38316000Y-40066000D02*
X37880650Y-40066000D01*
D25*
X27050000Y-31800000D02*
X27600000Y-32350000D01*
X39516580Y-31974680D02*
X39516580Y-32065320D01*
X39389560Y-31890000D02*
X39431900Y-31890000D01*
X40750000Y-30620871D02*
X40564950Y-30435821D01*
X40574680Y-31291920D02*
X40665320Y-31291920D01*
D26*
X37880650Y-40066000D02*
X37646610Y-39831960D01*
D25*
X40535604Y-31816459D02*
X40599697Y-31880552D01*
X38966160Y-31890000D02*
X39008500Y-31890000D01*
X38034680Y-32065320D02*
X38034680Y-31974680D01*
X40750000Y-30783840D02*
X40750000Y-30741500D01*
D26*
X38500000Y-41700000D02*
X38500000Y-40250000D01*
D25*
X40231407Y-30350218D02*
X40295498Y-30286124D01*
X38669780Y-31974680D02*
X38669780Y-32065320D01*
D26*
X37646610Y-39831960D02*
X37646610Y-39550000D01*
D25*
X40064564Y-29935435D02*
X39704979Y-29575850D01*
X40490000Y-30953200D02*
G75*
G02*
X40574680Y-30868500I84700J0D01*
G01*
X38458080Y-31974680D02*
G75*
G02*
X38542760Y-31889980I84720J-20D01*
G01*
X39304880Y-31974680D02*
G75*
G02*
X39389560Y-31889980I84720J-20D01*
G01*
X39093180Y-32065320D02*
G75*
G03*
X39177860Y-32150020I84720J20D01*
G01*
X40450000Y-32150000D02*
G75*
G03*
X40450023Y-32030223I-59900J59900D01*
G01*
X40665320Y-30868520D02*
G75*
G03*
X40750020Y-30783840I-20J84720D01*
G01*
X38669780Y-32065320D02*
G75*
G03*
X38754460Y-32150020I84720J20D01*
G01*
X40479344Y-30102276D02*
G75*
G03*
X40479342Y-29982522I-59844J59876D01*
G01*
X40265556Y-30016673D02*
G75*
G02*
X40145801Y-30016674I-59878J59878D01*
G01*
X40231407Y-30469974D02*
G75*
G02*
X40231411Y-30350222I59893J59874D01*
G01*
X39516580Y-32065320D02*
G75*
G03*
X39601260Y-32150020I84720J20D01*
G01*
X40381100Y-30499912D02*
G75*
G02*
X40261324Y-30499936I-59900J59912D01*
G01*
X39220200Y-32150000D02*
G75*
G03*
X39304900Y-32065320I0J84700D01*
G01*
X40750000Y-31164900D02*
G75*
G03*
X40665320Y-31080200I-84700J0D01*
G01*
X38796800Y-32150000D02*
G75*
G03*
X38881500Y-32065320I0J84700D01*
G01*
X40599697Y-31880552D02*
G75*
G03*
X40719477Y-31880579I59903J59852D01*
G01*
X40564950Y-30435821D02*
G75*
G03*
X40445194Y-30435821I-59878J-59879D01*
G01*
X39939980Y-32065320D02*
G75*
G03*
X40024660Y-32150020I84720J20D01*
G01*
X38246380Y-32065320D02*
G75*
G03*
X38331060Y-32150020I84720J20D01*
G01*
X38034680Y-31974680D02*
G75*
G02*
X38119360Y-31889980I84720J-20D01*
G01*
X38881480Y-31974680D02*
G75*
G02*
X38966160Y-31889980I84720J-20D01*
G01*
X40385909Y-31966152D02*
G75*
G02*
X40385933Y-31846423I59891J59852D01*
G01*
X39008500Y-31890000D02*
G75*
G02*
X39093200Y-31974680I0J-84700D01*
G01*
X40574680Y-31080220D02*
G75*
G02*
X40489980Y-30995540I20J84720D01*
G01*
X40665320Y-31291920D02*
G75*
G03*
X40750020Y-31207240I-20J84720D01*
G01*
X39643600Y-32150000D02*
G75*
G03*
X39728300Y-32065320I0J84700D01*
G01*
X40490000Y-31376600D02*
G75*
G02*
X40574680Y-31291900I84700J0D01*
G01*
X39728280Y-31974680D02*
G75*
G02*
X39812960Y-31889980I84720J-20D01*
G01*
X40415848Y-31816459D02*
G75*
G02*
X40535604Y-31816459I59878J-59879D01*
G01*
X38373400Y-32150000D02*
G75*
G03*
X38458100Y-32065320I0J84700D01*
G01*
X39431900Y-31890000D02*
G75*
G02*
X39516600Y-31974680I0J-84700D01*
G01*
X40449405Y-29952581D02*
G75*
G03*
X40329649Y-29952581I-59878J-59879D01*
G01*
X38585100Y-31890000D02*
G75*
G02*
X38669800Y-31974680I0J-84700D01*
G01*
X40750000Y-31588300D02*
G75*
G03*
X40665320Y-31503600I-84700J0D01*
G01*
X39855300Y-31890000D02*
G75*
G02*
X39940000Y-31974680I0J-84700D01*
G01*
X40574680Y-31503620D02*
G75*
G02*
X40489980Y-31418940I20J84720D01*
G01*
X38161700Y-31890000D02*
G75*
G02*
X38246400Y-31974680I0J-84700D01*
G01*
D26*
%TO.N,/DDR3/DDR_CSN*%
X38900000Y-37300000D02*
X39300000Y-36900000D01*
X27100000Y-38550000D02*
X27450000Y-38900000D01*
%TO.N,/DDR3/DDR_A0*%
X38100000Y-35700000D02*
X38500000Y-35300000D01*
X27100000Y-37750000D02*
X27500000Y-38150000D01*
%TO.N,/DDR3/DDR_A13*%
X38100000Y-33300000D02*
X38500000Y-32900000D01*
X25500000Y-36950000D02*
X25100000Y-37350000D01*
%TO.N,/DDR3/DDR_ODT*%
X40500000Y-38350000D02*
X40250000Y-38100000D01*
X26300000Y-38550000D02*
X26650000Y-38900000D01*
X40250000Y-38100000D02*
X39700000Y-38100000D01*
D25*
%TO.N,/DDR3/DDR_DQM1*%
X28086934Y-50635100D02*
X39264900Y-50635100D01*
D26*
X25799150Y-43783195D02*
X25799150Y-43566805D01*
D25*
X28013534Y-50561700D02*
X28086934Y-50635100D01*
D26*
X25900000Y-45200000D02*
X25900000Y-44700000D01*
X38500000Y-43300000D02*
X40500000Y-43300000D01*
D25*
X39264900Y-50635100D02*
X41300000Y-48600000D01*
D26*
X26600000Y-45450000D02*
X26500000Y-45350000D01*
D25*
X27073714Y-47123714D02*
X27073714Y-49621883D01*
D26*
X38100000Y-42900000D02*
X38500000Y-43300000D01*
D25*
X41300000Y-44100000D02*
X40650000Y-43450000D01*
D26*
X26050000Y-45350000D02*
X25900000Y-45200000D01*
D25*
X26600000Y-46650000D02*
X27073714Y-47123714D01*
D26*
X25801000Y-43785045D02*
X25799150Y-43783195D01*
D25*
X41300000Y-48600000D02*
X41300000Y-44100000D01*
D26*
X25801000Y-43564955D02*
X25801000Y-42851000D01*
X25801000Y-42851000D02*
X25500000Y-42550000D01*
D25*
X28013531Y-50561700D02*
X28013534Y-50561700D01*
D26*
X26600000Y-46650000D02*
X26600000Y-45450000D01*
X40500000Y-43300000D02*
X40650000Y-43450000D01*
X25799150Y-43566805D02*
X25801000Y-43564955D01*
X25900000Y-44700000D02*
X25801000Y-44601000D01*
X25801000Y-44601000D02*
X25801000Y-43785045D01*
X26500000Y-45350000D02*
X26050000Y-45350000D01*
D25*
X27073714Y-49621883D02*
X28013531Y-50561700D01*
D26*
%TO.N,/DDR3/DDR_A15*%
X27100000Y-40150000D02*
X27500000Y-40550000D01*
X34900000Y-36500000D02*
X34500000Y-36100000D01*
%TO.N,/DDR3/DDR_A7*%
X38900000Y-34100000D02*
X39300000Y-33700000D01*
X25500000Y-37750000D02*
X25900000Y-38150000D01*
%TO.N,/DDR3/DDR_D10*%
X26601000Y-42851000D02*
X28199000Y-42851000D01*
X26300000Y-42550000D02*
X26601000Y-42851000D01*
X28199000Y-42851000D02*
X28225000Y-42825000D01*
X32800000Y-44134000D02*
X33666000Y-44134000D01*
X33666000Y-44134000D02*
X34100000Y-43700000D01*
%TO.N,/DDR3/DDR_D12*%
X26300000Y-44150000D02*
X26300000Y-43837839D01*
X26700000Y-43200000D02*
X26851000Y-43049000D01*
X34900000Y-45300000D02*
X34900000Y-45618198D01*
X26300000Y-43837839D02*
X26700000Y-43437839D01*
X26700000Y-43437839D02*
X26700000Y-43200000D01*
X34900000Y-45618198D02*
X34768198Y-45750000D01*
X34768198Y-45750000D02*
X34750000Y-45750000D01*
X26851000Y-43049000D02*
X28275000Y-43049000D01*
%TO.N,/DDR3/DDR_BA2*%
X38100000Y-36500000D02*
X38500000Y-36100000D01*
X24700000Y-37750000D02*
X24355328Y-37405328D01*
X24700000Y-37750000D02*
X24355328Y-38094672D01*
%TO.N,/DDR3/DDR_D15*%
X27179886Y-44950000D02*
X27670886Y-45441000D01*
X28350000Y-45650000D02*
X28350000Y-45900000D01*
X27100000Y-44950000D02*
X27179886Y-44950000D01*
X27670886Y-45441000D02*
X28141000Y-45441000D01*
X28141000Y-45441000D02*
X28350000Y-45650000D01*
%TO.N,/DDR3/DDR_A10*%
X25500000Y-39350000D02*
X25900000Y-39750000D01*
X34900000Y-37300000D02*
X34500000Y-36900000D01*
D25*
%TO.N,/DDR3/DDR_D2*%
X26261700Y-28938300D02*
X26412920Y-28938300D01*
D26*
X25800000Y-32513931D02*
X25800000Y-33624321D01*
X39300000Y-40900000D02*
X40450000Y-40900000D01*
X25200000Y-34250000D02*
X25200000Y-34850000D01*
D25*
X41550000Y-30001222D02*
X41550000Y-39800000D01*
X40475378Y-28926600D02*
X41550000Y-30001222D01*
D26*
X38900000Y-41300000D02*
X39300000Y-40900000D01*
D25*
X25388300Y-32088300D02*
X25388300Y-29811700D01*
D26*
X25200000Y-34850000D02*
X25000000Y-35050000D01*
X25801000Y-33625321D02*
X25801000Y-33874679D01*
X25000000Y-35050000D02*
X25000000Y-35850000D01*
D25*
X25388300Y-29811700D02*
X26261700Y-28938300D01*
D26*
X25450000Y-32163931D02*
X25800000Y-32513931D01*
X25450000Y-32150000D02*
X25450000Y-32163931D01*
D25*
X26412920Y-28938300D02*
X26424621Y-28926600D01*
X41550000Y-39800000D02*
X40450000Y-40900000D01*
D26*
X25000000Y-35850000D02*
X24700000Y-36150000D01*
D25*
X25450000Y-32150000D02*
X25388300Y-32088300D01*
D26*
X25624679Y-34051000D02*
X25399000Y-34051000D01*
X25800000Y-33624321D02*
X25801000Y-33625321D01*
D25*
X26424621Y-28926600D02*
X40475378Y-28926600D01*
D26*
X25399000Y-34051000D02*
X25200000Y-34250000D01*
X25801000Y-33874679D02*
X25624679Y-34051000D01*
%TO.N,/DDR3/DDR_WEN*%
X24700000Y-38550000D02*
X25100000Y-38950000D01*
X38100000Y-37300000D02*
X38500000Y-36900000D01*
%TO.N,/DDR3/DDR_D8*%
X27100000Y-42531299D02*
X27100000Y-42550000D01*
X27481299Y-42150000D02*
X27100000Y-42531299D01*
X28200000Y-42059000D02*
X28109000Y-42150000D01*
X28109000Y-42150000D02*
X27481299Y-42150000D01*
X32550000Y-43300000D02*
X34500000Y-43300000D01*
X34500000Y-43300000D02*
X34900000Y-42900000D01*
%TO.N,/DDR3/DDR_A9*%
X38100000Y-34100000D02*
X38500000Y-33700000D01*
X27100000Y-36950000D02*
X26700000Y-37350000D01*
%TO.N,/DDR3/DDR_A3*%
X26300000Y-37750000D02*
X26700000Y-38150000D01*
X38900000Y-35700000D02*
X39300000Y-35300000D01*
%TO.N,/DDR3/DDR_D5*%
X25991000Y-34809000D02*
X25800000Y-35000000D01*
X27224679Y-36649000D02*
X27401000Y-36825321D01*
X27401000Y-37219700D02*
X27622300Y-37441000D01*
X26750000Y-34376321D02*
X26523679Y-34150000D01*
X35250000Y-39300000D02*
X35425000Y-39125000D01*
X27100000Y-35350000D02*
X26750000Y-35000000D01*
X26750000Y-35000000D02*
X26750000Y-34376321D01*
X26199000Y-36649000D02*
X27224679Y-36649000D01*
X26523679Y-34150000D02*
X26100000Y-34150000D01*
X25800000Y-35000000D02*
X25800000Y-36250000D01*
X26100000Y-34150000D02*
X25991000Y-34259000D01*
X27401000Y-36825321D02*
X27401000Y-37219700D01*
X25991000Y-34259000D02*
X25991000Y-34809000D01*
X34100000Y-39700000D02*
X34500000Y-39300000D01*
X27622300Y-37441000D02*
X28859000Y-37441000D01*
X34500000Y-39300000D02*
X35250000Y-39300000D01*
X35425000Y-39125000D02*
X35425000Y-38775000D01*
X28859000Y-37441000D02*
X28899999Y-37400001D01*
X25800000Y-36250000D02*
X26199000Y-36649000D01*
%TO.N,/DDR3/DDR_D14*%
X35200000Y-43300000D02*
X34768700Y-43300000D01*
X34100000Y-44500000D02*
X34466000Y-44134000D01*
X34466000Y-43602700D02*
X34768700Y-43300000D01*
X34466000Y-44134000D02*
X34466000Y-43602700D01*
%TO.N,/DDR3/DDR_A14*%
X34900000Y-33300000D02*
X35300000Y-33700000D01*
X27900000Y-40950000D02*
X28300000Y-41350000D01*
%TO.N,/DDR3/DDR_A12*%
X34900000Y-35700000D02*
X34500000Y-35300000D01*
X27900000Y-40150000D02*
X28300000Y-40550000D01*
%TO.N,/DDR3/DDR_A8*%
X26300000Y-40950000D02*
X25900000Y-41350000D01*
X34100000Y-33300000D02*
X33700000Y-33700000D01*
%TO.N,/DDR3/DDR_D11*%
X26800000Y-46147172D02*
X26800000Y-45345794D01*
X26800000Y-45345794D02*
X26600000Y-45145793D01*
X40499000Y-44099000D02*
X40850000Y-44450000D01*
X39998900Y-44134000D02*
X40033900Y-44099000D01*
X26400000Y-44500000D02*
X26100000Y-44500000D01*
X40033900Y-44099000D02*
X40499000Y-44099000D01*
X39334000Y-44134000D02*
X39998900Y-44134000D01*
X38900000Y-43700000D02*
X39334000Y-44134000D01*
X25999000Y-43651000D02*
X26300000Y-43350000D01*
X26100000Y-44500000D02*
X25999000Y-44399000D01*
X26600000Y-45145793D02*
X26600000Y-44700000D01*
X25999000Y-44399000D02*
X25999000Y-43651000D01*
X40850000Y-44450000D02*
X40850000Y-45400000D01*
X26600000Y-44700000D02*
X26400000Y-44500000D01*
X27100000Y-46447172D02*
X26800000Y-46147172D01*
%TO.N,/DDR3/DDR_D7*%
X27593000Y-36743000D02*
X27593000Y-37143000D01*
X27300000Y-36450000D02*
X27593000Y-36743000D01*
X26600000Y-36450000D02*
X27300000Y-36450000D01*
X26300000Y-36150000D02*
X26600000Y-36450000D01*
X28864541Y-37150000D02*
X30000000Y-37150000D01*
X27593000Y-37143000D02*
X27700000Y-37250000D01*
X28764541Y-37250000D02*
X28864541Y-37150000D01*
X27700000Y-37250000D02*
X28764541Y-37250000D01*
%TO.N,/DDR3/DDR_D9*%
X26791000Y-43909000D02*
X26791000Y-44266679D01*
X26791000Y-44266679D02*
X27024321Y-44500000D01*
X28250000Y-45250000D02*
X28600000Y-45599998D01*
X26900000Y-43800000D02*
X26791000Y-43909000D01*
X27500000Y-45000000D02*
X27750000Y-45250000D01*
X27024321Y-44500000D02*
X27165956Y-44500000D01*
X27750000Y-45250000D02*
X28250000Y-45250000D01*
X27165956Y-44500000D02*
X27500000Y-44834044D01*
X27900000Y-43350000D02*
X27450000Y-43800000D01*
X27500000Y-44834044D02*
X27500000Y-45000000D01*
X27450000Y-43800000D02*
X26900000Y-43800000D01*
%TO.N,/DDR3/DDR_DQM0*%
X29050000Y-35050000D02*
X27500000Y-35050000D01*
D25*
X37232263Y-30484680D02*
X37232263Y-30645320D01*
X35665683Y-30400000D02*
X35623343Y-30400000D01*
X29738300Y-34361700D02*
X29150000Y-34950000D01*
X37147583Y-30730000D02*
X37105243Y-30730000D01*
X33633363Y-30645320D02*
X33633363Y-30484680D01*
X34900000Y-42100000D02*
X36350000Y-42100000D01*
X38800000Y-30950000D02*
X38900000Y-30850000D01*
X36724183Y-30730000D02*
X36681843Y-30730000D01*
D26*
X27500000Y-35375679D02*
X27224679Y-35651000D01*
D25*
X35538663Y-30484680D02*
X35538663Y-30645320D01*
D26*
X26674321Y-35350000D02*
X26300000Y-35350000D01*
D25*
X32700000Y-31100000D02*
X32650000Y-31150000D01*
X37500000Y-30950000D02*
X38800000Y-30950000D01*
X37867363Y-30645320D02*
X37867363Y-30484680D01*
X33548683Y-30400000D02*
X33506343Y-30400000D01*
X38290763Y-30645320D02*
X38290763Y-30484680D01*
X34607183Y-30730000D02*
X34564843Y-30730000D01*
X34480163Y-30645320D02*
X34480163Y-30484680D01*
D26*
X26975321Y-35651000D02*
X26674321Y-35350000D01*
D25*
X37994383Y-30730000D02*
X37952043Y-30730000D01*
X36597163Y-30645320D02*
X36597163Y-30484680D01*
X34268463Y-30484680D02*
X34268463Y-30645320D01*
X29738300Y-32161700D02*
X29738300Y-34361700D01*
X33845063Y-30484680D02*
X33845063Y-30645320D01*
X37020563Y-30645320D02*
X37020563Y-30484680D01*
X36173763Y-30645320D02*
X36173763Y-30484680D01*
X37443963Y-30645320D02*
X37443963Y-30484680D01*
D26*
X29150000Y-34950000D02*
X29050000Y-35050000D01*
D25*
X31596844Y-31150000D02*
X30896844Y-31850000D01*
X33760383Y-30730000D02*
X33718043Y-30730000D01*
X36808863Y-30484680D02*
X36808863Y-30645320D01*
X38417783Y-30730000D02*
X38375443Y-30730000D01*
X35877383Y-30730000D02*
X35835043Y-30730000D01*
X30896844Y-31850000D02*
X30050000Y-31850000D01*
X37782683Y-30400000D02*
X37740343Y-30400000D01*
X34183783Y-30730000D02*
X34141443Y-30730000D01*
X33400000Y-30400000D02*
X33029900Y-30770098D01*
X34903563Y-30645320D02*
X34903563Y-30484680D01*
X38206083Y-30400000D02*
X38163743Y-30400000D01*
X30050000Y-31850000D02*
X29738300Y-32161700D01*
X34691863Y-30484680D02*
X34691863Y-30645320D01*
X37359283Y-30400000D02*
X37316943Y-30400000D01*
X35962063Y-30484680D02*
X35962063Y-30645320D01*
X35115263Y-30484680D02*
X35115263Y-30645320D01*
X38900000Y-30850000D02*
X38900000Y-30550000D01*
X35030583Y-30730000D02*
X34988243Y-30730000D01*
D26*
X27224679Y-35651000D02*
X26975321Y-35651000D01*
X27500000Y-35050000D02*
X27500000Y-35375679D01*
D25*
X35453983Y-30730000D02*
X35411643Y-30730000D01*
X38079063Y-30484680D02*
X38079063Y-30645320D01*
X34818883Y-30400000D02*
X34776543Y-30400000D01*
X36385463Y-30484680D02*
X36385463Y-30645320D01*
X35242283Y-30400000D02*
X35199943Y-30400000D01*
X36935883Y-30400000D02*
X36893543Y-30400000D01*
X38900000Y-30550000D02*
X38750000Y-30400000D01*
X33506343Y-30400000D02*
X33400000Y-30400000D01*
X35326963Y-30645320D02*
X35326963Y-30484680D01*
X33029900Y-30770098D02*
X32700000Y-31100000D01*
X37655663Y-30484680D02*
X37655663Y-30645320D01*
X37570983Y-30730000D02*
X37528643Y-30730000D01*
X36350000Y-42100000D02*
X36700000Y-41750000D01*
X32650000Y-31150000D02*
X31596844Y-31150000D01*
X38502463Y-30484680D02*
X38502463Y-30645320D01*
X34056763Y-30645320D02*
X34056763Y-30484680D01*
X36700000Y-41750000D02*
X36700000Y-31750000D01*
X38750000Y-30400000D02*
X38587143Y-30400000D01*
X36300783Y-30730000D02*
X36258443Y-30730000D01*
X35750363Y-30645320D02*
X35750363Y-30484680D01*
X36089083Y-30400000D02*
X36046743Y-30400000D01*
X34395483Y-30400000D02*
X34353143Y-30400000D01*
X36512483Y-30400000D02*
X36470143Y-30400000D01*
X33972083Y-30400000D02*
X33929743Y-30400000D01*
X36700000Y-31750000D02*
X37500000Y-30950000D01*
X34903563Y-30484680D02*
G75*
G03*
X34818883Y-30400037I-84663J-20D01*
G01*
X37316943Y-30400000D02*
G75*
G03*
X37232200Y-30484680I-43J-84700D01*
G01*
X35623343Y-30400000D02*
G75*
G03*
X35538600Y-30484680I-43J-84700D01*
G01*
X34988243Y-30730000D02*
G75*
G02*
X34903500Y-30645320I-43J84700D01*
G01*
X34776543Y-30400000D02*
G75*
G03*
X34691800Y-30484680I-43J-84700D01*
G01*
X37443963Y-30484680D02*
G75*
G03*
X37359283Y-30400037I-84663J-20D01*
G01*
X38375443Y-30730000D02*
G75*
G02*
X38290700Y-30645320I-43J84700D01*
G01*
X37740343Y-30400000D02*
G75*
G03*
X37655600Y-30484680I-43J-84700D01*
G01*
X38290763Y-30484680D02*
G75*
G03*
X38206083Y-30400037I-84663J-20D01*
G01*
X38502463Y-30645320D02*
G75*
G02*
X38417783Y-30729963I-84663J20D01*
G01*
X34480163Y-30484680D02*
G75*
G03*
X34395483Y-30400037I-84663J-20D01*
G01*
X34141443Y-30730000D02*
G75*
G02*
X34056700Y-30645320I-43J84700D01*
G01*
X38163743Y-30400000D02*
G75*
G03*
X38079000Y-30484680I-43J-84700D01*
G01*
X37528643Y-30730000D02*
G75*
G02*
X37443900Y-30645320I-43J84700D01*
G01*
X36597163Y-30484680D02*
G75*
G03*
X36512483Y-30400037I-84663J-20D01*
G01*
X35115263Y-30645320D02*
G75*
G02*
X35030583Y-30729963I-84663J20D01*
G01*
X37105243Y-30730000D02*
G75*
G02*
X37020500Y-30645320I-43J84700D01*
G01*
X35326963Y-30484680D02*
G75*
G03*
X35242283Y-30400037I-84663J-20D01*
G01*
X34564843Y-30730000D02*
G75*
G02*
X34480100Y-30645320I-43J84700D01*
G01*
X33718043Y-30730000D02*
G75*
G02*
X33633300Y-30645320I-43J84700D01*
G01*
X35962063Y-30645320D02*
G75*
G02*
X35877383Y-30729963I-84663J20D01*
G01*
X33929743Y-30400000D02*
G75*
G03*
X33845000Y-30484680I-43J-84700D01*
G01*
X37020563Y-30484680D02*
G75*
G03*
X36935883Y-30400037I-84663J-20D01*
G01*
X34056763Y-30484680D02*
G75*
G03*
X33972083Y-30400037I-84663J-20D01*
G01*
X36385463Y-30645320D02*
G75*
G02*
X36300783Y-30729963I-84663J20D01*
G01*
X36808863Y-30645320D02*
G75*
G02*
X36724183Y-30729963I-84663J20D01*
G01*
X37867363Y-30484680D02*
G75*
G03*
X37782683Y-30400037I-84663J-20D01*
G01*
X35199943Y-30400000D02*
G75*
G03*
X35115200Y-30484680I-43J-84700D01*
G01*
X36470143Y-30400000D02*
G75*
G03*
X36385400Y-30484680I-43J-84700D01*
G01*
X35835043Y-30730000D02*
G75*
G02*
X35750300Y-30645320I-43J84700D01*
G01*
X36173763Y-30484680D02*
G75*
G03*
X36089083Y-30400037I-84663J-20D01*
G01*
X37655663Y-30645320D02*
G75*
G02*
X37570983Y-30729963I-84663J20D01*
G01*
X38079063Y-30645320D02*
G75*
G02*
X37994383Y-30729963I-84663J20D01*
G01*
X36893543Y-30400000D02*
G75*
G03*
X36808800Y-30484680I-43J-84700D01*
G01*
X37232263Y-30645320D02*
G75*
G02*
X37147583Y-30729963I-84663J20D01*
G01*
X35750363Y-30484680D02*
G75*
G03*
X35665683Y-30400037I-84663J-20D01*
G01*
X36258443Y-30730000D02*
G75*
G02*
X36173700Y-30645320I-43J84700D01*
G01*
X34691863Y-30645320D02*
G75*
G02*
X34607183Y-30729963I-84663J20D01*
G01*
X35538663Y-30645320D02*
G75*
G02*
X35453983Y-30729963I-84663J20D01*
G01*
X33633363Y-30484680D02*
G75*
G03*
X33548683Y-30400037I-84663J-20D01*
G01*
X34268463Y-30645320D02*
G75*
G02*
X34183783Y-30729963I-84663J20D01*
G01*
X33845063Y-30645320D02*
G75*
G02*
X33760383Y-30729963I-84663J20D01*
G01*
X35411643Y-30730000D02*
G75*
G02*
X35326900Y-30645320I-43J84700D01*
G01*
X34353143Y-30400000D02*
G75*
G03*
X34268400Y-30484680I-43J-84700D01*
G01*
X37952043Y-30730000D02*
G75*
G02*
X37867300Y-30645320I-43J84700D01*
G01*
X36681843Y-30730000D02*
G75*
G02*
X36597100Y-30645320I-43J84700D01*
G01*
X36046743Y-30400000D02*
G75*
G03*
X35962000Y-30484680I-43J-84700D01*
G01*
D26*
%TO.N,/DDR3/DDR_CASN*%
X38500000Y-37700000D02*
X40500000Y-37700000D01*
X26300000Y-39350000D02*
X26700000Y-39750000D01*
X38100000Y-38100000D02*
X38500000Y-37700000D01*
%TD*%
M02*
