%TF.GenerationSoftware,KiCad,Pcbnew,9.0.3*%
%TF.CreationDate,2025-08-17T15:03:40+03:00*%
%TF.ProjectId,ThingsCore-1,5468696e-6773-4436-9f72-652d312e6b69,rev?*%
%TF.SameCoordinates,Original*%
%TF.FileFunction,Copper,L4,Inr*%
%TF.FilePolarity,Positive*%
%FSLAX46Y46*%
G04 Gerber Fmt 4.6, Leading zero omitted, Abs format (unit mm)*
G04 Created by KiCad (PCBNEW 9.0.3) date 2025-08-17 15:03:40*
%MOMM*%
%LPD*%
G01*
G04 APERTURE LIST*
%TA.AperFunction,ComponentPad*%
%ADD10R,5.800000X5.800000*%
%TD*%
%TA.AperFunction,ViaPad*%
%ADD11C,0.450000*%
%TD*%
G04 APERTURE END LIST*
D10*
%TO.N,*%
%TO.C,U1*%
X15307328Y-15308537D03*
X39486338Y-15314455D03*
%TD*%
D11*
%TO.N,GND*%
X22700000Y-42149998D03*
X20350000Y-34200000D03*
X32800000Y-45300000D03*
X21900000Y-41350000D03*
X25100000Y-36550000D03*
X40200000Y-42100000D03*
X33700000Y-42500000D03*
X39300000Y-39300000D03*
X40200000Y-33300000D03*
X21900000Y-37350000D03*
X17950000Y-42100000D03*
X19500000Y-39750000D03*
X32800000Y-36500000D03*
X33700000Y-39300000D03*
X34500000Y-42500000D03*
X27900000Y-46300000D03*
X22700000Y-40550000D03*
X25900000Y-42149998D03*
X40200000Y-42900000D03*
X21900000Y-39750000D03*
X40200000Y-44500000D03*
X25900000Y-37350000D03*
X40200000Y-34900000D03*
X28950000Y-36550000D03*
X37700000Y-44100000D03*
X40200000Y-36500000D03*
X32800000Y-44619850D03*
X40200000Y-40500000D03*
X28300000Y-32550000D03*
X16350000Y-35000000D03*
X19500000Y-42950000D03*
X17950000Y-35800000D03*
X32800000Y-40500000D03*
X23500000Y-35750000D03*
X32800000Y-41300000D03*
X24300002Y-42950000D03*
X16350000Y-40500000D03*
X25900000Y-38950000D03*
X32800000Y-33300000D03*
X34500000Y-40900000D03*
X32800000Y-34900000D03*
X23500002Y-43750000D03*
X20300000Y-44550002D03*
X21100000Y-37350000D03*
X14700000Y-45350000D03*
X18650000Y-41400000D03*
X21100000Y-41350000D03*
X18700000Y-43750000D03*
X25100000Y-45349998D03*
X39300000Y-42500000D03*
X17900000Y-39750000D03*
X14700000Y-32550000D03*
%TO.N,3V3_VDD*%
X22700000Y-36550002D03*
X22700000Y-37349998D03*
X17900000Y-41350000D03*
X23500000Y-42150000D03*
X18700000Y-39750000D03*
X21900000Y-42150000D03*
X23500000Y-34950000D03*
X19500000Y-37350000D03*
X19500000Y-41350000D03*
X21100000Y-44550002D03*
X21100000Y-42150000D03*
X19500000Y-43750002D03*
X24299998Y-43750000D03*
%TO.N,1V25_CORE*%
X18700000Y-38950000D03*
X21900000Y-38950000D03*
X21100000Y-36550000D03*
X21100000Y-39750000D03*
X21100000Y-38950000D03*
X20300000Y-36550000D03*
X18700000Y-36550000D03*
X25100000Y-39750000D03*
%TO.N,1V35_DDR*%
X24299998Y-36550000D03*
X33700000Y-38500000D03*
X40200000Y-41300000D03*
X32800000Y-42100000D03*
X32800000Y-35700000D03*
X32800000Y-43700000D03*
X32800000Y-39700000D03*
X40200000Y-43700000D03*
X32800000Y-42900000D03*
X34500000Y-40100000D03*
X24293963Y-38942155D03*
X39300000Y-44900000D03*
X38500000Y-39300000D03*
X40200000Y-34100000D03*
X39300000Y-38500000D03*
X40200000Y-45300000D03*
X38500000Y-42500000D03*
X33700000Y-44900000D03*
X23500002Y-37350000D03*
X24300000Y-42150000D03*
X40200000Y-35700000D03*
X24273127Y-40549991D03*
X32800000Y-34100000D03*
%TO.N,/DDR3/DDR_VREF*%
X25100000Y-42150000D03*
X40200000Y-39700000D03*
X33700000Y-36900000D03*
%TO.N,/DDR3/DDR_CLK_N*%
X34500000Y-37700000D03*
X28300000Y-39750000D03*
%TO.N,/DDR3/DDR_CLK_P*%
X27500000Y-39750000D03*
X34500000Y-38500000D03*
%TO.N,/DDR3/ZQ*%
X29025000Y-42775000D03*
X33700000Y-37700000D03*
%TO.N,/DDR3/DDR_CKE*%
X32900000Y-38500000D03*
X25900000Y-40550000D03*
%TO.N,/DDR3/DDR_RESETN*%
X39300000Y-32900000D03*
X28350000Y-36300000D03*
%TO.N,/DDR3/DDR_BA1*%
X33700000Y-36100000D03*
X26700000Y-41350000D03*
%TO.N,/DDR3/DDR_RASN*%
X38500000Y-38500000D03*
X28300000Y-38950000D03*
%TO.N,/DDR3/DDR_BA0*%
X28600000Y-37950000D03*
X39300000Y-36100000D03*
%TO.N,/DDR3/DDR_A4*%
X33700000Y-35300000D03*
X25100000Y-41350000D03*
%TO.N,/DDR3/DDR_A2*%
X38500000Y-34500000D03*
X29600000Y-36700000D03*
%TO.N,/DDR3/DDR_A6*%
X33700000Y-34500000D03*
X27500000Y-41350000D03*
%TO.N,/DDR3/DDR_A11*%
X34500000Y-33700000D03*
X25100000Y-40550000D03*
%TO.N,/DDR3/DDR_A1*%
X34500000Y-34500000D03*
X26700000Y-40550000D03*
%TO.N,/DDR3/DDR_A5*%
X29350000Y-36100000D03*
X39300000Y-34500000D03*
%TO.N,/DDR3/DDR_CSN*%
X39300000Y-36900000D03*
X27500000Y-38900000D03*
%TO.N,/DDR3/DDR_A0*%
X27500000Y-38150000D03*
X38500000Y-35300000D03*
%TO.N,/DDR3/DDR_A13*%
X25100000Y-37350000D03*
X38500000Y-32900000D03*
%TO.N,/DDR3/DDR_ODT*%
X26700000Y-38900000D03*
X40500000Y-38350000D03*
%TO.N,/DDR3/DDR_A15*%
X27500000Y-40550000D03*
X34500000Y-36100000D03*
%TO.N,/DDR3/DDR_A7*%
X39300000Y-33700000D03*
X25900000Y-38150000D03*
%TO.N,/DDR3/DDR_BA2*%
X24300000Y-38150000D03*
X24300000Y-37350000D03*
X38500000Y-36100000D03*
%TO.N,/DDR3/DDR_A10*%
X34500000Y-36900000D03*
X25900000Y-39750000D03*
%TO.N,/DDR3/DDR_WEN*%
X25100000Y-38950000D03*
X38500000Y-36900000D03*
%TO.N,/DDR3/DDR_A9*%
X38500000Y-33700000D03*
X26700000Y-37350000D03*
%TO.N,/DDR3/DDR_A3*%
X26700000Y-38150000D03*
X39300000Y-35300000D03*
%TO.N,/DDR3/DDR_A14*%
X28300000Y-41350000D03*
X35300000Y-33700000D03*
%TO.N,/DDR3/DDR_A12*%
X28300000Y-40550000D03*
X34500000Y-35300000D03*
%TO.N,/DDR3/DDR_A8*%
X33700000Y-33700000D03*
X25900000Y-41350000D03*
%TO.N,/DDR3/DDR_CASN*%
X40500000Y-37700000D03*
X26700000Y-39750000D03*
%TD*%
%TA.AperFunction,Conductor*%
%TO.N,1V35_DDR*%
G36*
X27503498Y-46135760D02*
G01*
X27503497Y-46135763D01*
X27474500Y-46243982D01*
X27474500Y-46356018D01*
X27503497Y-46464237D01*
X27559515Y-46561263D01*
X27638737Y-46640485D01*
X27735763Y-46696503D01*
X27843982Y-46725500D01*
X27843984Y-46725500D01*
X27956016Y-46725500D01*
X27956018Y-46725500D01*
X28064237Y-46696503D01*
X28161263Y-46640485D01*
X28240485Y-46561263D01*
X28296503Y-46464237D01*
X28325500Y-46356018D01*
X28325500Y-46243982D01*
X28296503Y-46135763D01*
X28246988Y-46050000D01*
X30850000Y-46050000D01*
X30850000Y-51150000D01*
X30850000Y-55576000D01*
X30830315Y-55643039D01*
X30777511Y-55688794D01*
X30726000Y-55700000D01*
X25524000Y-55700000D01*
X25456961Y-55680315D01*
X25411206Y-55627511D01*
X25400000Y-55576000D01*
X25400000Y-46050000D01*
X27553012Y-46050000D01*
X27503498Y-46135760D01*
G37*
%TD.AperFunction*%
%TD*%
%TA.AperFunction,Conductor*%
%TO.N,1V35_DDR*%
G36*
X23364582Y-36154225D02*
G01*
X23443982Y-36175500D01*
X23443984Y-36175500D01*
X23556016Y-36175500D01*
X23556018Y-36175500D01*
X23635418Y-36154225D01*
X23667511Y-36150000D01*
X23900000Y-36150000D01*
X24948814Y-36150000D01*
X24935763Y-36153497D01*
X24935760Y-36153498D01*
X24838740Y-36209513D01*
X24838734Y-36209517D01*
X24759517Y-36288734D01*
X24759513Y-36288740D01*
X24703498Y-36385760D01*
X24703497Y-36385763D01*
X24674500Y-36493982D01*
X24674500Y-36606018D01*
X24703497Y-36714237D01*
X24759515Y-36811263D01*
X24759517Y-36811265D01*
X24810571Y-36862319D01*
X24814909Y-36870264D01*
X24822157Y-36875690D01*
X24831391Y-36900449D01*
X24844056Y-36923642D01*
X24843410Y-36932671D01*
X24846574Y-36941154D01*
X24840957Y-36966974D01*
X24839072Y-36993334D01*
X24833253Y-37002387D01*
X24831722Y-37009427D01*
X24810571Y-37037681D01*
X24787681Y-37060571D01*
X24726358Y-37094056D01*
X24656666Y-37089072D01*
X24612319Y-37060571D01*
X24561265Y-37009517D01*
X24561263Y-37009515D01*
X24464237Y-36953497D01*
X24356018Y-36924500D01*
X24243982Y-36924500D01*
X24135763Y-36953497D01*
X24135760Y-36953498D01*
X24038740Y-37009513D01*
X24038734Y-37009517D01*
X23959517Y-37088734D01*
X23959513Y-37088740D01*
X23903498Y-37185760D01*
X23903498Y-37185761D01*
X23903497Y-37185763D01*
X23874500Y-37293982D01*
X23874500Y-37406018D01*
X23903497Y-37514237D01*
X23959515Y-37611263D01*
X23959517Y-37611265D01*
X24010571Y-37662319D01*
X24044056Y-37723642D01*
X24039072Y-37793334D01*
X24010571Y-37837681D01*
X23959517Y-37888734D01*
X23959513Y-37888740D01*
X23903498Y-37985760D01*
X23903497Y-37985763D01*
X23874500Y-38093982D01*
X23874500Y-38206018D01*
X23903497Y-38314237D01*
X23959515Y-38411263D01*
X24038737Y-38490485D01*
X24135763Y-38546503D01*
X24243982Y-38575500D01*
X24243984Y-38575500D01*
X24356016Y-38575500D01*
X24356018Y-38575500D01*
X24464237Y-38546503D01*
X24561263Y-38490485D01*
X24640485Y-38411263D01*
X24696503Y-38314237D01*
X24725500Y-38206018D01*
X24725500Y-38093982D01*
X24696503Y-37985763D01*
X24640485Y-37888737D01*
X24589429Y-37837681D01*
X24585090Y-37829735D01*
X24577843Y-37824310D01*
X24568608Y-37799550D01*
X24555944Y-37776358D01*
X24556589Y-37767328D01*
X24553426Y-37758846D01*
X24559042Y-37733025D01*
X24560928Y-37706666D01*
X24566746Y-37697612D01*
X24568278Y-37690573D01*
X24589429Y-37662319D01*
X24612319Y-37639429D01*
X24673642Y-37605944D01*
X24743334Y-37610928D01*
X24787681Y-37639429D01*
X24838737Y-37690485D01*
X24935763Y-37746503D01*
X25043982Y-37775500D01*
X25043984Y-37775500D01*
X25156016Y-37775500D01*
X25156018Y-37775500D01*
X25264237Y-37746503D01*
X25361263Y-37690485D01*
X25400000Y-37651748D01*
X25400000Y-38648252D01*
X25361263Y-38609515D01*
X25264237Y-38553497D01*
X25156018Y-38524500D01*
X25043982Y-38524500D01*
X24935763Y-38553497D01*
X24935760Y-38553498D01*
X24838740Y-38609513D01*
X24838734Y-38609517D01*
X24759517Y-38688734D01*
X24759513Y-38688740D01*
X24703498Y-38785760D01*
X24703497Y-38785763D01*
X24674500Y-38893982D01*
X24674500Y-39006018D01*
X24683178Y-39038408D01*
X24681516Y-39108256D01*
X24642354Y-39166119D01*
X24578125Y-39193623D01*
X24563404Y-39194500D01*
X23124000Y-39194500D01*
X23056961Y-39174815D01*
X23011206Y-39122011D01*
X23000000Y-39070500D01*
X23000000Y-37703108D01*
X23019685Y-37636069D01*
X23036319Y-37615427D01*
X23040485Y-37611261D01*
X23096503Y-37514235D01*
X23125500Y-37406016D01*
X23125500Y-37293980D01*
X23096503Y-37185761D01*
X23040485Y-37088735D01*
X23036319Y-37084569D01*
X23021615Y-37057641D01*
X23005023Y-37031823D01*
X23004131Y-37025622D01*
X23002834Y-37023246D01*
X23000000Y-36996888D01*
X23000000Y-36903112D01*
X23019685Y-36836073D01*
X23036319Y-36815431D01*
X23040485Y-36811265D01*
X23096503Y-36714239D01*
X23125500Y-36606020D01*
X23125500Y-36493984D01*
X23096503Y-36385765D01*
X23067770Y-36335999D01*
X23066339Y-36330098D01*
X23062364Y-36325511D01*
X23058199Y-36296546D01*
X23051298Y-36268100D01*
X23053283Y-36262361D01*
X23052420Y-36256353D01*
X23064576Y-36229733D01*
X23074150Y-36202073D01*
X23078922Y-36198319D01*
X23081445Y-36192797D01*
X23106065Y-36176974D01*
X23129072Y-36158882D01*
X23136422Y-36157465D01*
X23140223Y-36155023D01*
X23175158Y-36150000D01*
X23332489Y-36150000D01*
X23364582Y-36154225D01*
G37*
%TD.AperFunction*%
%TA.AperFunction,Conductor*%
G36*
X25400000Y-36248252D02*
G01*
X25361263Y-36209515D01*
X25265498Y-36154225D01*
X25264239Y-36153498D01*
X25264238Y-36153497D01*
X25264237Y-36153497D01*
X25251186Y-36150000D01*
X25400000Y-36150000D01*
X25400000Y-36248252D01*
G37*
%TD.AperFunction*%
%TD*%
%TA.AperFunction,Conductor*%
%TO.N,1V25_CORE*%
G36*
X18234685Y-43102550D02*
G01*
X18243647Y-43101262D01*
X18267687Y-43112240D01*
X18293039Y-43119685D01*
X18298966Y-43126525D01*
X18307203Y-43130287D01*
X18321492Y-43152521D01*
X18338794Y-43172489D01*
X18341081Y-43183003D01*
X18344977Y-43189065D01*
X18350000Y-43224000D01*
X18350000Y-43471991D01*
X18333388Y-43533990D01*
X18303497Y-43585762D01*
X18303497Y-43585763D01*
X18274500Y-43693982D01*
X18274500Y-43806017D01*
X18303497Y-43914239D01*
X18321863Y-43946048D01*
X18333386Y-43966007D01*
X18350000Y-44028007D01*
X18350000Y-55626000D01*
X18330315Y-55693039D01*
X18277511Y-55738794D01*
X18226000Y-55750000D01*
X14374000Y-55750000D01*
X14306961Y-55730315D01*
X14261206Y-55677511D01*
X14250000Y-55626000D01*
X14250000Y-45796291D01*
X14269685Y-45729252D01*
X14322489Y-45683497D01*
X14391647Y-45673553D01*
X14436001Y-45688904D01*
X14438733Y-45690481D01*
X14438737Y-45690485D01*
X14535763Y-45746503D01*
X14643982Y-45775500D01*
X14643984Y-45775500D01*
X14756016Y-45775500D01*
X14756018Y-45775500D01*
X14864237Y-45746503D01*
X14961263Y-45690485D01*
X15040485Y-45611263D01*
X15096503Y-45514237D01*
X15125500Y-45406018D01*
X15125500Y-45293982D01*
X15096503Y-45185763D01*
X15040485Y-45088737D01*
X14961263Y-45009515D01*
X14864237Y-44953497D01*
X14756018Y-44924500D01*
X14643982Y-44924500D01*
X14535763Y-44953497D01*
X14535760Y-44953498D01*
X14436000Y-45011095D01*
X14368100Y-45027568D01*
X14302073Y-45004715D01*
X14258882Y-44949794D01*
X14250000Y-44903708D01*
X14250000Y-43100000D01*
X16750000Y-43100000D01*
X18226000Y-43100000D01*
X18234685Y-43102550D01*
G37*
%TD.AperFunction*%
%TD*%
%TA.AperFunction,Conductor*%
%TO.N,1V25_CORE*%
G36*
X18350000Y-39300000D02*
G01*
X16750000Y-39300000D01*
X16750000Y-40024840D01*
X16730315Y-40091879D01*
X16677511Y-40137634D01*
X16608353Y-40147578D01*
X16564001Y-40132228D01*
X16514237Y-40103497D01*
X16406018Y-40074500D01*
X16293982Y-40074500D01*
X16185763Y-40103497D01*
X16185760Y-40103498D01*
X16088740Y-40159513D01*
X16088734Y-40159517D01*
X16009517Y-40238734D01*
X16009513Y-40238740D01*
X15953498Y-40335760D01*
X15953497Y-40335763D01*
X15924500Y-40443982D01*
X15924500Y-40556018D01*
X15953497Y-40664237D01*
X16009515Y-40761263D01*
X16088737Y-40840485D01*
X16185763Y-40896503D01*
X16293982Y-40925500D01*
X16293984Y-40925500D01*
X16406016Y-40925500D01*
X16406018Y-40925500D01*
X16514237Y-40896503D01*
X16564000Y-40867771D01*
X16631900Y-40851299D01*
X16697927Y-40874151D01*
X16741117Y-40929072D01*
X16750000Y-40975159D01*
X16750000Y-43100000D01*
X14250000Y-43100000D01*
X14250000Y-38224000D01*
X14269685Y-38156961D01*
X14322489Y-38111206D01*
X14374000Y-38100000D01*
X18350000Y-38100000D01*
X18350000Y-39300000D01*
G37*
%TD.AperFunction*%
%TD*%
%TA.AperFunction,Conductor*%
%TO.N,1V35_DDR*%
G36*
X40689157Y-21819685D02*
G01*
X40734912Y-21872489D01*
X40746117Y-21924494D01*
X40702382Y-32901767D01*
X40682431Y-32968728D01*
X40629445Y-33014272D01*
X40560247Y-33023940D01*
X40496808Y-32994662D01*
X40490702Y-32988954D01*
X40461265Y-32959517D01*
X40461263Y-32959515D01*
X40364237Y-32903497D01*
X40256018Y-32874500D01*
X40143982Y-32874500D01*
X40035763Y-32903497D01*
X40035760Y-32903498D01*
X39938740Y-32959513D01*
X39938734Y-32959517D01*
X39937181Y-32961071D01*
X39935548Y-32961962D01*
X39932291Y-32964462D01*
X39931901Y-32963954D01*
X39875858Y-32994556D01*
X39806166Y-32989572D01*
X39750233Y-32947700D01*
X39725816Y-32882236D01*
X39725500Y-32873390D01*
X39725500Y-32843984D01*
X39725500Y-32843982D01*
X39696503Y-32735763D01*
X39640485Y-32638737D01*
X39561263Y-32559515D01*
X39464237Y-32503497D01*
X39356018Y-32474500D01*
X39243982Y-32474500D01*
X39135763Y-32503497D01*
X39135760Y-32503498D01*
X39038740Y-32559513D01*
X39038734Y-32559517D01*
X38987681Y-32610571D01*
X38926358Y-32644056D01*
X38856666Y-32639072D01*
X38812319Y-32610571D01*
X38761265Y-32559517D01*
X38761263Y-32559515D01*
X38664237Y-32503497D01*
X38556018Y-32474500D01*
X38443982Y-32474500D01*
X38335763Y-32503497D01*
X38335760Y-32503498D01*
X38238740Y-32559513D01*
X38238734Y-32559517D01*
X38159517Y-32638734D01*
X38159513Y-32638740D01*
X38103498Y-32735760D01*
X38103497Y-32735763D01*
X38074500Y-32843982D01*
X38074500Y-32956018D01*
X38103497Y-33064237D01*
X38159515Y-33161263D01*
X38159517Y-33161265D01*
X38210571Y-33212319D01*
X38244056Y-33273642D01*
X38239072Y-33343334D01*
X38210571Y-33387681D01*
X38159517Y-33438734D01*
X38159513Y-33438740D01*
X38103498Y-33535760D01*
X38103497Y-33535763D01*
X38074500Y-33643982D01*
X38074500Y-33756018D01*
X38103497Y-33864237D01*
X38159515Y-33961263D01*
X38159517Y-33961265D01*
X38210571Y-34012319D01*
X38244056Y-34073642D01*
X38239072Y-34143334D01*
X38210571Y-34187681D01*
X38159517Y-34238734D01*
X38159513Y-34238740D01*
X38103498Y-34335760D01*
X38103497Y-34335763D01*
X38074500Y-34443982D01*
X38074500Y-34556018D01*
X38103497Y-34664237D01*
X38159515Y-34761263D01*
X38159517Y-34761265D01*
X38210571Y-34812319D01*
X38244056Y-34873642D01*
X38239072Y-34943334D01*
X38210571Y-34987681D01*
X38159517Y-35038734D01*
X38159513Y-35038740D01*
X38103498Y-35135760D01*
X38103497Y-35135763D01*
X38074500Y-35243982D01*
X38074500Y-35356018D01*
X38103497Y-35464237D01*
X38159515Y-35561263D01*
X38159517Y-35561265D01*
X38210571Y-35612319D01*
X38244056Y-35673642D01*
X38239072Y-35743334D01*
X38210571Y-35787681D01*
X38159517Y-35838734D01*
X38159513Y-35838740D01*
X38103498Y-35935760D01*
X38103498Y-35935761D01*
X38103497Y-35935763D01*
X38074500Y-36043982D01*
X38074500Y-36156018D01*
X38096665Y-36238737D01*
X38103497Y-36264236D01*
X38103498Y-36264239D01*
X38117640Y-36288734D01*
X38159515Y-36361263D01*
X38159517Y-36361265D01*
X38210571Y-36412319D01*
X38244056Y-36473642D01*
X38239072Y-36543334D01*
X38210571Y-36587681D01*
X38159517Y-36638734D01*
X38159513Y-36638740D01*
X38103498Y-36735760D01*
X38103497Y-36735763D01*
X38074500Y-36843982D01*
X38074500Y-36956018D01*
X38099898Y-37050803D01*
X38103497Y-37064236D01*
X38103498Y-37064239D01*
X38113401Y-37081391D01*
X38159515Y-37161263D01*
X38238737Y-37240485D01*
X38335763Y-37296503D01*
X38443982Y-37325500D01*
X38443984Y-37325500D01*
X38556016Y-37325500D01*
X38556018Y-37325500D01*
X38664237Y-37296503D01*
X38761263Y-37240485D01*
X38812319Y-37189429D01*
X38873642Y-37155944D01*
X38943334Y-37160928D01*
X38987681Y-37189429D01*
X39038737Y-37240485D01*
X39135763Y-37296503D01*
X39243982Y-37325500D01*
X39243984Y-37325500D01*
X39356016Y-37325500D01*
X39356018Y-37325500D01*
X39464237Y-37296503D01*
X39561263Y-37240485D01*
X39640485Y-37161263D01*
X39696503Y-37064237D01*
X39725500Y-36956018D01*
X39725500Y-36926610D01*
X39745185Y-36859571D01*
X39797989Y-36813816D01*
X39867147Y-36803872D01*
X39930703Y-36832897D01*
X39937181Y-36838929D01*
X39938737Y-36840485D01*
X40035763Y-36896503D01*
X40143982Y-36925500D01*
X40143984Y-36925500D01*
X40256016Y-36925500D01*
X40256018Y-36925500D01*
X40364237Y-36896503D01*
X40461263Y-36840485D01*
X40474713Y-36827034D01*
X40494355Y-36816308D01*
X40511331Y-36801717D01*
X40524426Y-36799887D01*
X40536032Y-36793550D01*
X40558359Y-36795146D01*
X40580529Y-36792049D01*
X40592535Y-36797589D01*
X40605724Y-36798533D01*
X40623643Y-36811947D01*
X40643968Y-36821327D01*
X40651072Y-36832479D01*
X40661658Y-36840403D01*
X40669481Y-36861376D01*
X40681508Y-36880255D01*
X40684493Y-36901621D01*
X40686077Y-36905867D01*
X40686392Y-36915210D01*
X40685453Y-37150994D01*
X40665502Y-37217954D01*
X40612516Y-37263499D01*
X40561454Y-37274500D01*
X40443982Y-37274500D01*
X40335763Y-37303497D01*
X40335760Y-37303498D01*
X40238740Y-37359513D01*
X40238734Y-37359517D01*
X40159517Y-37438734D01*
X40159513Y-37438740D01*
X40103498Y-37535760D01*
X40103497Y-37535763D01*
X40074500Y-37643982D01*
X40074500Y-37756018D01*
X40096382Y-37837681D01*
X40103497Y-37864236D01*
X40103497Y-37864237D01*
X40160518Y-37963001D01*
X40176990Y-38030901D01*
X40160518Y-38086999D01*
X40103497Y-38185762D01*
X40103497Y-38185763D01*
X40074500Y-38293982D01*
X40074500Y-38406018D01*
X40093169Y-38475690D01*
X40103497Y-38514236D01*
X40103498Y-38514239D01*
X40108927Y-38523642D01*
X40159515Y-38611263D01*
X40238737Y-38690485D01*
X40335763Y-38746503D01*
X40443982Y-38775500D01*
X40443984Y-38775500D01*
X40554486Y-38775500D01*
X40621525Y-38795185D01*
X40667280Y-38847989D01*
X40678485Y-38899994D01*
X40676985Y-39276370D01*
X40657033Y-39343331D01*
X40604048Y-39388875D01*
X40534850Y-39398543D01*
X40471410Y-39369265D01*
X40465305Y-39363557D01*
X40461265Y-39359517D01*
X40461263Y-39359515D01*
X40369726Y-39306666D01*
X40364239Y-39303498D01*
X40364238Y-39303497D01*
X40364237Y-39303497D01*
X40256018Y-39274500D01*
X40143982Y-39274500D01*
X40035763Y-39303497D01*
X40035760Y-39303498D01*
X39938740Y-39359513D01*
X39938734Y-39359517D01*
X39937181Y-39361071D01*
X39935548Y-39361962D01*
X39932291Y-39364462D01*
X39931901Y-39363954D01*
X39875858Y-39394556D01*
X39806166Y-39389572D01*
X39750233Y-39347700D01*
X39725816Y-39282236D01*
X39725500Y-39273390D01*
X39725500Y-39243984D01*
X39725500Y-39243982D01*
X39696503Y-39135763D01*
X39640485Y-39038737D01*
X39561263Y-38959515D01*
X39464237Y-38903497D01*
X39356018Y-38874500D01*
X39243982Y-38874500D01*
X39135763Y-38903497D01*
X39135760Y-38903498D01*
X39038740Y-38959513D01*
X39038734Y-38959517D01*
X38959517Y-39038734D01*
X38959513Y-39038740D01*
X38903498Y-39135760D01*
X38903497Y-39135763D01*
X38874500Y-39243982D01*
X38874500Y-39356018D01*
X38896665Y-39438737D01*
X38903497Y-39464236D01*
X38903498Y-39464239D01*
X38917640Y-39488734D01*
X38959515Y-39561263D01*
X39038737Y-39640485D01*
X39135763Y-39696503D01*
X39243982Y-39725500D01*
X39243984Y-39725500D01*
X39356016Y-39725500D01*
X39356018Y-39725500D01*
X39464237Y-39696503D01*
X39561263Y-39640485D01*
X39562819Y-39638929D01*
X39564451Y-39638037D01*
X39567709Y-39635538D01*
X39568098Y-39636045D01*
X39624142Y-39605444D01*
X39693834Y-39610428D01*
X39749767Y-39652300D01*
X39774184Y-39717764D01*
X39774500Y-39726610D01*
X39774500Y-39756018D01*
X39803497Y-39864237D01*
X39859515Y-39961263D01*
X39859517Y-39961265D01*
X39910571Y-40012319D01*
X39944056Y-40073642D01*
X39939072Y-40143334D01*
X39910571Y-40187681D01*
X39859517Y-40238734D01*
X39859513Y-40238740D01*
X39803498Y-40335760D01*
X39803497Y-40335763D01*
X39774500Y-40443982D01*
X39774500Y-40556018D01*
X39803497Y-40664237D01*
X39859515Y-40761263D01*
X39938737Y-40840485D01*
X40035763Y-40896503D01*
X40143982Y-40925500D01*
X40143984Y-40925500D01*
X40256016Y-40925500D01*
X40256018Y-40925500D01*
X40364237Y-40896503D01*
X40461263Y-40840485D01*
X40461271Y-40840476D01*
X40467709Y-40835538D01*
X40469108Y-40837361D01*
X40520016Y-40809554D01*
X40589708Y-40814527D01*
X40645648Y-40856390D01*
X40670076Y-40921851D01*
X40670392Y-40931210D01*
X40667462Y-41666847D01*
X40647511Y-41733807D01*
X40594525Y-41779352D01*
X40525327Y-41789020D01*
X40468861Y-41762960D01*
X40467709Y-41764462D01*
X40461267Y-41759519D01*
X40461263Y-41759515D01*
X40364237Y-41703497D01*
X40256018Y-41674500D01*
X40143982Y-41674500D01*
X40035763Y-41703497D01*
X40035760Y-41703498D01*
X39938740Y-41759513D01*
X39938734Y-41759517D01*
X39859517Y-41838734D01*
X39859513Y-41838740D01*
X39803498Y-41935760D01*
X39803497Y-41935763D01*
X39774500Y-42043982D01*
X39774500Y-42073390D01*
X39754815Y-42140429D01*
X39702011Y-42186184D01*
X39632853Y-42196128D01*
X39569297Y-42167103D01*
X39562819Y-42161071D01*
X39561265Y-42159517D01*
X39561263Y-42159515D01*
X39464237Y-42103497D01*
X39356018Y-42074500D01*
X39243982Y-42074500D01*
X39135763Y-42103497D01*
X39135760Y-42103498D01*
X39038740Y-42159513D01*
X39038734Y-42159517D01*
X38959517Y-42238734D01*
X38959513Y-42238740D01*
X38903498Y-42335760D01*
X38903497Y-42335763D01*
X38874500Y-42443982D01*
X38874500Y-42556018D01*
X38903497Y-42664237D01*
X38959515Y-42761263D01*
X39038737Y-42840485D01*
X39135763Y-42896503D01*
X39243982Y-42925500D01*
X39243984Y-42925500D01*
X39356016Y-42925500D01*
X39356018Y-42925500D01*
X39464237Y-42896503D01*
X39561263Y-42840485D01*
X39562819Y-42838929D01*
X39564451Y-42838037D01*
X39567709Y-42835538D01*
X39568098Y-42836045D01*
X39624142Y-42805444D01*
X39693834Y-42810428D01*
X39749767Y-42852300D01*
X39774184Y-42917764D01*
X39774500Y-42926610D01*
X39774500Y-42956018D01*
X39803497Y-43064237D01*
X39859515Y-43161263D01*
X39938737Y-43240485D01*
X40035763Y-43296503D01*
X40143982Y-43325500D01*
X40143984Y-43325500D01*
X40256016Y-43325500D01*
X40256018Y-43325500D01*
X40364237Y-43296503D01*
X40461263Y-43240485D01*
X40461273Y-43240475D01*
X40461297Y-43240457D01*
X40461340Y-43240440D01*
X40468302Y-43236421D01*
X40468928Y-43237505D01*
X40526462Y-43215253D01*
X40594909Y-43229280D01*
X40644906Y-43278086D01*
X40660798Y-43339315D01*
X40657929Y-44059470D01*
X40637978Y-44126431D01*
X40584992Y-44171975D01*
X40515794Y-44181643D01*
X40469254Y-44161930D01*
X40468302Y-44163579D01*
X40364239Y-44103498D01*
X40364238Y-44103497D01*
X40364237Y-44103497D01*
X40256018Y-44074500D01*
X40143982Y-44074500D01*
X40035763Y-44103497D01*
X40035760Y-44103498D01*
X39938740Y-44159513D01*
X39938734Y-44159517D01*
X39859517Y-44238734D01*
X39859513Y-44238740D01*
X39803498Y-44335760D01*
X39803497Y-44335763D01*
X39774500Y-44443982D01*
X39774500Y-44556018D01*
X39776595Y-44563834D01*
X39803497Y-44664236D01*
X39803498Y-44664239D01*
X39810212Y-44675868D01*
X39859515Y-44761263D01*
X39938737Y-44840485D01*
X40035763Y-44896503D01*
X40143982Y-44925500D01*
X40143984Y-44925500D01*
X40256016Y-44925500D01*
X40256018Y-44925500D01*
X40364237Y-44896503D01*
X40461263Y-44840485D01*
X40461263Y-44840484D01*
X40468302Y-44836421D01*
X40470129Y-44839586D01*
X40519362Y-44820221D01*
X40587888Y-44833857D01*
X40638164Y-44882376D01*
X40654404Y-44944222D01*
X40630173Y-51026494D01*
X40610222Y-51093455D01*
X40557236Y-51138999D01*
X40506174Y-51150000D01*
X25400000Y-51150000D01*
X25400000Y-46243982D01*
X27474500Y-46243982D01*
X27474500Y-46356018D01*
X27503497Y-46464237D01*
X27559515Y-46561263D01*
X27638737Y-46640485D01*
X27735763Y-46696503D01*
X27843982Y-46725500D01*
X27843984Y-46725500D01*
X27956016Y-46725500D01*
X27956018Y-46725500D01*
X28064237Y-46696503D01*
X28161263Y-46640485D01*
X28240485Y-46561263D01*
X28296503Y-46464237D01*
X28325500Y-46356018D01*
X28325500Y-46243982D01*
X28296503Y-46135763D01*
X28240485Y-46038737D01*
X28161263Y-45959515D01*
X28064237Y-45903497D01*
X27956018Y-45874500D01*
X27843982Y-45874500D01*
X27735763Y-45903497D01*
X27735760Y-45903498D01*
X27638740Y-45959513D01*
X27638734Y-45959517D01*
X27559517Y-46038734D01*
X27559513Y-46038740D01*
X27503498Y-46135760D01*
X27503497Y-46135763D01*
X27474500Y-46243982D01*
X25400000Y-46243982D01*
X25400000Y-45703108D01*
X25419685Y-45636069D01*
X25436319Y-45615427D01*
X25440485Y-45611261D01*
X25496503Y-45514235D01*
X25525500Y-45406016D01*
X25525500Y-45293980D01*
X25496503Y-45185761D01*
X25440485Y-45088735D01*
X25436319Y-45084569D01*
X25402834Y-45023246D01*
X25400000Y-44996888D01*
X25400000Y-44563832D01*
X32374500Y-44563832D01*
X32374500Y-44675868D01*
X32397382Y-44761263D01*
X32403497Y-44784086D01*
X32403498Y-44784089D01*
X32459515Y-44881113D01*
X32462067Y-44884439D01*
X32463347Y-44887750D01*
X32463579Y-44888152D01*
X32463516Y-44888188D01*
X32487261Y-44949608D01*
X32473222Y-45018053D01*
X32462067Y-45035411D01*
X32459515Y-45038736D01*
X32403498Y-45135760D01*
X32403497Y-45135763D01*
X32374500Y-45243982D01*
X32374500Y-45356018D01*
X32403497Y-45464237D01*
X32459515Y-45561263D01*
X32538737Y-45640485D01*
X32635763Y-45696503D01*
X32743982Y-45725500D01*
X32743984Y-45725500D01*
X32856016Y-45725500D01*
X32856018Y-45725500D01*
X32964237Y-45696503D01*
X33061263Y-45640485D01*
X33140485Y-45561263D01*
X33196503Y-45464237D01*
X33225500Y-45356018D01*
X33225500Y-45243982D01*
X33196503Y-45135763D01*
X33140485Y-45038737D01*
X33140484Y-45038736D01*
X33137937Y-45035417D01*
X33136657Y-45032106D01*
X33136421Y-45031698D01*
X33136484Y-45031661D01*
X33112739Y-44970250D01*
X33126773Y-44901804D01*
X33137937Y-44884433D01*
X33140481Y-44881116D01*
X33140485Y-44881113D01*
X33196503Y-44784087D01*
X33225500Y-44675868D01*
X33225500Y-44563832D01*
X33196503Y-44455613D01*
X33140485Y-44358587D01*
X33061263Y-44279365D01*
X32964237Y-44223347D01*
X32856018Y-44194350D01*
X32743982Y-44194350D01*
X32635763Y-44223347D01*
X32635760Y-44223348D01*
X32538740Y-44279363D01*
X32538734Y-44279367D01*
X32459517Y-44358584D01*
X32459513Y-44358590D01*
X32403498Y-44455610D01*
X32403497Y-44455613D01*
X32374500Y-44563832D01*
X25400000Y-44563832D01*
X25400000Y-44043982D01*
X37274500Y-44043982D01*
X37274500Y-44156018D01*
X37303497Y-44264237D01*
X37359515Y-44361263D01*
X37438737Y-44440485D01*
X37535763Y-44496503D01*
X37643982Y-44525500D01*
X37643984Y-44525500D01*
X37756016Y-44525500D01*
X37756018Y-44525500D01*
X37864237Y-44496503D01*
X37961263Y-44440485D01*
X38040485Y-44361263D01*
X38096503Y-44264237D01*
X38125500Y-44156018D01*
X38125500Y-44043982D01*
X38096503Y-43935763D01*
X38040485Y-43838737D01*
X37961263Y-43759515D01*
X37864237Y-43703497D01*
X37756018Y-43674500D01*
X37643982Y-43674500D01*
X37535763Y-43703497D01*
X37535760Y-43703498D01*
X37438740Y-43759513D01*
X37438734Y-43759517D01*
X37359517Y-43838734D01*
X37359513Y-43838740D01*
X37303498Y-43935760D01*
X37303497Y-43935763D01*
X37274500Y-44043982D01*
X25400000Y-44043982D01*
X25400000Y-43700000D01*
X24822259Y-43700000D01*
X24755220Y-43680315D01*
X24709465Y-43627511D01*
X24702486Y-43608099D01*
X24696501Y-43585763D01*
X24640483Y-43488737D01*
X24589429Y-43437683D01*
X24555944Y-43376360D01*
X24560928Y-43306668D01*
X24589429Y-43262321D01*
X24614245Y-43237505D01*
X24640487Y-43211263D01*
X24696505Y-43114237D01*
X24725502Y-43006018D01*
X24725502Y-42893982D01*
X24696505Y-42785763D01*
X24695308Y-42783690D01*
X24689052Y-42772853D01*
X24657949Y-42718982D01*
X28599500Y-42718982D01*
X28599500Y-42831018D01*
X28622744Y-42917764D01*
X28628497Y-42939236D01*
X28628498Y-42939239D01*
X28647169Y-42971579D01*
X28684515Y-43036263D01*
X28763737Y-43115485D01*
X28860763Y-43171503D01*
X28968982Y-43200500D01*
X28968984Y-43200500D01*
X29081016Y-43200500D01*
X29081018Y-43200500D01*
X29189237Y-43171503D01*
X29286263Y-43115485D01*
X29365485Y-43036263D01*
X29421503Y-42939237D01*
X29450500Y-42831018D01*
X29450500Y-42718982D01*
X29421503Y-42610763D01*
X29365485Y-42513737D01*
X29295730Y-42443982D01*
X33274500Y-42443982D01*
X33274500Y-42556018D01*
X33303497Y-42664237D01*
X33359515Y-42761263D01*
X33438737Y-42840485D01*
X33535763Y-42896503D01*
X33643982Y-42925500D01*
X33643984Y-42925500D01*
X33756016Y-42925500D01*
X33756018Y-42925500D01*
X33864237Y-42896503D01*
X33961263Y-42840485D01*
X34012319Y-42789429D01*
X34073642Y-42755944D01*
X34143334Y-42760928D01*
X34187681Y-42789429D01*
X34238737Y-42840485D01*
X34335763Y-42896503D01*
X34443982Y-42925500D01*
X34443984Y-42925500D01*
X34556016Y-42925500D01*
X34556018Y-42925500D01*
X34664237Y-42896503D01*
X34761263Y-42840485D01*
X34840485Y-42761263D01*
X34896503Y-42664237D01*
X34925500Y-42556018D01*
X34925500Y-42443982D01*
X34896503Y-42335763D01*
X34840485Y-42238737D01*
X34761263Y-42159515D01*
X34664237Y-42103497D01*
X34556018Y-42074500D01*
X34443982Y-42074500D01*
X34335763Y-42103497D01*
X34335760Y-42103498D01*
X34238740Y-42159513D01*
X34238734Y-42159517D01*
X34187681Y-42210571D01*
X34126358Y-42244056D01*
X34056666Y-42239072D01*
X34012319Y-42210571D01*
X33961265Y-42159517D01*
X33961263Y-42159515D01*
X33864237Y-42103497D01*
X33756018Y-42074500D01*
X33643982Y-42074500D01*
X33535763Y-42103497D01*
X33535760Y-42103498D01*
X33438740Y-42159513D01*
X33438734Y-42159517D01*
X33359517Y-42238734D01*
X33359513Y-42238740D01*
X33303498Y-42335760D01*
X33303497Y-42335763D01*
X33274500Y-42443982D01*
X29295730Y-42443982D01*
X29286263Y-42434515D01*
X29189237Y-42378497D01*
X29081018Y-42349500D01*
X28968982Y-42349500D01*
X28860763Y-42378497D01*
X28860760Y-42378498D01*
X28763740Y-42434513D01*
X28763734Y-42434517D01*
X28684517Y-42513734D01*
X28684513Y-42513740D01*
X28628498Y-42610760D01*
X28628497Y-42610763D01*
X28599500Y-42718982D01*
X24657949Y-42718982D01*
X24640489Y-42688740D01*
X24640484Y-42688734D01*
X24561267Y-42609517D01*
X24561265Y-42609515D01*
X24494685Y-42571075D01*
X24464241Y-42553498D01*
X24464240Y-42553497D01*
X24464239Y-42553497D01*
X24356020Y-42524500D01*
X24243984Y-42524500D01*
X24135765Y-42553497D01*
X24135764Y-42553497D01*
X24085999Y-42582229D01*
X24080097Y-42583660D01*
X24075511Y-42587635D01*
X24046542Y-42591800D01*
X24018099Y-42598700D01*
X24012363Y-42596714D01*
X24006353Y-42597579D01*
X23979727Y-42585419D01*
X23952072Y-42575848D01*
X23948319Y-42571075D01*
X23942797Y-42568554D01*
X23926973Y-42543931D01*
X23908882Y-42520926D01*
X23907465Y-42513576D01*
X23905023Y-42509776D01*
X23900000Y-42474841D01*
X23900000Y-42317510D01*
X23904225Y-42285417D01*
X23909900Y-42264237D01*
X23925500Y-42206018D01*
X23925500Y-42093982D01*
X23912103Y-42043982D01*
X23904225Y-42014580D01*
X23900000Y-41982488D01*
X23900000Y-40379500D01*
X23919685Y-40312461D01*
X23972489Y-40266706D01*
X24024000Y-40255500D01*
X24576801Y-40255500D01*
X24643840Y-40275185D01*
X24689595Y-40327989D01*
X24699539Y-40397147D01*
X24696576Y-40411591D01*
X24674500Y-40493982D01*
X24674500Y-40606018D01*
X24703497Y-40714237D01*
X24759515Y-40811263D01*
X24759517Y-40811265D01*
X24810571Y-40862319D01*
X24844056Y-40923642D01*
X24839072Y-40993334D01*
X24810571Y-41037681D01*
X24759517Y-41088734D01*
X24759513Y-41088740D01*
X24703498Y-41185760D01*
X24703497Y-41185763D01*
X24674500Y-41293982D01*
X24674500Y-41406018D01*
X24703497Y-41514237D01*
X24759515Y-41611263D01*
X24759517Y-41611265D01*
X24810571Y-41662319D01*
X24844056Y-41723642D01*
X24839072Y-41793334D01*
X24810571Y-41837681D01*
X24759517Y-41888734D01*
X24759513Y-41888740D01*
X24703498Y-41985760D01*
X24703498Y-41985761D01*
X24703497Y-41985763D01*
X24674500Y-42093982D01*
X24674500Y-42206018D01*
X24703497Y-42314237D01*
X24759515Y-42411263D01*
X24838737Y-42490485D01*
X24935763Y-42546503D01*
X25043982Y-42575500D01*
X25043984Y-42575500D01*
X25156016Y-42575500D01*
X25156018Y-42575500D01*
X25264237Y-42546503D01*
X25361263Y-42490485D01*
X25412320Y-42439428D01*
X25473643Y-42405943D01*
X25543335Y-42410927D01*
X25587682Y-42439428D01*
X25638737Y-42490483D01*
X25735763Y-42546501D01*
X25843982Y-42575498D01*
X25843984Y-42575498D01*
X25956016Y-42575498D01*
X25956018Y-42575498D01*
X26064237Y-42546501D01*
X26161263Y-42490483D01*
X26240485Y-42411261D01*
X26296503Y-42314235D01*
X26325500Y-42206016D01*
X26325500Y-42093980D01*
X26296503Y-41985761D01*
X26240485Y-41888735D01*
X26189430Y-41837680D01*
X26185091Y-41829734D01*
X26177844Y-41824309D01*
X26168609Y-41799549D01*
X26155945Y-41776357D01*
X26156590Y-41767327D01*
X26153427Y-41758845D01*
X26159043Y-41733024D01*
X26160929Y-41706665D01*
X26166747Y-41697611D01*
X26168279Y-41690572D01*
X26189430Y-41662318D01*
X26212319Y-41639429D01*
X26273642Y-41605944D01*
X26343334Y-41610928D01*
X26387681Y-41639429D01*
X26438737Y-41690485D01*
X26535763Y-41746503D01*
X26643982Y-41775500D01*
X26643984Y-41775500D01*
X26756016Y-41775500D01*
X26756018Y-41775500D01*
X26864237Y-41746503D01*
X26961263Y-41690485D01*
X27012319Y-41639429D01*
X27073642Y-41605944D01*
X27143334Y-41610928D01*
X27187681Y-41639429D01*
X27238737Y-41690485D01*
X27335763Y-41746503D01*
X27443982Y-41775500D01*
X27443984Y-41775500D01*
X27556016Y-41775500D01*
X27556018Y-41775500D01*
X27664237Y-41746503D01*
X27761263Y-41690485D01*
X27812319Y-41639429D01*
X27873642Y-41605944D01*
X27943334Y-41610928D01*
X27987681Y-41639429D01*
X28038737Y-41690485D01*
X28135763Y-41746503D01*
X28243982Y-41775500D01*
X28243984Y-41775500D01*
X28356016Y-41775500D01*
X28356018Y-41775500D01*
X28464237Y-41746503D01*
X28561263Y-41690485D01*
X28640485Y-41611263D01*
X28696503Y-41514237D01*
X28725500Y-41406018D01*
X28725500Y-41293982D01*
X28696503Y-41185763D01*
X28640485Y-41088737D01*
X28589429Y-41037681D01*
X28555944Y-40976358D01*
X28560928Y-40906666D01*
X28589429Y-40862319D01*
X28614387Y-40837361D01*
X28640485Y-40811263D01*
X28696503Y-40714237D01*
X28725500Y-40606018D01*
X28725500Y-40493982D01*
X28712103Y-40443982D01*
X32374500Y-40443982D01*
X32374500Y-40556018D01*
X32403497Y-40664237D01*
X32459515Y-40761263D01*
X32459517Y-40761265D01*
X32510571Y-40812319D01*
X32544056Y-40873642D01*
X32539072Y-40943334D01*
X32510571Y-40987681D01*
X32459517Y-41038734D01*
X32459513Y-41038740D01*
X32403498Y-41135760D01*
X32403497Y-41135763D01*
X32374500Y-41243982D01*
X32374500Y-41356018D01*
X32403497Y-41464237D01*
X32459515Y-41561263D01*
X32538737Y-41640485D01*
X32635763Y-41696503D01*
X32743982Y-41725500D01*
X32743984Y-41725500D01*
X32856016Y-41725500D01*
X32856018Y-41725500D01*
X32964237Y-41696503D01*
X33061263Y-41640485D01*
X33140485Y-41561263D01*
X33196503Y-41464237D01*
X33225500Y-41356018D01*
X33225500Y-41243982D01*
X33196503Y-41135763D01*
X33140485Y-41038737D01*
X33089429Y-40987681D01*
X33085493Y-40980474D01*
X33078855Y-40975643D01*
X33068995Y-40950259D01*
X33055944Y-40926358D01*
X33056529Y-40918167D01*
X33053557Y-40910514D01*
X33058985Y-40883831D01*
X33060928Y-40856666D01*
X33066208Y-40848326D01*
X33067092Y-40843982D01*
X34074500Y-40843982D01*
X34074500Y-40956018D01*
X34103497Y-41064237D01*
X34159515Y-41161263D01*
X34238737Y-41240485D01*
X34335763Y-41296503D01*
X34443982Y-41325500D01*
X34443984Y-41325500D01*
X34556016Y-41325500D01*
X34556018Y-41325500D01*
X34664237Y-41296503D01*
X34761263Y-41240485D01*
X34840485Y-41161263D01*
X34896503Y-41064237D01*
X34925500Y-40956018D01*
X34925500Y-40843982D01*
X34896503Y-40735763D01*
X34840485Y-40638737D01*
X34761263Y-40559515D01*
X34664237Y-40503497D01*
X34556018Y-40474500D01*
X34443982Y-40474500D01*
X34335763Y-40503497D01*
X34335760Y-40503498D01*
X34238740Y-40559513D01*
X34238734Y-40559517D01*
X34159517Y-40638734D01*
X34159513Y-40638740D01*
X34103498Y-40735760D01*
X34103497Y-40735763D01*
X34074500Y-40843982D01*
X33067092Y-40843982D01*
X33067486Y-40842047D01*
X33086468Y-40816329D01*
X33088254Y-40813510D01*
X33088838Y-40812909D01*
X33140485Y-40761263D01*
X33196503Y-40664237D01*
X33225500Y-40556018D01*
X33225500Y-40443982D01*
X33196503Y-40335763D01*
X33140485Y-40238737D01*
X33061263Y-40159515D01*
X32964237Y-40103497D01*
X32856018Y-40074500D01*
X32743982Y-40074500D01*
X32635763Y-40103497D01*
X32635760Y-40103498D01*
X32538740Y-40159513D01*
X32538734Y-40159517D01*
X32459517Y-40238734D01*
X32459513Y-40238740D01*
X32403498Y-40335760D01*
X32403497Y-40335763D01*
X32374500Y-40443982D01*
X28712103Y-40443982D01*
X28696503Y-40385763D01*
X28640485Y-40288737D01*
X28589429Y-40237681D01*
X28555944Y-40176358D01*
X28560928Y-40106666D01*
X28589429Y-40062319D01*
X28611263Y-40040485D01*
X28640485Y-40011263D01*
X28696503Y-39914237D01*
X28725500Y-39806018D01*
X28725500Y-39693982D01*
X28696503Y-39585763D01*
X28640485Y-39488737D01*
X28589429Y-39437681D01*
X28588268Y-39435555D01*
X28586187Y-39434315D01*
X28571611Y-39405051D01*
X28555944Y-39376358D01*
X28556116Y-39373941D01*
X28555037Y-39371773D01*
X28558595Y-39339285D01*
X28560928Y-39306666D01*
X28562462Y-39303977D01*
X28562644Y-39302319D01*
X28567827Y-39294578D01*
X28580714Y-39272001D01*
X28584813Y-39266934D01*
X28607765Y-39243982D01*
X33274500Y-39243982D01*
X33274500Y-39356018D01*
X33296665Y-39438737D01*
X33303497Y-39464236D01*
X33303498Y-39464239D01*
X33317640Y-39488734D01*
X33359515Y-39561263D01*
X33438737Y-39640485D01*
X33535763Y-39696503D01*
X33643982Y-39725500D01*
X33643984Y-39725500D01*
X33756016Y-39725500D01*
X33756018Y-39725500D01*
X33864237Y-39696503D01*
X33961263Y-39640485D01*
X34040485Y-39561263D01*
X34096503Y-39464237D01*
X34125500Y-39356018D01*
X34125500Y-39243982D01*
X34096503Y-39135763D01*
X34040485Y-39038737D01*
X33961263Y-38959515D01*
X33864237Y-38903497D01*
X33756018Y-38874500D01*
X33643982Y-38874500D01*
X33535763Y-38903497D01*
X33535760Y-38903498D01*
X33438740Y-38959513D01*
X33438734Y-38959517D01*
X33359517Y-39038734D01*
X33359513Y-39038740D01*
X33303498Y-39135760D01*
X33303497Y-39135763D01*
X33274500Y-39243982D01*
X28607765Y-39243982D01*
X28640485Y-39211263D01*
X28666951Y-39165422D01*
X28666953Y-39165420D01*
X28684077Y-39135760D01*
X28696503Y-39114237D01*
X28725500Y-39006018D01*
X28725500Y-38893982D01*
X28696503Y-38785763D01*
X28640485Y-38688737D01*
X28561263Y-38609515D01*
X28556710Y-38606886D01*
X28508496Y-38556321D01*
X28495272Y-38487714D01*
X28512780Y-38443982D01*
X32474500Y-38443982D01*
X32474500Y-38556018D01*
X32503497Y-38664237D01*
X32559515Y-38761263D01*
X32638737Y-38840485D01*
X32735763Y-38896503D01*
X32843982Y-38925500D01*
X32843984Y-38925500D01*
X32956016Y-38925500D01*
X32956018Y-38925500D01*
X33064237Y-38896503D01*
X33161263Y-38840485D01*
X33240485Y-38761263D01*
X33296503Y-38664237D01*
X33325500Y-38556018D01*
X33325500Y-38443982D01*
X33296503Y-38335763D01*
X33240485Y-38238737D01*
X33161263Y-38159515D01*
X33082839Y-38114237D01*
X33064239Y-38103498D01*
X33064238Y-38103497D01*
X33064237Y-38103497D01*
X32956018Y-38074500D01*
X32843982Y-38074500D01*
X32735763Y-38103497D01*
X32735760Y-38103498D01*
X32638740Y-38159513D01*
X32638734Y-38159517D01*
X32559517Y-38238734D01*
X32559513Y-38238740D01*
X32503498Y-38335760D01*
X32503497Y-38335763D01*
X32474500Y-38443982D01*
X28512780Y-38443982D01*
X28521240Y-38422849D01*
X28578154Y-38382320D01*
X28586773Y-38379684D01*
X28602469Y-38375500D01*
X28656018Y-38375500D01*
X28764237Y-38346503D01*
X28861263Y-38290485D01*
X28940485Y-38211263D01*
X28996503Y-38114237D01*
X29025500Y-38006018D01*
X29025500Y-37893982D01*
X28996503Y-37785763D01*
X28940485Y-37688737D01*
X28861263Y-37609515D01*
X28764237Y-37553497D01*
X28656018Y-37524500D01*
X28543982Y-37524500D01*
X28435763Y-37553497D01*
X28435760Y-37553498D01*
X28338740Y-37609513D01*
X28338734Y-37609517D01*
X28259517Y-37688734D01*
X28259513Y-37688740D01*
X28203498Y-37785760D01*
X28203497Y-37785763D01*
X28174500Y-37893982D01*
X28174500Y-38006018D01*
X28203497Y-38114237D01*
X28259515Y-38211263D01*
X28338737Y-38290485D01*
X28343289Y-38293113D01*
X28391504Y-38343679D01*
X28404728Y-38412286D01*
X28378760Y-38477151D01*
X28321846Y-38517680D01*
X28281289Y-38524500D01*
X28243982Y-38524500D01*
X28135763Y-38553497D01*
X28135760Y-38553498D01*
X28038740Y-38609513D01*
X28038734Y-38609517D01*
X28012681Y-38635571D01*
X28004735Y-38639909D01*
X27999310Y-38647157D01*
X27974550Y-38656391D01*
X27951358Y-38669056D01*
X27942328Y-38668410D01*
X27933846Y-38671574D01*
X27908025Y-38665957D01*
X27881666Y-38664072D01*
X27872612Y-38658253D01*
X27865573Y-38656722D01*
X27837319Y-38635571D01*
X27814429Y-38612681D01*
X27780944Y-38551358D01*
X27785928Y-38481666D01*
X27814429Y-38437319D01*
X27840485Y-38411263D01*
X27896503Y-38314237D01*
X27925500Y-38206018D01*
X27925500Y-38093982D01*
X27896503Y-37985763D01*
X27840485Y-37888737D01*
X27761263Y-37809515D01*
X27673502Y-37758846D01*
X27664239Y-37753498D01*
X27664238Y-37753497D01*
X27664237Y-37753497D01*
X27556018Y-37724500D01*
X27443982Y-37724500D01*
X27335763Y-37753497D01*
X27335760Y-37753498D01*
X27238740Y-37809513D01*
X27238734Y-37809517D01*
X27187681Y-37860571D01*
X27179735Y-37864909D01*
X27174310Y-37872157D01*
X27149550Y-37881391D01*
X27126358Y-37894056D01*
X27117328Y-37893410D01*
X27108846Y-37896574D01*
X27083025Y-37890957D01*
X27056666Y-37889072D01*
X27047612Y-37883253D01*
X27040573Y-37881722D01*
X27012319Y-37860571D01*
X26989429Y-37837681D01*
X26955944Y-37776358D01*
X26960928Y-37706666D01*
X26989429Y-37662319D01*
X27012319Y-37639429D01*
X27040485Y-37611263D01*
X27096503Y-37514237D01*
X27125500Y-37406018D01*
X27125500Y-37293982D01*
X27096503Y-37185763D01*
X27040485Y-37088737D01*
X26961263Y-37009515D01*
X26887580Y-36966974D01*
X26864239Y-36953498D01*
X26864238Y-36953497D01*
X26864237Y-36953497D01*
X26756018Y-36924500D01*
X26643982Y-36924500D01*
X26535763Y-36953497D01*
X26535760Y-36953498D01*
X26438740Y-37009513D01*
X26438734Y-37009517D01*
X26387681Y-37060571D01*
X26326358Y-37094056D01*
X26256666Y-37089072D01*
X26212319Y-37060571D01*
X26161265Y-37009517D01*
X26161263Y-37009515D01*
X26087580Y-36966974D01*
X26064239Y-36953498D01*
X26064238Y-36953497D01*
X26064237Y-36953497D01*
X25956018Y-36924500D01*
X25843982Y-36924500D01*
X25735763Y-36953497D01*
X25735760Y-36953498D01*
X25638740Y-37009513D01*
X25638734Y-37009517D01*
X25587681Y-37060571D01*
X25579735Y-37064909D01*
X25574310Y-37072157D01*
X25549550Y-37081391D01*
X25526358Y-37094056D01*
X25517328Y-37093410D01*
X25508846Y-37096574D01*
X25483025Y-37090957D01*
X25456666Y-37089072D01*
X25447612Y-37083253D01*
X25440573Y-37081722D01*
X25412319Y-37060571D01*
X25389429Y-37037681D01*
X25355944Y-36976358D01*
X25360928Y-36906666D01*
X25389429Y-36862319D01*
X25413711Y-36838037D01*
X25440485Y-36811263D01*
X25496503Y-36714237D01*
X25525500Y-36606018D01*
X25525500Y-36493982D01*
X25496503Y-36385763D01*
X25440485Y-36288737D01*
X25395730Y-36243982D01*
X27924500Y-36243982D01*
X27924500Y-36356018D01*
X27953497Y-36464237D01*
X28009515Y-36561263D01*
X28088737Y-36640485D01*
X28185763Y-36696503D01*
X28293982Y-36725500D01*
X28293984Y-36725500D01*
X28406015Y-36725500D01*
X28406018Y-36725500D01*
X28447466Y-36714394D01*
X28517313Y-36716057D01*
X28575176Y-36755219D01*
X28586944Y-36772169D01*
X28609515Y-36811263D01*
X28688737Y-36890485D01*
X28785763Y-36946503D01*
X28893982Y-36975500D01*
X28893984Y-36975500D01*
X29006016Y-36975500D01*
X29006018Y-36975500D01*
X29114237Y-36946503D01*
X29114572Y-36946309D01*
X29114890Y-36946232D01*
X29121747Y-36943392D01*
X29122189Y-36944460D01*
X29182468Y-36929831D01*
X29248497Y-36952676D01*
X29264261Y-36966009D01*
X29338737Y-37040485D01*
X29435763Y-37096503D01*
X29543982Y-37125500D01*
X29543984Y-37125500D01*
X29656016Y-37125500D01*
X29656018Y-37125500D01*
X29764237Y-37096503D01*
X29861263Y-37040485D01*
X29940485Y-36961263D01*
X29996503Y-36864237D01*
X30025500Y-36756018D01*
X30025500Y-36643982D01*
X29996503Y-36535763D01*
X29940485Y-36438737D01*
X29861263Y-36359515D01*
X29822169Y-36336944D01*
X29773953Y-36286377D01*
X29760731Y-36217770D01*
X29764392Y-36197473D01*
X29775500Y-36156018D01*
X29775500Y-36043982D01*
X29746503Y-35935763D01*
X29690485Y-35838737D01*
X29611263Y-35759515D01*
X29514237Y-35703497D01*
X29406018Y-35674500D01*
X29293982Y-35674500D01*
X29185763Y-35703497D01*
X29185760Y-35703498D01*
X29088740Y-35759513D01*
X29088734Y-35759517D01*
X29009517Y-35838734D01*
X29009513Y-35838740D01*
X28953498Y-35935760D01*
X28953497Y-35935761D01*
X28928761Y-36028081D01*
X28892396Y-36087741D01*
X28829549Y-36118270D01*
X28760173Y-36109975D01*
X28706295Y-36065490D01*
X28701599Y-36057987D01*
X28693513Y-36043982D01*
X28690485Y-36038737D01*
X28611263Y-35959515D01*
X28514237Y-35903497D01*
X28406018Y-35874500D01*
X28293982Y-35874500D01*
X28185763Y-35903497D01*
X28185760Y-35903498D01*
X28088740Y-35959513D01*
X28088734Y-35959517D01*
X28009517Y-36038734D01*
X28009513Y-36038740D01*
X27953498Y-36135760D01*
X27953497Y-36135763D01*
X27924500Y-36243982D01*
X25395730Y-36243982D01*
X25361263Y-36209515D01*
X25274664Y-36159517D01*
X25264239Y-36153498D01*
X25264238Y-36153497D01*
X25264237Y-36153497D01*
X25156018Y-36124500D01*
X25043982Y-36124500D01*
X24935763Y-36153497D01*
X24935760Y-36153498D01*
X24838740Y-36209513D01*
X24838734Y-36209517D01*
X24759517Y-36288734D01*
X24759513Y-36288740D01*
X24703498Y-36385760D01*
X24703497Y-36385763D01*
X24674500Y-36493982D01*
X24674500Y-36606018D01*
X24690100Y-36664236D01*
X24703497Y-36714236D01*
X24703498Y-36714239D01*
X24704548Y-36716057D01*
X24759515Y-36811263D01*
X24759517Y-36811265D01*
X24810571Y-36862319D01*
X24814909Y-36870264D01*
X24822157Y-36875690D01*
X24831391Y-36900449D01*
X24844056Y-36923642D01*
X24843410Y-36932671D01*
X24846574Y-36941154D01*
X24840957Y-36966974D01*
X24839072Y-36993334D01*
X24833253Y-37002387D01*
X24831722Y-37009427D01*
X24810571Y-37037681D01*
X24787681Y-37060571D01*
X24726358Y-37094056D01*
X24656666Y-37089072D01*
X24612319Y-37060571D01*
X24561265Y-37009517D01*
X24561263Y-37009515D01*
X24487580Y-36966974D01*
X24464239Y-36953498D01*
X24464238Y-36953497D01*
X24464237Y-36953497D01*
X24356018Y-36924500D01*
X24243982Y-36924500D01*
X24135763Y-36953497D01*
X24135760Y-36953498D01*
X24038740Y-37009513D01*
X24038734Y-37009517D01*
X23959517Y-37088734D01*
X23959513Y-37088740D01*
X23903498Y-37185760D01*
X23903497Y-37185761D01*
X23900000Y-37198813D01*
X23900000Y-36150000D01*
X23900000Y-35917510D01*
X23904225Y-35885417D01*
X23907150Y-35874500D01*
X23925500Y-35806018D01*
X23925500Y-35693982D01*
X23904225Y-35614582D01*
X23900000Y-35582489D01*
X23900000Y-35117510D01*
X23904225Y-35085417D01*
X23925500Y-35006018D01*
X23925500Y-34893982D01*
X23904225Y-34814582D01*
X23900000Y-34782489D01*
X23900000Y-33243982D01*
X32374500Y-33243982D01*
X32374500Y-33356018D01*
X32403497Y-33464237D01*
X32459515Y-33561263D01*
X32538737Y-33640485D01*
X32635763Y-33696503D01*
X32743982Y-33725500D01*
X32743984Y-33725500D01*
X32856016Y-33725500D01*
X32856018Y-33725500D01*
X32964237Y-33696503D01*
X33061263Y-33640485D01*
X33062819Y-33638929D01*
X33064451Y-33638037D01*
X33067709Y-33635538D01*
X33068098Y-33636045D01*
X33124142Y-33605444D01*
X33193834Y-33610428D01*
X33249767Y-33652300D01*
X33274184Y-33717764D01*
X33274500Y-33726610D01*
X33274500Y-33756018D01*
X33303497Y-33864237D01*
X33359515Y-33961263D01*
X33359517Y-33961265D01*
X33410571Y-34012319D01*
X33444056Y-34073642D01*
X33439072Y-34143334D01*
X33410571Y-34187681D01*
X33359517Y-34238734D01*
X33359513Y-34238740D01*
X33303498Y-34335760D01*
X33303497Y-34335763D01*
X33274500Y-34443982D01*
X33274500Y-34473390D01*
X33254815Y-34540429D01*
X33202011Y-34586184D01*
X33132853Y-34596128D01*
X33069297Y-34567103D01*
X33062819Y-34561071D01*
X33061265Y-34559517D01*
X33061263Y-34559515D01*
X32964237Y-34503497D01*
X32856018Y-34474500D01*
X32743982Y-34474500D01*
X32635763Y-34503497D01*
X32635760Y-34503498D01*
X32538740Y-34559513D01*
X32538734Y-34559517D01*
X32459517Y-34638734D01*
X32459513Y-34638740D01*
X32403498Y-34735760D01*
X32403497Y-34735763D01*
X32374500Y-34843982D01*
X32374500Y-34956018D01*
X32403497Y-35064237D01*
X32459515Y-35161263D01*
X32538737Y-35240485D01*
X32635763Y-35296503D01*
X32743982Y-35325500D01*
X32743984Y-35325500D01*
X32856016Y-35325500D01*
X32856018Y-35325500D01*
X32964237Y-35296503D01*
X33061263Y-35240485D01*
X33062819Y-35238929D01*
X33064451Y-35238037D01*
X33067709Y-35235538D01*
X33068098Y-35236045D01*
X33124142Y-35205444D01*
X33193834Y-35210428D01*
X33249767Y-35252300D01*
X33274184Y-35317764D01*
X33274500Y-35326610D01*
X33274500Y-35356018D01*
X33303497Y-35464237D01*
X33359515Y-35561263D01*
X33359517Y-35561265D01*
X33410571Y-35612319D01*
X33444056Y-35673642D01*
X33439072Y-35743334D01*
X33410571Y-35787681D01*
X33359517Y-35838734D01*
X33359513Y-35838740D01*
X33303498Y-35935760D01*
X33303497Y-35935763D01*
X33274500Y-36043982D01*
X33274500Y-36073390D01*
X33254815Y-36140429D01*
X33202011Y-36186184D01*
X33132853Y-36196128D01*
X33069297Y-36167103D01*
X33062819Y-36161071D01*
X33061265Y-36159517D01*
X33061263Y-36159515D01*
X32964237Y-36103497D01*
X32856018Y-36074500D01*
X32743982Y-36074500D01*
X32635763Y-36103497D01*
X32635760Y-36103498D01*
X32538740Y-36159513D01*
X32538734Y-36159517D01*
X32459517Y-36238734D01*
X32459513Y-36238740D01*
X32403498Y-36335760D01*
X32403497Y-36335763D01*
X32374500Y-36443982D01*
X32374500Y-36556018D01*
X32403497Y-36664237D01*
X32459515Y-36761263D01*
X32538737Y-36840485D01*
X32635763Y-36896503D01*
X32743982Y-36925500D01*
X32743984Y-36925500D01*
X32856016Y-36925500D01*
X32856018Y-36925500D01*
X32964237Y-36896503D01*
X33061263Y-36840485D01*
X33062819Y-36838929D01*
X33064451Y-36838037D01*
X33067709Y-36835538D01*
X33068098Y-36836045D01*
X33124142Y-36805444D01*
X33193834Y-36810428D01*
X33249767Y-36852300D01*
X33274184Y-36917764D01*
X33274500Y-36926610D01*
X33274500Y-36956018D01*
X33299898Y-37050803D01*
X33303497Y-37064236D01*
X33303498Y-37064239D01*
X33313401Y-37081391D01*
X33359515Y-37161263D01*
X33359517Y-37161265D01*
X33410571Y-37212319D01*
X33444056Y-37273642D01*
X33439072Y-37343334D01*
X33410571Y-37387681D01*
X33359517Y-37438734D01*
X33359513Y-37438740D01*
X33303498Y-37535760D01*
X33303497Y-37535763D01*
X33274500Y-37643982D01*
X33274500Y-37756018D01*
X33296382Y-37837681D01*
X33303497Y-37864236D01*
X33303498Y-37864239D01*
X33313401Y-37881391D01*
X33359515Y-37961263D01*
X33438737Y-38040485D01*
X33535763Y-38096503D01*
X33643982Y-38125500D01*
X33643984Y-38125500D01*
X33756016Y-38125500D01*
X33756018Y-38125500D01*
X33864237Y-38096503D01*
X33961263Y-38040485D01*
X34012319Y-37989429D01*
X34020264Y-37985090D01*
X34025690Y-37977843D01*
X34050449Y-37968608D01*
X34073642Y-37955944D01*
X34082671Y-37956589D01*
X34091154Y-37953426D01*
X34116974Y-37959042D01*
X34143334Y-37960928D01*
X34152387Y-37966746D01*
X34159427Y-37968278D01*
X34187681Y-37989429D01*
X34210571Y-38012319D01*
X34244056Y-38073642D01*
X34239072Y-38143334D01*
X34210571Y-38187681D01*
X34159517Y-38238734D01*
X34159513Y-38238740D01*
X34103498Y-38335760D01*
X34103497Y-38335763D01*
X34074500Y-38443982D01*
X34074500Y-38556018D01*
X34103497Y-38664237D01*
X34159515Y-38761263D01*
X34238737Y-38840485D01*
X34335763Y-38896503D01*
X34443982Y-38925500D01*
X34443984Y-38925500D01*
X34556016Y-38925500D01*
X34556018Y-38925500D01*
X34664237Y-38896503D01*
X34761263Y-38840485D01*
X34840485Y-38761263D01*
X34896503Y-38664237D01*
X34925500Y-38556018D01*
X34925500Y-38443982D01*
X38074500Y-38443982D01*
X38074500Y-38556018D01*
X38103497Y-38664237D01*
X38159515Y-38761263D01*
X38238737Y-38840485D01*
X38335763Y-38896503D01*
X38443982Y-38925500D01*
X38443984Y-38925500D01*
X38556016Y-38925500D01*
X38556018Y-38925500D01*
X38664237Y-38896503D01*
X38761263Y-38840485D01*
X38840485Y-38761263D01*
X38896503Y-38664237D01*
X38925500Y-38556018D01*
X38925500Y-38443982D01*
X38896503Y-38335763D01*
X38840485Y-38238737D01*
X38761263Y-38159515D01*
X38682839Y-38114237D01*
X38664239Y-38103498D01*
X38664238Y-38103497D01*
X38664237Y-38103497D01*
X38556018Y-38074500D01*
X38443982Y-38074500D01*
X38335763Y-38103497D01*
X38335760Y-38103498D01*
X38238740Y-38159513D01*
X38238734Y-38159517D01*
X38159517Y-38238734D01*
X38159513Y-38238740D01*
X38103498Y-38335760D01*
X38103497Y-38335763D01*
X38074500Y-38443982D01*
X34925500Y-38443982D01*
X34896503Y-38335763D01*
X34840485Y-38238737D01*
X34789429Y-38187681D01*
X34755944Y-38126358D01*
X34760928Y-38056666D01*
X34789429Y-38012319D01*
X34812319Y-37989429D01*
X34840485Y-37961263D01*
X34896503Y-37864237D01*
X34925500Y-37756018D01*
X34925500Y-37643982D01*
X34896503Y-37535763D01*
X34840485Y-37438737D01*
X34789429Y-37387681D01*
X34755944Y-37326358D01*
X34760928Y-37256666D01*
X34789429Y-37212319D01*
X34812319Y-37189429D01*
X34840485Y-37161263D01*
X34896503Y-37064237D01*
X34925500Y-36956018D01*
X34925500Y-36843982D01*
X34896503Y-36735763D01*
X34840485Y-36638737D01*
X34789429Y-36587681D01*
X34755944Y-36526358D01*
X34760928Y-36456666D01*
X34789429Y-36412319D01*
X34840485Y-36361263D01*
X34896503Y-36264237D01*
X34925500Y-36156018D01*
X34925500Y-36043982D01*
X34896503Y-35935763D01*
X34840485Y-35838737D01*
X34789429Y-35787681D01*
X34755944Y-35726358D01*
X34760928Y-35656666D01*
X34789429Y-35612319D01*
X34840485Y-35561263D01*
X34896503Y-35464237D01*
X34925500Y-35356018D01*
X34925500Y-35243982D01*
X34896503Y-35135763D01*
X34840485Y-35038737D01*
X34789429Y-34987681D01*
X34755944Y-34926358D01*
X34760928Y-34856666D01*
X34789429Y-34812319D01*
X34840485Y-34761263D01*
X34896503Y-34664237D01*
X34925500Y-34556018D01*
X34925500Y-34443982D01*
X34896503Y-34335763D01*
X34840485Y-34238737D01*
X34789429Y-34187681D01*
X34785090Y-34179735D01*
X34777843Y-34174310D01*
X34768608Y-34149550D01*
X34755944Y-34126358D01*
X34756589Y-34117328D01*
X34753426Y-34108846D01*
X34759042Y-34083025D01*
X34760928Y-34056666D01*
X34766746Y-34047612D01*
X34768278Y-34040573D01*
X34789429Y-34012319D01*
X34812319Y-33989429D01*
X34873642Y-33955944D01*
X34943334Y-33960928D01*
X34987681Y-33989429D01*
X35038737Y-34040485D01*
X35135763Y-34096503D01*
X35243982Y-34125500D01*
X35243984Y-34125500D01*
X35356016Y-34125500D01*
X35356018Y-34125500D01*
X35464237Y-34096503D01*
X35561263Y-34040485D01*
X35640485Y-33961263D01*
X35696503Y-33864237D01*
X35725500Y-33756018D01*
X35725500Y-33643982D01*
X35696503Y-33535763D01*
X35640485Y-33438737D01*
X35561263Y-33359515D01*
X35464237Y-33303497D01*
X35356018Y-33274500D01*
X35243982Y-33274500D01*
X35135763Y-33303497D01*
X35135760Y-33303498D01*
X35038740Y-33359513D01*
X35038734Y-33359517D01*
X34987681Y-33410571D01*
X34926358Y-33444056D01*
X34856666Y-33439072D01*
X34812319Y-33410571D01*
X34761265Y-33359517D01*
X34761263Y-33359515D01*
X34664237Y-33303497D01*
X34556018Y-33274500D01*
X34443982Y-33274500D01*
X34335763Y-33303497D01*
X34335760Y-33303498D01*
X34238740Y-33359513D01*
X34238734Y-33359517D01*
X34187681Y-33410571D01*
X34126358Y-33444056D01*
X34056666Y-33439072D01*
X34012319Y-33410571D01*
X33961265Y-33359517D01*
X33961263Y-33359515D01*
X33864237Y-33303497D01*
X33756018Y-33274500D01*
X33643982Y-33274500D01*
X33535763Y-33303497D01*
X33535760Y-33303498D01*
X33438740Y-33359513D01*
X33438734Y-33359517D01*
X33437181Y-33361071D01*
X33435548Y-33361962D01*
X33432291Y-33364462D01*
X33431901Y-33363954D01*
X33375858Y-33394556D01*
X33306166Y-33389572D01*
X33250233Y-33347700D01*
X33225816Y-33282236D01*
X33225500Y-33273390D01*
X33225500Y-33243984D01*
X33225500Y-33243982D01*
X33196503Y-33135763D01*
X33140485Y-33038737D01*
X33061263Y-32959515D01*
X32964237Y-32903497D01*
X32856018Y-32874500D01*
X32743982Y-32874500D01*
X32635763Y-32903497D01*
X32635760Y-32903498D01*
X32538740Y-32959513D01*
X32538734Y-32959517D01*
X32459517Y-33038734D01*
X32459513Y-33038740D01*
X32403498Y-33135760D01*
X32403497Y-33135763D01*
X32374500Y-33243982D01*
X23900000Y-33243982D01*
X23900000Y-32493982D01*
X27874500Y-32493982D01*
X27874500Y-32606018D01*
X27903497Y-32714237D01*
X27959515Y-32811263D01*
X28038737Y-32890485D01*
X28135763Y-32946503D01*
X28243982Y-32975500D01*
X28243984Y-32975500D01*
X28356016Y-32975500D01*
X28356018Y-32975500D01*
X28464237Y-32946503D01*
X28561263Y-32890485D01*
X28640485Y-32811263D01*
X28696503Y-32714237D01*
X28725500Y-32606018D01*
X28725500Y-32493982D01*
X28696503Y-32385763D01*
X28640485Y-32288737D01*
X28561263Y-32209515D01*
X28464237Y-32153497D01*
X28356018Y-32124500D01*
X28243982Y-32124500D01*
X28135763Y-32153497D01*
X28135760Y-32153498D01*
X28038740Y-32209513D01*
X28038734Y-32209517D01*
X27959517Y-32288734D01*
X27959513Y-32288740D01*
X27903498Y-32385760D01*
X27903497Y-32385763D01*
X27874500Y-32493982D01*
X23900000Y-32493982D01*
X23900000Y-21924000D01*
X23919685Y-21856961D01*
X23972489Y-21811206D01*
X24024000Y-21800000D01*
X40622118Y-21800000D01*
X40689157Y-21819685D01*
G37*
%TD.AperFunction*%
%TA.AperFunction,Conductor*%
G36*
X25516974Y-37609042D02*
G01*
X25543334Y-37610928D01*
X25552387Y-37616746D01*
X25559427Y-37618278D01*
X25587681Y-37639429D01*
X25610571Y-37662319D01*
X25644056Y-37723642D01*
X25639072Y-37793334D01*
X25610571Y-37837681D01*
X25559517Y-37888734D01*
X25559513Y-37888740D01*
X25503498Y-37985760D01*
X25503498Y-37985761D01*
X25503497Y-37985763D01*
X25474500Y-38093982D01*
X25474500Y-38206018D01*
X25503497Y-38314237D01*
X25559515Y-38411263D01*
X25559517Y-38411265D01*
X25610571Y-38462319D01*
X25614909Y-38470264D01*
X25622157Y-38475690D01*
X25631391Y-38500449D01*
X25644056Y-38523642D01*
X25643410Y-38532671D01*
X25646574Y-38541154D01*
X25640957Y-38566974D01*
X25639072Y-38593334D01*
X25633253Y-38602387D01*
X25631722Y-38609427D01*
X25610571Y-38637681D01*
X25587681Y-38660571D01*
X25526358Y-38694056D01*
X25456666Y-38689072D01*
X25412319Y-38660571D01*
X25361265Y-38609517D01*
X25361263Y-38609515D01*
X25287580Y-38566974D01*
X25264239Y-38553498D01*
X25264238Y-38553497D01*
X25264237Y-38553497D01*
X25156018Y-38524500D01*
X25043982Y-38524500D01*
X24935763Y-38553497D01*
X24935760Y-38553498D01*
X24838740Y-38609513D01*
X24838734Y-38609517D01*
X24759517Y-38688734D01*
X24759513Y-38688740D01*
X24703498Y-38785760D01*
X24703497Y-38785763D01*
X24674500Y-38893982D01*
X24674500Y-39006018D01*
X24683178Y-39038408D01*
X24681516Y-39108256D01*
X24642354Y-39166119D01*
X24578125Y-39193623D01*
X24563404Y-39194500D01*
X23900000Y-39194500D01*
X23900000Y-38301185D01*
X23903497Y-38314237D01*
X23959515Y-38411263D01*
X24038737Y-38490485D01*
X24135763Y-38546503D01*
X24243982Y-38575500D01*
X24243984Y-38575500D01*
X24356016Y-38575500D01*
X24356018Y-38575500D01*
X24464237Y-38546503D01*
X24561263Y-38490485D01*
X24640485Y-38411263D01*
X24696503Y-38314237D01*
X24725500Y-38206018D01*
X24725500Y-38093982D01*
X24696503Y-37985763D01*
X24640485Y-37888737D01*
X24589429Y-37837681D01*
X24585090Y-37829735D01*
X24577843Y-37824310D01*
X24568608Y-37799550D01*
X24555944Y-37776358D01*
X24556589Y-37767328D01*
X24553426Y-37758846D01*
X24559042Y-37733025D01*
X24560928Y-37706666D01*
X24566746Y-37697612D01*
X24568278Y-37690573D01*
X24589429Y-37662319D01*
X24612319Y-37639429D01*
X24673642Y-37605944D01*
X24743334Y-37610928D01*
X24787681Y-37639429D01*
X24838737Y-37690485D01*
X24935763Y-37746503D01*
X25043982Y-37775500D01*
X25043984Y-37775500D01*
X25156016Y-37775500D01*
X25156018Y-37775500D01*
X25264237Y-37746503D01*
X25361263Y-37690485D01*
X25412319Y-37639429D01*
X25420264Y-37635090D01*
X25425690Y-37627843D01*
X25450449Y-37618608D01*
X25473642Y-37605944D01*
X25482671Y-37606589D01*
X25491154Y-37603426D01*
X25516974Y-37609042D01*
G37*
%TD.AperFunction*%
%TA.AperFunction,Conductor*%
G36*
X23903497Y-37514237D02*
G01*
X23959515Y-37611263D01*
X23959517Y-37611265D01*
X24010571Y-37662319D01*
X24044056Y-37723642D01*
X24039072Y-37793334D01*
X24010571Y-37837681D01*
X23959517Y-37888734D01*
X23959513Y-37888740D01*
X23903498Y-37985760D01*
X23903497Y-37985761D01*
X23900000Y-37998813D01*
X23900000Y-37501185D01*
X23903497Y-37514237D01*
G37*
%TD.AperFunction*%
%TA.AperFunction,Conductor*%
G36*
X40612124Y-35192133D02*
G01*
X40668059Y-35234004D01*
X40692477Y-35299468D01*
X40692792Y-35308810D01*
X40689683Y-36089068D01*
X40669731Y-36156029D01*
X40616746Y-36201573D01*
X40547548Y-36211241D01*
X40484109Y-36181963D01*
X40478003Y-36176255D01*
X40461265Y-36159517D01*
X40461263Y-36159515D01*
X40364237Y-36103497D01*
X40256018Y-36074500D01*
X40143982Y-36074500D01*
X40035763Y-36103497D01*
X40035760Y-36103498D01*
X39938740Y-36159513D01*
X39938734Y-36159517D01*
X39937181Y-36161071D01*
X39935548Y-36161962D01*
X39932291Y-36164462D01*
X39931901Y-36163954D01*
X39875858Y-36194556D01*
X39806166Y-36189572D01*
X39750233Y-36147700D01*
X39725816Y-36082236D01*
X39725500Y-36073390D01*
X39725500Y-36043984D01*
X39725500Y-36043982D01*
X39696503Y-35935763D01*
X39640485Y-35838737D01*
X39589429Y-35787681D01*
X39555944Y-35726358D01*
X39560928Y-35656666D01*
X39589429Y-35612319D01*
X39640485Y-35561263D01*
X39696503Y-35464237D01*
X39725500Y-35356018D01*
X39725500Y-35326610D01*
X39745185Y-35259571D01*
X39797989Y-35213816D01*
X39867147Y-35203872D01*
X39930703Y-35232897D01*
X39937181Y-35238929D01*
X39938737Y-35240485D01*
X40035763Y-35296503D01*
X40143982Y-35325500D01*
X40143984Y-35325500D01*
X40256016Y-35325500D01*
X40256018Y-35325500D01*
X40364237Y-35296503D01*
X40461263Y-35240485D01*
X40481114Y-35220633D01*
X40542433Y-35187150D01*
X40612124Y-35192133D01*
G37*
%TD.AperFunction*%
%TA.AperFunction,Conductor*%
G36*
X40618525Y-33585734D02*
G01*
X40674459Y-33627604D01*
X40698877Y-33693068D01*
X40699192Y-33702410D01*
X40696033Y-34495418D01*
X40676082Y-34562378D01*
X40623096Y-34607923D01*
X40553898Y-34617591D01*
X40490459Y-34588313D01*
X40484353Y-34582605D01*
X40461265Y-34559517D01*
X40461263Y-34559515D01*
X40364237Y-34503497D01*
X40256018Y-34474500D01*
X40143982Y-34474500D01*
X40035763Y-34503497D01*
X40035760Y-34503498D01*
X39938740Y-34559513D01*
X39938734Y-34559517D01*
X39937181Y-34561071D01*
X39935548Y-34561962D01*
X39932291Y-34564462D01*
X39931901Y-34563954D01*
X39875858Y-34594556D01*
X39806166Y-34589572D01*
X39750233Y-34547700D01*
X39725816Y-34482236D01*
X39725500Y-34473390D01*
X39725500Y-34443984D01*
X39725500Y-34443982D01*
X39696503Y-34335763D01*
X39640485Y-34238737D01*
X39589429Y-34187681D01*
X39555944Y-34126358D01*
X39560928Y-34056666D01*
X39589429Y-34012319D01*
X39612319Y-33989429D01*
X39640485Y-33961263D01*
X39696503Y-33864237D01*
X39725500Y-33756018D01*
X39725500Y-33726610D01*
X39745185Y-33659571D01*
X39797989Y-33613816D01*
X39867147Y-33603872D01*
X39930703Y-33632897D01*
X39937181Y-33638929D01*
X39938737Y-33640485D01*
X40035763Y-33696503D01*
X40143982Y-33725500D01*
X40143984Y-33725500D01*
X40256016Y-33725500D01*
X40256018Y-33725500D01*
X40364237Y-33696503D01*
X40461263Y-33640485D01*
X40487514Y-33614233D01*
X40548833Y-33580750D01*
X40618525Y-33585734D01*
G37*
%TD.AperFunction*%
%TD*%
%TA.AperFunction,Conductor*%
%TO.N,1V25_CORE*%
G36*
X21393039Y-36269685D02*
G01*
X21438794Y-36322489D01*
X21450000Y-36374000D01*
X21450000Y-36726000D01*
X21430315Y-36793039D01*
X21377511Y-36838794D01*
X21326000Y-36850000D01*
X19000000Y-36850000D01*
X19000000Y-38500000D01*
X22626000Y-38500000D01*
X22693039Y-38519685D01*
X22738794Y-38572489D01*
X22750000Y-38624000D01*
X22750000Y-39400000D01*
X25276000Y-39400000D01*
X25343039Y-39419685D01*
X25388794Y-39472489D01*
X25400000Y-39524000D01*
X25400000Y-39926000D01*
X25380315Y-39993039D01*
X25327511Y-40038794D01*
X25276000Y-40050000D01*
X22700000Y-40050000D01*
X22685176Y-40064823D01*
X22680315Y-40081380D01*
X22627511Y-40127135D01*
X22608094Y-40134116D01*
X22535761Y-40153497D01*
X22535760Y-40153498D01*
X22438740Y-40209513D01*
X22438734Y-40209517D01*
X22359517Y-40288734D01*
X22359513Y-40288740D01*
X22303498Y-40385760D01*
X22303497Y-40385761D01*
X22300498Y-40396952D01*
X22297513Y-40408095D01*
X22261149Y-40467754D01*
X22198302Y-40498283D01*
X22177739Y-40500000D01*
X20374000Y-40500000D01*
X20306961Y-40480315D01*
X20261206Y-40427511D01*
X20250000Y-40376000D01*
X20250000Y-39693982D01*
X21474500Y-39693982D01*
X21474500Y-39806018D01*
X21503497Y-39914237D01*
X21559515Y-40011263D01*
X21638737Y-40090485D01*
X21735763Y-40146503D01*
X21843982Y-40175500D01*
X21843984Y-40175500D01*
X21956016Y-40175500D01*
X21956018Y-40175500D01*
X22064237Y-40146503D01*
X22161263Y-40090485D01*
X22240485Y-40011263D01*
X22296503Y-39914237D01*
X22325500Y-39806018D01*
X22325500Y-39693982D01*
X22296503Y-39585763D01*
X22240485Y-39488737D01*
X22161263Y-39409515D01*
X22064237Y-39353497D01*
X21956018Y-39324500D01*
X21843982Y-39324500D01*
X21735763Y-39353497D01*
X21735760Y-39353498D01*
X21638740Y-39409513D01*
X21638734Y-39409517D01*
X21559517Y-39488734D01*
X21559513Y-39488740D01*
X21503498Y-39585760D01*
X21503497Y-39585763D01*
X21474500Y-39693982D01*
X20250000Y-39693982D01*
X20250000Y-39300000D01*
X18350000Y-39300000D01*
X18350000Y-36374000D01*
X18369685Y-36306961D01*
X18422489Y-36261206D01*
X18474000Y-36250000D01*
X21326000Y-36250000D01*
X21393039Y-36269685D01*
G37*
%TD.AperFunction*%
%TD*%
%TA.AperFunction,Conductor*%
%TO.N,3V3_VDD*%
G36*
X42093039Y-18519685D02*
G01*
X42138794Y-18572489D01*
X42150000Y-18624000D01*
X42150000Y-58976000D01*
X42130315Y-59043039D01*
X42077511Y-59088794D01*
X42026000Y-59100000D01*
X12774000Y-59100000D01*
X12706961Y-59080315D01*
X12661206Y-59027511D01*
X12650000Y-58976000D01*
X12650000Y-38224000D01*
X14044500Y-38224000D01*
X14044500Y-43100000D01*
X14044500Y-44903708D01*
X14048213Y-44942597D01*
X14048215Y-44942611D01*
X14048966Y-44946505D01*
X14057095Y-44988684D01*
X14058228Y-44994160D01*
X14097349Y-45076827D01*
X14140540Y-45131748D01*
X14140543Y-45131751D01*
X14157257Y-45150518D01*
X14190636Y-45171334D01*
X14213770Y-45185761D01*
X14216115Y-45187223D01*
X14222697Y-45194614D01*
X14231703Y-45198727D01*
X14245550Y-45220273D01*
X14262584Y-45239400D01*
X14265132Y-45250745D01*
X14269477Y-45257505D01*
X14274500Y-45292440D01*
X14274500Y-45407622D01*
X14254815Y-45474661D01*
X14208815Y-45517054D01*
X14187916Y-45528190D01*
X14187913Y-45528192D01*
X14135104Y-45573951D01*
X14117160Y-45591533D01*
X14117154Y-45591540D01*
X14072511Y-45671350D01*
X14072509Y-45671355D01*
X14052826Y-45738387D01*
X14052825Y-45738392D01*
X14052825Y-45738393D01*
X14044660Y-45795183D01*
X14044500Y-45796294D01*
X14044500Y-55626007D01*
X14049197Y-55669686D01*
X14060397Y-55721174D01*
X14062890Y-55731372D01*
X14062891Y-55731375D01*
X14105899Y-55812083D01*
X14105901Y-55812086D01*
X14151660Y-55864895D01*
X14163999Y-55877488D01*
X14169246Y-55882843D01*
X14169247Y-55882844D01*
X14169249Y-55882845D01*
X14249059Y-55927488D01*
X14249063Y-55927490D01*
X14316102Y-55947175D01*
X14374000Y-55955500D01*
X14374004Y-55955500D01*
X18225991Y-55955500D01*
X18226000Y-55955500D01*
X18269684Y-55950803D01*
X18298875Y-55944452D01*
X18321174Y-55939602D01*
X18321190Y-55939598D01*
X18321195Y-55939597D01*
X18331373Y-55937110D01*
X18412085Y-55894100D01*
X18464889Y-55848345D01*
X18482843Y-55830754D01*
X18527490Y-55750937D01*
X18547175Y-55683898D01*
X18555500Y-55626000D01*
X18555500Y-44493984D01*
X19874500Y-44493984D01*
X19874500Y-44606020D01*
X19903497Y-44714239D01*
X19959515Y-44811265D01*
X20038737Y-44890487D01*
X20135763Y-44946505D01*
X20243982Y-44975502D01*
X20243984Y-44975502D01*
X20356016Y-44975502D01*
X20356018Y-44975502D01*
X20464237Y-44946505D01*
X20561263Y-44890487D01*
X20640485Y-44811265D01*
X20696503Y-44714239D01*
X20725500Y-44606020D01*
X20725500Y-44493984D01*
X20696503Y-44385765D01*
X20640485Y-44288739D01*
X20561263Y-44209517D01*
X20464237Y-44153499D01*
X20356018Y-44124502D01*
X20243982Y-44124502D01*
X20135763Y-44153499D01*
X20135760Y-44153500D01*
X20038740Y-44209515D01*
X20038734Y-44209519D01*
X19959517Y-44288736D01*
X19959513Y-44288742D01*
X19903498Y-44385762D01*
X19903497Y-44385765D01*
X19874500Y-44493984D01*
X18555500Y-44493984D01*
X18555500Y-44299500D01*
X18575185Y-44232461D01*
X18627989Y-44186706D01*
X18679500Y-44175500D01*
X18756016Y-44175500D01*
X18756018Y-44175500D01*
X18864237Y-44146503D01*
X18961263Y-44090485D01*
X19040485Y-44011263D01*
X19096503Y-43914237D01*
X19125500Y-43806018D01*
X19125500Y-43693982D01*
X23074502Y-43693982D01*
X23074502Y-43806018D01*
X23103499Y-43914237D01*
X23159517Y-44011263D01*
X23238739Y-44090485D01*
X23335765Y-44146503D01*
X23443984Y-44175500D01*
X23443986Y-44175500D01*
X23556018Y-44175500D01*
X23556020Y-44175500D01*
X23664239Y-44146503D01*
X23761265Y-44090485D01*
X23840487Y-44011263D01*
X23896505Y-43914237D01*
X23925502Y-43806018D01*
X23925502Y-43693982D01*
X23896505Y-43585763D01*
X23840487Y-43488737D01*
X23761265Y-43409515D01*
X23664239Y-43353497D01*
X23556020Y-43324500D01*
X23443984Y-43324500D01*
X23335765Y-43353497D01*
X23335762Y-43353498D01*
X23238742Y-43409513D01*
X23238736Y-43409517D01*
X23159519Y-43488734D01*
X23159515Y-43488740D01*
X23103500Y-43585760D01*
X23103499Y-43585763D01*
X23074502Y-43693982D01*
X19125500Y-43693982D01*
X19096503Y-43585763D01*
X19040485Y-43488737D01*
X18961263Y-43409515D01*
X18864237Y-43353497D01*
X18756018Y-43324500D01*
X18678136Y-43324500D01*
X18646253Y-43315138D01*
X18614096Y-43306683D01*
X18612855Y-43305331D01*
X18611097Y-43304815D01*
X18589340Y-43279706D01*
X18566855Y-43255204D01*
X18566286Y-43253100D01*
X18565342Y-43252011D01*
X18555951Y-43221637D01*
X18554893Y-43215526D01*
X18553408Y-43194754D01*
X18548385Y-43159819D01*
X18542551Y-43144178D01*
X18541717Y-43139360D01*
X18541885Y-43139324D01*
X18539598Y-43128810D01*
X18539593Y-43128787D01*
X18537111Y-43118632D01*
X18537110Y-43118631D01*
X18537110Y-43118629D01*
X18523482Y-43093054D01*
X18517852Y-43077959D01*
X18513956Y-43071897D01*
X18512654Y-43072733D01*
X18494102Y-43037917D01*
X18492226Y-43035752D01*
X18481625Y-43021590D01*
X18480080Y-43019185D01*
X18480077Y-43019181D01*
X18480072Y-43019173D01*
X18480069Y-43019170D01*
X18473714Y-43010497D01*
X18465226Y-42998914D01*
X18465221Y-42998910D01*
X18458878Y-42994059D01*
X18445635Y-42982344D01*
X18436124Y-42972637D01*
X18436123Y-42972636D01*
X18430760Y-42967163D01*
X18430757Y-42967160D01*
X18412204Y-42956781D01*
X18412204Y-42956780D01*
X18404463Y-42952449D01*
X18392576Y-42943360D01*
X18384339Y-42939598D01*
X18383758Y-42940867D01*
X18364388Y-42930032D01*
X18364387Y-42930031D01*
X18350943Y-42922511D01*
X18348184Y-42921701D01*
X18331612Y-42915519D01*
X18329004Y-42914328D01*
X18328999Y-42914326D01*
X18305570Y-42905313D01*
X18305567Y-42905312D01*
X18303765Y-42905164D01*
X18297354Y-42904639D01*
X18288297Y-42903289D01*
X18288274Y-42903452D01*
X18226004Y-42894500D01*
X18226000Y-42894500D01*
X17079500Y-42894500D01*
X17077736Y-42893982D01*
X19074500Y-42893982D01*
X19074500Y-43006018D01*
X19103497Y-43114237D01*
X19159515Y-43211263D01*
X19238737Y-43290485D01*
X19335763Y-43346503D01*
X19443982Y-43375500D01*
X19443984Y-43375500D01*
X19556016Y-43375500D01*
X19556018Y-43375500D01*
X19664237Y-43346503D01*
X19761263Y-43290485D01*
X19840485Y-43211263D01*
X19896503Y-43114237D01*
X19925500Y-43006018D01*
X19925500Y-42893982D01*
X19896503Y-42785763D01*
X19840485Y-42688737D01*
X19761263Y-42609515D01*
X19675111Y-42559775D01*
X19664239Y-42553498D01*
X19664238Y-42553497D01*
X19664237Y-42553497D01*
X19556018Y-42524500D01*
X19443982Y-42524500D01*
X19335763Y-42553497D01*
X19335760Y-42553498D01*
X19238740Y-42609513D01*
X19238734Y-42609517D01*
X19159517Y-42688734D01*
X19159513Y-42688740D01*
X19103498Y-42785760D01*
X19103497Y-42785763D01*
X19074500Y-42893982D01*
X17077736Y-42893982D01*
X17012461Y-42874815D01*
X16966706Y-42822011D01*
X16955500Y-42770500D01*
X16955500Y-42043982D01*
X17524500Y-42043982D01*
X17524500Y-42156018D01*
X17553497Y-42264237D01*
X17609515Y-42361263D01*
X17688737Y-42440485D01*
X17785763Y-42496503D01*
X17893982Y-42525500D01*
X17893984Y-42525500D01*
X18006016Y-42525500D01*
X18006018Y-42525500D01*
X18114237Y-42496503D01*
X18211263Y-42440485D01*
X18290485Y-42361263D01*
X18346503Y-42264237D01*
X18375500Y-42156018D01*
X18375500Y-42093980D01*
X22274500Y-42093980D01*
X22274500Y-42206016D01*
X22303497Y-42314235D01*
X22359515Y-42411261D01*
X22438737Y-42490483D01*
X22535763Y-42546501D01*
X22643982Y-42575498D01*
X22643984Y-42575498D01*
X22756016Y-42575498D01*
X22756018Y-42575498D01*
X22864237Y-42546501D01*
X22961263Y-42490483D01*
X23040485Y-42411261D01*
X23096503Y-42314235D01*
X23125500Y-42206016D01*
X23125500Y-42093980D01*
X23096503Y-41985761D01*
X23040485Y-41888735D01*
X22961263Y-41809513D01*
X22896579Y-41772167D01*
X22864239Y-41753496D01*
X22864238Y-41753495D01*
X22864237Y-41753495D01*
X22756018Y-41724498D01*
X22643982Y-41724498D01*
X22535763Y-41753495D01*
X22535760Y-41753496D01*
X22438740Y-41809511D01*
X22438734Y-41809515D01*
X22359517Y-41888732D01*
X22359513Y-41888738D01*
X22303498Y-41985758D01*
X22303497Y-41985761D01*
X22274500Y-42093980D01*
X18375500Y-42093980D01*
X18375500Y-42043982D01*
X18349670Y-41947585D01*
X18348716Y-41942080D01*
X18352076Y-41912704D01*
X18352780Y-41883136D01*
X18356002Y-41878374D01*
X18356656Y-41872663D01*
X18375364Y-41849766D01*
X18391942Y-41825273D01*
X18397227Y-41823009D01*
X18400865Y-41818558D01*
X18428986Y-41809409D01*
X18456171Y-41797769D01*
X18463221Y-41798273D01*
X18467307Y-41796944D01*
X18475798Y-41799172D01*
X18502981Y-41801116D01*
X18593982Y-41825500D01*
X18593985Y-41825500D01*
X18706016Y-41825500D01*
X18706018Y-41825500D01*
X18814237Y-41796503D01*
X18911263Y-41740485D01*
X18990485Y-41661263D01*
X19046503Y-41564237D01*
X19075500Y-41456018D01*
X19075500Y-41343982D01*
X19046503Y-41235763D01*
X18990485Y-41138737D01*
X18911263Y-41059515D01*
X18824664Y-41009517D01*
X18814239Y-41003498D01*
X18814238Y-41003497D01*
X18814237Y-41003497D01*
X18706018Y-40974500D01*
X18593982Y-40974500D01*
X18485763Y-41003497D01*
X18485760Y-41003498D01*
X18388740Y-41059513D01*
X18388734Y-41059517D01*
X18309517Y-41138734D01*
X18309513Y-41138740D01*
X18253498Y-41235760D01*
X18253497Y-41235763D01*
X18224500Y-41343982D01*
X18224500Y-41456017D01*
X18248882Y-41547014D01*
X18247219Y-41616864D01*
X18208056Y-41674726D01*
X18143827Y-41702230D01*
X18097014Y-41698882D01*
X18065511Y-41690441D01*
X18006018Y-41674500D01*
X17893982Y-41674500D01*
X17785763Y-41703497D01*
X17785760Y-41703498D01*
X17688740Y-41759513D01*
X17688734Y-41759517D01*
X17609517Y-41838734D01*
X17609513Y-41838740D01*
X17553498Y-41935760D01*
X17553497Y-41935763D01*
X17524500Y-42043982D01*
X16955500Y-42043982D01*
X16955500Y-40975164D01*
X16955437Y-40974500D01*
X16951786Y-40936266D01*
X16942903Y-40890179D01*
X16941771Y-40884708D01*
X16941770Y-40884705D01*
X16902652Y-40802042D01*
X16859470Y-40747131D01*
X16859466Y-40747127D01*
X16859461Y-40747120D01*
X16842742Y-40728347D01*
X16823491Y-40716342D01*
X16777024Y-40664167D01*
X16765107Y-40610955D01*
X16765129Y-40594721D01*
X16775500Y-40556018D01*
X16775500Y-40443982D01*
X16765389Y-40406248D01*
X16765412Y-40389839D01*
X16770843Y-40371435D01*
X16771300Y-40352254D01*
X16780718Y-40337975D01*
X16785189Y-40322827D01*
X16798027Y-40311733D01*
X16808210Y-40296296D01*
X16812080Y-40292942D01*
X16812085Y-40292940D01*
X16864889Y-40247185D01*
X16882843Y-40229594D01*
X16927490Y-40149777D01*
X16947175Y-40082738D01*
X16955500Y-40024840D01*
X16955500Y-39629500D01*
X16975185Y-39562461D01*
X17027989Y-39516706D01*
X17079500Y-39505500D01*
X17363404Y-39505500D01*
X17430443Y-39525185D01*
X17476198Y-39577989D01*
X17486142Y-39647147D01*
X17483181Y-39661582D01*
X17474500Y-39693982D01*
X17474500Y-39806018D01*
X17503497Y-39914237D01*
X17559515Y-40011263D01*
X17638737Y-40090485D01*
X17735763Y-40146503D01*
X17843982Y-40175500D01*
X17843984Y-40175500D01*
X17956016Y-40175500D01*
X17956018Y-40175500D01*
X18064237Y-40146503D01*
X18161263Y-40090485D01*
X18240485Y-40011263D01*
X18296503Y-39914237D01*
X18325500Y-39806018D01*
X18325500Y-39693982D01*
X18316821Y-39661591D01*
X18318484Y-39591744D01*
X18357646Y-39533881D01*
X18421875Y-39506377D01*
X18436596Y-39505500D01*
X18963404Y-39505500D01*
X19030443Y-39525185D01*
X19076198Y-39577989D01*
X19086142Y-39647147D01*
X19083181Y-39661582D01*
X19074500Y-39693982D01*
X19074500Y-39806018D01*
X19103497Y-39914237D01*
X19159515Y-40011263D01*
X19238737Y-40090485D01*
X19335763Y-40146503D01*
X19443982Y-40175500D01*
X19443984Y-40175500D01*
X19556016Y-40175500D01*
X19556018Y-40175500D01*
X19664237Y-40146503D01*
X19761263Y-40090485D01*
X19832819Y-40018929D01*
X19894142Y-39985444D01*
X19963834Y-39990428D01*
X20019767Y-40032300D01*
X20044184Y-40097764D01*
X20044500Y-40106610D01*
X20044500Y-40376007D01*
X20049197Y-40419686D01*
X20060397Y-40471174D01*
X20062890Y-40481372D01*
X20062891Y-40481375D01*
X20105899Y-40562083D01*
X20105901Y-40562086D01*
X20151660Y-40614895D01*
X20165420Y-40628938D01*
X20169246Y-40632843D01*
X20169247Y-40632844D01*
X20169249Y-40632845D01*
X20225245Y-40664167D01*
X20249063Y-40677490D01*
X20316102Y-40697175D01*
X20374000Y-40705500D01*
X20374004Y-40705500D01*
X20919428Y-40705500D01*
X20986467Y-40725185D01*
X21032222Y-40777989D01*
X21042166Y-40847147D01*
X21013141Y-40910703D01*
X20954363Y-40948477D01*
X20951567Y-40949262D01*
X20935763Y-40953497D01*
X20935761Y-40953498D01*
X20935760Y-40953498D01*
X20838740Y-41009513D01*
X20838734Y-41009517D01*
X20759517Y-41088734D01*
X20759513Y-41088740D01*
X20703498Y-41185760D01*
X20703497Y-41185763D01*
X20674500Y-41293982D01*
X20674500Y-41406018D01*
X20703497Y-41514237D01*
X20759515Y-41611263D01*
X20838737Y-41690485D01*
X20935763Y-41746503D01*
X21043982Y-41775500D01*
X21043984Y-41775500D01*
X21156016Y-41775500D01*
X21156018Y-41775500D01*
X21264237Y-41746503D01*
X21361263Y-41690485D01*
X21412319Y-41639429D01*
X21473642Y-41605944D01*
X21543334Y-41610928D01*
X21587681Y-41639429D01*
X21638737Y-41690485D01*
X21735763Y-41746503D01*
X21843982Y-41775500D01*
X21843984Y-41775500D01*
X21956016Y-41775500D01*
X21956018Y-41775500D01*
X22064237Y-41746503D01*
X22161263Y-41690485D01*
X22240485Y-41611263D01*
X22296503Y-41514237D01*
X22325500Y-41406018D01*
X22325500Y-41293982D01*
X22296503Y-41185763D01*
X22240485Y-41088737D01*
X22161263Y-41009515D01*
X22064237Y-40953497D01*
X22048476Y-40949273D01*
X22033029Y-40939858D01*
X22015578Y-40935102D01*
X22003818Y-40922053D01*
X21988818Y-40912910D01*
X21980913Y-40896638D01*
X21968803Y-40883200D01*
X21965964Y-40865864D01*
X21958289Y-40850063D01*
X21960436Y-40832099D01*
X21957514Y-40814248D01*
X21964498Y-40798129D01*
X21966584Y-40780687D01*
X21978101Y-40766738D01*
X21985294Y-40750139D01*
X21999885Y-40740354D01*
X22011069Y-40726810D01*
X22028298Y-40721302D01*
X22043325Y-40711226D01*
X22075098Y-40706341D01*
X22077621Y-40705535D01*
X22078155Y-40705524D01*
X22079386Y-40705500D01*
X22177739Y-40705500D01*
X22194839Y-40704787D01*
X22215402Y-40703070D01*
X22216271Y-40702831D01*
X22222816Y-40702704D01*
X22252848Y-40710889D01*
X22283356Y-40717146D01*
X22286330Y-40720015D01*
X22290227Y-40721078D01*
X22308867Y-40741761D01*
X22332620Y-40764680D01*
X22359512Y-40811259D01*
X22359514Y-40811261D01*
X22359515Y-40811263D01*
X22438737Y-40890485D01*
X22535763Y-40946503D01*
X22643982Y-40975500D01*
X22643984Y-40975500D01*
X22756016Y-40975500D01*
X22756018Y-40975500D01*
X22864237Y-40946503D01*
X22961263Y-40890485D01*
X23040485Y-40811263D01*
X23096503Y-40714237D01*
X23125500Y-40606018D01*
X23125500Y-40493982D01*
X23103424Y-40411592D01*
X23105087Y-40341743D01*
X23144250Y-40283881D01*
X23208478Y-40256377D01*
X23223199Y-40255500D01*
X23570500Y-40255500D01*
X23637539Y-40275185D01*
X23683294Y-40327989D01*
X23694500Y-40379500D01*
X23694500Y-41982488D01*
X23694715Y-41985761D01*
X23696258Y-42009313D01*
X23700483Y-42041402D01*
X23705727Y-42067767D01*
X23705729Y-42067774D01*
X23715775Y-42105266D01*
X23720000Y-42137359D01*
X23720000Y-42162636D01*
X23715775Y-42194729D01*
X23705727Y-42232227D01*
X23705727Y-42232229D01*
X23700483Y-42258595D01*
X23696258Y-42290688D01*
X23694500Y-42317510D01*
X23694500Y-42317518D01*
X23694500Y-42474840D01*
X23696592Y-42504089D01*
X23697104Y-42507655D01*
X23697715Y-42511903D01*
X23697714Y-42511904D01*
X23697715Y-42511906D01*
X23701613Y-42539017D01*
X23703008Y-42544480D01*
X23706615Y-42557327D01*
X23707087Y-42559775D01*
X23707098Y-42559828D01*
X23708228Y-42565289D01*
X23723256Y-42597047D01*
X23732143Y-42620874D01*
X23734585Y-42624674D01*
X23735922Y-42623814D01*
X23742983Y-42638734D01*
X23744633Y-42642221D01*
X23744633Y-42642223D01*
X23747346Y-42647955D01*
X23755740Y-42658629D01*
X23762577Y-42668231D01*
X23769919Y-42679654D01*
X23769923Y-42679660D01*
X23769924Y-42679661D01*
X23784792Y-42699948D01*
X23784795Y-42699952D01*
X23785201Y-42700262D01*
X23786542Y-42701301D01*
X23795182Y-42708095D01*
X23807259Y-42721654D01*
X23832236Y-42737229D01*
X23837537Y-42741397D01*
X23854047Y-42764579D01*
X23872975Y-42785830D01*
X23874053Y-42792668D01*
X23878070Y-42798308D01*
X23879426Y-42826734D01*
X23883860Y-42854846D01*
X23881368Y-42867431D01*
X23881400Y-42868098D01*
X23881150Y-42868529D01*
X23880669Y-42870963D01*
X23874502Y-42893980D01*
X23874502Y-42893982D01*
X23874502Y-43006018D01*
X23903499Y-43114237D01*
X23959517Y-43211263D01*
X24038739Y-43290485D01*
X24135765Y-43346503D01*
X24243984Y-43375500D01*
X24253692Y-43375500D01*
X24320731Y-43395185D01*
X24358002Y-43432453D01*
X24367994Y-43447999D01*
X24375581Y-43474846D01*
X24409066Y-43536169D01*
X24444119Y-43582993D01*
X24473918Y-43612792D01*
X24481125Y-43624004D01*
X24481618Y-43625682D01*
X24484202Y-43629050D01*
X24498528Y-43653863D01*
X24507937Y-43675300D01*
X24508231Y-43675195D01*
X24516083Y-43697035D01*
X24516083Y-43697036D01*
X24554159Y-43762086D01*
X24554161Y-43762089D01*
X24599907Y-43814882D01*
X24599914Y-43814889D01*
X24617505Y-43832843D01*
X24617506Y-43832844D01*
X24617508Y-43832845D01*
X24697318Y-43877488D01*
X24697322Y-43877490D01*
X24764361Y-43897175D01*
X24822259Y-43905500D01*
X25070500Y-43905500D01*
X25137539Y-43925185D01*
X25183294Y-43977989D01*
X25194500Y-44029500D01*
X25194500Y-44800498D01*
X25174815Y-44867537D01*
X25122011Y-44913292D01*
X25070500Y-44924498D01*
X25043982Y-44924498D01*
X24935763Y-44953495D01*
X24935760Y-44953496D01*
X24838740Y-45009511D01*
X24838734Y-45009515D01*
X24759517Y-45088732D01*
X24759513Y-45088738D01*
X24703498Y-45185758D01*
X24703497Y-45185761D01*
X24674500Y-45293980D01*
X24674500Y-45406016D01*
X24694307Y-45479935D01*
X24703497Y-45514234D01*
X24703498Y-45514237D01*
X24711555Y-45528192D01*
X24759515Y-45611261D01*
X24838737Y-45690483D01*
X24935763Y-45746501D01*
X25043982Y-45775498D01*
X25043984Y-45775498D01*
X25070500Y-45775498D01*
X25137539Y-45795183D01*
X25183294Y-45847987D01*
X25194500Y-45899498D01*
X25194500Y-55576007D01*
X25199197Y-55619686D01*
X25210397Y-55671174D01*
X25212890Y-55681372D01*
X25212891Y-55681375D01*
X25255899Y-55762083D01*
X25255901Y-55762086D01*
X25301660Y-55814895D01*
X25317195Y-55830750D01*
X25319246Y-55832843D01*
X25319247Y-55832844D01*
X25319249Y-55832845D01*
X25376546Y-55864895D01*
X25399063Y-55877490D01*
X25466102Y-55897175D01*
X25524000Y-55905500D01*
X25524004Y-55905500D01*
X30725991Y-55905500D01*
X30726000Y-55905500D01*
X30769684Y-55900803D01*
X30800505Y-55894098D01*
X30821174Y-55889602D01*
X30821190Y-55889598D01*
X30821195Y-55889597D01*
X30831373Y-55887110D01*
X30912085Y-55844100D01*
X30964889Y-55798345D01*
X30982843Y-55780754D01*
X31027490Y-55700937D01*
X31047175Y-55633898D01*
X31055500Y-55576000D01*
X31055500Y-51479500D01*
X31075185Y-51412461D01*
X31127989Y-51366706D01*
X31179500Y-51355500D01*
X40506170Y-51355500D01*
X40506174Y-51355500D01*
X40549455Y-51350891D01*
X40549461Y-51350889D01*
X40549467Y-51350889D01*
X40571280Y-51346188D01*
X40600517Y-51339890D01*
X40607455Y-51338216D01*
X40610300Y-51337530D01*
X40610302Y-51337529D01*
X40610307Y-51337528D01*
X40691190Y-51294841D01*
X40744176Y-51249297D01*
X40762202Y-51231774D01*
X40807166Y-51152134D01*
X40827117Y-51085173D01*
X40835671Y-51027313D01*
X40859902Y-44945041D01*
X40853166Y-44892030D01*
X40852760Y-44890484D01*
X40836933Y-44830210D01*
X40836914Y-44830144D01*
X40832683Y-44816735D01*
X40830894Y-44811065D01*
X40780868Y-44734505D01*
X40730592Y-44685986D01*
X40730589Y-44685983D01*
X40722174Y-44678802D01*
X40711471Y-44669670D01*
X40711469Y-44669669D01*
X40711468Y-44669668D01*
X40698844Y-44664018D01*
X40684933Y-44652147D01*
X40668297Y-44644550D01*
X40658906Y-44629937D01*
X40645695Y-44618664D01*
X40640410Y-44601157D01*
X40630523Y-44585772D01*
X40625754Y-44552604D01*
X40625504Y-44551776D01*
X40625500Y-44550837D01*
X40625500Y-44451901D01*
X40645185Y-44384862D01*
X40691623Y-44342237D01*
X40718946Y-44327817D01*
X40771932Y-44282273D01*
X40789958Y-44264750D01*
X40834922Y-44185110D01*
X40854873Y-44118149D01*
X40863427Y-44060289D01*
X40866296Y-43340134D01*
X40859707Y-43287688D01*
X40843815Y-43226459D01*
X40838042Y-43207881D01*
X40838042Y-43207880D01*
X40838040Y-43207877D01*
X40788458Y-43131040D01*
X40788455Y-43131037D01*
X40788454Y-43131035D01*
X40738457Y-43082229D01*
X40719427Y-43065801D01*
X40698197Y-43056153D01*
X40645309Y-43010497D01*
X40625500Y-42943495D01*
X40625500Y-42843984D01*
X40625500Y-42843982D01*
X40596503Y-42735763D01*
X40540485Y-42638737D01*
X40489429Y-42587681D01*
X40455944Y-42526358D01*
X40460928Y-42456666D01*
X40489429Y-42412319D01*
X40512156Y-42389592D01*
X40540485Y-42361263D01*
X40596503Y-42264237D01*
X40625500Y-42156018D01*
X40625500Y-42064308D01*
X40645185Y-41997269D01*
X40691621Y-41954645D01*
X40728480Y-41935192D01*
X40781466Y-41889647D01*
X40781473Y-41889639D01*
X40781481Y-41889633D01*
X40793064Y-41878374D01*
X40799491Y-41872127D01*
X40844455Y-41792487D01*
X40864406Y-41725527D01*
X40872960Y-41667665D01*
X40875890Y-40932028D01*
X40875775Y-40924275D01*
X40875459Y-40914916D01*
X40862607Y-40850004D01*
X40838179Y-40784543D01*
X40827968Y-40761576D01*
X40768775Y-40691860D01*
X40742182Y-40671959D01*
X40712841Y-40650001D01*
X40684411Y-40631325D01*
X40685978Y-40628938D01*
X40644505Y-40592253D01*
X40625500Y-40526283D01*
X40625500Y-40443984D01*
X40625500Y-40443982D01*
X40596503Y-40335763D01*
X40540485Y-40238737D01*
X40489429Y-40187681D01*
X40455944Y-40126358D01*
X40460928Y-40056666D01*
X40489429Y-40012319D01*
X40511320Y-39990428D01*
X40540485Y-39961263D01*
X40596503Y-39864237D01*
X40625500Y-39756018D01*
X40625500Y-39678857D01*
X40645185Y-39611818D01*
X40691622Y-39569194D01*
X40738003Y-39544716D01*
X40790988Y-39499172D01*
X40809012Y-39481652D01*
X40853976Y-39402013D01*
X40873928Y-39335052D01*
X40882483Y-39277189D01*
X40883983Y-38900813D01*
X40879375Y-38856710D01*
X40868170Y-38804705D01*
X40865596Y-38794127D01*
X40835227Y-38737138D01*
X40821072Y-38668720D01*
X40837273Y-38616824D01*
X40840481Y-38611266D01*
X40840485Y-38611263D01*
X40896503Y-38514237D01*
X40925500Y-38406018D01*
X40925500Y-38293982D01*
X40896503Y-38185763D01*
X40840485Y-38088737D01*
X40840484Y-38088736D01*
X40839482Y-38087000D01*
X40823009Y-38019100D01*
X40839482Y-37963000D01*
X40843582Y-37955899D01*
X40896503Y-37864237D01*
X40925500Y-37756018D01*
X40925500Y-37643982D01*
X40896503Y-37535763D01*
X40840713Y-37439131D01*
X40824241Y-37371236D01*
X40840121Y-37316175D01*
X40862446Y-37276634D01*
X40882397Y-37209674D01*
X40890951Y-37151812D01*
X40891815Y-36934934D01*
X40891873Y-36920360D01*
X40891872Y-36920358D01*
X40891890Y-36916028D01*
X40891775Y-36908285D01*
X40891460Y-36898942D01*
X40886407Y-36873411D01*
X40888016Y-36873187D01*
X40885031Y-36851821D01*
X40878772Y-36834834D01*
X40878615Y-36834039D01*
X40877031Y-36829793D01*
X40876928Y-36829831D01*
X40876677Y-36829150D01*
X40876586Y-36828602D01*
X40867683Y-36804738D01*
X40867666Y-36804692D01*
X40854826Y-36769842D01*
X40854822Y-36769836D01*
X40854725Y-36769572D01*
X40853132Y-36766181D01*
X40843989Y-36745611D01*
X40831046Y-36730363D01*
X40820996Y-36716739D01*
X40817289Y-36710919D01*
X40808376Y-36698653D01*
X40802511Y-36690581D01*
X40802509Y-36690579D01*
X40795763Y-36685378D01*
X40795763Y-36685377D01*
X40787361Y-36678900D01*
X40784804Y-36675887D01*
X40774218Y-36667963D01*
X40773835Y-36668472D01*
X40760912Y-36658510D01*
X40746704Y-36647556D01*
X40746795Y-36647436D01*
X40738287Y-36641067D01*
X40730079Y-36634739D01*
X40729986Y-36634667D01*
X40726746Y-36632622D01*
X40707877Y-36620221D01*
X40699851Y-36616456D01*
X40701082Y-36613830D01*
X40691771Y-36607709D01*
X40668297Y-36596989D01*
X40663054Y-36588830D01*
X40654951Y-36583504D01*
X40644474Y-36559920D01*
X40630523Y-36538211D01*
X40628461Y-36523872D01*
X40626586Y-36519651D01*
X40625500Y-36503276D01*
X40625500Y-36498257D01*
X40645185Y-36431218D01*
X40691621Y-36388594D01*
X40750701Y-36357414D01*
X40803686Y-36311870D01*
X40821710Y-36294350D01*
X40866674Y-36214711D01*
X40886626Y-36147750D01*
X40895181Y-36089887D01*
X40898290Y-35309629D01*
X40898175Y-35301885D01*
X40897860Y-35292543D01*
X40897859Y-35292537D01*
X40897859Y-35292535D01*
X40885020Y-35227654D01*
X40885019Y-35227651D01*
X40861365Y-35164236D01*
X40860601Y-35162186D01*
X40850392Y-35139215D01*
X40809198Y-35090685D01*
X40791212Y-35069495D01*
X40791209Y-35069493D01*
X40791208Y-35069491D01*
X40735273Y-35027620D01*
X40735270Y-35027618D01*
X40735266Y-35027615D01*
X40714265Y-35013814D01*
X40711464Y-35012500D01*
X40709147Y-35010450D01*
X40706853Y-35008943D01*
X40707069Y-35008613D01*
X40659130Y-34966207D01*
X40640132Y-34898970D01*
X40660502Y-34832135D01*
X40706245Y-34790577D01*
X40757051Y-34763763D01*
X40810037Y-34718218D01*
X40810044Y-34718210D01*
X40810052Y-34718204D01*
X40817302Y-34711155D01*
X40828062Y-34700698D01*
X40873026Y-34621058D01*
X40892977Y-34554098D01*
X40901531Y-34496237D01*
X40904690Y-33703229D01*
X40904575Y-33695485D01*
X40904260Y-33686143D01*
X40904259Y-33686137D01*
X40904259Y-33686135D01*
X40891420Y-33621254D01*
X40891419Y-33621251D01*
X40867003Y-33555792D01*
X40867002Y-33555789D01*
X40863902Y-33548814D01*
X40856792Y-33532814D01*
X40856789Y-33532810D01*
X40797611Y-33463094D01*
X40797608Y-33463091D01*
X40797607Y-33463090D01*
X40741673Y-33421220D01*
X40741670Y-33421218D01*
X40741668Y-33421216D01*
X40714884Y-33403616D01*
X40669669Y-33350350D01*
X40660429Y-33281094D01*
X40690099Y-33217836D01*
X40725100Y-33190326D01*
X40763399Y-33170114D01*
X40816385Y-33124570D01*
X40834411Y-33107047D01*
X40879375Y-33027407D01*
X40899326Y-32960446D01*
X40907880Y-32902586D01*
X40951615Y-21925313D01*
X40947007Y-21881210D01*
X40935802Y-21829205D01*
X40933228Y-21818627D01*
X40890218Y-21737915D01*
X40844463Y-21685111D01*
X40844457Y-21685104D01*
X40826875Y-21667160D01*
X40826874Y-21667159D01*
X40826872Y-21667157D01*
X40826870Y-21667156D01*
X40826868Y-21667154D01*
X40747058Y-21622511D01*
X40747053Y-21622509D01*
X40680021Y-21602826D01*
X40680017Y-21602825D01*
X40680016Y-21602825D01*
X40622118Y-21594500D01*
X24024000Y-21594500D01*
X24023992Y-21594500D01*
X23980313Y-21599197D01*
X23928825Y-21610397D01*
X23918627Y-21612890D01*
X23918624Y-21612891D01*
X23837916Y-21655899D01*
X23837913Y-21655901D01*
X23785104Y-21701660D01*
X23767160Y-21719242D01*
X23767154Y-21719249D01*
X23722511Y-21799059D01*
X23722509Y-21799064D01*
X23702826Y-21866096D01*
X23702825Y-21866101D01*
X23702825Y-21866102D01*
X23694500Y-21924000D01*
X23694500Y-32521037D01*
X23694500Y-33271037D01*
X23694500Y-34782489D01*
X23694632Y-34784500D01*
X23696258Y-34809313D01*
X23699262Y-34832135D01*
X23700483Y-34841404D01*
X23705727Y-34867769D01*
X23706603Y-34871037D01*
X23715775Y-34905270D01*
X23720000Y-34937360D01*
X23720000Y-34962636D01*
X23715775Y-34994729D01*
X23705727Y-35032227D01*
X23705727Y-35032229D01*
X23700996Y-35056018D01*
X23700483Y-35058595D01*
X23696258Y-35090688D01*
X23694500Y-35117510D01*
X23694500Y-35117518D01*
X23694500Y-35201336D01*
X23674815Y-35268375D01*
X23622011Y-35314130D01*
X23564145Y-35322805D01*
X23564145Y-35324500D01*
X23443982Y-35324500D01*
X23335763Y-35353497D01*
X23335760Y-35353498D01*
X23238740Y-35409513D01*
X23238734Y-35409517D01*
X23159517Y-35488734D01*
X23159513Y-35488740D01*
X23103498Y-35585760D01*
X23103497Y-35585763D01*
X23074500Y-35693982D01*
X23074500Y-35806017D01*
X23084660Y-35843935D01*
X23084064Y-35868934D01*
X23087621Y-35893685D01*
X23083247Y-35903259D01*
X23082997Y-35913785D01*
X23068979Y-35934495D01*
X23058591Y-35957238D01*
X23046491Y-35967721D01*
X23043834Y-35971647D01*
X23031916Y-35980349D01*
X23021772Y-35986867D01*
X23007786Y-35994627D01*
X23002047Y-35997342D01*
X23002043Y-35997345D01*
X22991359Y-36005746D01*
X22981764Y-36012578D01*
X22970362Y-36019906D01*
X22970339Y-36019922D01*
X22950095Y-36034753D01*
X22950093Y-36034755D01*
X22949755Y-36035198D01*
X22942579Y-36044579D01*
X22928350Y-36057254D01*
X22908335Y-36089346D01*
X22904737Y-36094050D01*
X22904736Y-36094053D01*
X22894530Y-36107396D01*
X22894528Y-36107400D01*
X22890874Y-36115397D01*
X22887544Y-36122683D01*
X22879954Y-36134856D01*
X22873611Y-36153176D01*
X22871176Y-36158508D01*
X22871174Y-36158514D01*
X22870711Y-36159526D01*
X22870679Y-36159620D01*
X22865494Y-36170975D01*
X22865484Y-36171000D01*
X22856472Y-36194424D01*
X22856472Y-36194426D01*
X22856428Y-36194958D01*
X22856429Y-36194959D01*
X22856303Y-36196502D01*
X22855464Y-36206745D01*
X22850347Y-36225101D01*
X22850860Y-36262930D01*
X22850378Y-36268825D01*
X22850378Y-36268836D01*
X22849007Y-36285573D01*
X22849007Y-36285574D01*
X22850255Y-36294260D01*
X22851395Y-36302199D01*
X22851591Y-36316549D01*
X22856165Y-36335407D01*
X22857002Y-36341230D01*
X22857004Y-36341240D01*
X22857163Y-36342347D01*
X22857178Y-36342405D01*
X22858953Y-36354745D01*
X22858955Y-36354757D01*
X22864050Y-36379378D01*
X22864052Y-36379383D01*
X22868855Y-36388396D01*
X22872355Y-36395502D01*
X22873506Y-36398042D01*
X22889803Y-36438751D01*
X22899878Y-36456201D01*
X22902389Y-36461739D01*
X22902943Y-36465671D01*
X22909230Y-36480848D01*
X22915774Y-36505267D01*
X22920000Y-36537365D01*
X22920000Y-36562639D01*
X22915774Y-36594735D01*
X22909231Y-36619152D01*
X22896844Y-36649057D01*
X22877327Y-36682861D01*
X22866502Y-36698653D01*
X22859676Y-36707125D01*
X22859673Y-36707129D01*
X22822508Y-36778179D01*
X22802826Y-36845206D01*
X22794500Y-36903115D01*
X22794500Y-36996891D01*
X22795314Y-37012088D01*
X22795317Y-37012124D01*
X22795678Y-37018857D01*
X22796478Y-37026301D01*
X22796482Y-37026345D01*
X22798512Y-37045219D01*
X22799754Y-37051184D01*
X22799478Y-37051241D01*
X22801452Y-37059942D01*
X22801614Y-37061072D01*
X22801616Y-37061078D01*
X22801617Y-37061083D01*
X22812040Y-37089026D01*
X22812039Y-37089026D01*
X22813202Y-37092145D01*
X22822458Y-37121709D01*
X22823755Y-37124085D01*
X22824886Y-37123466D01*
X22831150Y-37140259D01*
X22831153Y-37140264D01*
X22832145Y-37142924D01*
X22832147Y-37142929D01*
X22842325Y-37158765D01*
X22846719Y-37166153D01*
X22848256Y-37168954D01*
X22848261Y-37168977D01*
X22848348Y-37169138D01*
X22848377Y-37169176D01*
X22855953Y-37183051D01*
X22855957Y-37183056D01*
X22858935Y-37187035D01*
X22867051Y-37199339D01*
X22896844Y-37250942D01*
X22909230Y-37280845D01*
X22914363Y-37300000D01*
X22915774Y-37305263D01*
X22920000Y-37337359D01*
X22920000Y-37362635D01*
X22915774Y-37394731D01*
X22909231Y-37419148D01*
X22896844Y-37449053D01*
X22877327Y-37482857D01*
X22866502Y-37498649D01*
X22859676Y-37507121D01*
X22859673Y-37507125D01*
X22822508Y-37578175D01*
X22802826Y-37645202D01*
X22802825Y-37645210D01*
X22796316Y-37690482D01*
X22794500Y-37703111D01*
X22794500Y-38175623D01*
X22774815Y-38242662D01*
X22722011Y-38288417D01*
X22652853Y-38298361D01*
X22640542Y-38296590D01*
X22626000Y-38294500D01*
X22625999Y-38294500D01*
X19329500Y-38294500D01*
X19262461Y-38274815D01*
X19216706Y-38222011D01*
X19205500Y-38170500D01*
X19205500Y-37179500D01*
X19225185Y-37112461D01*
X19277989Y-37066706D01*
X19329500Y-37055500D01*
X20576801Y-37055500D01*
X20643840Y-37075185D01*
X20689595Y-37127989D01*
X20699539Y-37197147D01*
X20696576Y-37211591D01*
X20674500Y-37293982D01*
X20674500Y-37406018D01*
X20703497Y-37514237D01*
X20759515Y-37611263D01*
X20838737Y-37690485D01*
X20935763Y-37746503D01*
X21043982Y-37775500D01*
X21043984Y-37775500D01*
X21156016Y-37775500D01*
X21156018Y-37775500D01*
X21264237Y-37746503D01*
X21361263Y-37690485D01*
X21412319Y-37639429D01*
X21473642Y-37605944D01*
X21543334Y-37610928D01*
X21587681Y-37639429D01*
X21638737Y-37690485D01*
X21735763Y-37746503D01*
X21843982Y-37775500D01*
X21843984Y-37775500D01*
X21956016Y-37775500D01*
X21956018Y-37775500D01*
X22064237Y-37746503D01*
X22161263Y-37690485D01*
X22240485Y-37611263D01*
X22296503Y-37514237D01*
X22325500Y-37406018D01*
X22325500Y-37293982D01*
X22296503Y-37185763D01*
X22240485Y-37088737D01*
X22161263Y-37009515D01*
X22064237Y-36953497D01*
X21956018Y-36924500D01*
X21843982Y-36924500D01*
X21798835Y-36936596D01*
X21728986Y-36934934D01*
X21671124Y-36895771D01*
X21643620Y-36831543D01*
X21647219Y-36788451D01*
X21646232Y-36788237D01*
X21647171Y-36783915D01*
X21647171Y-36783908D01*
X21647175Y-36783898D01*
X21655500Y-36726000D01*
X21655500Y-36374000D01*
X21650803Y-36330316D01*
X21646788Y-36311861D01*
X21639602Y-36278825D01*
X21639348Y-36277789D01*
X21637110Y-36268627D01*
X21594100Y-36187915D01*
X21557358Y-36145513D01*
X21548339Y-36135104D01*
X21530757Y-36117160D01*
X21530756Y-36117159D01*
X21530754Y-36117157D01*
X21530752Y-36117156D01*
X21530750Y-36117154D01*
X21450940Y-36072511D01*
X21450935Y-36072509D01*
X21383903Y-36052826D01*
X21383899Y-36052825D01*
X21383898Y-36052825D01*
X21326000Y-36044500D01*
X18486596Y-36044500D01*
X18419557Y-36024815D01*
X18373802Y-35972011D01*
X18363858Y-35902853D01*
X18366818Y-35888417D01*
X18375500Y-35856018D01*
X18375500Y-35743982D01*
X18346503Y-35635763D01*
X18290485Y-35538737D01*
X18211263Y-35459515D01*
X18124664Y-35409517D01*
X18114239Y-35403498D01*
X18114238Y-35403497D01*
X18114237Y-35403497D01*
X18006018Y-35374500D01*
X17893982Y-35374500D01*
X17785763Y-35403497D01*
X17785760Y-35403498D01*
X17688740Y-35459513D01*
X17688734Y-35459517D01*
X17609517Y-35538734D01*
X17609513Y-35538740D01*
X17553498Y-35635760D01*
X17553497Y-35635763D01*
X17524500Y-35743982D01*
X17524500Y-35856018D01*
X17551443Y-35956569D01*
X17553497Y-35964236D01*
X17553498Y-35964239D01*
X17565237Y-35984572D01*
X17609515Y-36061263D01*
X17688737Y-36140485D01*
X17785763Y-36196503D01*
X17893982Y-36225500D01*
X17893984Y-36225500D01*
X18006013Y-36225500D01*
X18006018Y-36225500D01*
X18006022Y-36225498D01*
X18006719Y-36225407D01*
X18007316Y-36225500D01*
X18014145Y-36225500D01*
X18014145Y-36226564D01*
X18075755Y-36236168D01*
X18128014Y-36282544D01*
X18146904Y-36349811D01*
X18145652Y-36365987D01*
X18144500Y-36374001D01*
X18144500Y-37770500D01*
X18124815Y-37837539D01*
X18072011Y-37883294D01*
X18020500Y-37894500D01*
X14373992Y-37894500D01*
X14330313Y-37899197D01*
X14278825Y-37910397D01*
X14268627Y-37912890D01*
X14268624Y-37912891D01*
X14187916Y-37955899D01*
X14187913Y-37955901D01*
X14135104Y-38001660D01*
X14117160Y-38019242D01*
X14117154Y-38019249D01*
X14072511Y-38099059D01*
X14072509Y-38099064D01*
X14052826Y-38166096D01*
X14052825Y-38166101D01*
X14052825Y-38166102D01*
X14044500Y-38224000D01*
X12650000Y-38224000D01*
X12650000Y-34943982D01*
X15924500Y-34943982D01*
X15924500Y-35056018D01*
X15953497Y-35164237D01*
X16009515Y-35261263D01*
X16088737Y-35340485D01*
X16185763Y-35396503D01*
X16293982Y-35425500D01*
X16293984Y-35425500D01*
X16406016Y-35425500D01*
X16406018Y-35425500D01*
X16514237Y-35396503D01*
X16611263Y-35340485D01*
X16690485Y-35261263D01*
X16746503Y-35164237D01*
X16775500Y-35056018D01*
X16775500Y-34943982D01*
X16746503Y-34835763D01*
X16690485Y-34738737D01*
X16611263Y-34659515D01*
X16514237Y-34603497D01*
X16406018Y-34574500D01*
X16293982Y-34574500D01*
X16185763Y-34603497D01*
X16185760Y-34603498D01*
X16088740Y-34659513D01*
X16088734Y-34659517D01*
X16009517Y-34738734D01*
X16009513Y-34738740D01*
X15953498Y-34835760D01*
X15953497Y-34835763D01*
X15924500Y-34943982D01*
X12650000Y-34943982D01*
X12650000Y-34143982D01*
X19924500Y-34143982D01*
X19924500Y-34256018D01*
X19953497Y-34364237D01*
X20009515Y-34461263D01*
X20088737Y-34540485D01*
X20185763Y-34596503D01*
X20293982Y-34625500D01*
X20293984Y-34625500D01*
X20406016Y-34625500D01*
X20406018Y-34625500D01*
X20514237Y-34596503D01*
X20611263Y-34540485D01*
X20690485Y-34461263D01*
X20746503Y-34364237D01*
X20775500Y-34256018D01*
X20775500Y-34143982D01*
X20746503Y-34035763D01*
X20690485Y-33938737D01*
X20611263Y-33859515D01*
X20514237Y-33803497D01*
X20406018Y-33774500D01*
X20293982Y-33774500D01*
X20185763Y-33803497D01*
X20185760Y-33803498D01*
X20088740Y-33859513D01*
X20088734Y-33859517D01*
X20009517Y-33938734D01*
X20009513Y-33938740D01*
X19953498Y-34035760D01*
X19953497Y-34035763D01*
X19924500Y-34143982D01*
X12650000Y-34143982D01*
X12650000Y-32493982D01*
X14274500Y-32493982D01*
X14274500Y-32606018D01*
X14303497Y-32714237D01*
X14359515Y-32811263D01*
X14438737Y-32890485D01*
X14535763Y-32946503D01*
X14643982Y-32975500D01*
X14643984Y-32975500D01*
X14756016Y-32975500D01*
X14756018Y-32975500D01*
X14864237Y-32946503D01*
X14961263Y-32890485D01*
X15040485Y-32811263D01*
X15096503Y-32714237D01*
X15125500Y-32606018D01*
X15125500Y-32493982D01*
X15096503Y-32385763D01*
X15040485Y-32288737D01*
X14961263Y-32209515D01*
X14864237Y-32153497D01*
X14756018Y-32124500D01*
X14643982Y-32124500D01*
X14535763Y-32153497D01*
X14535760Y-32153498D01*
X14438740Y-32209513D01*
X14438734Y-32209517D01*
X14359517Y-32288734D01*
X14359513Y-32288740D01*
X14303498Y-32385760D01*
X14303497Y-32385763D01*
X14274500Y-32493982D01*
X12650000Y-32493982D01*
X12650000Y-18624000D01*
X12669685Y-18556961D01*
X12722489Y-18511206D01*
X12774000Y-18500000D01*
X42026000Y-18500000D01*
X42093039Y-18519685D01*
G37*
%TD.AperFunction*%
%TD*%
%TA.AperFunction,NonConductor*%
G36*
X21786467Y-40725185D02*
G01*
X21832222Y-40777989D01*
X21842166Y-40847147D01*
X21813141Y-40910703D01*
X21754363Y-40948477D01*
X21751567Y-40949262D01*
X21735763Y-40953497D01*
X21735761Y-40953498D01*
X21735760Y-40953498D01*
X21638740Y-41009513D01*
X21638734Y-41009517D01*
X21587681Y-41060571D01*
X21526358Y-41094056D01*
X21456666Y-41089072D01*
X21412319Y-41060571D01*
X21361265Y-41009517D01*
X21361263Y-41009515D01*
X21264237Y-40953497D01*
X21248476Y-40949273D01*
X21188818Y-40912910D01*
X21158289Y-40850063D01*
X21166584Y-40780687D01*
X21211069Y-40726810D01*
X21277621Y-40705535D01*
X21280572Y-40705500D01*
X21719428Y-40705500D01*
X21786467Y-40725185D01*
G37*
%TD.AperFunction*%
M02*
