%TF.GenerationSoftware,KiCad,Pcbnew,9.0.4-9.0.4-0~ubuntu24.04.1*%
%TF.CreationDate,2025-08-22T19:02:33+03:00*%
%TF.ProjectId,ThingsCore-1,5468696e-6773-4436-9f72-652d312e6b69,rev?*%
%TF.SameCoordinates,Original*%
%TF.FileFunction,Soldermask,Top*%
%TF.FilePolarity,Negative*%
%FSLAX46Y46*%
G04 Gerber Fmt 4.6, Leading zero omitted, Abs format (unit mm)*
G04 Created by KiCad (PCBNEW 9.0.4-9.0.4-0~ubuntu24.04.1) date 2025-08-22 19:02:33*
%MOMM*%
%LPD*%
G01*
G04 APERTURE LIST*
G04 Aperture macros list*
%AMRoundRect*
0 Rectangle with rounded corners*
0 $1 Rounding radius*
0 $2 $3 $4 $5 $6 $7 $8 $9 X,Y pos of 4 corners*
0 Add a 4 corners polygon primitive as box body*
4,1,4,$2,$3,$4,$5,$6,$7,$8,$9,$2,$3,0*
0 Add four circle primitives for the rounded corners*
1,1,$1+$1,$2,$3*
1,1,$1+$1,$4,$5*
1,1,$1+$1,$6,$7*
1,1,$1+$1,$8,$9*
0 Add four rect primitives between the rounded corners*
20,1,$1+$1,$2,$3,$4,$5,0*
20,1,$1+$1,$4,$5,$6,$7,0*
20,1,$1+$1,$6,$7,$8,$9,0*
20,1,$1+$1,$8,$9,$2,$3,0*%
G04 Aperture macros list end*
%ADD10C,0.526000*%
%ADD11C,0.420000*%
%ADD12RoundRect,0.038000X0.900000X-0.675000X0.900000X0.675000X-0.900000X0.675000X-0.900000X-0.675000X0*%
%ADD13RoundRect,0.081500X-0.344000X-0.081500X0.344000X-0.081500X0.344000X0.081500X-0.344000X0.081500X0*%
%ADD14RoundRect,0.081500X-0.081500X-0.344000X0.081500X-0.344000X0.081500X0.344000X-0.081500X0.344000X0*%
%ADD15RoundRect,0.038000X-1.225000X-1.225000X1.225000X-1.225000X1.225000X1.225000X-1.225000X1.225000X0*%
%ADD16RoundRect,0.038000X-0.475000X0.225000X-0.475000X-0.225000X0.475000X-0.225000X0.475000X0.225000X0*%
%ADD17RoundRect,0.038000X1.725000X2.175000X-1.725000X2.175000X-1.725000X-2.175000X1.725000X-2.175000X0*%
%ADD18RoundRect,0.038000X-2.900000X-2.900000X2.900000X-2.900000X2.900000X2.900000X-2.900000X2.900000X0*%
%ADD19RoundRect,0.038000X-0.300000X-1.000000X0.300000X-1.000000X0.300000X1.000000X-0.300000X1.000000X0*%
G04 APERTURE END LIST*
D10*
%TO.C,U2*%
X28550000Y-21500000D03*
X29350000Y-21500000D03*
X30150000Y-21500000D03*
X33350000Y-21500000D03*
X34150000Y-21500000D03*
X34950000Y-21500000D03*
X28550000Y-22300000D03*
X29350000Y-22300000D03*
X30150000Y-22300000D03*
X33350000Y-22300000D03*
X34150000Y-22300000D03*
X34950000Y-22300000D03*
X28550000Y-23100000D03*
X29350000Y-23100000D03*
X30150000Y-23100000D03*
X33350000Y-23100000D03*
X34150000Y-23100000D03*
X34950000Y-23100000D03*
X28550000Y-23900000D03*
X29350000Y-23900000D03*
X30150000Y-23900000D03*
X33350000Y-23900000D03*
X34150000Y-23900000D03*
X34950000Y-23900000D03*
X28550000Y-24700000D03*
X29350000Y-24700000D03*
X30150000Y-24700000D03*
X33350000Y-24700000D03*
X34150000Y-24700000D03*
X34950000Y-24700000D03*
X28550000Y-25500000D03*
X29350000Y-25500000D03*
X30150000Y-25500000D03*
X33350000Y-25500000D03*
X34150000Y-25500000D03*
X34950000Y-25500000D03*
X28550000Y-26300000D03*
X29350000Y-26300000D03*
X30150000Y-26300000D03*
X33350000Y-26300000D03*
X34150000Y-26300000D03*
X34950000Y-26300000D03*
X28550000Y-27100000D03*
X29350000Y-27100000D03*
X30150000Y-27100000D03*
X33350000Y-27100000D03*
X34150000Y-27100000D03*
X34950000Y-27100000D03*
X28550000Y-27900000D03*
X29350000Y-27900000D03*
X30150000Y-27900000D03*
X33350000Y-27900000D03*
X34150000Y-27900000D03*
X34950000Y-27900000D03*
X28550000Y-28700000D03*
X29350000Y-28700000D03*
X30150000Y-28700000D03*
X33350000Y-28700000D03*
X34150000Y-28700000D03*
X34950000Y-28700000D03*
X28550000Y-29500000D03*
X29350000Y-29500000D03*
X30150000Y-29500000D03*
X33350000Y-29500000D03*
X34150000Y-29500000D03*
X34950000Y-29500000D03*
X28550000Y-30300000D03*
X29350000Y-30300000D03*
X30150000Y-30300000D03*
X33350000Y-30300000D03*
X34150000Y-30300000D03*
X34950000Y-30300000D03*
X28550000Y-31100000D03*
X29350000Y-31100000D03*
X30150000Y-31100000D03*
X33350000Y-31100000D03*
X34150000Y-31100000D03*
X34950000Y-31100000D03*
X28550000Y-31900000D03*
X29350000Y-31900000D03*
X30150000Y-31900000D03*
X33350000Y-31900000D03*
X34150000Y-31900000D03*
X34950000Y-31900000D03*
X28550000Y-32700000D03*
X29350000Y-32700000D03*
X30150000Y-32700000D03*
X33350000Y-32700000D03*
X34150000Y-32700000D03*
X34950000Y-32700000D03*
X28550000Y-33500000D03*
X29350000Y-33500000D03*
X30150000Y-33500000D03*
X33350000Y-33500000D03*
X34150000Y-33500000D03*
X34950000Y-33500000D03*
%TD*%
D11*
%TO.C,U7*%
X27700000Y-53600000D03*
X27700000Y-52800000D03*
X27700000Y-52000000D03*
X27700000Y-51200000D03*
X27700000Y-50400000D03*
X27700000Y-49600000D03*
X27700000Y-48800000D03*
X27700000Y-48000000D03*
X27700000Y-47200000D03*
X27700000Y-46400000D03*
X27700000Y-45600000D03*
X27700000Y-44800000D03*
X27700000Y-44000000D03*
X27700000Y-43200000D03*
X27700000Y-42400000D03*
X27700000Y-41600000D03*
X27700000Y-40800000D03*
X28500000Y-53600000D03*
X28500000Y-52800000D03*
X28500000Y-52000000D03*
X28500000Y-51200000D03*
X28500000Y-50400000D03*
X28500000Y-49600000D03*
X28500000Y-48800000D03*
X28500000Y-48000000D03*
X28500000Y-47200000D03*
X28500000Y-46400000D03*
X28500000Y-45600000D03*
X28500000Y-44800000D03*
X28500000Y-44000000D03*
X28500000Y-43200000D03*
X28500000Y-42400000D03*
X28500000Y-41600000D03*
X28500000Y-40800000D03*
X29300000Y-53600000D03*
X29300000Y-52800000D03*
X29300000Y-52000000D03*
X29300000Y-51200000D03*
X29300000Y-50400000D03*
X29300000Y-49600000D03*
X29300000Y-48800000D03*
X29300000Y-48000000D03*
X29300000Y-47200000D03*
X29300000Y-46400000D03*
X29300000Y-45600000D03*
X29300000Y-44800000D03*
X29300000Y-44000000D03*
X29300000Y-43200000D03*
X29300000Y-42400000D03*
X29300000Y-41600000D03*
X29300000Y-40800000D03*
X30100000Y-53600000D03*
X30100000Y-52800000D03*
X30100000Y-52000000D03*
X30100000Y-51200000D03*
X30100000Y-50400000D03*
X30100000Y-49600000D03*
X30100000Y-48800000D03*
X30100000Y-48000000D03*
X30100000Y-47200000D03*
X30100000Y-46400000D03*
X30100000Y-45600000D03*
X30100000Y-44800000D03*
X30100000Y-44000000D03*
X30100000Y-43200000D03*
X30100000Y-42400000D03*
X30100000Y-41600000D03*
X30100000Y-40800000D03*
X30900000Y-53600000D03*
X30900000Y-52800000D03*
X30900000Y-52000000D03*
X30900000Y-51200000D03*
X30900000Y-50400000D03*
X30900000Y-49600000D03*
X30900000Y-48800000D03*
X30900000Y-48000000D03*
X30900000Y-47200000D03*
X30900000Y-46400000D03*
X30900000Y-45600000D03*
X30900000Y-44800000D03*
X30900000Y-44000000D03*
X30900000Y-43200000D03*
X30900000Y-42400000D03*
X30900000Y-41600000D03*
X30900000Y-40800000D03*
X31700000Y-53600000D03*
X31700000Y-52800000D03*
X31700000Y-52000000D03*
X31700000Y-51200000D03*
X31700000Y-50400000D03*
X31700000Y-49600000D03*
X31700000Y-48800000D03*
X31700000Y-48000000D03*
X31700000Y-47200000D03*
X31700000Y-46400000D03*
X31700000Y-45600000D03*
X31700000Y-44800000D03*
X31700000Y-44000000D03*
X31700000Y-43200000D03*
X31700000Y-42400000D03*
X31700000Y-41600000D03*
X31700000Y-40800000D03*
X32500000Y-53600000D03*
X32500000Y-52800000D03*
X32500000Y-52000000D03*
X32500000Y-51200000D03*
X32500000Y-50400000D03*
X32500000Y-49600000D03*
X32500000Y-48800000D03*
X32500000Y-48000000D03*
X32500000Y-47200000D03*
X32500000Y-46400000D03*
X32500000Y-45600000D03*
X32500000Y-44800000D03*
X32500000Y-44000000D03*
X32500000Y-43200000D03*
X32500000Y-42400000D03*
X32500000Y-41600000D03*
X32500000Y-40800000D03*
X33300000Y-53600000D03*
X33300000Y-52800000D03*
X33300000Y-52000000D03*
X33300000Y-51200000D03*
X33300000Y-50400000D03*
X33300000Y-49600000D03*
X33300000Y-48800000D03*
X33300000Y-48000000D03*
X33300000Y-47200000D03*
X33300000Y-46400000D03*
X33300000Y-45600000D03*
X33300000Y-44800000D03*
X33300000Y-44000000D03*
X33300000Y-43200000D03*
X33300000Y-42400000D03*
X33300000Y-41600000D03*
X33300000Y-40800000D03*
X34100000Y-53600000D03*
X34100000Y-52800000D03*
X34100000Y-52000000D03*
X34100000Y-51200000D03*
X34100000Y-50400000D03*
X34100000Y-49600000D03*
X34100000Y-48800000D03*
X34100000Y-48000000D03*
X34100000Y-47200000D03*
X34100000Y-46400000D03*
X34100000Y-45600000D03*
X34100000Y-44800000D03*
X34100000Y-44000000D03*
X34100000Y-43200000D03*
X34100000Y-42400000D03*
X34100000Y-41600000D03*
X34100000Y-40800000D03*
X34900000Y-53600000D03*
X34900000Y-52800000D03*
X34900000Y-52000000D03*
X34900000Y-51200000D03*
X34900000Y-50400000D03*
X34900000Y-49600000D03*
X34900000Y-48800000D03*
X34900000Y-48000000D03*
X34900000Y-47200000D03*
X34900000Y-46400000D03*
X34900000Y-45600000D03*
X34900000Y-44800000D03*
X34900000Y-44000000D03*
X34900000Y-43200000D03*
X34900000Y-42400000D03*
X34900000Y-41600000D03*
X34900000Y-40800000D03*
X35700000Y-53600000D03*
X35700000Y-52800000D03*
X35700000Y-52000000D03*
X35700000Y-51200000D03*
X35700000Y-50400000D03*
X35700000Y-49600000D03*
X35700000Y-48800000D03*
X35700000Y-48000000D03*
X35700000Y-47200000D03*
X35700000Y-46400000D03*
X35700000Y-45600000D03*
X35700000Y-44800000D03*
X35700000Y-44000000D03*
X35700000Y-43200000D03*
X35700000Y-42400000D03*
X35700000Y-41600000D03*
X35700000Y-40800000D03*
X36500000Y-53600000D03*
X36500000Y-52800000D03*
X36500000Y-52000000D03*
X36500000Y-51200000D03*
X36500000Y-50400000D03*
X36500000Y-49600000D03*
X36500000Y-48800000D03*
X36500000Y-48000000D03*
X36500000Y-47200000D03*
X36500000Y-46400000D03*
X36500000Y-45600000D03*
X36500000Y-44800000D03*
X36500000Y-44000000D03*
X36500000Y-43200000D03*
X36500000Y-42400000D03*
X36500000Y-41600000D03*
X36500000Y-40800000D03*
X37300000Y-53600000D03*
X37300000Y-52800000D03*
X37300000Y-52000000D03*
X37300000Y-51200000D03*
X37300000Y-50400000D03*
X37300000Y-49600000D03*
X37300000Y-48800000D03*
X37300000Y-48000000D03*
X37300000Y-47200000D03*
X37300000Y-46400000D03*
X37300000Y-45600000D03*
X37300000Y-44800000D03*
X37300000Y-44000000D03*
X37300000Y-43200000D03*
X37300000Y-42400000D03*
X37300000Y-41600000D03*
X37300000Y-40800000D03*
X38100000Y-53600000D03*
X38100000Y-52800000D03*
X38100000Y-52000000D03*
X38100000Y-51200000D03*
X38100000Y-50400000D03*
X38100000Y-49600000D03*
X38100000Y-48800000D03*
X38100000Y-48000000D03*
X38100000Y-47200000D03*
X38100000Y-46400000D03*
X38100000Y-45600000D03*
X38100000Y-44800000D03*
X38100000Y-44000000D03*
X38100000Y-43200000D03*
X38100000Y-42400000D03*
X38100000Y-41600000D03*
X38100000Y-40800000D03*
X38900000Y-53600000D03*
X38900000Y-52800000D03*
X38900000Y-52000000D03*
X38900000Y-51200000D03*
X38900000Y-50400000D03*
X38900000Y-49600000D03*
X38900000Y-48800000D03*
X38900000Y-48000000D03*
X38900000Y-47200000D03*
X38900000Y-46400000D03*
X38900000Y-45600000D03*
X38900000Y-44800000D03*
X38900000Y-44000000D03*
X38900000Y-43200000D03*
X38900000Y-42400000D03*
X38900000Y-41600000D03*
X38900000Y-40800000D03*
X39700000Y-53600000D03*
X39700000Y-52800000D03*
X39700000Y-52000000D03*
X39700000Y-51200000D03*
X39700000Y-50400000D03*
X39700000Y-49600000D03*
X39700000Y-48800000D03*
X39700000Y-48000000D03*
X39700000Y-47200000D03*
X39700000Y-46400000D03*
X39700000Y-45600000D03*
X39700000Y-44800000D03*
X39700000Y-44000000D03*
X39700000Y-43200000D03*
X39700000Y-42400000D03*
X39700000Y-41600000D03*
X39700000Y-40800000D03*
X40500000Y-53600000D03*
X40500000Y-52800000D03*
X40500000Y-52000000D03*
X40500000Y-51200000D03*
X40500000Y-50400000D03*
X40500000Y-49600000D03*
X40500000Y-48800000D03*
X40500000Y-48000000D03*
X40500000Y-47200000D03*
X40500000Y-46400000D03*
X40500000Y-45600000D03*
X40500000Y-44800000D03*
X40500000Y-44000000D03*
X40500000Y-43200000D03*
X40500000Y-42400000D03*
X40500000Y-41600000D03*
X40500000Y-40800000D03*
%TD*%
D12*
%TO.C,S2*%
X39200000Y-32775000D03*
X39200000Y-28625000D03*
%TD*%
D13*
%TO.C,U6*%
X16762500Y-46100000D03*
X16762500Y-46600000D03*
X16762500Y-47100000D03*
X16762500Y-47600000D03*
X16762500Y-48100000D03*
X16762500Y-48600000D03*
D14*
X17500000Y-49337500D03*
X18000000Y-49337500D03*
X18500000Y-49337500D03*
X19000000Y-49337500D03*
X19500000Y-49337500D03*
X20000000Y-49337500D03*
D13*
X20737500Y-48600000D03*
X20737500Y-48100000D03*
X20737500Y-47600000D03*
X20737500Y-47100000D03*
X20737500Y-46600000D03*
X20737500Y-46100000D03*
D14*
X20000000Y-45362500D03*
X19500000Y-45362500D03*
X19000000Y-45362500D03*
X18500000Y-45362500D03*
X18000000Y-45362500D03*
X17500000Y-45362500D03*
D15*
X18750000Y-47350000D03*
%TD*%
D16*
%TO.C,U8*%
X68800000Y-38705000D03*
X68800000Y-37435000D03*
X68800000Y-36165000D03*
X68800000Y-34895000D03*
X61000000Y-34895000D03*
X61000000Y-36165000D03*
X61000000Y-37435000D03*
X61000000Y-38705000D03*
D17*
X64900000Y-36800000D03*
%TD*%
D12*
%TO.C,S1*%
X39200000Y-26025000D03*
X39200000Y-21875000D03*
%TD*%
D18*
%TO.C,U1*%
X15307328Y-15308537D03*
X39486338Y-15314455D03*
D19*
X15700000Y-61802500D03*
X16500000Y-61802500D03*
X17300000Y-61802500D03*
X18100000Y-61802500D03*
X18900000Y-61802500D03*
X19700000Y-61802500D03*
X20500000Y-61802500D03*
X21300000Y-61802500D03*
X25300000Y-61802500D03*
X26100000Y-61802500D03*
X26900000Y-61802500D03*
X27700000Y-61802500D03*
X28500000Y-61802500D03*
X29300000Y-61802500D03*
X30100000Y-61802500D03*
X30900000Y-61802500D03*
X31700000Y-61802500D03*
X32500000Y-61802500D03*
X33300000Y-61802500D03*
X34100000Y-61802500D03*
X34900000Y-61802500D03*
X35700000Y-61802500D03*
X36500000Y-61802500D03*
X37300000Y-61802500D03*
X38100000Y-61802500D03*
X38900000Y-61802500D03*
%TD*%
M02*
