%TF.GenerationSoftware,KiCad,Pcbnew,9.0.4-9.0.4-0~ubuntu24.04.1*%
%TF.CreationDate,2025-08-22T19:02:33+03:00*%
%TF.ProjectId,ThingsCore-1,5468696e-6773-4436-9f72-652d312e6b69,rev?*%
%TF.SameCoordinates,Original*%
%TF.FileFunction,AssemblyDrawing,Top*%
%FSLAX46Y46*%
G04 Gerber Fmt 4.6, Leading zero omitted, Abs format (unit mm)*
G04 Created by KiCad (PCBNEW 9.0.4-9.0.4-0~ubuntu24.04.1) date 2025-08-22 19:02:33*
%MOMM*%
%LPD*%
G01*
G04 APERTURE LIST*
%ADD10C,0.254000*%
%ADD11C,0.150000*%
%ADD12C,0.100000*%
G04 APERTURE END LIST*
D10*
X30782380Y-26804318D02*
X30782380Y-27832413D01*
X30782380Y-27832413D02*
X30842857Y-27953365D01*
X30842857Y-27953365D02*
X30903333Y-28013842D01*
X30903333Y-28013842D02*
X31024285Y-28074318D01*
X31024285Y-28074318D02*
X31266190Y-28074318D01*
X31266190Y-28074318D02*
X31387142Y-28013842D01*
X31387142Y-28013842D02*
X31447619Y-27953365D01*
X31447619Y-27953365D02*
X31508095Y-27832413D01*
X31508095Y-27832413D02*
X31508095Y-26804318D01*
X32052380Y-26925270D02*
X32112856Y-26864794D01*
X32112856Y-26864794D02*
X32233809Y-26804318D01*
X32233809Y-26804318D02*
X32536190Y-26804318D01*
X32536190Y-26804318D02*
X32657142Y-26864794D01*
X32657142Y-26864794D02*
X32717618Y-26925270D01*
X32717618Y-26925270D02*
X32778095Y-27046222D01*
X32778095Y-27046222D02*
X32778095Y-27167175D01*
X32778095Y-27167175D02*
X32717618Y-27348603D01*
X32717618Y-27348603D02*
X31991904Y-28074318D01*
X31991904Y-28074318D02*
X32778095Y-28074318D01*
D11*
X42507200Y-53747618D02*
X42554819Y-53604761D01*
X42554819Y-53604761D02*
X42554819Y-53366666D01*
X42554819Y-53366666D02*
X42507200Y-53271428D01*
X42507200Y-53271428D02*
X42459580Y-53223809D01*
X42459580Y-53223809D02*
X42364342Y-53176190D01*
X42364342Y-53176190D02*
X42269104Y-53176190D01*
X42269104Y-53176190D02*
X42173866Y-53223809D01*
X42173866Y-53223809D02*
X42126247Y-53271428D01*
X42126247Y-53271428D02*
X42078628Y-53366666D01*
X42078628Y-53366666D02*
X42031009Y-53557142D01*
X42031009Y-53557142D02*
X41983390Y-53652380D01*
X41983390Y-53652380D02*
X41935771Y-53699999D01*
X41935771Y-53699999D02*
X41840533Y-53747618D01*
X41840533Y-53747618D02*
X41745295Y-53747618D01*
X41745295Y-53747618D02*
X41650057Y-53699999D01*
X41650057Y-53699999D02*
X41602438Y-53652380D01*
X41602438Y-53652380D02*
X41554819Y-53557142D01*
X41554819Y-53557142D02*
X41554819Y-53319047D01*
X41554819Y-53319047D02*
X41602438Y-53176190D01*
X41554819Y-52890475D02*
X41554819Y-52319047D01*
X42554819Y-52604761D02*
X41554819Y-52604761D01*
X42554819Y-51985713D02*
X41554819Y-51985713D01*
X41554819Y-51985713D02*
X42269104Y-51652380D01*
X42269104Y-51652380D02*
X41554819Y-51319047D01*
X41554819Y-51319047D02*
X42554819Y-51319047D01*
X41554819Y-50938094D02*
X41554819Y-50319047D01*
X41554819Y-50319047D02*
X41935771Y-50652380D01*
X41935771Y-50652380D02*
X41935771Y-50509523D01*
X41935771Y-50509523D02*
X41983390Y-50414285D01*
X41983390Y-50414285D02*
X42031009Y-50366666D01*
X42031009Y-50366666D02*
X42126247Y-50319047D01*
X42126247Y-50319047D02*
X42364342Y-50319047D01*
X42364342Y-50319047D02*
X42459580Y-50366666D01*
X42459580Y-50366666D02*
X42507200Y-50414285D01*
X42507200Y-50414285D02*
X42554819Y-50509523D01*
X42554819Y-50509523D02*
X42554819Y-50795237D01*
X42554819Y-50795237D02*
X42507200Y-50890475D01*
X42507200Y-50890475D02*
X42459580Y-50938094D01*
X41650057Y-49938094D02*
X41602438Y-49890475D01*
X41602438Y-49890475D02*
X41554819Y-49795237D01*
X41554819Y-49795237D02*
X41554819Y-49557142D01*
X41554819Y-49557142D02*
X41602438Y-49461904D01*
X41602438Y-49461904D02*
X41650057Y-49414285D01*
X41650057Y-49414285D02*
X41745295Y-49366666D01*
X41745295Y-49366666D02*
X41840533Y-49366666D01*
X41840533Y-49366666D02*
X41983390Y-49414285D01*
X41983390Y-49414285D02*
X42554819Y-49985713D01*
X42554819Y-49985713D02*
X42554819Y-49366666D01*
X42554819Y-48938094D02*
X41554819Y-48938094D01*
X41554819Y-48938094D02*
X42269104Y-48604761D01*
X42269104Y-48604761D02*
X41554819Y-48271428D01*
X41554819Y-48271428D02*
X42554819Y-48271428D01*
X42554819Y-47795237D02*
X41554819Y-47795237D01*
X41554819Y-47795237D02*
X41554819Y-47414285D01*
X41554819Y-47414285D02*
X41602438Y-47319047D01*
X41602438Y-47319047D02*
X41650057Y-47271428D01*
X41650057Y-47271428D02*
X41745295Y-47223809D01*
X41745295Y-47223809D02*
X41888152Y-47223809D01*
X41888152Y-47223809D02*
X41983390Y-47271428D01*
X41983390Y-47271428D02*
X42031009Y-47319047D01*
X42031009Y-47319047D02*
X42078628Y-47414285D01*
X42078628Y-47414285D02*
X42078628Y-47795237D01*
X42554819Y-46271428D02*
X42554819Y-46842856D01*
X42554819Y-46557142D02*
X41554819Y-46557142D01*
X41554819Y-46557142D02*
X41697676Y-46652380D01*
X41697676Y-46652380D02*
X41792914Y-46747618D01*
X41792914Y-46747618D02*
X41840533Y-46842856D01*
X41554819Y-45938094D02*
X41554819Y-45319047D01*
X41554819Y-45319047D02*
X41935771Y-45652380D01*
X41935771Y-45652380D02*
X41935771Y-45509523D01*
X41935771Y-45509523D02*
X41983390Y-45414285D01*
X41983390Y-45414285D02*
X42031009Y-45366666D01*
X42031009Y-45366666D02*
X42126247Y-45319047D01*
X42126247Y-45319047D02*
X42364342Y-45319047D01*
X42364342Y-45319047D02*
X42459580Y-45366666D01*
X42459580Y-45366666D02*
X42507200Y-45414285D01*
X42507200Y-45414285D02*
X42554819Y-45509523D01*
X42554819Y-45509523D02*
X42554819Y-45795237D01*
X42554819Y-45795237D02*
X42507200Y-45890475D01*
X42507200Y-45890475D02*
X42459580Y-45938094D01*
X41554819Y-44985713D02*
X41554819Y-44366666D01*
X41554819Y-44366666D02*
X41935771Y-44699999D01*
X41935771Y-44699999D02*
X41935771Y-44557142D01*
X41935771Y-44557142D02*
X41983390Y-44461904D01*
X41983390Y-44461904D02*
X42031009Y-44414285D01*
X42031009Y-44414285D02*
X42126247Y-44366666D01*
X42126247Y-44366666D02*
X42364342Y-44366666D01*
X42364342Y-44366666D02*
X42459580Y-44414285D01*
X42459580Y-44414285D02*
X42507200Y-44461904D01*
X42507200Y-44461904D02*
X42554819Y-44557142D01*
X42554819Y-44557142D02*
X42554819Y-44842856D01*
X42554819Y-44842856D02*
X42507200Y-44938094D01*
X42507200Y-44938094D02*
X42459580Y-44985713D01*
X42554819Y-43938094D02*
X41554819Y-43938094D01*
X41554819Y-43938094D02*
X41554819Y-43699999D01*
X41554819Y-43699999D02*
X41602438Y-43557142D01*
X41602438Y-43557142D02*
X41697676Y-43461904D01*
X41697676Y-43461904D02*
X41792914Y-43414285D01*
X41792914Y-43414285D02*
X41983390Y-43366666D01*
X41983390Y-43366666D02*
X42126247Y-43366666D01*
X42126247Y-43366666D02*
X42316723Y-43414285D01*
X42316723Y-43414285D02*
X42411961Y-43461904D01*
X42411961Y-43461904D02*
X42507200Y-43557142D01*
X42507200Y-43557142D02*
X42554819Y-43699999D01*
X42554819Y-43699999D02*
X42554819Y-43938094D01*
X42269104Y-42985713D02*
X42269104Y-42509523D01*
X42554819Y-43080951D02*
X41554819Y-42747618D01*
X41554819Y-42747618D02*
X42554819Y-42414285D01*
X42031009Y-42080951D02*
X42031009Y-41747618D01*
X42554819Y-41604761D02*
X42554819Y-42080951D01*
X42554819Y-42080951D02*
X41554819Y-42080951D01*
X41554819Y-42080951D02*
X41554819Y-41604761D01*
X41554819Y-41271427D02*
X41554819Y-40604761D01*
X41554819Y-40604761D02*
X42554819Y-41033332D01*
X33554819Y-47961904D02*
X34364342Y-47961904D01*
X34364342Y-47961904D02*
X34459580Y-47914285D01*
X34459580Y-47914285D02*
X34507200Y-47866666D01*
X34507200Y-47866666D02*
X34554819Y-47771428D01*
X34554819Y-47771428D02*
X34554819Y-47580952D01*
X34554819Y-47580952D02*
X34507200Y-47485714D01*
X34507200Y-47485714D02*
X34459580Y-47438095D01*
X34459580Y-47438095D02*
X34364342Y-47390476D01*
X34364342Y-47390476D02*
X33554819Y-47390476D01*
X33554819Y-47009523D02*
X33554819Y-46342857D01*
X33554819Y-46342857D02*
X34554819Y-46771428D01*
D10*
X39713842Y-31667619D02*
X39774318Y-31486190D01*
X39774318Y-31486190D02*
X39774318Y-31183809D01*
X39774318Y-31183809D02*
X39713842Y-31062857D01*
X39713842Y-31062857D02*
X39653365Y-31002381D01*
X39653365Y-31002381D02*
X39532413Y-30941904D01*
X39532413Y-30941904D02*
X39411461Y-30941904D01*
X39411461Y-30941904D02*
X39290508Y-31002381D01*
X39290508Y-31002381D02*
X39230032Y-31062857D01*
X39230032Y-31062857D02*
X39169556Y-31183809D01*
X39169556Y-31183809D02*
X39109080Y-31425714D01*
X39109080Y-31425714D02*
X39048603Y-31546666D01*
X39048603Y-31546666D02*
X38988127Y-31607143D01*
X38988127Y-31607143D02*
X38867175Y-31667619D01*
X38867175Y-31667619D02*
X38746222Y-31667619D01*
X38746222Y-31667619D02*
X38625270Y-31607143D01*
X38625270Y-31607143D02*
X38564794Y-31546666D01*
X38564794Y-31546666D02*
X38504318Y-31425714D01*
X38504318Y-31425714D02*
X38504318Y-31123333D01*
X38504318Y-31123333D02*
X38564794Y-30941904D01*
X38625270Y-30458095D02*
X38564794Y-30397619D01*
X38564794Y-30397619D02*
X38504318Y-30276666D01*
X38504318Y-30276666D02*
X38504318Y-29974285D01*
X38504318Y-29974285D02*
X38564794Y-29853333D01*
X38564794Y-29853333D02*
X38625270Y-29792857D01*
X38625270Y-29792857D02*
X38746222Y-29732380D01*
X38746222Y-29732380D02*
X38867175Y-29732380D01*
X38867175Y-29732380D02*
X39048603Y-29792857D01*
X39048603Y-29792857D02*
X39774318Y-30518571D01*
X39774318Y-30518571D02*
X39774318Y-29732380D01*
D11*
X15773809Y-51134819D02*
X15297619Y-51134819D01*
X15297619Y-51134819D02*
X15297619Y-50134819D01*
X16059524Y-50849104D02*
X16535714Y-50849104D01*
X15964286Y-51134819D02*
X16297619Y-50134819D01*
X16297619Y-50134819D02*
X16630952Y-51134819D01*
X16964286Y-51134819D02*
X16964286Y-50134819D01*
X16964286Y-50134819D02*
X17535714Y-51134819D01*
X17535714Y-51134819D02*
X17535714Y-50134819D01*
X18154762Y-50563390D02*
X18059524Y-50515771D01*
X18059524Y-50515771D02*
X18011905Y-50468152D01*
X18011905Y-50468152D02*
X17964286Y-50372914D01*
X17964286Y-50372914D02*
X17964286Y-50325295D01*
X17964286Y-50325295D02*
X18011905Y-50230057D01*
X18011905Y-50230057D02*
X18059524Y-50182438D01*
X18059524Y-50182438D02*
X18154762Y-50134819D01*
X18154762Y-50134819D02*
X18345238Y-50134819D01*
X18345238Y-50134819D02*
X18440476Y-50182438D01*
X18440476Y-50182438D02*
X18488095Y-50230057D01*
X18488095Y-50230057D02*
X18535714Y-50325295D01*
X18535714Y-50325295D02*
X18535714Y-50372914D01*
X18535714Y-50372914D02*
X18488095Y-50468152D01*
X18488095Y-50468152D02*
X18440476Y-50515771D01*
X18440476Y-50515771D02*
X18345238Y-50563390D01*
X18345238Y-50563390D02*
X18154762Y-50563390D01*
X18154762Y-50563390D02*
X18059524Y-50611009D01*
X18059524Y-50611009D02*
X18011905Y-50658628D01*
X18011905Y-50658628D02*
X17964286Y-50753866D01*
X17964286Y-50753866D02*
X17964286Y-50944342D01*
X17964286Y-50944342D02*
X18011905Y-51039580D01*
X18011905Y-51039580D02*
X18059524Y-51087200D01*
X18059524Y-51087200D02*
X18154762Y-51134819D01*
X18154762Y-51134819D02*
X18345238Y-51134819D01*
X18345238Y-51134819D02*
X18440476Y-51087200D01*
X18440476Y-51087200D02*
X18488095Y-51039580D01*
X18488095Y-51039580D02*
X18535714Y-50944342D01*
X18535714Y-50944342D02*
X18535714Y-50753866D01*
X18535714Y-50753866D02*
X18488095Y-50658628D01*
X18488095Y-50658628D02*
X18440476Y-50611009D01*
X18440476Y-50611009D02*
X18345238Y-50563390D01*
X18869048Y-50134819D02*
X19535714Y-50134819D01*
X19535714Y-50134819D02*
X19107143Y-51134819D01*
X20345238Y-50468152D02*
X20345238Y-51134819D01*
X20107143Y-50087200D02*
X19869048Y-50801485D01*
X19869048Y-50801485D02*
X20488095Y-50801485D01*
X20821429Y-50230057D02*
X20869048Y-50182438D01*
X20869048Y-50182438D02*
X20964286Y-50134819D01*
X20964286Y-50134819D02*
X21202381Y-50134819D01*
X21202381Y-50134819D02*
X21297619Y-50182438D01*
X21297619Y-50182438D02*
X21345238Y-50230057D01*
X21345238Y-50230057D02*
X21392857Y-50325295D01*
X21392857Y-50325295D02*
X21392857Y-50420533D01*
X21392857Y-50420533D02*
X21345238Y-50563390D01*
X21345238Y-50563390D02*
X20773810Y-51134819D01*
X20773810Y-51134819D02*
X21392857Y-51134819D01*
X21773810Y-50849104D02*
X22250000Y-50849104D01*
X21678572Y-51134819D02*
X22011905Y-50134819D01*
X22011905Y-50134819D02*
X22345238Y-51134819D01*
X17988095Y-46804819D02*
X17988095Y-47614342D01*
X17988095Y-47614342D02*
X18035714Y-47709580D01*
X18035714Y-47709580D02*
X18083333Y-47757200D01*
X18083333Y-47757200D02*
X18178571Y-47804819D01*
X18178571Y-47804819D02*
X18369047Y-47804819D01*
X18369047Y-47804819D02*
X18464285Y-47757200D01*
X18464285Y-47757200D02*
X18511904Y-47709580D01*
X18511904Y-47709580D02*
X18559523Y-47614342D01*
X18559523Y-47614342D02*
X18559523Y-46804819D01*
X19464285Y-46804819D02*
X19273809Y-46804819D01*
X19273809Y-46804819D02*
X19178571Y-46852438D01*
X19178571Y-46852438D02*
X19130952Y-46900057D01*
X19130952Y-46900057D02*
X19035714Y-47042914D01*
X19035714Y-47042914D02*
X18988095Y-47233390D01*
X18988095Y-47233390D02*
X18988095Y-47614342D01*
X18988095Y-47614342D02*
X19035714Y-47709580D01*
X19035714Y-47709580D02*
X19083333Y-47757200D01*
X19083333Y-47757200D02*
X19178571Y-47804819D01*
X19178571Y-47804819D02*
X19369047Y-47804819D01*
X19369047Y-47804819D02*
X19464285Y-47757200D01*
X19464285Y-47757200D02*
X19511904Y-47709580D01*
X19511904Y-47709580D02*
X19559523Y-47614342D01*
X19559523Y-47614342D02*
X19559523Y-47376247D01*
X19559523Y-47376247D02*
X19511904Y-47281009D01*
X19511904Y-47281009D02*
X19464285Y-47233390D01*
X19464285Y-47233390D02*
X19369047Y-47185771D01*
X19369047Y-47185771D02*
X19178571Y-47185771D01*
X19178571Y-47185771D02*
X19083333Y-47233390D01*
X19083333Y-47233390D02*
X19035714Y-47281009D01*
X19035714Y-47281009D02*
X18988095Y-47376247D01*
D10*
X63832380Y-31804318D02*
X63832380Y-32832413D01*
X63832380Y-32832413D02*
X63892857Y-32953365D01*
X63892857Y-32953365D02*
X63953333Y-33013842D01*
X63953333Y-33013842D02*
X64074285Y-33074318D01*
X64074285Y-33074318D02*
X64316190Y-33074318D01*
X64316190Y-33074318D02*
X64437142Y-33013842D01*
X64437142Y-33013842D02*
X64497619Y-32953365D01*
X64497619Y-32953365D02*
X64558095Y-32832413D01*
X64558095Y-32832413D02*
X64558095Y-31804318D01*
X65344285Y-32348603D02*
X65223333Y-32288127D01*
X65223333Y-32288127D02*
X65162856Y-32227651D01*
X65162856Y-32227651D02*
X65102380Y-32106699D01*
X65102380Y-32106699D02*
X65102380Y-32046222D01*
X65102380Y-32046222D02*
X65162856Y-31925270D01*
X65162856Y-31925270D02*
X65223333Y-31864794D01*
X65223333Y-31864794D02*
X65344285Y-31804318D01*
X65344285Y-31804318D02*
X65586190Y-31804318D01*
X65586190Y-31804318D02*
X65707142Y-31864794D01*
X65707142Y-31864794D02*
X65767618Y-31925270D01*
X65767618Y-31925270D02*
X65828095Y-32046222D01*
X65828095Y-32046222D02*
X65828095Y-32106699D01*
X65828095Y-32106699D02*
X65767618Y-32227651D01*
X65767618Y-32227651D02*
X65707142Y-32288127D01*
X65707142Y-32288127D02*
X65586190Y-32348603D01*
X65586190Y-32348603D02*
X65344285Y-32348603D01*
X65344285Y-32348603D02*
X65223333Y-32409080D01*
X65223333Y-32409080D02*
X65162856Y-32469556D01*
X65162856Y-32469556D02*
X65102380Y-32590508D01*
X65102380Y-32590508D02*
X65102380Y-32832413D01*
X65102380Y-32832413D02*
X65162856Y-32953365D01*
X65162856Y-32953365D02*
X65223333Y-33013842D01*
X65223333Y-33013842D02*
X65344285Y-33074318D01*
X65344285Y-33074318D02*
X65586190Y-33074318D01*
X65586190Y-33074318D02*
X65707142Y-33013842D01*
X65707142Y-33013842D02*
X65767618Y-32953365D01*
X65767618Y-32953365D02*
X65828095Y-32832413D01*
X65828095Y-32832413D02*
X65828095Y-32590508D01*
X65828095Y-32590508D02*
X65767618Y-32469556D01*
X65767618Y-32469556D02*
X65707142Y-32409080D01*
X65707142Y-32409080D02*
X65586190Y-32348603D01*
X39713842Y-24917619D02*
X39774318Y-24736190D01*
X39774318Y-24736190D02*
X39774318Y-24433809D01*
X39774318Y-24433809D02*
X39713842Y-24312857D01*
X39713842Y-24312857D02*
X39653365Y-24252381D01*
X39653365Y-24252381D02*
X39532413Y-24191904D01*
X39532413Y-24191904D02*
X39411461Y-24191904D01*
X39411461Y-24191904D02*
X39290508Y-24252381D01*
X39290508Y-24252381D02*
X39230032Y-24312857D01*
X39230032Y-24312857D02*
X39169556Y-24433809D01*
X39169556Y-24433809D02*
X39109080Y-24675714D01*
X39109080Y-24675714D02*
X39048603Y-24796666D01*
X39048603Y-24796666D02*
X38988127Y-24857143D01*
X38988127Y-24857143D02*
X38867175Y-24917619D01*
X38867175Y-24917619D02*
X38746222Y-24917619D01*
X38746222Y-24917619D02*
X38625270Y-24857143D01*
X38625270Y-24857143D02*
X38564794Y-24796666D01*
X38564794Y-24796666D02*
X38504318Y-24675714D01*
X38504318Y-24675714D02*
X38504318Y-24373333D01*
X38504318Y-24373333D02*
X38564794Y-24191904D01*
X39774318Y-22982380D02*
X39774318Y-23708095D01*
X39774318Y-23345238D02*
X38504318Y-23345238D01*
X38504318Y-23345238D02*
X38685746Y-23466190D01*
X38685746Y-23466190D02*
X38806699Y-23587142D01*
X38806699Y-23587142D02*
X38867175Y-23708095D01*
D12*
%TO.C,U2*%
X28000000Y-20850000D02*
X35500000Y-20850000D01*
X28000000Y-24200000D02*
X31350000Y-20850000D01*
X28000000Y-34150000D02*
X28000000Y-20850000D01*
X35500000Y-20850000D02*
X35500000Y-34150000D01*
X35500000Y-34150000D02*
X28000000Y-34150000D01*
%TO.C,U7*%
X27100000Y-40200000D02*
X41100000Y-40200000D01*
X27100000Y-53200000D02*
X27100000Y-40200000D01*
X28100000Y-54200000D02*
X27100000Y-53200000D01*
X41100000Y-40200000D02*
X41100000Y-54200000D01*
X41100000Y-54200000D02*
X28100000Y-54200000D01*
%TO.C,S2*%
X37750000Y-28700000D02*
X40650000Y-28700000D01*
X37750000Y-32700000D02*
X37750000Y-28700000D01*
X40650000Y-28700000D02*
X40650000Y-32700000D01*
X40650000Y-32700000D02*
X37750000Y-32700000D01*
%TO.C,U6*%
X20750000Y-49350000D02*
X16750000Y-49350000D01*
X16750000Y-46350000D01*
X17750000Y-45350000D01*
X20750000Y-45350000D01*
X20750000Y-49350000D01*
%TO.C,U8*%
X60900000Y-33800000D02*
X68900000Y-33800000D01*
X60900000Y-39800000D02*
X60900000Y-33800000D01*
X68900000Y-33800000D02*
X68900000Y-39800000D01*
X68900000Y-37800000D02*
X66900000Y-39800000D01*
X68900000Y-39800000D02*
X60900000Y-39800000D01*
%TO.C,S1*%
X37750000Y-21950000D02*
X40650000Y-21950000D01*
X37750000Y-25950000D02*
X37750000Y-21950000D01*
X40650000Y-21950000D02*
X40650000Y-25950000D01*
X40650000Y-25950000D02*
X37750000Y-25950000D01*
%TD*%
M02*
