M48
; DRILL file {KiCad 9.0.4-9.0.4-0~ubuntu24.04.1} date 2025-08-22T19:02:36+0300
; FORMAT={-:-/ absolute / metric / decimal}
; #@! TF.CreationDate,2025-08-22T19:02:36+03:00
; #@! TF.GenerationSoftware,Kicad,Pcbnew,9.0.4-9.0.4-0~ubuntu24.04.1
; #@! TF.FileFunction,Plated,1,6,PTH
FMAT,2
METRIC
; #@! TA.AperFunction,Plated,PTH,ViaDrill
T1C0.300
; #@! TA.AperFunction,Plated,PTH,ComponentDrill
T2C2.600
%
G90
G05
T1
X27.15Y-41.6
X27.4Y-33.5
X27.95Y-21.5
X27.95Y-22.3
X27.95Y-23.1
X27.95Y-23.9
X27.95Y-25.5
X27.95Y-26.3
X27.95Y-30.3
X27.95Y-31.1
X27.95Y-31.9
X27.95Y-32.7
X28.0Y-26.9
X28.1Y-41.2
X28.1Y-42.0
X28.923Y-39.15
X28.95Y-23.5
X28.95Y-24.3
X28.95Y-25.1
X28.95Y-25.9
X28.95Y-26.7
X28.95Y-29.1
X28.95Y-42.75
X29.577Y-39.15
X29.7Y-41.2
X29.7Y-43.6
X29.7Y-44.4
X29.75Y-21.9
X29.75Y-25.9
X29.75Y-28.3
X30.0Y-40.1
X30.15Y-20.55
X30.5Y-42.0
X30.5Y-42.8
X30.5Y-43.6
X30.75Y-24.7
X30.8Y-27.1
X31.115Y-22.389
X31.3Y-42.0
X31.3Y-42.8
X31.3Y-43.6
X31.35Y-25.15
X31.612Y-21.892
X31.85Y-25.573
X31.85Y-26.227
X31.95Y-27.0
X32.05Y-24.45
X32.1Y-42.0
X32.1Y-42.8
X32.1Y-43.6
X32.37Y-20.22
X32.55Y-21.9
X32.7Y-24.45
X32.75Y-20.95
X32.9Y-42.0
X32.9Y-42.8
X32.9Y-43.6
X33.35Y-20.01
X33.35Y-39.05
X33.7Y-42.0
X33.75Y-24.3
X33.75Y-25.9
X33.75Y-26.7
X33.9Y-20.6
X34.25Y-38.3
X34.5Y-37.3
X34.5Y-42.8
X34.55Y-21.9
X34.55Y-25.1
X34.55Y-25.9
X34.55Y-26.7
X34.55Y-27.5
X34.55Y-29.1
X34.55Y-30.7
X34.6Y-20.6
X35.3Y-41.2
X35.3Y-42.0
X35.3Y-42.8
X35.3Y-43.6
X35.8Y-30.3
X35.8Y-31.1
X35.8Y-31.9
X35.8Y-32.7
X35.8Y-33.5
X36.0Y-39.05
X36.1Y-22.3
X36.1Y-42.0
X36.15Y-24.7
X36.15Y-25.5
X36.9Y-42.0
X36.9Y-42.8
X37.551Y-38.699
X37.7Y-42.0
X37.7Y-43.6
X37.7Y-44.4
X37.75Y-39.5
X38.049Y-38.201
X38.4Y-40.0
X38.5Y-41.2
X38.5Y-42.8
X38.5Y-45.2
X39.3Y-42.8
X39.7Y-39.7
X40.1Y-42.8
X41.45Y-42.0
T2
X15.307Y-15.309
X39.486Y-15.314
M30
