%TF.GenerationSoftware,KiCad,Pcbnew,9.0.4-9.0.4-0~ubuntu24.04.1*%
%TF.CreationDate,2025-08-22T19:02:32+03:00*%
%TF.ProjectId,ThingsCore-1,5468696e-6773-4436-9f72-652d312e6b69,rev?*%
%TF.SameCoordinates,Original*%
%TF.FileFunction,Copper,L3,Inr*%
%TF.FilePolarity,Positive*%
%FSLAX46Y46*%
G04 Gerber Fmt 4.6, Leading zero omitted, Abs format (unit mm)*
G04 Created by KiCad (PCBNEW 9.0.4-9.0.4-0~ubuntu24.04.1) date 2025-08-22 19:02:32*
%MOMM*%
%LPD*%
G01*
G04 APERTURE LIST*
%TA.AperFunction,ComponentPad*%
%ADD10R,5.800000X5.800000*%
%TD*%
%TA.AperFunction,ViaPad*%
%ADD11C,0.450000*%
%TD*%
%TA.AperFunction,Conductor*%
%ADD12C,0.156500*%
%TD*%
%TA.AperFunction,Conductor*%
%ADD13C,0.100000*%
%TD*%
%TA.AperFunction,Conductor*%
%ADD14C,0.121700*%
%TD*%
G04 APERTURE END LIST*
D10*
%TO.N,*%
%TO.C,U1*%
X15307328Y-15308537D03*
X39486338Y-15314455D03*
%TD*%
D11*
%TO.N,/DDR3/DDR_VREF*%
X28000000Y-26900000D03*
%TO.N,1V35_DDR*%
X28950000Y-26700000D03*
%TO.N,GND*%
X29750000Y-28300000D03*
X38500000Y-45200000D03*
X32900000Y-42800000D03*
X31300000Y-42000000D03*
X34600000Y-20600000D03*
X36900000Y-42000000D03*
X27950000Y-26300000D03*
X35800000Y-30300000D03*
X27950000Y-23900000D03*
X35800000Y-31900000D03*
X27950000Y-22300000D03*
X36150000Y-25500000D03*
X29750000Y-21900000D03*
X27400000Y-33500000D03*
X34550000Y-27500000D03*
X34550000Y-25100000D03*
X27950000Y-31900000D03*
X29700000Y-44400000D03*
X27150000Y-41600000D03*
X33750000Y-24300000D03*
X27950000Y-30300000D03*
X34550000Y-25900000D03*
X35800000Y-33500000D03*
X31300000Y-43600000D03*
X37700000Y-44400000D03*
X40100000Y-42800000D03*
X28950000Y-25100000D03*
%TO.N,1V35_DDR*%
X27950000Y-21500000D03*
X35800000Y-32700000D03*
X35800000Y-31100000D03*
X28950000Y-29100000D03*
X33900000Y-20600000D03*
X27950000Y-25500000D03*
X36150000Y-24700000D03*
X27950000Y-31100000D03*
X33750000Y-25900000D03*
X27950000Y-32700000D03*
X27950000Y-23100000D03*
X34550000Y-29100000D03*
X34550000Y-26700000D03*
X28950000Y-24300000D03*
%TO.N,/DDR3/DDR_VREF*%
X34550000Y-30700000D03*
%TO.N,/DDR3/DDR_CKE*%
X37750002Y-39500000D03*
X35300000Y-42800000D03*
%TO.N,/DDR3/DDR_D1*%
X31350000Y-25150000D03*
X28950000Y-42750000D03*
%TO.N,/DDR3/DDR_D13*%
X32370000Y-20220000D03*
X38500000Y-41200000D03*
%TO.N,/DDR3/DDR_D6*%
X29750000Y-25900000D03*
X30500000Y-42800000D03*
%TO.N,/DDR3/DDR_D3*%
X30000000Y-40100000D03*
X32050000Y-24450000D03*
%TO.N,/DDR3/DDR_DQS0N*%
X31850000Y-25573400D03*
X28923400Y-39150000D03*
%TO.N,/DDR3/DDR_DQS1N*%
X38048619Y-38201381D03*
X31114906Y-22388846D03*
%TO.N,/DDR3/DDR_D4*%
X28100000Y-42000000D03*
X30800000Y-27100000D03*
%TO.N,/DDR3/DDR_A4*%
X36000000Y-39050000D03*
X36900000Y-42800000D03*
%TO.N,/DDR3/DDR_A11*%
X34500000Y-37300000D03*
X35300000Y-43600000D03*
%TO.N,/DDR3/DDR_A1*%
X35300000Y-42000000D03*
X34250000Y-38300000D03*
%TO.N,/DDR3/DDR_DQS1P*%
X31612144Y-21891608D03*
X37551381Y-38698619D03*
%TO.N,/DDR3/DDR_D0*%
X30750000Y-24700000D03*
X28100000Y-41200000D03*
%TO.N,/DDR3/DDR_DQS0P*%
X29576600Y-39150000D03*
X31850000Y-26226600D03*
%TO.N,/DDR3/DDR_A13*%
X31300000Y-42800000D03*
%TO.N,/DDR3/DDR_ODT*%
X32900000Y-42000000D03*
%TO.N,/DDR3/DDR_DQM1*%
X28950000Y-23500000D03*
X37700000Y-43600000D03*
%TO.N,/DDR3/DDR_A7*%
X32100000Y-42800000D03*
%TO.N,/DDR3/DDR_D10*%
X38500000Y-42800000D03*
X32550000Y-21900000D03*
%TO.N,/DDR3/DDR_D12*%
X33350000Y-20010000D03*
X39300000Y-42800000D03*
%TO.N,/DDR3/DDR_BA2*%
X32100000Y-43600000D03*
%TO.N,/DDR3/DDR_D15*%
X30150000Y-20550000D03*
X41450000Y-42000000D03*
%TO.N,/DDR3/DDR_A10*%
X33350000Y-39050000D03*
X34500000Y-42800000D03*
%TO.N,/DDR3/DDR_D2*%
X28950000Y-25900000D03*
X30500000Y-43600000D03*
%TO.N,/DDR3/DDR_WEN*%
X32900000Y-43600000D03*
%TO.N,/DDR3/DDR_D8*%
X37700000Y-42000000D03*
X36100000Y-22300000D03*
%TO.N,/DDR3/DDR_A3*%
X32100000Y-42000000D03*
%TO.N,/DDR3/DDR_D5*%
X29700000Y-41200000D03*
X31950000Y-27000000D03*
%TO.N,/DDR3/DDR_D14*%
X34550000Y-21900000D03*
X39700000Y-39700000D03*
%TO.N,/DDR3/DDR_A8*%
X35300000Y-41200000D03*
X36100000Y-42000000D03*
%TO.N,/DDR3/DDR_D7*%
X33750000Y-26700000D03*
X30500000Y-42000000D03*
%TO.N,/DDR3/DDR_D9*%
X32750000Y-20950000D03*
X38400000Y-40000000D03*
%TO.N,/DDR3/DDR_DQM0*%
X29700000Y-43600000D03*
X32700000Y-24450000D03*
%TO.N,/DDR3/DDR_CASN*%
X33700000Y-42000000D03*
%TD*%
D12*
%TO.N,/DDR3/DDR_D6*%
X29400000Y-26300000D02*
X29150000Y-26299999D01*
X29800000Y-25900000D02*
X29400000Y-26300000D01*
D13*
X28758501Y-26299999D02*
X29150000Y-26299999D01*
D12*
X28375000Y-25975000D02*
X28375000Y-26075000D01*
X28375000Y-26075000D02*
X28599999Y-26299999D01*
X28599999Y-26299999D02*
X28758501Y-26299999D01*
%TO.N,/DDR3/DDR_DQM0*%
X27900000Y-27600000D02*
X28754710Y-27600000D01*
X26110000Y-25810000D02*
X27900000Y-27600000D01*
X21712500Y-26909980D02*
X22812480Y-25810000D01*
X22740000Y-34990000D02*
X21712500Y-33962500D01*
%TO.N,/DDR3/DDR_D0*%
X27581262Y-28369500D02*
X29073448Y-28369500D01*
%TO.N,/DDR3/DDR_DQM0*%
X29698750Y-27101250D02*
X29950000Y-26850000D01*
X22740000Y-35110000D02*
X22740000Y-34990000D01*
%TO.N,/DDR3/DDR_D4*%
X28967202Y-28113000D02*
X29465952Y-27614250D01*
X29911242Y-27614250D02*
X30125492Y-27400000D01*
%TO.N,/DDR3/DDR_D3*%
X29804996Y-27357750D02*
X29359706Y-27357750D01*
%TO.N,/DDR3/DDR_DQM0*%
X22812480Y-25810000D02*
X26110000Y-25810000D01*
%TO.N,/DDR3/DDR_D0*%
X23900000Y-27700000D02*
X26911762Y-27700000D01*
%TO.N,/DDR3/DDR_D3*%
X26480754Y-26543500D02*
X26479340Y-26543500D01*
%TO.N,/DDR3/DDR_DQM0*%
X28754710Y-27600000D02*
X29253460Y-27101250D01*
%TO.N,/DDR3/DDR_D3*%
X27256660Y-44142500D02*
X27445687Y-44142500D01*
%TO.N,/DDR3/DDR_D4*%
X23400000Y-35850000D02*
X23400000Y-34800000D01*
%TO.N,/DDR3/DDR_DQM0*%
X29950000Y-26307052D02*
X30179250Y-26077802D01*
%TO.N,/DDR3/DDR_D0*%
X30017488Y-27870750D02*
X30188238Y-27700000D01*
%TO.N,/DDR3/DDR_D3*%
X26479340Y-26543500D02*
X26135840Y-26200000D01*
%TO.N,/DDR3/DDR_D4*%
X26374508Y-26800000D02*
X27687508Y-28113000D01*
X27687508Y-28113000D02*
X28967202Y-28113000D01*
%TO.N,/DDR3/DDR_D3*%
X27793754Y-27856500D02*
X26480754Y-26543500D01*
%TO.N,/DDR3/DDR_D0*%
X29073448Y-28369500D02*
X29572198Y-27870750D01*
%TO.N,/DDR3/DDR_D4*%
X30125492Y-27400000D02*
X30500000Y-27400000D01*
%TO.N,/DDR3/DDR_DQM0*%
X30179250Y-25722198D02*
X29950000Y-25492948D01*
X29950000Y-24464160D02*
X30564160Y-23850000D01*
%TO.N,/DDR3/DDR_D3*%
X22850000Y-26200000D02*
X21970000Y-27080000D01*
%TO.N,/DDR3/DDR_D0*%
X30807052Y-27700000D02*
X31243500Y-27263552D01*
%TO.N,/DDR3/DDR_D4*%
X30500000Y-27400000D02*
X30800000Y-27100000D01*
%TO.N,/DDR3/DDR_D0*%
X23100000Y-29155068D02*
X23100000Y-28500000D01*
%TO.N,/DDR3/DDR_DQM0*%
X29950000Y-26850000D02*
X29950000Y-26307052D01*
X21712500Y-33962500D02*
X21712500Y-26909980D01*
%TO.N,/DDR3/DDR_D0*%
X29572198Y-27870750D02*
X30017488Y-27870750D01*
%TO.N,/DDR3/DDR_DQM0*%
X30179250Y-26077802D02*
X30179250Y-25722198D01*
%TO.N,/DDR3/DDR_D0*%
X26911762Y-27700000D02*
X27581262Y-28369500D01*
%TO.N,/DDR3/DDR_D3*%
X26135840Y-26200000D02*
X22850000Y-26200000D01*
%TO.N,/DDR3/DDR_D0*%
X30188238Y-27700000D02*
X30807052Y-27700000D01*
%TO.N,/DDR3/DDR_D4*%
X23250000Y-26800000D02*
X26374508Y-26800000D01*
X29465952Y-27614250D02*
X29911242Y-27614250D01*
X22227500Y-27822500D02*
X23250000Y-26800000D01*
%TO.N,/DDR3/DDR_D3*%
X23082080Y-39967920D02*
X27256660Y-44142500D01*
%TO.N,/DDR3/DDR_D4*%
X22227500Y-33627500D02*
X22227500Y-27822500D01*
%TO.N,/DDR3/DDR_D3*%
X31850000Y-24250000D02*
X30528320Y-24250000D01*
%TO.N,/DDR3/DDR_D0*%
X31243500Y-27263552D02*
X31243500Y-26743500D01*
%TO.N,/DDR3/DDR_D3*%
X21970000Y-27080000D02*
X21970000Y-33855840D01*
X29359706Y-27357750D02*
X28860956Y-27856500D01*
%TO.N,/DDR3/DDR_D4*%
X23400000Y-34800000D02*
X22227500Y-33627500D01*
%TO.N,/DDR3/DDR_D0*%
X30750000Y-26250000D02*
X30750000Y-24700000D01*
%TO.N,/DDR3/DDR_D3*%
X23082080Y-34967920D02*
X23082080Y-39967920D01*
X28860956Y-27856500D02*
X27793754Y-27856500D01*
%TO.N,/DDR3/DDR_DQM0*%
X29253460Y-27101250D02*
X29698750Y-27101250D01*
%TO.N,/DDR3/DDR_D3*%
X30436750Y-26725996D02*
X29804996Y-27357750D01*
X30436750Y-25386750D02*
X30436750Y-26725996D01*
X30250000Y-25200000D02*
X30436750Y-25386750D01*
%TO.N,/DDR3/DDR_D0*%
X23100000Y-28500000D02*
X23900000Y-27700000D01*
X31243500Y-26743500D02*
X30750000Y-26250000D01*
%TO.N,/DDR3/DDR_D3*%
X21970000Y-33855840D02*
X23082080Y-34967920D01*
X30250000Y-24528320D02*
X30250000Y-25200000D01*
X30528320Y-24250000D02*
X30250000Y-24528320D01*
X32050000Y-24450000D02*
X31850000Y-24250000D01*
%TO.N,/DDR3/DDR_DQM0*%
X29950000Y-25492948D02*
X29950000Y-24464160D01*
X30564160Y-23850000D02*
X31850000Y-23850000D01*
%TO.N,/DDR3/DDR_CKE*%
X37750002Y-40799998D02*
X37350000Y-41200000D01*
X37750002Y-39500000D02*
X37750002Y-40799998D01*
X37350000Y-41550000D02*
X37300000Y-41600000D01*
D13*
X37100000Y-43500000D02*
X35950000Y-43500000D01*
X35300000Y-42850000D02*
X35300000Y-42800000D01*
D12*
X37300000Y-41600000D02*
X37300000Y-41800000D01*
D13*
X37300000Y-41800000D02*
X37300000Y-43300000D01*
X35950000Y-43500000D02*
X35300000Y-42850000D01*
D12*
X37350000Y-41200000D02*
X37350000Y-41550000D01*
D13*
X37300000Y-43300000D02*
X37100000Y-43500000D01*
D12*
%TO.N,/DDR3/DDR_D1*%
X25490000Y-35296970D02*
X24810000Y-35296970D01*
X25150000Y-37536970D02*
X25150000Y-37456970D01*
X25310000Y-36496970D02*
X25490000Y-36496970D01*
X28950000Y-42750000D02*
X28950000Y-41200000D01*
X25150000Y-35936970D02*
X25150000Y-35856970D01*
X24650000Y-32736970D02*
X24650000Y-32656970D01*
X25650000Y-40250000D02*
X25650000Y-39456970D01*
X25650000Y-29777132D02*
X25650000Y-29350000D01*
X25490000Y-39296970D02*
X25310000Y-39296970D01*
X24810000Y-33296970D02*
X25490000Y-33296970D01*
D13*
X28750000Y-28700000D02*
X29300000Y-28700000D01*
D12*
X25650000Y-37136970D02*
X25650000Y-37056970D01*
X25490000Y-34496970D02*
X24810000Y-34496970D01*
X25650000Y-36336970D02*
X25650000Y-36256970D01*
X24650000Y-30336970D02*
X24650000Y-30256970D01*
X25650000Y-29936970D02*
X25650000Y-29856970D01*
X25310000Y-35696970D02*
X25490000Y-35696970D01*
X24650000Y-33536970D02*
X24650000Y-33456970D01*
X25490000Y-32096970D02*
X24810000Y-32096970D01*
X24650000Y-31936970D02*
X24650000Y-31856970D01*
X25150000Y-36736970D02*
X25150000Y-36656970D01*
X24810000Y-34096970D02*
X25490000Y-34096970D01*
X31350000Y-25150000D02*
X31107052Y-25392948D01*
X25150000Y-39136970D02*
X25150000Y-39056970D01*
X25650000Y-35536970D02*
X25650000Y-35456970D01*
X25490000Y-37696970D02*
X25310000Y-37696970D01*
X25650000Y-37936970D02*
X25650000Y-37856970D01*
X25650000Y-34736970D02*
X25650000Y-34656970D01*
X26300000Y-28700000D02*
X28750000Y-28700000D01*
X28450000Y-40700000D02*
X26100000Y-40700000D01*
X24650000Y-34336970D02*
X24650000Y-34256970D01*
X24810000Y-34896970D02*
X25490000Y-34896970D01*
X25650000Y-29856970D02*
X25650000Y-29777132D01*
X24810000Y-30096970D02*
X25490000Y-30096970D01*
X30171212Y-28700000D02*
X29300000Y-28700000D01*
X25650000Y-33136970D02*
X25650000Y-33056970D01*
X25490000Y-32896970D02*
X24810000Y-32896970D01*
X31501000Y-27370212D02*
X30171212Y-28700000D01*
X25490000Y-31296970D02*
X24810000Y-31296970D01*
X25650000Y-33936970D02*
X25650000Y-33856970D01*
X31107052Y-25392948D02*
X31107052Y-26242892D01*
X25150000Y-38336970D02*
X25150000Y-38256970D01*
X25490000Y-33696970D02*
X24810000Y-33696970D01*
X24810000Y-31696970D02*
X25490000Y-31696970D01*
X25490000Y-36896970D02*
X25310000Y-36896970D01*
X25650000Y-38736970D02*
X25650000Y-38656970D01*
X25310000Y-37296970D02*
X25490000Y-37296970D01*
X31107052Y-26242892D02*
X31501000Y-26636840D01*
X25490000Y-36096970D02*
X25310000Y-36096970D01*
X24810000Y-32496970D02*
X25490000Y-32496970D01*
X25490000Y-38496970D02*
X25310000Y-38496970D01*
X24810000Y-30896970D02*
X25490000Y-30896970D01*
X25650000Y-30736970D02*
X25650000Y-30656970D01*
X24650000Y-31136970D02*
X24650000Y-31056970D01*
X25650000Y-29350000D02*
X26300000Y-28700000D01*
X25490000Y-30496970D02*
X24810000Y-30496970D01*
X25310000Y-38896970D02*
X25490000Y-38896970D01*
X28950000Y-41200000D02*
X28450000Y-40700000D01*
X31501000Y-26636840D02*
X31501000Y-27370212D01*
X25650000Y-31536970D02*
X25650000Y-31456970D01*
X24650000Y-35136970D02*
X24650000Y-35056970D01*
X25650000Y-32336970D02*
X25650000Y-32256970D01*
X26100000Y-40700000D02*
X25650000Y-40250000D01*
X25310000Y-38096970D02*
X25490000Y-38096970D01*
X25150000Y-36656970D02*
G75*
G02*
X25310000Y-36497000I160000J-30D01*
G01*
X24810000Y-35296970D02*
G75*
G02*
X24650030Y-35136970I0J159970D01*
G01*
X24810000Y-34496970D02*
G75*
G02*
X24650030Y-34336970I0J159970D01*
G01*
X25490000Y-30896970D02*
G75*
G03*
X25649970Y-30736970I0J159970D01*
G01*
X25650000Y-32256970D02*
G75*
G03*
X25490000Y-32097000I-160000J-30D01*
G01*
X25650000Y-34656970D02*
G75*
G03*
X25490000Y-34497000I-160000J-30D01*
G01*
X25650000Y-37856970D02*
G75*
G03*
X25490000Y-37697000I-160000J-30D01*
G01*
X25490000Y-35696970D02*
G75*
G03*
X25649970Y-35536970I0J159970D01*
G01*
X25310000Y-38496970D02*
G75*
G02*
X25150030Y-38336970I0J159970D01*
G01*
X25650000Y-33056970D02*
G75*
G03*
X25490000Y-32897000I-160000J-30D01*
G01*
X25490000Y-33296970D02*
G75*
G03*
X25649970Y-33136970I0J159970D01*
G01*
X25490000Y-32496970D02*
G75*
G03*
X25649970Y-32336970I0J159970D01*
G01*
X24650000Y-32656970D02*
G75*
G02*
X24810000Y-32497000I160000J-30D01*
G01*
X24810000Y-32896970D02*
G75*
G02*
X24650030Y-32736970I0J159970D01*
G01*
X25650000Y-35456970D02*
G75*
G03*
X25490000Y-35297000I-160000J-30D01*
G01*
X25490000Y-34896970D02*
G75*
G03*
X25649970Y-34736970I0J159970D01*
G01*
X25650000Y-38656970D02*
G75*
G03*
X25490000Y-38497000I-160000J-30D01*
G01*
X25650000Y-37056970D02*
G75*
G03*
X25490000Y-36897000I-160000J-30D01*
G01*
X25650000Y-31456970D02*
G75*
G03*
X25490000Y-31297000I-160000J-30D01*
G01*
X24810000Y-30496970D02*
G75*
G02*
X24650030Y-30336970I0J159970D01*
G01*
X25490000Y-30096970D02*
G75*
G03*
X25649970Y-29936970I0J159970D01*
G01*
X25310000Y-37696970D02*
G75*
G02*
X25150030Y-37536970I0J159970D01*
G01*
X24650000Y-33456970D02*
G75*
G02*
X24810000Y-33297000I160000J-30D01*
G01*
X24810000Y-32096970D02*
G75*
G02*
X24650030Y-31936970I0J159970D01*
G01*
X25650000Y-30656970D02*
G75*
G03*
X25490000Y-30497000I-160000J-30D01*
G01*
X25150000Y-37456970D02*
G75*
G02*
X25310000Y-37297000I160000J-30D01*
G01*
X24810000Y-33696970D02*
G75*
G02*
X24650030Y-33536970I0J159970D01*
G01*
X24650000Y-35056970D02*
G75*
G02*
X24810000Y-34897000I160000J-30D01*
G01*
X25490000Y-37296970D02*
G75*
G03*
X25649970Y-37136970I0J159970D01*
G01*
X24650000Y-31056970D02*
G75*
G02*
X24810000Y-30897000I160000J-30D01*
G01*
X25650000Y-33856970D02*
G75*
G03*
X25490000Y-33697000I-160000J-30D01*
G01*
X25490000Y-31696970D02*
G75*
G03*
X25649970Y-31536970I0J159970D01*
G01*
X25490000Y-38096970D02*
G75*
G03*
X25649970Y-37936970I0J159970D01*
G01*
X25490000Y-38896970D02*
G75*
G03*
X25649970Y-38736970I0J159970D01*
G01*
X24650000Y-34256970D02*
G75*
G02*
X24810000Y-34097000I160000J-30D01*
G01*
X25150000Y-38256970D02*
G75*
G02*
X25310000Y-38097000I160000J-30D01*
G01*
X25490000Y-34096970D02*
G75*
G03*
X25649970Y-33936970I0J159970D01*
G01*
X24810000Y-31296970D02*
G75*
G02*
X24650030Y-31136970I0J159970D01*
G01*
X25310000Y-36896970D02*
G75*
G02*
X25150030Y-36736970I0J159970D01*
G01*
X24650000Y-31856970D02*
G75*
G02*
X24810000Y-31697000I160000J-30D01*
G01*
X25150000Y-35856970D02*
G75*
G02*
X25310000Y-35697000I160000J-30D01*
G01*
X24650000Y-30256970D02*
G75*
G02*
X24810000Y-30097000I160000J-30D01*
G01*
X25310000Y-36096970D02*
G75*
G02*
X25150030Y-35936970I0J159970D01*
G01*
X25650000Y-39456970D02*
G75*
G03*
X25490000Y-39297000I-160000J-30D01*
G01*
X25490000Y-36496970D02*
G75*
G03*
X25649970Y-36336970I0J159970D01*
G01*
X25650000Y-36256970D02*
G75*
G03*
X25490000Y-36097000I-160000J-30D01*
G01*
X25310000Y-39296970D02*
G75*
G02*
X25150030Y-39136970I0J159970D01*
G01*
X25150000Y-39056970D02*
G75*
G02*
X25310000Y-38897000I160000J-30D01*
G01*
%TO.N,/DDR3/DDR_D13*%
X38450000Y-27700000D02*
X38070000Y-27700000D01*
X38070000Y-28900000D02*
X38450000Y-28900000D01*
X38070000Y-24100000D02*
X38450000Y-24100000D01*
X38450000Y-26900000D02*
X38070000Y-26900000D01*
X33596446Y-21126444D02*
X33596445Y-21126445D01*
X38070000Y-30500000D02*
X38450000Y-30500000D01*
X38291801Y-23061801D02*
X37980000Y-22750000D01*
X38610000Y-29540000D02*
X38610000Y-29460000D01*
X37910000Y-29140000D02*
X37910000Y-29060000D01*
X37660000Y-23200000D02*
X37580000Y-23200000D01*
X38500000Y-40700000D02*
X38900000Y-40300000D01*
X37910000Y-24340000D02*
X37910000Y-24260000D01*
X37910000Y-25140000D02*
X37910000Y-25060000D01*
X38450000Y-24500000D02*
X38070000Y-24500000D01*
X38070000Y-29700000D02*
X38450000Y-29700000D01*
X33384311Y-21197154D02*
X33242889Y-21055732D01*
X38610000Y-26340000D02*
X38610000Y-26260000D01*
X33596445Y-21126445D02*
X33525733Y-21197154D01*
X36280000Y-22750000D02*
X35830000Y-22750000D01*
X33101470Y-20631470D02*
X32854112Y-20384112D01*
X38610000Y-25540000D02*
X38610000Y-25460000D01*
X32854112Y-20384112D02*
X32680000Y-20210000D01*
X37260000Y-22750000D02*
X37180000Y-22750000D01*
X38070000Y-26500000D02*
X38450000Y-26500000D01*
X38450000Y-30100000D02*
X38070000Y-30100000D01*
X38610000Y-23380000D02*
X38291801Y-23061801D01*
X37910000Y-26740000D02*
X37910000Y-26660000D01*
X37820000Y-22910000D02*
X37820000Y-23040000D01*
X33950000Y-21540000D02*
X33950000Y-21480000D01*
X37910000Y-27540000D02*
X37910000Y-27460000D01*
X38070000Y-28100000D02*
X38450000Y-28100000D01*
X38610000Y-27940000D02*
X38610000Y-27860000D01*
X37420000Y-23040000D02*
X37420000Y-22910000D01*
X35030000Y-22750000D02*
X34710000Y-22750000D01*
X38450000Y-26100000D02*
X38070000Y-26100000D01*
X37180000Y-22750000D02*
X36280000Y-22750000D01*
X38910000Y-36466288D02*
X38910000Y-33140000D01*
X38910000Y-33140000D02*
X38610000Y-32840000D01*
X38610000Y-28740000D02*
X38610000Y-28660000D01*
X38900000Y-39185840D02*
X39330000Y-38755840D01*
X32680000Y-20210000D02*
X32390000Y-20210000D01*
X38610000Y-23860000D02*
X38610000Y-23380000D01*
X35270000Y-22310000D02*
X35270000Y-22590000D01*
X33667157Y-21055734D02*
X33596446Y-21126444D01*
X38900000Y-40300000D02*
X38900000Y-39185840D01*
X38610000Y-32840000D02*
X38610000Y-31060000D01*
X38450000Y-29300000D02*
X38070000Y-29300000D01*
X38070000Y-25700000D02*
X38450000Y-25700000D01*
X37910000Y-29940000D02*
X37910000Y-29860000D01*
X35110000Y-22750000D02*
X35030000Y-22750000D01*
X38450000Y-30900000D02*
X38070000Y-30900000D01*
X38070000Y-27300000D02*
X38450000Y-27300000D01*
X38450000Y-28500000D02*
X38070000Y-28500000D01*
X39330000Y-36886287D02*
X38910000Y-36466288D01*
X38070000Y-24900000D02*
X38450000Y-24900000D01*
X37910000Y-25940000D02*
X37910000Y-25860000D01*
X38610000Y-27140000D02*
X38610000Y-27060000D01*
X33950000Y-21990000D02*
X33950000Y-21540000D01*
X35510000Y-22150000D02*
X35430000Y-22150000D01*
X34710000Y-22750000D02*
X33950000Y-21990000D01*
X38610000Y-30340000D02*
X38610000Y-30260000D01*
X38450000Y-25300000D02*
X38070000Y-25300000D01*
X33242890Y-20772890D02*
X33101470Y-20631470D01*
X37910000Y-28340000D02*
X37910000Y-28260000D01*
X38610000Y-23940000D02*
X38610000Y-23860000D01*
X37910000Y-30740000D02*
X37910000Y-30660000D01*
X38610000Y-24740000D02*
X38610000Y-24660000D01*
X39330000Y-38755840D02*
X39330000Y-36886287D01*
X38500000Y-41200000D02*
X38500000Y-40700000D01*
X35670000Y-22590000D02*
X35670000Y-22310000D01*
X33950000Y-21197156D02*
X33808578Y-21055734D01*
X38070000Y-24500000D02*
G75*
G02*
X37910000Y-24340000I0J160000D01*
G01*
X37910000Y-27460000D02*
G75*
G02*
X38070000Y-27300000I160000J0D01*
G01*
X38610000Y-24660000D02*
G75*
G03*
X38450000Y-24500000I-160000J0D01*
G01*
X37820000Y-23040000D02*
G75*
G02*
X37660000Y-23200000I-160000J0D01*
G01*
X38450000Y-24100000D02*
G75*
G03*
X38610000Y-23940000I0J160000D01*
G01*
X35430000Y-22150000D02*
G75*
G03*
X35270000Y-22310000I0J-160000D01*
G01*
X37580000Y-23200000D02*
G75*
G02*
X37420000Y-23040000I0J160000D01*
G01*
X38450000Y-25700000D02*
G75*
G03*
X38610000Y-25540000I0J160000D01*
G01*
X37910000Y-24260000D02*
G75*
G02*
X38070000Y-24100000I160000J0D01*
G01*
X38070000Y-28500000D02*
G75*
G02*
X37910000Y-28340000I0J160000D01*
G01*
X37980000Y-22750000D02*
G75*
G03*
X37820000Y-22910000I0J-160000D01*
G01*
X38610000Y-29460000D02*
G75*
G03*
X38450000Y-29300000I-160000J0D01*
G01*
X38070000Y-26100000D02*
G75*
G02*
X37910000Y-25940000I0J160000D01*
G01*
X35830000Y-22750000D02*
G75*
G02*
X35670000Y-22590000I0J160000D01*
G01*
X38450000Y-24900000D02*
G75*
G03*
X38610000Y-24740000I0J160000D01*
G01*
X38610000Y-26260000D02*
G75*
G03*
X38450000Y-26100000I-160000J0D01*
G01*
X38070000Y-25300000D02*
G75*
G02*
X37910000Y-25140000I0J160000D01*
G01*
X38070000Y-27700000D02*
G75*
G02*
X37910000Y-27540000I0J160000D01*
G01*
X38450000Y-28900000D02*
G75*
G03*
X38610000Y-28740000I0J160000D01*
G01*
X38610000Y-28660000D02*
G75*
G03*
X38450000Y-28500000I-160000J0D01*
G01*
X35270000Y-22590000D02*
G75*
G02*
X35110000Y-22750000I-160000J0D01*
G01*
X33525733Y-21197154D02*
G75*
G02*
X33384311Y-21197154I-70711J70713D01*
G01*
X38450000Y-26500000D02*
G75*
G03*
X38610000Y-26340000I0J160000D01*
G01*
X38450000Y-29700000D02*
G75*
G03*
X38610000Y-29540000I0J160000D01*
G01*
X38450000Y-27300000D02*
G75*
G03*
X38610000Y-27140000I0J160000D01*
G01*
X38610000Y-27060000D02*
G75*
G03*
X38450000Y-26900000I-160000J0D01*
G01*
X38610000Y-27860000D02*
G75*
G03*
X38450000Y-27700000I-160000J0D01*
G01*
X37910000Y-26660000D02*
G75*
G02*
X38070000Y-26500000I160000J0D01*
G01*
X37420000Y-22910000D02*
G75*
G03*
X37260000Y-22750000I-160000J0D01*
G01*
X33808578Y-21055734D02*
G75*
G03*
X33667158Y-21055734I-70710J-70708D01*
G01*
X38610000Y-31060000D02*
G75*
G03*
X38450000Y-30900000I-160000J0D01*
G01*
X35670000Y-22310000D02*
G75*
G03*
X35510000Y-22150000I-160000J0D01*
G01*
X33950000Y-21480000D02*
G75*
G02*
X33950011Y-21338589I70700J70700D01*
G01*
X38610000Y-30260000D02*
G75*
G03*
X38450000Y-30100000I-160000J0D01*
G01*
X38450000Y-30500000D02*
G75*
G03*
X38610000Y-30340000I0J160000D01*
G01*
X38070000Y-29300000D02*
G75*
G02*
X37910000Y-29140000I0J160000D01*
G01*
X33242890Y-20914312D02*
G75*
G03*
X33242891Y-20772889I-70690J70712D01*
G01*
X37910000Y-29060000D02*
G75*
G02*
X38070000Y-28900000I160000J0D01*
G01*
X38070000Y-26900000D02*
G75*
G02*
X37910000Y-26740000I0J160000D01*
G01*
X38450000Y-28100000D02*
G75*
G03*
X38610000Y-27940000I0J160000D01*
G01*
X38070000Y-30100000D02*
G75*
G02*
X37910000Y-29940000I0J160000D01*
G01*
X37910000Y-28260000D02*
G75*
G02*
X38070000Y-28100000I160000J0D01*
G01*
X38070000Y-30900000D02*
G75*
G02*
X37910000Y-30740000I0J160000D01*
G01*
X37910000Y-29860000D02*
G75*
G02*
X38070000Y-29700000I160000J0D01*
G01*
X33950000Y-21338578D02*
G75*
G03*
X33949967Y-21197189I-70700J70678D01*
G01*
X33242889Y-21055732D02*
G75*
G02*
X33242867Y-20914290I70711J70732D01*
G01*
X37910000Y-30660000D02*
G75*
G02*
X38070000Y-30500000I160000J0D01*
G01*
X37910000Y-25860000D02*
G75*
G02*
X38070000Y-25700000I160000J0D01*
G01*
X37910000Y-25060000D02*
G75*
G02*
X38070000Y-24900000I160000J0D01*
G01*
X38610000Y-25460000D02*
G75*
G03*
X38450000Y-25300000I-160000J0D01*
G01*
%TO.N,/DDR3/DDR_D6*%
X27079250Y-44829250D02*
X23880000Y-41630000D01*
D13*
X30100001Y-43258501D02*
X30100001Y-43950000D01*
X27650000Y-25900000D02*
X28300000Y-25900000D01*
D12*
X27550000Y-25900000D02*
X27130000Y-25480000D01*
X21455000Y-38175000D02*
X21455000Y-37663174D01*
X27130000Y-25480000D02*
X22778320Y-25480000D01*
X21455000Y-26803320D02*
X21455000Y-37663174D01*
X30100001Y-43199999D02*
X30100001Y-43258501D01*
X27650000Y-25900000D02*
X27550000Y-25900000D01*
X22295000Y-38415000D02*
X21615000Y-38415000D01*
X30100001Y-44099997D02*
X30099999Y-44099999D01*
X21626115Y-40746115D02*
X21455000Y-40575000D01*
X22778320Y-25480000D02*
X21455000Y-26803320D01*
X30500000Y-42800000D02*
X30100001Y-43199999D01*
X30100001Y-43950000D02*
X30100001Y-44099997D01*
X22707989Y-40640049D02*
X22227156Y-41120881D01*
X30242500Y-44464552D02*
X29877802Y-44829250D01*
X22455000Y-38655000D02*
X22455000Y-38575000D01*
X22000882Y-41120881D02*
X21944314Y-41064314D01*
X21455000Y-38255000D02*
X21455000Y-38175000D01*
X21455000Y-39855000D02*
X21455000Y-39775000D01*
X21455000Y-39055000D02*
X21455000Y-38975000D01*
X30099999Y-44099999D02*
X30242500Y-44242500D01*
X21615000Y-40415000D02*
X22045000Y-40415000D01*
X22990832Y-40696618D02*
X22934263Y-40640049D01*
X22510000Y-41403725D02*
X22990832Y-40922892D01*
X22295000Y-39215000D02*
X21615000Y-39215000D01*
X22205000Y-40255000D02*
X22205000Y-40175000D01*
X21944314Y-41064314D02*
X21626115Y-40746115D01*
X21615000Y-39615000D02*
X22295000Y-39615000D01*
D13*
X28300000Y-25900000D02*
X28375000Y-25975000D01*
D12*
X22455000Y-39455000D02*
X22455000Y-39375000D01*
X30242500Y-44242500D02*
X30242500Y-44464552D01*
X23880000Y-41630000D02*
X22510000Y-41630000D01*
X29877802Y-44829250D02*
X27079250Y-44829250D01*
X21615000Y-38815000D02*
X22295000Y-38815000D01*
X22045000Y-40015000D02*
X21615000Y-40015000D01*
X21455000Y-38975000D02*
G75*
G02*
X21615000Y-38815000I160000J0D01*
G01*
X21615000Y-39215000D02*
G75*
G02*
X21455000Y-39055000I0J160000D01*
G01*
X22934263Y-40640049D02*
G75*
G03*
X22707989Y-40640049I-113137J-113137D01*
G01*
X21455000Y-40575000D02*
G75*
G02*
X21615000Y-40415000I160000J0D01*
G01*
X22990832Y-40922892D02*
G75*
G03*
X22990787Y-40696663I-113132J113092D01*
G01*
X22205000Y-40175000D02*
G75*
G03*
X22045000Y-40015000I-160000J0D01*
G01*
X22295000Y-38815000D02*
G75*
G03*
X22455000Y-38655000I0J160000D01*
G01*
X22455000Y-39375000D02*
G75*
G03*
X22295000Y-39215000I-160000J0D01*
G01*
X22227156Y-41120881D02*
G75*
G02*
X22000882Y-41120881I-113137J113137D01*
G01*
X21455000Y-39775000D02*
G75*
G02*
X21615000Y-39615000I160000J0D01*
G01*
X22510000Y-41630000D02*
G75*
G02*
X22510037Y-41403763I113100J113100D01*
G01*
X21615000Y-40015000D02*
G75*
G02*
X21455000Y-39855000I0J160000D01*
G01*
X21615000Y-38415000D02*
G75*
G02*
X21455000Y-38255000I0J160000D01*
G01*
X22045000Y-40415000D02*
G75*
G03*
X22205000Y-40255000I0J160000D01*
G01*
X22455000Y-38575000D02*
G75*
G03*
X22295000Y-38415000I-160000J0D01*
G01*
X22295000Y-39615000D02*
G75*
G03*
X22455000Y-39455000I0J160000D01*
G01*
%TO.N,/DDR3/DDR_D3*%
X28201687Y-44142500D02*
X28285687Y-44142500D01*
X29650000Y-42900000D02*
X29226017Y-43323983D01*
X28033687Y-43660500D02*
X28033687Y-43974500D01*
X30129250Y-40229250D02*
X30129250Y-41470750D01*
X28617006Y-43932994D02*
X29000000Y-43550000D01*
X30129250Y-41470750D02*
X29650000Y-41950000D01*
X29650000Y-41950000D02*
X29650000Y-42900000D01*
X27613687Y-43974500D02*
X27613687Y-43660500D01*
X27781687Y-43492500D02*
X27865687Y-43492500D01*
X28407500Y-44142500D02*
X28617006Y-43932994D01*
X29226017Y-43323983D02*
X29000000Y-43550000D01*
X28285687Y-44142500D02*
X28407500Y-44142500D01*
X27865687Y-43492500D02*
G75*
G02*
X28033700Y-43660500I13J-168000D01*
G01*
X27445687Y-44142500D02*
G75*
G03*
X27613700Y-43974500I13J168000D01*
G01*
X27613687Y-43660500D02*
G75*
G02*
X27781687Y-43492487I168013J0D01*
G01*
X28033687Y-43974500D02*
G75*
G03*
X28201687Y-44142513I168013J0D01*
G01*
D14*
%TO.N,/DDR3/DDR_DQS0N*%
X32056258Y-31543737D02*
X32165395Y-31434603D01*
X28449074Y-34691448D02*
X28030949Y-34273320D01*
X29096937Y-35339311D02*
X28782210Y-35024584D01*
X28994749Y-34605249D02*
X29412875Y-35023376D01*
X32762450Y-26232710D02*
X32267290Y-25737550D01*
X28782210Y-35024584D02*
X28563941Y-34806315D01*
X28879879Y-34490380D02*
X28994749Y-34605249D01*
X27800000Y-36278667D02*
X27800000Y-35800000D01*
X27800000Y-36587917D02*
X27800000Y-36278667D01*
X27946230Y-37428392D02*
X27568775Y-37428392D01*
X28030949Y-34066520D02*
X28140083Y-33957387D01*
X32370985Y-32065264D02*
X32056258Y-31750537D01*
X29655291Y-33714966D02*
X29655294Y-33714967D01*
X30188287Y-34247962D02*
X29770160Y-33829835D01*
X31280847Y-32525952D02*
X31595573Y-32840678D01*
X31846230Y-29013340D02*
X32437550Y-29013340D01*
X32762450Y-27141627D02*
X32762450Y-26232710D01*
X33353770Y-29460140D02*
X32908680Y-29460140D01*
X30746643Y-32623618D02*
X30631772Y-32508750D01*
X28879881Y-34490382D02*
X28879879Y-34490380D01*
X28391320Y-37428392D02*
X27946230Y-37428392D01*
X28729572Y-39537550D02*
X28087550Y-39537550D01*
X29438234Y-32866037D02*
X29856361Y-33284164D01*
X32014150Y-25737550D02*
X31850000Y-25573400D01*
X33824900Y-30085610D02*
X33824900Y-29931270D01*
X32908680Y-29013340D02*
X33353770Y-29013340D01*
X32908680Y-29460140D02*
X32437550Y-29460140D01*
X28987803Y-36114725D02*
X29096937Y-36005590D01*
X28563941Y-34806315D02*
X28563945Y-34806316D01*
X31279636Y-33156613D02*
X30861509Y-32738486D01*
X32762450Y-27770510D02*
X32762450Y-27616170D01*
X27946230Y-38524992D02*
X28391320Y-38524992D01*
X29971228Y-33399031D02*
X30086098Y-33513900D01*
X28923400Y-39150000D02*
X28923400Y-39343722D01*
X29856361Y-33284164D02*
X29971230Y-33399033D01*
X32437550Y-29460140D02*
X31846230Y-29460140D01*
X30086098Y-33513900D02*
X30504224Y-33932027D01*
X30079153Y-35023376D02*
X30188287Y-34914241D01*
X27800000Y-39250000D02*
X27800000Y-38671222D01*
X32267290Y-25737550D02*
X32014150Y-25737550D01*
X30947710Y-32192815D02*
X31062579Y-32307684D01*
X33353770Y-27916740D02*
X32908680Y-27916740D01*
X29971230Y-33399033D02*
X29971228Y-33399031D01*
X32437550Y-29013340D02*
X32908680Y-29013340D01*
X29655294Y-33714967D02*
X29540423Y-33600099D01*
X31062577Y-32307682D02*
X31280847Y-32525952D01*
X28563945Y-34806316D02*
X28449074Y-34691448D01*
X29540423Y-33600099D02*
X29122298Y-33181971D01*
X28923400Y-39343722D02*
X28729572Y-39537550D01*
X31062579Y-32307684D02*
X31062577Y-32307682D01*
X29770160Y-33829835D02*
X29655291Y-33714966D01*
X32908680Y-30556740D02*
X33353770Y-30556740D01*
X30529583Y-31774688D02*
X30947710Y-32192815D01*
X33824900Y-28542210D02*
X33824900Y-28387870D01*
X29122298Y-32975171D02*
X29231432Y-32866038D01*
X28087550Y-39537550D02*
X27800000Y-39250000D01*
X30631772Y-32508750D02*
X30213647Y-32090622D01*
X27337550Y-37359617D02*
X27337550Y-37050367D01*
X28765012Y-34375513D02*
X28879881Y-34490382D01*
X30746640Y-32623617D02*
X30746643Y-32623618D01*
X31700000Y-29313910D02*
X31700000Y-29159570D01*
X31170502Y-33932027D02*
X31279636Y-33822892D01*
X32261851Y-32840678D02*
X32370985Y-32731543D01*
X30861509Y-32738486D02*
X30746640Y-32623617D01*
X28006799Y-35799999D02*
X28321525Y-36114725D01*
X28346885Y-33957386D02*
X28765012Y-34375513D01*
X27800000Y-35800000D02*
X27799999Y-35799999D01*
X32762450Y-30837550D02*
X32762450Y-30702970D01*
X32762450Y-27616170D02*
X32762450Y-27141627D01*
X27568775Y-37428392D02*
X27406325Y-37428392D01*
X28862450Y-38053862D02*
X28862450Y-37899522D01*
X30213647Y-31883822D02*
X30322781Y-31774689D01*
X32165395Y-31434603D02*
X32762450Y-30837550D01*
X27406325Y-37428392D02*
G75*
G02*
X27337508Y-37359617I-25J68792D01*
G01*
X27337550Y-37050367D02*
G75*
G02*
X27406325Y-36981650I68750J-33D01*
G01*
X32370985Y-32731543D02*
G75*
G03*
X32370989Y-32065261I-333185J333143D01*
G01*
X30188287Y-34914241D02*
G75*
G03*
X30188289Y-34247961I-333187J333141D01*
G01*
X31279636Y-33822892D02*
G75*
G03*
X31279589Y-33156661I-333136J333092D01*
G01*
X29412875Y-35023376D02*
G75*
G03*
X30079153Y-35023376I333139J333138D01*
G01*
X32762450Y-30702970D02*
G75*
G02*
X32908680Y-30556750I146250J-30D01*
G01*
X27406325Y-36981592D02*
G75*
G03*
X27799992Y-36587917I-25J393692D01*
G01*
X32908680Y-27916740D02*
G75*
G02*
X32762460Y-27770510I20J146240D01*
G01*
X29122298Y-33181971D02*
G75*
G02*
X29122327Y-32975200I103402J103371D01*
G01*
X32056258Y-31750537D02*
G75*
G02*
X32056221Y-31543700I103442J103437D01*
G01*
X31595573Y-32840678D02*
G75*
G03*
X32261851Y-32840678I333139J333138D01*
G01*
X33353770Y-30556740D02*
G75*
G03*
X33824940Y-30085610I30J471140D01*
G01*
X33824900Y-29931270D02*
G75*
G03*
X33353770Y-29460200I-471100J-30D01*
G01*
X31846230Y-29460140D02*
G75*
G02*
X31699960Y-29313910I-30J146240D01*
G01*
X31700000Y-29159570D02*
G75*
G02*
X31846230Y-29013400I146200J-30D01*
G01*
X28321525Y-36114725D02*
G75*
G03*
X28987803Y-36114725I333139J333138D01*
G01*
X29096937Y-36005590D02*
G75*
G03*
X29096938Y-35339310I-333137J333140D01*
G01*
X28030949Y-34273320D02*
G75*
G02*
X28030929Y-34066500I103351J103420D01*
G01*
X33824900Y-28387870D02*
G75*
G03*
X33353770Y-27916800I-471100J-30D01*
G01*
X27799999Y-35799999D02*
G75*
G02*
X28006799Y-35799999I103400J-103399D01*
G01*
X28140083Y-33957387D02*
G75*
G02*
X28346900Y-33957370I103417J-103413D01*
G01*
X28391320Y-38524992D02*
G75*
G03*
X28862392Y-38053862I-20J471092D01*
G01*
X28862450Y-37899522D02*
G75*
G03*
X28391320Y-37428350I-471150J22D01*
G01*
X29231432Y-32866038D02*
G75*
G02*
X29438200Y-32866070I103368J-103362D01*
G01*
X30322781Y-31774689D02*
G75*
G02*
X30529600Y-31774670I103419J-103411D01*
G01*
X30213647Y-32090622D02*
G75*
G02*
X30213625Y-31883800I103353J103422D01*
G01*
X33353770Y-29013340D02*
G75*
G03*
X33824940Y-28542210I30J471140D01*
G01*
X27800000Y-38671222D02*
G75*
G02*
X27946230Y-38525000I146200J22D01*
G01*
X30504224Y-33932027D02*
G75*
G03*
X31170502Y-33932027I333139J333138D01*
G01*
%TO.N,/DDR3/DDR_DQS1N*%
X36332710Y-35750000D02*
X36182710Y-35750000D01*
X35337550Y-29132710D02*
X35337550Y-24647028D01*
X33550000Y-34762450D02*
X33550000Y-34612450D01*
X32850000Y-34900000D02*
X33412450Y-34900000D01*
X35582710Y-38074900D02*
X35432710Y-38074900D01*
X38048619Y-38201381D02*
X38220957Y-38373719D01*
X34970260Y-36912450D02*
X34970260Y-36450000D01*
X31668856Y-22742450D02*
X31348076Y-22421670D01*
X32387550Y-33862450D02*
X32387550Y-33652970D01*
X32387550Y-33652970D02*
X32557224Y-33483296D01*
X35025099Y-31015421D02*
X35025099Y-29445161D01*
X37082710Y-38074900D02*
X36932710Y-38074900D01*
X36470260Y-36587550D02*
X36470260Y-35887550D01*
X38387550Y-37617290D02*
X37682710Y-36912450D01*
X35025099Y-29445161D02*
X35337550Y-29132710D01*
X34832710Y-35750000D02*
X34682710Y-35750000D01*
X31687550Y-34900000D02*
X32250000Y-34900000D01*
X36045160Y-36587550D02*
X36045160Y-36912450D01*
X36470260Y-37050000D02*
X36470260Y-36587550D01*
X38220957Y-38373719D02*
X38246541Y-38373719D01*
X32922710Y-22742450D02*
X31668856Y-22742450D01*
X34082710Y-36912450D02*
X33932710Y-36912450D01*
X36470260Y-37612450D02*
X36470260Y-37050000D01*
X33932710Y-36912450D02*
X33052970Y-36912450D01*
X34122710Y-23942450D02*
X32922710Y-22742450D01*
X34545160Y-35887550D02*
X34545160Y-36450000D01*
X38387550Y-37717882D02*
X38387550Y-37617290D01*
X36045160Y-35887550D02*
X36045160Y-36587550D01*
X37545160Y-37050000D02*
X37545160Y-37612450D01*
X34970260Y-36450000D02*
X34970260Y-35887550D01*
X36045160Y-36912450D02*
X36045160Y-37612450D01*
X33412450Y-34474900D02*
X32850000Y-34474900D01*
X32250000Y-35974900D02*
X31687550Y-35974900D01*
X34632972Y-23942450D02*
X34122710Y-23942450D01*
X34970260Y-37612450D02*
X34970260Y-36912450D01*
X32387550Y-36247030D02*
X32387550Y-36112450D01*
X35337550Y-24647028D02*
X34632972Y-23942450D01*
X31225100Y-35512450D02*
X31225100Y-35362450D01*
X38246541Y-38373719D02*
X38387550Y-38232710D01*
X38387550Y-38232710D02*
X38387550Y-37717882D01*
X32250000Y-34900000D02*
X32850000Y-34900000D01*
X32557224Y-33483296D02*
X35025099Y-31015421D01*
X33052970Y-36912450D02*
X32387550Y-36247030D01*
X32387550Y-34012450D02*
X32387550Y-33862450D01*
X36182710Y-35750000D02*
G75*
G03*
X36045200Y-35887550I-10J-137500D01*
G01*
X36045160Y-37612450D02*
G75*
G02*
X35582710Y-38074960I-462460J-50D01*
G01*
X32387550Y-36112450D02*
G75*
G03*
X32250000Y-35974850I-137550J50D01*
G01*
X36470260Y-35887550D02*
G75*
G03*
X36332710Y-35749940I-137560J50D01*
G01*
X34682710Y-35750000D02*
G75*
G03*
X34545200Y-35887550I-10J-137500D01*
G01*
X37682710Y-36912450D02*
G75*
G03*
X37545150Y-37050000I-10J-137550D01*
G01*
X37545160Y-37612450D02*
G75*
G02*
X37082710Y-38074960I-462460J-50D01*
G01*
X33412450Y-34900000D02*
G75*
G03*
X33550000Y-34762450I50J137500D01*
G01*
X36932710Y-38074900D02*
G75*
G02*
X36470300Y-37612450I-10J462400D01*
G01*
X33550000Y-34612450D02*
G75*
G03*
X33412450Y-34474900I-137500J50D01*
G01*
X34970260Y-35887550D02*
G75*
G03*
X34832710Y-35749940I-137560J50D01*
G01*
X34545160Y-36450000D02*
G75*
G02*
X34082710Y-36912460I-462460J0D01*
G01*
X31225100Y-35362450D02*
G75*
G02*
X31687550Y-34900000I462400J50D01*
G01*
X35432710Y-38074900D02*
G75*
G02*
X34970300Y-37612450I-10J462400D01*
G01*
X32850000Y-34474900D02*
G75*
G02*
X32387600Y-34012450I0J462400D01*
G01*
X31687550Y-35974900D02*
G75*
G02*
X31225100Y-35512450I-50J462400D01*
G01*
D12*
%TO.N,/DDR3/DDR_D4*%
X25245213Y-41766893D02*
X24506025Y-41027705D01*
X26280017Y-42690000D02*
X26280017Y-42210000D01*
X25880017Y-41510000D02*
X25880017Y-41890000D01*
X24400000Y-38801680D02*
X24400000Y-38721680D01*
X25528320Y-42050000D02*
X25245213Y-41766893D01*
X24240000Y-37761680D02*
X23560000Y-37761680D01*
X23400000Y-35921680D02*
X23400000Y-35850000D01*
X28100000Y-42000000D02*
X28050000Y-42050000D01*
X24845436Y-40235744D02*
X24788867Y-40179175D01*
X23560000Y-38961680D02*
X24240000Y-38961680D01*
X24240000Y-38561680D02*
X23560000Y-38561680D01*
X23560000Y-37361680D02*
X24240000Y-37361680D01*
X24240000Y-36961680D02*
X23560000Y-36961680D01*
X23560000Y-38161680D02*
X24240000Y-38161680D01*
X26520017Y-42850000D02*
X26440017Y-42850000D01*
X24400000Y-37201680D02*
X24400000Y-37121680D01*
X23400000Y-36001680D02*
X23400000Y-35921680D01*
X24400000Y-36401680D02*
X24400000Y-36321680D01*
X24400000Y-38001680D02*
X24400000Y-37921680D01*
X27480017Y-42210000D02*
X27480017Y-42890000D01*
X24090000Y-39361680D02*
X23560000Y-39361680D01*
X26680017Y-42210000D02*
X26680017Y-42690000D01*
X28050000Y-42050000D02*
X27640017Y-42050000D01*
X27320017Y-43050000D02*
X27240017Y-43050000D01*
X23560000Y-36561680D02*
X24240000Y-36561680D01*
X25640017Y-42050000D02*
X25528320Y-42050000D01*
X23940339Y-40462019D02*
X23622140Y-40143820D01*
X27080017Y-42890000D02*
X27080017Y-42210000D01*
X26920017Y-42050000D02*
X26840017Y-42050000D01*
X23560000Y-39761680D02*
X24090000Y-39761680D01*
X23400000Y-38401680D02*
X23400000Y-38321680D01*
X24506025Y-40801430D02*
X24845436Y-40462018D01*
X23996907Y-40518586D02*
X23940339Y-40462019D01*
X24562593Y-40179175D02*
X24223181Y-40518586D01*
X24240000Y-36161680D02*
X23560000Y-36161680D01*
X23400000Y-36801680D02*
X23400000Y-36721680D01*
X23400000Y-39201680D02*
X23400000Y-39121680D01*
X26280017Y-41890000D02*
X26280017Y-41510000D01*
X26120017Y-41350000D02*
X26040017Y-41350000D01*
X26280017Y-42210000D02*
X26280017Y-41890000D01*
X25720017Y-42050000D02*
X25640017Y-42050000D01*
X23622140Y-40143820D02*
X23400000Y-39921680D01*
X24250000Y-39601680D02*
X24250000Y-39521680D01*
X23400000Y-37601680D02*
X23400000Y-37521680D01*
X24090000Y-39761680D02*
G75*
G03*
X24249980Y-39601680I0J159980D01*
G01*
X26280017Y-41510000D02*
G75*
G03*
X26120017Y-41349983I-160017J0D01*
G01*
X24223181Y-40518586D02*
G75*
G02*
X23996907Y-40518586I-113137J113137D01*
G01*
X27480017Y-42890000D02*
G75*
G02*
X27320017Y-43050017I-160017J0D01*
G01*
X27240017Y-43050000D02*
G75*
G02*
X27080000Y-42890000I-17J160000D01*
G01*
X25880017Y-41890000D02*
G75*
G02*
X25720017Y-42050017I-160017J0D01*
G01*
X26440017Y-42850000D02*
G75*
G02*
X26280000Y-42690000I-17J160000D01*
G01*
X24400000Y-37921680D02*
G75*
G03*
X24240000Y-37761700I-160000J-20D01*
G01*
X24240000Y-37361680D02*
G75*
G03*
X24399980Y-37201680I0J159980D01*
G01*
X23560000Y-38561680D02*
G75*
G02*
X23400020Y-38401680I0J159980D01*
G01*
X27080017Y-42210000D02*
G75*
G03*
X26920017Y-42049983I-160017J0D01*
G01*
X24400000Y-37121680D02*
G75*
G03*
X24240000Y-36961700I-160000J-20D01*
G01*
X26040017Y-41350000D02*
G75*
G03*
X25880000Y-41510000I-17J-160000D01*
G01*
X23400000Y-37521680D02*
G75*
G02*
X23560000Y-37361700I160000J-20D01*
G01*
X24845436Y-40462018D02*
G75*
G03*
X24845417Y-40235763I-113136J113118D01*
G01*
X23560000Y-36961680D02*
G75*
G02*
X23400020Y-36801680I0J159980D01*
G01*
X23560000Y-39361680D02*
G75*
G02*
X23400020Y-39201680I0J159980D01*
G01*
X23400000Y-39921680D02*
G75*
G02*
X23560000Y-39761700I160000J-20D01*
G01*
X23560000Y-36161680D02*
G75*
G02*
X23400020Y-36001680I0J159980D01*
G01*
X24400000Y-38721680D02*
G75*
G03*
X24240000Y-38561700I-160000J-20D01*
G01*
X24240000Y-38161680D02*
G75*
G03*
X24399980Y-38001680I0J159980D01*
G01*
X27640017Y-42050000D02*
G75*
G03*
X27480000Y-42210000I-17J-160000D01*
G01*
X23400000Y-38321680D02*
G75*
G02*
X23560000Y-38161700I160000J-20D01*
G01*
X26840017Y-42050000D02*
G75*
G03*
X26680000Y-42210000I-17J-160000D01*
G01*
X24240000Y-38961680D02*
G75*
G03*
X24399980Y-38801680I0J159980D01*
G01*
X23560000Y-37761680D02*
G75*
G02*
X23400020Y-37601680I0J159980D01*
G01*
X24788867Y-40179175D02*
G75*
G03*
X24562593Y-40179175I-113137J-113137D01*
G01*
X26680017Y-42690000D02*
G75*
G02*
X26520017Y-42850017I-160017J0D01*
G01*
X24400000Y-36321680D02*
G75*
G03*
X24240000Y-36161700I-160000J-20D01*
G01*
X24240000Y-36561680D02*
G75*
G03*
X24399980Y-36401680I0J159980D01*
G01*
X24250000Y-39521680D02*
G75*
G03*
X24090000Y-39361700I-160000J-20D01*
G01*
X24506025Y-41027705D02*
G75*
G02*
X24506057Y-40801462I113175J113105D01*
G01*
X23400000Y-39121680D02*
G75*
G02*
X23560000Y-38961700I160000J-20D01*
G01*
X23400000Y-36721680D02*
G75*
G02*
X23560000Y-36561700I160000J-20D01*
G01*
%TO.N,/DDR3/DDR_A4*%
X36400000Y-39050000D02*
X36850000Y-39500000D01*
D13*
X36500000Y-41975000D02*
X36500000Y-42400000D01*
D12*
X36850000Y-39500000D02*
X36850000Y-41000000D01*
X36500000Y-41350000D02*
X36500000Y-41750000D01*
D13*
X36500000Y-41750000D02*
X36500000Y-42175000D01*
X36500000Y-42400000D02*
X36900000Y-42800000D01*
D12*
X36000000Y-39050000D02*
X36400000Y-39050000D01*
X36850000Y-41000000D02*
X36500000Y-41350000D01*
%TO.N,/DDR3/DDR_A11*%
X34392500Y-39492500D02*
X34392500Y-41278340D01*
D13*
X34900000Y-42500000D02*
X34392500Y-41992500D01*
D12*
X34100000Y-37300000D02*
X33650000Y-37750000D01*
X34500000Y-37300000D02*
X34100000Y-37300000D01*
X33650000Y-38307052D02*
X33950000Y-38607052D01*
D13*
X34900000Y-43007052D02*
X34900000Y-42500000D01*
D12*
X34900000Y-43200000D02*
X34900000Y-43007052D01*
D13*
X34392500Y-41992500D02*
X34392500Y-41278340D01*
D12*
X33950000Y-39050000D02*
X34392500Y-39492500D01*
X35300000Y-43600000D02*
X34900000Y-43200000D01*
X33650000Y-37750000D02*
X33650000Y-38307052D01*
X33950000Y-38607052D02*
X33950000Y-39050000D01*
%TO.N,/DDR3/DDR_A1*%
X34650000Y-38700000D02*
X34650000Y-41350000D01*
X34650000Y-41350000D02*
X35300000Y-42000000D01*
X34250000Y-38300000D02*
X34650000Y-38700000D01*
D14*
%TO.N,/DDR3/DDR_DQS1P*%
X34767550Y-23617550D02*
X34257290Y-23617550D01*
X32250000Y-35224900D02*
X32850000Y-35224900D01*
X33874900Y-34762450D02*
X33874900Y-34612450D01*
X35662450Y-29267290D02*
X35662450Y-24512450D01*
X33412450Y-34150000D02*
X32850000Y-34150000D01*
X38712450Y-38367290D02*
X38712450Y-37717882D01*
X35582710Y-37750000D02*
X35432710Y-37750000D01*
X35295160Y-36450000D02*
X35295160Y-35887550D01*
X36795160Y-37050000D02*
X36795160Y-36587550D01*
X32786964Y-33713036D02*
X35350000Y-31150000D01*
X36332710Y-35425100D02*
X36182710Y-35425100D01*
X35662450Y-24512450D02*
X34767550Y-23617550D01*
X31550000Y-35512450D02*
X31550000Y-35362450D01*
X35720260Y-36912450D02*
X35720260Y-37612450D01*
X36795160Y-36587550D02*
X36795160Y-35887550D01*
X35295160Y-36912450D02*
X35295160Y-36450000D01*
X35295160Y-37612450D02*
X35295160Y-36912450D01*
X35350000Y-31150000D02*
X35350000Y-29579740D01*
X32712450Y-33787550D02*
X32786964Y-33713036D01*
X32712450Y-34012450D02*
X32712450Y-33862450D01*
X34082710Y-36587550D02*
X33932710Y-36587550D01*
X31612144Y-22226258D02*
X31612144Y-21891608D01*
X32850000Y-35224900D02*
X33412450Y-35224900D01*
X38712450Y-37482710D02*
X37817290Y-36587550D01*
X36795160Y-37612450D02*
X36795160Y-37050000D01*
X33057290Y-22417550D02*
X31803436Y-22417550D01*
X33932710Y-36587550D02*
X33187550Y-36587550D01*
X35720260Y-36587550D02*
X35720260Y-36912450D01*
X37817290Y-36587550D02*
X37682710Y-36587550D01*
X32712450Y-33862450D02*
X32712450Y-33787550D01*
X34257290Y-23617550D02*
X33057290Y-22417550D01*
X34832710Y-35425100D02*
X34682710Y-35425100D01*
X31803436Y-22417550D02*
X31612144Y-22226258D01*
X34220260Y-35887550D02*
X34220260Y-36450000D01*
X32250000Y-35650000D02*
X31687550Y-35650000D01*
X35720260Y-35887550D02*
X35720260Y-36587550D01*
X37551381Y-38698619D02*
X38381121Y-38698619D01*
X38381121Y-38698619D02*
X38712450Y-38367290D01*
X37082710Y-37750000D02*
X36932710Y-37750000D01*
X37220260Y-37050000D02*
X37220260Y-37612450D01*
X31687550Y-35224900D02*
X32250000Y-35224900D01*
X33187550Y-36587550D02*
X32712450Y-36112450D01*
X35350000Y-29579740D02*
X35662450Y-29267290D01*
X38712450Y-37717882D02*
X38712450Y-37482710D01*
X36795160Y-35887550D02*
G75*
G03*
X36332710Y-35425040I-462460J50D01*
G01*
X35295160Y-35887550D02*
G75*
G03*
X34832710Y-35425040I-462460J50D01*
G01*
X34682710Y-35425100D02*
G75*
G03*
X34220300Y-35887550I-10J-462400D01*
G01*
X36932710Y-37750000D02*
G75*
G02*
X36795200Y-37612450I-10J137500D01*
G01*
X31550000Y-35362450D02*
G75*
G02*
X31687550Y-35224900I137500J50D01*
G01*
X37682710Y-36587550D02*
G75*
G03*
X37220250Y-37050000I-10J-462450D01*
G01*
X37220260Y-37612450D02*
G75*
G02*
X37082710Y-37750060I-137560J-50D01*
G01*
X33874900Y-34612450D02*
G75*
G03*
X33412450Y-34150000I-462400J50D01*
G01*
X36182710Y-35425100D02*
G75*
G03*
X35720300Y-35887550I-10J-462400D01*
G01*
X35720260Y-37612450D02*
G75*
G02*
X35582710Y-37750060I-137560J-50D01*
G01*
X33412450Y-35224900D02*
G75*
G03*
X33874900Y-34762450I50J462400D01*
G01*
X34220260Y-36450000D02*
G75*
G02*
X34082710Y-36587560I-137560J0D01*
G01*
X32850000Y-34150000D02*
G75*
G02*
X32712500Y-34012450I0J137500D01*
G01*
X32712450Y-36112450D02*
G75*
G03*
X32250000Y-35649950I-462450J50D01*
G01*
X35432710Y-37750000D02*
G75*
G02*
X35295200Y-37612450I-10J137500D01*
G01*
X31687550Y-35650000D02*
G75*
G02*
X31550000Y-35512450I-50J137500D01*
G01*
D12*
%TO.N,/DDR3/DDR_D0*%
X28100000Y-41200000D02*
X27950000Y-41050000D01*
X22660000Y-32670464D02*
X23100000Y-32670464D01*
X24100000Y-31710464D02*
X24100000Y-31630464D01*
X22500000Y-32110464D02*
X22500000Y-32030464D01*
X22660000Y-30270464D02*
X23100000Y-30270464D01*
X22940000Y-33870464D02*
X22910000Y-33870464D01*
X24100000Y-33310464D02*
X24100000Y-33230464D01*
X23100000Y-32670464D02*
X23940000Y-32670464D01*
X23100000Y-29710464D02*
X23100000Y-29630464D01*
X22750000Y-33710464D02*
X22750000Y-33630464D01*
X23100000Y-31470464D02*
X22660000Y-31470464D01*
X24850000Y-39400000D02*
X24850000Y-35885840D01*
X23100000Y-32270464D02*
X22660000Y-32270464D01*
X22660000Y-31070464D02*
X23100000Y-31070464D01*
X24100000Y-30910464D02*
X24100000Y-30830464D01*
X24100000Y-32510464D02*
X24100000Y-32430464D01*
X25325000Y-39875000D02*
X24850000Y-39400000D01*
X23100000Y-30670464D02*
X22660000Y-30670464D01*
X23940000Y-32270464D02*
X23100000Y-32270464D01*
X22500000Y-32910464D02*
X22500000Y-32830464D01*
X22660000Y-31870464D02*
X23100000Y-31870464D01*
X24100000Y-30110464D02*
X24100000Y-30030464D01*
X23940000Y-33070464D02*
X23100000Y-33070464D01*
X23100000Y-31070464D02*
X23940000Y-31070464D01*
X22500000Y-30510464D02*
X22500000Y-30430464D01*
X23100000Y-33070464D02*
X22660000Y-33070464D01*
X22500000Y-31310464D02*
X22500000Y-31230464D01*
X23100000Y-30270464D02*
X23260000Y-30270464D01*
X23940000Y-30670464D02*
X23100000Y-30670464D01*
X25325000Y-40675000D02*
X25325000Y-39875000D01*
X23100000Y-31870464D02*
X23940000Y-31870464D01*
X23260000Y-30270464D02*
X23940000Y-30270464D01*
X23940000Y-29870464D02*
X23260000Y-29870464D01*
X22940000Y-33470464D02*
X23100000Y-33470464D01*
X25700000Y-41050000D02*
X25325000Y-40675000D01*
X23100000Y-34135840D02*
X23100000Y-34030464D01*
X23940000Y-31470464D02*
X23100000Y-31470464D01*
X23100000Y-29630464D02*
X23100000Y-29155068D01*
X27950000Y-41050000D02*
X25700000Y-41050000D01*
X22910000Y-33470464D02*
X22940000Y-33470464D01*
X24850000Y-35885840D02*
X23100000Y-34135840D01*
X23100000Y-33470464D02*
X23940000Y-33470464D01*
X23100000Y-34030464D02*
G75*
G03*
X22940000Y-33870500I-160000J-36D01*
G01*
X22660000Y-32270464D02*
G75*
G02*
X22500036Y-32110464I0J159964D01*
G01*
X24100000Y-30830464D02*
G75*
G03*
X23940000Y-30670500I-160000J-36D01*
G01*
X23940000Y-33470464D02*
G75*
G03*
X24099964Y-33310464I0J159964D01*
G01*
X22500000Y-31230464D02*
G75*
G02*
X22660000Y-31070500I160000J-36D01*
G01*
X22500000Y-32030464D02*
G75*
G02*
X22660000Y-31870500I160000J-36D01*
G01*
X23260000Y-29870464D02*
G75*
G02*
X23100036Y-29710464I0J159964D01*
G01*
X22910000Y-33870464D02*
G75*
G02*
X22750036Y-33710464I0J159964D01*
G01*
X24100000Y-32430464D02*
G75*
G03*
X23940000Y-32270500I-160000J-36D01*
G01*
X23940000Y-31870464D02*
G75*
G03*
X24099964Y-31710464I0J159964D01*
G01*
X24100000Y-33230464D02*
G75*
G03*
X23940000Y-33070500I-160000J-36D01*
G01*
X22500000Y-30430464D02*
G75*
G02*
X22660000Y-30270500I160000J-36D01*
G01*
X24100000Y-30030464D02*
G75*
G03*
X23940000Y-29870500I-160000J-36D01*
G01*
X24100000Y-31630464D02*
G75*
G03*
X23940000Y-31470500I-160000J-36D01*
G01*
X23940000Y-30270464D02*
G75*
G03*
X24099964Y-30110464I0J159964D01*
G01*
X22660000Y-31470464D02*
G75*
G02*
X22500036Y-31310464I0J159964D01*
G01*
X23940000Y-32670464D02*
G75*
G03*
X24099964Y-32510464I0J159964D01*
G01*
X22660000Y-30670464D02*
G75*
G02*
X22500036Y-30510464I0J159964D01*
G01*
X22500000Y-32830464D02*
G75*
G02*
X22660000Y-32670500I160000J-36D01*
G01*
X22660000Y-33070464D02*
G75*
G02*
X22500036Y-32910464I0J159964D01*
G01*
X22750000Y-33630464D02*
G75*
G02*
X22910000Y-33470500I160000J-36D01*
G01*
X23940000Y-31070464D02*
G75*
G03*
X24099964Y-30910464I0J159964D01*
G01*
D14*
%TO.N,/DDR3/DDR_DQS0P*%
X27801210Y-33836781D02*
X27910344Y-33727648D01*
X29224487Y-34375511D02*
X29642614Y-34793637D01*
X29109620Y-34260643D02*
X29109618Y-34260641D01*
X30516901Y-32853356D02*
X30516902Y-32853359D01*
X31846230Y-28688440D02*
X32437550Y-28688440D01*
X28758064Y-35884986D02*
X28867198Y-35775851D01*
X32908680Y-28688440D02*
X33353770Y-28688440D01*
X29425553Y-33944708D02*
X29310685Y-33829837D01*
X28864150Y-39862450D02*
X27952970Y-39862450D01*
X30940763Y-33702288D02*
X31049897Y-33593153D01*
X31177449Y-31963076D02*
X31292318Y-32077945D01*
X27568775Y-37753292D02*
X27406325Y-37753292D01*
X31826519Y-31313998D02*
X31935656Y-31204864D01*
X27475100Y-36587917D02*
X27475100Y-36278667D01*
X29849414Y-34793637D02*
X29958548Y-34684502D01*
X28576624Y-33727647D02*
X28994751Y-34145774D01*
X30402034Y-32738488D02*
X29983906Y-32320363D01*
X28537550Y-38053862D02*
X28537550Y-37899522D01*
X31510586Y-32296213D02*
X31825312Y-32610939D01*
X28334202Y-35036054D02*
X28334204Y-35036057D01*
X29576600Y-39150000D02*
X28864150Y-39862450D01*
X32437550Y-26367290D02*
X32132710Y-26062450D01*
X30631770Y-32968225D02*
X30516901Y-32853356D01*
X31935656Y-31204864D02*
X32437550Y-30702970D01*
X28867198Y-35569050D02*
X28552471Y-35254323D01*
X29983908Y-31654083D02*
X30093042Y-31544950D01*
X29540421Y-34059574D02*
X29425552Y-33944705D01*
X31292316Y-32077943D02*
X31510586Y-32296213D01*
X32908680Y-30231840D02*
X33353770Y-30231840D01*
X31375100Y-29313910D02*
X31375100Y-29159570D01*
X28236538Y-35570260D02*
X28551264Y-35884986D01*
X27952970Y-39862450D02*
X27475100Y-39384580D01*
X27012650Y-37359617D02*
X27012650Y-37050367D01*
X29109618Y-34260641D02*
X29224487Y-34375511D01*
X33353770Y-28241640D02*
X32908680Y-28241640D01*
X30759322Y-31544949D02*
X31177449Y-31963076D01*
X30200967Y-33169292D02*
X30315836Y-33284162D01*
X27475100Y-35665420D02*
X27570260Y-35570260D01*
X30086100Y-33054425D02*
X30200969Y-33169294D01*
X27946230Y-38200092D02*
X28391320Y-38200092D01*
X27475100Y-36278667D02*
X27475100Y-35665420D01*
X32014150Y-26062450D02*
X31850000Y-26226600D01*
X30516902Y-32853359D02*
X30402034Y-32738488D01*
X32437550Y-27616170D02*
X32437550Y-27141627D01*
X28334204Y-35036057D02*
X28219336Y-34921186D01*
X29958548Y-34477701D02*
X29540421Y-34059574D01*
X32032112Y-32610939D02*
X32141246Y-32501804D01*
X29425552Y-33944705D02*
X29425553Y-33944708D01*
X31049897Y-33386352D02*
X30631770Y-32968225D01*
X32437550Y-29785040D02*
X31846230Y-29785040D01*
X31292318Y-32077945D02*
X31292316Y-32077943D01*
X33353770Y-29785040D02*
X32908680Y-29785040D01*
X29310685Y-33829837D02*
X28892557Y-33411712D01*
X28994751Y-34145774D02*
X29109620Y-34260643D01*
X32437550Y-28688440D02*
X32908680Y-28688440D01*
X32908680Y-29785040D02*
X32437550Y-29785040D01*
X32437550Y-27141627D02*
X32437550Y-26367290D01*
X28391320Y-37753292D02*
X27946230Y-37753292D01*
X27946230Y-37753292D02*
X27568775Y-37753292D01*
X30200969Y-33169294D02*
X30200967Y-33169292D01*
X28552471Y-35254323D02*
X28334202Y-35036054D01*
X32141246Y-32295003D02*
X31826519Y-31980276D01*
X28892559Y-32745432D02*
X29001693Y-32636299D01*
X30315836Y-33284162D02*
X30733963Y-33702288D01*
X32437550Y-27770510D02*
X32437550Y-27616170D01*
X27475100Y-39384580D02*
X27475100Y-38671222D01*
X32132710Y-26062450D02*
X32014150Y-26062450D01*
X33500000Y-28542210D02*
X33500000Y-28387870D01*
X29667973Y-32636298D02*
X30086100Y-33054425D01*
X33500000Y-30085610D02*
X33500000Y-29931270D01*
X28219336Y-34921186D02*
X27801208Y-34503061D01*
X32141246Y-32501804D02*
G75*
G03*
X32141250Y-32295000I-103446J103404D01*
G01*
X27475100Y-38671222D02*
G75*
G02*
X27946230Y-38200100I471100J22D01*
G01*
X32908680Y-28241640D02*
G75*
G02*
X32437560Y-27770510I20J471140D01*
G01*
X29983906Y-32320363D02*
G75*
G02*
X29983884Y-31654059I333094J333163D01*
G01*
X30093042Y-31544950D02*
G75*
G02*
X30759339Y-31544931I333158J-333150D01*
G01*
X27910344Y-33727648D02*
G75*
G02*
X28576639Y-33727631I333156J-333152D01*
G01*
X29642614Y-34793637D02*
G75*
G03*
X29849414Y-34793637I103400J103399D01*
G01*
X31825312Y-32610939D02*
G75*
G03*
X32032112Y-32610939I103400J103399D01*
G01*
X27406325Y-36656692D02*
G75*
G03*
X27475092Y-36587917I-25J68792D01*
G01*
X28391320Y-38200092D02*
G75*
G03*
X28537492Y-38053862I-20J146192D01*
G01*
X27801208Y-34503061D02*
G75*
G02*
X27801188Y-33836759I333092J333161D01*
G01*
X29001693Y-32636299D02*
G75*
G02*
X29667939Y-32636331I333107J-333101D01*
G01*
X28537550Y-37899522D02*
G75*
G03*
X28391320Y-37753250I-146250J22D01*
G01*
X31846230Y-29785040D02*
G75*
G02*
X31375060Y-29313910I-30J471140D01*
G01*
X33353770Y-28688440D02*
G75*
G03*
X33500040Y-28542210I30J146240D01*
G01*
X33500000Y-28387870D02*
G75*
G03*
X33353770Y-28241700I-146200J-30D01*
G01*
X28867198Y-35775851D02*
G75*
G03*
X28867149Y-35569100I-103398J103351D01*
G01*
X27570260Y-35570260D02*
G75*
G02*
X28236538Y-35570260I333139J-333138D01*
G01*
X33500000Y-29931270D02*
G75*
G03*
X33353770Y-29785100I-146200J-30D01*
G01*
X27406325Y-37753292D02*
G75*
G02*
X27012608Y-37359617I-25J393692D01*
G01*
X29958548Y-34684502D02*
G75*
G03*
X29958550Y-34477700I-103448J103402D01*
G01*
X28892557Y-33411712D02*
G75*
G02*
X28892586Y-32745459I333143J333112D01*
G01*
X31375100Y-29159570D02*
G75*
G02*
X31846230Y-28688500I471100J-30D01*
G01*
X31826519Y-31980276D02*
G75*
G02*
X31826482Y-31313961I333181J333176D01*
G01*
X33353770Y-30231840D02*
G75*
G03*
X33500040Y-30085610I30J146240D01*
G01*
X28551264Y-35884986D02*
G75*
G03*
X28758064Y-35884986I103400J103399D01*
G01*
X30733963Y-33702288D02*
G75*
G03*
X30940763Y-33702288I103400J103399D01*
G01*
X27012650Y-37050367D02*
G75*
G02*
X27406325Y-36656750I393650J-33D01*
G01*
X32437550Y-30702970D02*
G75*
G02*
X32908680Y-30231850I471150J-30D01*
G01*
X31049897Y-33593153D02*
G75*
G03*
X31049850Y-33386400I-103397J103353D01*
G01*
D12*
%TO.N,/DDR3/DDR_DQM1*%
X30150000Y-18510000D02*
X28950000Y-19710000D01*
X41987500Y-41578768D02*
X41987500Y-27067991D01*
X38700000Y-44600000D02*
X41100000Y-44600000D01*
X37700000Y-43600000D02*
X38700000Y-44600000D01*
X40760000Y-18510000D02*
X30150000Y-18510000D01*
X41990000Y-27065491D02*
X41990000Y-19740000D01*
X28950000Y-19710000D02*
X28950000Y-23500000D01*
X41100000Y-44600000D02*
X41990000Y-43710000D01*
X41987500Y-27067991D02*
X41990000Y-27065491D01*
X41990000Y-19740000D02*
X40760000Y-18510000D01*
X41990000Y-43710000D02*
X41990000Y-41581268D01*
X41990000Y-41581268D02*
X41987500Y-41578768D01*
%TO.N,/DDR3/DDR_D10*%
X41440000Y-41402948D02*
X41020750Y-41822198D01*
X41250000Y-26040000D02*
X41280000Y-26040000D01*
X41020750Y-42177802D02*
X41100000Y-42257052D01*
X35980000Y-19930000D02*
X35780000Y-19930000D01*
X41280000Y-27240000D02*
X41000000Y-27240000D01*
X39430000Y-19730000D02*
X39230000Y-19730000D01*
X35580000Y-19730000D02*
X35380000Y-19730000D01*
X41440000Y-41274259D02*
X41440000Y-41402948D01*
X41100000Y-22700000D02*
X41100000Y-22620000D01*
X38430000Y-19730000D02*
X36630000Y-19730000D01*
X36630000Y-19730000D02*
X36180000Y-19730000D01*
X41290000Y-23660000D02*
X41260000Y-23660000D01*
X33677052Y-19730000D02*
X33527802Y-19580750D01*
X41100000Y-21900000D02*
X41100000Y-21820000D01*
X41290000Y-22860000D02*
X41260000Y-22860000D01*
X41290000Y-24460000D02*
X41260000Y-24460000D01*
X31920000Y-20240000D02*
X31920000Y-20440000D01*
X41450000Y-24700000D02*
X41450000Y-24620000D01*
X41440000Y-40822691D02*
X41440000Y-40902691D01*
X41100000Y-20000000D02*
X40830000Y-19730000D01*
X38500000Y-43250000D02*
X38500000Y-42800000D01*
X40330000Y-19730000D02*
X40330000Y-19830000D01*
X41100000Y-21100000D02*
X41100000Y-21020000D01*
X41040000Y-27880000D02*
X41040000Y-27800000D01*
X31720000Y-20840000D02*
X31720000Y-21020000D01*
X41200000Y-27640000D02*
X41280000Y-27640000D01*
X40840000Y-27080000D02*
X40840000Y-27000000D01*
X41260000Y-24860000D02*
X41290000Y-24860000D01*
X41100000Y-24860000D02*
X41260000Y-24860000D01*
X34780000Y-19730000D02*
X34580000Y-19730000D01*
X41440000Y-33150000D02*
X41440000Y-28650000D01*
X33172198Y-19580750D02*
X33022948Y-19730000D01*
X41100000Y-43237254D02*
X40187254Y-44150000D01*
X41290000Y-21260000D02*
X41260000Y-21260000D01*
X41280000Y-40262691D02*
X40650000Y-40262691D01*
X40230000Y-19930000D02*
X40030000Y-19930000D01*
X41260000Y-24060000D02*
X41290000Y-24060000D01*
X33780000Y-19730000D02*
X33677052Y-19730000D01*
X41090000Y-26280000D02*
X41090000Y-26200000D01*
X39930000Y-19830000D02*
X39930000Y-19730000D01*
X41100000Y-20300000D02*
X41100000Y-20220000D01*
X33022948Y-19730000D02*
X32030000Y-19730000D01*
X41260000Y-20860000D02*
X41290000Y-20860000D01*
X40187254Y-44150000D02*
X39400000Y-44150000D01*
X41440000Y-25750000D02*
X41121801Y-25431801D01*
X41020750Y-41822198D02*
X41020750Y-42177802D01*
X41121801Y-25431801D02*
X41100000Y-25410000D01*
X39030000Y-19530000D02*
X38830000Y-19530000D01*
X41100000Y-23500000D02*
X41100000Y-23420000D01*
X40490000Y-40422691D02*
X40490000Y-40502691D01*
X33527802Y-19580750D02*
X33172198Y-19580750D01*
X41450000Y-23900000D02*
X41450000Y-23820000D01*
X33980000Y-19730000D02*
X33780000Y-19730000D01*
X41280000Y-28040000D02*
X41200000Y-28040000D01*
X41450000Y-21500000D02*
X41450000Y-21420000D01*
X41000000Y-26840000D02*
X41280000Y-26840000D01*
X40330000Y-19630000D02*
X40330000Y-19730000D01*
X41440000Y-40902691D02*
X41440000Y-41274259D01*
X39930000Y-19730000D02*
X39930000Y-19630000D01*
X40950000Y-24860000D02*
X41100000Y-24860000D01*
X41440000Y-25880000D02*
X41440000Y-25800000D01*
X38630000Y-19730000D02*
X38430000Y-19730000D01*
X41260000Y-22460000D02*
X41290000Y-22460000D01*
X41450000Y-20700000D02*
X41450000Y-20620000D01*
X41100000Y-20220000D02*
X41100000Y-20000000D01*
X41290000Y-22060000D02*
X41260000Y-22060000D01*
X41440000Y-25800000D02*
X41440000Y-25750000D01*
X41440000Y-33150000D02*
X41440000Y-40102691D01*
X34380000Y-19930000D02*
X34180000Y-19930000D01*
X41440000Y-28650000D02*
X41440000Y-28200000D01*
X32030000Y-19730000D02*
X31720000Y-20040000D01*
X31720000Y-21020000D02*
X32550000Y-21850000D01*
X41450000Y-23100000D02*
X41450000Y-23020000D01*
X41260000Y-23260000D02*
X41290000Y-23260000D01*
X41290000Y-20460000D02*
X41260000Y-20460000D01*
X41280000Y-26440000D02*
X41250000Y-26440000D01*
X41100000Y-42257052D02*
X41100000Y-43237254D01*
X39400000Y-44150000D02*
X38500000Y-43250000D01*
X40650000Y-40662691D02*
X41280000Y-40662691D01*
X39830000Y-19530000D02*
X39630000Y-19530000D01*
X40630000Y-19530000D02*
X40430000Y-19530000D01*
X41260000Y-21660000D02*
X41290000Y-21660000D01*
X41450000Y-22300000D02*
X41450000Y-22220000D01*
X41440000Y-27480000D02*
X41440000Y-27400000D01*
X31720000Y-20640000D02*
X31720000Y-20840000D01*
X35180000Y-19930000D02*
X34980000Y-19930000D01*
X40800000Y-25110000D02*
X40800000Y-25010000D01*
X41100000Y-24300000D02*
X41100000Y-24220000D01*
X41440000Y-26680000D02*
X41440000Y-26600000D01*
X41090000Y-26200000D02*
G75*
G02*
X41250000Y-26040000I160000J0D01*
G01*
X41260000Y-22060000D02*
G75*
G02*
X41100000Y-21900000I0J160000D01*
G01*
X41280000Y-26840000D02*
G75*
G03*
X41440000Y-26680000I0J160000D01*
G01*
X40650000Y-40262691D02*
G75*
G03*
X40489991Y-40422691I0J-160009D01*
G01*
X41450000Y-21420000D02*
G75*
G03*
X41290000Y-21260000I-160000J0D01*
G01*
X41290000Y-24860000D02*
G75*
G03*
X41450000Y-24700000I0J160000D01*
G01*
X41000000Y-27240000D02*
G75*
G02*
X40840000Y-27080000I0J160000D01*
G01*
X34180000Y-19930000D02*
G75*
G02*
X34080000Y-19830000I0J100000D01*
G01*
X41440000Y-27400000D02*
G75*
G03*
X41280000Y-27240000I-160000J0D01*
G01*
X39930000Y-19630000D02*
G75*
G03*
X39830000Y-19530000I-100000J0D01*
G01*
X41200000Y-28040000D02*
G75*
G02*
X41040000Y-27880000I0J160000D01*
G01*
X41260000Y-21260000D02*
G75*
G02*
X41100000Y-21100000I0J160000D01*
G01*
X41450000Y-23820000D02*
G75*
G03*
X41290000Y-23660000I-160000J0D01*
G01*
X41100000Y-24220000D02*
G75*
G02*
X41260000Y-24060000I160000J0D01*
G01*
X36080000Y-19830000D02*
G75*
G02*
X35980000Y-19930000I-100000J0D01*
G01*
X38830000Y-19530000D02*
G75*
G03*
X38730000Y-19630000I0J-100000D01*
G01*
X41260000Y-23660000D02*
G75*
G02*
X41100000Y-23500000I0J160000D01*
G01*
X41450000Y-20620000D02*
G75*
G03*
X41290000Y-20460000I-160000J0D01*
G01*
X31720000Y-20040000D02*
G75*
G03*
X31820000Y-20140000I100000J0D01*
G01*
X41450000Y-22220000D02*
G75*
G03*
X41290000Y-22060000I-160000J0D01*
G01*
X41290000Y-22460000D02*
G75*
G03*
X41450000Y-22300000I0J160000D01*
G01*
X41100000Y-25410000D02*
G75*
G03*
X40950000Y-25260000I-150000J0D01*
G01*
X36180000Y-19730000D02*
G75*
G03*
X36080000Y-19830000I0J-100000D01*
G01*
X39230000Y-19730000D02*
G75*
G02*
X39130000Y-19630000I0J100000D01*
G01*
X41100000Y-21820000D02*
G75*
G02*
X41260000Y-21660000I160000J0D01*
G01*
X41440000Y-40102691D02*
G75*
G02*
X41280000Y-40262700I-160000J-9D01*
G01*
X40490000Y-40502691D02*
G75*
G03*
X40650000Y-40662700I160000J-9D01*
G01*
X34080000Y-19830000D02*
G75*
G03*
X33980000Y-19730000I-100000J0D01*
G01*
X41290000Y-23260000D02*
G75*
G03*
X41450000Y-23100000I0J160000D01*
G01*
X38730000Y-19630000D02*
G75*
G02*
X38630000Y-19730000I-100000J0D01*
G01*
X40830000Y-19730000D02*
G75*
G02*
X40730000Y-19630000I0J100000D01*
G01*
X34880000Y-19830000D02*
G75*
G03*
X34780000Y-19730000I-100000J0D01*
G01*
X41450000Y-23020000D02*
G75*
G03*
X41290000Y-22860000I-160000J0D01*
G01*
X41280000Y-40662691D02*
G75*
G02*
X41440009Y-40822691I0J-160009D01*
G01*
X41450000Y-24620000D02*
G75*
G03*
X41290000Y-24460000I-160000J0D01*
G01*
X41280000Y-26040000D02*
G75*
G03*
X41440000Y-25880000I0J160000D01*
G01*
X35380000Y-19730000D02*
G75*
G03*
X35280000Y-19830000I0J-100000D01*
G01*
X41100000Y-21020000D02*
G75*
G02*
X41260000Y-20860000I160000J0D01*
G01*
X40950000Y-25260000D02*
G75*
G02*
X40800000Y-25110000I0J150000D01*
G01*
X41440000Y-26600000D02*
G75*
G03*
X41280000Y-26440000I-160000J0D01*
G01*
X41260000Y-22860000D02*
G75*
G02*
X41100000Y-22700000I0J160000D01*
G01*
X41260000Y-24460000D02*
G75*
G02*
X41100000Y-24300000I0J160000D01*
G01*
X41260000Y-20460000D02*
G75*
G02*
X41100000Y-20300000I0J160000D01*
G01*
X35280000Y-19830000D02*
G75*
G02*
X35180000Y-19930000I-100000J0D01*
G01*
X40330000Y-19830000D02*
G75*
G02*
X40230000Y-19930000I-100000J0D01*
G01*
X34480000Y-19830000D02*
G75*
G02*
X34380000Y-19930000I-100000J0D01*
G01*
X41290000Y-24060000D02*
G75*
G03*
X41450000Y-23900000I0J160000D01*
G01*
X35680000Y-19830000D02*
G75*
G03*
X35580000Y-19730000I-100000J0D01*
G01*
X41250000Y-26440000D02*
G75*
G02*
X41090000Y-26280000I0J160000D01*
G01*
X41100000Y-23420000D02*
G75*
G02*
X41260000Y-23260000I160000J0D01*
G01*
X40840000Y-27000000D02*
G75*
G02*
X41000000Y-26840000I160000J0D01*
G01*
X34980000Y-19930000D02*
G75*
G02*
X34880000Y-19830000I0J100000D01*
G01*
X39130000Y-19630000D02*
G75*
G03*
X39030000Y-19530000I-100000J0D01*
G01*
X39530000Y-19630000D02*
G75*
G02*
X39430000Y-19730000I-100000J0D01*
G01*
X41040000Y-27800000D02*
G75*
G02*
X41200000Y-27640000I160000J0D01*
G01*
X35780000Y-19930000D02*
G75*
G02*
X35680000Y-19830000I0J100000D01*
G01*
X39630000Y-19530000D02*
G75*
G03*
X39530000Y-19630000I0J-100000D01*
G01*
X40030000Y-19930000D02*
G75*
G02*
X39930000Y-19830000I0J100000D01*
G01*
X40800000Y-25010000D02*
G75*
G02*
X40950000Y-24860000I150000J0D01*
G01*
X40730000Y-19630000D02*
G75*
G03*
X40630000Y-19530000I-100000J0D01*
G01*
X40430000Y-19530000D02*
G75*
G03*
X40330000Y-19630000I0J-100000D01*
G01*
X41280000Y-27640000D02*
G75*
G03*
X41440000Y-27480000I0J160000D01*
G01*
X41290000Y-21660000D02*
G75*
G03*
X41450000Y-21500000I0J160000D01*
G01*
X31920000Y-20440000D02*
G75*
G02*
X31820000Y-20540000I-100000J0D01*
G01*
X31820000Y-20540000D02*
G75*
G03*
X31720000Y-20640000I0J-100000D01*
G01*
X41290000Y-20860000D02*
G75*
G03*
X41450000Y-20700000I0J160000D01*
G01*
X31820000Y-20140000D02*
G75*
G02*
X31920000Y-20240000I0J-100000D01*
G01*
X34580000Y-19730000D02*
G75*
G03*
X34480000Y-19830000I0J-100000D01*
G01*
X41440000Y-28200000D02*
G75*
G03*
X41280000Y-28040000I-160000J0D01*
G01*
X41100000Y-22620000D02*
G75*
G02*
X41260000Y-22460000I160000J0D01*
G01*
%TO.N,/DDR3/DDR_D12*%
X35160000Y-20350000D02*
X35160000Y-20430000D01*
X38360000Y-20090000D02*
X38360000Y-20190000D01*
X40220000Y-26370000D02*
X40400000Y-26370000D01*
X40710000Y-21570000D02*
X40560000Y-21570000D01*
X38860000Y-19990000D02*
X39060000Y-19990000D01*
X36920000Y-20590000D02*
X37000000Y-20590000D01*
X40860000Y-21320000D02*
X40860000Y-21420000D01*
X40400000Y-25970000D02*
X40220000Y-25970000D01*
X40492500Y-39957500D02*
X40000000Y-40450000D01*
X37960000Y-20190000D02*
X37960000Y-20090000D01*
X40560000Y-21970000D02*
X40710000Y-21970000D01*
X40170000Y-21170000D02*
X40400000Y-21170000D01*
X40220000Y-21970000D02*
X40560000Y-21970000D01*
X40560000Y-26530000D02*
X40560000Y-26610000D01*
X40860000Y-22920000D02*
X40860000Y-23020000D01*
X39300000Y-43350000D02*
X39300000Y-42800000D01*
X40400000Y-20770000D02*
X40170000Y-20770000D01*
X40720000Y-25570000D02*
X40800000Y-25570000D01*
X36460000Y-19990000D02*
X36660000Y-19990000D01*
X40000000Y-40450000D02*
X40000000Y-41521212D01*
X35960000Y-20350000D02*
X35960000Y-20430000D01*
X40100000Y-43700000D02*
X39650000Y-43700000D01*
X37960000Y-20430000D02*
X37960000Y-20190000D01*
X39320000Y-20590000D02*
X39400000Y-20590000D01*
X37260000Y-19990000D02*
X37460000Y-19990000D01*
X40010000Y-23330000D02*
X40010000Y-23410000D01*
X34100000Y-20190000D02*
X34550000Y-20190000D01*
X40000000Y-41521212D02*
X40842500Y-42363712D01*
X38360000Y-20190000D02*
X38360000Y-20430000D01*
X40860000Y-22120000D02*
X40860000Y-22220000D01*
X36760000Y-20090000D02*
X36760000Y-20190000D01*
X40720000Y-25970000D02*
X40400000Y-25970000D01*
X34020000Y-20190000D02*
X34100000Y-20190000D01*
X40800000Y-25970000D02*
X40720000Y-25970000D01*
X40060000Y-21730000D02*
X40060000Y-21810000D01*
X40400000Y-24770000D02*
X40170000Y-24770000D01*
X38060000Y-19990000D02*
X38260000Y-19990000D01*
X39720000Y-20190000D02*
X39800000Y-20190000D01*
X40060000Y-26130000D02*
X40060000Y-26210000D01*
X40560000Y-22770000D02*
X40710000Y-22770000D01*
X40010000Y-24930000D02*
X40010000Y-25010000D01*
X39160000Y-20090000D02*
X39160000Y-20190000D01*
X40710000Y-22370000D02*
X40560000Y-22370000D01*
X40860000Y-23720000D02*
X40860000Y-23820000D01*
X38520000Y-20590000D02*
X38600000Y-20590000D01*
X39160000Y-20190000D02*
X39160000Y-20350000D01*
X40560000Y-22370000D02*
X40170000Y-22370000D01*
X40842500Y-42957500D02*
X40100000Y-43700000D01*
X33840000Y-20010000D02*
X34020000Y-20190000D01*
X37160000Y-20190000D02*
X37160000Y-20090000D01*
X38760000Y-20430000D02*
X38760000Y-20190000D01*
X40560000Y-23570000D02*
X40710000Y-23570000D01*
X40960000Y-25730000D02*
X40960000Y-25810000D01*
X40560000Y-27860000D02*
X41182500Y-28482500D01*
X37160000Y-20430000D02*
X37160000Y-20190000D01*
X40560000Y-25330000D02*
X40560000Y-25410000D01*
X40560000Y-26610000D02*
X40560000Y-26800000D01*
X33350000Y-20010000D02*
X33840000Y-20010000D01*
X38760000Y-20190000D02*
X38760000Y-20090000D01*
X36360000Y-20190000D02*
X36360000Y-20090000D01*
X40170000Y-22770000D02*
X40560000Y-22770000D01*
X37560000Y-20090000D02*
X37560000Y-20190000D01*
X37560000Y-20190000D02*
X37560000Y-20430000D01*
X40560000Y-26800000D02*
X40560000Y-27860000D01*
X40010000Y-24130000D02*
X40010000Y-24210000D01*
X40560000Y-23170000D02*
X40170000Y-23170000D01*
X35720000Y-20190000D02*
X35800000Y-20190000D01*
X40560000Y-24530000D02*
X40560000Y-24610000D01*
X36760000Y-20190000D02*
X36760000Y-20430000D01*
X40766660Y-39957500D02*
X40492500Y-39957500D01*
X36120000Y-20590000D02*
X36200000Y-20590000D01*
X40010000Y-22530000D02*
X40010000Y-22610000D01*
X39560000Y-20430000D02*
X39560000Y-20350000D01*
X40560000Y-21570000D02*
X40220000Y-21570000D01*
X34550000Y-20190000D02*
X35000000Y-20190000D01*
X40458198Y-20508198D02*
X40560000Y-20610000D01*
X40170000Y-25170000D02*
X40400000Y-25170000D01*
X40170000Y-23570000D02*
X40560000Y-23570000D01*
X40400000Y-21170000D02*
X40560000Y-21170000D01*
X40710000Y-23170000D02*
X40560000Y-23170000D01*
X40560000Y-23970000D02*
X40400000Y-23970000D01*
X36360000Y-20350000D02*
X36360000Y-20190000D01*
X40710000Y-23970000D02*
X40560000Y-23970000D01*
X39650000Y-43700000D02*
X39300000Y-43350000D01*
X40560000Y-21170000D02*
X40710000Y-21170000D01*
X40842500Y-42363712D02*
X40842500Y-42957500D01*
X40140000Y-20190000D02*
X40458198Y-20508198D01*
X41182500Y-39541660D02*
X40766660Y-39957500D01*
X37720000Y-20590000D02*
X37800000Y-20590000D01*
X40170000Y-24370000D02*
X40400000Y-24370000D01*
X36360000Y-20430000D02*
X36360000Y-20350000D01*
X41182500Y-28482500D02*
X41182500Y-39541660D01*
X35320000Y-20590000D02*
X35400000Y-20590000D01*
X39800000Y-20190000D02*
X40140000Y-20190000D01*
X35560000Y-20430000D02*
X35560000Y-20350000D01*
X39160000Y-20350000D02*
X39160000Y-20430000D01*
X40010000Y-20930000D02*
X40010000Y-21010000D01*
X40400000Y-23970000D02*
X40170000Y-23970000D01*
X35960000Y-20430000D02*
G75*
G03*
X36120000Y-20590000I160000J0D01*
G01*
X40400000Y-25170000D02*
G75*
G02*
X40560000Y-25330000I0J-160000D01*
G01*
X40400000Y-24370000D02*
G75*
G02*
X40560000Y-24530000I0J-160000D01*
G01*
X38360000Y-20430000D02*
G75*
G03*
X38520000Y-20590000I160000J0D01*
G01*
X40170000Y-23970000D02*
G75*
G03*
X40010000Y-24130000I0J-160000D01*
G01*
X36760000Y-20430000D02*
G75*
G03*
X36920000Y-20590000I160000J0D01*
G01*
X40060000Y-26210000D02*
G75*
G03*
X40220000Y-26370000I160000J0D01*
G01*
X35560000Y-20350000D02*
G75*
G02*
X35720000Y-20190000I160000J0D01*
G01*
X36200000Y-20590000D02*
G75*
G03*
X36360000Y-20430000I0J160000D01*
G01*
X35800000Y-20190000D02*
G75*
G02*
X35960000Y-20350000I0J-160000D01*
G01*
X40010000Y-22610000D02*
G75*
G03*
X40170000Y-22770000I160000J0D01*
G01*
X40710000Y-21170000D02*
G75*
G02*
X40860000Y-21320000I0J-150000D01*
G01*
X40060000Y-21810000D02*
G75*
G03*
X40220000Y-21970000I160000J0D01*
G01*
X39060000Y-19990000D02*
G75*
G02*
X39160000Y-20090000I0J-100000D01*
G01*
X40010000Y-21010000D02*
G75*
G03*
X40170000Y-21170000I160000J0D01*
G01*
X40010000Y-25010000D02*
G75*
G03*
X40170000Y-25170000I160000J0D01*
G01*
X40710000Y-21970000D02*
G75*
G02*
X40860000Y-22120000I0J-150000D01*
G01*
X37960000Y-20090000D02*
G75*
G02*
X38060000Y-19990000I100000J0D01*
G01*
X36360000Y-20090000D02*
G75*
G02*
X36460000Y-19990000I100000J0D01*
G01*
X40860000Y-23820000D02*
G75*
G02*
X40710000Y-23970000I-150000J0D01*
G01*
X38260000Y-19990000D02*
G75*
G02*
X38360000Y-20090000I0J-100000D01*
G01*
X39160000Y-20430000D02*
G75*
G03*
X39320000Y-20590000I160000J0D01*
G01*
X40400000Y-26370000D02*
G75*
G02*
X40560000Y-26530000I0J-160000D01*
G01*
X40860000Y-23020000D02*
G75*
G02*
X40710000Y-23170000I-150000J0D01*
G01*
X39400000Y-20590000D02*
G75*
G03*
X39560000Y-20430000I0J160000D01*
G01*
X40710000Y-23570000D02*
G75*
G02*
X40860000Y-23720000I0J-150000D01*
G01*
X36660000Y-19990000D02*
G75*
G02*
X36760000Y-20090000I0J-100000D01*
G01*
X40220000Y-21570000D02*
G75*
G03*
X40060000Y-21730000I0J-160000D01*
G01*
X38760000Y-20090000D02*
G75*
G02*
X38860000Y-19990000I100000J0D01*
G01*
X37160000Y-20090000D02*
G75*
G02*
X37260000Y-19990000I100000J0D01*
G01*
X40220000Y-25970000D02*
G75*
G03*
X40060000Y-26130000I0J-160000D01*
G01*
X37000000Y-20590000D02*
G75*
G03*
X37160000Y-20430000I0J160000D01*
G01*
X40960000Y-25810000D02*
G75*
G02*
X40800000Y-25970000I-160000J0D01*
G01*
X40860000Y-21420000D02*
G75*
G02*
X40710000Y-21570000I-150000J0D01*
G01*
X40800000Y-25570000D02*
G75*
G02*
X40960000Y-25730000I0J-160000D01*
G01*
X35160000Y-20430000D02*
G75*
G03*
X35320000Y-20590000I160000J0D01*
G01*
X35000000Y-20190000D02*
G75*
G02*
X35160000Y-20350000I0J-160000D01*
G01*
X40010000Y-23410000D02*
G75*
G03*
X40170000Y-23570000I160000J0D01*
G01*
X40170000Y-24770000D02*
G75*
G03*
X40010000Y-24930000I0J-160000D01*
G01*
X40560000Y-24610000D02*
G75*
G02*
X40400000Y-24770000I-160000J0D01*
G01*
X39560000Y-20350000D02*
G75*
G02*
X39720000Y-20190000I160000J0D01*
G01*
X40010000Y-24210000D02*
G75*
G03*
X40170000Y-24370000I160000J0D01*
G01*
X40170000Y-20770000D02*
G75*
G03*
X40010000Y-20930000I0J-160000D01*
G01*
X35400000Y-20590000D02*
G75*
G03*
X35560000Y-20430000I0J160000D01*
G01*
X40560000Y-25410000D02*
G75*
G03*
X40720000Y-25570000I160000J0D01*
G01*
X38600000Y-20590000D02*
G75*
G03*
X38760000Y-20430000I0J160000D01*
G01*
X40710000Y-22770000D02*
G75*
G02*
X40860000Y-22920000I0J-150000D01*
G01*
X37460000Y-19990000D02*
G75*
G02*
X37560000Y-20090000I0J-100000D01*
G01*
X40860000Y-22220000D02*
G75*
G02*
X40710000Y-22370000I-150000J0D01*
G01*
X40170000Y-22370000D02*
G75*
G03*
X40010000Y-22530000I0J-160000D01*
G01*
X37800000Y-20590000D02*
G75*
G03*
X37960000Y-20430000I0J160000D01*
G01*
X40560000Y-20610000D02*
G75*
G02*
X40400000Y-20770000I-160000J0D01*
G01*
X37560000Y-20430000D02*
G75*
G03*
X37720000Y-20590000I160000J0D01*
G01*
X40170000Y-23170000D02*
G75*
G03*
X40010000Y-23330000I0J-160000D01*
G01*
%TO.N,/DDR3/DDR_D15*%
X32400000Y-19090000D02*
X32400000Y-18960000D01*
X36400000Y-19250000D02*
X36400000Y-18960000D01*
X30662843Y-19810883D02*
X30075945Y-19223985D01*
X31171962Y-19528041D02*
X31228530Y-19471471D01*
X36000000Y-19250000D02*
X36000000Y-19350000D01*
X33360000Y-18800000D02*
X33440000Y-18800000D01*
X34800000Y-19350000D02*
X34800000Y-19250000D01*
X36400000Y-19350000D02*
X36400000Y-19250000D01*
X30150000Y-20550000D02*
X30380000Y-20320000D01*
X32400000Y-19350000D02*
X32400000Y-19250000D01*
X37200000Y-19350000D02*
X37200000Y-19250000D01*
X38560000Y-19250000D02*
X38640000Y-19250000D01*
X34400000Y-19250000D02*
X34400000Y-19350000D01*
X35600000Y-19350000D02*
X35600000Y-19250000D01*
X30358789Y-18941142D02*
X30945688Y-19528041D01*
X37700000Y-19450000D02*
X37900000Y-19450000D01*
X34160000Y-18800000D02*
X34240000Y-18800000D01*
X38000000Y-19090000D02*
X38000000Y-18960000D01*
X34400000Y-19090000D02*
X34400000Y-19250000D01*
X30775980Y-19924020D02*
X30662843Y-19810883D01*
X36560000Y-18800000D02*
X36640000Y-18800000D01*
X33200000Y-19090000D02*
X33200000Y-18960000D01*
X36800000Y-19250000D02*
X36800000Y-19350000D01*
X35200000Y-18960000D02*
X35200000Y-19250000D01*
X41730000Y-20030000D02*
X41730000Y-41720000D01*
X36800000Y-18960000D02*
X36800000Y-19250000D01*
X31228530Y-19471471D02*
X31450000Y-19250000D01*
X37600000Y-19250000D02*
X37600000Y-19350000D01*
X36000000Y-18960000D02*
X36000000Y-19250000D01*
X31450000Y-19250000D02*
X31900000Y-19250000D01*
X32400000Y-19250000D02*
X32400000Y-19090000D01*
X38400000Y-18960000D02*
X38400000Y-19090000D01*
X31405304Y-20553344D02*
X30889116Y-20037156D01*
X38640000Y-19250000D02*
X39030000Y-19250000D01*
X38000000Y-19350000D02*
X38000000Y-19250000D01*
X34800000Y-19250000D02*
X34800000Y-18960000D01*
X32800000Y-18960000D02*
X32800000Y-19090000D01*
X41730000Y-41720000D02*
X41450000Y-42000000D01*
X37200000Y-19250000D02*
X37200000Y-18960000D01*
X38000000Y-19250000D02*
X38000000Y-19090000D01*
X30775978Y-19924018D02*
X30775980Y-19924020D01*
X38160000Y-18800000D02*
X38240000Y-18800000D01*
X34960000Y-18800000D02*
X35040000Y-18800000D01*
X36900000Y-19450000D02*
X37100000Y-19450000D01*
X40950000Y-19250000D02*
X41730000Y-20030000D01*
X35300000Y-19450000D02*
X35500000Y-19450000D01*
X39030000Y-19250000D02*
X40950000Y-19250000D01*
X32960000Y-19250000D02*
X33040000Y-19250000D01*
X30606274Y-20320000D02*
X31122461Y-20836187D01*
X35600000Y-19250000D02*
X35600000Y-18960000D01*
X31348736Y-20836187D02*
X31405304Y-20779618D01*
X30075945Y-18997711D02*
X30132515Y-18941142D01*
X33760000Y-19250000D02*
X33840000Y-19250000D01*
X32100000Y-19450000D02*
X32300000Y-19450000D01*
X37360000Y-18800000D02*
X37440000Y-18800000D01*
X32560000Y-18800000D02*
X32640000Y-18800000D01*
X33600000Y-18960000D02*
X33600000Y-19090000D01*
X35760000Y-18800000D02*
X35840000Y-18800000D01*
X34400000Y-18960000D02*
X34400000Y-19090000D01*
X36100000Y-19450000D02*
X36300000Y-19450000D01*
X34500000Y-19450000D02*
X34700000Y-19450000D01*
X34000000Y-19090000D02*
X34000000Y-18960000D01*
X35200000Y-19250000D02*
X35200000Y-19350000D01*
X37600000Y-18960000D02*
X37600000Y-19250000D01*
X30889116Y-20037156D02*
X30775978Y-19924018D01*
X32800000Y-19090000D02*
G75*
G03*
X32960000Y-19250000I160000J0D01*
G01*
X30075945Y-19223985D02*
G75*
G02*
X30075897Y-18997663I113155J113185D01*
G01*
X36400000Y-18960000D02*
G75*
G02*
X36560000Y-18800000I160000J0D01*
G01*
X35040000Y-18800000D02*
G75*
G02*
X35200000Y-18960000I0J-160000D01*
G01*
X32000000Y-19350000D02*
G75*
G03*
X32100000Y-19450000I100000J0D01*
G01*
X30380000Y-20320000D02*
G75*
G02*
X30606274Y-20320000I113137J-113137D01*
G01*
X34000000Y-18960000D02*
G75*
G02*
X34160000Y-18800000I160000J0D01*
G01*
X34800000Y-18960000D02*
G75*
G02*
X34960000Y-18800000I160000J0D01*
G01*
X35840000Y-18800000D02*
G75*
G02*
X36000000Y-18960000I0J-160000D01*
G01*
X32300000Y-19450000D02*
G75*
G03*
X32400000Y-19350000I0J100000D01*
G01*
X33840000Y-19250000D02*
G75*
G03*
X34000000Y-19090000I0J160000D01*
G01*
X33200000Y-18960000D02*
G75*
G02*
X33360000Y-18800000I160000J0D01*
G01*
X33600000Y-19090000D02*
G75*
G03*
X33760000Y-19250000I160000J0D01*
G01*
X35500000Y-19450000D02*
G75*
G03*
X35600000Y-19350000I0J100000D01*
G01*
X31405304Y-20779618D02*
G75*
G03*
X31405285Y-20553363I-113104J113118D01*
G01*
X35600000Y-18960000D02*
G75*
G02*
X35760000Y-18800000I160000J0D01*
G01*
X34700000Y-19450000D02*
G75*
G03*
X34800000Y-19350000I0J100000D01*
G01*
X36000000Y-19350000D02*
G75*
G03*
X36100000Y-19450000I100000J0D01*
G01*
X31122461Y-20836187D02*
G75*
G03*
X31348736Y-20836188I113138J113138D01*
G01*
X31900000Y-19250000D02*
G75*
G02*
X32000000Y-19350000I0J-100000D01*
G01*
X30945688Y-19528041D02*
G75*
G03*
X31171962Y-19528041I113137J113137D01*
G01*
X35200000Y-19350000D02*
G75*
G03*
X35300000Y-19450000I100000J0D01*
G01*
X36800000Y-19350000D02*
G75*
G03*
X36900000Y-19450000I100000J0D01*
G01*
X34240000Y-18800000D02*
G75*
G02*
X34400000Y-18960000I0J-160000D01*
G01*
X38000000Y-18960000D02*
G75*
G02*
X38160000Y-18800000I160000J0D01*
G01*
X33440000Y-18800000D02*
G75*
G02*
X33600000Y-18960000I0J-160000D01*
G01*
X38240000Y-18800000D02*
G75*
G02*
X38400000Y-18960000I0J-160000D01*
G01*
X37600000Y-19350000D02*
G75*
G03*
X37700000Y-19450000I100000J0D01*
G01*
X38400000Y-19090000D02*
G75*
G03*
X38560000Y-19250000I160000J0D01*
G01*
X34400000Y-19350000D02*
G75*
G03*
X34500000Y-19450000I100000J0D01*
G01*
X36640000Y-18800000D02*
G75*
G02*
X36800000Y-18960000I0J-160000D01*
G01*
X33040000Y-19250000D02*
G75*
G03*
X33200000Y-19090000I0J160000D01*
G01*
X36300000Y-19450000D02*
G75*
G03*
X36400000Y-19350000I0J100000D01*
G01*
X32640000Y-18800000D02*
G75*
G02*
X32800000Y-18960000I0J-160000D01*
G01*
X37200000Y-18960000D02*
G75*
G02*
X37360000Y-18800000I160000J0D01*
G01*
X37440000Y-18800000D02*
G75*
G02*
X37600000Y-18960000I0J-160000D01*
G01*
X32400000Y-18960000D02*
G75*
G02*
X32560000Y-18800000I160000J0D01*
G01*
X37100000Y-19450000D02*
G75*
G03*
X37200000Y-19350000I0J100000D01*
G01*
X30132515Y-18941142D02*
G75*
G02*
X30358789Y-18941142I113137J-113137D01*
G01*
X37900000Y-19450000D02*
G75*
G03*
X38000000Y-19350000I0J100000D01*
G01*
%TO.N,/DDR3/DDR_A10*%
X33950000Y-39650000D02*
X33950000Y-41200000D01*
X34150000Y-42450000D02*
X34500000Y-42800000D01*
X33350000Y-39050000D02*
X33950000Y-39650000D01*
X33950000Y-41200000D02*
X34150000Y-41400000D01*
X34150000Y-41400000D02*
X34150000Y-42450000D01*
%TO.N,/DDR3/DDR_D2*%
X26073724Y-45249999D02*
X26052511Y-45271213D01*
X25826237Y-45271213D02*
X25769668Y-45214644D01*
X30500000Y-43600000D02*
X30500000Y-44950000D01*
X25614100Y-43786283D02*
X25557531Y-43729714D01*
X30500000Y-44950000D02*
X30417792Y-45032208D01*
X30417792Y-45032208D02*
X30200000Y-45250000D01*
X22473205Y-41959045D02*
X21197500Y-40683340D01*
X23810972Y-42760972D02*
X23754404Y-42704404D01*
X24765569Y-43164026D02*
X24489797Y-43439797D01*
X24482724Y-42654907D02*
X24426155Y-42598338D01*
X23500000Y-42450000D02*
X23009045Y-41959045D01*
X27637500Y-24587500D02*
X28950000Y-25900000D01*
X23754404Y-42704404D02*
X23500000Y-42450000D01*
X25896945Y-44295402D02*
X25621173Y-44571173D01*
X25769668Y-44988370D02*
X25790880Y-44967155D01*
X25621173Y-44571173D02*
X25486821Y-44705522D01*
X24638290Y-43856991D02*
X24772641Y-43722641D01*
X26179788Y-44351971D02*
X26123219Y-44295402D01*
X25048412Y-43220595D02*
X24991843Y-43164026D01*
X24129171Y-43574146D02*
X24072602Y-43517577D01*
X26600000Y-45250000D02*
X26300000Y-45250000D01*
X24694859Y-44139834D02*
X24638290Y-44083265D01*
X25055485Y-44005485D02*
X24921133Y-44139834D01*
X25331257Y-43729714D02*
X25055485Y-44005485D01*
X23009045Y-41959045D02*
X22473205Y-41959045D01*
X21197500Y-26696660D02*
X23306660Y-24587500D01*
X21197500Y-40683340D02*
X21197500Y-26696660D01*
X23306660Y-24587500D02*
X27637500Y-24587500D01*
X24072602Y-43291303D02*
X24206953Y-43156953D01*
X30200000Y-45250000D02*
X26600000Y-45250000D01*
X25203978Y-44422679D02*
X25338329Y-44288329D01*
X25790880Y-44967155D02*
X25904017Y-44854017D01*
X24489797Y-43439797D02*
X24355445Y-43574146D01*
X25260547Y-44705522D02*
X25203978Y-44648953D01*
X25904017Y-44854017D02*
X26179788Y-44578245D01*
X24772641Y-43722641D02*
X25048412Y-43446869D01*
X24206953Y-43156953D02*
X24320090Y-43043815D01*
X24320090Y-43043815D02*
X24482724Y-42881181D01*
X25338329Y-44288329D02*
X25614100Y-44012557D01*
X24199881Y-42598338D02*
X24037246Y-42760972D01*
X26179788Y-44578245D02*
G75*
G03*
X26179796Y-44351963I-113088J113145D01*
G01*
X25557531Y-43729714D02*
G75*
G03*
X25331257Y-43729714I-113137J-113137D01*
G01*
X24037246Y-42760972D02*
G75*
G02*
X23810972Y-42760972I-113137J113137D01*
G01*
X25769668Y-45214644D02*
G75*
G02*
X25769661Y-44988363I113132J113144D01*
G01*
X25203978Y-44648953D02*
G75*
G02*
X25203962Y-44422663I113122J113153D01*
G01*
X25048412Y-43446869D02*
G75*
G03*
X25048444Y-43220563I-113112J113169D01*
G01*
X24482724Y-42881181D02*
G75*
G03*
X24482768Y-42654863I-113124J113181D01*
G01*
X25614100Y-44012557D02*
G75*
G03*
X25614120Y-43786263I-113100J113157D01*
G01*
X24921133Y-44139834D02*
G75*
G02*
X24694859Y-44139834I-113137J113137D01*
G01*
X24991843Y-43164026D02*
G75*
G03*
X24765569Y-43164026I-113137J-113137D01*
G01*
X25486821Y-44705522D02*
G75*
G02*
X25260547Y-44705522I-113137J113137D01*
G01*
X24638290Y-44083265D02*
G75*
G02*
X24638262Y-43856963I113110J113165D01*
G01*
X24355445Y-43574146D02*
G75*
G02*
X24129171Y-43574146I-113137J113137D01*
G01*
X26300000Y-45250000D02*
G75*
G03*
X26073763Y-45250037I-113100J-113100D01*
G01*
X26123219Y-44295402D02*
G75*
G03*
X25896945Y-44295402I-113137J-113137D01*
G01*
X24072602Y-43517577D02*
G75*
G02*
X24072562Y-43291263I113098J113177D01*
G01*
X26052511Y-45271213D02*
G75*
G02*
X25826237Y-45271213I-113137J113137D01*
G01*
X24426155Y-42598338D02*
G75*
G03*
X24199881Y-42598338I-113137J-113137D01*
G01*
%TO.N,/DDR3/DDR_D8*%
X39170000Y-23631786D02*
X39170000Y-22900000D01*
X40630000Y-36240000D02*
X40630000Y-36160000D01*
X39230000Y-34240000D02*
X39230000Y-34160000D01*
D13*
X39079250Y-42370750D02*
X38020750Y-42370750D01*
D12*
X39170000Y-29490000D02*
X39170000Y-29390000D01*
X40230000Y-34000000D02*
X40470000Y-34000000D01*
X40230000Y-37200000D02*
X40470000Y-37200000D01*
X40470000Y-36000000D02*
X40230000Y-36000000D01*
X40230000Y-35600000D02*
X40470000Y-35600000D01*
X39690000Y-36400000D02*
X40230000Y-36400000D01*
X38870000Y-25090000D02*
X38870000Y-24990000D01*
X39170000Y-31440000D02*
X39170000Y-30990000D01*
X39530000Y-36640000D02*
X39530000Y-36560000D01*
X39685525Y-32181800D02*
X39240048Y-32627278D01*
X40470000Y-37600000D02*
X40230000Y-37600000D01*
X39170000Y-23890000D02*
X39170000Y-23790000D01*
X39390000Y-34000000D02*
X40230000Y-34000000D01*
X40230000Y-33040000D02*
X40230000Y-32960000D01*
X40230000Y-32960000D02*
X40230000Y-32500000D01*
X40230000Y-36400000D02*
X40470000Y-36400000D01*
X40630000Y-35440000D02*
X40630000Y-35360000D01*
X39170000Y-25490000D02*
X39170000Y-25390000D01*
X40230000Y-37600000D02*
X39790000Y-37600000D01*
X39230000Y-35040000D02*
X39230000Y-34960000D01*
X40070000Y-38000000D02*
X40230000Y-38000000D01*
X39346115Y-31616115D02*
X39170000Y-31440000D01*
X38020750Y-42370750D02*
X37700000Y-42050000D01*
X40070000Y-38400000D02*
X39790000Y-38400000D01*
X38870000Y-25890000D02*
X38870000Y-25790000D01*
X39630000Y-38240000D02*
X39630000Y-38160000D01*
X39790000Y-38000000D02*
X40070000Y-38000000D01*
X39230000Y-33440000D02*
X39230000Y-33360000D01*
X39717589Y-39072411D02*
X40035787Y-38754212D01*
X40230000Y-36000000D02*
X39390000Y-36000000D01*
X39630000Y-37440000D02*
X39630000Y-37360000D01*
X40230000Y-33600000D02*
X40070000Y-33600000D01*
X40230000Y-34800000D02*
X40470000Y-34800000D01*
X37700000Y-42050000D02*
X37700000Y-42000000D01*
X39079250Y-42370750D02*
X39200000Y-42250000D01*
X39200000Y-42250000D02*
X39200000Y-39590000D01*
X40630000Y-34640000D02*
X40630000Y-34560000D01*
X38870000Y-29890000D02*
X38870000Y-29790000D01*
X38870000Y-30690000D02*
X38870000Y-30590000D01*
X39390000Y-34800000D02*
X40230000Y-34800000D01*
X39170000Y-24690000D02*
X39170000Y-24590000D01*
X40470000Y-35200000D02*
X40230000Y-35200000D01*
X38570000Y-22300000D02*
X36100000Y-22300000D01*
X40230000Y-32500000D02*
X39911801Y-32181801D01*
X38870000Y-28290000D02*
X38870000Y-28190000D01*
X38870000Y-26690000D02*
X38870000Y-26590000D01*
X40035787Y-38754212D02*
X40230000Y-38560000D01*
X40630000Y-37840000D02*
X40630000Y-37760000D01*
X39170000Y-27890000D02*
X39170000Y-27790000D01*
X39013774Y-32627278D02*
X38957205Y-32570709D01*
X39390000Y-33200000D02*
X40070000Y-33200000D01*
X40230000Y-38000000D02*
X40470000Y-38000000D01*
X40470000Y-33600000D02*
X40230000Y-33600000D01*
X39200000Y-39590000D02*
X39717589Y-39072411D01*
X39790000Y-37200000D02*
X40230000Y-37200000D01*
X40230000Y-36800000D02*
X39690000Y-36800000D01*
X39230000Y-35840000D02*
X39230000Y-35760000D01*
X39390000Y-35600000D02*
X40230000Y-35600000D01*
X39170000Y-26290000D02*
X39170000Y-26190000D01*
X38870000Y-27490000D02*
X38870000Y-27390000D01*
X40470000Y-34400000D02*
X40230000Y-34400000D01*
X40630000Y-33840000D02*
X40630000Y-33760000D01*
X38957205Y-32344435D02*
X39402681Y-31898956D01*
X39170000Y-28690000D02*
X39170000Y-28590000D01*
X39402681Y-31672682D02*
X39346115Y-31616115D01*
X38870000Y-24290000D02*
X38870000Y-24190000D01*
X39170000Y-22900000D02*
X38570000Y-22300000D01*
X40630000Y-37040000D02*
X40630000Y-36960000D01*
X40070000Y-33600000D02*
X39390000Y-33600000D01*
X40230000Y-35200000D02*
X39390000Y-35200000D01*
X40230000Y-34400000D02*
X39390000Y-34400000D01*
X39170000Y-27090000D02*
X39170000Y-26990000D01*
X40470000Y-36800000D02*
X40230000Y-36800000D01*
X39170000Y-30290000D02*
X39170000Y-30190000D01*
X38870000Y-29090000D02*
X38870000Y-28990000D01*
X39170000Y-23790000D02*
X39170000Y-23631786D01*
X39690000Y-36800000D02*
G75*
G02*
X39530000Y-36640000I0J160000D01*
G01*
X40470000Y-36400000D02*
G75*
G03*
X40630000Y-36240000I0J160000D01*
G01*
X40070000Y-33200000D02*
G75*
G03*
X40230000Y-33040000I0J160000D01*
G01*
X40470000Y-35600000D02*
G75*
G03*
X40630000Y-35440000I0J160000D01*
G01*
X39230000Y-35760000D02*
G75*
G02*
X39390000Y-35600000I160000J0D01*
G01*
X39390000Y-35200000D02*
G75*
G02*
X39230000Y-35040000I0J160000D01*
G01*
X39170000Y-29390000D02*
G75*
G03*
X39020000Y-29240000I-150000J0D01*
G01*
X39240048Y-32627278D02*
G75*
G02*
X39013774Y-32627278I-113137J113137D01*
G01*
X39020000Y-28040000D02*
G75*
G03*
X39170000Y-27890000I0J150000D01*
G01*
X38870000Y-24190000D02*
G75*
G02*
X39020000Y-24040000I150000J0D01*
G01*
X40470000Y-34000000D02*
G75*
G03*
X40630000Y-33840000I0J160000D01*
G01*
X38870000Y-25790000D02*
G75*
G02*
X39020000Y-25640000I150000J0D01*
G01*
X40470000Y-38000000D02*
G75*
G03*
X40630000Y-37840000I0J160000D01*
G01*
X39020000Y-24440000D02*
G75*
G02*
X38870000Y-24290000I0J150000D01*
G01*
X39020000Y-30840000D02*
G75*
G02*
X38870000Y-30690000I0J150000D01*
G01*
X39020000Y-25240000D02*
G75*
G02*
X38870000Y-25090000I0J150000D01*
G01*
X39230000Y-33360000D02*
G75*
G02*
X39390000Y-33200000I160000J0D01*
G01*
X39630000Y-38160000D02*
G75*
G02*
X39790000Y-38000000I160000J0D01*
G01*
X38870000Y-28990000D02*
G75*
G02*
X39020000Y-28840000I150000J0D01*
G01*
X39911801Y-32181801D02*
G75*
G03*
X39685563Y-32181837I-113101J-113099D01*
G01*
X38957205Y-32570709D02*
G75*
G02*
X38957233Y-32344463I113095J113109D01*
G01*
X39170000Y-26190000D02*
G75*
G03*
X39020000Y-26040000I-150000J0D01*
G01*
X39170000Y-30190000D02*
G75*
G03*
X39020000Y-30040000I-150000J0D01*
G01*
X39170000Y-26990000D02*
G75*
G03*
X39020000Y-26840000I-150000J0D01*
G01*
X39020000Y-28440000D02*
G75*
G02*
X38870000Y-28290000I0J150000D01*
G01*
X39790000Y-38400000D02*
G75*
G02*
X39630000Y-38240000I0J160000D01*
G01*
X39170000Y-28590000D02*
G75*
G03*
X39020000Y-28440000I-150000J0D01*
G01*
X39020000Y-26040000D02*
G75*
G02*
X38870000Y-25890000I0J150000D01*
G01*
X39020000Y-27640000D02*
G75*
G02*
X38870000Y-27490000I0J150000D01*
G01*
X39790000Y-37600000D02*
G75*
G02*
X39630000Y-37440000I0J160000D01*
G01*
X39390000Y-33600000D02*
G75*
G02*
X39230000Y-33440000I0J160000D01*
G01*
X39020000Y-24840000D02*
G75*
G03*
X39170000Y-24690000I0J150000D01*
G01*
X38870000Y-29790000D02*
G75*
G02*
X39020000Y-29640000I150000J0D01*
G01*
X40630000Y-35360000D02*
G75*
G03*
X40470000Y-35200000I-160000J0D01*
G01*
X39020000Y-26840000D02*
G75*
G02*
X38870000Y-26690000I0J150000D01*
G01*
X39170000Y-25390000D02*
G75*
G03*
X39020000Y-25240000I-150000J0D01*
G01*
X39230000Y-34960000D02*
G75*
G02*
X39390000Y-34800000I160000J0D01*
G01*
X40630000Y-36960000D02*
G75*
G03*
X40470000Y-36800000I-160000J0D01*
G01*
X39170000Y-27790000D02*
G75*
G03*
X39020000Y-27640000I-150000J0D01*
G01*
X39402681Y-31898956D02*
G75*
G03*
X39402700Y-31672663I-113181J113156D01*
G01*
X40470000Y-37200000D02*
G75*
G03*
X40630000Y-37040000I0J160000D01*
G01*
X38870000Y-30590000D02*
G75*
G02*
X39020000Y-30440000I150000J0D01*
G01*
X39170000Y-24590000D02*
G75*
G03*
X39020000Y-24440000I-150000J0D01*
G01*
X39020000Y-24040000D02*
G75*
G03*
X39170000Y-23890000I0J150000D01*
G01*
X38870000Y-26590000D02*
G75*
G02*
X39020000Y-26440000I150000J0D01*
G01*
X39390000Y-36000000D02*
G75*
G02*
X39230000Y-35840000I0J160000D01*
G01*
X39020000Y-30040000D02*
G75*
G02*
X38870000Y-29890000I0J150000D01*
G01*
X39630000Y-37360000D02*
G75*
G02*
X39790000Y-37200000I160000J0D01*
G01*
X40470000Y-34800000D02*
G75*
G03*
X40630000Y-34640000I0J160000D01*
G01*
X39230000Y-34160000D02*
G75*
G02*
X39390000Y-34000000I160000J0D01*
G01*
X39020000Y-27240000D02*
G75*
G03*
X39170000Y-27090000I0J150000D01*
G01*
X39020000Y-30440000D02*
G75*
G03*
X39170000Y-30290000I0J150000D01*
G01*
X40630000Y-36160000D02*
G75*
G03*
X40470000Y-36000000I-160000J0D01*
G01*
X39020000Y-26440000D02*
G75*
G03*
X39170000Y-26290000I0J150000D01*
G01*
X39170000Y-30990000D02*
G75*
G03*
X39020000Y-30840000I-150000J0D01*
G01*
X38870000Y-28190000D02*
G75*
G02*
X39020000Y-28040000I150000J0D01*
G01*
X40630000Y-37760000D02*
G75*
G03*
X40470000Y-37600000I-160000J0D01*
G01*
X38870000Y-24990000D02*
G75*
G02*
X39020000Y-24840000I150000J0D01*
G01*
X39530000Y-36560000D02*
G75*
G02*
X39690000Y-36400000I160000J0D01*
G01*
X39020000Y-29640000D02*
G75*
G03*
X39170000Y-29490000I0J150000D01*
G01*
X39020000Y-28840000D02*
G75*
G03*
X39170000Y-28690000I0J150000D01*
G01*
X40630000Y-33760000D02*
G75*
G03*
X40470000Y-33600000I-160000J0D01*
G01*
X38870000Y-27390000D02*
G75*
G02*
X39020000Y-27240000I150000J0D01*
G01*
X40630000Y-34560000D02*
G75*
G03*
X40470000Y-34400000I-160000J0D01*
G01*
X39020000Y-25640000D02*
G75*
G03*
X39170000Y-25490000I0J150000D01*
G01*
X39020000Y-29240000D02*
G75*
G02*
X38870000Y-29090000I0J150000D01*
G01*
X40230000Y-38560000D02*
G75*
G03*
X40070000Y-38400000I-160000J0D01*
G01*
X39390000Y-34400000D02*
G75*
G02*
X39230000Y-34240000I0J160000D01*
G01*
%TO.N,/DDR3/DDR_D5*%
X26097450Y-33190000D02*
X26587450Y-33190000D01*
X26097450Y-32790000D02*
X25997450Y-32790000D01*
X26097450Y-34790000D02*
X26587450Y-34790000D01*
X25897450Y-32690000D02*
X25897450Y-32490000D01*
X26097450Y-37590000D02*
X25997450Y-37590000D01*
X25997450Y-32390000D02*
X26097450Y-32390000D01*
X31950000Y-27285372D02*
X31950000Y-27000000D01*
X25897450Y-31890000D02*
X25897450Y-31690000D01*
X27740000Y-40140000D02*
X27740000Y-40060000D01*
X27580000Y-39900000D02*
X27500000Y-39900000D01*
X27180000Y-40300000D02*
X27100000Y-40300000D01*
X25897450Y-35890000D02*
X25897450Y-35690000D01*
X28350000Y-40300000D02*
X27900000Y-40300000D01*
X26097450Y-36790000D02*
X25997450Y-36790000D01*
X26587450Y-38390000D02*
X26097450Y-38390000D01*
X26097450Y-33590000D02*
X25997450Y-33590000D01*
X26097450Y-30002550D02*
X26600000Y-29500000D01*
X26587450Y-35990000D02*
X26097450Y-35990000D01*
X25997450Y-34790000D02*
X26097450Y-34790000D01*
X26747450Y-35430000D02*
X26747450Y-35350000D01*
X29158614Y-40658614D02*
X28800000Y-40300000D01*
X26587450Y-37590000D02*
X26097450Y-37590000D01*
X26747450Y-37030000D02*
X26747450Y-36950000D01*
X26097450Y-37190000D02*
X26587450Y-37190000D01*
X28800000Y-40300000D02*
X28350000Y-40300000D01*
X25897450Y-37490000D02*
X25897450Y-37290000D01*
X26257450Y-39590000D02*
X26837450Y-39590000D01*
X25997450Y-33990000D02*
X26097450Y-33990000D01*
X26097450Y-35590000D02*
X26587450Y-35590000D01*
X25897450Y-34290000D02*
X25897450Y-34090000D01*
X26600000Y-29500000D02*
X29735372Y-29500000D01*
X25997450Y-35590000D02*
X26097450Y-35590000D01*
X25997450Y-31590000D02*
X26097450Y-31590000D01*
X25897450Y-38290000D02*
X25897450Y-38090000D01*
X26587450Y-34390000D02*
X26097450Y-34390000D01*
X26257450Y-31590000D02*
X26937450Y-31590000D01*
X25997450Y-36390000D02*
X26097450Y-36390000D01*
X26587450Y-36790000D02*
X26097450Y-36790000D01*
X26647450Y-40300000D02*
X26329251Y-39981801D01*
X25997450Y-38790000D02*
X26097450Y-38790000D01*
X26747450Y-37830000D02*
X26747450Y-37750000D01*
X26997450Y-39430000D02*
X26997450Y-39350000D01*
X26747450Y-34630000D02*
X26747450Y-34550000D01*
X27097450Y-31430000D02*
X27097450Y-31350000D01*
X29700000Y-41200000D02*
X29158614Y-40658614D01*
X27097450Y-32230000D02*
X27097450Y-32150000D01*
X26097450Y-31590000D02*
X26257450Y-31590000D01*
X25897450Y-36690000D02*
X25897450Y-36490000D01*
X26097450Y-38790000D02*
X26587450Y-38790000D01*
X27340000Y-40060000D02*
X27340000Y-40140000D01*
X26747450Y-33030000D02*
X26747450Y-32950000D01*
X26937450Y-31990000D02*
X26097450Y-31990000D01*
X26097450Y-30607859D02*
X26097450Y-30002550D01*
X26329251Y-39981801D02*
X26097450Y-39750000D01*
X26097450Y-36390000D02*
X26587450Y-36390000D01*
X26097450Y-33990000D02*
X26587450Y-33990000D01*
X26097450Y-37990000D02*
X26587450Y-37990000D01*
X26097450Y-32390000D02*
X26937450Y-32390000D01*
X25997450Y-33190000D02*
X26097450Y-33190000D01*
X26587450Y-35190000D02*
X26097450Y-35190000D01*
X25897450Y-39090000D02*
X25897450Y-38890000D01*
X29735372Y-29500000D02*
X31950000Y-27285372D01*
X26097450Y-39190000D02*
X25997450Y-39190000D01*
X26257450Y-39190000D02*
X26097450Y-39190000D01*
X25897450Y-35090000D02*
X25897450Y-34890000D01*
X26837450Y-39190000D02*
X26257450Y-39190000D01*
X27100000Y-40300000D02*
X26647450Y-40300000D01*
X26587450Y-32790000D02*
X26097450Y-32790000D01*
X26097450Y-35990000D02*
X25997450Y-35990000D01*
X26097450Y-31990000D02*
X25997450Y-31990000D01*
X26097450Y-31030000D02*
X26097450Y-30950000D01*
X25997450Y-37990000D02*
X26097450Y-37990000D01*
X26097450Y-35190000D02*
X25997450Y-35190000D01*
X26747450Y-38630000D02*
X26747450Y-38550000D01*
X26747450Y-33830000D02*
X26747450Y-33750000D01*
X26587450Y-33590000D02*
X26097450Y-33590000D01*
X25997450Y-37190000D02*
X26097450Y-37190000D01*
X26937450Y-31190000D02*
X26257450Y-31190000D01*
X26097450Y-30950000D02*
X26097450Y-30607859D01*
X26747450Y-36230000D02*
X26747450Y-36150000D01*
X26097450Y-38390000D02*
X25997450Y-38390000D01*
X25897450Y-33490000D02*
X25897450Y-33290000D01*
X26097450Y-34390000D02*
X25997450Y-34390000D01*
X26937450Y-31590000D02*
G75*
G03*
X27097400Y-31430000I-50J160000D01*
G01*
X25897450Y-33290000D02*
G75*
G02*
X25997450Y-33190050I99950J0D01*
G01*
X26587450Y-37990000D02*
G75*
G03*
X26747400Y-37830000I-50J160000D01*
G01*
X25897450Y-36490000D02*
G75*
G02*
X25997450Y-36390050I99950J0D01*
G01*
X27500000Y-39900000D02*
G75*
G03*
X27340000Y-40060000I0J-160000D01*
G01*
X26747450Y-37750000D02*
G75*
G03*
X26587450Y-37589950I-160050J0D01*
G01*
X25897450Y-37290000D02*
G75*
G02*
X25997450Y-37190050I99950J0D01*
G01*
X25897450Y-32490000D02*
G75*
G02*
X25997450Y-32390050I99950J0D01*
G01*
X25997450Y-33590000D02*
G75*
G02*
X25897400Y-33490000I-50J100000D01*
G01*
X25897450Y-34890000D02*
G75*
G02*
X25997450Y-34790050I99950J0D01*
G01*
X26097450Y-39750000D02*
G75*
G02*
X26257450Y-39589950I160050J0D01*
G01*
X27097450Y-32150000D02*
G75*
G03*
X26937450Y-31989950I-160050J0D01*
G01*
X27900000Y-40300000D02*
G75*
G02*
X27740000Y-40140000I0J160000D01*
G01*
X26747450Y-34550000D02*
G75*
G03*
X26587450Y-34389950I-160050J0D01*
G01*
X25997450Y-31990000D02*
G75*
G02*
X25897400Y-31890000I-50J100000D01*
G01*
X25897450Y-31690000D02*
G75*
G02*
X25997450Y-31590050I99950J0D01*
G01*
X26747450Y-33750000D02*
G75*
G03*
X26587450Y-33589950I-160050J0D01*
G01*
X25997450Y-32790000D02*
G75*
G02*
X25897400Y-32690000I-50J100000D01*
G01*
X27340000Y-40140000D02*
G75*
G02*
X27180000Y-40300000I-160000J0D01*
G01*
X27097450Y-31350000D02*
G75*
G03*
X26937450Y-31189950I-160050J0D01*
G01*
X26747450Y-35350000D02*
G75*
G03*
X26587450Y-35189950I-160050J0D01*
G01*
X25997450Y-35190000D02*
G75*
G02*
X25897400Y-35090000I-50J100000D01*
G01*
X25897450Y-34090000D02*
G75*
G02*
X25997450Y-33990050I99950J0D01*
G01*
X26747450Y-36950000D02*
G75*
G03*
X26587450Y-36789950I-160050J0D01*
G01*
X26587450Y-37190000D02*
G75*
G03*
X26747400Y-37030000I-50J160000D01*
G01*
X25997450Y-39190000D02*
G75*
G02*
X25897400Y-39090000I-50J100000D01*
G01*
X26937450Y-32390000D02*
G75*
G03*
X27097400Y-32230000I-50J160000D01*
G01*
X26587450Y-35590000D02*
G75*
G03*
X26747400Y-35430000I-50J160000D01*
G01*
X25897450Y-35690000D02*
G75*
G02*
X25997450Y-35590050I99950J0D01*
G01*
X26747450Y-32950000D02*
G75*
G03*
X26587450Y-32789950I-160050J0D01*
G01*
X25997450Y-38390000D02*
G75*
G02*
X25897400Y-38290000I-50J100000D01*
G01*
X26587450Y-33190000D02*
G75*
G03*
X26747400Y-33030000I-50J160000D01*
G01*
X25997450Y-35990000D02*
G75*
G02*
X25897400Y-35890000I-50J100000D01*
G01*
X26837450Y-39590000D02*
G75*
G03*
X26997400Y-39430000I-50J160000D01*
G01*
X26257450Y-31190000D02*
G75*
G02*
X26097500Y-31030000I50J160000D01*
G01*
X26587450Y-36390000D02*
G75*
G03*
X26747400Y-36230000I-50J160000D01*
G01*
X25997450Y-34390000D02*
G75*
G02*
X25897400Y-34290000I-50J100000D01*
G01*
X26997450Y-39350000D02*
G75*
G03*
X26837450Y-39189950I-160050J0D01*
G01*
X25997450Y-37590000D02*
G75*
G02*
X25897400Y-37490000I-50J100000D01*
G01*
X26587450Y-34790000D02*
G75*
G03*
X26747400Y-34630000I-50J160000D01*
G01*
X26587450Y-33990000D02*
G75*
G03*
X26747400Y-33830000I-50J160000D01*
G01*
X26587450Y-38790000D02*
G75*
G03*
X26747400Y-38630000I-50J160000D01*
G01*
X25897450Y-38890000D02*
G75*
G02*
X25997450Y-38790050I99950J0D01*
G01*
X27740000Y-40060000D02*
G75*
G03*
X27580000Y-39900000I-160000J0D01*
G01*
X25997450Y-36790000D02*
G75*
G02*
X25897400Y-36690000I-50J100000D01*
G01*
X26747450Y-36150000D02*
G75*
G03*
X26587450Y-35989950I-160050J0D01*
G01*
X26747450Y-38550000D02*
G75*
G03*
X26587450Y-38389950I-160050J0D01*
G01*
X25897450Y-38090000D02*
G75*
G02*
X25997450Y-37990050I99950J0D01*
G01*
%TO.N,/DDR3/DDR_D14*%
X39780000Y-26000000D02*
X39780000Y-26080000D01*
X39780000Y-28640000D02*
X39590000Y-28640000D01*
X39590000Y-29040000D02*
X39780000Y-29040000D01*
X39620000Y-24640000D02*
X39590000Y-24640000D01*
X39010000Y-21690000D02*
X39010000Y-21010000D01*
X35970000Y-20850000D02*
X36050000Y-20850000D01*
X34898967Y-21201033D02*
X35217165Y-20882834D01*
X39780000Y-30800000D02*
X39780000Y-30880000D01*
X38370000Y-20850000D02*
X38450000Y-20850000D01*
X39780000Y-28240000D02*
X40470000Y-28240000D01*
X39430000Y-26400000D02*
X39430000Y-26480000D01*
X38210000Y-21690000D02*
X38210000Y-21010000D01*
X39780000Y-27440000D02*
X40120000Y-27440000D01*
X39430000Y-27200000D02*
X39430000Y-27280000D01*
X39590000Y-24240000D02*
X39620000Y-24240000D01*
X40925000Y-39435000D02*
X40660000Y-39700000D01*
X34550000Y-21550000D02*
X34898967Y-21201033D01*
X39620000Y-26240000D02*
X39590000Y-26240000D01*
X39620000Y-27040000D02*
X39590000Y-27040000D01*
X40620000Y-29440000D02*
X39780000Y-29440000D01*
X35810000Y-21690000D02*
X35810000Y-21010000D01*
X36210000Y-21010000D02*
X36210000Y-21690000D01*
X36370000Y-21850000D02*
X36450000Y-21850000D01*
X39668198Y-21168198D02*
X39780000Y-21280000D01*
X35410000Y-21010000D02*
X35410000Y-21690000D01*
X39620000Y-27440000D02*
X39780000Y-27440000D01*
X37010000Y-21010000D02*
X37010000Y-21690000D01*
X39780000Y-27840000D02*
X39590000Y-27840000D01*
X40630000Y-28400000D02*
X40630000Y-28480000D01*
X39590000Y-23440000D02*
X39620000Y-23440000D01*
X37410000Y-21690000D02*
X37410000Y-21010000D01*
X39780000Y-26800000D02*
X39780000Y-26880000D01*
X39430000Y-30400000D02*
X39430000Y-30480000D01*
X39590000Y-26640000D02*
X39620000Y-26640000D01*
X39780000Y-30240000D02*
X39620000Y-30240000D01*
X39590000Y-25840000D02*
X39620000Y-25840000D01*
X39620000Y-23040000D02*
X39590000Y-23040000D01*
X39350000Y-20850000D02*
X39668198Y-21168198D01*
X38610000Y-21010000D02*
X38610000Y-21690000D01*
X39780000Y-24400000D02*
X39780000Y-24480000D01*
X35570000Y-21850000D02*
X35650000Y-21850000D01*
X39780000Y-29040000D02*
X40620000Y-29040000D01*
X39580000Y-21480000D02*
X39580000Y-21680000D01*
X39430000Y-28800000D02*
X39430000Y-28880000D01*
X40470000Y-28640000D02*
X39780000Y-28640000D01*
X40620000Y-30240000D02*
X39780000Y-30240000D01*
X39430000Y-24000000D02*
X39430000Y-24080000D01*
X39430000Y-25600000D02*
X39430000Y-25680000D01*
X39780000Y-31370000D02*
X40925000Y-32515000D01*
X37970000Y-21850000D02*
X38050000Y-21850000D01*
X39590000Y-30640000D02*
X39620000Y-30640000D01*
X39780000Y-29440000D02*
X39590000Y-29440000D01*
X39620000Y-30240000D02*
X39590000Y-30240000D01*
X39430000Y-23200000D02*
X39430000Y-23280000D01*
X39430000Y-24800000D02*
X39430000Y-24880000D01*
X39250000Y-20850000D02*
X39350000Y-20850000D01*
X39780000Y-29840000D02*
X40620000Y-29840000D01*
X39230000Y-22400000D02*
X39230000Y-22480000D01*
X35217165Y-20882834D02*
X35250000Y-20850000D01*
X39780000Y-30880000D02*
X39780000Y-31350000D01*
X39430000Y-29600000D02*
X39430000Y-29680000D01*
X36610000Y-21690000D02*
X36610000Y-21010000D01*
X39780000Y-25200000D02*
X39780000Y-25280000D01*
X39620000Y-22240000D02*
X39390000Y-22240000D01*
X39170000Y-20850000D02*
X39250000Y-20850000D01*
X40280000Y-27600000D02*
X40280000Y-27680000D01*
X39590000Y-25040000D02*
X39620000Y-25040000D01*
X39590000Y-27440000D02*
X39620000Y-27440000D01*
X39620000Y-25440000D02*
X39590000Y-25440000D01*
X39430000Y-28000000D02*
X39430000Y-28080000D01*
X40925000Y-32515000D02*
X40925000Y-39435000D01*
X39780000Y-21880000D02*
X39780000Y-22080000D01*
X36770000Y-20850000D02*
X36850000Y-20850000D01*
X39390000Y-22640000D02*
X39620000Y-22640000D01*
X39590000Y-28240000D02*
X39780000Y-28240000D01*
X37170000Y-21850000D02*
X37250000Y-21850000D01*
X40660000Y-39700000D02*
X39700000Y-39700000D01*
X39590000Y-29840000D02*
X39780000Y-29840000D01*
X37810000Y-21010000D02*
X37810000Y-21690000D01*
X40780000Y-29200000D02*
X40780000Y-29280000D01*
X37570000Y-20850000D02*
X37650000Y-20850000D01*
X39780000Y-23600000D02*
X39780000Y-23680000D01*
X39620000Y-23840000D02*
X39590000Y-23840000D01*
X40780000Y-30000000D02*
X40780000Y-30080000D01*
X38770000Y-21850000D02*
X38850000Y-21850000D01*
X34550000Y-21900000D02*
X34550000Y-21550000D01*
X39780000Y-31350000D02*
X39780000Y-31370000D01*
X39780000Y-22800000D02*
X39780000Y-22880000D01*
X40120000Y-27840000D02*
X39780000Y-27840000D01*
X39620000Y-25840000D02*
G75*
G02*
X39780000Y-26000000I0J-160000D01*
G01*
X36050000Y-20850000D02*
G75*
G02*
X36210000Y-21010000I0J-160000D01*
G01*
X40630000Y-28480000D02*
G75*
G02*
X40470000Y-28640000I-160000J0D01*
G01*
X38610000Y-21690000D02*
G75*
G03*
X38770000Y-21850000I160000J0D01*
G01*
X37010000Y-21690000D02*
G75*
G03*
X37170000Y-21850000I160000J0D01*
G01*
X39430000Y-28080000D02*
G75*
G03*
X39590000Y-28240000I160000J0D01*
G01*
X39430000Y-24080000D02*
G75*
G03*
X39590000Y-24240000I160000J0D01*
G01*
X40280000Y-27680000D02*
G75*
G02*
X40120000Y-27840000I-160000J0D01*
G01*
X39430000Y-24880000D02*
G75*
G03*
X39590000Y-25040000I160000J0D01*
G01*
X37810000Y-21690000D02*
G75*
G03*
X37970000Y-21850000I160000J0D01*
G01*
X36450000Y-21850000D02*
G75*
G03*
X36610000Y-21690000I0J160000D01*
G01*
X39780000Y-26880000D02*
G75*
G02*
X39620000Y-27040000I-160000J0D01*
G01*
X39430000Y-29680000D02*
G75*
G03*
X39590000Y-29840000I160000J0D01*
G01*
X39680000Y-21780000D02*
G75*
G02*
X39780000Y-21880000I0J-100000D01*
G01*
X40620000Y-29040000D02*
G75*
G02*
X40780000Y-29200000I0J-160000D01*
G01*
X36210000Y-21690000D02*
G75*
G03*
X36370000Y-21850000I160000J0D01*
G01*
X37250000Y-21850000D02*
G75*
G03*
X37410000Y-21690000I0J160000D01*
G01*
X39780000Y-21280000D02*
G75*
G02*
X39680000Y-21380000I-100000J0D01*
G01*
X39680000Y-21380000D02*
G75*
G03*
X39580000Y-21480000I0J-100000D01*
G01*
X36850000Y-20850000D02*
G75*
G02*
X37010000Y-21010000I0J-160000D01*
G01*
X40620000Y-29840000D02*
G75*
G02*
X40780000Y-30000000I0J-160000D01*
G01*
X37650000Y-20850000D02*
G75*
G02*
X37810000Y-21010000I0J-160000D01*
G01*
X39430000Y-26480000D02*
G75*
G03*
X39590000Y-26640000I160000J0D01*
G01*
X35410000Y-21690000D02*
G75*
G03*
X35570000Y-21850000I160000J0D01*
G01*
X39780000Y-22880000D02*
G75*
G02*
X39620000Y-23040000I-160000J0D01*
G01*
X39590000Y-23840000D02*
G75*
G03*
X39430000Y-24000000I0J-160000D01*
G01*
X39780000Y-23680000D02*
G75*
G02*
X39620000Y-23840000I-160000J0D01*
G01*
X40780000Y-30080000D02*
G75*
G02*
X40620000Y-30240000I-160000J0D01*
G01*
X39620000Y-30640000D02*
G75*
G02*
X39780000Y-30800000I0J-160000D01*
G01*
X40120000Y-27440000D02*
G75*
G02*
X40280000Y-27600000I0J-160000D01*
G01*
X39590000Y-26240000D02*
G75*
G03*
X39430000Y-26400000I0J-160000D01*
G01*
X39620000Y-25040000D02*
G75*
G02*
X39780000Y-25200000I0J-160000D01*
G01*
X40470000Y-28240000D02*
G75*
G02*
X40630000Y-28400000I0J-160000D01*
G01*
X39620000Y-24240000D02*
G75*
G02*
X39780000Y-24400000I0J-160000D01*
G01*
X39590000Y-27040000D02*
G75*
G03*
X39430000Y-27200000I0J-160000D01*
G01*
X38850000Y-21850000D02*
G75*
G03*
X39010000Y-21690000I0J160000D01*
G01*
X39590000Y-25440000D02*
G75*
G03*
X39430000Y-25600000I0J-160000D01*
G01*
X39590000Y-30240000D02*
G75*
G03*
X39430000Y-30400000I0J-160000D01*
G01*
X39780000Y-24480000D02*
G75*
G02*
X39620000Y-24640000I-160000J0D01*
G01*
X39620000Y-26640000D02*
G75*
G02*
X39780000Y-26800000I0J-160000D01*
G01*
X39430000Y-25680000D02*
G75*
G03*
X39590000Y-25840000I160000J0D01*
G01*
X39780000Y-22080000D02*
G75*
G02*
X39620000Y-22240000I-160000J0D01*
G01*
X35650000Y-21850000D02*
G75*
G03*
X35810000Y-21690000I0J160000D01*
G01*
X39780000Y-26080000D02*
G75*
G02*
X39620000Y-26240000I-160000J0D01*
G01*
X39430000Y-23280000D02*
G75*
G03*
X39590000Y-23440000I160000J0D01*
G01*
X39620000Y-22640000D02*
G75*
G02*
X39780000Y-22800000I0J-160000D01*
G01*
X39230000Y-22480000D02*
G75*
G03*
X39390000Y-22640000I160000J0D01*
G01*
X39430000Y-30480000D02*
G75*
G03*
X39590000Y-30640000I160000J0D01*
G01*
X39390000Y-22240000D02*
G75*
G03*
X39230000Y-22400000I0J-160000D01*
G01*
X37410000Y-21010000D02*
G75*
G02*
X37570000Y-20850000I160000J0D01*
G01*
X39620000Y-23440000D02*
G75*
G02*
X39780000Y-23600000I0J-160000D01*
G01*
X38050000Y-21850000D02*
G75*
G03*
X38210000Y-21690000I0J160000D01*
G01*
X39780000Y-25280000D02*
G75*
G02*
X39620000Y-25440000I-160000J0D01*
G01*
X39590000Y-29440000D02*
G75*
G03*
X39430000Y-29600000I0J-160000D01*
G01*
X39590000Y-28640000D02*
G75*
G03*
X39430000Y-28800000I0J-160000D01*
G01*
X35810000Y-21010000D02*
G75*
G02*
X35970000Y-20850000I160000J0D01*
G01*
X39430000Y-28880000D02*
G75*
G03*
X39590000Y-29040000I160000J0D01*
G01*
X40780000Y-29280000D02*
G75*
G02*
X40620000Y-29440000I-160000J0D01*
G01*
X36610000Y-21010000D02*
G75*
G02*
X36770000Y-20850000I160000J0D01*
G01*
X39430000Y-27280000D02*
G75*
G03*
X39590000Y-27440000I160000J0D01*
G01*
X35250000Y-20850000D02*
G75*
G02*
X35410000Y-21010000I0J-160000D01*
G01*
X39010000Y-21010000D02*
G75*
G02*
X39170000Y-20850000I160000J0D01*
G01*
X39590000Y-23040000D02*
G75*
G03*
X39430000Y-23200000I0J-160000D01*
G01*
X39590000Y-24640000D02*
G75*
G03*
X39430000Y-24800000I0J-160000D01*
G01*
X38210000Y-21010000D02*
G75*
G02*
X38370000Y-20850000I160000J0D01*
G01*
X38450000Y-20850000D02*
G75*
G02*
X38610000Y-21010000I0J-160000D01*
G01*
X39590000Y-27840000D02*
G75*
G03*
X39430000Y-28000000I0J-160000D01*
G01*
X39580000Y-21680000D02*
G75*
G03*
X39680000Y-21780000I100000J0D01*
G01*
%TO.N,/DDR3/DDR_A8*%
X36100000Y-42000000D02*
X35300000Y-41200000D01*
%TO.N,/DDR3/DDR_D7*%
X23480000Y-24050000D02*
X26850000Y-24050000D01*
D13*
X30500000Y-42000000D02*
X30900000Y-42400000D01*
D12*
X28379250Y-24070750D02*
X28550000Y-23900000D01*
X30150000Y-23900000D02*
X30500000Y-23550000D01*
X30500000Y-42000000D02*
X30470750Y-41970750D01*
X30300000Y-45700000D02*
X25850000Y-45700000D01*
X30500000Y-23550000D02*
X32500000Y-23550000D01*
X28127802Y-24329250D02*
X28379250Y-24077802D01*
X28550000Y-23900000D02*
X28750000Y-23900000D01*
D13*
X31000000Y-44300000D02*
X31000000Y-44450000D01*
X30900000Y-44200000D02*
X30950000Y-44250000D01*
D12*
X20940000Y-40790000D02*
X20940000Y-26590000D01*
D13*
X30950000Y-44250000D02*
X31000000Y-44300000D01*
D12*
X25850000Y-45700000D02*
X20940000Y-40790000D01*
X26850000Y-24050000D02*
X27129250Y-24329250D01*
X31000000Y-44450000D02*
X31000000Y-45000000D01*
D13*
X30900000Y-42400000D02*
X30900000Y-44200000D01*
D12*
X27129250Y-24329250D02*
X28127802Y-24329250D01*
X29200000Y-23900000D02*
X30150000Y-23900000D01*
X33150000Y-26250000D02*
X33550000Y-26650000D01*
X33150000Y-24200000D02*
X33150000Y-26250000D01*
X20940000Y-26590000D02*
X23480000Y-24050000D01*
X33550000Y-26650000D02*
X33750000Y-26650000D01*
X28379250Y-24077802D02*
X28379250Y-24070750D01*
D13*
X28750000Y-23900000D02*
X29200000Y-23900000D01*
X31000000Y-44450000D02*
X31000000Y-44500000D01*
D12*
X32500000Y-23550000D02*
X33150000Y-24200000D01*
X31000000Y-45000000D02*
X30300000Y-45700000D01*
%TO.N,/DDR3/DDR_D9*%
X37650000Y-23740000D02*
X37650000Y-24190000D01*
X36810000Y-28400000D02*
X37490000Y-28400000D01*
X35745000Y-23295000D02*
X35745000Y-23525000D01*
X37650000Y-27760000D02*
X37650000Y-27840000D01*
X36810000Y-25200000D02*
X37490000Y-25200000D01*
X36810000Y-29200000D02*
X37490000Y-29200000D01*
X37490000Y-28000000D02*
X36810000Y-28000000D01*
X36810000Y-26800000D02*
X37490000Y-26800000D01*
X32750000Y-20950000D02*
X33000000Y-21200000D01*
X37650000Y-30960000D02*
X37650000Y-31040000D01*
X37490000Y-28800000D02*
X36810000Y-28800000D01*
X34131370Y-22931370D02*
X34335000Y-23135000D01*
X37650000Y-30160000D02*
X37650000Y-30240000D01*
X37650000Y-24190000D02*
X37650000Y-24640000D01*
X38400000Y-39300000D02*
X38400000Y-40000000D01*
X38130000Y-32180000D02*
X37450000Y-32180000D01*
X37450000Y-32580000D02*
X38130000Y-32580000D01*
X33000000Y-21200000D02*
X33000000Y-21800000D01*
X37610685Y-23700685D02*
X37650000Y-23740000D01*
X37650000Y-31380000D02*
X38286396Y-32016396D01*
X38290000Y-32740000D02*
X38290000Y-32820000D01*
X34025303Y-22825303D02*
X34131370Y-22931370D01*
X37490000Y-25600000D02*
X36810000Y-25600000D01*
X36705588Y-23926959D02*
X36762156Y-23983527D01*
X37650000Y-26960000D02*
X37650000Y-27040000D01*
X36145000Y-23525000D02*
X36145000Y-23295000D01*
X33636396Y-21955563D02*
X33509115Y-22082841D01*
X37650000Y-31040000D02*
X37650000Y-31380000D01*
X38286396Y-32016396D02*
X38290000Y-32020000D01*
X39072500Y-36992948D02*
X39072500Y-38627500D01*
X37490000Y-26400000D02*
X36810000Y-26400000D01*
X36650000Y-30560000D02*
X36650000Y-30640000D01*
X38290000Y-33620000D02*
X38290000Y-33900000D01*
X38290000Y-33540000D02*
X38290000Y-33620000D01*
X37650000Y-26160000D02*
X37650000Y-26240000D01*
X37490000Y-27200000D02*
X36810000Y-27200000D01*
X36650000Y-27360000D02*
X36650000Y-27440000D01*
X36650000Y-29760000D02*
X36650000Y-29840000D01*
X36810000Y-30000000D02*
X37490000Y-30000000D01*
X39072500Y-38627500D02*
X38400000Y-39300000D01*
X36835000Y-23135000D02*
X37045000Y-23135000D01*
X36810000Y-30800000D02*
X37490000Y-30800000D01*
X36810000Y-26000000D02*
X37490000Y-26000000D01*
X36650000Y-25760000D02*
X36650000Y-25840000D01*
X34985000Y-23335000D02*
X35185000Y-23335000D01*
X35385000Y-23135000D02*
X35585000Y-23135000D01*
X36988430Y-23983527D02*
X37327841Y-23644115D01*
X33579828Y-21672721D02*
X33636396Y-21729289D01*
X37554115Y-23644115D02*
X37610685Y-23700685D01*
X37490000Y-24800000D02*
X36810000Y-24800000D01*
X37490000Y-29600000D02*
X36810000Y-29600000D01*
X36810000Y-27600000D02*
X37490000Y-27600000D01*
X38290000Y-33900000D02*
X38290000Y-36210448D01*
X35905000Y-23685000D02*
X35985000Y-23685000D01*
X37650000Y-25360000D02*
X37650000Y-25440000D01*
X37290000Y-33140000D02*
X37290000Y-33220000D01*
X37045000Y-23361274D02*
X36705588Y-23700685D01*
X37290000Y-32340000D02*
X37290000Y-32420000D01*
X36650000Y-24960000D02*
X36650000Y-25040000D01*
X36650000Y-28160000D02*
X36650000Y-28240000D01*
X33919237Y-22365685D02*
X34025303Y-22471751D01*
X34335000Y-23135000D02*
X34785000Y-23135000D01*
X36650000Y-28960000D02*
X36650000Y-29040000D01*
X38290000Y-36210448D02*
X39072500Y-36992948D01*
X36650000Y-26560000D02*
X36650000Y-26640000D01*
X36305000Y-23135000D02*
X36385000Y-23135000D01*
X37650000Y-28560000D02*
X37650000Y-28640000D01*
X33226274Y-21800000D02*
X33353554Y-21672721D01*
X36385000Y-23135000D02*
X36835000Y-23135000D01*
X37450000Y-33380000D02*
X38130000Y-33380000D01*
X33509115Y-22309115D02*
X33565685Y-22365685D01*
X38130000Y-32980000D02*
X37450000Y-32980000D01*
X37490000Y-30400000D02*
X36810000Y-30400000D01*
X37650000Y-29360000D02*
X37650000Y-29440000D01*
X36810000Y-29600000D02*
G75*
G03*
X36650000Y-29760000I0J-160000D01*
G01*
X34025303Y-22471751D02*
G75*
G02*
X34025264Y-22648488I-88403J-88349D01*
G01*
X37650000Y-26240000D02*
G75*
G02*
X37490000Y-26400000I-160000J0D01*
G01*
X38290000Y-32020000D02*
G75*
G02*
X38130000Y-32180000I-160000J0D01*
G01*
X37490000Y-25200000D02*
G75*
G02*
X37650000Y-25360000I0J-160000D01*
G01*
X36650000Y-25840000D02*
G75*
G03*
X36810000Y-26000000I160000J0D01*
G01*
X37290000Y-33220000D02*
G75*
G03*
X37450000Y-33380000I160000J0D01*
G01*
X37650000Y-27840000D02*
G75*
G02*
X37490000Y-28000000I-160000J0D01*
G01*
X37490000Y-26800000D02*
G75*
G02*
X37650000Y-26960000I0J-160000D01*
G01*
X34885000Y-23235000D02*
G75*
G03*
X34985000Y-23335000I100000J0D01*
G01*
X33565685Y-22365685D02*
G75*
G03*
X33742461Y-22365685I88388J88386D01*
G01*
X36650000Y-27440000D02*
G75*
G03*
X36810000Y-27600000I160000J0D01*
G01*
X35585000Y-23135000D02*
G75*
G02*
X35745000Y-23295000I0J-160000D01*
G01*
X36810000Y-27200000D02*
G75*
G03*
X36650000Y-27360000I0J-160000D01*
G01*
X36705588Y-23700685D02*
G75*
G03*
X36705610Y-23926937I113112J-113115D01*
G01*
X34785000Y-23135000D02*
G75*
G02*
X34885000Y-23235000I0J-100000D01*
G01*
X38290000Y-32820000D02*
G75*
G02*
X38130000Y-32980000I-160000J0D01*
G01*
X37650000Y-24640000D02*
G75*
G02*
X37490000Y-24800000I-160000J0D01*
G01*
X35185000Y-23335000D02*
G75*
G03*
X35285000Y-23235000I0J100000D01*
G01*
X36650000Y-26640000D02*
G75*
G03*
X36810000Y-26800000I160000J0D01*
G01*
X37450000Y-32980000D02*
G75*
G03*
X37290000Y-33140000I0J-160000D01*
G01*
X37650000Y-29440000D02*
G75*
G02*
X37490000Y-29600000I-160000J0D01*
G01*
X36810000Y-26400000D02*
G75*
G03*
X36650000Y-26560000I0J-160000D01*
G01*
X33353554Y-21672721D02*
G75*
G02*
X33579828Y-21672721I113137J-113137D01*
G01*
X37490000Y-27600000D02*
G75*
G02*
X37650000Y-27760000I0J-160000D01*
G01*
X37650000Y-28640000D02*
G75*
G02*
X37490000Y-28800000I-160000J0D01*
G01*
X37650000Y-30240000D02*
G75*
G02*
X37490000Y-30400000I-160000J0D01*
G01*
X37327841Y-23644115D02*
G75*
G02*
X37554115Y-23644115I113137J-113137D01*
G01*
X36650000Y-29040000D02*
G75*
G03*
X36810000Y-29200000I160000J0D01*
G01*
X37490000Y-29200000D02*
G75*
G02*
X37650000Y-29360000I0J-160000D01*
G01*
X36762156Y-23983527D02*
G75*
G03*
X36988430Y-23983527I113137J113137D01*
G01*
X37045000Y-23135000D02*
G75*
G02*
X37044963Y-23361237I-113100J-113100D01*
G01*
X36810000Y-30400000D02*
G75*
G03*
X36650000Y-30560000I0J-160000D01*
G01*
X36650000Y-25040000D02*
G75*
G03*
X36810000Y-25200000I160000J0D01*
G01*
X37490000Y-30800000D02*
G75*
G02*
X37650000Y-30960000I0J-160000D01*
G01*
X33742461Y-22365685D02*
G75*
G02*
X33919237Y-22365685I88388J-88386D01*
G01*
X36650000Y-29840000D02*
G75*
G03*
X36810000Y-30000000I160000J0D01*
G01*
X38130000Y-32580000D02*
G75*
G02*
X38290000Y-32740000I0J-160000D01*
G01*
X38130000Y-33380000D02*
G75*
G02*
X38290000Y-33540000I0J-160000D01*
G01*
X37290000Y-32420000D02*
G75*
G03*
X37450000Y-32580000I160000J0D01*
G01*
X36650000Y-28240000D02*
G75*
G03*
X36810000Y-28400000I160000J0D01*
G01*
X36810000Y-25600000D02*
G75*
G03*
X36650000Y-25760000I0J-160000D01*
G01*
X36145000Y-23295000D02*
G75*
G02*
X36305000Y-23135000I160000J0D01*
G01*
X36810000Y-24800000D02*
G75*
G03*
X36650000Y-24960000I0J-160000D01*
G01*
X35985000Y-23685000D02*
G75*
G03*
X36145000Y-23525000I0J160000D01*
G01*
X37490000Y-26000000D02*
G75*
G02*
X37650000Y-26160000I0J-160000D01*
G01*
X37650000Y-25440000D02*
G75*
G02*
X37490000Y-25600000I-160000J0D01*
G01*
X37650000Y-27040000D02*
G75*
G02*
X37490000Y-27200000I-160000J0D01*
G01*
X36810000Y-28000000D02*
G75*
G03*
X36650000Y-28160000I0J-160000D01*
G01*
X36810000Y-28800000D02*
G75*
G03*
X36650000Y-28960000I0J-160000D01*
G01*
X33509115Y-22082841D02*
G75*
G03*
X33509093Y-22309137I113185J-113159D01*
G01*
X35745000Y-23525000D02*
G75*
G03*
X35905000Y-23685000I160000J0D01*
G01*
X37450000Y-32180000D02*
G75*
G03*
X37290000Y-32340000I0J-160000D01*
G01*
X33000000Y-21800000D02*
G75*
G03*
X33226274Y-21800000I113137J113137D01*
G01*
X34025303Y-22648527D02*
G75*
G03*
X34025318Y-22825288I88397J-88373D01*
G01*
X37490000Y-28400000D02*
G75*
G02*
X37650000Y-28560000I0J-160000D01*
G01*
X35285000Y-23235000D02*
G75*
G02*
X35385000Y-23135000I100000J0D01*
G01*
X37490000Y-30000000D02*
G75*
G02*
X37650000Y-30160000I0J-160000D01*
G01*
X33636396Y-21729289D02*
G75*
G02*
X33636370Y-21955537I-113096J-113111D01*
G01*
X36650000Y-30640000D02*
G75*
G03*
X36810000Y-30800000I160000J0D01*
G01*
%TO.N,/DDR3/DDR_DQM0*%
X29700000Y-43600000D02*
X29700000Y-43650000D01*
X22740000Y-35667870D02*
X22740000Y-35587870D01*
X22740000Y-38437870D02*
X22740000Y-37987870D01*
X21900000Y-37427870D02*
X22580000Y-37427870D01*
X22740000Y-36467870D02*
X22740000Y-36387870D01*
X22740000Y-35587870D02*
X22740000Y-35110000D01*
X22580000Y-36227870D02*
X21900000Y-36227870D01*
X28950000Y-44400000D02*
X27150000Y-44400000D01*
X21740000Y-37667870D02*
X21740000Y-37587870D01*
X21740000Y-36867870D02*
X21740000Y-36787870D01*
X27150000Y-44400000D02*
X22740000Y-39990000D01*
X22580000Y-37827870D02*
X21900000Y-37827870D01*
X22740000Y-37267870D02*
X22740000Y-37187870D01*
X21900000Y-35827870D02*
X22580000Y-35827870D01*
X32700000Y-24450000D02*
X32100000Y-23850000D01*
X32100000Y-23850000D02*
X31712746Y-23850000D01*
X22740000Y-39990000D02*
X22740000Y-38437870D01*
X22580000Y-37027870D02*
X21900000Y-37027870D01*
X21900000Y-36627870D02*
X22580000Y-36627870D01*
X29700000Y-43650000D02*
X28950000Y-44400000D01*
X21740000Y-36067870D02*
X21740000Y-35987870D01*
X22580000Y-36627870D02*
G75*
G03*
X22739970Y-36467870I0J159970D01*
G01*
X22740000Y-37187870D02*
G75*
G03*
X22580000Y-37027900I-160000J-30D01*
G01*
X21740000Y-37587870D02*
G75*
G02*
X21900000Y-37427900I160000J-30D01*
G01*
X21900000Y-36227870D02*
G75*
G02*
X21740030Y-36067870I0J159970D01*
G01*
X22580000Y-35827870D02*
G75*
G03*
X22739970Y-35667870I0J159970D01*
G01*
X21900000Y-37027870D02*
G75*
G02*
X21740030Y-36867870I0J159970D01*
G01*
X21740000Y-35987870D02*
G75*
G02*
X21900000Y-35827900I160000J-30D01*
G01*
X22740000Y-36387870D02*
G75*
G03*
X22580000Y-36227900I-160000J-30D01*
G01*
X22580000Y-37427870D02*
G75*
G03*
X22739970Y-37267870I0J159970D01*
G01*
X21900000Y-37827870D02*
G75*
G02*
X21740030Y-37667870I0J159970D01*
G01*
X21740000Y-36787870D02*
G75*
G02*
X21900000Y-36627900I160000J-30D01*
G01*
X22740000Y-37987870D02*
G75*
G03*
X22580000Y-37827900I-160000J-30D01*
G01*
%TD*%
M02*
