%TF.GenerationSoftware,KiCad,Pcbnew,9.0.4-9.0.4-0~ubuntu24.04.1*%
%TF.CreationDate,2025-08-22T19:02:33+03:00*%
%TF.ProjectId,ThingsCore-1,5468696e-6773-4436-9f72-652d312e6b69,rev?*%
%TF.SameCoordinates,Original*%
%TF.FileFunction,Legend,Top*%
%TF.FilePolarity,Positive*%
%FSLAX46Y46*%
G04 Gerber Fmt 4.6, Leading zero omitted, Abs format (unit mm)*
G04 Created by KiCad (PCBNEW 9.0.4-9.0.4-0~ubuntu24.04.1) date 2025-08-22 19:02:33*
%MOMM*%
%LPD*%
G01*
G04 APERTURE LIST*
%ADD10C,0.254000*%
%ADD11C,0.150000*%
%ADD12C,0.200000*%
%ADD13C,0.120000*%
%ADD14C,0.100000*%
%ADD15C,0.250000*%
G04 APERTURE END LIST*
D10*
X30732380Y-19054318D02*
X30732380Y-20082413D01*
X30732380Y-20082413D02*
X30792857Y-20203365D01*
X30792857Y-20203365D02*
X30853333Y-20263842D01*
X30853333Y-20263842D02*
X30974285Y-20324318D01*
X30974285Y-20324318D02*
X31216190Y-20324318D01*
X31216190Y-20324318D02*
X31337142Y-20263842D01*
X31337142Y-20263842D02*
X31397619Y-20203365D01*
X31397619Y-20203365D02*
X31458095Y-20082413D01*
X31458095Y-20082413D02*
X31458095Y-19054318D01*
X32002380Y-19175270D02*
X32062856Y-19114794D01*
X32062856Y-19114794D02*
X32183809Y-19054318D01*
X32183809Y-19054318D02*
X32486190Y-19054318D01*
X32486190Y-19054318D02*
X32607142Y-19114794D01*
X32607142Y-19114794D02*
X32667618Y-19175270D01*
X32667618Y-19175270D02*
X32728095Y-19296222D01*
X32728095Y-19296222D02*
X32728095Y-19417175D01*
X32728095Y-19417175D02*
X32667618Y-19598603D01*
X32667618Y-19598603D02*
X31941904Y-20324318D01*
X31941904Y-20324318D02*
X32728095Y-20324318D01*
D11*
X25654819Y-50161904D02*
X26464342Y-50161904D01*
X26464342Y-50161904D02*
X26559580Y-50114285D01*
X26559580Y-50114285D02*
X26607200Y-50066666D01*
X26607200Y-50066666D02*
X26654819Y-49971428D01*
X26654819Y-49971428D02*
X26654819Y-49780952D01*
X26654819Y-49780952D02*
X26607200Y-49685714D01*
X26607200Y-49685714D02*
X26559580Y-49638095D01*
X26559580Y-49638095D02*
X26464342Y-49590476D01*
X26464342Y-49590476D02*
X25654819Y-49590476D01*
X25654819Y-49209523D02*
X25654819Y-48542857D01*
X25654819Y-48542857D02*
X26654819Y-48971428D01*
D10*
X39713842Y-31667619D02*
X39774318Y-31486190D01*
X39774318Y-31486190D02*
X39774318Y-31183809D01*
X39774318Y-31183809D02*
X39713842Y-31062857D01*
X39713842Y-31062857D02*
X39653365Y-31002381D01*
X39653365Y-31002381D02*
X39532413Y-30941904D01*
X39532413Y-30941904D02*
X39411461Y-30941904D01*
X39411461Y-30941904D02*
X39290508Y-31002381D01*
X39290508Y-31002381D02*
X39230032Y-31062857D01*
X39230032Y-31062857D02*
X39169556Y-31183809D01*
X39169556Y-31183809D02*
X39109080Y-31425714D01*
X39109080Y-31425714D02*
X39048603Y-31546666D01*
X39048603Y-31546666D02*
X38988127Y-31607143D01*
X38988127Y-31607143D02*
X38867175Y-31667619D01*
X38867175Y-31667619D02*
X38746222Y-31667619D01*
X38746222Y-31667619D02*
X38625270Y-31607143D01*
X38625270Y-31607143D02*
X38564794Y-31546666D01*
X38564794Y-31546666D02*
X38504318Y-31425714D01*
X38504318Y-31425714D02*
X38504318Y-31123333D01*
X38504318Y-31123333D02*
X38564794Y-30941904D01*
X38625270Y-30458095D02*
X38564794Y-30397619D01*
X38564794Y-30397619D02*
X38504318Y-30276666D01*
X38504318Y-30276666D02*
X38504318Y-29974285D01*
X38504318Y-29974285D02*
X38564794Y-29853333D01*
X38564794Y-29853333D02*
X38625270Y-29792857D01*
X38625270Y-29792857D02*
X38746222Y-29732380D01*
X38746222Y-29732380D02*
X38867175Y-29732380D01*
X38867175Y-29732380D02*
X39048603Y-29792857D01*
X39048603Y-29792857D02*
X39774318Y-30518571D01*
X39774318Y-30518571D02*
X39774318Y-29732380D01*
D11*
X17988095Y-43474819D02*
X17988095Y-44284342D01*
X17988095Y-44284342D02*
X18035714Y-44379580D01*
X18035714Y-44379580D02*
X18083333Y-44427200D01*
X18083333Y-44427200D02*
X18178571Y-44474819D01*
X18178571Y-44474819D02*
X18369047Y-44474819D01*
X18369047Y-44474819D02*
X18464285Y-44427200D01*
X18464285Y-44427200D02*
X18511904Y-44379580D01*
X18511904Y-44379580D02*
X18559523Y-44284342D01*
X18559523Y-44284342D02*
X18559523Y-43474819D01*
X19464285Y-43474819D02*
X19273809Y-43474819D01*
X19273809Y-43474819D02*
X19178571Y-43522438D01*
X19178571Y-43522438D02*
X19130952Y-43570057D01*
X19130952Y-43570057D02*
X19035714Y-43712914D01*
X19035714Y-43712914D02*
X18988095Y-43903390D01*
X18988095Y-43903390D02*
X18988095Y-44284342D01*
X18988095Y-44284342D02*
X19035714Y-44379580D01*
X19035714Y-44379580D02*
X19083333Y-44427200D01*
X19083333Y-44427200D02*
X19178571Y-44474819D01*
X19178571Y-44474819D02*
X19369047Y-44474819D01*
X19369047Y-44474819D02*
X19464285Y-44427200D01*
X19464285Y-44427200D02*
X19511904Y-44379580D01*
X19511904Y-44379580D02*
X19559523Y-44284342D01*
X19559523Y-44284342D02*
X19559523Y-44046247D01*
X19559523Y-44046247D02*
X19511904Y-43951009D01*
X19511904Y-43951009D02*
X19464285Y-43903390D01*
X19464285Y-43903390D02*
X19369047Y-43855771D01*
X19369047Y-43855771D02*
X19178571Y-43855771D01*
X19178571Y-43855771D02*
X19083333Y-43903390D01*
X19083333Y-43903390D02*
X19035714Y-43951009D01*
X19035714Y-43951009D02*
X18988095Y-44046247D01*
D10*
X57319880Y-33676818D02*
X57319880Y-34704913D01*
X57319880Y-34704913D02*
X57380357Y-34825865D01*
X57380357Y-34825865D02*
X57440833Y-34886342D01*
X57440833Y-34886342D02*
X57561785Y-34946818D01*
X57561785Y-34946818D02*
X57803690Y-34946818D01*
X57803690Y-34946818D02*
X57924642Y-34886342D01*
X57924642Y-34886342D02*
X57985119Y-34825865D01*
X57985119Y-34825865D02*
X58045595Y-34704913D01*
X58045595Y-34704913D02*
X58045595Y-33676818D01*
X58831785Y-34221103D02*
X58710833Y-34160627D01*
X58710833Y-34160627D02*
X58650356Y-34100151D01*
X58650356Y-34100151D02*
X58589880Y-33979199D01*
X58589880Y-33979199D02*
X58589880Y-33918722D01*
X58589880Y-33918722D02*
X58650356Y-33797770D01*
X58650356Y-33797770D02*
X58710833Y-33737294D01*
X58710833Y-33737294D02*
X58831785Y-33676818D01*
X58831785Y-33676818D02*
X59073690Y-33676818D01*
X59073690Y-33676818D02*
X59194642Y-33737294D01*
X59194642Y-33737294D02*
X59255118Y-33797770D01*
X59255118Y-33797770D02*
X59315595Y-33918722D01*
X59315595Y-33918722D02*
X59315595Y-33979199D01*
X59315595Y-33979199D02*
X59255118Y-34100151D01*
X59255118Y-34100151D02*
X59194642Y-34160627D01*
X59194642Y-34160627D02*
X59073690Y-34221103D01*
X59073690Y-34221103D02*
X58831785Y-34221103D01*
X58831785Y-34221103D02*
X58710833Y-34281580D01*
X58710833Y-34281580D02*
X58650356Y-34342056D01*
X58650356Y-34342056D02*
X58589880Y-34463008D01*
X58589880Y-34463008D02*
X58589880Y-34704913D01*
X58589880Y-34704913D02*
X58650356Y-34825865D01*
X58650356Y-34825865D02*
X58710833Y-34886342D01*
X58710833Y-34886342D02*
X58831785Y-34946818D01*
X58831785Y-34946818D02*
X59073690Y-34946818D01*
X59073690Y-34946818D02*
X59194642Y-34886342D01*
X59194642Y-34886342D02*
X59255118Y-34825865D01*
X59255118Y-34825865D02*
X59315595Y-34704913D01*
X59315595Y-34704913D02*
X59315595Y-34463008D01*
X59315595Y-34463008D02*
X59255118Y-34342056D01*
X59255118Y-34342056D02*
X59194642Y-34281580D01*
X59194642Y-34281580D02*
X59073690Y-34221103D01*
X39713842Y-24917619D02*
X39774318Y-24736190D01*
X39774318Y-24736190D02*
X39774318Y-24433809D01*
X39774318Y-24433809D02*
X39713842Y-24312857D01*
X39713842Y-24312857D02*
X39653365Y-24252381D01*
X39653365Y-24252381D02*
X39532413Y-24191904D01*
X39532413Y-24191904D02*
X39411461Y-24191904D01*
X39411461Y-24191904D02*
X39290508Y-24252381D01*
X39290508Y-24252381D02*
X39230032Y-24312857D01*
X39230032Y-24312857D02*
X39169556Y-24433809D01*
X39169556Y-24433809D02*
X39109080Y-24675714D01*
X39109080Y-24675714D02*
X39048603Y-24796666D01*
X39048603Y-24796666D02*
X38988127Y-24857143D01*
X38988127Y-24857143D02*
X38867175Y-24917619D01*
X38867175Y-24917619D02*
X38746222Y-24917619D01*
X38746222Y-24917619D02*
X38625270Y-24857143D01*
X38625270Y-24857143D02*
X38564794Y-24796666D01*
X38564794Y-24796666D02*
X38504318Y-24675714D01*
X38504318Y-24675714D02*
X38504318Y-24373333D01*
X38504318Y-24373333D02*
X38564794Y-24191904D01*
X39774318Y-22982380D02*
X39774318Y-23708095D01*
X39774318Y-23345238D02*
X38504318Y-23345238D01*
X38504318Y-23345238D02*
X38685746Y-23466190D01*
X38685746Y-23466190D02*
X38806699Y-23587142D01*
X38806699Y-23587142D02*
X38867175Y-23708095D01*
D12*
%TO.C,U2*%
X27975000Y-21500000D02*
X28625000Y-20850000D01*
X27975000Y-34150000D02*
X27975000Y-21500000D01*
X28625000Y-20850000D02*
X35525000Y-20850000D01*
X35525000Y-20850000D02*
X35525000Y-34150000D01*
X35525000Y-34150000D02*
X27975000Y-34150000D01*
X28075000Y-20850000D02*
G75*
G02*
X27875000Y-20850000I-100000J0D01*
G01*
X27875000Y-20850000D02*
G75*
G02*
X28075000Y-20850000I100000J0D01*
G01*
D13*
%TO.C,U7*%
X26990000Y-40090000D02*
X41210000Y-40090000D01*
X26990000Y-53310000D02*
X26990000Y-40090000D01*
X41210000Y-40090000D02*
X41210000Y-54310000D01*
X41210000Y-54310000D02*
X27990000Y-54310000D01*
X26990000Y-54810000D02*
X26490000Y-54310000D01*
X26990000Y-54310000D01*
X26990000Y-54810000D01*
G36*
X26990000Y-54810000D02*
G01*
X26490000Y-54310000D01*
X26990000Y-54310000D01*
X26990000Y-54810000D01*
G37*
D12*
%TO.C,S2*%
X37750000Y-32700000D02*
X37750000Y-28700000D01*
D14*
X37900000Y-33000000D02*
X37900000Y-33000000D01*
X37900000Y-33100000D02*
X37900000Y-33100000D01*
D12*
X40650000Y-32700000D02*
X40650000Y-28700000D01*
D14*
X37900000Y-33000000D02*
G75*
G02*
X37900000Y-33100000I0J-50000D01*
G01*
X37900000Y-33100000D02*
G75*
G02*
X37900000Y-33000000I0J50000D01*
G01*
D13*
%TO.C,U6*%
X16640000Y-45715000D02*
X16640000Y-45480000D01*
X16640000Y-49460000D02*
X16640000Y-48985000D01*
X17115000Y-45240000D02*
X16940000Y-45240000D01*
X17115000Y-49460000D02*
X16640000Y-49460000D01*
X20385000Y-45240000D02*
X20860000Y-45240000D01*
X20385000Y-49460000D02*
X20860000Y-49460000D01*
X20860000Y-45240000D02*
X20860000Y-45715000D01*
X20860000Y-49460000D02*
X20860000Y-48985000D01*
X16640000Y-45240000D02*
X16400000Y-44910000D01*
X16880000Y-44910000D01*
X16640000Y-45240000D01*
G36*
X16640000Y-45240000D02*
G01*
X16400000Y-44910000D01*
X16880000Y-44910000D01*
X16640000Y-45240000D01*
G37*
D15*
%TO.C,U8*%
X69400000Y-39430000D02*
G75*
G02*
X69150000Y-39430000I-125000J0D01*
G01*
X69150000Y-39430000D02*
G75*
G02*
X69400000Y-39430000I125000J0D01*
G01*
D12*
%TO.C,S1*%
X37750000Y-25950000D02*
X37750000Y-21950000D01*
D14*
X37900000Y-26250000D02*
X37900000Y-26250000D01*
X37900000Y-26350000D02*
X37900000Y-26350000D01*
D12*
X40650000Y-25950000D02*
X40650000Y-21950000D01*
D14*
X37900000Y-26250000D02*
G75*
G02*
X37900000Y-26350000I0J-50000D01*
G01*
X37900000Y-26350000D02*
G75*
G02*
X37900000Y-26250000I0J50000D01*
G01*
%TD*%
M02*
